<svg xmlns="http://www.w3.org/2000/svg" viewBox="0 0 600 400">
  <path
    d="M443.975 180.28q2.153 0 3.691 1.538 1.538 1.538 1.538 3.69v46.136q0 2.153-1.538 3.69-1.538 1.539-3.69 1.539h-3.63q-.8 0-1.353-.554-.554-.554-.554-1.353 0-.246-.246-.246h-34.57q-.247 0-.247.246 0 .8-.553 1.353-.554.554-1.353.554h-3.63q-2.153 0-3.69-1.538-1.538-1.538-1.538-3.691v-46.135q0-2.153 1.537-3.691 1.538-1.538 3.691-1.538zm-5.536 46.074v-37.4q0-.677-.677-.677h-33.709q-.677 0-.677.677v37.4q0 .676.677.676h33.71q.676 0 .676-.676zm-23.437-28.543q.677 0 .677-.676v-.185q0-.676-.677-.676h-6.397q-.984 0-1.722-.677-.738-.738-.738-1.784t.738-1.722q.738-.738 1.722-.738h6.828q.246 0 .246-.246 0-.8.554-1.354.553-.553 1.353-.553h6.644q.8 0 1.353.553.553.554.553 1.354 0 .246.246.246h6.829q.984 0 1.722.738.738.676.738 1.722 0 1.046-.738 1.784-.738.677-1.722.677h-6.398q-.677 0-.677.676v.185q0 .676.677.676h6.89q1.045 0 1.783.8.8.738.8 1.784t-.8 1.845q-.738.8-1.783.8h-25.59q-1.046 0-1.845-.8-.739-.8-.739-1.845 0-1.046.739-1.784.8-.8 1.845-.8zm20.854 23.191q1.168.615 1.353 2.03.246 1.353-.615 2.338-.861 1.107-2.276 1.291-1.415.185-2.584-.676-2.153-1.538-5.536-3.691-.123-.062-.246.061-.123.062-.123.123 0 1.23-.923 2.153-.861.862-2.091.862h-4.183q-1.107 0-1.907-.739-.738-.8-.738-1.907 0-.307-.246-.184-2.4 1.292-5.66 2.645-1.537.677-3.137.123-1.538-.615-2.337-2.091-.677-1.292-.123-2.584.553-1.353 1.968-1.845 4.245-1.354 8.366-3.26.123-.062.062-.185-.062-.123-.185-.123h-2.707q-2.153 0-3.69-1.538-1.538-1.538-1.538-3.69v-.616q0-2.153 1.538-3.69 1.537-1.539 3.69-1.539h17.84q2.152 0 3.69 1.538 1.538 1.538 1.538 3.691v3.383q0 .554.43.862 1.354.922 1.6 2.583.307 1.6-.677 2.891-.123.185-.43.554l-.492.492q-.308.308.123.615.061.062.122.062.062 0 .123.061zm-10.027-10.642v-1.107q0-.677-.677-.677h-8.489q-.676 0-.676.677v1.107q0 .677.676.677h8.49q.676 0 .676-.677zm5.598 5.536q.123-.184 0-.369-.062-.184-.308-.184h-3.445q-.492 0-.8.246-.369.369 0 .492.431.185 1.23.615.8.43 1.17.615.676.37 1.107-.184.184-.246.492-.615.369-.37.554-.616zm-111.709-27.004q2.153 0 3.69 1.538 1.539 1.538 1.539 3.69v23.991q0 2.153-1.538 3.69-1.538 1.539-3.691 1.539h-2.83q-1.107 0-1.907-.8t-.8-1.907q0-.369-.368-.369H304.4q-.676 0-.676.677v11.01q0 2.154-1.538 3.691-1.538 1.538-3.691 1.538h-1.23q-2.153 0-3.691-1.538-1.538-1.537-1.538-3.69V220.94q0-.677-.677-.677h-9.411q-.37 0-.37.369 0 1.107-.799 1.907-.8.8-1.907.8h-2.83q-2.153 0-3.69-1.538-1.538-1.538-1.538-3.691v-23.99q0-2.153 1.538-3.691 1.537-1.538 3.69-1.538h15.317q.677 0 .677-.677v-3.629q0-2.153 1.538-3.69 1.538-1.539 3.69-1.539h1.23q2.154 0 3.692 1.538 1.538 1.538 1.538 3.691v3.63q0 .676.676.676zm-37.462 22.145h9.104q.677 0 .677-.677v-11.257q0-.676-.677-.676h-9.104q-.676 0-.676.676v11.257q0 .677.676.677zm31.926-.677v-11.257q0-.676-.677-.676h-9.104q-.676 0-.676.676v11.257q0 .677.676.677h9.104q.677 0 .677-.677zm130.716-107.587q1.784 0 3.014 1.292 1.292 1.23 1.292 3.014 0 1.784-1.292 3.076-1.23 1.23-3.014 1.23h-4.183q-.184 0-.307.185-.123.184 0 .307 3.321 4.06 5.905 7.812 1.169 1.661.553 3.568-.615 1.845-2.522 2.584l-.492.184q-.553.246-.184.738 1.23 1.415 1.23 3.384v12.917q0 2.892-.123 4.614t-.554 3.445q-.369 1.722-1.107 2.583-.676.923-1.968 1.661-1.292.738-3.137.984-1.846.246-4.49.246-2.769 0-5.599-.123-1.722-.061-2.89-1.291-1.17-1.17-1.231-2.892-.062-1.599 1.107-2.706 1.169-1.169 2.768-1.107 3.691.123 4.306.123.923 0 1.046-.123.185-.185.185-1.108v-.246q0-.676-.677-.676h-23.252q-.677 0-.677.676v4.245q0 2.153-1.538 3.69-1.538 1.538-3.69 1.538h-1.23q-2.154 0-3.692-1.537-1.537-1.538-1.537-3.691v-21.222q0-2.153 1.537-3.691 1.538-1.538 3.691-1.538h34.202q.184 0 .246-.123.123-.185 0-.308-.308-.307-.677-.922-.123-.246-.492-.677-.37-.492-.492-.738-.37-.615-1.107-.492-17.532 1.415-34.632 1.907-1.723.061-3.015-1.108-1.291-1.168-1.414-2.952-.123-1.723.984-2.953 1.169-1.23 2.89-1.292l5.168-.184q.738 0 1.046-.554l.615-1.23q.43-.861.677-1.23.123-.246 0-.431-.123-.246-.37-.246h-8.857q-1.784 0-3.076-1.23-1.23-1.292-1.23-3.076t1.23-3.014q1.292-1.292 3.076-1.292h17.654q.492 0 .492-.492 0-1.476.984-2.46 1.046-1.046 2.522-1.046h4.675q1.477 0 2.46 1.045 1.047.985 1.047 2.461 0 .492.492.492h17.654zm-11.688 37.462v-.492q0-.677-.676-.677h-23.252q-.677 0-.677.677v.492q0 .676.677.676h23.252q.676 0 .676-.676zm0-7.382v-.492q0-.677-.676-.677h-23.252q-.677 0-.677.677v.492q0 .677.677.677h23.252q.676 0 .676-.677zm-4.552-19.377q-.492-.676-.492-1.414 0-.677-.553-.677h-10.088q-.554 0-.554.615.061.984-.43 2.03-.247.492.307.492 3.568-.184 11.626-.676.123 0 .184-.123.123-.185 0-.247zm-113.861-7.935q2.153 0 3.69 1.538 1.539 1.538 1.539 3.69v35.064q0 2.153-1.538 3.69-1.538 1.538-3.691 1.538h-35.063q-2.153 0-3.69-1.538-1.538-1.537-1.538-3.69t1.537-3.691q1.538-1.538 3.691-1.538h27.927q.677 0 .677-.677v-23.252q0-.677-.677-.677h-27.927q-2.153 0-3.69-1.537-1.538-1.538-1.538-3.691 0-2.153 1.537-3.691 1.538-1.538 3.691-1.538zm-123.027 0q2.153 0 3.69 1.538 1.539 1.538 1.539 3.69v35.064q0 2.153-1.538 3.69-1.538 1.538-3.691 1.538h-35.063q-2.153 0-3.69-1.538-1.538-1.537-1.538-3.69t1.537-3.691q1.538-1.538 3.691-1.538h27.927q.677 0 .677-.677v-23.252q0-.677-.677-.677h-27.927q-2.153 0-3.69-1.537-1.538-1.538-1.538-3.691 0-2.153 1.537-3.691 1.538-1.538 3.691-1.538zm60.283 0q2.153 0 3.691 1.538 1.538 1.538 1.538 3.69v.924q0 2.153-1.538 3.69-1.538 1.538-3.69 1.538H220.68q-2.153 0-3.69-1.538-1.538-1.537-1.538-3.69v-.923q0-2.153 1.537-3.691 1.538-1.538 3.691-1.538zm4.306 34.14q2.153 0 3.69 1.538 1.539 1.538 1.539 3.69v.924q0 2.153-1.538 3.69-1.538 1.538-3.69 1.538h-39.985q-2.153 0-3.69-1.538-1.538-1.537-1.538-3.69v-.923q0-2.153 1.538-3.691 1.537-1.538 3.69-1.538zm87.41-39.06q2.154.368 3.384 2.214 1.292 1.783.8 3.936-1.107 5.352-3.076 10.273-.246.554-.246 1.292v33.033q0 2.153-1.538 3.69-1.538 1.538-3.69 1.538h-.308q-2.153 0-3.691-1.537-1.538-1.538-1.538-3.691v-17.162q0-.124-.123-.185-.061-.061-.184 0-.739 1.046-1.969.738-1.169-.369-1.353-1.6l-.615-4.305q-.615-4.737 2.153-9.535 3.383-5.905 5.536-14.517.554-2.153 2.337-3.322 1.846-1.23 3.999-.86zm41.46 41.52q1.846 1.416 2.4 3.63.615 2.153-.308 4.183l-.184.369q-.861 1.784-2.83 2.215-1.907.43-3.321-.923-3.999-3.691-7.382-8.058-.062-.123-.246-.062-.123.062-.123.246v7.628q0 2.153-1.538 3.69-1.538 1.538-3.69 1.538h-.924q-2.152 0-3.69-1.537-1.538-1.538-1.538-3.691v-7.628q0-.184-.185-.184-.184-.062-.246.061-3.568 4.552-7.32 8.058-1.476 1.354-3.445.923-1.968-.37-2.89-2.215l-.431-.8q-.985-1.968-.43-4.12.553-2.215 2.337-3.507 4.06-3.014 6.52-5.475.123-.123.062-.307-.062-.185-.247-.185h-4.06q-1.845 0-3.137-1.291-1.291-1.354-1.291-3.2 0-1.845 1.291-3.136 1.292-1.292 3.138-1.292h9.657q.677 0 .677-.677v-1.415q0-.676-.677-.676h-6.397q-2.153 0-3.691-1.538-1.538-1.538-1.538-3.69v-12.919q0-2.153 1.538-3.69 1.538-1.538 3.69-1.538h25.836q2.153 0 3.691 1.537 1.538 1.538 1.538 3.691v12.918q0 2.153-1.538 3.69-1.538 1.539-3.69 1.539h-6.706q-.676 0-.676.676v1.415q0 .677.676.677h9.289q1.845 0 3.137 1.292 1.354 1.291 1.354 3.137 0 1.845-1.354 3.199-1.292 1.291-3.137 1.291h-4.367q-.185 0-.246.246 0 .185.122.308 2.892 2.83 6.52 5.598zm-23.928-26.45h12.795q.677 0 .677-.677v-4.49q0-.677-.677-.677h-12.795q-.676 0-.676.677v4.49q0 .677.676.677zm23.19 91.04q1.6 0 2.707 1.169 1.108 1.107 1.108 2.645v.8q0 1.906-1.354 3.26-1.353 1.353-3.26 1.353H369.36q-.246 0-.307.185-.062.184.061.369 4.183 5.351 14.272 9.35 1.968.8 2.768 2.706.8 1.907-.123 3.814l-.062.062q-.984 2.03-3.076 2.89-2.03.862-4.121 0-11.626-5.043-18.331-14.393-.123-.246-.43-.246-.308 0-.431.246-7.136 9.473-19.561 14.517-2.03.8-4.122-.123-2.091-.861-3.076-2.891l-.061-.062q-.923-1.907-.123-3.814t2.768-2.706q10.027-3.999 14.271-9.35.123-.185 0-.37-.061-.184-.307-.184h-14.271q-1.907 0-3.26-1.353-1.354-1.354-1.354-3.26v-.8q0-1.538 1.107-2.645 1.107-1.169 2.707-1.169.492 0 .492-.492V191.66q0-2.153 1.538-3.69 1.538-1.538 3.69-1.538h12.857q.677 0 .677-.677v-1.169q0-2.153 1.537-3.69 1.538-1.539 3.691-1.539h1.23q2.153 0 3.691 1.538 1.538 1.538 1.538 3.691v1.169q0 .677.677.677h12.856q2.153 0 3.69 1.537Q384 189.507 384 191.66v14.579q0 .492.492.492zm-30.94-2.153v-7.935q0-.677-.677-.677h-6.951q-.677 0-.677.677v9.411q0 .677.677.677h6.828q.738 0 .738-.677v-.738q.061-.492.061-.738zm19.991 1.476v-9.411q0-.677-.676-.677h-6.951q-.677 0-.677.677v8.673q.062.492.062.738 0 .677.738.677h6.828q.676 0 .676-.677zM129.026 105.541q2.153 0 3.69 1.538 1.539 1.538 1.539 3.69v.924q0 2.153-1.538 3.69-1.538 1.538-3.69 1.538H97.653q-2.153 0-3.69-1.538-1.538-1.537-1.538-3.69v-.923q0-2.153 1.537-3.691 1.538-1.538 3.691-1.538zm4.306 34.14q2.153 0 3.69 1.538 1.539 1.538 1.539 3.69v.924q0 2.153-1.538 3.69-1.538 1.538-3.69 1.538H93.347q-2.153 0-3.69-1.538-1.538-1.537-1.538-3.69v-.923q0-2.153 1.537-3.691 1.538-1.538 3.691-1.538zm64.59 43.06q2.152 0 3.69 1.538 1.538 1.537 1.538 3.69v42.137q0 2.153-1.538 3.69-1.538 1.539-3.69 1.539h-3.138q-1.107 0-1.907-.8t-.8-1.907q0-.369-.369-.369h-5.413q-.369 0-.369.37 0 1.106-.8 1.906-.8.8-1.906.8h-2.83q-2.153 0-3.69-1.538-1.539-1.538-1.539-3.69v-42.138q0-2.153 1.538-3.69 1.538-1.538 3.69-1.538zm-5.844 39.614v-29.403q0-.677-.677-.677h-4.798q-.677 0-.677.677v29.403q0 .677.677.677h4.798q.677 0 .677-.677zm-23.93-15.686q1.108 1.784 2.953 4.983 1.846 3.199 2.4 4.06.984 1.66.615 3.63-.308 1.906-1.846 3.075-1.353 1.046-3.014.615-1.6-.492-2.215-2.03-.246-.615-.738-1.784l-.738-1.845q-.061-.062-.184-.062-.062 0-.062.123v13.902q0 2.153-1.538 3.691-1.538 1.538-3.69 1.538-2.153 0-3.691-1.538-1.538-1.538-1.538-3.69v-8.613q0-.123-.123-.123-.062 0-.123.062-.861 2.338-1.723 4.183-.8 1.6-2.583 1.6-1.784-.062-2.707-1.662l-.246-.43q-1.169-2.092-1.046-4.43.185-2.337 1.477-4.367 3.568-5.351 5.413-10.826.061-.246-.123-.43-.123-.185-.37-.185h-1.845q-1.906 0-3.26-1.353-1.353-1.354-1.353-3.26 0-1.908 1.353-3.26 1.354-1.354 3.26-1.354h3.322q.677 0 .677-.677V191.6q0-.615-.677-.615l-2.399.184q-1.784.123-3.199-1.107-1.414-1.23-1.599-3.014-.184-1.723.923-3.076 1.169-1.353 2.952-1.476 7.444-.554 15.379-2.153 1.845-.37 3.506.553 1.723.923 2.338 2.645.615 1.723-.185 3.322-.8 1.538-2.583 1.969-1.969.492-3.322.676-.677.123-.677.8v5.905q0 .677.677.677h2.706q1.907 0 3.26 1.353 1.354 1.353 1.354 3.26 0 1.907-1.353 3.26-1.354 1.354-3.26 1.354h-.247q-.246 0-.369.184-.061.185.062.37zm337.34-106.356q2.154 0 3.692 1.537 1.538 1.538 1.538 3.691v46.135q0 2.153-1.538 3.691-1.538 1.538-3.691 1.538h-3.63q-.8 0-1.353-.554-.553-.553-.553-1.353 0-.246-.246-.246h-34.571q-.246 0-.246.246 0 .8-.554 1.353-.553.554-1.353.554h-3.63q-2.152 0-3.69-1.538-1.538-1.538-1.538-3.69V105.54q0-2.153 1.538-3.69 1.538-1.538 3.69-1.538zm-5.535 46.073v-37.4q0-.677-.677-.677h-33.71q-.676 0-.676.677v37.4q0 .677.677.677h33.709q.677 0 .677-.677zm-23.437-28.542q.677 0 .677-.677v-.184q0-.677-.677-.677h-6.397q-.985 0-1.723-.677-.738-.738-.738-1.783 0-1.046.738-1.723.738-.738 1.723-.738h6.828q.246 0 .246-.246 0-.8.553-1.353.554-.554 1.354-.554h6.643q.8 0 1.353.554.554.553.554 1.353 0 .246.246.246h6.828q.984 0 1.722.738.739.677.739 1.723 0 1.045-.739 1.783-.738.677-1.722.677h-6.397q-.677 0-.677.677v.184q0 .677.677.677h6.89q1.045 0 1.783.8.8.738.8 1.783 0 1.046-.8 1.846-.738.8-1.784.8h-25.59q-1.045 0-1.845-.8-.738-.8-.738-1.846 0-1.045.738-1.783.8-.8 1.845-.8zm20.853 23.19q1.169.616 1.353 2.03.246 1.354-.615 2.338-.86 1.107-2.276 1.292-1.415.184-2.583-.677-2.153-1.538-5.537-3.69-.123-.062-.246.06-.123.062-.123.124 0 1.23-.922 2.153-.861.86-2.092.86h-4.183q-1.107 0-1.907-.737-.738-.8-.738-1.907 0-.308-.246-.185-2.399 1.292-5.66 2.645-1.537.677-3.136.123-1.538-.615-2.338-2.091-.676-1.292-.123-2.584.554-1.353 1.969-1.845 4.244-1.353 8.366-3.26.123-.062.061-.185-.061-.123-.184-.123h-2.707q-2.153 0-3.69-1.538-1.539-1.538-1.539-3.69v-.616q0-2.153 1.538-3.69 1.538-1.538 3.69-1.538h17.84q2.153 0 3.69 1.538 1.538 1.537 1.538 3.69v3.384q0 .553.431.86 1.353.923 1.6 2.584.307 1.6-.677 2.891-.123.185-.43.554l-.493.492q-.307.308.123.615.062.062.123.062.062 0 .123.061zm-10.027-10.641v-1.108q0-.676-.676-.676h-8.49q-.676 0-.676.676v1.108q0 .676.677.676h8.489q.676 0 .676-.676zm5.598 5.536q.123-.185 0-.37-.061-.184-.307-.184h-3.445q-.492 0-.8.246-.369.37 0 .492.43.185 1.23.616.8.43 1.17.615.676.369 1.106-.185.185-.246.492-.615.37-.37.554-.615zm-265.8 88.149q-3.69 5.105-10.273 9.473-1.906 1.23-4.06.738-2.152-.43-3.444-2.276l-.123-.123q-1.169-1.66-.677-3.63.492-1.968 2.276-3.013 3.752-2.215 6.028-4.183.062-.062.062-.185.061-.123 0-.184-.062-.123-.185-.123h-3.875q-1.722 0-2.953-1.23-1.23-1.231-1.23-2.953 0-1.723 1.23-2.891 1.23-1.23 2.953-1.23h12.303q1.722 0 2.89 1.23 1.231 1.168 1.231 2.89 0 4.737-2.153 7.69zm34.817 1.107q1.784 1.046 2.214 3.076.492 1.968-.676 3.629l-.123.123q-1.292 1.845-3.507 2.338-2.153.492-3.998-.739-6.828-4.49-12.303-10.888-.061-.123-.246-.061-.184.061-.184.246v1.353q0 3.138-.123 4.921-.062 1.784-.554 3.322-.492 1.538-1.107 2.215-.615.676-2.092 1.168-1.414.492-3.014.554-1.6.123-4.49.123-.308 0-3.999-.123-1.968-.123-3.383-1.476-1.415-1.354-1.538-3.322-.123-1.845 1.17-3.137 1.352-1.354 3.198-1.23 1.169.061 2.399.061 1.6 0 1.845-.308.308-.307.308-1.845v-14.702q0-.676-.677-.676h-12.856q-2.153 0-3.691-1.538-1.538-1.538-1.538-3.691v-16.301q0-2.153 1.538-3.69 1.538-1.539 3.69-1.539h10.581q.492 0 .615-.492.37-1.6 1.661-2.645 1.353-1.046 3.014-.984l4.49.246q1.293.123 2.092 1.169.8.984.554 2.276-.123.43.369.43h12.918q2.153 0 3.69 1.538 1.538 1.538 1.538 3.69v16.302q0 2.153-1.537 3.69-1.538 1.539-3.691 1.539h-8.981q-.246 0-.308.184-.061.185.062.37 1.845 2.583 3.875 4.674.43.492.984.062 2.03-1.538 4.614-3.814 1.6-1.415 3.752-1.353 2.153 0 3.69 1.414 1.539 1.415 1.539 3.445.061 2.03-1.477 3.383-2.83 2.461-4.305 3.568-.616.492-.062.8 1.66 1.169 4.06 2.645zm-37.585-33.463v1.414q0 .677.677.677h22.637q.676 0 .676-.677v-1.414q0-.677-.676-.677h-22.637q-.677 0-.677.677zm.677 11.318h22.637q.676 0 .676-.676v-1.415q0-.677-.676-.677h-22.637q-.677 0-.677.677v1.415q0 .676.677.676z"
    style="fill:#003586"
  />
  <g
    data-circuit="{ &quot;d&quot;: &quot;m 37.065043,32.590205 19.521057,55.934952 97.60529,-47.329584 -1.3014,68.843007 137.94878,12.04755 95.00249,-44.747975 -132.7432,-32.700437 132.7432,-0.860531 150.96283,82.611623 -296.72005,79.16946 205.62179,54.21386 -239.45832,85.19322 -29.93228,-108.42774 -24.72667,-54.21386 165.27827,-28.39775 -79.38561,-17.21074 -111.92072,0 -5.20562,-28.39774 -78.084224,40.44525 33.836499,168.66539 53.357555,-13.7686 L 44.873465,369.06041 415.77356,336.36 562.83217,301.93846 505.57041,235.67708 366.3202,222.76899 l 192.60774,-37.86362 0,-62.81924 -85.89265,-59.377104 81.98843,-31.839895 z&quot;, &quot;denominator&quot;: 4800, &quot;time&quot;: 16 }"
    style="fill:#ffc30c"
  >
    <circle r="25" cy="140.826" cx="256.442" />
    <circle r="20" cy="342.913" cx="341.445" />
    <circle r="14" cy="39.792" cx="532.046" />
    <circle r="9" cy="118.802" cx="253.232" />
    <circle r="4" cy="202.594" cx="251.196" />
  </g>
  <path
    d="M354.438 284.514q.028-.11-.055-.165-.082-.055-.192-.027-2.366.797-3.659 2.668-1.292 1.87-1.292 4.483 0 1.568.605 2.998.605 1.403 1.045 1.403.44 0 .963-1.018.55-1.045 1.237-3.713.715-2.696 1.348-6.629zm3.328-5.418q4.869 0 8.059 3.108 3.218 3.08 3.218 7.894 0 4.263-1.898 7.096-1.87 2.805-5.143 3.768-.935.275-1.76-.303-.826-.577-1.073-1.567l-.055-.11q-.22-.88.275-1.706.523-.825 1.43-1.237 3.273-1.513 3.273-5.941 0-2.146-1.127-3.741-1.1-1.595-2.97-2.228-.303-.11-.358.22-.743 4.951-1.65 8.252-.908 3.3-2.036 5.088-1.128 1.76-2.31 2.448-1.183.687-2.75.687-2.449 0-4.54-2.723-2.062-2.75-2.062-6.628 0-5.501 3.713-8.94 3.713-3.437 9.764-3.437zm37.984-1.045q.605 1.1.908 1.677.302.578.082 1.21-.22.606-.825.908-.605.303-1.238.11-.632-.22-.935-.825-.275-.55-.88-1.65-.303-.578-.137-1.21.192-.66.797-.936.605-.302 1.238-.082.66.192.99.798zm-.193 9.214q.743.632.88 1.595.138.935-.44 1.733-.55.77-1.512.88-.935.11-1.65-.495-.77-.66-1.128-.99-.028-.028-.055 0v.055q.77 2.2.77 4.455 0 3.218-2.695 5.336-2.668 2.09-7.207 2.09-4.345 0-6.93-2.337-2.559-2.366-2.559-6.464 0-2.145 1.21-4.593t3.301-4.4q.028-.028.028-.056 0-.027-.028-.027h-2.723q-.908 0-1.568-.633-.632-.66-.632-1.568 0-.907.632-1.54.66-.66 1.568-.66h5.914q.962 0 1.65.687.687.688.687 1.65 0 1.981-1.76 3.879-1.403 1.485-2.228 3.383-.825 1.87-.825 3.603 0 2.255 1.155 3.466 1.156 1.21 3.108 1.21 2.31 0 3.548-1.21 1.266-1.21 1.266-3.466 0-2.173-.193-3.356-.192-1.21-.99-3.245-.385-.99-.137-2.008.247-1.018 1.045-1.705.852-.743 2.035-.55.083.027.137-.055.056-.083 0-.165-.11-.22-.357-.66-.248-.468-.358-.688-.302-.578-.11-1.183.193-.632.77-.935.606-.302 1.238-.11.633.193.935.798l.413.825q.302.523.44.798.303.577.083 1.21-.193.632-.77.907-.138.083-.523.138-.083 0-.11.082-.028.083.027.138 2.256 2.228 4.649 4.18zm13.89-2.75q.028-.11-.055-.166-.082-.055-.192-.027-2.366.797-3.658 2.668-1.293 1.87-1.293 4.483 0 1.568.605 2.998.605 1.403 1.045 1.403.44 0 .963-1.018.55-1.045 1.237-3.713.716-2.696 1.348-6.629zm3.328-5.42q4.869 0 8.06 3.109 3.217 3.08 3.217 7.894 0 4.263-1.898 7.096-1.87 2.805-5.143 3.768-.935.275-1.76-.303-.825-.577-1.073-1.567l-.055-.11q-.22-.88.275-1.706.523-.825 1.43-1.237 3.273-1.513 3.273-5.941 0-2.146-1.127-3.741-1.1-1.595-2.97-2.228-.303-.11-.358.22-.743 4.951-1.65 8.252-.908 3.3-2.036 5.088-1.128 1.76-2.31 2.448-1.183.687-2.75.687-2.449 0-4.539-2.723-2.063-2.75-2.063-6.628 0-5.501 3.713-8.94 3.713-3.437 9.764-3.437zm115.3 18.374q.77.577.88 1.54.11.963-.523 1.678l-.275.275q-.633.743-1.623.853-.962.11-1.733-.468-3.355-2.503-7.838-5.583-2.696-1.87-3.713-2.723-1.018-.88-1.376-1.568-.357-.715-.357-1.925 0-1.816.852-2.75.88-.936 4.539-3.246 3.19-2.008 7.26-4.786.798-.55 1.761-.385.963.165 1.54.962l.275.33q.578.798.413 1.733-.165.935-.963 1.485-3.383 2.338-6.986 4.511-1.65 1.018-2.145 1.43-.495.385-.495.716 0 .33.412.715.44.357 2.063 1.457 3.548 2.338 8.031 5.749zm-28.028-16.64q.99-.275 1.898.165.908.412 1.265 1.347 2.42 6.299 2.75 13.945.028.963-.66 1.65-.66.688-1.622.688h-.55q-.963 0-1.65-.688-.688-.687-.743-1.677-.33-6.436-2.42-12.487-.303-.88.11-1.733.412-.853 1.32-1.1l.302-.11zm-4.208 11.194q.935.357 1.348 1.238.412.852 0 1.732-1.458 3.163-3.493 4.924-2.008 1.733-3.906 1.733-2.53 0-4.703-3.274-2.173-3.273-2.173-8.003 0-3.768.88-7.647.22-.99 1.073-1.54.88-.577 1.898-.467l.412.055q.908.11 1.43.88.55.742.358 1.65-.825 3.988-.825 7.069 0 1.292.192 2.475.22 1.155.55 1.925.33.743.66 1.21.358.44.66.44.413 0 1.073-.77.66-.797 1.403-2.282.44-.88 1.348-1.293.935-.413 1.815-.055zm-45.08-13.972q.605 1.1.908 1.677.302.578.082 1.21-.22.606-.825.908-.605.303-1.238.11-.632-.22-.935-.825-.275-.55-.88-1.65-.302-.578-.137-1.21.192-.66.797-.936.605-.302 1.238-.082.66.192.99.798zm-.192 9.214q.742.632.88 1.595.137.935-.44 1.733-.55.77-1.513.88-.935.11-1.65-.495-.77-.66-1.128-.99-.028-.028-.055 0v.055q.77 2.2.77 4.455 0 3.218-2.696 5.336-2.667 2.09-7.206 2.09-4.345 0-6.93-2.337-2.559-2.366-2.559-6.464 0-2.145 1.21-4.593t3.301-4.4q.027-.028.027-.056 0-.027-.027-.027h-2.723q-.908 0-1.568-.633-.632-.66-.632-1.568 0-.907.632-1.54.66-.66 1.568-.66h5.914q.962 0 1.65.687.687.688.687 1.65 0 1.981-1.76 3.879-1.403 1.485-2.228 3.383-.825 1.87-.825 3.603 0 2.255 1.155 3.466 1.155 1.21 3.108 1.21 2.31 0 3.548-1.21 1.266-1.21 1.266-3.466 0-2.173-.193-3.356-.192-1.21-.99-3.245-.385-.99-.138-2.008.248-1.018 1.046-1.705.852-.743 2.035-.55.082.027.137-.055.056-.083 0-.165-.11-.22-.357-.66-.248-.468-.358-.688-.302-.578-.11-1.183.193-.632.77-.935.606-.302 1.238-.11.633.193.935.798l.413.825q.302.523.44.798.302.577.083 1.21-.193.632-.77.907-.138.083-.523.138-.083 0-.11.082-.028.083.027.138 2.256 2.228 4.648 4.18zm18.593 8.471v-.11q0-.33-.303-.385-.275-.055-.798-.055-1.925 0-1.925 1.1 0 .578.358.853.385.247 1.292.247 1.376 0 1.376-1.65zm5.253-6.188q-.303 0-.303.302v2.778q0 .33.248.495 1.348 1.018 3.163 2.888.66.688.633 1.623-.028.935-.688 1.595-.66.66-1.568.633-.907-.028-1.54-.688l-.468-.467q-.22-.22-.357.082-.66 1.43-2.008 2.2-1.348.798-3.19.798-6.877 0-6.877-5.5 0-5.364 6.877-5.364h.522q.303 0 .303-.275v-.798q0-.302-.303-.302h-4.153q-.88 0-1.513-.633-.632-.633-.632-1.513 0-.88.632-1.485.633-.633 1.513-.633h4.153q.303 0 .303-.302v-1.045q0-.303-.303-.303h-4.098q-.908 0-1.568-.632-.632-.66-.632-1.568t.632-1.54q.66-.66 1.568-.66h11.552q.907 0 1.54.66.66.632.66 1.54 0 .907-.66 1.568-.633.632-1.54.632h-1.898q-.303 0-.303.303v1.045q0 .302.303.302h1.953q.88 0 1.513.633.632.605.632 1.485 0 .88-.632 1.513-.633.633-1.513.633h-1.953zm-15.65-10.727q.935.11 1.458.88.55.742.385 1.65-.798 4.208-.798 8.747 0 4.538.798 8.746.165.908-.385 1.65-.523.77-1.458.88h-.22q-.99.11-1.815-.467-.826-.55-1.018-1.54-.853-4.291-.853-9.27 0-4.978.853-9.268.192-.99 1.018-1.54.825-.578 1.815-.468zm-209.502 7.976q4.345 0 6.298 1.678 1.953 1.65 1.953 5.198 0 3.686-3.163 5.831-3.136 2.146-8.939 2.146-2.53 0-4.813-.193-.908-.083-1.486-.798-.577-.715-.495-1.622.083-.908.798-1.486.715-.577 1.623-.495 2.31.193 4.373.193 2.888 0 4.538-.99 1.65-1.018 1.65-2.586 0-2.475-3.162-2.475-2.036 0-5.639 1.788-2.2 1.072-4.346.632l-.11-.027q-.962-.22-1.512-1.018t-.385-1.733l.275-1.65q.275-1.513.385-2.283.137-.963.907-1.568.77-.632 1.76-.55l.413.028q.963.082 1.54.852.606.743.496 1.678-.083.605-.248 1.76v.028h.055q3.906-2.338 7.234-2.338zm-6.711-7.729q4.73.468 9.461.55.908.028 1.54.688.66.633.66 1.54 0 .908-.66 1.568-.632.633-1.54.605-5.226-.082-10.012-.55-.907-.083-1.485-.798-.577-.742-.467-1.65.11-.908.825-1.458.742-.577 1.678-.495zm-21.482 6.354q4.291 0 6.547 1.678 2.255 1.677 2.255 4.648 0 8.114-13.67 9.681-.962.11-1.733-.495-.742-.577-.88-1.54-.137-.935.413-1.678.55-.77 1.485-.88 9.16-1.293 9.16-4.813 0-.963-.881-1.43-.88-.495-2.97-.495-3.109 0-9.297 1.292-.963.193-1.788-.33-.798-.522-1.018-1.457-.22-.963.275-1.788.496-.825 1.43-1.018 6.272-1.375 10.672-1.375zm-6.243-6.904q4.236.413 8.829.55.963.028 1.65.715.715.688.715 1.65 0 .963-.687 1.65-.66.661-1.623.634-4.098-.11-9.434-.66-.963-.11-1.54-.853-.578-.743-.468-1.678.11-.935.853-1.513.742-.577 1.705-.495zm61.94 8.28q4.346 0 6.299 1.677 1.953 1.65 1.953 5.198 0 3.686-3.163 5.831-3.136 2.146-8.94 2.146-2.53 0-4.813-.193-.907-.083-1.485-.798-.578-.715-.495-1.622.083-.908.798-1.486.715-.577 1.622-.495 2.31.193 4.374.193 2.888 0 4.538-.99 1.65-1.018 1.65-2.586 0-2.475-3.163-2.475-2.035 0-5.638 1.788-2.2 1.072-4.346.632l-.11-.027q-.963-.22-1.513-1.018-.55-.798-.385-1.733l.275-1.65q.275-1.513.385-2.283.138-.963.908-1.568.77-.632 1.76-.55l.413.028q.962.082 1.54.852.605.743.495 1.678-.082.605-.247 1.76v.028h.055q3.905-2.338 7.233-2.338zm-6.71-7.73q4.73.468 9.46.55.908.028 1.54.688.661.633.661 1.54 0 .908-.66 1.568-.633.633-1.54.605-5.226-.082-10.012-.55-.908-.083-1.485-.798-.578-.742-.468-1.65.11-.908.825-1.458.743-.577 1.678-.495zm52.12 16.035q.193.22 2.338 2.916.55.715.413 1.595-.138.853-.853 1.348-.743.523-1.65.385-.88-.137-1.458-.853-.578-.715-2.173-2.64-.577-.688-.522-1.595.082-.908.77-1.486.715-.577 1.623-.467.935.082 1.512.797zm-22.443-12.707h2.255q.715 0 1.65.193.963.165 1.265.275.33.11.798.715t.55 1.045q.083.44.22 1.678.138 1.21.138 2.173v2.998q0 5.473-1.348 7.839-1.32 2.338-3.878 2.338-1.458 0-3.878-.523-.908-.193-1.376-1.018-.467-.825-.247-1.76.22-.908 1.018-1.375.825-.495 1.732-.275 1.183.275 1.65.275 1.1 0 1.1-6.326 0-2.86-.22-3.356-.192-.495-1.43-.495h-1.842q-.303 0-.358.303-1.348 6.078-3.658 12.707-.303.88-1.155 1.292-.853.44-1.733.138-.88-.303-1.293-1.128-.385-.797-.11-1.65 1.87-5.611 3.19-11.387.056-.275-.247-.275h-1.045q-.908 0-1.568-.633-.632-.66-.632-1.567 0-.908.632-1.54.66-.66 1.568-.66h1.953q.33 0 .385-.33.358-1.871.468-2.641.165-.963.907-1.568.77-.605 1.733-.55.935.055 1.513.77.577.715.44 1.623-.11.797-.385 2.393-.028.11.055.22.082.082.22.082h.963zm12.047.55q1.485 4.401 2.777 9.324.248.908-.275 1.733-.495.825-1.43 1.045l-.22.056q-.935.22-1.788-.276-.825-.495-1.072-1.457-1.293-4.759-2.778-9.187-.303-.907.137-1.733.44-.852 1.348-1.072l.275-.055q.963-.248 1.843.22.88.467 1.182 1.403zm-127.127 12.157q.193.22 2.338 2.916.55.715.413 1.595-.138.853-.853 1.348-.742.522-1.65.385-.88-.137-1.458-.853-.577-.715-2.173-2.64-.577-.688-.522-1.595.082-.908.77-1.486.715-.577 1.623-.467.935.082 1.512.797zm-22.443-12.707h2.255q.715 0 1.65.193.963.165 1.266.275.33.11.797.715.468.605.55 1.045.083.44.22 1.678.138 1.21.138 2.173v2.998q0 5.473-1.348 7.839-1.32 2.338-3.878 2.338-1.458 0-3.878-.523-.908-.193-1.375-1.018-.468-.825-.248-1.76.22-.908 1.018-1.375.825-.495 1.732-.275 1.183.275 1.65.275 1.1 0 1.1-6.326 0-2.86-.22-3.356-.192-.495-1.43-.495h-1.842q-.303 0-.358.303-1.347 6.078-3.658 12.707-.302.88-1.155 1.292-.853.44-1.733.138-.88-.303-1.293-1.128-.385-.797-.11-1.65 1.87-5.611 3.191-11.387.055-.275-.248-.275h-1.045q-.907 0-1.567-.633-.633-.66-.633-1.567 0-.908.633-1.54.66-.66 1.567-.66h1.953q.33 0 .385-.33.358-1.871.468-2.641.165-.963.907-1.568.77-.605 1.733-.55.935.055 1.513.77.578.715.44 1.623-.11.797-.385 2.393-.028.11.055.22.083.082.22.082h.963zm12.047.55q1.485 4.401 2.778 9.324.247.908-.275 1.733-.495.825-1.43 1.045l-.22.056q-.936.22-1.788-.276-.826-.495-1.073-1.457-1.293-4.759-2.778-9.187-.303-.907.137-1.733.44-.852 1.348-1.072l.275-.055q.963-.248 1.843.22.88.467 1.183 1.403zm-31.576-1.65q3.053 0 4.951 1.898 1.926 1.87 1.926 4.978 0 3.548-2.09 5.556-2.091 2.008-5.612 2.008-.742 0-1.155-.027-.963-.055-1.568-.798-.577-.77-.495-1.76.083-.935.825-1.54.743-.606 1.706-.606h.137q1.32 0 2.173-.687.853-.715.853-1.87 0-2.448-2.393-2.476-.138 0-.193.11-.055.11-.027.22.027.055.055.165.027.083.027.138.248.935-.247 1.787-.468.853-1.403 1.128l-.165.055q-.935.275-1.788-.192-.825-.468-1.127-1.403 0-.083-.055-.193t-.083-.192q-.11-.303-.358-.22-.275.11-.852.302-.55.193-.853.303-.33.11-.22.412 1.705 5.831 2.916 10.425.247.935-.275 1.76-.496.853-1.43 1.073l-.523.137q-.935.22-1.788-.275-.825-.495-1.073-1.458-1.485-5.61-2.695-9.764-.11-.302-.358-.22-.082.028-.852.33-.77.303-1.183.468-.908.357-1.815 0-.88-.385-1.238-1.293l-.028-.055q-.385-.908 0-1.788.385-.907 1.293-1.265.495-.193 1.43-.55.936-.385 1.018-.413.303-.11.193-.412-.138-.44-.413-1.265-.248-.826-.385-1.266-.303-.907.137-1.76.44-.88 1.376-1.155l.495-.138q.935-.275 1.788.193.852.44 1.155 1.375.11.385.33 1.1.247.716.357 1.1.11.303.413.193.99-.357 1.678-.577.302-.11.22-.358l-.193-.578q-.11-.412-.192-.632-.303-.908.137-1.76.468-.853 1.403-1.1l.44-.11q.935-.276 1.788.192.852.467 1.128 1.403.055.192.165.632.137.44.192.633.11.302.44.247 1.1-.165 1.98-.165zm-63.975 10.26q.55.467 1.403.467.852 0 1.375-.468.55-.467.55-1.182 0-.715-.55-1.183-.523-.468-1.375-.468-.853 0-1.403.468-.523.468-.523 1.183 0 .715.523 1.182zm12.954-11.635q.853 0 1.458.605t.605 1.458q0 .852-.605 1.458-.605.605-1.458.605h-4.785q-.303 0-.303.302v4.346q0 .247.138.577.825 1.706.825 3.576 0 3.906-2.146 5.996-2.117 2.09-7.068 2.833-.935.137-1.706-.44-.742-.578-.907-1.513-.165-.88.385-1.595t1.43-.825q2.586-.303 3.493-.66.908-.358 1.238-1.1.027-.028.027-.083 0-.055.028-.083v-.055h-.055q-1.403.55-2.833.55-2.696 0-4.373-1.512-1.678-1.513-1.678-3.988 0-2.503 1.705-3.989 1.705-1.512 4.621-1.512.853 0 1.843.275h.055q.027 0 .027-.028v-.77q0-.302-.302-.302H71.58q-.853 0-1.458-.605-.605-.606-.605-1.458 0-.853.605-1.458t1.458-.605h9.737q.302 0 .302-.303 0-.907.633-1.54.633-.632 1.54-.632h.605q.908 0 1.54.632.633.633.633 1.54 0 .303.303.303h4.785zm23.737-.275q.935 0 1.595.66.66.66.66 1.595 0 .963-.66 1.623t-1.595.66h-12.267q-.935 0-1.595-.66-.66-.66-.66-1.623 0-.935.66-1.595.66-.66 1.595-.66zm3.438 18.345q.22.963-.303 1.788-.522.825-1.485 1.018-4.51.853-7.921.853-5.06 0-7.894-1.733-2.833-1.733-2.833-4.594 0-1.347.633-2.667.66-1.32 2.255-3.081.688-.743 1.705-.825 1.018-.11 1.843.495l.055.055q.743.523.798 1.458.082.907-.55 1.595-1.376 1.54-1.376 2.42 0 .99 1.32 1.596 1.348.605 4.044.605 2.75 0 6.959-.853.935-.192 1.732.33.798.495.99 1.43l.028.11z"
    style="fill:#5d9a1f"
  />
</svg>
