<svg xmlns="http://www.w3.org/2000/svg" viewBox="0 0 600 600">
  <path
    d="M108.125 544.213c-13.615-4.194-29.635-16.62-37.512-29.098-10.63-16.84-10.442-13.343-10.442-194.497 0-132.516.526-169.142 2.542-176.913 7.84-30.226 36.171-50.515 70.537-50.515h13.26v20.764c0 24.079 2.843 34.621 12.327 45.701 23.584 27.552 68.02 21.652 84.394-11.206 4.499-9.028 4.966-12.095 4.966-32.612V93.19h103.606v22.647c0 20.517.467 23.584 4.966 32.612 16.373 32.858 60.81 38.758 84.394 11.206 9.484-11.08 12.327-21.622 12.327-45.701V93.19h13.26c34.366 0 62.696 20.29 70.537 50.515 2.016 7.77 2.542 44.397 2.542 176.913 0 181.154.187 177.658-10.442 194.497-5.618 8.898-17.86 19.926-28.324 25.513l-8.24 4.4-189.945.334c-104.47.183-192.108-.334-194.753-1.149z"
    style="fill:rgba(255,223,70,.8)"
  />
  <path
    d="M463.169 496.111c9.46-2.628 18.468-12.57 20.865-23.032 1.246-5.435 1.997-53.95 2.026-130.946l.047-122.313H113.893v121.74c0 77.89.726 125.127 2.017 131.145 2.264 10.554 10.922 20.536 20.227 23.32 7.932 2.373 318.507 2.455 327.032.087z"
    style="fill:#fff"
  />
  <path
    d="M185.737 152.747c-4.661-.914-12.51-7.447-14.96-15.25-1.862-10.69-1.235-21.692-1.231-32.382.014-35.242 1.022-38.937 12.73-46.656 7.422-4.893 22.69-4.835 30.813.118 11.385 6.942 13.044 12.808 13.044 46.125 0 27.566-.318 30.25-4.347 36.73-6.933 11.148-23.568 16.37-36.05 11.315zm203.012-1.207c-3.423-1.747-8.172-6.31-10.553-10.138-4.007-6.444-4.329-9.171-4.329-36.7 0-25.006.55-30.744 3.451-36.059 9.951-18.227 37.803-18.836 49.508-1.083 3.179 4.823 3.617 9.374 3.628 37.696.005 10.79.32 21.578-1.23 32.367-5.418 13.79-14.859 16.6-23.87 16.366-7.097.497-12.35-.277-16.605-2.45z"
    style="fill:#8296f9"
  />
  <path
    d="M159.94 435.666v-25.901h51.803v51.803H159.94v-25.902zm76.745 0v-25.901h49.885v51.803h-49.885v-25.902zm76.745 0v-25.901h49.885v51.803H313.43v-25.902zm74.827 0v-25.901h51.803v51.803h-51.803v-25.902zM159.94 359.88v-24.942h51.803v49.884H159.94V359.88zm76.745 0v-24.942h49.885v49.884h-49.885V359.88zm76.745 0v-24.942h49.885v49.884H313.43V359.88zm74.827 0v-24.942h51.803v49.884h-51.803V359.88zM159.94 284.094v-25.901h51.803v51.803H159.94v-25.902zm76.745 0v-25.901h49.885v51.803h-49.885v-25.902zm76.745 0v-25.901h49.885v51.803H313.43v-25.902zm74.827 0v-25.901h51.803v51.803h-51.803v-25.902z"
    style="stroke:none;fill:#8296f9"
  />
</svg>
