<svg xmlns="http://www.w3.org/2000/svg" viewBox="0 0 300 300">
  <g style="fill:rgba(45,206,255,.48)">
    <path d="M135.033 256.882c-49.18-2.172-80.294-14.168-94.834-36.564-3.721-5.731-6.675-13.14-7.995-20.057-1.406-7.366-1.58-9.012-1.595-15.173-.015-6.227.236-8.702 1.592-15.682 1.565-8.059 5.392-17.105 9.967-23.559 2.281-3.217 8.665-9.988 12.03-12.76 1.586-1.305 1.707-1.535 2.713-5.15 3.043-10.934 8.466-22.061 14.988-30.748 3.417-4.552 10.414-11.55 14.92-14.923 5.734-4.291 12.421-8.06 18.987-10.697 1.39-.558 2.584-1.187 2.654-1.398.07-.21-.34-.861-.913-1.447-1.844-1.886-2.276-5.277-.92-7.215.92-1.311 2.417-1.818 8.463-2.863 3.206-.554 7.123-1.416 8.705-1.915 5.645-1.784 9.843-4.072 9.843-5.366 0-1.574 1.251-4.12 2.773-5.642 3.348-3.347 8.696-3.704 12.462-.831l1.157.882 1.483-1.013c2.133-1.457 3.859-1.926 6.346-1.727 2.39.192 3.756.784 5.652 2.448 1.41 1.237 2.906 4.092 2.911 5.552.004 1.164.988 1.965 4.412 3.59 3.658 1.736 8.62 3.135 14.282 4.027 5.684.895 7.524 1.587 8.506 3.198 1.267 2.079.71 5.276-1.234 7.078-.512.474-.851 1.062-.754 1.307.097.245 1.174.817 2.395 1.271 5.668 2.108 13.617 6.577 19.28 10.84 14.432 10.863 25.233 27.856 30.528 48.031.307 1.169.849 1.83 2.827 3.448 3.303 2.703 8.446 8.171 10.849 11.536 5.824 8.156 9.05 16.275 10.959 27.576.79 4.684.93 6.533.919 12.152-.04 18.32-5.745 33.125-17.142 44.477-16.336 16.271-43.99 25.107-85.126 27.2-6.06.307-26.115.381-32.09.117z" />
    <path d="M61.444 127.812c1.434-.903 4.792-2.747 7.462-4.099l4.856-2.458 2.131-4.185c9.847-19.333 25.627-31.64 47.611-37.132 16.339-4.081 37.205-4.03 53.622.13 21.587 5.473 37.42 17.986 47.159 37.272l1.974 3.909 4.535 2.27c2.494 1.25 5.908 3.12 7.587 4.155 1.678 1.035 3.138 1.796 3.244 1.69.566-.567-3.406-11.536-6.366-17.578-10.748-21.938-29.046-36.465-53.709-42.638-11.718-2.933-17.977-3.66-31.519-3.66-13.54 0-19.8.727-31.518 3.66-6.907 1.729-11.985 3.565-17.94 6.489-19.099 9.376-32.93 25.523-40.295 47.044-1.739 5.08-2.174 6.773-1.74 6.773.164 0 1.472-.74 2.906-1.642zM160.07 59.5c6.152-2.57 6.152-11.695 0-14.265-5.318-2.222-11.205 2.126-10.654 7.869.481 5.003 6.024 8.33 10.655 6.395zm-13.715-.187c2.342-1.1 2.516-1.443 1.779-3.494-.79-2.198-.795-4.61-.012-6.966l.612-1.845-1.008-.807c-3.366-2.697-8.71-1.73-11.194 2.024-1.165 1.761-1.506 5.06-.716 6.945 1.75 4.179 6.495 6.044 10.539 4.143z" />
    <path d="M146.543 64.01c5.357-.12 11.077-.056 13.604.153 2.398.198 4.494.23 4.658.071.163-.159-.602-.864-1.7-1.566-1.92-1.228-2.083-1.269-4.186-1.044-2.975.319-4.647-.025-6.996-1.44l-1.99-1.198-1.166.89c-2.027 1.546-3.809 1.995-7.01 1.764-2.841-.204-2.889-.194-4.807 1.033-1.962 1.255-2.25 2.144-.568 1.757.505-.116 5.078-.305 10.161-.42z" />
    <path
      d="M143.652 216.138c-.465-1.334-1.093-6.354-1.394-11.157l-.547-8.731-11.157-.582c-10.318-.538-11.157-.931-11.157-5.234 0-4.235.902-4.706 10.035-5.24 13.8-.806 14.71-5.045 1.249-5.816-9.004-.516-10.392-1.145-10.933-4.956-.542-3.816.237-4.366 6.191-4.366 3.746 0 7.358-.885 8.026-1.966.669-1.081-3.645-9.634-9.587-19.005-5.94-9.372-10.801-18.092-10.801-19.378 0-1.366 2.746-2.338 6.608-2.338 6.213 0 7.229 1.007 16.978 16.836 5.703 9.26 11.398 17.17 12.657 17.578 1.258.41 6.825-6.075 12.371-14.41 5.546-8.334 11.45-16.244 13.12-17.578 3.64-2.908 11.293-3.195 12.967-.486.66 1.067-4.092 9.587-10.557 18.932-6.466 9.346-11.756 18.025-11.756 19.287 0 1.261 3.274 2.565 7.276 2.896 5.782.478 7.276 1.399 7.276 4.483 0 3.368-1.489 3.958-11.285 4.466-14.455.75-13.95 4.849.764 6.205 8.904.821 10.52 1.567 10.52 4.851 0 3.293-1.616 4.028-10.67 4.85l-10.672.971-1.77 11.157c-1.677 10.579-2.057 11.156-7.337 11.156-3.062 0-5.949-1.091-6.415-2.425z"
      style="stroke:none;fill:#3d8eb6"
    />
  </g>
</svg>
