<svg xmlns="http://www.w3.org/2000/svg" viewBox="0 0 300 300">
  <g style="fill:rgba(0,208,8,.48);stroke-width:6">
    <path d="M54.352 269.453c-5.106-1.762-9.041-4.396-13.407-8.972-9.923-10.402-10.37-13.159-10.37-63.89v-43.3H146.68v118.744l-42.55-.038c-38.235-.038-43.283-.297-49.778-2.538zM245.648 30.748c5.106 1.764 9.04 4.399 13.405 8.976 9.92 10.405 10.366 13.162 10.352 63.893l-.012 43.3-58.052-.016-58.053-.016.017-59.372.016-59.372 42.55.05c38.235.049 43.282.308 49.777 2.552zM54.925 30.3c-5.115 1.737-9.063 4.351-13.451 8.906C31.5 49.559 31.039 52.314 30.79 103.045l-.213 43.299 58.052.285 58.051.286.292-59.371.292-59.371-42.55-.172c-38.234-.15-43.283.084-49.789 2.294zm190.772 239.089c5.106-1.767 9.04-4.403 13.401-8.982 9.916-10.409 10.361-13.167 10.326-63.898l-.03-43.3-58.053.041-58.053.04.042 59.372.042 59.372 42.55-.068c38.235-.064 43.282-.326 49.775-2.572z" />
    <path
      d="M235.79 88.427v-4.618h-48.817v9.236h48.816v-4.618zM94.676 102.006V92.11h19.79v-9.236h-19.79v-19.79H85.44v19.791H65.65v9.236h19.79v19.79h9.236v-9.895zm94.55 97.737v-3.298h46.178v6.597h-46.178v-3.299zm0 23.749v-3.298h46.178v6.596h-46.178v-3.298zM82.46 224.808l7.17-7.26 7.63 7.55 7.63 7.552 2.926-2.926 2.925-2.925-6.886-6.973c-3.787-3.834-6.886-7.528-6.886-8.208 0-.68 3.099-4.374 6.886-8.21l6.886-6.972-2.923-2.923-2.924-2.924-6.972 6.886c-3.835 3.787-7.53 6.886-8.21 6.886-.679 0-4.373-3.099-8.208-6.886l-6.972-6.886-2.94 2.94-2.938 2.938 7.549 7.55 7.549 7.548-7.49 7.568c-7.363 7.442-7.448 7.614-5.06 10.252 1.335 1.476 2.801 2.683 3.258 2.683.456 0 4.056-3.267 8-7.26z"
      style="stroke:#3d9f53;fill:#3d9f53"
    />
  </g>
</svg>
