<svg xmlns="http://www.w3.org/2000/svg" viewBox="0 0 300 300">
  <g style="fill:rgba(255,161,161,.7)">
    <path d="M32.114 258.897c2.567 4.717 8.405 7.3 18.061 7.992 5.185.372 192.7.397 198.065.027 6.226-.43 10.127-1.21 12.781-2.559 2.667-1.355 5.069-3.67 6.173-5.951 1.69-3.492 1.919-5.088 2.078-14.54.143-8.525-1.284-35.287-1.284-35.287l.218-15.633s-.59-14.837-.675-17.041c-.204-5.345-1.64-36.786-2.022-44.25-.08-1.562-.448-8.926-.817-16.365-.779-15.69-.895-17.032-1.478-17.032-.233 0-1.312.307-2.397.682-7.95 2.748-15.257 3.678-28.872 3.673h-9.198l.014 9.095c.015 8.89-.006 9.136-.783 10.862-.938 2.075-3.27 4.274-5.01 4.722-1.832.473-15.6.425-17.22-.06-1.943-.58-3.981-2.738-4.488-4.75-.238-.946-.389-3.52-.361-6.16.058-5.536-.348-13.015-.719-13.244-.294-.182-91.167-.218-91.348-.035-.356.355-.806 7.623-.797 12.872.012 6.92-.275 8.12-2.359 9.877-2.062 1.739-2.59 1.826-11.016 1.818-8.937-.01-10.054-.26-12.165-2.726-2.142-2.502-2.342-3.674-2.273-13.306l.062-8.558-2.9-.215c-1.596-.12-5.005-.29-7.576-.382-10.317-.365-17.27-1.883-25.002-5.458-1.629-.752-3.094-1.286-3.257-1.185-.162.1-.3 2.69-.304 5.757-.007 3.065-.387 12.262-.85 20.435-.464 8.174-.847 15.087-.852 15.363-.008.275-.374 8.39-.819 18.034-.445 9.643-.877 19.036-.96 20.873-.215 4.71-.933 26.205-.933 26.205l-.031 4.107s-.574 48.874 1.314 52.343z" />
    <path d="M247.156 99.74c4.552-.57 10.359-1.91 13.609-3.141 2.295-.87 2.325.105.892-3.522-2.358-5.966-6.095-6.446-13.834-6.581-5.279-.093-19.254.705-19.254.705l-7.678.384c-2.305.115-.02 4.899 1 8.981.181 1.653.708 3.3.712 3.43.018.727 18.212.538 24.552-.255zm-172.691.104c.211-2.796 2.673-12.27 1.665-12.727-4.607-.244-18.918-1.435-23.523-1.869-3.714-.313-12.024-1.693-13.836-.833-1.576.748-2.714 3.07-2.976 6.072l-.211 2.416 2.256 1.133c9.345 4.692 17.344 6.252 33.392 6.51 2.948.047 3.09.017 3.233-.702zm17.915 19.081c.835-.178 1.985-.606 2.555-.953.991-.603 1.045-.75 1.243-3.41.842-11.326 1.262-16.131 1.708-19.551 3.293-25.243 12.504-38.945 30.022-44.66 12.08-3.942 29.716-3.783 41.75.376 16.664 5.76 25.783 19.19 29.21 43.022.67 4.668 1.453 12.813 1.887 19.646.256 4.032.561 4.604 2.8 5.245 5.543 1.587 13.017.705 13.597-1.606.303-1.21-.164-13.692-.734-19.612-3.056-31.707-15.4-50.982-38.317-59.832-13.868-5.356-35.75-6.31-51.824-2.261-6.886 1.735-13.677 4.647-18.898 8.105-14.002 9.272-22.853 25.487-26.007 47.643-1.215 8.537-2.08 24.883-1.386 26.18 1.098 2.052 6.901 2.833 12.393 1.668z" />
    <path d="M176.605 100.607l17.283-.012v-1.21c0-1.424-.904-7.796-1.345-9.477l-.306-1.169h-87.492l-.352 1.503c-.43 1.84-1.33 8.176-1.338 9.432l-.006.915 18.118.087c9.964.047 22.626.054 28.136.015 5.51-.04 17.797-.077 27.302-.084z" />
    <path
      d="M231.73 254.22c.136 0 1.281-.521 2.546-1.158 5.883-3.198 8.968-7.357 12.204-13.036 0 0 .5.475 2.633-6.011 2.85-8.781 3.495-17.524 1.725-23.381-.615-2.037-2.365-5.137-3.046-5.399-.275-.105-1.512.128-2.749.518-2.721.859-7.707.984-9.153.23-.53-.277-.994-.346-1.105-.166-.106.172-.343.312-.527.312-.183 0-.243-.146-.133-.325.11-.178-.211-.427-.714-.553-.59-.148-.962-.09-1.047.166-3.555 6.34-6.655 5.66-9.947.19-.346-.59-.444-.585-2.596.122-3.063 1.005-7.377 1.01-10.418.011l-2.2-.722-.781.806c-1.57 1.295-3.076 6.523-3.076 6.523-.15.713-.272 3.7-.27 6.639.006 5.517.402 8.315 1.85 13.004.474 1.927 1.326 4.065 2.618 6.651 5.375 10.736 12.345 16.28 20.345 16.184 2.34.583 12.096-4.49 3.841-.605z"
      style="stroke:none;fill:#e94242"
    />
    <path
      d="M209.649 201.204l1.901-.874-.976-1.113c-1.343-1.529-1.966-2.827-2.21-4.604-.25-1.832.098-1.925 1.895-.501 1.982 1.57 6.678 3.531 6.669 2.786 0-.158-.228-1.025-.501-1.926-.508-1.676-.658-4.4-.295-5.347.357-.93.966-.578 2.757 1.587 1.84 2.223 4.63 4.564 5.44 4.564.287 0 .643-.612.886-1.522.492-1.84 1.714-3.153 2.933-3.153 1.966 0 3.92 2.04 3.358 3.505-.396 1.032.62.442 2.443-1.418 1.035-1.056 2.34-2.508 2.898-3.226.61-.784 1.172-1.21 1.404-1.066.78.483.364 4.22-.776 6.964-.348.836.077.758 4.084-.752 1.95-.735 3.744-1.336 3.986-1.336 1.192 0 .061 4.043-1.534 5.485l-.71.643"
      style="stroke:#008a12;fill:#008a12"
    />
  </g>
</svg>
