<svg xmlns="http://www.w3.org/2000/svg" viewBox="0 0 300 300">
  <path
    style="fill:#000;stroke-width:.26458332"
    d="M-437.507 180.727c-.727-.255-11.946-5.267-24.93-11.14-16.446-7.436-23.928-10.949-24.662-11.577-1.233-1.055-2.54-3.564-2.94-5.641-.846-4.399 1.546-25.406 4.25-37.33 5.148-22.696 13.012-35.543 23.425-38.27 1.662-.436 1.833-.545 1.981-1.272.227-1.11.955-2.138 1.949-2.752.585-.362 3.054-.907 8.024-1.772 6.439-1.12 7.291-1.215 8.271-.922 1.485.445 2.986 1.868 3.735 3.54.539 1.203.622 1.808.627 4.566l.006 3.18 6.615 1.785c3.638.982 6.718 1.783 6.845 1.781.127-.002.964-.69 1.86-1.528 4.946-4.626 13.133-6.067 20.514-3.61 6.097 2.03 11.641 7.34 14.462 13.852 2.23 5.147 3.054 9.759 3.733 20.87.443 7.264-2.645 22.226-6.307 30.551-.563 1.28-1.023 2.53-1.023 2.778 0 .248-.343 1.176-.762 2.061-.555 1.172-1.216 2-2.43 3.043a221.54 221.54 0 0 0-3.008 2.638c-2.368 2.128-4.206 3.59-6.103 4.854-1.03.686-2.386 1.905-3.056 2.747-1.584 1.991-17.834 14.684-19.547 15.268-.644.22-1.904.4-2.798.4-1.418 0-1.709.09-2.268.696-1.485 1.613-3.974 2.076-6.462 1.204zm4.45-.609c.317-.163.954-.652 1.414-1.088.75-.71 1.035-.798 2.778-.864 1.068-.04 2.3-.207 2.737-.37.437-.165 4.659-3.304 9.381-6.976 5.961-4.636 8.953-7.14 9.788-8.19.667-.84 2.026-2.064 3.054-2.75 2.075-1.385 3.794-2.745 5.97-4.72.808-.735 2.21-1.97 3.114-2.746 1.543-1.323 2.955-3.42 2.955-4.388 0-.216.71-2.154 1.578-4.309 1.868-4.638 3.19-9.109 4.248-14.367 1.284-6.38 2.228-15.873 1.616-16.251-.17-.105-.298-.898-.298-1.843 0-2.784-.528-7.278-1.231-10.481-2.278-10.38-8.125-17.625-16.496-20.44-2.413-.812-2.684-.846-6.747-.845-3.894.002-4.403.06-6.35.715-2.68.902-5.086 2.325-6.935 4.1-.796.763-1.526 1.39-1.622 1.392-.096.002-3.349-.853-7.228-1.9l-7.053-1.903-.091-3.59c-.087-3.396-.134-3.667-.871-5-.931-1.681-2.44-2.692-4.021-2.692-.918 0-11.98 1.837-13.773 2.286-1.082.272-2.434 1.825-2.624 3.016-.139.867-.293 1.08-.862 1.194-3.695.736-6.597 2.25-9.397 4.9-4.68 4.432-8.439 11.121-11.658 20.751-4.249 12.707-7.585 32.592-7.658 45.643l-.026 4.632.871 1.773c.504 1.026 1.31 2.148 1.912 2.664.926.793 12.227 6 46.165 21.274 3.176 1.43 3.923 1.668 5.243 1.668.846 0 1.799-.132 2.116-.295zm-3.333-2.383c-.405-.154-11.359-5.076-24.342-10.937-16.723-7.55-23.847-10.89-24.432-11.458-1.278-1.241-1.688-2.827-1.686-6.524.003-5.524 1.133-16.488 2.525-24.49 4.168-23.962 11.113-38.974 20.087-43.421 2.254-1.117 2.44-1.162 5.142-1.244l2.804-.085 26.326 7.17c14.48 3.944 26.594 7.238 26.921 7.321 1.019.258.662.74-1.121 1.517-13.017 5.67-22.591 31.481-27.506 74.152-.636 5.522-.99 7.042-1.801 7.715-.576.477-2.038.62-2.917.284zm2.028-.484c1.158-.44 1.442-1.505 2.275-8.527 4.966-41.86 13.589-65.84 26.275-73.069l1.97-1.123-26.225-7.131c-25.29-6.877-26.31-7.131-28.606-7.128-2.783.005-4.385.474-6.664 1.95-6.999 4.536-12.897 16.552-16.87 34.371-2.216 9.933-4.05 24.08-4.194 32.335-.05 2.845-.005 3.14.681 4.538.404.822.999 1.668 1.323 1.878.64.417 46.566 21.233 48.08 21.793 1.143.423 1.14.423 1.955.113zm-14.079-8.297c-1.036-1.103-.67-2.77.738-3.352 2.036-.844 3.75 1.516 2.372 3.267-.733.931-2.275.974-3.11.085zm2.6-.446c.603-.603.645-.877.247-1.62-.628-1.174-2.484-1.033-2.796.212-.217.862.54 1.937 1.364 1.937.36 0 .894-.238 1.185-.529zm4.696-3.622c-.288-.075-.463-.376-.463-.796 0-.62.07-.661.852-.505 1.04.208 1.386.522 1.176 1.069-.155.405-.632.476-1.565.232zm.86-.611c-.218-.141-.575-.25-.794-.242-.261.01-.216.092.133.242.727.312 1.145.312.661 0zm1.764.353c-.516-.517.47-1.412 1.556-1.412.465 0 .508.829.067 1.27-.342.343-1.335.429-1.623.142zm1.277-.615c.093-.15-.013-.194-.249-.104-.458.176-.542.366-.162.366.137 0 .322-.118.411-.262zm-6.811-.553c-.692-.403-.6-1.304.132-1.294.76.011 1.522.585 1.522 1.146 0 .494-.92.576-1.654.148zm.727-.508a.615.615 0 0 0-.478-.26c-.19.001-.157.106.082.26.508.328.6.328.397 0zm7.012-.811c0-.845.493-1.57 1.068-1.57.583 0 .7.757.246 1.604-.376.702-1.314.677-1.314-.034zm1.05-.909c0-.145-.115-.086-.256.132-.141.219-.257.516-.257.662 0 .145.116.086.257-.132.14-.219.256-.516.256-.662zm-11.342.293c-.336-.358-.532-.779-.436-.935.44-.712 2.114.103 1.95.95-.138.722-.828.716-1.514-.015zm.767-.293c-.181-.218-.389-.397-.462-.397-.073 0 .016.179.197.397.182.218.39.397.462.397.073 0-.016-.179-.197-.397zm-3.18-1.857c-.59-.628-.6-.694-.177-1.117.424-.424.49-.41 1.147.247.427.427.634.859.536 1.117-.234.607-.789.516-1.506-.247zm.799-.26c-.181-.218-.39-.396-.462-.396-.073 0 .016.178.197.396.181.219.389.397.462.397.073 0-.016-.178-.197-.397zm12.803.284c-.233-.606.111-1.736.584-1.918.682-.261 1.013.319.734 1.29-.268.935-1.057 1.31-1.318.628zm.947-1.342c0-.145-.115-.086-.257.132-.14.219-.256.516-.256.662 0 .145.115.086.256-.132.142-.219.257-.516.257-.662zm-16.648-.78c-.626-.666-.59-1.469.065-1.469.198 0 .636.294.973.654.51.542.557.722.279 1.058-.451.543-.605.515-1.317-.243zm.516-.543c-.18-.218-.388-.397-.461-.397-.073 0 .016.179.197.397.181.218.389.397.462.397.072 0-.016-.179-.198-.397zm15.796-.3c-.551-.551-.062-2.213.652-2.213.444 0 .505.158.435 1.122-.078 1.071-.591 1.587-1.087 1.092zm.52-1.221c-.074-.182-.134-.033-.134.33 0 .364.06.513.133.331.074-.182.074-.48 0-.661zm-43.447.475c-.41-.41-.65-.952-.65-1.467 0-.958 1.015-2.117 1.853-2.117.76 0 2.016.682 2.216 1.202.552 1.437-.475 3.031-1.952 3.031-.516 0-1.058-.24-1.467-.65zm2.525-.41c.6-.598.644-.877.259-1.598-.59-1.103-2.012-1.18-2.702-.147-.552.826.33 2.275 1.385 2.275.29 0 .767-.238 1.058-.53zm21.978-.377c-.632-.673-.596-1.474.066-1.474.534 0 1.3.946 1.197 1.48-.138.712-.59.71-1.263-.006zm.512-.548c-.181-.218-.39-.397-.462-.397-.073 0 .016.179.197.397.181.218.39.397.462.397.073 0-.016-.179-.197-.397zm-3.08-1.557c-.606-.524-.69-.722-.427-.99.533-.542 1.787.027 1.787.811 0 .885-.473.947-1.36.18zm.963-.267c0-.057-.185-.175-.41-.261-.236-.09-.342-.046-.25.104.156.25.66.371.66.157zm20.423-.206c.068-.941.177-1.145.611-1.145.441 0 .53.176.53 1.058 0 .905-.09 1.071-.612 1.145-.568.08-.606.006-.529-1.058zm.66-.269c-.085-.21-.147-.148-.16.16-.011.28.051.435.14.347.087-.087.096-.316.02-.507zm-24.728-.891c-.832-.583-.755-1.176.153-1.176.85 0 1.375.424 1.375 1.111 0 .591-.732.622-1.528.065zm.867-.382a.615.615 0 0 0-.479-.26c-.189.001-.156.106.082.26.508.328.6.328.397 0zm-3.79-.804c-.964-.394-.64-1.19.462-1.137.868.042 1.417.487 1.252 1.015-.113.364-.973.425-1.714.122zm27.521-.85c.067-.918.178-1.124.607-1.124.585 0 .798.624.551 1.608-.104.416-.35.64-.7.64-.47 0-.529-.142-.458-1.124zm.66-.248c-.085-.21-.148-.148-.16.16-.012.28.05.435.138.347.088-.087.098-.316.021-.507zm-31.49.138c-.098-.097-.177-.395-.177-.661 0-.337.196-.485.64-.485.986 0 1.477.273 1.477.822 0 .39-.193.5-.882.5-.485 0-.962-.079-1.059-.176zm1.212-.528a1.021 1.021 0 0 0-.661 0c-.182.074-.034.134.33.134s.513-.06.331-.134zm-4.233 0c-.182-.073-.331-.362-.331-.64 0-.416.192-.508 1.058-.508.953 0 1.059.067 1.059.662 0 .55-.123.658-.728.64-.4-.011-.876-.08-1.058-.154zm1.058-.53a1.021 1.021 0 0 0-.661 0c-.182.074-.034.134.33.134s.513-.06.331-.133zm-10.866-.155c.068-.478.28-.611 1.076-.677.91-.075.993-.026.993.595 0 .616-.098.678-1.077.678-.965 0-1.068-.062-.992-.596zm1.341-.109a1.021 1.021 0 0 0-.661 0c-.182.074-.034.134.33.134s.513-.06.331-.134zm5.292.535c-.182-.076-.331-.367-.331-.646 0-.417.192-.507 1.077-.507.965 0 1.068.061.992.595-.085.595-.973.88-1.738.558zm1.058-.535a1.021 1.021 0 0 0-.661 0c-.182.074-.034.134.33.134s.513-.06.331-.134zm-10.451.154c-.255-.148-.463-.501-.463-.785 0-.538.44-.64 1.521-.35.407.11.596.36.596.79 0 .48-.143.63-.596.623-.327-.004-.803-.13-1.058-.278zm.86-.508c-.218-.14-.516-.256-.662-.256-.145 0-.086.115.133.256.218.141.516.257.661.257.146 0 .086-.116-.132-.257zm5.027.265c0-.441.176-.53 1.058-.53.882 0 1.059.089 1.059.53 0 .441-.177.53-1.059.53-.882 0-1.058-.089-1.058-.53zm1.587 0c0-.146-.171-.265-.38-.265-.21 0-.456.12-.546.265-.09.146.082.265.382.265s.544-.12.544-.265zm39.338-.728c-.064-.109-.057-.585.015-1.058.105-.693.253-.86.762-.86.491 0 .631.142.631.64 0 .979-.272 1.477-.806 1.477-.267 0-.538-.09-.602-.199zm.795-1.174c-.084-.21-.147-.148-.16.16-.011.28.051.435.14.347.087-.087.097-.316.02-.507zm-49.648.067c-.492-.92-.34-1.605.356-1.605.626 0 .945.554.954 1.654.005.636-.963.6-1.31-.049zm.552-.725c-.312-.536-.387-.365-.132.3.09.237.22.375.289.307.068-.068-.002-.341-.157-.607zm49.02-1.254c-.08-.206-.105-.712-.058-1.125.062-.543.25-.773.681-.834.516-.073.595.034.595.807 0 1.23-.872 2.055-1.218 1.152zm.6-1.28c-.073-.181-.134-.032-.134.331 0 .364.06.513.134.331.073-.182.073-.48 0-.661zm-50.446-.444c0-.979.061-1.077.677-1.077.621 0 .67.083.596.993-.066.797-.2 1.008-.678 1.076-.534.076-.595-.027-.595-.992zm.704-.349c-.073-.182-.133-.033-.133.33 0 .365.06.513.133.331.074-.181.074-.48 0-.661zm49.752-.895c-.228-.228-.242-1.23-.025-1.795.2-.52 1.055-.55 1.25-.044.37.964-.618 2.446-1.225 1.84zm.525-1.205c-.085-.211-.148-.148-.16.16-.012.279.05.435.139.347.088-.088.097-.316.02-.507zm-50.668-.657c.068-.828.196-1.03.696-1.1.56-.08.606 0 .53.926-.069.827-.196 1.029-.696 1.1-.56.079-.606 0-.53-.926zm.656-.418c-.074-.182-.134-.033-.134.33 0 .365.06.513.134.331.073-.181.073-.48 0-.661zm49.93-1.116c-.082-.213-.039-.72.096-1.124.304-.91 1.22-1.016 1.343-.155.17 1.2-1.052 2.287-1.44 1.28zm-50.37-1.31c0-.986.273-1.477.822-1.477.408 0 .5.197.5 1.059 0 .952-.065 1.058-.66 1.058-.524 0-.662-.134-.662-.64zm.71-.468c-.085-.21-.147-.148-.16.16-.011.279.051.435.139.347.088-.088.097-.316.02-.507zm50.355-1.884c0-1.132.636-1.777 1.197-1.215.553.552.134 1.932-.62 2.043-.498.073-.577-.04-.577-.828zm.71-.233c-.085-.21-.148-.148-.16.16-.012.28.05.436.139.348.088-.088.097-.317.02-.508zm-51.142-.06c-.079-.206-.105-.712-.057-1.124.062-.544.25-.774.68-.835.517-.073.596.034.596.807 0 1.231-.872 2.055-1.219 1.152zm.6-1.279c-.073-.182-.133-.033-.133.33 0 .365.06.513.134.332.073-.182.073-.48 0-.662zm50.667-.81c-.455-.548.02-1.886.704-1.986.496-.073.577.04.577.807 0 1.268-.684 1.899-1.28 1.18zm.668-1.025c-.084-.212-.147-.149-.16.16-.011.278.052.435.14.347.087-.088.097-.317.02-.507zm-51.643.047c-.101-.163-.107-.706-.013-1.206.126-.673.307-.909.696-.909.67 0 .89.576.578 1.513-.258.774-.95 1.105-1.262.602zm.919-1.453c0-.146-.115-.086-.256.132-.142.218-.257.516-.257.662 0 .145.115.086.257-.133.14-.218.256-.516.256-.661zm50.715-.786c-.245-.638.356-1.992.884-1.992.642 0 .833.61.495 1.58-.297.853-1.116 1.097-1.379.412zm.803-.983c-.084-.212-.147-.149-.16.16-.011.278.051.435.14.347.087-.088.096-.316.02-.507zm-51.908.047c-.101-.163-.107-.706-.013-1.206.126-.673.307-.909.696-.909.662 0 .83.443.555 1.456-.223.816-.914 1.184-1.238.659zm.579-.841c-.085-.211-.147-.149-.16.16-.012.279.051.435.139.347.088-.088.097-.316.02-.507zm51.413-1.649c0-.99.273-1.477.83-1.477.659 0 .848.523.51 1.41-.356.937-1.34.986-1.34.067zm-51.49-.796c-.234-.606.11-1.736.583-1.918.683-.262 1.013.319.734 1.29-.268.935-1.056 1.31-1.318.628zm52.383-1.863c-.259-.673.296-1.854.914-1.945.465-.068.574.048.574.613 0 1.369-1.097 2.352-1.488 1.332zm-51.809-1.172c-.47-.762.52-2.415 1.198-1.996.274.169.32 1.192.08 1.815-.172.45-1.036.572-1.278.181zm52.852-1.778c-.27-.7.263-1.812.913-1.905.498-.072.59.039.59.708 0 1.233-1.14 2.142-1.503 1.197zm-52.207-1.8c0-.99.274-1.476.83-1.476.659 0 .848.522.51 1.41-.356.936-1.34.986-1.34.067zm.71-.467c-.085-.211-.147-.149-.16.16-.011.279.051.435.139.347.088-.088.097-.316.02-.507zm52.471-1.112c0-.348.23-.913.512-1.257.464-.565.552-.585.93-.214.635.623.067 2.103-.806 2.103-.494 0-.636-.14-.636-.632zm-52.474-1.065c-.27-.704.225-1.87.832-1.96.496-.072.578.042.578.808 0 1.27-1.04 2.119-1.41 1.152zm.797-.998c-.085-.211-.147-.149-.16.16-.012.279.05.435.139.347.088-.088.097-.316.02-.507zm52.887-.45c-.227-.366.37-1.822.817-1.994.842-.323 1.185.643.61 1.717-.28.524-1.168.697-1.427.278zm-52.919-1.59c-.235-.38.098-1.535.552-1.912.621-.516 1.192.238.929 1.227-.213.801-1.143 1.231-1.48.685zm.825-1.135c-.084-.211-.147-.149-.16.16-.01.279.052.435.14.347.087-.088.097-.316.02-.507zm53.388-.231c-.095-.154-.028-.63.149-1.059.396-.957 1.58-1.13 1.58-.23 0 1.226-1.21 2.129-1.73 1.289zm-53.127-1.484c-.25-.249-.212-1.474.057-1.9.308-.485 1.194-.277 1.306.307.096.496-.604 1.77-.973 1.77a.65.65 0 0 1-.39-.177zm54.768-1.058c-.56-.56.176-2.205.986-2.205.609 0 .796.63.406 1.369-.464.88-1.016 1.212-1.392.836zm-54.011-2.193c-.228-.368.115-1.526.56-1.896.304-.252.467-.237.773.069.312.312.33.553.093 1.234-.289.829-1.078 1.157-1.426.593zm.862-1.106c-.066-.198-.186-.078-.28.28-.114.44-.08.543.116.346.154-.153.228-.435.164-.626zm54.569-.03c.012-.821.6-1.522 1.277-1.522.682 0 .75.679.155 1.53-.553.789-1.443.784-1.432-.008zm-54.411-1.904c-.242-.63.416-1.999.96-1.999.648 0 .86.71.46 1.545-.389.81-1.186 1.065-1.42.454zm56.094-.522c-.207-.54.66-1.741 1.258-1.741.718 0 .871.634.347 1.433-.485.74-1.374.911-1.605.308zm-54.857-2.384c-.44-.53.333-2.003 1.05-2.003.603 0 .687.67.215 1.707-.344.755-.796.86-1.265.296zm1.035-1.342c0-.145-.116-.086-.257.133-.141.218-.256.515-.256.661 0 .145.115.086.256-.132.141-.219.257-.516.257-.662zm56.011 1.544c-.563-.564.312-1.94 1.234-1.94.605 0 .578 1.117-.042 1.678-.514.465-.903.55-1.192.262zm.916-1.08c.329-.42.32-.43-.1-.1-.255.2-.463.407-.463.462 0 .218.217.078.563-.363zm1.2-1.302c-.568-.569.383-1.94 1.347-1.94.644 0 .673.808.052 1.469-.609.648-1.067.803-1.398.471zm.916-.815c.33-.42.32-.43-.1-.1-.254.2-.462.408-.462.463 0 .217.217.077.562-.363zm-58.873.049c-.211-.55.54-1.968 1.043-1.968.587 0 .752.694.38 1.593-.352.85-1.159 1.063-1.423.375zm.997-.79c.09-.236.046-.342-.104-.25-.144.09-.262.274-.262.41 0 .381.19.298.366-.16zm.517-2.122c-.253-.66.448-1.701 1.146-1.701.733 0 .82.65.205 1.528-.48.685-1.123.767-1.351.173zm1.638-2.483c-.248-.403.052-1.187.67-1.746.495-.448.559-.45.972-.037.414.413.407.49-.102 1.173-.59.792-1.263 1.058-1.54.61zm1.8-2.813c-.099-.256.102-.684.514-1.096.744-.744 1.515-.67 1.515.143 0 1.051-1.688 1.843-2.03.953zm2.47-1.874c-.566-.566.314-1.94 1.242-1.94.806 0 .843.83.067 1.497-.754.648-1.015.737-1.309.443zm2.382-2.116c-.386-.386-.136-.89.64-1.291.897-.464 1.564-.355 1.564.253 0 .746-1.698 1.545-2.204 1.038zm2.734-1.682c0-.338.262-.636.706-.805.937-.356 1.515-.22 1.632.386.12.624-.379.945-1.478.95-.689.003-.86-.103-.86-.531zm29.192 92.572c-.195-.244-.214-.951-.06-2.21 1.541-12.57 2.005-15.983 2.915-21.432.974-5.836 2.514-13.666 3.16-16.073.231-.858.372-.993 1.035-.993.423 0 .834.108.915.239.081.131-.276 2.466-.795 5.188-.519 2.722-.88 5.115-.802 5.317.208.542 1.156.45 1.34-.131.087-.275.565-2.674 1.062-5.33.497-2.658 1.021-4.949 1.164-5.092.36-.36 1.09-.035 1.09.484 0 .235-.595 3.586-1.323 7.447-.727 3.861-1.323 7.308-1.323 7.66 0 .712.673 1.115 1.118.67.159-.16.922-3.717 1.698-7.907.775-4.19 1.466-7.86 1.536-8.157.088-.368.486-.634 1.262-.843.623-.167 1.214-.223 1.313-.123.099.1-1.4 8.6-3.33 18.89-3.247 17.299-3.56 18.748-4.15 19.233-.938.772-1.802 1.199-2.008.992-.1-.1.21-2.264.688-4.809.479-2.545.802-4.805.719-5.022-.21-.546-1.159-.497-1.337.068-.08.255-.625 3.013-1.21 6.13-.585 3.118-1.125 5.73-1.2 5.805-.075.075-.824.186-1.663.247-1.077.078-1.611.005-1.814-.248zm2.79-.465c.227-.144.752-2.313 1.392-5.75 1.241-6.662 1.28-6.772 2.386-6.662 1.438.143 1.48.533.575 5.429-.451 2.444-.786 4.482-.744 4.529.042.046.434-.251.871-.662.788-.74.822-.895 4.145-18.83 1.843-9.946 3.3-18.134 3.238-18.196-.062-.061-.391-.009-.732.117-.58.215-.712.727-2.11 8.193-.82 4.38-1.644 8.148-1.832 8.375-.407.49-1.367.54-1.812.095-.175-.175-.318-.691-.318-1.148 0-.687 2.022-12.172 2.537-14.41.084-.363.071-.579-.028-.48-.1.1-.581 2.302-1.071 4.895-1.086 5.748-1.17 5.964-2.273 5.855-1.434-.143-1.464-.49-.492-5.879.822-4.558.886-5.667.293-5.034-.523.558-3.088 13.758-4.392 22.604-.822 5.58-1.982 15.135-1.982 16.334 0 .822.047.864.992.86.546-.002 1.156-.108 1.357-.235zm7.842-6.177l3.404-18.286c3.025-16.255 3.286-17.458 3.886-17.92.854-.656 1.243-.63 1.382.09.085.44.124.376.15-.247.027-.603.255-.997.805-1.389 1.515-1.078 1.647-.686.8 2.369-.611 2.203-.53 3.23.33 4.145 1.04 1.106 2.784 1.016 4.505-.233.248-.18.516-.262.596-.182.207.207-3.737 21.045-4.235 22.377-.228.61-.795 1.587-1.259 2.17-.935 1.177-9.601 7.965-10.167 7.965-.26 0-.314-.234-.197-.86zm5.42-3.637c1.964-1.5 3.85-3.036 4.19-3.415 1.357-1.505 1.826-3.175 3.613-12.858.968-5.24 1.826-9.804 1.907-10.146.147-.613.14-.615-.667-.198-1.684.87-3.91.32-4.674-1.157-.531-1.029-.506-2.156.1-4.338.492-1.775.184-2.055-.39-.355-.311.917-1.32 1.33-1.478.606-.06-.273-.208-.331-.454-.177-.245.153-1.483 6.18-3.723 18.12-3.301 17.602-3.345 17.882-2.676 17.268.374-.343 2.287-1.85 4.251-3.35zm-3.127-1.238c.068-.827.196-1.028.696-1.1.56-.079.606 0 .53.927-.069.827-.196 1.029-.697 1.1-.56.079-.605 0-.529-.927zm.656-.417c-.074-.182-.134-.033-.134.33 0 .364.06.513.134.331.073-.182.073-.48 0-.661zm-.175-2.426c0-.979.271-1.477.806-1.477.657 0 .81.322.614 1.296-.128.642-.3.821-.792.821-.488 0-.628-.143-.628-.64zm.87-.419c.076-.291.03-.463-.101-.381-.132.081-.24.32-.24.53 0 .547.18.47.341-.149zm-.242-2.24c-.253-.658.294-1.86.845-1.86.608 0 .759.587.396 1.542-.29.764-1 .946-1.241.318zm.607-3.16c-.079-.207-.053-.713.057-1.125.276-1.033 1.188-1.037 1.306-.006.134 1.164-.991 2.098-1.363 1.13zm.792-1.28c-.074-.182-.134-.033-.134.33 0 .364.06.513.134.331.073-.182.073-.48 0-.661zm-.175-2.415c0-.926.564-1.66 1.046-1.363.658.407.21 2.257-.546 2.257-.392 0-.5-.194-.5-.894zm.704-.496c-.073-.181-.133-.033-.133.331s.06.513.133.33a1.022 1.022 0 0 0 0-.66zm-.175-2.701c0-.974.437-1.395 1.161-1.117.618.237.14 1.881-.576 1.985-.511.074-.585-.036-.585-.868zm.704-.474c-.073-.181-.133-.033-.133.331s.06.513.133.33a1.009 1.009 0 0 0 0-.66zm-.175-2.425c0-.98.272-1.477.806-1.477.657 0 .81.322.615 1.296-.128.641-.302.82-.793.82-.488 0-.628-.142-.628-.64zm.628-2.659c-.082-.214-.038-.72.097-1.125.303-.91 1.22-1.016 1.342-.154.17 1.2-1.052 2.287-1.439 1.279zm.608-3.161c-.263-.685.222-1.875.764-1.875.565 0 .775.638.532 1.609-.178.706-1.058.887-1.296.266zm.791-1.28c-.073-.181-.133-.033-.133.331s.06.513.133.33a1.009 1.009 0 0 0 0-.66zm-.125-2.625c.068-.941.177-1.145.611-1.145.441 0 .53.177.53 1.058 0 .905-.09 1.071-.612 1.146-.568.08-.606.006-.529-1.059zm.66-.268c-.085-.211-.147-.149-.16.16-.011.278.051.435.139.347.088-.088.097-.316.02-.507zm5.473 21.943c.088-.327.161-.744.163-.926.002-.208.394-.33 1.062-.33 1.292 0 1.406.51.29 1.305-1.054.75-1.723.729-1.515-.048zm.8-4.142c.282-2.127.521-2.536 1.683-2.884.944-.283 1.113-.477 1.776-2.037 1.541-3.627 3.186-4.984 5.288-4.365 1.655.488 2.262 1.194 2.262 2.63 0 1.678-.68 2.808-2.732 4.541-2.335 1.973-4.887 3.22-6.898 3.367l-1.56.115zm3.001.24c.828-.29 2.149-.956 2.936-1.479 4.003-2.658 5.492-5.21 3.907-6.699-.35-.328-1.104-.66-1.677-.737-1.508-.202-2.628.867-3.926 3.75-.938 2.082-1.089 2.271-2.075 2.6-1.1.367-1.395.848-1.45 2.366-.032.887.258.912 2.285.2zm-1.76.195c.06-.037.378-.294.706-.57.327-.275.595-.431.595-.346 0 .266-.818.985-1.121.985-.16 0-.24-.03-.18-.069zm.772-1.65c-.181-.219-.27-.397-.197-.397.073 0 .28.178.461.397.182.218.27.397.198.397-.073 0-.281-.18-.462-.397zm9.29-8.432c-.39-.47-2.045-1.152-3.284-1.355-.786-.128-.975-.262-.868-.613.96-3.12 1.307-4.37 1.997-7.195a92.553 92.553 0 0 0 2.556-17.598c.21-4.17-.16-3.894 3.935-2.942l2.646.615-.038 2.765c-.085 6.27-2.276 16.908-4.932 23.95-.87 2.304-1.476 3.02-2.012 2.373zm.966-1.274c.175-.464.271-.89.214-.946-.056-.057-.182.143-.277.445-.262.823-1.197.722-1.197-.13 0-1.472 1.094-2.31 1.47-1.124.158.498.253.397.682-.728 1.965-5.143 3.976-14.993 4.6-22.52l.179-2.166-1.033-.278c-2.717-.732-2.68-.74-2.773.544-.068.95-.176 1.154-.612 1.154-.42 0-.546-.203-.611-.994-.069-.833.017-1.035.529-1.24.422-.17.475-.25.17-.262a3.06 3.06 0 0 1-.818-.162c-.31-.119-.406.52-.542 3.638-.228 5.226-.947 10.396-2.188 15.734-.163.702-.15.717.216.243.864-1.121 1.746.402.901 1.557-.425.582-1.22.381-1.247-.315-.01-.26-.196.107-.413.813-.217.707-.328 1.352-.246 1.433.081.082.148-.05.148-.292 0-.53 1.012-.606 1.21-.09.074.193.014.67-.134 1.059-.344.905-1.332.986-1.358.111-.011-.369-.16-.143-.393.596-.436 1.383-.463 1.594-.141 1.086.341-.54 1.08-.147 1.08.575 0 .34-.17.85-.38 1.132-.325.439-.46.465-.926.181-.457-.279-.545-.268-.545.066 0 .26.256.4.737.4.406 0 1.27.28 1.919.625.649.344 1.243.642 1.32.662.078.02.284-.344.459-.807zm-.17-3.22c-.442-.534.137-2.023.788-2.023.393 0 .503.191.503.873 0 1.262-.688 1.876-1.29 1.15zm.762-3.56c0-.976.59-1.773 1.152-1.557.815.312.282 2.3-.617 2.3-.41 0-.535-.173-.535-.743zm.71-.365c-.085-.211-.147-.148-.16.16-.012.279.05.435.139.347.088-.088.097-.316.02-.507zm.196-2.155c-.083-.218-.113-.734-.066-1.146.062-.544.25-.774.682-.835.77-.11 1.005.506.55 1.438-.415.852-.951 1.102-1.166.543zm.597-1.02c-.084-.211-.147-.148-.16.16-.01.279.052.435.14.347.087-.088.097-.316.02-.507zm-3.62-.429c0-.976.59-1.773 1.152-1.557.815.313.282 2.3-.616 2.3-.41 0-.536-.173-.536-.743zm.71-.365c-.084-.21-.147-.148-.16.16-.011.279.051.435.14.347.087-.088.096-.316.02-.507zm2.829-1.397c-.259-.673.296-1.854.914-1.945.465-.068.574.048.574.613 0 1.369-1.097 2.351-1.488 1.332zm-2.714-.764c-.171-.207-.227-.713-.131-1.19.13-.653.301-.832.794-.832.499 0 .629.14.629.678 0 .757-.428 1.703-.77 1.703-.123 0-.358-.162-.522-.36zm3.27-2.353c-.245-.658.291-1.918.815-1.918.565 0 .776.637.532 1.608-.172.686-1.127.906-1.348.31zm.848-1.307c-.084-.21-.147-.148-.16.16-.011.28.052.435.14.348.087-.088.097-.317.02-.508zm-3.717.444c-.084-.22-.082-.756.005-1.19.123-.612.3-.791.787-.791.534 0 .628.13.628.873 0 1.274-1.043 2.089-1.42 1.108zm3.367-2.379c-.226-.59.126-1.72.592-1.898.654-.25.984.313.79 1.35-.133.707-.31.946-.704.946-.289 0-.594-.18-.678-.398zm-2.894-.751c-.083-.217-.112-.732-.065-1.144.062-.544.25-.773.682-.835.724-.103.929.349.64 1.408-.233.857-1.011 1.21-1.257.57zm3.196-2.339c-.251-.676.278-1.936.813-1.936.418 0 .51.19.51 1.058 0 .897-.091 1.071-.597 1.143-.328.047-.655-.073-.726-.265zm.842-1.06c-.084-.211-.147-.148-.16.16-.011.279.051.435.14.347.087-.088.097-.316.02-.507zm-3.708.402c-.25-.249-.212-1.474.057-1.9.336-.53 1.209-.253 1.304.412.154 1.08-.765 2.085-1.361 1.488zm3.104-2.574c-.26-.676.28-1.88.842-1.88.416 0 .507.192.507 1.059 0 .897-.09 1.071-.596 1.143-.353.05-.66-.081-.753-.322zm-3.974 24.036c.09-.235.046-.342-.104-.249-.143.089-.261.274-.261.41 0 .381.19.297.365-.161zm-2.754-1.045c0-.145-.116-.086-.257.133-.141.218-.256.516-.256.661 0 .146.115.086.256-.132.141-.218.257-.516.257-.662zm4.422-24.788c-.085-.21-.147-.148-.16.16-.012.279.05.435.139.347.088-.088.097-.316.02-.507zm-10.511 27.652c-.006-.12 1.209-6.796 2.7-14.836 1.925-10.375 2.812-14.618 3.055-14.618.721 0 .33 7.216-.739 13.626-1.123 6.741-3.713 15.794-4.565 15.96-.242.047-.445-.012-.451-.132zm1.515-4.368c-.085-.211-.147-.149-.16.16-.011.278.051.435.139.347.088-.088.097-.316.02-.507zm1.257-4.152c1.272-5.088 2.57-12.96 2.507-15.193-.023-.79-3.657 17.732-3.65 18.6.006.667.474-.728 1.143-3.407zm2.712-17.28c-.085-.21-.148-.148-.16.16-.012.28.05.435.139.347.088-.087.097-.316.02-.507zm.259-3.191c-.074-.182-.134-.033-.134.33 0 .364.06.513.134.331.073-.182.073-.48 0-.661zm-11.5 22.503c-.46-.46-.403-1.09.367-4.055.62-2.395.775-2.71 1.585-3.241.892-.585 1.702-.771 1.697-.39 0 .109-.176 1.675-.39 3.48-.316 2.69-.491 3.394-.969 3.903-.628.668-1.773.82-2.29.303zm1.73-.807c.41-.443.624-1.206.839-2.977.415-3.437.416-3.426-.3-2.924-.762.533-2.205 5.602-1.75 6.15.394.476.573.439 1.21-.25zm-17.272-2.911c-.07-.182.083-.969.339-1.748l.466-1.417 2.249-.057c2.918-.075 4.244-.655 8.02-3.51 1.6-1.208 3.068-2.197 3.265-2.197.458 0 .45.582-.045 2.933-.437 2.079-.368 1.996-3.303 3.96-2.695 1.803-4.627 2.367-8.106 2.367-1.963 0-2.795-.095-2.885-.331zm8.145-1.18c.981-.462 2.555-1.39 3.497-2.063 1.445-1.031 1.739-1.375 1.878-2.198.091-.536.265-1.363.386-1.838l.22-.864-.84.593c-.462.326-1.673 1.237-2.691 2.026-2.632 2.036-4.263 2.701-7.133 2.907l-2.37.17-.334 1.153-.333 1.152 2.968-.099c2.672-.089 3.146-.182 4.752-.939zm-6.776-3.725c-.308-.498 2.422-8.67 4.435-13.277.781-1.788 1.298-2.62 1.803-2.904.39-.218.784-.321.877-.229.229.229-2.721 15.868-3.056 16.203-.364.364-3.853.542-4.06.207zm3.671-.635c.152-.16 2.759-14.608 2.655-14.712-.422-.422-5.7 13.278-5.7 14.794 0 .214.448.26 1.484.154.815-.085 1.518-.19 1.561-.236zm10.825-.545c.431-3.34.976-4.228 3.672-5.985 1.37-.892 2.567-1.371 2.567-1.027 0 .77-.918 4.433-1.257 5.018-.506.873-4.007 3.383-4.718 3.383-.381 0-.418-.195-.264-1.39zm4.28-2.264c.48-.695 1.31-3.698 1.085-3.924-.173-.173-3.51 2.26-3.826 2.788-.29.484-1.106 3.465-1.117 4.077-.007.39 3.294-2.126 3.858-2.941zm-12.593 1.636c0-1.273 3.012-16.432 3.338-16.797.552-.618 2.165-1.436 2.39-1.211.106.106-.193 2.244-.663 4.75l-1.542 8.213-.686 3.654-1.192.91c-1.331 1.017-1.645 1.108-1.645.481zm3.428-7.998c.631-3.441 1.288-6.941 1.46-7.778l.314-1.52-.815.628c-.804.619-.836.739-2.283 8.434l-1.468 7.807.823-.657c.804-.642.85-.8 1.97-6.914zm1.348 4.392c.008-.181.232-1.452.497-2.824.328-1.694.637-2.606.963-2.844.264-.193.338-.35.164-.35-.173 0-.314-.269-.314-.596.002-1.063 1.581-9.001 1.857-9.333.239-.288 2.263-1.223 5.088-2.35.695-.276.992-.557.992-.937 0-.756-.764-.694-3.175.259-2.557 1.01-2.756 1.006-2.547-.041.091-.455.166-.997.166-1.204 0-.47 3.298-2.048 5.413-2.591.867-.223 2.385-.406 3.373-.406h1.797v1.05c0 .85-.18 1.228-.94 1.988-.935.936-.955 1.14-.197 2.025.32.375.22 1.249-.748 6.483-.615 3.327-1.231 6.198-1.369 6.38-.138.182-.508.33-.822.33-.314 0-1.52.552-2.68 1.227-1.159.674-3.2 1.865-4.535 2.645-2.513 1.47-3.006 1.65-2.983 1.09zm1.52-1.045c.176-.174.318-.695.318-1.158 0-.881.576-1.6 1.047-1.31.152.094.276.468.276.83v.659l1.786-.993a79.461 79.461 0 0 0 2.963-1.733c.646-.407 1.446-.74 1.776-.74.743 0 1.034-.529 1.275-2.318l.188-1.392-.732.279c-.585.222-.817.192-1.15-.147-.38-.387-.36-.47.224-.95.359-.294.932-.49 1.305-.446.653.078.676.018 1.294-3.36.58-3.168.597-3.495.216-4.142-.611-1.038-.507-1.776.365-2.59.428-.4.858-1.044.955-1.43.17-.68.14-.701-.977-.698-2.41.008-7.67 1.718-8.172 2.656-.513.96-.22.994 1.89.224 2.31-.843 3.014-.813 3.452.149.394.865-.094 1.62-1.298 2.008-1.963.632-5.095 2.184-5.095 2.525 0 .268.172.249.75-.083.86-.494 1.712-.29 1.583.379-.137.712-1.427 1.332-2.011.967-.443-.277-.525-.04-1.1 3.175-.34 1.911-.67 3.607-.73 3.77-.062.169.152.28.501.26.53-.032.6-.158.533-.957-.125-1.49.14-2.159.814-2.063.469.067.58.246.552.895-.027.666.067.808.53.793.944-.029.885 1.03-.08 1.43-.593.246-.842.558-.965 1.21-.224 1.194-1.435 1.6-1.435.48 0-.835-.673-.14-.953.984-.735 2.951-.709 3.652.106 2.837zm4.728-6.738c-.38-.38-.14-.886.6-1.27.915-.472 1.605-.29 1.605.423 0 .687-1.708 1.344-2.205.847zm-2.738-3.162c-.266-.691.26-1.82.848-1.82.377 0 .547.207.608.743.14 1.22-1.06 2.109-1.456 1.077zm2.907-4.505c-.216-.562.581-1.152 1.557-1.152.563 0 .744.126.744.52 0 .954-1.97 1.495-2.3.632zm3.19-.755c-.247-.645.075-1.111.875-1.265 1.454-.279 1.948.893.577 1.371-1.091.38-1.27.368-1.452-.106zm-7.059 13.576c-.084-.21-.147-.148-.16.16-.011.279.052.435.14.347.087-.088.097-.316.02-.507zm.53-2.91c-.085-.211-.148-.149-.16.16-.012.279.05.435.139.347.088-.088.097-.316.02-.507zm1.546-1.752c-.082-.081-.295 0-.475.181-.26.261-.229.292.148.148.261-.1.408-.247.327-.329zm15.407-3.043c-2.234-.526-2.316-.572-2.423-1.356-.061-.446-.313-2.365-.56-4.265l-.447-3.454.695-1.025c.885-1.303 1.038-1.94.892-3.704-.196-2.362-1.929-4.26-4.163-4.56-.59-.08-1.074-.233-1.074-.34 0-.108-.595-1.108-1.323-2.223-.728-1.114-1.323-2.078-1.323-2.141 0-.482 5.11-1.585 5.73-1.237.653.365 2.9 3.416 3.835 5.206 1.297 2.482 2.491 5.96 3.118 9.077.5 2.485 1.073 7.62 1.075 9.64 0 .95-.036.992-.86.96-.472-.019-1.9-.279-3.172-.578zm3.239-1.757c0-4.111-1.35-10.91-2.913-14.662-.812-1.95-2.678-4.995-4.052-6.613l-.643-.757-1.825.307c-2.485.42-2.67.558-1.999 1.506.296.417.836 1.248 1.201 1.845.533.872.858 1.118 1.644 1.246 2.492.404 4.358 2.921 4.35 5.868-.001 1.028-1.002 3.61-1.522 3.932-.161.1-.17.637-.022 1.449.129.71.38 2.466.56 3.904l.326 2.614 1.852.438c3.098.733 3.043.752 3.043-1.077zm-24.342-4.391c0-.988.617-1.77 1.967-2.492 1.643-.88 1.412 1.534-.257 2.688-1.41.974-1.71.94-1.71-.196zm2.018-.768c.018-.008.12-.294.225-.636l.191-.623-.798.59c-.439.324-.855.808-.924 1.073-.12.458-.09.46.573.047.385-.24.714-.443.733-.45zm-.43-14.696c-.364-.12-2.359-.664-4.432-1.207-2.253-.59-3.77-1.116-3.77-1.309 0-.201-.248-.276-.657-.197-.914.174-1.99-.137-1.99-.577 0-.645 2.659-2.784 4.602-3.703 1.035-.489 2.536-1.047 3.336-1.24 2.056-.497 6.88-.432 8.996.122 1.845.483 5.11 1.934 6.37 2.832.868.617 1.023 1.308.294 1.308-1.782 0-7.827 2.271-9.817 3.689-.794.565-1.795.661-2.932.282zm3.529-1.336c2.495-1.346 4.55-2.153 7.015-2.757l1.933-.474-.722-.474c-.636-.418-.77-.428-1.112-.086-.214.214-.581.352-.817.307-.51-.099-.742-.995-.323-1.254.37-.229-3.283-1.487-5.385-1.855-.863-.151-2.146-.275-2.85-.275-1.133 0-1.312.079-1.54.68-.19.499-.417.657-.853.595-.368-.052-.57-.244-.528-.502.053-.326-.114-.39-.764-.295-.668.098-.746.17-.398.364.238.133.433.402.433.596 0 .417-1.125 1.208-1.719 1.208-.561 0-.796-.71-.395-1.194.484-.583.046-.479-1.698.405-2.07 1.05-3.986 2.621-3.63 2.977.182.183.537.158 1.102-.076.832-.344 1.079-.235 1.377.606.04.113 1.62.62 3.51 1.126 1.89.507 3.735 1.027 4.1 1.156 1.056.376 1.18.346 3.264-.778zm-2.736-.076c0-.383.245-.748.644-.962 1.265-.677 2.046.353.885 1.166-.878.616-1.529.529-1.529-.204zm2.822-1.148c-.416-.416-.12-1.105.602-1.404 1.307-.542 1.892.37.75 1.169-.63.442-1.069.518-1.352.235zm1.412-1.032c0-.073-.239-.005-.53.15-.29.156-.529.343-.529.416 0 .073.238.005.53-.15.29-.157.529-.344.529-.416zm-12.196-.541c-.306-.368-.253-.515.379-1.059.895-.77 1.391-.802 1.575-.101.094.36-.078.699-.534 1.058-.814.64-.965.65-1.42.102zm1.222-.845c-.081-.081-.295 0-.474.18-.26.262-.229.292.148.149.261-.1.408-.247.326-.329zm12.297.487c0-.93 1.716-1.463 2.035-.632.204.531-.564 1.152-1.425 1.152-.43 0-.61-.153-.61-.52zm1.322-.273c.219-.141.278-.257.133-.257-.146 0-.443.116-.662.257-.218.14-.278.256-.132.256.146 0 .443-.115.661-.256zm-8.273-3.335c-.088-.088-.316-.098-.507-.021-.211.084-.149.147.16.16.278.011.435-.051.347-.14zm-31.91-.674l-.893-.257.17-2.167c.504-6.476.419-6.04 1.161-5.951 1.399.168 2.246 3.57 1.792 7.198-.203 1.632-.36 1.715-2.23 1.177zm1.653-2.163c.194-1.894.05-3.035-.563-4.493-.59-1.403-.786-.88-1.013 2.698-.198 3.131-.107 3.454.978 3.465.33.003.465-.375.598-1.67zm-9.16.124l-4.43-1.228-.041-.927c-.036-.824-.053-.844-.153-.182-.134.892-.535 1.09-1.483.729-.898-.342-.95-1.388-.111-2.217.496-.49 1.505-.74 6.07-1.501 3.012-.503 5.556-.835 5.654-.737.097.098.074 1.76-.052 3.694-.184 2.817-.308 3.525-.626 3.557-.218.022-2.39-.513-4.828-1.188zm4.905-2.478c.087-1.634.115-3.012.065-3.063-.124-.124-10.393 1.726-10.727 1.932-.425.263-.315 1.454.134 1.454.25 0 .397-.251.397-.68 0-.553.11-.664.595-.595.446.064.615.286.674.886.077.782.144.818 2.91 1.554 1.558.415 3.032.81 3.277.879.342.096.463-.078.529-.76.065-.682.207-.887.614-.887.433 0 .544.204.61 1.125.05.7.21 1.124.424 1.124.25 0 .384-.799.498-2.97zm-2.095-.594c-.252-.658.294-1.86.846-1.86.561 0 .772.64.529 1.608-.18.72-1.129.893-1.375.252zm.606 1.91c-.074-.182-.134-.033-.134.33 0 .364.06.513.134.331.073-.182.073-.48 0-.661z"
  />
  <path
    style="fill:#e80a1c;fill-opacity:.82122904;stroke:#ffffea;stroke-width:.26458332;stroke-opacity:1"
    d="M-361.941-168.933c-.728-.255-11.947-5.268-24.931-11.14-16.446-7.437-23.928-10.95-24.662-11.577-1.232-1.056-2.54-3.565-2.94-5.642-.846-4.399 1.546-25.406 4.25-37.33 5.149-22.696 13.012-35.543 23.425-38.27 1.663-.436 1.876-.632 2.328-1.012 0 0 1.993-1.878 2.987-2.493.585-.361 3.573-1.53 8.543-1.598 7.493.295 10.359 2.774 10.73 6.491l.005 3.18 6.615 1.785c3.638.982 6.718 1.784 6.845 1.782.127-.002.964-.69 1.86-1.528 4.947-4.627 13.133-6.068 20.515-3.61 6.097 2.029 11.64 7.34 14.461 13.851 2.23 5.147 3.055 9.76 3.733 20.871.444 7.264-2.645 22.226-6.306 30.55-.563 1.28-1.024 2.53-1.024 2.779 0 .248-.343 1.175-.762 2.06-.554 1.173-1.215 2-2.43 3.043-.917.789-2.27 1.975-3.008 2.638-2.367 2.128-4.206 3.59-6.103 4.854-1.03.687-2.386 1.906-3.056 2.747-1.584 1.991-17.834 14.684-19.547 15.269-.644.22-1.903.4-2.798.4-1.418 0-1.709.088-2.268.696-1.485 1.612-3.974 2.076-6.462 1.204z"
  />
  <path
    style="fill:#e80a1c;fill-opacity:.84357539;stroke:#ffffea;stroke-width:.26458332;stroke-opacity:1"
    d="M-358.437-172.21c-.098.62-1.509.62-2.388.284-.405-.154-11.359-5.076-24.342-10.937-16.723-7.549-23.846-10.89-24.432-11.458-1.278-1.24-1.687-2.826-1.686-6.524.003-5.524 1.133-16.488 2.525-24.489 4.168-23.962 11.113-38.975 20.087-43.422 2.255-1.117 2.44-1.162 5.143-1.244l2.803-.084 26.326 7.17c14.48 3.943 25.958 6.801 26.285 6.884.334.084 1.916.422 1.753.49-13.962 5.831-22.602 23.251-32.074 83.33z"
  />
  <path
    style="fill:#e8fc1c;fill-opacity:.98324022;stroke:#ffffea;stroke-width:.26458332;stroke-opacity:1"
    d="M-372.875-180.707c-1.037-1.103-.67-2.769.737-3.352 2.036-.843 3.75 1.517 2.372 3.268-.732.93-2.275.973-3.11.084zm-29.295-13.266c-.41-.41-.65-.952-.65-1.467 0-.957 1.016-2.117 1.854-2.117.76 0 2.016.682 2.216 1.203.55 1.437-.476 3.03-1.953 3.03-.515 0-1.058-.24-1.467-.649z"
  />
  <path
    style="fill:#c70a1a;fill-opacity:.82122904;stroke:#ffffea;stroke-width:.26458332;stroke-opacity:1"
    d="M-323.93-221.568c1.925-10.374 2.811-14.618 3.054-14.618 0 0 .537-7.193 1.875-10.48 1.463-3.415-.55-9.003-4.385-9.348-.838.111-1.632.45-2.426.74-.95.347-1.59.675-2.789 1.197-13.017 5.671-22.59 31.482-27.505 74.152-.637 5.523-.917 6.62-.473 7.17 0 0 4.536.325 6.593-.464 5.795-2.221 10.398-6.957 14.686-11.442 2.022-2.115 4.237-4.209 5.08-7.16.702-2.463 3.63-14.309 3.63-14.309-.047-.721 1.168-7.398 2.66-15.438z"
  />
  <path
    style="fill:#c7571a;fill-opacity:.82122904;stroke:#ffffea;stroke-width:.26458332;stroke-opacity:1"
    d="M-327.823-213.136c.207.207-4.265 21.575-4.764 22.907-.228.61-.795 1.587-1.259 2.17-.935 1.176-9.601 7.965-10.167 7.965-.26 0-.314-.235-.197-.86l3.404-18.285c3.025-16.256 3.286-17.459 3.886-17.92l1.319-10.097c.008-.182.231-1.453.497-2.824.579-2 .672-2.574.813-3.79.002-1.063 1.58-9.002 1.856-9.334 0 0 .13-1.865.359-3.07.09-.454.165-.996.165-1.203 0-.469 3.298-2.048 5.413-2.591.868-.223 2.386-.405 3.374-.405h1.796v1.05c0 .849-.179 1.228-.939 1.988-.935.935-.955 1.139-.197 2.025.32.374.22 1.248-.749 6.482-.615 3.327-1.23 6.198-1.369 6.38z"
  />
  <path
    style="fill:none;stroke:#ffffea;stroke-width:.26458332;stroke-opacity:1"
    d="M-328.103-196.474c.282-2.127.521-2.536 1.682-2.884.945-.283-.474-.476.19-2.037 1.54-3.626 3.185-4.984 5.287-4.365 1.655.488 2.262 1.194 2.262 2.631 0 1.677-.68 2.807-2.731 4.54-2.335 1.974-3.3 3.22-5.311 3.368l-1.56.115zm9.715-9.646c-.39-.47-2.044-1.153-3.284-1.355-.786-.129-.975-.263-.867-.613.96-3.12 1.307-4.37 1.996-7.196a92.553 92.553 0 0 0 2.556-17.598c.21-4.17-.16-3.894 3.935-2.942l2.646.615-.037 2.766c-.086 6.269-2.276 16.907-4.933 23.95-.869 2.303-1.476 3.019-2.012 2.373z"
  />
  <path
    style="fill:#ff54ff;fill-opacity:.99441343;stroke:#ffffea;stroke-width:.26458332;stroke-opacity:1"
    d="M-320.876-236.186c.721 0 .33 7.216-.738 13.626-1.124 6.742-3.185 15.795-4.037 15.96-.242.048-.933.59-.94.47 0 0 1.266-8.895 2.66-15.438 1.291-6.054 3.055-14.618 3.055-14.618z"
  />
  <path
    style="fill:#c7571a;fill-opacity:.82122904;stroke:#ffffea;stroke-width:.26458332;stroke-opacity:1"
    d="M-346.561-221.843c-.308-.497 2.423-8.67 4.435-13.277.782-1.788 1.298-2.62 1.804-2.903.39-.219 3.282-2.424 3.282-2.424.552-.619 2.165-1.436 2.39-1.212.106.106-.192 2.244-.663 4.751l-1.541 8.212-.686 3.654-1.997 9.445c.1.1-1.4 8.6-3.33 18.89-3.247 17.298-3.56 18.748-4.149 19.233-.939.771-1.803 1.198-2.009.992l-2.34 2.172c-.075.075-.823.186-1.663.246-1.076.078-1.61.005-1.813-.248-.195-.243-.215-.951-.06-2.21 1.54-12.57 2.005-15.982 2.914-21.432.975-5.836 2.514-13.665 3.161-16.073.074-.276.14-.477.215-.623z"
  />
  <path
    style="fill:#e8f11c;fill-opacity:.96648045;stroke:#ffffea;stroke-width:.26458332;stroke-opacity:1"
    d="M-334.39-220.864c-.411.468-1.128.94-2.548 1.89-2.696 1.803-4.628 2.367-8.106 2.367-1.964 0-2.795-.095-2.886-.33-.07-.183.083-.97.34-1.749l.465-1.417 2.25-.057c2.917-.074 4.243-.655 8.02-3.51 1.599-1.208 3.068-2.197 3.264-2.197l3.176-1.583c.492-.504 1.143-.984 2.022-1.557 1.37-.893 2.567-1.372 2.567-1.027 0 .77-.918 4.432-1.257 5.018-.506.872-4.006 3.382-4.718 3.382z"
  />
  <path
    style="fill:none;stroke:#000;stroke-width:.26458332;stroke-opacity:1"
    d="M-358.612 162.634c-2.41-.656-49.046-21.888-50.154-22.834-.584-.498-1.394-1.63-1.892-2.643l-.871-1.771.018-5.163c.037-10.434 2.51-27.457 5.651-38.896 5.317-19.36 12.53-29.892 22.046-32.189 1.5-.362 1.787-.52 1.79-.988.007-.948 1.138-2.603 2.113-3.094 1.06-.534 12.72-2.625 14.631-2.624 1.52.001 2.477.453 3.556 1.683 1.322 1.505 1.794 3.299 1.756 6.678l-.032 2.935 7 1.905 7 1.904 1.808-1.706c3.327-3.139 7.664-4.723 12.964-4.736 6.07-.014 11.073 1.973 15.42 6.126 2.455 2.343 3.945 4.353 5.42 7.305 2.372 4.75 4.022 12.11 4.029 17.972 0 1.009.143 2.225.317 2.704.243.674.241 1.804-.01 5.015-.727 9.257-3.28 20.232-6.178 26.564-.434.946-.962 2.374-1.175 3.175-.593 2.224-1.495 3.516-3.873 5.548a942.266 942.266 0 0 0-4.028 3.463c-1.019.882-2.924 2.335-4.233 3.228-1.31.893-2.419 1.712-2.464 1.82-.046.107-.492.732-.992 1.387-1.094 1.432-16.896 13.756-18.633 14.531-.657.293-2.014.584-3.043.653-1.602.106-1.968.23-2.677.9-.724.686-2.85 1.574-3.653 1.525-.159-.01-.884-.18-1.611-.377z"
  />
  <path
    style="fill:none;stroke:#000;stroke-width:.26458332;stroke-opacity:1"
    d="M-355.497 159.126c.733-.81.94-1.752 1.514-6.854 1.513-13.458 3.762-26.499 6.364-36.902 5.338-21.337 12.448-33.954 21.431-38.032 1.447-.657 1.575-.77 1.02-.911-.35-.088-12.476-3.38-26.947-7.315-24.353-6.622-26.47-7.154-28.443-7.149-3.83.01-7.127 1.646-10.477 5.197-8.644 9.163-15.012 30.905-17.184 58.667-.565 7.219-.252 9.713 1.42 11.33.58.56 7.944 4.011 24.771 11.61 25.152 11.357 25.503 11.494 26.531 10.359z"
  />
  <path
    style="fill:none;stroke:#000;stroke-width:.26458332;stroke-opacity:1"
    d="M-349.076 157.15c.04-.041.565-2.753 1.168-6.028 1.103-5.992 1.376-6.75 2.356-6.556.203.04.52.312.701.603.322.515.173 1.569-1.307 9.209l-.144.742 1.045-.742c.87-.617 1.09-.964 1.309-2.065.882-4.433 6.636-35.252 6.635-35.541 0-.259-.23-.303-.86-.168-.473.101-.904.225-.959.274-.054.05-.737 3.577-1.518 7.84-.78 4.263-1.538 8.02-1.682 8.347-.301.685-1.354.808-1.846.216-.278-.335.759-6.615 2.525-15.298.112-.549.046-.727-.27-.727-.23 0-.418.044-.418.097 0 .054-.416 2.34-.926 5.08-.509 2.741-.926 5.075-.926 5.186 0 .45-1.052.77-1.587.485-.714-.382-.684-.914.353-6.284.485-2.51.822-4.624.75-4.696-.309-.309-1.078-.097-1.202.33-1.866 6.44-6.754 38.06-6.134 39.678.127.33.43.38 1.512.253.744-.089 1.385-.194 1.425-.235zm12.35-9.352c2.369-1.828 4.582-3.644 4.917-4.035 1.354-1.577 1.676-2.74 3.636-13.107 1.076-5.697 2.009-10.566 2.072-10.821.101-.406.015-.392-.688.108-.45.32-1.367.626-2.085.695-1.188.114-1.351.055-2.215-.81-1.122-1.121-1.2-2.04-.404-4.821.663-2.319.66-2.4-.066-1.919-.327.218-.714.819-.86 1.337-.297 1.057-.726 1.279-.926.478-.128-.517-.15-.519-.762-.054-.564.427-.764 1.198-1.9 7.33-5.808 31.34-5.38 28.943-5.151 28.943.068 0 2.062-1.496 4.432-3.324zm10.26-8.714l.897-.662h-.977c-.867 0-.978.076-.978.662 0 .364.037.661.081.661.045 0 .484-.297.977-.661zm2.931-3.427c2.79-1.134 6.238-3.915 6.843-5.52.717-1.903.109-3.207-1.792-3.843-1.825-.61-3.324.645-4.811 4.03-.818 1.86-.971 2.046-1.923 2.331-1.102.33-1.324.673-1.635 2.526l-.188 1.125h.954c.525 0 1.674-.292 2.552-.65zm10.082-14.697c1.115-3.282 2.065-6.838 2.854-10.678.677-3.3 1.644-11.057 1.545-12.399l-.081-1.094-2.646-.602c-1.455-.33-2.776-.607-2.935-.614-.19-.008-.347 1.291-.455 3.757-.291 6.673-1.565 14.35-3.486 21.018-.511 1.774-.93 3.279-.93 3.344 0 .066.442.202.98.303 1.135.213 2.862 1.043 3.154 1.516.244.393.583-.38 2-4.551zm-8.664-.162c2.227-7.575 3.51-14.899 3.727-21.27.072-2.11.076-3.717.007-3.571-.091.197-4.223 22.18-5.32 28.31-.129.718-.106.75.232.329.205-.256.814-1.965 1.353-3.798z"
  />
  <path
    style="fill:none;stroke:#000;stroke-width:.26458332;stroke-opacity:1"
    d="M-327.826 117.957c.477-.507.651-1.2.95-3.77.202-1.732.323-3.192.27-3.245-.053-.053-.5.153-.995.459-.824.51-.96.788-1.622 3.331-.397 1.527-.645 3.017-.552 3.311.232.731 1.222.688 1.95-.086zm-9.564-3.945c1.342-.555 5.633-3.231 5.633-3.513 0-.042.177-1 .393-2.131.216-1.13.348-2.1.293-2.156-.055-.055-1.375.87-2.933 2.058-3.762 2.869-5.175 3.502-8.135 3.646l-2.311.112-.267.96c-.559 2.013-.626 1.968 2.707 1.829 2.404-.1 3.293-.256 4.62-.805zm-2.718-4.472c.149-.18 2.994-15.703 2.897-15.809-.322-.35-1.3 1.22-2.437 3.912-1.754 4.153-4.113 11.304-3.907 11.842.139.36.44.41 1.77.29.882-.08 1.636-.186 1.677-.235zm12.818-.881c1.01-.654 2.075-1.577 2.366-2.05.53-.864 1.251-3.861 1.065-4.42-.144-.431-3.67 2.07-4.353 3.087-.315.47-.655 1.422-.755 2.117-.1.695-.246 1.532-.324 1.86-.078.327-.074.594.01.594.084 0 .98-.535 1.99-1.188zm-8.02-2.359c.203-.568 3.012-15.867 2.929-15.95-.047-.047-.554.254-1.127.67l-1.042.754-1.406 7.648c-.773 4.206-1.473 7.94-1.556 8.299-.148.635-.124.63.974-.24.619-.49 1.172-1.022 1.228-1.18zm6.33-3.947a399.94 399.94 0 0 0 3.589-2.072c.954-.56 1.99-1.017 2.3-1.017.31 0 .646-.134.747-.297.101-.164.69-2.93 1.309-6.148 1.112-5.783 1.12-5.857.625-6.485-.698-.888-.632-1.242.427-2.301.66-.661.926-1.161.926-1.748v-.823l-2.183.142c-2.147.14-5.803 1.236-7.22 2.165-.723.473-1.087 2.395-.4 2.115 3.804-1.551 4.86-1.74 5.285-.944.397.742-.136 1.24-2.114 1.976-2.265.842-3.948 1.708-4.095 2.107-.13.353-1.706 8.659-1.708 9 0 .118.11.145.246.062.534-.33.591.482.062.885-.404.307-.677 1.02-.974 2.543a305.866 305.866 0 0 1-.514 2.593c-.091.432-.01.421.87-.11a165.34 165.34 0 0 1 2.823-1.643zm19.706-8.05c-.055-1.836-.611-7.283-.931-9.127-.88-5.076-2.921-10.02-5.544-13.427-1.403-1.824-1.713-1.898-4.893-1.175l-1.821.414 1.306 2.001c.718 1.1 1.306 2.105 1.306 2.232 0 .127.304.23.675.23 1.755 0 3.927 1.88 4.517 3.91.511 1.76.31 3.064-.726 4.697l-.785 1.238.398 2.553c.219 1.403.469 3.218.555 4.034l.157 1.482 2.433.541c2.739.61 3.362.683 3.353.397zm-22.421-7.066c.107-.152.196-.605.198-1.007l.004-.732-1.032.683c-.935.619-1.335 1.262-1.345 2.16-.004.338 1.808-.582 2.175-1.104zm3.002-15.891c2.47-1.41 4.298-2.13 6.924-2.73 1.055-.242 1.918-.52 1.918-.617 0-.193-1.668-1.279-1.965-1.279-.1 0-.109.12-.018.267.214.346-.537.632-1.096.418-.399-.154-.398-.204.008-.654.42-.464.378-.515-.868-1.05-2.152-.927-4.497-1.354-7.449-1.358-4.464-.006-7.923 1.192-10.632 3.682l-1.384 1.273.865.19c.542.119 1.004.074 1.24-.121.445-.37.958-.128.77.363-.097.253 1.082.676 4.31 1.548 2.445.66 4.633 1.214 4.863 1.232.23.017 1.36-.507 2.513-1.164zm-34.405-9.283c.327-3.054-.423-6.186-1.533-6.403-.343-.067-.438.39-.576 2.778-.091 1.572-.223 3.301-.293 3.843-.12.924-.075.999.734 1.232 1.446.418 1.47.397 1.668-1.45zm-4.282-2.949c.09-1.783.075-3.242-.035-3.242-.963 0-10.767 1.89-11.059 2.132-.208.173-.38.657-.38 1.076 0 .63.112.761.645.761.506 0 .662-.156.727-.727.114-.99.595-.81.692.259l.078.865 4.42 1.21c2.43.666 4.493 1.142 4.584 1.058.09-.083.238-1.61.328-3.392z"
  />
  <path
    style="fill:#e80a00;fill-opacity:.80446927;stroke:none;stroke-width:.59330076;stroke-opacity:1"
    d="M216.264 236.93c-3.553 4.465-37.806 28.396-41.647 29.706-1.445.493-4.269.896-6.275.896-3.18 0-3.832.2-5.086 1.562-3.33 3.615-8.91 4.655-14.49 2.7h-.001c-1.632-.572-26.789-11.812-55.905-24.98-36.877-16.676-53.655-24.552-55.3-25.96-2.765-2.367-5.697-7.994-6.593-12.652-1.898-9.863 3.466-56.969 9.53-83.708 11.545-50.893 29.177-79.7 52.527-85.817 3.728-.977 4.208-1.416 5.22-2.269 0 0 4.47-4.212 6.697-5.59 1.313-.81 8.014-3.429 19.158-3.584 16.802.663 23.23 6.22 24.06 14.557l.013 7.128 14.833 4.004c8.158 2.202 15.065 4 15.35 3.996.285-.005 2.162-1.547 4.172-3.427 11.09-10.374 29.448-13.605 46-8.095 13.672 4.55 26.103 16.458 32.428 31.06 5 11.543 6.85 21.884 8.371 46.802.995 16.287-5.931 49.838-14.141 68.506-7.612 13.443-20.115 24.583-29.884 34.474-2.31 1.539-9.822 12.623-9.272 10.456l11.815-46.553c6.454-9.256 22.634-71.411 15.821-87.081 0 0-6.77 37.13-9.664 50.706-3.127 14.67-5.777 32.03-5.777 32.03l-.38 4.345z"
  />
  <path
    style="fill:#e80a1c;fill-opacity:.84357539;stroke:none;stroke-width:.59330076;stroke-opacity:1"
    d="M156.623 264.446c-.22 1.389.559 7.021-1.413 6.27l-6.445 1.078c-.908-.346-25.783-12.461-54.896-25.604-37.5-16.928-54.6-24.232-55.913-25.507-2.865-2.782-6.6-11.405-6.596-19.697.007-12.387 3.322-38.033 6.037-56.04 7.845-52.044 25.108-85.145 39.037-96.243 5.055-2.505 6.703-3.008 12.764-3.191 26.07-2.342 51.358 8.698 76.476 15.54 32.468 8.842 58.207 15.251 58.941 15.437.75.19 4.296.945 3.93 1.097-31.307 13.078-50.682 52.14-71.922 186.86z"
  />
  <path
    style="fill:#e8fc1c;fill-opacity:.98324022;stroke:none;stroke-width:.59330076;stroke-opacity:1"
    d="M58.556 215.645c-.918-.918-1.456-2.134-1.456-3.29 0-2.146 2.277-4.746 4.156-4.746 1.703 0 4.52 1.529 4.968 2.696 1.237 3.222-1.066 6.797-4.378 6.797-1.156 0-2.372-.539-3.29-1.457zm65.69 29.749c-2.323-2.474-1.501-6.21 1.654-7.517 4.566-1.892 8.408 3.4 5.32 7.327-1.643 2.088-5.102 2.182-6.974.19z"
  />
  <path
    style="fill:#c70a1a;fill-opacity:.82122904;stroke:none;stroke-width:.59330076;stroke-opacity:1"
    d="M234 153.767c2.119-16.75 23.15-74.098-4.22-75.583-2.13.78-3.565 1.514-6.252 2.685-29.19 12.716-53.354 71.372-64.375 167.056-1.426 12.384-2.805 14.216 2.029 17.619 4.028 2.836 9.947-1.236 14.392-3.36 12.557-5.997 23.24-15.673 32.932-25.659 5.727-5.9 12.687-13.286 14.574-19.903 1.576-5.522 3.319-18.822 4.956-28.237 2.006-11.536 2.62-16.59 5.965-34.618z"
  />
  <path
    style="fill:none;stroke:#ffffea;stroke-width:.59330076;stroke-opacity:1"
    d="M205.425 104.05c0-2.214 1.384-3.968 4.41-5.587 3.685-1.972 3.168 3.439-.575 6.026-3.16 2.186-3.835 2.108-3.835-.44zm2.405 36.961c.018-.408.518-3.258 1.114-6.333 1.299-4.484 1.509-5.77 1.823-8.5.004-2.382 3.546-20.184 4.164-20.929.535-.645 5.075-2.74 11.408-5.266 1.56-.622 2.225-1.251 2.225-2.104 0-1.694-1.712-1.555-7.12.58-5.733 2.265-6.18 2.258-5.71-.091.204-1.02.37-2.235.37-2.7 0-1.051 7.396-4.592 12.14-5.81 1.944-.5 5.348-.91 7.564-.91h4.029v2.354c0 1.905-.402 2.755-2.106 4.46-2.098 2.097-2.143 2.554-.443 4.54.718.84.492 2.8-1.678 14.536-1.38 7.461-2.76 13.9-3.07 14.307-.309.408-1.138.742-1.843.742-.704 0-3.408 1.237-6.008 2.749s-7.177 4.182-10.17 5.933c-5.637 3.297-6.743 3.7-6.69 2.442zm-10.711 8.086c0-2.855 6.755-36.848 7.485-37.665 1.238-1.387 4.855-3.22 5.36-2.717.237.238-.432 5.032-1.488 10.653l-3.456 18.415-1.538 8.193-2.674 2.041c-2.985 2.28-3.69 2.486-3.69 1.08zm-13.865 4.053c-.69-1.116 5.433-19.443 9.946-29.772 1.752-4.01 2.91-5.875 4.043-6.51.874-.491 1.758-.723 1.966-.515.513.513-6.101 35.581-6.853 36.333-.816.816-8.639 1.215-9.102.464zm21.578 6.432c-6.045 4.044-10.378 5.31-18.177 5.31-3.153.269-6.212.585-8.535-.743.278-2.806.836-3.725 1.805-7.848l7.108.622c6.543-.166 9.517-1.467 17.985-7.868 3.586-2.711 6.88-4.93 7.32-4.93l11.656-7.04c3.073-2.003 10.954-5.141 10.953-4.368 0 1.727-1.23 9.563-1.99 10.877-1.134 1.956-15.01 10.025-16.605 10.025zm10.205 12.904c-1.031-1.031-.904-2.442.821-9.093 1.393-5.369 1.739-6.077 3.556-7.268 2-1.31 3.815-1.728 3.805-.875-.002.245-.396 3.757-.873 7.805-.711 6.032-1.104 7.611-2.175 8.751-1.408 1.499-3.975 1.839-5.134.68zm-26.51 72.353l7.632-41.003c6.783-36.452 7.368-39.149 8.714-40.183l5.242-3.468c3.395-2.418 3.692-1.539 1.793 5.311-1.37 4.942-1.187 7.243.74 9.295 2.331 2.48 6.242 2.278 10.103-.522.555-.403 1.156-.587 1.334-.408.465.464-8.378 47.192-9.495 50.179-.513 1.369-1.783 3.559-2.823 4.867-2.097 2.637-21.53 17.86-22.8 17.86-.583 0-.703-.526-.44-1.928zm-23.841 14.894c-.438-.546-.48-2.133-.134-4.957 3.455-28.185 4.495-35.838 6.535-48.057 2.185-13.087 5.638-30.644 7.088-36.043.516-1.923.831-2.225 2.32-2.225.947 0 1.87.24 2.052.535.182.294-.621 5.529-1.784 11.633-1.163 6.104-1.972 11.47-1.797 11.925.466 1.214 2.59 1.006 3.003-.295.196-.617 1.268-5.996 2.382-11.954 1.115-5.958 2.29-11.095 2.611-11.417.807-.807 2.444-.08 2.444 1.087 0 .526-1.335 8.04-2.966 16.699-1.632 8.658-2.967 16.387-2.967 17.175 0 1.597 1.507 2.5 2.506 1.501.356-.355 2.068-8.333 3.807-17.73 1.738-9.395 3.288-17.625 3.446-18.29.195-.824 1.09-1.422 2.828-1.89 1.398-.375 2.724-.5 2.945-.276.222.224-3.14 19.286-7.47 42.36-7.278 38.79-7.98 42.04-9.302 43.127-2.105 1.731-4.042 2.688-4.505 2.225-.223-.224.472-5.077 1.545-10.784 1.072-5.707 1.797-10.776 1.61-11.262-.469-1.223-2.598-1.115-2.997.153-.18.57-1.4 6.757-2.713 13.748-1.312 6.99-2.524 12.847-2.692 13.015-.168.168-1.846.418-3.729.554-2.414.174-3.612.01-4.066-.557z"
  />
  <path
    style="fill:#e80a1c;fill-opacity:.82122904;stroke:#ffffea;stroke-width:.26458332;stroke-opacity:1"
    d="M-362.136 4.223c-.727-.255-11.946-5.267-24.93-11.14-16.446-7.436-23.928-10.949-24.662-11.577-1.233-1.055-2.54-3.564-2.94-5.641-.846-4.399 1.546-25.406 4.25-37.33 5.148-22.696 13.012-35.543 23.425-38.27 1.662-.436 1.876-.632 2.327-1.012 0 0 1.993-1.879 2.987-2.493.586-.362 3.574-1.53 8.544-1.599 7.493.296 10.359 2.774 10.729 6.492l.006 3.18 6.615 1.785c3.638.982 6.718 1.783 6.845 1.781.127-.002.964-.69 1.86-1.527 4.946-4.627 13.133-6.068 20.514-3.61 6.097 2.029 11.641 7.339 14.462 13.85 2.23 5.148 3.054 9.76 3.733 20.872.443 7.263-2.645 22.225-6.307 30.55-.563 1.28-1.023 2.53-1.023 2.778 0 .249-.343 1.176-.762 2.062-.554 1.171-1.216 2-2.43 3.042a221.54 221.54 0 0 0-3.008 2.638c-2.368 2.128-4.206 3.59-6.103 4.854-1.03.686-2.386 1.905-3.056 2.747-1.584 1.991-17.834 14.684-19.547 15.268-.644.22-1.904.4-2.798.4-1.418 0-1.709.09-2.268.696-1.485 1.613-3.974 2.076-6.462 1.204z"
  />
  <path
    style="fill:#e80a1c;fill-opacity:.84357539;stroke:#ffffea;stroke-width:.26458332;stroke-opacity:1"
    d="M-358.631.947c-.098.619-1.509.62-2.388.284-.405-.154-11.359-5.076-24.342-10.937-16.723-7.55-23.847-10.89-24.432-11.458-1.278-1.241-1.688-2.826-1.686-6.524.003-5.524 1.133-16.488 2.525-24.49 4.168-23.962 11.113-38.974 20.087-43.421 2.254-1.117 2.44-1.162 5.142-1.244l2.804-.085 26.326 7.17c14.48 3.944 25.957 6.802 26.285 6.885.334.084 1.916.421 1.753.49-13.962 5.831-22.602 23.251-32.074 83.33z"
  />
  <path
    style="fill:#e8fc1c;fill-opacity:.98324022;stroke:#ffffea;stroke-width:.26458332;stroke-opacity:1"
    d="M-373.07-7.55c-1.036-1.103-.67-2.77.738-3.352 2.036-.843 3.75 1.516 2.372 3.267-.733.932-2.275.974-3.11.085zm-29.294-13.266c-.41-.41-.65-.952-.65-1.467 0-.957 1.015-2.117 1.853-2.117.76 0 2.016.682 2.216 1.202.552 1.437-.475 3.031-1.952 3.031-.516 0-1.058-.24-1.467-.65z"
  />
  <path
    style="fill:#c70a1a;fill-opacity:.82122904;stroke:#ffffea;stroke-width:.26458332;stroke-opacity:1"
    d="M-324.125-48.41c1.925-10.375 2.812-14.62 3.055-14.62 0 0 .537-7.192 1.875-10.479 1.463-3.415-.55-9.003-4.386-9.348-.838.111-1.632.45-2.425.74-.95.347-1.59.675-2.79 1.197-13.016 5.671-22.59 31.481-27.505 74.152-.636 5.523-.917 6.62-.473 7.17 0 0 4.537.325 6.594-.464 5.795-2.221 10.397-6.957 14.686-11.443 2.022-2.115 4.237-4.208 5.079-7.16.702-2.462 3.63-14.308 3.63-14.308-.046-.722 1.169-7.398 2.66-15.438z"
  />
  <path
    style="fill:#c7571a;fill-opacity:.82122904;stroke:#ffffea;stroke-width:.26458332;stroke-opacity:1"
    d="M-328.017-39.98c.207.208-4.266 21.575-4.764 22.907-.228.61-.795 1.588-1.259 2.171-.935 1.176-9.601 7.964-10.167 7.964-.26 0-.314-.234-.197-.86L-341-26.081c3.025-16.256 3.286-17.459 3.886-17.92l1.318-10.097c.008-.182.232-1.453.497-2.825.58-2 .673-2.573.813-3.79.002-1.063 1.581-9.001 1.857-9.333 0 0 .13-1.866.358-3.07.091-.454.166-.996.166-1.203 0-.469 3.298-2.048 5.413-2.591.867-.223 2.385-.406 3.373-.406h1.797v1.05c0 .85-.18 1.228-.94 1.988-.935.936-.955 1.14-.197 2.025.32.375.22 1.249-.748 6.483-.615 3.327-1.231 6.198-1.369 6.38z"
  />
  <path
    style="fill:none;stroke:#ffffea;stroke-width:.26458332;stroke-opacity:1"
    d="M-328.297-23.317c.282-2.127.52-2.536 1.682-2.884.944-.283-.474-.477.189-2.037 1.541-3.627 3.186-4.984 5.288-4.365 1.655.488 2.262 1.194 2.262 2.63 0 1.678-.68 2.808-2.732 4.541-2.335 1.973-3.3 3.22-5.31 3.367l-1.56.115zm9.715-9.647c-.39-.47-2.045-1.152-3.284-1.355-.786-.128-.975-.262-.867-.613.96-3.12 1.306-4.37 1.996-7.195a92.554 92.554 0 0 0 2.556-17.598c.21-4.17-.16-3.894 3.935-2.942l2.646.615-.038 2.765c-.085 6.27-2.276 16.908-4.932 23.95-.87 2.304-1.476 3.02-2.012 2.373z"
  />
  <path
    style="fill:#fff;fill-opacity:.99441343;stroke:#ffffea;stroke-width:.26458332;stroke-opacity:1"
    d="M-321.07-63.03c.721 0 .33 7.217-.739 13.627-1.123 6.742-3.184 15.795-4.036 15.96-.242.047-.933.59-.94.47 0 0 1.266-8.895 2.66-15.438a2768.51 2768.51 0 0 0 3.055-14.618z"
  />
  <path
    style="fill:#c7571a;fill-opacity:.82122904;stroke:#ffffea;stroke-width:.26458332;stroke-opacity:1"
    d="M-346.755-48.686c-.308-.498 2.422-8.67 4.435-13.277.781-1.788 1.298-2.62 1.803-2.903.39-.22 3.283-2.424 3.283-2.424.552-.619 2.165-1.437 2.39-1.212.106.106-.193 2.244-.663 4.751l-1.542 8.212-.686 3.654-1.996 9.444c.099.1-1.4 8.6-3.33 18.89-3.247 17.299-3.56 18.748-4.15 19.233-.938.772-1.802 1.199-2.008.992l-2.34 2.172c-.075.075-.824.186-1.663.247-1.077.078-1.611.005-1.814-.248-.195-.244-.214-.951-.06-2.21 1.541-12.57 2.005-15.983 2.915-21.432.974-5.836 2.514-13.666 3.16-16.073.075-.277.14-.478.216-.624z"
  />
  <path
    style="fill:#e8f11c;fill-opacity:.96648045;stroke:#ffffea;stroke-width:.26458332;stroke-opacity:1"
    d="M-334.585-47.707c-.41.468-1.127.94-2.548 1.89-2.695 1.803-4.627 2.367-8.105 2.367-1.964 0-2.796-.095-2.886-.33-.07-.183.083-.97.339-1.749l.466-1.417 2.249-.057c2.918-.075 4.244-.655 8.02-3.51 1.6-1.208 3.069-2.197 3.265-2.197l3.176-1.584c.492-.503 1.142-.984 2.022-1.557 1.37-.892 2.567-1.371 2.567-1.027 0 .77-.918 4.433-1.257 5.018-.506.873-4.007 3.383-4.718 3.383z"
  />
</svg>
