<svg xmlns="http://www.w3.org/2000/svg" viewBox="0 0 100 148">
  <path
    d="M90.56 132.266c-.04 0-.007.375-.028.924-.03.79-.152 1.695-.328 2.43-.057.239-.064.348-.023.373.037.023.05.21.038.53-.016.413-.047.561-.189.894-.253.596-.657 1.176-1.19 1.706-.433.431-1.206 1.025-1.334 1.025-.028 0-.33.144-.668.319-1.384.714-2.656 1.051-4.656 1.233-.776.07-2.135.094-2.63.044-2.058-.204-3.622-.606-5.104-1.313-1.835-.875-3.066-2.071-3.864-3.755-.328-.694-.588-1.93-.644-3.062l-.033-.667.032-.46c.018-.028.038-.228.058-.537.02-.309.08-.763.135-1.009.055-.246.115-.553.132-.684.046-.348.82-2.306 1.103-2.794l.245-.42.76-1.07.278-.302.278-.3-.12-.227c-.09-.172-.119-.317-.12-.6l-.002-.374.295-.39c.382-.502.415-.57.415-.86 0-.266.155-.627.291-.68.047-.018.19-.033.318-.033h.231l-.13-.295c-.257-.58-.346-.973-.399-1.75-.036-.532-.034-.885.007-1.185.033-.234.067-.52.078-.637.024-.268.666-2.101.894-2.551.489-.967.887-1.501 1.669-2.237a7.457 7.457 0 0 1 1.774-1.236c3.696-1.374 11.043 2.042 11.715 5.22.275 1.09.385 2.674.11 3.764-.067.268-.107.487-.088.487.02 0 .049.165.066.367.026.314.008.434-.123.839a7.896 7.896 0 0 1-.97 1.977c-.198.289-.391.63-.43.756-.068.222-.065.236.08.42.254.322.72 1.065.925 1.475l.195.388.55 1.708.124.39c.106.334.265 1.585.265 1.787"
    style="stroke:#000;stroke-width:.3;fill:#fff"
  />
  <path
    d="M87.604 126.884c.17-.12.35-.279.4-.355.094-.141.396-1.172.357-1.212-.013-.012-.065.017-.118.064-.111.101-1.078.187-2.412.215-.795.017-1.14.04-3.202.218a30.14 30.14 0 0 1-2.084.077c-1.094 0-1.232-.01-1.706-.131-.566-.144-1.045-.35-1.427-.612-.307-.211-1.131-.92-1.843-1.586-.604-.565-1.212-.943-1.444-.898-.153.03-.169.075-.233.645-.037.33-.048.35-.425.752-.213.228-.387.442-.387.477 0 .216.688.948 1.394 1.485.415.315 1.235.812 1.857 1.125 1.143.574 2.466.856 4.477.952 1.221.058 2.733.019 2.913-.023-.794.47-.782 1.335-1.18 2.224-.087.193-.238.521-.337.729-.099.207-.18.399-.18.425 0 .057.296.329.358.329.024 0 .098.073.164.162.166.225.594.415.936.416.15 0 .458-.057.684-.127.536-.165 1.122-.294 1.345-.294h.178l.088-.407c.078-.363.35-1.045.447-1.117.02-.015.17-.292.334-.615.163-.324.31-.576.325-.56.015.014.013-.027-.004-.092-.02-.077-.011-.107.025-.084.036.022.046-.006.026-.079-.022-.085-.012-.103.04-.07.044.026.056.021.034-.015-.02-.03 0-.206.044-.39.09-.38.106-1.02.077-1.237.207-.179.285-.255.48-.39z"
    style="stroke:none;fill:#fdd771"
  />
  <path
    d="M72.018 126.473l.269-.368-.425-.594c-.773-1.08-1.613-2.107-2.365-2.891-.376-.392-.601-.492-.914-.406a1.05 1.05 0 0 0-.587.482c-.15.29-.073.464.451 1.022.262.28.477.536.477.571 0 .044-.188.07-.618.088-.466.019-.693.054-.918.14-.389.15-.621.407-.621.684 0 .372.411.795.773.795.098 0 .53-.118.958-.263.669-.226.836-.263 1.186-.263.462 0 .321-.091 1.444.936.294.269.554.477.578.462a4.04 4.04 0 0 0 .312-.395zm17.17 3.711c.247-.129 1.324-1.01 1.64-1.34.168-.178.337-.323.376-.323.039 0 .303.084.588.187.963.348.993.356 1.192.318.346-.064.668-.43.668-.757 0-.213-.2-.488-.46-.63-.245-.137-.822-.273-1.158-.274-.144 0-.224-.025-.224-.067 0-.146.535-1.136.76-1.407.306-.369.379-.576.296-.85a1.244 1.244 0 0 0-.219-.384c-.582-.663-1.239-.094-2.081 1.802-.437.985-.62 1.31-1.303 2.322-.666.986-.664.982-.6 1.167a.49.49 0 0 0 .193.23c.174.094.164.094.331.006z"
    style="stroke:none;fill:#582927"
  />
  <path
    d="M79.133 119.63c.554-.154.799-.927.415-1.31-.395-.396-1.086-.148-1.262.453-.056.19-.052.256.028.466.075.198.134.263.31.342.254.116.265.117.509.049zm4.633.933c.192-.127.415-.51.415-.71 0-.36-.324-.696-.672-.697-.711 0-1.11.949-.585 1.39.214.18.585.188.842.017z"
    style="stroke:none;fill:#411c1d"
  />
  <path
    d="M89.388 117.17c.033-.195.117-.58.185-.855.068-.275.21-.938.315-1.473.105-.535.226-1.11.268-1.275.042-.166.076-.357.076-.425s.056-.289.125-.492a4.48 4.48 0 0 0 .162-.6c.02-.129.084-.488.142-.8.088-.472.095-.612.047-.84-.112-.522-.462-.975-1.186-1.54-1.374-1.07-3.14-1.762-4.501-1.762-.516 0-.67.041-.88.237a.859.859 0 0 1-.249.165c-.058.018-.212.128-.342.244-.445.397-.665.59-1.003.88-.185.159-.894.844-1.574 1.523-.68.679-1.257 1.229-1.28 1.222-.025-.007-.031.008-.016.033.04.064-.412.495-.466.445-.025-.022-.03-.013-.01.019.018.033-.062.168-.178.3-.2.227-.206.243-.108.295a.453.453 0 0 0 .159.056c.065 0 1.74 1.655 1.74 1.72 0 .085.312.317 1.447 1.078 1.303.873 2.714 1.442 4.893 1.974a8.79 8.79 0 0 0 1.718.22l.455.007.06-.356zm-7.932 7.4c.387-.082.553-.193.679-.453a.757.757 0 0 0-.284-.964c-.202-.123-.42-.13-.721-.025-.493.174-.814.075-1.267-.393-.39-.402-.562-.473-.855-.35a.54.54 0 0 0-.328.586c.047.248.389.75.705 1.034a2.337 2.337 0 0 0 2.071.564z"
    style="stroke:none;fill:#fd6c71"
  />
</svg>
