<svg xmlns="http://www.w3.org/2000/svg" viewBox="0 0 100 148">
  <path
    d="M76.566 128.781c-1.22-.63-1.379-.727-2.292-1.41-.839-.626-2.651-2.49-3.134-3.222-1.231-1.865-1.95-3.844-2.084-5.732-.048-.672-.086-.832-.203-.838-.092-.005-.103-.023-.031-.052.133-.054.152-.3.022-.3-.049 0-.086-.15-.083-.336.005-.27.022-.301.083-.157.053.121.08.136.086.045.043-.722.302-2.154.436-2.412a5.41 5.41 0 0 0 .285-.684c.064-.198.226-.5.36-.673.135-.173.272-.4.304-.503.07-.224 1.025-1.228 1.536-1.614 1.359-1.027 3.643-1.97 5.967-2.464.42-.09 1.127-.243 1.57-.342 3.045-.676 3.966-.82 5.285-.82 1.402 0 3.109.322 3.959.748l.554.276c.716.355 2.098 2.013 2.474 2.969.584 1.482.771 2.145.872 3.078.051.476.116.69.239.785.165.128.165.133 0 .231-.16.095-.166.194-.11 1.683a.825.825 0 0 1-.04.344c-.058.03-.048.09-.054.16-.127 1.634-.251 2.316-.626 3.449-.42 1.27-1.377 3.31-1.773 3.78-.13.153-.236.326-.238.384-.002.058-.144.264-.315.458l-.312.352-.25-.24c-.138-.132-.29-.24-.336-.24-.047 0-.388-.115-.758-.257-.37-.141-.865-.303-1.1-.36-.597-.142-1.707-.124-2.4.038-.921.216-2.312.757-2.789 1.086-.24.165-.456.3-.48.3-.023 0-.236.13-.473.287-.72.478-1.653 1.287-2.309 2-.342.37-.568.587-.766.646-.335-.068-.574-.183-1.076-.443z"
    style="stroke:none;fill:#82b7ff"
  />
  <path
    d="M78.12 129.019c.74-.82 1.297-1.359 1.822-1.763 1.975-1.519 4.09-2.396 5.789-2.4 1.399-.001 3.465.775 3.481 1.31.004.12-1.564 1.62-1.982 1.895-.167.11-.706.404-1.2.654-.492.25-.93.488-.97.53-.041.04.07.628.246 1.305.176.677.404 1.641.506 2.143.102.501.281 1.255.398 1.675.117.42.294 1.166.393 1.66.204 1.014.509 2.315.683 2.916.064.223.143.567.175.767.053.326.031.387-.214.605-.298.266-.314.269-.615.12a.538.538 0 0 1-.255-.325 29.547 29.547 0 0 0-.491-1.795 10.332 10.332 0 0 1-.222-.987 20.844 20.844 0 0 0-.455-1.795c-.34-1.123-.534-1.868-.93-3.59-.36-1.566-.5-2.061-.611-2.172-.069-.069-.22-.061-.528.026-.288.082-.921.121-1.911.119-1.552-.004-2.323-.094-2.909-.34-.193-.081-.48-.064-.655-.198.186-.02.192-.069.455-.36z"
    style="stroke:none;fill:#ede680"
  />
  <path
    d="M85.688 127.613c.483-.687.784-1.86.478-1.86-.105 0-.567.72-.73 1.137a4.44 4.44 0 0 0-.21.795c-.08.531.052.51.462-.072zm-1.732.87c.1-.261.056-.91-.095-1.396-.281-.908-.57-.933-.567-.05.002.94.467 1.955.662 1.446zm-1.434.805c.189-.072.18-.333-.015-.505-.382-.335-2.148-1.03-2.28-.897-.225.224 1.072 1.186 1.85 1.373.15.036.28.07.288.074a.553.553 0 0 0 .157-.045z"
    style="stroke:none;fill:#ffbb74"
  />
  <path
    d="M79.3 114.804c.613-.111 1.75-.412 2.557-.678l1.121-.367c1.29-.421 1.655-.586 1.933-.87.15-.153.296-.37.323-.48.074-.292-.17-.935-.422-1.115-.202-.144-.282-.146-1.07-.027-.47.07-.96.172-1.091.225-.13.053-.431.103-.668.112l-.43.015-.12-.42c-.169-.583-.51-.798-1.088-.683-.26.053-.497.172-.628.316-.21.233-.22.511-.045 1.247.048.203.042.205-1.639.786-.3.104-.614.245-.695.313-.29.242-.154 1.21.24 1.701.108.135.698.11 1.721-.075zm-2.655.841c.122-.155.186-.368.186-.618 0-.33-.047-.424-.356-.703-.197-.178-.449-.341-.561-.364-.588-.12-.77-.158-1.057-.22-.582-.126-.996.166-1.24.876-.154.445-.139.51.218.906l.325.36h1.15c1.135 0 1.152-.003 1.335-.237zm.007 3.409c.585-.197.827-.357.984-.654.098-.184.093-.261-.038-.503-.237-.44-.75-.681-1.558-.73-1.506-.09-1.83.117-1.632 1.044.062.292.19.66.286.817l.174.286.645-.047a5.622 5.622 0 0 0 1.14-.213zm10.813 2.098c.265-.148.428-.337.619-.719l.259-.519-.162-.357c-.235-.523-.6-.714-1.363-.714-.553 0-.67.031-.995.266-.6.435-.59 1.05.029 1.784.429.51 1.001.601 1.613.26zm-2.826 1.46c.288-.405.278-.466-.419-2.59-.168-.511-.282-1.003-.253-1.093.031-.1.293-.255.674-.401 1.061-.406 1.282-.895.896-1.992a3.912 3.912 0 0 0-1.026-1.577c-.519-.494-.584-.501-2.16-.242-.346.057-.718.16-.828.23a.898.898 0 0 1-.403.127c-.314 0-1.271.486-1.636.83-.527.497-.56.796-.201 1.84.302.878.749 1.635 1.024 1.733.08.029.35.021.6-.016.25-.037.597-.06.768-.049.317.02.376.085.611.687l.323.808c.13.32.235.637.235.703 0 .066.119.378.264.692.224.483.31.584.561.65.387.103.743-.022.97-.34zm-3.32.279c.51-.364.7-1.331.363-1.844-.385-.583-1.03-.665-1.632-.206-.415.317-.505.517-.514 1.143-.007.477.128.753.487.996.314.211.934.168 1.295-.09zm-3.726 1.247c.13-.05.395-.218.59-.375.278-.223.394-.407.526-.837.185-.597.407-2.141.382-2.647-.027-.537-.544-.797-.978-.493-.199.14-1.115 1.242-1.395 1.68a7.764 7.764 0 0 1-.56.698c-.423.476-.521.874-.289 1.17.21.267 1.17.864 1.428.887.033.004.167-.034.296-.083z"
    style="stroke:none;fill:#fff"
  />
  <path
    d="M81.434 117.715c-.56-.245-.636-.776-.17-1.185.302-.266 1.06-.471 1.722-.468.31.001.395.055.6.377.34.534.087 1.092-.54 1.194-.185.03-.43.093-.543.139-.285.116-.727.093-1.069-.057z"
    style="stroke:none;fill:#82b7ff"
  />
</svg>
