<svg xmlns="http://www.w3.org/2000/svg" viewBox="0 0 100 148">
  <path
    d="M76.872 141.426c.31-.098.855-.324 1.21-.501.355-.178.7-.323.768-.323.067 0 .223.228.346.508.124.279.27.507.326.507.056 0 .344-.281.64-.625.677-.784.871-.774 1.207.061.25.62.25.62.72.6.623-.028 1.394-.486 2.19-1.3.744-.762.942-.826.838-.27l-.072.383.974.352c2.248.813 4.154.629 5.474-.53.502-.44.901-1.161.686-1.237-.082-.029-.28-.166-.442-.305-.334-.288-.29-.626.084-.626.244 0 1.127-.408 1.127-.52 0-.036-.101-.194-.225-.352-.436-.554-.323-.694.592-.73l.818-.034-.023-.322c-.053-.744-1.384-2.126-2.565-2.664-.642-.293-.718-.63-.12-.533.348.056.428.02.673-.302.154-.2.357-.552.453-.78l.173-.415-.432-.273c-1.073-.677-3.038-.96-4.033-.58-.63.24-.871.17-.772-.222.074-.298-.103-.621-.342-.621-.074 0-.248.317-.386.705a9.475 9.475 0 0 1-.398.97c-.121.221-.116.348.033.762.176.488.186.496.697.496 1.176 0 2.196.541 2.873 1.523.338.49.399.661.337.943-.102.463-.749 1.012-1.295 1.1l-.438.07.06.807c.053.684.031.833-.138.974-.265.22-1 .182-1.62-.083l-.493-.21-.537.562-.537.562-.492-.144c-.355-.105-.694-.35-1.21-.875-.395-.401-.727-.714-.738-.695-.358.617-.786 1.077-1.247 1.342-.862.494-1.143.448-1.943-.32-.372-.357-.783-.79-.913-.963l-.235-.315-.601.455c-.702.533-1.472.817-2.271.837l-.571.014-.156-.507c-.215-.703-.133-2.093.158-2.68l.226-.457-.414-.066a1.577 1.577 0 0 1-.701-.333c-.39-.36-1.024-.46-1.262-.198-.224.247-.226.35-.01.35.094 0 .17-.052.17-.114 0-.062.089-.112.198-.112.173 0 .2.139.225 1.147.024.998-.007 1.22-.236 1.72-.388.844-.79 1.256-1.624 1.667-.642.316-.866.367-1.6.368-.672 0-.958-.053-1.335-.253-.263-.14-.48-.304-.48-.365 0-.06-.042-.11-.094-.11-.135 0-.356.796-.356 1.282 0 .372.028.41.31.409.17-.001.59-.077.93-.168.342-.092.741-.167.888-.168.287-.002.282-.07.067 1.042l-.081.423h.91c.975 0 3.32-.525 3.78-.847.132-.092.356-.168.497-.168.293 0 .32.165.136.828-.185.666-.088.79.546.701a8.14 8.14 0 0 0 1.098-.254z"
    style="stroke:none;fill:#58371b"
  />
  <path
    d="M81.323 138.235c.442-.225.723-.546 1.065-1.215.173-.339.173-.387.003-.647-.101-.154-.302-.571-.447-.927-.261-.644-.264-.646-.913-.793-.562-.128-.765-.123-1.478.036-.455.1-.932.156-1.06.123-.214-.056-.226-.027-.155.354.195 1.041.904 2.182 1.832 2.946.495.408.578.417 1.153.123zm-10.135.14c1.019-.452 1.728-1.337 1.863-2.322.06-.44.029-.59-.195-.915-.146-.215-.369-.417-.494-.451-.47-.126-1.26-.052-1.734.163l-.49.222.293.348c.38.453.387.94.015 1.185-.427.28-1.133.337-1.466.119-.27-.177-.288-.173-.466.097-.328.502.05 1.49.674 1.76.358.154 1.44.043 2-.205z"
    style="stroke:none;fill:#762515"
  />
  <path
    d="M85.561 135.024c.336-.574.57-1.77.46-2.355l-.074-.398-.514.55a7.525 7.525 0 0 1-1.18.978c-.367.236-.667.482-.667.547-.002.174.8.924 1.127 1.053.463.184.541.149.848-.375zm-17.494 1.562c.1-.099.256-.327.35-.507.208-.404.464-.421.636-.043.168.368.576.47.938.232.377-.246.355-.368-.113-.645-.43-.254-.515-.581-.198-.766.172-.1.16-.115-.09-.118-.44-.005-1.359-.51-1.857-1.02l-.446-.457.28-.53c.154-.29.553-.802.886-1.135l.606-.607-.223-.299c-.183-.246-.327-.305-.812-.333-.568-.033-1.631.226-1.757.43-.127.206.205.676.478.676.199 0 .262.053.234.197-.03.163-.169.2-.772.21-.723.014-1.455.286-2.075.774-.262.205-.302.163.669.712.869.492 1.072.842.6 1.033-.37.15-1.336.918-1.533 1.22-.162.247-.148.262.487.543 1.334.59 3.323.822 3.712.433zm20.084.606c-.001-.355-.055-.698-.12-.762-.098-.099-1.316-.472-1.358-.416-.008.01-.048.302-.09.649-.087.712-.02.813.695 1.072.754.273.876.197.873-.543zm-12.843.142c.088.54.075.627.976.393.695-.181 1.34-.544 1.745-.984l.255-.275-.226-.658c-.125-.362-.227-.795-.227-.962 0-.676-.915-.99-1.58-.541-.43.291-1.001 1.222-1.023 1.67l-.014.282"
    style="stroke:none;fill:#767739"
  />
  <path
    d="M71.4 134.197c.67-.108 1.468-.539 1.464-.79-.007-.378-.29-.577-.974-.687-.907-.146-1.387-.36-1.952-.871-.458-.414-.481-.422-.774-.25-.166.097-.546.494-.844.881l-.542.705.234.249c.264.281 1.118.732 1.633.862.34.086.758.062 1.756-.099zm17.95 1.41c.527-.355.548-.712.078-1.328-.498-.653-1.278-1.045-2.194-1.104-.394-.025-.719-.027-.722-.005l-.07.545a5.558 5.558 0 0 1-.222.95c-.09.255-.115.491-.06.547.054.054.398.222.764.372.903.371 1.892.38 2.426.022zm-5.68 1.88c.08.036.184.17.345.31.22.193.553.415.742.495.413.173.622.062 1.041-.555.328-.483.53-1.424.387-1.802-.127-.335-.4-.446-.575-.234-.344.414-1.208.101-2.087-.754-.546-.53-.585-.549-.931-.428-.256.09-.36.196-.36.369.002.314.568 1.428 1.009 1.984.213.27.346.447.353.511M67 138.808c.314-.095.448-.23.65-.657.417-.882.407-.894-.848-.973-.605-.039-1.259-.101-1.453-.139-.337-.066-.366-.042-.64.539-.159.334-.304.756-.324.938-.031.286.01.341.302.412.437.105 1.804.034 2.313-.12z"
    style="stroke:none;fill:#26362a"
  />
  <path
    d="M80.426 133.985c1.626-.605 2.397-1.779 2.394-3.645 0-.525.047-1.083.107-1.24.087-.231.08-.26-.035-.146-.332.329-.404.152-.392-.96.01-.887-.04-1.261-.265-1.943-.253-.769-.284-.814-.347-.508-.129.625-.495 1.07-.88 1.07-.066 0-.09-.369-.059-.93.05-.887.044-.914-.114-.574-.188.407-.6.682-.768.513-.07-.07-.061-.285.024-.602.392-1.458-.567-4.31-2-5.949l-.43-.49.039 1.376c.02.756-.02 1.713-.092 2.126-.138.796-.608 1.75-.83 1.682-.248-.077-.52-.822-.595-1.632l-.075-.81-.442.53c-.243.291-.702 1.048-1.019 1.682-.652 1.305-.779 2.022-.536 3.035.08.334.117.638.08.674-.158.159-.578-.128-.876-.599-.317-.5-.326-.504-.397-.22-.078.31-.012 1.288.12 1.795.068.262.046.31-.143.31-.166 0-.304-.18-.536-.704l-.312-.705-.152.564c-.198.738-.193 1.746.014 2.625.167.707.633 1.756.836 1.881.06.037.238.351.397.698.248.542.324.623.535.568.179-.047.368.045.692.338.408.369.488.397.94.335.273-.037.644-.145.826-.239.52-.268 1.28-.221 1.665.102.505.425 1.47.422 2.626-.008z"
    style="stroke:none;fill:#ffff72"
  />
  <path
    d="M82.626 134.092c2.134-.656 3.652-2.64 4.198-5.488.144-.752.152-1.059.048-1.683-.153-.907-.166-1.773-.032-2.134a6.07 6.07 0 0 0 .167-.557c.068-.278.047-.27-.365.141-.445.446-.842.562-.95.278-.034-.087.037-.248.158-.357.189-.171.555-1.12.555-1.438 0-.06-.166.102-.37.358-.203.257-.482.547-.62.643-.448.314-.667-.08-.253-.455.362-.328.704-1.385.713-2.202.01-.977-.244-2.53-.512-3.138-.12-.27-.477-.777-.794-1.127-.317-.35-.532-.537-.476-.414.192.428.19 1.635-.004 2.508-.245 1.103-.376 1.381-.649 1.381-.177 0-.204-.05-.14-.254.045-.14.107-.562.138-.938.11-1.304-.402-2.624-2.029-5.238-1.64-2.636-2.224-4.25-2.224-6.146 0-1.099.187-1.933.584-2.606l.236-.4-.777.543c-1.698 1.186-2.882 2.84-2.882 4.024 0 .437-.035.523-.212.523-.461 0-.596-1.99-.19-2.803l.176-.353-.445.366c-.579.474-1.29 1.532-1.525 2.266-.14.437-.207 1.28-.27 3.401-.09 3.056-.16 3.45-.788 4.54-.408.707-.726.793-.834.226-.084-.44-.553-1.471-.83-1.823-.195-.248-.198-.235-.158.57a8.817 8.817 0 0 1-.088 1.589c-.175 1.032-1.294 4.413-1.783 5.387-.849 1.688-1.185 2.743-1.24 3.895-.045.902-.015 1.172.186 1.704.315.834.754 1.481 1.553 2.29.674.683 1.234 1.005 1.99 1.144l.433.08-.356-.706c-.395-.782-.672-1.91-.675-2.747-.004-1.013.622-2.855.935-2.75.077.027.14.281.148.6.007.305.096.732.198.949l.185.395-.057-.423a49.426 49.426 0 0 0-.121-.83c-.064-.405.134-1.47.31-1.675.051-.06.092.025.092.191 0 .164-.05.33-.113.368-.062.038-.107.155-.1.26.012.172.019.172.065-.006.028-.108.123-.197.21-.197.115 0 .143-.1.102-.367-.05-.32-.042-.334.059-.113.063.14.16.368.213.508.078.203.114.108.183-.473.123-1.052.415-1.801 1.136-2.915.76-1.174 1.363-1.83 1.685-1.83.219 0 .232.052.193.711-.024.392.019.937.095 1.213l.14.502.154-.37c.085-.203.214-.87.286-1.481.148-1.268.01-2.71-.293-3.045-.228-.252-.23-.463-.004-.463.314 0 .786.312 1.272.838 1.113 1.208 1.894 2.839 2.243 4.687.13.685.224.963.287.85.053-.094.146-.17.208-.17.167 0 .438.718.456 1.21l.016.426.069-.451c.181-1.194 1.14.183 1.4 2.01.14.985.144.993.353.762.25-.276.628-.31.628-.057 0 .098-.139.414-.308.704-.275.468-.316.675-.376 1.881-.057 1.16-.11 1.449-.373 1.998-.357.747-1.434 1.806-1.807 1.777-.434-.034-.647.005-.585.106.088.142 1.483.026 2.152-.18z"
    style="stroke:none;fill:#ff6845"
  />
  <path
    d="M56.699 137.738c-.237-.088-.52-.242-.63-.34-.109-.1-.357-.18-.55-.18-.195 0-.482-.06-.64-.131-.238-.109-.288-.209-.288-.579v-.448l.556.074.556.074.367-.689c.795-1.49 2.004-2.337 3.724-2.604.811-.126.913-.116 1.807.162 1.64.512 1.772.87.844 2.304-.626.968-1.379 1.526-1.986 1.475-.381-.032-.396-.05-.396-.483 0-.521-.266-.66-.63-.33-.217.195-.217.2.026.46.208.22.227.304.12.54-.29.634-1.963 1.038-2.88.695z"
    style="stroke:none;fill:#659051"
  />
</svg>
