<?xml version="1.0" encoding="UTF-8" standalone="no"?>
<!-- Created with Inkscape (http://www.inkscape.org/) -->

<svg
   xmlns:dc="http://purl.org/dc/elements/1.1/"
   xmlns:cc="http://creativecommons.org/ns#"
   xmlns:rdf="http://www.w3.org/1999/02/22-rdf-syntax-ns#"
   xmlns:svg="http://www.w3.org/2000/svg"
   xmlns="http://www.w3.org/2000/svg"
   xmlns:sodipodi="http://sodipodi.sourceforge.net/DTD/sodipodi-0.dtd"
   xmlns:inkscape="http://www.inkscape.org/namespaces/inkscape"
   viewBox="0 0 100 100"
   version="1.1"
   id="svg8"
   width="100%"
   height="100%"
   inkscape:version="0.92.1 r15371"
   sodipodi:docname="icons.svg">
  <defs
     id="defs2">
    <pattern
       y="0"
       x="0"
       height="6"
       width="6"
       patternUnits="userSpaceOnUse"
       id="EMFhbasepattern" />
    <pattern
       y="0"
       x="0"
       height="6"
       width="6"
       patternUnits="userSpaceOnUse"
       id="EMFhbasepattern-4" />
  </defs>
  <sodipodi:namedview
     id="base"
     pagecolor="#ffffff"
     bordercolor="#666666"
     borderopacity="1.0"
     inkscape:pageopacity="0"
     inkscape:pageshadow="2"
     inkscape:zoom="0.78488853"
     inkscape:cx="50"
     inkscape:cy="50"
     inkscape:document-units="mm"
     inkscape:current-layer="layer1"
     showgrid="false"
     inkscape:pagecheckerboard="true"
     inkscape:window-width="1853"
     inkscape:window-height="1057"
     inkscape:window-x="-8"
     inkscape:window-y="-8"
     inkscape:window-maximized="1" />
  <metadata
     id="metadata5">
    <rdf:RDF>
      <cc:Work
         rdf:about="">
        <dc:format>image/svg+xml</dc:format>
        <dc:type
           rdf:resource="http://purl.org/dc/dcmitype/StillImage" />
        <dc:title></dc:title>
      </cc:Work>
    </rdf:RDF>
  </metadata>
  <g
     inkscape:label="Layer 1"
     inkscape:groupmode="layer"
     id="layer1">
    <g
       id="g5830"
       transform="translate(-108.64549,-326.55925)">
      <rect
         y="126.55923"
         x="-141.35451"
         height="100"
         width="100"
         id="rect4580"
         style="opacity:1;fill:#000000;fill-opacity:0.25823047;stroke:none;stroke-width:0.51077282;stroke-linecap:butt;stroke-linejoin:miter;stroke-miterlimit:4;stroke-dasharray:none;stroke-dashoffset:0;stroke-opacity:1;paint-order:normal" />
      <path
         inkscape:connector-curvature="0"
         id="path4485"
         d="m -93.88335,172.67736 c -0.47498,-0.66134 -1.88887,-2.6201 -3.14198,-4.35286 -1.25311,-1.73272 -3.3591,-4.6491 -4.67996,-6.48083 -1.32087,-1.83177 -3.41997,-4.73907 -4.66466,-6.46075 -1.24469,-1.72169 -2.30016,-3.20009 -2.34549,-3.28542 -0.10277,-0.19332 0.15802,-2.11505 0.4846,-3.57122 1.45093,-6.46924 4.63545,-11.86713 8.82491,-14.95863 0.82884,-0.61161 1.50315,-1.02287 1.67709,-1.02287 0.0657,0 1.49622,1.37718 3.1789,3.06039 1.68267,1.68322 3.12061,3.06039 3.19542,3.06039 0.0748,0 1.51275,-1.37717 3.19543,-3.06039 1.68267,-1.68321 3.11703,-3.06039 3.18746,-3.06039 0.22186,0 2.08885,1.30631 2.93335,2.05245 2.85968,2.52658 5.25723,6.38206 6.75602,10.86422 0.57054,1.70628 1.15494,4.35028 1.34293,6.07585 l 0.0539,0.49505 -7.83751,10.84646 c -4.31063,5.96553 -7.87663,10.85991 -7.92445,10.87643 -0.0547,0.0163 -0.0867,-1.01551 -0.0863,-2.79039 l 7.1e-4,-2.82037 0.31058,-0.21128 c 0.71488,-0.4868 1.1592,-1.37551 1.15434,-2.30883 -0.006,-1.1128 -0.56574,-2.17285 -1.43769,-2.72185 -0.62116,-0.39112 -1.03209,-0.49744 -1.7687,-0.45767 -1.15263,0.062 -2.17675,0.72903 -2.67506,1.74167 -0.18686,0.37972 -0.22033,0.57754 -0.22033,1.30282 0,0.76403 0.0271,0.90785 0.25631,1.3502 0.14098,0.27234 0.45548,0.69947 0.69891,0.94925 l 0.44259,0.45424 -0.0238,2.81845 -0.0238,2.81848 -0.86362,-1.20241 z m 30.2075,13.63512 c -1.73273,-0.56912 -5.19594,-1.70366 -7.69602,-2.52119 -10.07272,-3.29371 -14.45108,-4.73462 -14.53183,-4.78233 -0.0467,-0.0261 1.12367,-0.4448 2.60082,-0.92712 l 2.68574,-0.87699 0.36957,0.23349 c 2.07601,1.3113 4.65071,-0.16165 4.68174,-2.6779 0.007,-0.55396 -0.0341,-0.76387 -0.22793,-1.17014 -0.35042,-0.73422 -0.81141,-1.21079 -1.49826,-1.5489 -0.53791,-0.26484 -0.68348,-0.29651 -1.36891,-0.29651 -0.67222,0 -0.83225,0.033 -1.29514,0.26744 -0.63669,0.32264 -1.25479,0.99619 -1.48882,1.62245 l -0.16811,0.44983 -0.79772,0.25275 c -0.43874,0.13911 -1.6382,0.53009 -2.66546,0.86905 -1.02726,0.33897 -1.86775,0.58486 -1.86775,0.54636 0,-0.0385 0.21634,-0.36868 0.48079,-0.7338 0.26441,-0.36515 2.70124,-3.74229 5.41513,-7.50481 4.05233,-5.61808 7.55096,-10.46383 9.46864,-13.11449 0.16824,-0.23251 0.3749,-0.44255 0.45923,-0.46662 1.85384,-0.52973 6.53843,-0.83996 9.08208,-0.60141 3.1294,0.29357 5.7936,1.01281 8.35354,2.25544 1.79797,0.87274 4.25544,2.58222 4.27038,2.97062 0.003,0.0741 -0.86568,1.86203 -1.93007,3.97323 -1.0644,2.11117 -1.93526,3.89934 -1.93526,3.97369 0,0.0875 1.3577,0.83108 3.83845,2.10258 2.11113,1.08203 3.89337,1.98048 3.96053,1.99648 0.0671,0.0163 0.12206,0.13389 0.12206,0.26255 0,0.12834 -0.0268,0.20671 -0.0597,0.17373 -0.0328,-0.033 -0.15511,0.30859 -0.27169,0.75848 -1.18564,4.57707 -4.64279,9.17732 -9.41975,12.53438 -1.54065,1.08272 -4.51286,2.76567 -5.23579,2.96471 -0.10388,0.0294 -1.51265,-0.38818 -3.33044,-0.98525 z m -59.85793,0.41162 c -3.1089,-1.57281 -5.34762,-3.19702 -7.78988,-5.65152 -2.16377,-2.17468 -3.42557,-3.91684 -4.58241,-6.32697 -0.54036,-1.12579 -1.12337,-2.73919 -1.22939,-3.40215 -0.032,-0.20018 -0.0935,-0.36356 -0.13663,-0.36356 -0.0432,0 -0.0785,-0.081 -0.0785,-0.17993 0,-0.099 0.0396,-0.17993 0.0881,-0.17993 0.0484,0 1.83067,-0.89492 3.96053,-1.98864 2.70627,-1.38978 3.87379,-2.03354 3.87687,-2.13781 0.002,-0.082 -0.87857,-1.90283 -1.95777,-4.04619 l -1.96215,-3.89705 0.40506,-0.36636 c 2.65023,-2.39693 6.38216,-3.99064 11.07146,-4.72806 1.4631,-0.23022 6.01592,-0.2312 7.65101,-0.002 1.92621,0.27006 2.63743,0.42955 2.84582,0.63828 0.10476,0.10482 2.77457,3.77547 5.93292,8.15683 4.95743,6.87705 7.01047,9.72126 9.28469,12.86263 0.2652,0.36633 0.47014,0.67802 0.45544,0.69275 -0.0147,0.0163 -1.23012,-0.36603 -2.70093,-0.84606 l -2.6742,-0.87275 -0.0995,-0.31512 c -0.28139,-0.89126 -1.10636,-1.67414 -2.05455,-1.94979 -1.46197,-0.425 -3.16807,0.42403 -3.703,1.84284 -0.24848,0.65902 -0.21242,1.81501 0.077,2.46704 0.25066,0.56474 0.8502,1.2012 1.40883,1.49555 0.39965,0.2103 0.55678,0.23904 1.31959,0.23936 0.81488,3.6e-4 0.9025,-0.0163 1.48681,-0.31806 l 0.62089,-0.31839 2.63124,0.85315 c 1.44718,0.46926 2.63075,0.87588 2.63016,0.90364 -7e-4,0.0346 -21.76975,7.18119 -25.42729,8.34748 -0.0495,0.0163 -0.65709,-0.2583 -1.35018,-0.60886 z m 50.93872,33.77534 c 0.0261,-0.0425 -0.25706,-0.10287 -0.62943,-0.13422 -2.65366,-0.22434 -6.30555,-1.51579 -9.28816,-3.28463 -2.15375,-1.27731 -3.88112,-2.62369 -5.8499,-4.55962 l -1.37361,-1.35073 0.001,-13.48676 c 7.1e-4,-8.61453 0.0323,-13.47593 0.0877,-13.45676 0.0477,0.0163 0.81381,1.03099 1.70242,2.25442 l 1.61567,2.22445 -0.13386,0.43089 c -0.191,0.61493 -0.11707,1.48313 0.17546,2.0594 0.3097,0.61013 1.10371,1.32519 1.73292,1.56057 0.60982,0.22826 1.54342,0.24622 2.14377,0.0418 0.61834,-0.21063 1.34475,-0.91376 1.69622,-1.64175 0.24994,-0.51765 0.28975,-0.69703 0.29304,-1.32074 0.004,-0.63845 -0.0304,-0.79117 -0.29249,-1.32388 -0.48457,-0.98475 -1.45244,-1.65739 -2.52472,-1.7546 l -0.51518,-0.047 -1.63304,-2.26138 c -0.89816,-1.24374 -1.62123,-2.27314 -1.60681,-2.28757 0.0144,-0.0163 2.45181,0.76796 5.41642,1.73857 2.96462,0.97068 7.55725,2.47347 10.20585,3.33959 9.12527,2.98404 9.7668,3.20064 9.91899,3.34896 0.25595,0.24949 1.3834,2.56201 1.9532,4.00629 0.90048,2.2825 1.44572,4.30788 1.83269,6.80781 0.25909,1.67365 0.27953,5.13733 0.0393,6.65335 -0.20096,1.26814 -0.58965,2.78984 -0.95869,3.75317 -0.46173,1.20534 0.12795,1.15995 -4.82955,0.37152 -3.33373,-0.53022 -4.33418,-0.6612 -4.41514,-0.57803 -0.0576,0.0591 -0.39383,1.97072 -0.74726,4.24803 -0.35342,2.27728 -0.68012,4.23167 -0.726,4.34306 -0.0694,0.16882 -0.15544,0.20377 -0.51291,0.20899 -0.3228,0.003 -0.38476,0.0261 -0.24945,0.0836 0.11155,0.0477 -0.34433,0.0797 -1.19797,0.0836 -0.7579,0.003 -1.35658,-0.0261 -1.33039,-0.0709 z m -40.27231,-0.0131 c 0.10274,-0.0663 0.0663,-0.0875 -0.1522,-0.0888 -0.15796,-7.2e-4 -0.31274,-0.0428 -0.3439,-0.0931 -0.031,-0.0506 -0.35902,-2.00477 -0.72855,-4.34299 -0.36953,-2.33822 -0.72109,-4.29959 -0.78125,-4.35863 -0.0848,-0.0833 -1.04849,0.0428 -4.29493,0.56082 -2.30205,0.3675 -4.25266,0.66894 -4.33467,0.66986 -0.28812,0.003 -1.0281,-2.07786 -1.37986,-3.8806 -0.87529,-4.48589 -0.19498,-9.86137 1.88388,-14.88523 0.45413,-1.09751 1.55531,-3.29554 1.74318,-3.47952 0.0837,-0.082 3.08885,-1.10806 6.67808,-2.28012 10.50087,-3.42907 16.06301,-5.24738 17.50116,-5.72134 0.73921,-0.24361 1.35587,-0.43105 1.37037,-0.41658 0.0147,0.0163 -0.70292,1.03667 -1.59427,2.27147 l -1.62062,2.24511 -0.55538,0.0643 c -0.6962,0.0803 -1.57734,0.50456 -1.96522,0.94636 -0.16014,0.18254 -0.3965,0.55621 -0.52527,0.83075 -0.2039,0.43474 -0.23388,0.61538 -0.23221,1.39928 0.002,1.04457 0.17141,1.50233 0.78018,2.11109 0.82071,0.82076 2.25302,1.13507 3.32667,0.73001 1.1054,-0.41697 1.84557,-1.45446 1.93738,-2.71558 0.0339,-0.46475 0.008,-0.7799 -0.0842,-1.04454 -0.073,-0.20834 -0.10623,-0.39072 -0.0739,-0.40506 0.0323,-0.0163 0.74224,-0.97796 1.57758,-2.14137 0.83535,-1.16338 1.57322,-2.17458 1.6397,-2.24708 0.1012,-0.11037 0.12112,2.07139 0.12226,13.41176 l 0.001,13.54362 -1.60024,1.5752 c -2.7324,2.68962 -5.24246,4.44412 -8.34012,5.82959 -2.00236,0.89557 -4.58431,1.63253 -6.26777,1.78902 -0.39573,0.0366 -0.59374,0.0882 -0.52033,0.13454 0.0658,0.0418 -0.6424,0.0751 -1.59171,0.0751 -1.13698,0 -1.66497,-0.0294 -1.57521,-0.0872 z"
         style="fill:#fd8a7f;fill-opacity:1;stroke:none;stroke-width:3.26552939px;stroke-linecap:butt;stroke-linejoin:miter;stroke-opacity:1" />
      <path
         inkscape:connector-curvature="0"
         id="path4485-2"
         d="m -92.04017,168.37936 c -0.51099,-0.1316 -1.10288,-0.46781 -1.38083,-0.78438 -0.51467,-0.58616 -0.7506,-1.17784 -0.79565,-1.9953 -0.0383,-0.69582 -0.0225,-0.78242 0.2437,-1.32293 0.92214,-1.87311 3.2973,-2.25488 4.70682,-0.75656 1.13233,1.20371 1.09695,3.08929 -0.0774,4.12296 -0.68153,0.59991 -1.91665,0.93711 -2.69666,0.73621 z m 12.25219,9.09176 c -0.64793,-0.3112 -1.22171,-0.88228 -1.50294,-1.49561 -0.30781,-0.67123 -0.28488,-1.70941 0.0527,-2.3853 0.91269,-1.82756 3.06287,-2.2702 4.54678,-0.93604 0.65549,0.58937 0.95402,1.24842 0.95402,2.10617 0,0.57026 -0.0435,0.766 -0.28022,1.2602 -0.54885,1.14597 -1.38884,1.70784 -2.55516,1.70925 -0.56013,7.1e-4 -0.76705,-0.0431 -1.21516,-0.25863 z m -25.30204,0.10058 c -0.66275,-0.23675 -1.13278,-0.64984 -1.47908,-1.29952 -0.2537,-0.47591 -0.30824,-0.68386 -0.34051,-1.29873 -0.0281,-0.53195 0.003,-0.8572 0.11364,-1.18996 0.2025,-0.60967 0.8245,-1.28877 1.47135,-1.60638 0.43996,-0.21618 0.62262,-0.2521 1.2784,-0.2521 0.65512,0 0.83862,0.0363 1.27652,0.25112 0.60447,0.29684 1.00508,0.72475 1.32003,1.40999 0.30902,0.67225 0.32944,1.81802 0.0436,2.44543 -0.26944,0.59142 -0.77637,1.11478 -1.35305,1.39696 -0.65708,0.32133 -1.65982,0.38305 -2.33092,0.14336 z m 4.90342,15.0411 c -0.67357,-0.22467 -1.25194,-0.72407 -1.58548,-1.36836 -0.25886,-0.50008 -0.29386,-0.65206 -0.29386,-1.27653 0,-0.87859 0.22437,-1.52624 0.7263,-2.09647 1.31008,-1.48833 3.7865,-1.12517 4.74675,0.69608 0.21111,0.40046 0.24243,0.56429 0.24256,1.26987 1.8e-4,0.70526 -0.0323,0.87653 -0.2519,1.32342 -0.30749,0.62617 -0.99072,1.26308 -1.56474,1.45865 -0.52549,0.17928 -1.47268,0.17568 -2.01962,-0.007 z m 16.2789,0.14531 c -1.32926,-0.21911 -2.3724,-1.29677 -2.47338,-2.55482 -0.0604,-0.75198 0.14561,-1.42308 0.6449,-2.10133 1.06425,-1.44569 3.15238,-1.55854 4.37124,-0.2361 0.57783,0.62688 0.76611,1.11449 0.76132,1.97176 -0.003,0.59432 -0.0469,0.80903 -0.24952,1.2296 -0.59548,1.23594 -1.79331,1.89904 -3.05456,1.69102 z"
         style="fill:#fff827;fill-opacity:1;stroke:none;stroke-width:3.26552939px;stroke-linecap:butt;stroke-linejoin:miter;stroke-opacity:1" />
    </g>
    <g
       id="g4645"
       transform="translate(-230.25546,-261.85353)">
      <rect
         y="161.85352"
         x="-19.744539"
         height="100"
         width="100"
         id="rect4580-1"
         style="opacity:1;fill:#000000;fill-opacity:0.25823047;stroke:none;stroke-width:0.51077282;stroke-linecap:butt;stroke-linejoin:miter;stroke-miterlimit:4;stroke-dasharray:none;stroke-dashoffset:0;stroke-opacity:1;paint-order:normal" />
      <path
         sodipodi:nodetypes="cccsccccccccccccccccccccccccccsccccc"
         inkscape:connector-curvature="0"
         id="path4485-2-9"
         d="m 19.179383,224.76726 h -3.5e-4 c -3.22855,-1.66754 -3.64807,-1.92566 -6.06483,-3.73159 -2.21803,-1.65746 -7.01455,-6.58858 -8.29263,-8.52535 -3.25648,-4.93478 -4.935595,-11.01767 -5.51458,-15.1691 -0.102085,-1.54974 -0.178255,-1.69212 -0.33336,-4.33336 0.11444,-1.91124 0.79989,-5.69895 1.15517,-6.38322 0.24534,-0.47255 0.58446,-1.28658 0.7536,-1.80899 0.16914,-0.52238 0.59871,-1.32379 0.95461,-1.78092 0.35589,-0.45708 0.71712,-1.0562 0.80273,-1.33134 0.18437,-0.59255 2.71298,-3.24969 4.06322,-4.26974 3.59582,-2.71646 9.64151,-5.21287 15.79075,-6.52041 1.1101,-0.23603 2.98006,-0.64289 4.15546,-0.90408 8.054972,-1.79002 10.491812,-2.16822 13.982462,-2.17013 3.70823,-0.002 8.22562,0.85124 10.47539,1.97864 0.5224,0.26169 1.18245,0.5912 1.46677,0.73205 1.89252,0.93755 5.54974,5.32626 6.54545,7.85463 1.54437,3.92163 2.04113,5.67517 2.30699,8.14377 0.03334,2.98206 0.155723,5.96556 0.09385,8.47809 -0.33724,4.32227 -0.66511,6.12714 -1.65751,9.12437 -1.11282,3.36096 -3.64372,8.7567 -4.69139,10.00177 -0.34144,0.40577 -0.62525,0.86314 -0.63069,1.01637 -0.006,0.15321 -0.38047,0.69832 -0.8334,1.21128 l -0.8235,0.93268 -0.66369,-0.63587 c -0.36504,-0.3497 -0.76471,-0.63526 -0.88816,-0.63458 -0.12347,7.2e-4 -1.02587,-0.30532 -2.00537,-0.67979 -0.97951,-0.37458 -2.29001,-0.80258 -2.91223,-0.9511 -1.57747,-0.3765 -4.51594,-0.33078 -6.34851,0.0987 -2.43795,0.57147 -6.11716,2.0034 -7.38048,2.87242 -0.63605,0.43752 -1.2071,0.79551 -1.269,0.79551 -0.0619,0 -0.62546,0.34107 -1.25236,0.75801 -1.90401,1.26621 -4.374572,3.4057 -6.109262,5.29051 -0.90474,0.98311 -1.50445,1.55582 -2.02796,1.71167 -0.88679,-0.17887 -1.51967,-0.4852 -2.84718,-1.17085 z"
         style="fill:#82b7ff;fill-opacity:1;stroke:none;stroke-width:2.64604735px;stroke-linecap:butt;stroke-linejoin:miter;stroke-opacity:1" />
      <path
         inkscape:connector-curvature="0"
         id="path4485-2-6"
         d="m 23.292613,225.3953 c 1.95697,-2.1678 3.43172,-3.59434 4.820942,-4.66334 5.22388,-4.01969 10.82355,-6.3412 15.31633,-6.34986 3.70213,-0.005 9.16967,2.04759 9.21265,3.46214 0.01,0.31962 -4.14007,4.28962 -5.24504,5.01754 -0.44119,0.29073 -1.86931,1.06933 -3.17361,1.73036 -1.30431,0.66104 -2.46059,1.29101 -2.56953,1.39992 -0.10894,0.10875 0.18414,1.66354 0.6513,3.4547 0.46715,1.79114 1.07007,4.34272 1.33981,5.67017 0.26976,1.32744 0.74374,3.32179 1.0533,4.43186 0.30958,1.11012 0.77764,3.08693 1.04016,4.39294 0.53938,2.68333 1.34527,6.12592 1.80658,7.71728 0.17038,0.58771 0.37911,1.50004 0.4639,2.02745 0.13865,0.86251 0.0815,1.02365 -0.56854,1.60282 -0.78822,0.70231 -0.82937,0.71036 -1.62716,0.31797 -0.29932,-0.14712 -0.60205,-0.53479 -0.67278,-0.86128 -0.20301,-0.93708 -1.06743,-4.095 -1.3,-4.7491 -0.11608,-0.3265 -0.38043,-1.5019 -0.58744,-2.61202 -0.207,-1.11007 -0.74901,-3.24718 -1.20445,-4.7491 -0.90118,-2.9718 -1.41231,-4.94507 -2.46027,-9.49817 -0.95419,-4.14564 -1.32271,-5.4561 -1.6172,-5.75058 -0.18141,-0.18125 -0.58333,-0.16141 -1.3957,0.0696 -0.76298,0.21671 -2.43872,0.32123 -5.05891,0.31538 -4.10579,-0.0106 -6.145272,-0.24793 -7.696162,-0.90007 -0.51079,-0.2146 -1.26784,-0.16856 -1.73396,-0.52419 0.49255,-0.0527 0.50959,-0.18099 1.20578,-0.95226 z"
         style="fill:#ede680;fill-opacity:1;stroke:none;stroke-width:2.64604735px;stroke-linecap:butt;stroke-linejoin:miter;stroke-opacity:1" />
      <path
         inkscape:connector-curvature="0"
         id="path4485-2-8"
         d="m 43.316095,221.67522 c 1.27917,-1.81847 2.07665,-4.92207 1.26474,-4.92207 -0.27629,0 -1.49919,1.9061 -1.93118,3.01006 -0.21343,0.54546 -0.4631,1.49208 -0.55482,2.10369 -0.21059,1.40436 0.13694,1.34977 1.22126,-0.19158 z m -4.58217,2.30087 c 0.26476,-0.68996 0.14831,-2.40584 -0.25066,-3.69322 -0.74442,-2.40208 -1.50689,-2.46908 -1.50139,-0.13178 0.006,2.48975 1.23485,5.173 1.75205,3.82518 z m -3.79329,2.1311 c 0.49818,-0.19131 0.47757,-0.87992 -0.04,-1.33475 -1.01044,-0.88809 -5.68417,-2.72693 -6.03622,-2.37488 -0.59312,0.59311 2.84017,3.13906 4.89786,3.63199 0.39755,0.0953 0.74079,0.18417 0.76276,0.1974 0.022,0.0132 0.20896,-0.0408 0.41554,-0.11987 z"
         style="fill:#ffbb74;fill-opacity:1;stroke:none;stroke-width:2.64604735px;stroke-linecap:butt;stroke-linejoin:miter;stroke-opacity:1" />
      <path
         inkscape:connector-curvature="0"
         id="path4485-2-1"
         d="m 26.411673,187.78179 c 1.625272,-0.29363 4.633082,-1.09068 6.767472,-1.79341 0.5877,-0.19369 1.92338,-0.63098 2.96818,-0.97221 3.411,-1.11402 4.37805,-1.54913 5.11241,-2.30027 0.39793,-0.40699 0.78326,-0.97806 0.85628,-1.26904 0.19454,-0.77508 -0.4482,-2.4754 -1.11584,-2.95172 -0.53568,-0.38222 -0.74621,-0.38754 -2.83448,-0.0717 -1.2407,0.18734 -2.53887,0.45552 -2.88481,0.59539 -0.34594,0.13997 -1.14141,0.27251 -1.76771,0.29493 l -1.13874,0.0405 -0.31881,-1.11018 c -0.44358,-1.54468 -1.34814,-2.11308 -2.8756,-1.80691 -0.68824,0.13813 -1.31606,0.45367 -1.66171,0.83565 -0.557412,0.61598 -0.584412,1.35174 -0.12108,3.29994 0.12738,0.53569 0.11317,0.54255 -4.334752,2.07977 -0.79726,0.27545 -1.62538,0.64764 -1.84027,0.82689 -0.76683,0.63957 -0.4063,3.20148 0.63348,4.50137 0.28659,0.35831 1.84967,0.29006 4.55599,-0.19871 z m -7.02215,2.22567 c 0.32251,-0.40998 0.49215,-0.97346 0.49215,-1.63455 0,-0.87465 -0.12559,-1.12234 -0.94384,-1.8616 -0.5191,-0.46898 -1.18694,-0.90235 -1.48409,-0.96302 -1.5546,-0.31766 -2.03613,-0.41782 -2.79608,-0.58229 -1.54007,-0.33333 -2.6356,0.44035 -3.28345,2.31883 -0.40651,1.17868 -0.36461,1.35184 0.58035,2.3978 l 0.85872,0.95051 h 3.04205 c 3.00354,0 3.04828,-0.005 3.53419,-0.62568 z m 0.0191,9.02024 c 1.54733,-0.52042 2.18779,-0.94572 2.60366,-1.72898 0.25929,-0.48835 0.24381,-0.69271 -0.10089,-1.33281 -0.62749,-1.16516 -1.98679,-1.80135 -4.12418,-1.93019 -3.98355,-0.24 -4.83957,0.30758 -4.31855,2.76258 0.16389,0.77238 0.50522,1.74501 0.75847,2.16148 l 0.46047,0.75716 1.70663,-0.12463 c 0.93865,-0.0685 2.29512,-0.32255 3.01439,-0.56456 z m 28.611552,5.55199 c 0.70018,-0.39098 1.13011,-0.89106 1.63578,-1.90261 l 0.68596,-1.37224 -0.42703,-0.947 c -0.62334,-1.38235 -1.59086,-1.88872 -3.60866,-1.88872 -1.46146,0 -1.77322,0.0833 -2.63121,0.70506 -1.5884,1.15066 -1.56255,2.77735 0.075,4.71947 1.1362,1.3476 2.64992,1.59078 4.27017,0.68604 z m -7.47933,3.86183 c 0.76271,-1.07112 0.73651,-1.23322 -1.10788,-6.85247 -0.44414,-1.35317 -0.74584,-2.65465 -0.67045,-2.89219 0.084,-0.26471 0.77474,-0.67553 1.78318,-1.06085 2.80874,-1.07329 3.39202,-2.36893 2.37243,-5.26984 -0.56789,-1.61578 -1.44661,-2.96606 -2.71649,-4.17435 -1.37244,-1.3059 -1.54517,-1.32522 -5.71639,-0.63937 -0.9142,0.1503 -1.89884,0.42411 -2.1881,0.60844 -0.28925,0.18416 -0.7701,0.33522 -1.06855,0.33533 -0.82993,2.9e-4 -3.362,1.28521 -4.327822,2.19619 -1.39372,1.31461 -1.48031,2.10716 -0.53192,4.8686 0.798,2.32357 1.981852,4.32689 2.710942,4.58745 0.20912,0.0746 0.92317,0.0548 1.58682,-0.0439 0.66365,-0.0987 1.57828,-0.15691 2.03253,-0.12886 0.83815,0.0516 0.99305,0.2257 1.61679,1.81778 0.12791,0.32649 0.5125,1.2882 0.85463,2.1371 0.34213,0.84891 0.62174,1.68646 0.62137,1.86123 -4.8e-4,0.17464 0.31435,0.99841 0.6994,1.8303 0.59181,1.27862 0.82133,1.54482 1.48409,1.72115 1.02344,0.2722 1.96507,-0.0587 2.56542,-0.90175 z m -8.78633,0.73808 c 1.35123,-0.96326 1.85612,-3.5213 0.96256,-4.87682 -1.01779,-1.54399 -2.72622,-1.75981 -4.31825,-0.54551 -1.0992,0.8384 -1.337702,1.36798 -1.361322,3.02277 -0.0183,1.26425 0.339272,1.99422 1.289932,2.63527 0.82931,0.55919 2.47037,0.44634 3.42708,-0.23576 z m -9.857292,3.30045 c 0.34191,-0.12993 1.04505,-0.57661 1.56255,-0.99246 0.73375,-0.58967 1.04002,-1.07702 1.39106,-2.21358 0.48799,-1.57992 1.07688,-5.66664 1.00949,-7.00562 -0.0715,-1.41965 -1.43753,-2.10768 -2.58668,-1.3028 -0.5263,0.36864 -2.95118,3.2862 -3.69217,4.44236 -0.22782,0.35545 -0.89457,1.18715 -1.48168,1.84822 -1.12,1.26105 -1.37907,2.31291 -0.76311,3.09838 0.55218,0.70414 3.09377,2.28365 3.77627,2.34681 0.0895,0.0106 0.44237,-0.0913 0.78427,-0.22121 z"
         style="fill:#ffffff;fill-opacity:1;stroke:none;stroke-width:2.64604735px;stroke-linecap:butt;stroke-linejoin:miter;stroke-opacity:1" />
      <path
         inkscape:connector-curvature="0"
         id="path4485-2-0"
         d="m 32.061455,195.48507 c -1.48284,-0.64905 -1.68429,-2.05291 -0.4501,-3.13658 0.79989,-0.70231 2.80253,-1.24605 4.55542,-1.23681 0.82332,0.003 1.04632,0.14421 1.58886,0.99719 0.89792,1.41159 0.22925,2.88943 -1.42928,3.1588 -0.49026,0.0797 -1.13684,0.24502 -1.43684,0.36714 -0.75562,0.30792 -1.92358,0.24608 -2.82806,-0.14977 z"
         style="fill:#82b7ff;fill-opacity:1;stroke:none;stroke-width:2.64604735px;stroke-linecap:butt;stroke-linejoin:miter;stroke-opacity:1" />
    </g>
    <g
       id="g4660"
       transform="translate(-233.85749,-373.77235)">
      <rect
         y="173.77234"
         x="83.857491"
         height="100"
         width="100"
         id="rect4580-15"
         style="opacity:1;fill:#000000;fill-opacity:0.25823047;stroke:none;stroke-width:0.51077282;stroke-linecap:butt;stroke-linejoin:miter;stroke-miterlimit:4;stroke-dasharray:none;stroke-dashoffset:0;stroke-opacity:1;paint-order:normal" />
      <path
         inkscape:connector-curvature="0"
         id="path4485-2-3"
         d="m 128.88116,267.11908 c 0.7405,-0.23487 2.03966,-0.77385 2.88702,-1.19754 0.84735,-0.42369 1.67209,-0.77034 1.83274,-0.77034 0.16063,0 0.53329,0.54528 0.8281,1.21174 0.29481,0.66644 0.64453,1.21172 0.77716,1.21172 0.13264,0 0.82072,-0.67131 1.52907,-1.49177 1.61508,-1.87075 2.07747,-1.84738 2.87875,0.14536 0.59531,1.48053 0.59584,1.48098 1.72025,1.43102 1.48553,-0.0659 3.32677,-1.15918 5.22699,-3.1034 1.77567,-1.81679 2.24847,-1.96914 1.99995,-0.64443 l -0.17154,0.91448 2.32335,0.84068 c 5.3658,1.94157 9.91615,1.50091 13.06686,-1.26547 1.19683,-1.05082 2.15085,-2.77089 1.63722,-2.95181 -0.19508,-0.0688 -0.66976,-0.39596 -1.05487,-0.72724 -0.79887,-0.68715 -0.69076,-1.49496 0.20006,-1.49496 0.58141,0 2.69047,-0.97363 2.69047,-1.24205 0,-0.0845 -0.24235,-0.4621 -0.53855,-0.83868 -1.04015,-1.3223 -0.76964,-1.65615 1.41369,-1.74463 l 1.95224,-0.079 -0.0548,-0.77017 c -0.12615,-1.77437 -3.30349,-5.07405 -6.12246,-6.35825 -1.53243,-0.69809 -1.71354,-1.50302 -0.28607,-1.27135 0.82966,0.13462 1.02097,0.0489 1.60731,-0.71978 0.36606,-0.47993 0.85186,-1.31843 1.07955,-1.86338 l 0.41398,-0.99081 -1.03066,-0.65061 c -2.56116,-1.61682 -7.25269,-2.29216 -9.62618,-1.3857 -1.50329,0.57409 -2.0797,0.40899 -1.84444,-0.52836 0.17853,-0.71133 -0.24536,-1.48341 -0.81445,-1.48341 -0.17666,0 -0.59187,0.75735 -0.92276,1.68296 -0.33088,0.92565 -0.75796,1.96792 -0.94905,2.31619 -0.28965,0.5279 -0.27659,0.83025 0.0784,1.81762 0.41938,1.16622 0.44488,1.18436 1.66428,1.18436 2.80607,0 5.24212,1.29185 6.85666,3.63609 0.80638,1.17083 0.95139,1.57712 0.80338,2.25095 -0.24243,1.10379 -1.78665,2.41559 -3.08871,2.62379 l -1.04699,0.16756 0.14579,1.92746 c 0.12336,1.63102 0.0723,1.98846 -0.33207,2.32403 -0.63182,0.52437 -2.38579,0.43472 -3.86565,-0.19764 l -1.17839,-0.50348 -1.28093,1.34278 -1.28093,1.3428 -1.17588,-0.34566 c -0.84682,-0.24895 -1.65492,-0.83316 -2.8877,-2.08765 -0.94151,-0.95809 -1.7336,-1.70444 -1.76021,-1.65861 -0.85514,1.47307 -1.87592,2.57115 -2.9776,3.20305 -2.05587,1.17923 -2.72688,1.06877 -4.638,-0.76356 -0.88821,-0.85158 -1.86809,-1.88648 -2.17751,-2.29979 l -0.5626,-0.75148 -1.43364,1.08726 c -1.67665,1.27154 -3.51455,1.94843 -5.42169,1.99676 l -1.36292,0.0346 -0.37094,-1.21174 c -0.51311,-1.67615 -0.31746,-4.99397 0.37729,-6.39819 l 0.53816,-1.08772 -0.98664,-0.15777 c -0.54266,-0.0867 -1.29592,-0.44438 -1.67393,-0.79473 -0.92915,-0.86108 -2.44498,-1.09922 -3.01162,-0.47308 -0.53434,0.59042 -0.54105,0.83326 -0.0229,0.83326 0.22214,0 0.40391,-0.12102 0.40391,-0.26926 0,-0.14823 0.21248,-0.26927 0.47217,-0.26927 0.41479,0 0.48014,0.33274 0.53772,2.73767 0.0571,2.38398 -0.0157,2.91453 -0.56377,4.10644 -0.9265,2.01513 -1.88378,2.99769 -3.87633,3.97859 -1.53271,0.75454 -2.06589,0.87727 -3.82053,0.87928 -1.60066,10e-4 -2.28535,-0.12818 -3.18364,-0.60445 -0.62943,-0.33371 -1.14442,-0.72549 -1.14442,-0.87059 0,-0.14512 -0.10198,-0.2638 -0.22665,-0.2638 -0.32211,0 -0.85045,1.90141 -0.85045,3.06059 0,0.88875 0.0679,0.97823 0.7405,0.97534 0.40728,-10e-4 1.40696,-0.18211 2.22152,-0.40073 0.81455,-0.21864 1.7674,-0.39896 2.11743,-0.4007 0.68481,-0.005 0.67431,-0.16518 0.16148,2.48759 l -0.1952,1.00979 h 2.17122 c 2.32891,0 7.92848,-1.25421 9.0233,-2.02106 0.31601,-0.22126 0.85053,-0.40242 1.18784,-0.40242 0.69807,0 0.7625,0.39421 0.32307,1.97672 -0.44116,1.58875 -0.20944,1.88651 1.30308,1.67442 0.70177,-0.0983 1.88182,-0.37121 2.62232,-0.60617 z"
         style="fill:#58371b;fill-opacity:1;stroke:none;stroke-width:2.38686681px;stroke-linecap:butt;stroke-linejoin:miter;stroke-opacity:1" />
      <path
         inkscape:connector-curvature="0"
         id="path4485-2-30"
         d="m 139.50554,259.50252 c 1.05443,-0.53791 1.72471,-1.30314 2.54047,-2.90019 0.41345,-0.80943 0.41401,-0.92443 0.008,-1.54466 -0.24149,-0.36858 -0.72109,-1.36402 -1.06576,-2.21208 -0.62474,-1.53712 -0.63147,-1.54299 -2.18036,-1.89474 -1.34054,-0.30444 -1.82446,-0.2926 -3.52754,0.0864 -1.08562,0.24153 -2.22408,0.37371 -2.52991,0.29373 -0.50983,-0.13343 -0.5406,-0.063 -0.37019,0.84612 0.46569,2.48434 2.15863,5.20645 4.37339,7.03204 1.18031,0.97289 1.37901,0.99408 2.75229,0.29349 z m -24.1922,0.33466 c 2.4317,-1.08049 4.12526,-3.19139 4.44769,-5.54381 0.14407,-1.05101 0.0685,-1.40601 -0.46496,-2.18453 -0.35034,-0.51127 -0.88166,-0.99537 -1.18071,-1.07574 -1.12122,-0.30132 -3.00613,-0.12388 -4.13704,0.38923 l -1.16985,0.53084 0.69862,0.83027 c 0.90889,1.08015 0.9236,2.24477 0.0357,2.82655 -1.01932,0.66789 -2.70369,0.80485 -3.49795,0.28442 -0.6445,-0.42229 -0.68954,-0.41286 -1.11297,0.23343 -0.78388,1.19637 0.11918,3.55331 1.60852,4.19834 0.8534,0.36958 3.43617,0.10501 4.77296,-0.48895 z"
         style="fill:#762515;fill-opacity:1;stroke:none;stroke-width:2.38686681px;stroke-linecap:butt;stroke-linejoin:miter;stroke-opacity:1" />
      <path
         inkscape:connector-curvature="0"
         id="path4485-2-10"
         d="m 149.6204,251.83771 c 0.80277,-1.36984 1.36084,-4.22518 1.0988,-5.62197 l -0.17818,-0.94986 -1.2265,1.31123 c -0.67457,0.72119 -1.94207,1.77222 -2.81666,2.33569 -0.87459,0.56344 -1.59122,1.15133 -1.59252,1.30638 -0.003,0.41622 1.91144,2.20561 2.69039,2.51404 1.10467,0.43739 1.29215,0.35447 2.02468,-0.89551 z m -41.75559,3.72877 c 0.23618,-0.2363 0.61146,-0.78146 0.83397,-1.21174 0.49787,-0.96279 1.10905,-1.00409 1.51975,-0.10263 0.40084,0.87975 1.3751,1.12151 2.23886,0.55554 0.89855,-0.58875 0.84721,-0.88023 -0.27124,-1.54015 -1.02604,-0.60538 -1.22759,-1.38713 -0.47123,-1.82767 0.4091,-0.23821 0.38057,-0.27554 -0.21639,-0.28265 -1.05013,-0.0119 -3.24198,-1.21645 -4.4305,-2.43363 l -1.06566,-1.09132 0.66843,-1.26356 c 0.36763,-0.69494 1.31926,-1.91508 2.11472,-2.71139 l 1.44629,-1.44785 -0.5311,-0.71374 c -0.4368,-0.58703 -0.78092,-0.72833 -1.93815,-0.79588 -1.35703,-0.0793 -3.89431,0.54098 -4.19343,1.02497 -0.30456,0.49282 0.48784,1.61524 1.14032,1.61524 0.47378,0 0.62516,0.12746 0.55907,0.47124 -0.0745,0.38717 -0.40319,0.47682 -1.84274,0.50262 -1.72549,0.031 -3.472853,0.68157 -4.952955,1.84427 -0.625655,0.49148 -0.720638,0.39027 1.595995,1.70114 2.07343,1.17326 2.55904,2.00871 1.43236,2.46425 -0.88364,0.35729 -3.18878,2.19157 -3.660172,2.91255 -0.384806,0.58853 -0.351156,0.62605 1.162518,1.29547 3.185814,1.40894 7.932884,1.96334 8.861294,1.03494 z m 47.93732,1.4462 c -0.003,-0.84772 -0.13154,-1.66639 -0.28443,-1.81929 -0.23565,-0.23559 -3.14312,-1.12594 -3.24292,-0.99301 -0.0186,0.0248 -0.11596,0.72198 -0.21616,1.54912 -0.20577,1.69864 -0.0486,1.94091 1.66053,2.55934 1.79905,0.651 2.09036,0.46974 2.08297,-1.29616 z m -30.65501,0.33853 c 0.21152,1.28814 0.18051,1.49711 2.33097,0.93699 1.65815,-0.43193 3.1958,-1.29829 4.16509,-2.34687 l 0.60784,-0.65753 -0.54052,-1.57101 c -0.29728,-0.86407 -0.54051,-1.89682 -0.54051,-2.29497 0,-1.61357 -2.18468,-2.36228 -3.76984,-1.29199 -1.02928,0.69496 -2.3914,2.91601 -2.44402,3.98514 l -0.0331,0.67319"
         style="fill:#767739;fill-opacity:1;stroke:none;stroke-width:2.38686681px;stroke-linecap:butt;stroke-linejoin:miter;stroke-opacity:1" />
      <path
         inkscape:connector-curvature="0"
         id="path4485-2-14"
         d="m 115.82136,249.86347 c 1.59763,-0.25845 3.50298,-1.28638 3.492,-1.88394 -0.0165,-0.90316 -0.68959,-1.37877 -2.32318,-1.64185 -2.16589,-0.34881 -3.31025,-0.85932 -4.6602,-2.07891 -1.09396,-0.98833 -1.14874,-1.00604 -1.84734,-0.59679 -0.39598,0.232 -1.30202,1.1788 -2.01342,2.10409 l -1.29347,1.68232 0.55692,0.59282 c 0.63151,0.67219 2.66828,1.74762 3.89888,2.0586 0.81192,0.20503 1.8076,0.14894 4.18981,-0.2363 z m 42.8421,3.36369 c 1.25774,-0.84481 1.30783,-1.69776 0.18606,-3.1685 -1.18806,-1.55764 -3.05007,-2.49423 -5.23545,-2.63338 -0.94048,-0.0599 -1.71612,-0.0644 -1.72365,-0.0119 -0.007,0.0544 -0.0823,0.63865 -0.16615,1.29857 -0.0839,0.65995 -0.32239,1.6815 -0.53008,2.27015 -0.21429,0.60737 -0.27623,1.17167 -0.14321,1.30469 0.12892,0.12889 0.94919,0.52826 1.82282,0.88744 2.15416,0.8856 4.51632,0.9065 5.78966,0.0513 z m -13.55867,4.48874 c 0.19465,0.0862 0.44189,0.40498 0.82579,0.74205 0.52255,0.45883 1.31945,0.9895 1.77087,1.17931 0.98556,0.4144 1.48445,0.1487 2.48492,-1.32367 0.78335,-1.1528 1.26606,-3.40054 0.92367,-4.30111 -0.30445,-0.80077 -0.95342,-1.06475 -1.37341,-0.55871 -0.81929,0.98718 -2.88268,0.24169 -4.98163,-1.79977 -1.30157,-1.26597 -1.39656,-1.30968 -2.22151,-1.02211 -0.6117,0.21315 -0.86082,0.46864 -0.85839,0.87997 0.004,0.74998 1.35601,3.40981 2.40703,4.73683 0.50873,0.64233 0.82635,1.06672 0.84311,1.21995 m -39.6045,3.40148 c 0.74928,-0.22651 1.06851,-0.54979 1.55062,-1.57001 0.99478,-2.10505 0.97152,-2.13171 -2.02293,-2.32166 -1.44399,-0.0917 -3.00493,-0.24062 -3.46876,-0.33115 -0.80544,-0.1573 -0.87416,-0.0995 -1.529181,1.28506 -0.377208,0.79738 -0.724751,1.80488 -0.772299,2.23891 -0.0749,0.68307 0.0222,0.81526 0.721339,0.98344 1.042891,0.25083 4.306851,0.0826 5.521211,-0.28459 z"
         style="fill:#26362a;fill-opacity:1;stroke:none;stroke-width:2.38686681px;stroke-linecap:butt;stroke-linejoin:miter;stroke-opacity:1" />
      <path
         inkscape:connector-curvature="0"
         id="path4595-0"
         d="m 137.36329,249.35755 c 3.88148,-1.4438 5.7225,-4.24624 5.71488,-8.69932 -0.002,-1.25284 0.11223,-2.58577 0.25421,-2.96201 0.20763,-0.55034 0.19159,-0.61832 -0.0819,-0.34753 -0.79286,0.78476 -0.96531,0.36276 -0.93528,-2.28881 0.024,-2.1204 -0.0978,-3.01304 -0.63338,-4.64026 -0.60357,-1.8339 -0.67796,-1.94272 -0.82838,-1.21174 -0.30699,1.49174 -1.18034,2.55335 -2.10055,2.55335 -0.15789,0 -0.21324,-0.8803 -0.13965,-2.22151 0.11602,-2.1154 0.103,-2.18071 -0.27282,-1.36755 -0.44928,0.97207 -1.43057,1.62763 -1.83339,1.2248 -0.16711,-0.16708 -0.14667,-0.68064 0.0571,-1.43768 0.93682,-3.47913 -1.35276,-10.28957 -4.7734,-14.19864 l -1.02465,-1.17095 0.0905,3.28366 c 0.0498,1.80605 -0.0488,4.08997 -0.21907,5.07544 -0.32837,1.90082 -1.45054,4.1773 -1.97876,4.01423 -0.59371,-0.18331 -1.24298,-1.96062 -1.42271,-3.89451 l -0.17954,-1.93176 -1.05474,1.26337 c -0.5801,0.69481 -1.67394,2.50181 -2.43077,4.01549 -1.5568,3.11372 -1.85924,4.82567 -1.27947,7.24243 0.19166,0.7989 0.2775,1.52356 0.19076,1.61032 -0.37837,0.37834 -1.37904,-0.30547 -2.0919,-1.42954 -0.75629,-1.19255 -0.77655,-1.20382 -0.94635,-0.52729 -0.18613,0.74165 -0.0305,3.07574 0.28584,4.28687 0.16302,0.62416 0.10939,0.7405 -0.34132,0.7405 -0.397,0 -0.72659,-0.43353 -1.27951,-1.68296 l -0.74476,-1.68298 -0.36234,1.34639 c -0.47422,1.76212 -0.46146,4.16753 0.0333,6.26578 0.39788,1.68756 1.51017,4.19165 1.995,4.49127 0.14135,0.0874 0.56756,0.83717 0.94711,1.66623 0.59142,1.29184 0.77413,1.48542 1.27766,1.35376 0.42726,-0.11171 0.87792,0.10859 1.65195,0.80797 0.97424,0.88016 1.16442,0.9479 2.24494,0.79982 0.64929,-0.089 1.53594,-0.3456 1.97033,-0.57022 1.23852,-0.64047 3.05538,-0.52903 3.97373,0.2437 1.20511,1.01403 3.50709,1.00663 6.26743,-0.0191 z"
         style="fill:#ffff72;fill-opacity:1;stroke:none;stroke-width:2.38686681px;stroke-linecap:butt;stroke-linejoin:miter;stroke-opacity:1" />
      <path
         inkscape:connector-curvature="0"
         id="path4595"
         d="m 142.61414,249.61296 c 5.09486,-1.56623 8.71678,-6.30144 10.01974,-13.09955 0.34375,-1.79349 0.36468,-2.52681 0.11465,-4.01667 -0.36331,-2.16479 -0.39415,-4.23088 -0.076,-5.09367 0.1264,-0.34287 0.30648,-0.94068 0.40014,-1.32845 0.16078,-0.66563 0.11202,-0.64677 -0.87135,0.33657 -1.06405,1.06406 -2.00987,1.34037 -2.26977,0.66307 -0.0799,-0.20837 0.0901,-0.59163 0.37778,-0.85199 0.45207,-0.40913 1.32553,-2.67186 1.32553,-3.43384 0,-0.14202 -0.39692,0.24329 -0.88205,0.85636 -0.48513,0.61304 -1.1518,1.30356 -1.48148,1.53451 -1.0686,0.74845 -1.5919,-0.19333 -0.60413,-1.08724 0.86398,-0.78189 1.6812,-3.30588 1.7018,-5.25598 0.0246,-2.33025 -0.58056,-6.03781 -1.22234,-7.48865 -0.28498,-0.64426 -1.1374,-1.85516 -1.89425,-2.6909 -0.75685,-0.83576 -1.26855,-1.28044 -1.1371,-0.98816 0.45981,1.02234 0.45629,3.90226 -0.007,5.98609 -0.58586,2.6334 -0.8975,3.29669 -1.54889,3.29669 -0.42381,0 -0.48908,-0.11839 -0.33403,-0.60586 0.10598,-0.33323 0.25399,-1.34099 0.32891,-2.23945 0.25953,-3.11317 -0.96032,-6.26197 -4.84389,-12.50331 -3.91471,-6.29138 -5.30882,-10.14369 -5.30882,-14.66966 0,-2.62143 0.4466,-4.61363 1.39438,-6.21999 l 0.56296,-0.95415 -1.85381,1.29536 c -4.05258,2.8317 -6.88027,6.77939 -6.88027,9.60537 0,1.04265 -0.0836,1.24919 -0.50573,1.24919 -1.09969,0 -1.42126,-4.74927 -0.45298,-6.6902 l 0.42012,-0.84218 -1.06262,0.87152 c -1.38047,1.13216 -3.07928,3.65699 -3.63937,5.40895 -0.33335,1.04272 -0.49302,3.05593 -0.64388,8.1184 -0.21737,7.2945 -0.38103,8.23672 -1.88246,10.83831 -0.9725,1.68508 -1.73112,1.89047 -1.98919,0.53852 -0.2011,-1.05337 -1.32034,-3.51297 -1.98056,-4.35228 -0.46553,-0.59183 -0.47405,-0.56106 -0.37702,1.36054 0.0546,1.08132 -0.04,2.78754 -0.2103,3.7916 -0.41808,2.46521 -3.09018,10.5352 -4.25768,12.85856 -2.02472,4.02926 -2.82702,6.54858 -2.96083,9.29722 -0.10484,2.15308 -0.0342,2.7971 0.44623,4.06749 0.75281,1.99074 1.8002,3.53523 3.70774,5.46742 1.60835,1.62914 2.94499,2.39716 4.75076,2.7297 l 1.03076,0.18975 -0.85008,-1.684 c -0.94219,-1.86648 -1.60354,-4.55913 -1.61069,-6.55782 -0.009,-2.41854 1.48583,-6.81408 2.2313,-6.56267 0.18526,0.0625 0.33557,0.67062 0.35376,1.43131 0.0174,0.72747 0.23057,1.74676 0.4737,2.26514 l 0.44207,0.94245 -0.13712,-1.00979 c -0.0754,-0.55537 -0.20558,-1.44675 -0.28931,-1.98079 -0.15133,-0.96546 0.3194,-3.50843 0.73989,-3.99711 0.123,-0.14274 0.22012,0.058 0.22012,0.45534 0,0.39116 -0.12116,0.78606 -0.26927,0.8776 -0.14811,0.0914 -0.25522,0.37133 -0.23804,0.62176 0.0282,0.41049 0.0434,0.40891 0.1544,-0.0143 0.0677,-0.25917 0.29299,-0.47124 0.50058,-0.47124 0.2739,0 0.34054,-0.24005 0.24291,-0.87512 -0.11736,-0.76352 -0.0993,-0.79786 0.14135,-0.26929 0.15176,0.33323 0.38045,0.87851 0.50825,1.21174 0.18584,0.48456 0.27321,0.25843 0.43642,-1.12947 0.29534,-2.51139 0.99205,-4.2986 2.71196,-6.95676 1.81404,-2.80366 3.2545,-4.36772 4.02257,-4.36772 0.52145,0 0.55471,0.12292 0.45925,1.6973 -0.0566,0.9335 0.0463,2.23611 0.22866,2.89469 l 0.33157,1.19742 0.36993,-0.88223 c 0.20348,-0.48523 0.51003,-2.07626 0.68125,-3.53562 0.35513,-3.02693 0.0244,-6.47025 -0.69819,-7.26865 -0.54423,-0.60137 -0.54923,-1.10405 -0.011,-1.10405 0.74961,0 1.87813,0.74332 3.03657,2.00008 2.65736,2.8829 4.52046,6.77572 5.35457,11.18798 0.30873,1.63312 0.53382,2.2982 0.68588,2.02648 0.12447,-0.22246 0.34767,-0.40444 0.49596,-0.40444 0.39759,0 1.04425,1.71504 1.08819,2.88604 l 0.0382,1.01843 0.16376,-1.0771 c 0.43303,-2.84839 2.7215,0.43815 3.34184,4.79934 0.33439,2.35083 0.34329,2.36999 0.84318,1.8176 0.59549,-0.65801 1.49885,-0.73938 1.49885,-0.13486 0,0.23272 -0.33131,0.98862 -0.73625,1.67959 -0.65535,1.11827 -0.75373,1.61173 -0.89535,4.49099 -0.13607,2.76652 -0.26507,3.4564 -0.89133,4.76688 -0.85283,1.78457 -3.42212,4.31102 -4.31367,4.24173 -1.03497,-0.0804 -1.54461,0.0119 -1.39527,0.25396 0.21002,0.33979 3.54033,0.0623 5.13521,-0.42818 z"
         style="fill:#ff6845;fill-opacity:1;stroke:none;stroke-width:2.38686681px;stroke-linecap:butt;stroke-linejoin:miter;stroke-opacity:1" />
    </g>
    <g
       id="g4673"
       transform="translate(-244.85947,-365.45554)">
      <rect
         y="265.45554"
         x="94.859474"
         height="100"
         width="100"
         id="rect4580-5"
         style="opacity:1;fill:#000000;fill-opacity:0.25823047;stroke:none;stroke-width:0.51077282;stroke-linecap:butt;stroke-linejoin:miter;stroke-miterlimit:4;stroke-dasharray:none;stroke-dashoffset:0;stroke-opacity:1;paint-order:normal" />
      <path
         inkscape:connector-curvature="0"
         id="path4485-2-79"
         d="m 171.03031,335.24673 c -0.0971,0 -0.0164,0.94698 -0.0693,2.33681 -0.0758,1.99735 -0.38426,4.28594 -0.82799,6.1427 -0.14437,0.6041 -0.16175,0.88076 -0.0593,0.94407 0.0937,0.0579 0.12766,0.53143 0.0962,1.34053 -0.0406,1.0439 -0.11955,1.41802 -0.47674,2.25969 -0.64004,1.50817 -1.66275,2.97451 -3.00887,4.31418 -1.09518,1.08992 -3.05101,2.5928 -3.3743,2.5928 -0.0719,0 -0.83243,0.36209 -1.68999,0.80467 -3.49951,1.80619 -6.7158,2.65817 -11.77188,3.11847 -1.96201,0.17852 -5.39864,0.23668 -6.65177,0.11202 l 1.2e-4,5.8e-4 c -5.20147,-0.51651 -9.15708,-1.53465 -12.9044,-3.32149 -4.64031,-2.21258 -7.75187,-5.23684 -9.76947,-9.49529 -0.83146,-1.75493 -1.48857,-4.87725 -1.62909,-7.74086 l -0.0829,-1.68879 0.0808,-1.16226 c 0.0444,-0.0713 0.0955,-0.57661 0.14532,-1.35739 0.0498,-0.78082 0.20412,-1.92847 0.3429,-2.55047 0.1388,-0.62193 0.28837,-1.4002 0.33242,-1.72945 0.11772,-0.88032 2.07237,-5.83092 2.7897,-7.0655 l 0.61853,-1.06458 1.92173,-2.70576 0.70259,-0.76087 0.7026,-0.76085 -0.30076,-0.57313 c -0.22795,-0.43436 -0.30198,-0.80166 -0.30593,-1.51773 l -0.005,-0.94475 0.74744,-0.9843 c 0.9652,-1.27109 1.04854,-1.44415 1.04854,-2.17819 0,-0.67101 0.392,-1.58416 0.7369,-1.71648 0.11888,-0.0458 0.47985,-0.0829 0.80221,-0.0829 h 0.5861 l -0.33013,-0.74651 c -0.64852,-1.46635 -0.87497,-2.46106 -1.00797,-4.42739 -0.0908,-1.34232 -0.0853,-2.2369 0.0182,-2.99328 0.0812,-0.5933 0.16921,-1.31827 0.19546,-1.61093 0.0609,-0.679 1.68491,-5.3139 2.26074,-6.45219 1.23705,-2.44559 2.24417,-3.79512 4.22055,-5.6556 1.32458,-1.24684 2.84577,-2.30684 4.48692,-3.12643 9.34388,-3.47348 27.92316,5.16505 29.62133,13.19806 l -1.8e-4,-1.5e-4 c 0.69601,2.76078 0.97345,6.76326 0.27837,9.51964 -0.17064,0.6768 -0.27067,1.23056 -0.22229,1.23056 0.0484,0 0.123,0.41769 0.16578,0.92814 0.0666,0.79468 0.0222,1.09955 -0.30912,2.12172 -0.56254,1.73554 -1.42089,3.48327 -2.4551,4.99877 -0.49929,0.73175 -0.98773,1.59202 -1.08541,1.91189 -0.17176,0.5624 -0.16514,0.59722 0.20294,1.0642 0.64119,0.81362 1.81947,2.69165 2.3384,3.7271 l 0.49244,0.98265 1.3887,4.31798 0.31434,0.98809 c 0.26826,0.84321 0.67002,4.00676 0.67002,4.5165"
         style="fill:#fffffb;fill-opacity:1;stroke:none;stroke-width:0.75857329;stroke-linecap:butt;stroke-linejoin:miter;stroke-miterlimit:4;stroke-dasharray:none;stroke-opacity:1" />
      <path
         inkscape:connector-curvature="0"
         id="path4485-2-92"
         d="m 163.55813,321.63747 c 0.42962,-0.30135 0.88513,-0.70547 1.01222,-0.89802 0.23568,-0.35701 1.00145,-2.96324 0.90038,-3.06436 -0.0306,-0.0306 -0.16389,0.042 -0.29619,0.16208 -0.28215,0.25534 -2.72763,0.4735 -6.10012,0.54408 -2.01028,0.0422 -2.88349,0.10139 -8.09532,0.55062 -1.24389,0.10721 -3.61588,0.1947 -5.27111,0.19445 -2.7661,0 -3.11493,-0.0271 -4.31314,-0.33127 -1.43029,-0.3628 -2.64304,-0.8828 -3.60928,-1.54762 -0.77516,-0.53335 -2.85886,-2.32677 -4.66006,-4.0109 -1.52736,-1.42809 -3.06432,-2.38329 -3.65083,-2.2689 -0.38564,0.0751 -0.42635,0.18788 -0.58923,1.63041 -0.0942,0.8341 -0.12144,0.88232 -1.07445,1.90139 -0.53782,0.57502 -0.97761,1.11788 -0.97735,1.2063 10e-4,0.54577 1.73979,2.39712 3.52495,3.75456 1.04749,0.79655 3.12298,2.05394 4.69457,2.84415 2.88939,1.45279 6.23655,2.16461 11.32127,2.40768 3.0874,0.14767 6.90875,0.047 7.36539,-0.0592 -2.00928,1.18962 -1.97704,3.37586 -2.98398,5.62328 -0.21922,0.48933 -0.6029,1.31898 -0.8526,1.84379 -0.2497,0.5247 -0.45402,1.00875 -0.45402,1.07555 0,0.14413 0.74793,0.83059 0.90509,0.83059 0.06,0 0.24598,0.18509 0.41319,0.4112 0.42024,0.56845 1.5031,1.04923 2.36659,1.05088 0.38037,0 1.15863,-0.14312 1.72947,-0.31964 h -5e-5 c 1.35584,-0.41934 2.83923,-0.74338 3.40287,-0.74338 h 0.44997 l 0.22196,-1.03098 c 0.19723,-0.9162 0.8868,-2.64082 1.12943,-2.82472 0.05,-0.0379 0.42973,-0.73759 0.84399,-1.55505 0.41426,-0.81746 0.78436,-1.45507 0.82245,-1.41696 0.0381,0.0379 0.034,-0.0657 -0.009,-0.23086 -0.0507,-0.1942 -0.0285,-0.26912 0.0632,-0.2124 0.0907,0.0564 0.11462,-0.0152 0.0665,-0.19951 -0.056,-0.21392 -0.0305,-0.25961 0.0995,-0.17927 0.11078,0.0685 0.14238,0.0556 0.0864,-0.0349 -0.0484,-0.0784 0.001,-0.52173 0.11052,-0.98509 0.22644,-0.96053 0.26812,-2.58223 0.19632,-3.12944 0.52321,-0.45279 0.72046,-0.64441 1.21066,-0.9883 z"
         style="fill:#fdd771;fill-opacity:1;stroke:none;stroke-width:2.52857757px;stroke-linecap:butt;stroke-linejoin:miter;stroke-opacity:1" />
      <path
         inkscape:connector-curvature="0"
         id="path4485-2-84"
         d="m 124.14788,320.59744 0.67925,-0.93099 -1.07421,-1.50102 c -1.95401,-2.73033 -4.07922,-5.32839 -5.98004,-7.31062 -0.95092,-0.99158 -1.51959,-1.24414 -2.31011,-1.02589 -0.56899,0.15702 -1.20897,0.68157 -1.48636,1.21791 -0.37841,0.73177 -0.18317,1.17384 1.14191,2.58567 0.66277,0.70621 1.20505,1.3556 1.20505,1.44316 0,0.11075 -0.47426,0.17827 -1.56317,0.22252 -1.17604,0.0478 -1.75063,0.13578 -2.32009,0.35562 -0.98256,0.37906 -1.5712,1.02617 -1.5712,1.72724 0,0.94018 1.04088,2.01055 1.95518,2.01055 0.24884,0 1.3388,-0.29931 2.42214,-0.66517 1.69109,-0.5711 2.11523,-0.66516 2.99859,-0.66516 1.16957,0 0.81368,-0.23061 3.65247,2.36707 0.74304,0.67986 1.40056,1.2056 1.46115,1.16813 0.0606,-0.0379 0.41584,-0.48705 0.78944,-0.99907 z m 43.41382,9.38469 c 0.62643,-0.32684 3.35035,-2.55434 4.1471,-3.39127 0.42592,-0.44744 0.85433,-0.81345 0.95204,-0.81345 0.0977,0 0.76699,0.21266 1.48723,0.47249 2.43551,0.87881 2.51148,0.89909 3.01423,0.80475 0.87302,-0.16385 1.68773,-1.08878 1.68773,-1.91616 0,-0.5375 -0.50655,-1.23357 -1.16037,-1.59457 -0.62205,-0.34341 -2.08148,-0.68752 -2.93047,-0.69101 -0.36409,0 -0.56539,-0.0619 -0.56539,-0.16941 0,-0.36804 1.35226,-2.87128 1.92181,-3.55756 0.77403,-0.93269 0.95632,-1.45558 0.74885,-2.14808 -0.0853,-0.28451 -0.33488,-0.72216 -0.55476,-0.97259 -1.47206,-1.67657 -3.13289,-0.23794 -5.26242,4.55834 -1.10548,2.48989 -1.56744,3.31289 -3.29536,5.87103 -1.6832,2.49196 -1.67814,2.4821 -1.51537,2.94903 0.075,0.21518 0.29465,0.47719 0.48812,0.58226 0.4379,0.23793 0.41323,0.23743 0.83702,0.0152 z"
         style="fill:#582927;fill-opacity:1;stroke:none;stroke-width:2.52857757px;stroke-linecap:butt;stroke-linejoin:miter;stroke-opacity:1" />
      <path
         inkscape:connector-curvature="0"
         id="path4485-2-7"
         d="m 142.13814,303.29492 c 1.39975,-0.38885 2.01974,-2.3446 1.05053,-3.31383 -1.00057,-1.00058 -2.74613,-0.37344 -3.19275,1.14707 -0.14165,0.48232 -0.13171,0.64761 0.0708,1.17783 0.1909,0.49988 0.3397,0.66416 0.78469,0.86619 0.64217,0.29157 0.66947,0.29423 1.28673,0.12264 z m 11.7148,2.35974 c 0.48455,-0.32199 1.0507,-1.28874 1.0507,-1.79412 0,-0.91252 -0.8198,-1.76199 -1.70149,-1.763 -1.79715,0 -2.80662,2.39785 -1.47863,3.51523 0.54139,0.45557 1.47921,0.47398 2.12942,0.042 z"
         style="fill:#411c1d;fill-opacity:1;stroke:none;stroke-width:2.52857757px;stroke-linecap:butt;stroke-linejoin:miter;stroke-opacity:1" />
      <path
         inkscape:connector-curvature="0"
         id="path4485-2-19"
         d="m 168.06842,297.07492 c 0.0851,-0.49388 0.29526,-1.4667 0.46715,-2.16176 0.1719,-0.69515 0.53055,-2.37137 0.79699,-3.72502 0.26643,-1.3536 0.57123,-2.80447 0.67731,-3.22409 0.10607,-0.41959 0.19284,-0.90308 0.19284,-1.07426 0,-0.17119 0.14275,-0.73091 0.31719,-1.24386 0.17444,-0.51287 0.35849,-1.1968 0.40895,-1.51993 0.0505,-0.32305 0.21177,-1.23223 0.35845,-2.02033 0.22203,-1.19331 0.24178,-1.54878 0.11811,-2.12553 -0.2826,-1.31769 -1.16633,-2.4649 -2.99865,-3.89272 -3.4733,-2.70664 -7.9405,-4.4555 -11.38058,-4.4555 -1.30444,0 -1.69419,0.10468 -2.22611,0.59831 -0.19913,0.18484 -0.48177,0.37292 -0.62811,0.41831 -0.14635,0.0458 -0.53546,0.32284 -0.86473,0.61671 -1.12428,1.00342 -1.68231,1.49305 -2.53576,2.22472 -0.46938,0.4024 -2.26101,2.13602 -3.98137,3.85234 -1.72038,1.7164 -3.17729,3.10681 -3.2376,3.08977 -0.0603,-0.0177 -0.0779,0.0202 -0.039,0.0834 0.0996,0.16132 -1.0403,1.25091 -1.17782,1.12588 -0.0621,-0.0564 -0.0745,-0.0349 -0.0274,0.047 0.0472,0.0824 -0.15503,0.42346 -0.44917,0.75763 -0.50656,0.57548 -0.52097,0.615 -0.27264,0.74796 0.14424,0.0771 0.32518,0.14033 0.40213,0.14033 0.1645,0 4.40078,4.18518 4.40078,4.34769 0,0.21594 0.78826,0.80346 3.65848,2.72717 3.29416,2.20793 6.86118,3.64667 12.37212,4.99048 1.26183,0.30765 3.09294,0.54321 4.34343,0.55876 l 1.15041,0.0152 0.15462,-0.89794 z m -20.0559,18.70923 c 0.97931,-0.20634 1.3977,-0.48514 1.71654,-1.14373 0.4169,-0.86118 0.099,-1.93947 -0.71869,-2.43808 -0.51093,-0.3115 -1.06081,-0.32998 -1.82278,-0.0615 -1.24579,0.43959 -2.05761,0.18737 -3.20279,-0.99472 -0.98495,-1.01676 -1.42131,-1.19546 -2.16253,-0.88581 -0.58924,0.24628 -0.94286,0.87782 -0.82956,1.48167 0.11779,0.62785 0.98376,1.89846 1.78332,2.61657 1.45587,1.30771 3.34911,1.82296 5.23649,1.42524 z"
         style="fill:#fd6c71;fill-opacity:1;stroke:none;stroke-width:2.52857757px;stroke-linecap:butt;stroke-linejoin:miter;stroke-opacity:1" />
    </g>
    <g
       id="g4684"
       transform="translate(-112.67359,-413.34687)">
      <rect
         y="213.34686"
         x="62.673576"
         height="100"
         width="100"
         id="rect4580-6"
         style="opacity:1;fill:#000000;fill-opacity:0.25823047;stroke:none;stroke-width:0.51077282;stroke-linecap:butt;stroke-linejoin:miter;stroke-miterlimit:4;stroke-dasharray:none;stroke-dashoffset:0;stroke-opacity:1;paint-order:normal" />
      <path
         inkscape:connector-curvature="0"
         style="fill:#81be72;fill-opacity:1;fill-rule:nonzero;stroke:none;stroke-width:0.95435417"
         d="m 71.254915,219.33237 h 82.837325 c 1.4506,0 2.59582,1.14522 2.59582,2.59583 v 82.83732 c 0,1.45061 -1.14522,2.59583 -2.59582,2.59583 H 71.254915 c -1.450609,0 -2.595825,-1.14522 -2.595825,-2.59583 V 221.9282 c 0,-1.45061 1.145216,-2.59583 2.595825,-2.59583 z"
         id="path4507" />
      <path
         inkscape:connector-curvature="0"
         style="fill:#ffffff;fill-opacity:1;fill-rule:nonzero;stroke:none;stroke-width:0.95435417"
         d="M 139.73886,269.64555 V 232.1588 H 112.6354 85.531948 v 37.48675 37.48675 h 27.103452 27.10346 z"
         id="path4509" />
      <path
         inkscape:connector-curvature="0"
         style="fill:#ffdf46;fill-opacity:1;fill-rule:nonzero;stroke:none;stroke-width:0.95435417"
         d="m 118.13244,300.94814 -17.63633,-4.73357 v -52.98535 l 4.04643,-0.91617 c 1.98504,-0.38174 10.15425,-2.67217 18.24711,-4.80991 l 14.65877,-3.89374 v 72.30134 c 0,0 -9.61981,-2.29043 -19.31598,-4.9626 z"
         id="path4511" />
      <path
         inkscape:connector-curvature="0"
         style="fill:#000000;fill-opacity:1;fill-rule:nonzero;stroke:none;stroke-width:0.95435417"
         d="m 107.29106,269.11112 c 0,1.4506 -0.83983,2.67217 -1.9087,2.74852 -1.14521,0 -1.98504,-1.14522 -2.06139,-2.67218 0,-1.45061 0.83983,-2.67217 1.9087,-2.74852 1.06887,-0.0763 1.98504,1.06887 2.06139,2.59583 z"
         id="path4513" />
    </g>
    <g
       id="g4695"
       transform="translate(63.261412,-431.46748)">
      <rect
         y="331.46747"
         x="-113.26141"
         height="100"
         width="100"
         id="rect4580-0"
         style="opacity:1;fill:#000000;fill-opacity:0.25823047;stroke:none;stroke-width:0.51077282;stroke-linecap:butt;stroke-linejoin:miter;stroke-miterlimit:4;stroke-dasharray:none;stroke-dashoffset:0;stroke-opacity:1;paint-order:normal" />
      <path
         inkscape:connector-curvature="0"
         style="fill:#ffdf46;fill-opacity:1;fill-rule:nonzero;stroke:none;stroke-width:0.95484263"
         d="m -97.6357,425.29922 c -2.44438,-0.76388 -5.34708,-2.97909 -6.72204,-5.27069 -1.90967,-2.97909 -1.90967,-2.368 -1.90967,-34.83241 0,-23.8327 0.0764,-30.40197 0.45832,-31.77693 1.37496,-5.42346 6.492879,-9.01365 12.680213,-9.01365 h 2.367993 v 3.66658 c 0,4.35404 0.45832,6.26372 2.215219,8.24977 4.201276,4.88876 12.145507,3.89573 15.124594,-2.06244 0.763869,-1.60413 0.916643,-2.13884 0.916643,-5.8054 v -4.04851 h 9.242808 9.319195 v 4.04851 c 0,3.66656 0.07639,4.20127 0.916643,5.8054 2.902699,5.95817 10.846932,6.9512 15.124595,2.06244 1.680511,-1.98605 2.215218,-3.89573 2.215218,-8.24977 v -3.66658 h 2.367993 c 6.110948,0 11.228866,3.59019 12.603829,9.01365 0.381934,1.37496 0.458322,7.94423 0.458322,31.77693 0,32.46441 0.07639,31.85332 -1.833285,34.83241 -0.993028,1.60411 -3.208247,3.59018 -5.117918,4.5832 l -1.45135,0.84025 h -34.068534 c -18.714778,0.0764 -34.450467,0 -34.908788,-0.15276 z"
         id="path4535" />
      <path
         inkscape:connector-curvature="0"
         style="fill:#ffffff;fill-opacity:1;fill-rule:nonzero;stroke:none;stroke-width:0.95484263"
         d="m -34.005458,416.6675 c 1.756898,-0.45832 3.361021,-2.2916 3.742955,-4.12489 0.229162,-0.99303 0.381935,-9.70113 0.381935,-23.52715 V 367.09244 H -63.26162 -96.642672 v 21.84664 c 0,13.97879 0.152774,22.45773 0.381934,23.52715 0.381934,1.90967 1.986059,3.66657 3.590183,4.20127 1.451349,0.38194 57.13736,0.38194 58.665097,0 z"
         id="path4537" />
      <path
         inkscape:connector-curvature="0"
         style="fill:#8296f9;fill-opacity:1;fill-rule:nonzero;stroke:none;stroke-width:0.95484263"
         d="m -83.733295,355.02332 c -0.840255,-0.15278 -2.291605,-1.29858 -2.673539,-2.67354 -0.381934,-1.90967 -0.22916,-3.89573 -0.22916,-5.8054 0,-6.34011 0.152773,-7.02759 2.291605,-8.40256 1.298576,-0.84025 4.048503,-0.84025 5.499852,0 2.062445,1.29858 2.367993,2.2916 2.367993,8.32617 0,4.88876 -0.07639,5.42347 -0.763869,6.56927 -1.298576,1.98606 -4.277663,2.90269 -6.492882,1.98606 z m 36.436526,-0.15278 c -0.611095,-0.30555 -1.527737,-1.1458 -1.909671,-1.83328 -0.763869,-1.1458 -0.763869,-1.68051 -0.763869,-6.56927 0,-4.50683 0.07639,-5.57624 0.611096,-6.49288 1.756897,-3.28464 6.798429,-3.36103 8.860874,-0.22916 0.534708,0.91664 0.687481,1.68051 0.687481,6.79843 0,1.90967 0,3.89573 -0.229161,5.8054 -0.993029,2.44437 -2.673539,2.97908 -4.277663,2.9027 -1.298577,0.15277 -2.215218,0 -2.979087,-0.38194 z"
         id="path4539" />
      <path
         inkscape:connector-curvature="0"
         style="fill:#8296f9;fill-opacity:1;fill-rule:nonzero;stroke:none;stroke-width:0.95484263"
         d="m -88.392893,405.82057 v -4.6596 h 4.659598 4.659598 v 4.6596 4.6596 h -4.659598 -4.659598 z m 13.82602,0 v -4.6596 h 4.430437 4.506824 v 4.6596 4.6596 h -4.506824 -4.430437 z m 13.749632,0 v -4.6596 h 4.430437 4.506824 v 4.6596 4.6596 h -4.506824 -4.430437 z m 13.367699,0 v -4.6596 h 4.659597 4.659597 v 4.6596 4.6596 h -4.659597 -4.659597 z m -40.943351,-13.59686 v -4.50682 h 4.659598 4.659598 v 4.50682 4.43044 h -4.659598 -4.659598 z m 13.82602,0 v -4.50682 h 4.430437 4.506824 v 4.50682 4.43044 h -4.506824 -4.430437 z m 13.749632,0 v -4.50682 h 4.430437 4.506824 v 4.50682 4.43044 h -4.506824 -4.430437 z m 13.367699,0 v -4.50682 h 4.659597 4.659597 v 4.50682 4.43044 h -4.659597 -4.659597 z m -40.943351,-13.59686 v -4.6596 h 4.659598 4.659598 v 4.6596 4.6596 h -4.659598 -4.659598 z m 13.82602,0 v -4.6596 h 4.430437 4.506824 v 4.6596 4.6596 h -4.506824 -4.430437 z m 13.749632,0 v -4.6596 h 4.430437 4.506824 v 4.6596 4.6596 h -4.506824 -4.430437 z m 13.367699,0 v -4.6596 h 4.659597 4.659597 v 4.6596 4.6596 h -4.659597 -4.659597 z"
         id="path4541" />
    </g>
    <g
       id="g6108"
       transform="translate(49.999999,-200.00001)">
      <rect
         y="-3.0859376e-006"
         x="-2.1582031e-007"
         height="100"
         width="100"
         id="rect4580-9"
         style="opacity:1;fill:#000000;fill-opacity:0.25823047;stroke:none;stroke-width:0.51077282;stroke-linecap:butt;stroke-linejoin:miter;stroke-miterlimit:4;stroke-dasharray:none;stroke-dashoffset:0;stroke-opacity:1;paint-order:normal" />
      <path
         inkscape:connector-curvature="0"
         id="path4697"
         d="m 5.718696,90.90292 c 0.96429,1.77171 3.15727,2.74205 6.78439,3.00197 1.94753,0.13956 72.38358,0.14905 74.39848,0.01 v -2e-5 c 2.33887,-0.16134 3.80429,-0.45471 4.80108,-0.9611 1.00163,-0.50888 1.90399,-1.37882 2.31882,-2.23554 0.63497,-1.31148 0.72068,-1.91114 0.78043,-5.46117 0.0539,-3.20262 -0.48216,-13.25525 -0.48216,-13.25525 l 0.0818,-5.87188 c 0,0 -0.22187,-5.57329 -0.25348,-6.40124 -0.0767,-2.00782 -0.61649,-13.81777 -0.75975,-16.62181 -0.03,-0.58644 -0.16799,-3.35257 -0.30674,-6.14692 -0.29264,-5.89367 -0.3364,-6.39781 -0.55515,-6.39781 -0.0877,0 -0.49293,0.11528 -0.90045,0.2562 -2.98605,1.03238 -5.73083,1.38158 -10.84497,1.37968 h -3.45525 l 0.005,3.41654 c 0.005,3.33928 -0.002,3.43157 -0.29429,4.07989 -0.35223,0.77952 -1.22849,1.60556 -1.88175,1.77397 -0.68838,0.17743 -5.85952,0.15945 -6.46857,-0.0225 -0.72954,-0.21796 -1.49518,-1.02859 -1.68552,-1.78458 -0.0894,-0.35522 -0.14616,-1.32215 -0.13574,-2.31375 0.0217,-2.07938 -0.13056,-4.8886 -0.26992,-4.97473 -0.11052,-0.0683 -34.24489,-0.0817 -34.31312,-0.0133 -0.1336,0.13359 -0.30251,2.86354 -0.29919,4.83516 0.004,2.59925 -0.10327,3.05012 -0.88608,3.71012 -0.7748,0.65325 -0.97305,0.68595 -4.13795,0.6828 -3.35706,-0.003 -3.77674,-0.0974 -4.56961,-1.02366 -0.80458,-0.93996 -0.87981,-1.38029 -0.85383,-4.99827 l 0.0232,-3.21474 -1.08935,-0.0808 c -0.59916,-0.0447 -1.87969,-0.10907 -2.84562,-0.1433 -3.87534,-0.1373 -6.48683,-0.70739 -9.39157,-2.0501 -0.61161,-0.28272 -1.16201,-0.48315 -1.22311,-0.44538 -0.0611,0.0378 -0.11247,1.01085 -0.11414,2.16248 -0.003,1.15162 -0.14553,4.60593 -0.31965,7.67624 -0.17409,3.07034 -0.31811,5.6671 -0.32001,5.7706 -0.003,0.10349 -0.14028,3.15186 -0.30746,6.77417 -0.16721,3.62226 -0.32963,7.1505 -0.36095,7.84046 -0.0804,1.76951 -0.35025,9.84339 -0.35025,9.84339 l -0.0115,1.54279 c 0,0 -0.21575,18.35824 0.49354,19.66144 z"
         style="fill:#ffb09a;fill-opacity:1;stroke:none;stroke-width:0.37562811px;stroke-linecap:butt;stroke-linejoin:miter;stroke-opacity:1" />
      <path
         inkscape:connector-curvature="0"
         id="path4697-2"
         d="m 28.355986,38.32529 c 0.31408,-0.0666 0.74613,-0.22762 0.9602,-0.35778 0.3723,-0.22642 0.39256,-0.28199 0.46682,-1.28079 0.3164,-4.25465 0.47408,-6.05945 0.64165,-7.34425 1.23669,-9.48168 4.69658,-14.62865 11.27688,-16.77573 4.53761,-1.48054 11.16219,-1.42076 15.68266,0.14155 6.25954,2.16332 9.68473,7.20825 10.97178,16.16018 0.25215,1.75373 0.54606,4.81317 0.70898,7.37972 0.0962,1.51456 0.2108,1.7293 1.05178,1.97014 2.08207,0.59629 4.88942,0.26472 5.10728,-0.60319 0.11409,-0.45455 -0.0614,-5.1433 -0.27566,-7.36674 C 73.800496,18.33813 69.164016,11.0981 60.555626,7.77353 55.346366,5.7617 47.127156,5.40317 41.089056,6.92436 c -2.58654,0.65164 -5.13738,1.74562 -7.09859,3.04438 -5.25956,3.483 -8.58434,9.57386 -9.76897,17.89613 -0.45644,3.20684 -0.78161,9.34681 -0.52078,9.83416 0.41241,0.77058 2.59229,1.06386 4.65527,0.62626 z"
         style="fill:#ffb09a;fill-opacity:1;stroke:none;stroke-width:0.37562811px;stroke-linecap:butt;stroke-linejoin:miter;stroke-opacity:1" />
      <path
         inkscape:connector-curvature="0"
         id="path4697-3"
         d="m 21.627116,31.15789 c 0.0791,-1.05012 1.00396,-4.60891 0.62516,-4.7806 -1.73025,-0.0915 -7.10611,-0.53874 -8.83571,-0.70177 -1.39509,-0.11752 -4.5168,-0.63603 -5.1974,-0.31307 -0.59193,0.28091 -1.01942,1.15315 -1.11789,2.28098 l -0.0792,0.90756 0.84745,0.42551 c 3.51028,1.76246 6.51511,2.34821 12.54306,2.44504 1.10739,0.0178 1.16046,0.006 1.21455,-0.26365 z"
         style="fill:#ed9279;fill-opacity:1;stroke:none;stroke-width:0.37562811px;stroke-linecap:butt;stroke-linejoin:miter;stroke-opacity:1" />
      <path
         inkscape:connector-curvature="0"
         id="path4697-8"
         d="m 59.993596,31.44453 6.49192,-0.004 V 30.9862 c 0,-0.53516 -0.33954,-2.92872 -0.505,-3.55998 l -0.11508,-0.43908 h -16.43222 -16.43219 l -0.13223,0.56451 c -0.16185,0.69113 -0.49954,3.07101 -0.50268,3.54284 l -0.002,0.34389 6.80553,0.0324 c 3.74304,0.0178 8.49907,0.0203 10.56893,0.006 2.0699,-0.0148 6.68478,-0.029 10.25534,-0.0314 z"
         style="fill:#ed9279;fill-opacity:1;stroke:none;stroke-width:0.37562811px;stroke-linecap:butt;stroke-linejoin:miter;stroke-opacity:1" />
      <path
         inkscape:connector-curvature="0"
         id="path4697-7"
         d="m 86.494376,31.11919 c 1.70996,-0.21406 3.89122,-0.71758 5.11196,-1.18008 0.86236,-0.3267 0.87348,0.0395 0.33512,-1.32288 -0.8856,-2.24115 -2.28924,-2.42127 -5.19619,-2.47224 -1.98307,-0.0348 -7.23264,0.26495 -7.23264,0.26495 l -2.88379,0.14425 c -0.86587,0.0433 -0.008,1.84021 0.37563,3.3736 0.0679,0.62098 0.26595,1.23959 0.26718,1.28831 0.007,0.27327 6.8411,0.20222 9.22262,-0.0959 z"
         style="fill:#ed9279;fill-opacity:1;stroke:none;stroke-width:0.37562811px;stroke-linecap:butt;stroke-linejoin:miter;stroke-opacity:1" />
      <path
         inkscape:connector-curvature="0"
         id="path4697-5"
         d="m 80.700256,89.14596 c 0.0509,0 0.48116,-0.19573 0.9562,-0.43493 2.20968,-1.20135 3.3686,-2.76337 4.58434,-4.89656 0,0 0.18777,0.17819 0.98878,-2.25807 1.07054,-3.29836 1.3129,-6.58234 0.6481,-8.78255 -0.23112,-0.765 -0.88834,-1.92963 -1.14435,-2.02785 -0.10329,-0.0397 -0.56785,0.0478 -1.03232,0.19447 -1.02232,0.32262 -2.89505,0.36953 -3.43837,0.0861 -0.19907,-0.10385 -0.37316,-0.12983 -0.4151,-0.062 -0.0398,0.0643 -0.12871,0.1169 -0.19768,0.1169 -0.069,0 -0.0916,-0.0548 -0.0502,-0.12175 0.0414,-0.067 -0.0793,-0.16058 -0.26826,-0.20798 -0.22152,-0.0556 -0.3611,-0.0334 -0.39305,0.0624 -1.33558,2.38115 -2.49997,2.12572 -3.73663,0.0711 -0.12991,-0.22109 -0.16654,-0.21938 -0.97485,0.046 -1.15053,0.37768 -2.77106,0.37955 -3.91361,0.004 l -0.8262,-0.27123 -0.29339,0.30258 c -0.58968,0.4866 -1.15555,2.45038 -1.15555,2.45038 -0.0565,0.26764 -0.1021,1.38979 -0.10126,2.49375 0.002,2.07247 0.15116,3.12345 0.69515,4.88473 0.1778,0.72386 0.4977,1.5269 0.98308,2.49825 2.01899,4.03267 4.63729,6.11544 7.64225,6.0792 0.87902,0.21893 4.54371,-1.68684 1.44291,-0.22737 z"
         style="fill:#e94242;fill-opacity:1;stroke:none;stroke-width:0.37562811px;stroke-linecap:butt;stroke-linejoin:miter;stroke-opacity:1" />
      <path
         inkscape:connector-curvature="0"
         id="path4697-9"
         d="m 72.405816,69.2317 0.71424,-0.32831 -0.36691,-0.4179 c -0.50433,-0.57438 -0.73835,-1.06218 -0.82983,-1.72954 -0.0944,-0.68827 0.0367,-0.72294 0.71165,-0.18833 0.7444,0.58959 2.50858,1.3266 2.50505,1.04653 0,-0.0592 -0.0854,-0.38481 -0.18818,-0.72349 -0.1909,-0.62931 -0.24726,-1.65233 -0.11066,-2.00832 0.13391,-0.349 0.36277,-0.21727 1.03551,0.59597 0.69094,0.83524 1.73896,1.71451 2.04353,1.71451 0.1075,0 0.24138,-0.22997 0.33275,-0.57161 0.18487,-0.69119 0.64377,-1.18462 1.10175,-1.18462 0.73822,0 1.47227,0.76656 1.26108,1.3169 -0.14864,0.38742 0.23308,0.16579 0.91788,-0.53287 0.38889,-0.39674 0.87878,-0.94198 1.08869,-1.21169 0.22905,-0.29436 0.43989,-0.45435 0.52735,-0.40031 0.29309,0.18115 0.1365,1.58517 -0.29166,2.61559 -0.13064,0.31435 0.0289,0.28503 1.53426,-0.28227 0.73239,-0.27599 1.40616,-0.50179 1.49727,-0.50179 0.44756,0 0.0229,1.51857 -0.5763,2.06039 l -0.26688,0.24138"
         style="fill:#008a12;fill-opacity:1;stroke:none;stroke-width:0.37562811px;stroke-linecap:butt;stroke-linejoin:miter;stroke-opacity:1" />
    </g>
    <g
       id="g6127"
       transform="translate(49.999999,-100)">
      <rect
         y="-3.0859376e-006"
         x="-4.7460938e-007"
         height="100"
         width="100"
         id="rect4580-08"
         style="opacity:1;fill:#000000;fill-opacity:0.25823047;stroke:none;stroke-width:0.51077282;stroke-linecap:butt;stroke-linejoin:miter;stroke-miterlimit:4;stroke-dasharray:none;stroke-dashoffset:0;stroke-opacity:1;paint-order:normal" />
      <path
         id="path5540"
         d="m 67.118871,17.20259 c 0.36061,0.0899 0.48303,0.33584 0.98491,0.52251 2.33041,0.86678 5.59904,2.70449 7.92729,4.45693 5.93451,4.46683 10.37561,11.45419 12.55261,19.74955 0.12609,0.48047 0.34902,0.75237 1.16248,1.41789 1.35808,1.11109 3.47272,3.35964 4.46063,4.74313 2.39476,3.35363 3.72138,6.69177 4.50616,11.33875 0.32527,1.92603 0.38275,2.68618 0.37785,4.99663 -0.016,7.53293 -2.36203,13.62002 -7.04839,18.2878 -6.71702,6.6904 -18.08783,10.32361 -35.00182,11.18379 -2.4916,0.12672 -10.73777,0.15705 -13.19478,0.0485 C 23.624331,93.055 10.830951,88.12235 4.852038,78.91353 3.322163,76.55719 2.107798,73.51062 1.564882,70.66678 0.98662,67.63781 0.915517,66.96128 0.909192,64.42794 c -0.0064,-2.5606 0.09687,-3.57822 0.654296,-6.44801 0.643661,-3.31375 2.217397,-7.03327 4.098557,-9.68692 0.937736,-1.32282 3.562476,-4.10685 4.946626,-5.24683 0.65166,-0.53671 0.70135,-0.63107 1.11498,-2.11736 1.25122,-4.49602 3.48143,-9.07133 6.16286,-12.64322 1.40501,-1.87159 4.2821,-4.74921 6.13459,-6.13569 2.35786,-1.76473 5.10765,-3.31396 7.80718,-4.39856 0.57153,-0.22963 0.69233,-0.47622 1.09156,-0.57474 11.06765,-2.73127 23.13773,-2.73094 34.19903,0.0259 z"
         style="fill:#79cea0;fill-opacity:1;stroke:none;stroke-width:0.41117799px;stroke-linecap:butt;stroke-linejoin:miter;stroke-opacity:1"
         inkscape:connector-curvature="0" />
      <path
         inkscape:connector-curvature="0"
         id="path4753-4"
         d="m 47.390041,77.19501 c -0.19157,-0.5485 -0.44956,-2.61283 -0.57333,-4.58741 l -0.22501,-3.59014 -4.5874,-0.23927 c -4.24271,-0.22128 -4.58739,-0.38301 -4.58739,-2.15228 0,-1.74112 0.37073,-1.93469 4.12577,-2.15416 5.67409,-0.33165 6.04837,-2.07453 0.51361,-2.39163 -3.70227,-0.21212 -4.27284,-0.47079 -4.49544,-2.03802 -0.22284,-1.56908 0.0977,-1.79508 2.5458,-1.79508 1.54041,0 3.02555,-0.36372 3.30029,-0.8083 0.27477,-0.44456 -1.49912,-3.96112 -3.94195,-7.81454 -2.44283,-3.85342 -4.44152,-7.43884 -4.44152,-7.96759 0,-0.56177 1.12945,-0.96136 2.71727,-0.96136 2.5548,0 2.97221,0.41392 6.98083,6.92241 2.34495,3.80732 4.68691,7.0599 5.20434,7.22793 0.51744,0.16805 2.80651,-2.49827 5.08683,-5.92514 2.28031,-3.42688 4.70793,-6.67946 5.39472,-7.22794 1.49694,-1.19554 4.64322,-1.31337 5.33153,-0.19966 0.27112,0.43866 -1.68227,3.94174 -4.34087,7.78456 -2.65859,3.84284 -4.8338,7.4114 -4.8338,7.93015 0,0.51875 1.3463,1.05459 2.99178,1.19077 2.37738,0.19678 2.99178,0.57531 2.99178,1.84325 0,1.3851 -0.61215,1.62738 -4.64008,1.83644 -5.94344,0.3085 -5.73602,1.99361 0.31407,2.55151 3.66117,0.3376 4.32601,0.64413 4.32601,1.99452 0,1.35385 -0.66484,1.65606 -4.38795,1.99452 l -4.38794,0.39891 -0.7275,4.58741 c -0.68981,4.34988 -0.84603,4.58741 -3.01681,4.58741 -1.25914,0 -2.44607,-0.44878 -2.63764,-0.99727 z"
         style="fill:#24c66f;fill-opacity:1;stroke:none;stroke-width:0.41117799px;stroke-linecap:butt;stroke-linejoin:miter;stroke-opacity:1" />
      <path
         inkscape:connector-curvature="0"
         id="path4753-2"
         d="m 13.014511,40.46317 c 0.60209,-0.37906 2.01221,-1.15362 3.13361,-1.72124 l 2.03891,-1.03203 0.89503,-1.75731 c 4.13475,-8.11822 10.76052,-13.28574 19.99182,-15.59186 6.86063,-1.71388 15.62256,-1.69255 22.51592,0.0548 9.06471,2.29778 15.71312,7.55215 19.80235,15.65015 l 0.82884,1.64137 1.90429,0.95371 c 1.04735,0.52454 2.48093,1.30943 3.18573,1.7442 0.7048,0.43477 1.31779,0.75415 1.3622,0.70974 0.23791,-0.23792 -1.43022,-4.84387 -2.67318,-7.38103 -4.51295,-9.21198 -12.19623,-15.31163 -22.55224,-17.9039 -4.92055,-1.23169 -7.54898,-1.53692 -13.23493,-1.53692 -5.68593,0 -8.31436,0.30523 -13.23492,1.53692 -2.90003,0.72593 -5.03224,1.49719 -7.5326,2.7247 -8.01989,3.93723 -13.82746,10.71742 -16.92045,19.75421 -0.73,2.13285 -0.91257,2.84367 -0.73035,2.84367 0.0689,0 0.61789,-0.31014 1.21997,-0.68921 z"
         style="fill:#d5dee1;fill-opacity:1;stroke:none;stroke-width:0.41990367px;stroke-linecap:butt;stroke-linejoin:miter;stroke-opacity:1" />
      <path
         sodipodi:nodetypes="ccccccccsccccc"
         inkscape:connector-curvature="0"
         id="path5544"
         d="m 49.972661,12.57772 c -0.0898,0.17986 -0.47955,0.36577 -0.47955,0.36577 -0.83361,0.63583 -1.56621,0.82017 -2.88279,0.72535 -1.16786,-0.0841 -1.18747,-0.0799 -1.97615,0.42462 -2.32589,1.05336 -10.50446,4.12917 -12.08999,2.48812 -0.75817,-0.77549 -0.93577,-2.16988 -0.37782,-2.96647 0.37777,-0.53934 0.99332,-0.7476 3.47947,-1.17725 1.31825,-0.22782 2.92887,-0.58228 3.57915,-0.78771 2.32123,-0.73328 4.04714,-1.67407 4.04714,-2.20611 0,-0.64715 0.51465,-1.69393 1.14055,-2.31982 1.37631,-1.37631 3.5754,-1.52301 5.12401,-0.34183 0,0 0.38788,0.18377 0.47569,0.36283 0.79735,1.62589 0.7695,3.81248 -0.0397,5.4325 z"
         style="fill:#d5dee1;fill-opacity:1;stroke:none;stroke-width:0.41117799px;stroke-linecap:butt;stroke-linejoin:miter;stroke-opacity:1" />
      <path
         sodipodi:nodetypes="cccaaccccccccc"
         inkscape:connector-curvature="0"
         id="path4753-8"
         d="m 55.388381,14.09131 c -0.7891,-0.50479 -0.85657,-0.52161 -1.721,-0.42903 -1.22351,0.13103 -1.91094,-0.0104 -2.87675,-0.59203 0,0 -0.66239,-0.2149 -0.81797,-0.49256 -0.88519,-1.57977 -0.81155,-3.83416 0.0397,-5.43247 0.11573,-0.21729 0.60983,-0.41662 0.60983,-0.41662 0.87679,-0.59901 1.58648,-0.79215 2.60909,-0.71006 0.98297,0.0789 1.54467,0.32217 2.32416,1.00658 0.57937,0.50868 1.19471,1.68226 1.1969,2.2827 0.002,0.47871 0.40636,0.80794 1.81408,1.47614 1.50421,0.71398 3.54425,1.28925 5.8723,1.6559 2.3373,0.36811 3.0938,0.65246 3.49754,1.31468 0.52128,0.85501 0.29222,2.16949 -0.50716,2.91032 -2.52805,2.31054 -9.55534,-0.97021 -12.04074,-2.57355 z"
         style="fill:#d5dee1;fill-opacity:1;stroke:none;stroke-width:0.41117799px;stroke-linecap:butt;stroke-linejoin:miter;stroke-opacity:1" />
      <path
         d="m 54.140921,12.7886 c 2.52934,-1.05658 2.52934,-4.80851 0,-5.86508 -2.18697,-0.91354 -4.60776,0.87423 -4.38088,3.23531 0.19765,2.05708 2.47673,3.42517 4.38088,2.62977 z m -5.63964,-0.07647 c 0.96286,-0.4526 1.03461,-0.59358 0.73136,-1.43688 -0.32499,-0.90378 -0.32669,-1.89551 -0.005,-2.86438 l 0.25187,-0.75831 -0.4146,-0.33213 c -1.38406,-1.10877 -3.58101,-0.71139 -4.60272,0.83251 -0.47918,0.72408 -0.61906,2.08081 -0.29443,2.85564 0.71982,1.7181 2.6708,2.48506 4.33339,1.70355 z"
         style="fill:#d2d256;fill-opacity:1;stroke:none;stroke-width:0.41117799px;stroke-linecap:butt;stroke-linejoin:miter;stroke-opacity:1"
         id="path4753-0"
         inkscape:connector-curvature="0" />
    </g>
    <g
       id="g6145"
       transform="translate(150,-200.00001)">
      <rect
         y="-3.0859376e-006"
         x="-1.4746093e-006"
         height="100"
         width="100"
         id="rect4580-18"
         style="opacity:1;fill:#000000;fill-opacity:0.25823047;stroke:none;stroke-width:0.51077282;stroke-linecap:butt;stroke-linejoin:miter;stroke-miterlimit:4;stroke-dasharray:none;stroke-dashoffset:0;stroke-opacity:1;paint-order:normal" />
      <path
         d="M 15.70908,6.82757 C 13.86416,7.45426 12.44025,8.39705 10.85768,10.0398 7.26046,13.77379 7.09419,14.76746 7.0042,33.06458 L 6.9274,48.68143 27.86499,48.7844 48.80261,48.88737 48.90792,27.4739 49.01324,6.06042 33.66687,5.99862 C 19.87658,5.94442 18.05565,6.02872 15.70909,6.82571 Z m 68.78853,0.16169 c 1.84165,0.63626 3.26064,1.58644 4.83465,3.23739 3.57777,3.75264 3.73888,4.74715 3.73378,23.0445 l -0.004,15.61703 -20.93783,-0.006 -20.93788,-0.006 0.006,-21.41374 0.006,-21.41373 15.34648,0.0179 c 13.79038,0.0175 15.61085,0.11124 17.95324,0.9204 z M 15.50247,93.08357 C 13.66066,92.44782 12.2414,91.49804 10.66693,89.84752 7.08811,86.09589 6.92673,85.10141 6.92673,66.80407 V 51.18703 H 27.86457 48.80245 V 72.60077 94.0145 L 33.45597,94.0009 C 19.66558,93.9873 17.84508,93.89403 15.50247,93.08551 Z"
         style="fill:#87d955;fill-opacity:1;stroke:none;stroke-width:0.36067191px;stroke-linecap:butt;stroke-linejoin:miter;stroke-opacity:1"
         id="path5574-2"
         inkscape:connector-curvature="0" />
      <path
         inkscape:connector-curvature="0"
         id="path5574-7"
         d="m 84.51535,93.06015 c 1.84137,-0.63705 3.25996,-1.58782 4.83328,-3.23944 3.57618,-3.75415 3.73687,-4.74873 3.72405,-23.04607 l -0.011,-15.61704 -20.93784,0.0147 -20.93786,0.0146 0.015,21.41373 0.015,21.41373 15.34646,-0.0244 c 13.79038,-0.0233 15.61081,-0.11783 17.95285,-0.92798 z"
         style="fill:#ffd747;fill-opacity:1;stroke:none;stroke-width:0.36067191px;stroke-linecap:butt;stroke-linejoin:miter;stroke-opacity:1" />
      <path
         d="m 25.25409,76.98121 2.58594,-2.61846 2.75208,2.72336 2.75211,2.72336 1.05509,-1.05509 1.05512,-1.05509 -2.48354,-2.51478 c -1.36593,-1.3831 -2.48354,-2.71544 -2.48354,-2.96068 0,-0.24518 1.11761,-1.57757 2.48354,-2.96072 l 2.48354,-2.51475 -1.05445,-1.0544 -1.05439,-1.05441 -2.51475,2.48351 c -1.38314,1.36593 -2.71544,2.48354 -2.96072,2.48354 -0.24518,0 -1.57758,-1.11761 -2.96068,-2.48354 l -2.51478,-2.48351 -1.05994,1.05994 -1.05997,1.05997 2.72271,2.72274 2.72271,2.72271 -2.7012,2.72964 c -2.65591,2.68392 -2.68647,2.7459 -1.82534,3.69738 0.48165,0.53225 1.01049,0.96774 1.17514,0.96774 0.16459,0 1.46308,-1.17832 2.88532,-2.61846 z m 38.548,-0.11251 v -1.18965 h 8.32755 8.32756 v 1.18965 1.18967 h -8.32756 -8.32755 z m 0,-8.56549 v -1.18963 h 8.32755 8.32756 v 1.18963 1.18966 H 72.12964 63.80209 Z M 29.63581,32.68993 v -3.56895 h 3.56898 3.56895 V 27.45547 25.78993 H 33.20479 29.63581 V 22.22099 18.65203 H 27.9703 26.30479 v 3.56896 3.56894 H 22.73585 19.1669 v 1.66554 1.66551 h 3.56895 3.56894 v 3.56895 3.56895 h 1.66551 1.66551 z M 80.92948,27.46864 V 25.8031 h -8.80343 -8.80343 v 1.66554 1.66551 h 8.80343 8.80343 z"
         style="fill:#ffffc0;fill-opacity:1;stroke:none;stroke-width:0.36067191px;stroke-linecap:butt;stroke-linejoin:miter;stroke-opacity:1"
         id="path5574-8"
         inkscape:connector-curvature="0" />
    </g>
    <g
       id="g6159"
       transform="translate(150.00001,-100)">
      <rect
         y="-1.4794922e-006"
         x="-4.3847658e-006"
         height="100"
         width="100"
         id="rect4580-2"
         style="opacity:1;fill:#000000;fill-opacity:0.25823047;stroke:none;stroke-width:0.51077282;stroke-linecap:butt;stroke-linejoin:miter;stroke-miterlimit:4;stroke-dasharray:none;stroke-dashoffset:0;stroke-opacity:1;paint-order:normal" />
      <path
         d="m 52.37438,91.03152 c -0.0785,0.49778 0.20045,2.51717 -0.50657,2.24754 l -2.31062,0.38677 C 49.23179,93.54174 40.31342,89.19824 29.8756,84.48631 16.43139,78.41718 10.30032,75.79843 9.82982,75.34162 8.80238,74.34407 7.46355,71.25253 7.46496,68.27968 7.46696,63.83865 8.65607,54.64399 9.62924,48.18806 12.44188,29.52916 18.631,17.66156 23.62491,13.68272 c 1.81239,-0.89806 2.40319,-1.0783 4.57626,-1.14406 9.3466,-0.83965 18.41297,3.11857 27.41831,5.57126 11.64065,3.17043 20.86844,5.46807 21.13167,5.53462 0.26866,0.0679 1.54018,0.3389 1.40933,0.39356 -11.2246,4.68856 -18.17081,18.69322 -25.7861,66.99342 z M 73.757,81.16637 c -1.27365,1.60092 -13.55416,10.18067 -14.93138,10.65037 -0.51806,0.17669 -1.53035,0.32125 -2.24956,0.32125 -1.13989,0 -1.37383,0.0718 -1.82334,0.55983 -1.19404,1.29628 -3.19464,1.66904 -5.19534,0.96801 h -1.9e-4 C 48.97224,93.46087 39.95277,89.43085 29.51393,84.71024 16.29273,78.73139 10.27734,75.9074 9.68751,75.40254 8.69641,74.5542 7.64508,72.53677 7.32383,70.86681 6.64357,67.33062 8.56658,50.44208 10.74105,40.8555 14.87973,22.60939 21.20139,12.28103 29.57277,10.08819 30.90958,9.738 31.08132,9.58057 31.44429,9.27477 c 0,0 1.60229,-1.51021 2.40122,-2.00399 0.47065,-0.29087 2.8732,-1.22959 6.8685,-1.28528 6.0239,0.23779 8.32809,2.2302 8.62583,5.21897 l 0.005,2.55583 5.31779,1.43545 c 2.92479,0.7895 5.40131,1.43413 5.5034,1.43252 0.10208,-0.002 0.77512,-0.5544 1.49564,-1.22842 3.9762,-3.71953 10.55794,-4.87785 16.49225,-2.90246 4.90148,1.63159 9.35858,5.90072 11.62626,11.13596 1.79248,4.13819 2.45559,7.84577 3.00106,16.77937 0.35653,5.83932 -2.12651,17.86798 -5.07004,24.56089 -2.7291,4.81968 -7.21152,8.81353 -10.71385,12.35977 -0.8282,0.55172 -3.52146,4.52569 -3.32431,3.74886 L 77.9091,64.39163 c 2.31389,-3.31837 8.11452,-25.60235 5.67221,-31.22036 0,0 -2.42759,13.31195 -3.46497,18.17927 -1.12102,5.25978 -2.07114,11.48354 -2.07114,11.48354 l -0.1361,1.55755 z"
         style="fill:#ff1720;fill-opacity:1;stroke:none;stroke-width:0.35852247px;stroke-linecap:butt;stroke-linejoin:miter;stroke-opacity:1"
         id="path5658-3"
         inkscape:connector-curvature="0" />
      <path
         inkscape:connector-curvature="0"
         id="path5658-38"
         d="m 80.11616,51.35054 c 0.75936,-6.00543 8.29981,-26.56576 -1.51293,-27.09834 -0.76376,0.27948 -1.27844,0.54302 -2.2419,0.96275 -10.46508,4.55909 -19.1286,25.58845 -23.07968,59.89351 -0.51136,4.43984 -1.00581,5.09647 0.7272,6.3166 1.44418,1.01678 3.56621,-0.44308 5.15995,-1.20431 4.50206,-2.15036 8.33199,-5.61931 11.80686,-9.19951 2.0533,-2.11554 4.54852,-4.76343 5.22529,-7.13586 0.56477,-1.97983 1.18979,-6.74812 1.77677,-10.12356 0.71927,-4.13598 0.93911,-5.94752 2.13844,-12.4113 z"
         style="fill:#c70a1a;fill-opacity:1;stroke:none;stroke-width:0.35852247px;stroke-linecap:butt;stroke-linejoin:miter;stroke-opacity:1" />
      <path
         inkscape:connector-curvature="0"
         id="path5658-7"
         d="m 69.87116,33.52579 c 0,-0.79374 0.49632,-1.42244 1.58136,-2.00313 1.32074,-0.70684 1.13542,1.23297 -0.20642,2.16069 -1.13326,0.78351 -1.37494,0.75581 -1.37494,-0.15756 z m 0.86208,13.25145 c 0.006,-0.14624 0.18597,-1.168 0.39954,-2.27057 0.46552,-1.60773 0.54093,-2.06877 0.65363,-3.04722 10e-4,-0.85424 1.27114,-7.23663 1.49267,-7.50356 0.19211,-0.23146 1.81954,-0.98277 4.09016,-1.88821 0.5591,-0.22295 0.79768,-0.44858 0.79768,-0.75436 0,-0.60736 -0.61383,-0.55724 -2.55255,0.2084 -2.05557,0.81178 -2.21581,0.8092 -2.04735,-0.0331 0.0731,-0.36561 0.13295,-0.80106 0.13295,-0.96769 0,-0.37705 2.65151,-1.64631 4.3521,-2.08332 0.69728,-0.17919 1.91771,-0.3258 2.71208,-0.3258 h 1.44429 v 0.84377 c 0,0.6829 -0.14393,0.98767 -0.75496,1.59871 -0.75212,0.75212 -0.7681,0.9159 -0.15889,1.62795 0.25757,0.30106 0.17649,1.00364 -0.60148,5.21144 -0.49456,2.67491 -0.98983,4.98311 -1.1006,5.12936 -0.11078,0.14624 -0.40809,0.26588 -0.6607,0.26588 -0.25259,0 -1.22201,0.44358 -2.15424,0.98573 -0.93223,0.54216 -2.57301,1.49937 -3.64618,2.12712 -2.02072,1.18206 -2.41722,1.3268 -2.39815,0.8755 z M 66.8932,49.6763 c 0,-1.02349 2.42178,-13.21093 2.68338,-13.50393 0.44394,-0.49724 1.74094,-1.15461 1.9216,-0.97396 0.0852,0.0852 -0.15474,1.80392 -0.53311,3.81948 -0.37837,2.01556 -0.93606,4.98649 -1.2393,6.60206 l -0.55133,2.93741 -0.9585,0.73187 c -1.07026,0.8172 -1.32274,0.89108 -1.32274,0.38707 z m -4.97106,1.45312 c -0.24724,-0.40006 1.94785,-6.97073 3.56596,-10.67413 0.62813,-1.43762 1.04328,-2.10607 1.44966,-2.33416 0.31319,-0.17579 0.63029,-0.25879 0.70465,-0.18442 0.18398,0.18397 -2.18737,12.75678 -2.45689,13.0263 -0.29239,0.29239 -3.09713,0.43541 -3.26338,0.16641 z m 7.7363,2.30583 c -2.16705,1.44986 -3.72056,1.90367 -6.51678,1.90367 -1.13032,0.0966 -2.22734,0.20981 -3.06012,-0.2661 0.0997,-1.00627 0.29978,-1.33574 0.64723,-2.81382 l 2.54834,0.22321 c 2.3458,-0.0597 3.41206,-0.52623 6.44794,-2.82116 1.28565,-0.97187 2.46666,-1.76704 2.62445,-1.76704 l 4.17905,-2.52455 c 1.10174,-0.7178 3.92717,-1.84306 3.92699,-1.56597 -3.2e-4,0.61943 -0.44102,3.42887 -0.71376,3.89964 -0.40638,0.70146 -5.38123,3.59424 -5.95325,3.59424 z m 3.65865,4.62635 c -0.36958,-0.36959 -0.32389,-0.87531 0.29457,-3.25991 0.49921,-1.92488 0.62337,-2.17863 1.27491,-2.60573 0.71672,-0.46981 1.36764,-0.61948 1.36409,-0.31364 -7.1e-4,0.0877 -0.14186,1.34695 -0.31297,2.79824 -0.25501,2.16268 -0.39567,2.72869 -0.77973,3.1375 -0.50471,0.53723 -1.42537,0.65903 -1.84087,0.24354 z m -9.50458,25.94019 c 0.0711,-0.38023 1.30247,-6.99537 2.73638,-14.70032 2.43212,-13.06875 2.64182,-14.03569 3.12422,-14.40649 l 1.8794,-1.24333 c 1.21736,-0.86684 1.32372,-0.55178 0.64276,1.90419 -0.49121,1.77161 -0.42541,2.59677 0.26573,3.33245 0.83542,0.88927 2.23761,0.81671 3.62177,-0.18743 0.19912,-0.14445 0.41444,-0.21025 0.47846,-0.14623 0.16655,0.16655 -3.0037,16.91954 -3.4044,17.99038 -0.18362,0.49071 -0.63905,1.27594 -1.01209,1.74496 -0.75186,0.94534 -7.71908,6.40309 -8.17403,6.40309 -0.20903,0 -0.2522,-0.18861 -0.1582,-0.6913 z m -8.5473,5.34013 c -0.15686,-0.19597 -0.1723,-0.76484 -0.0482,-1.77721 1.23877,-10.10524 1.61189,-12.84881 2.34325,-17.22964 0.7833,-4.69205 2.02106,-10.98666 2.541,-12.92224 0.18517,-0.68932 0.29814,-0.79767 0.83165,-0.79767 0.33957,0 0.67071,0.0863 0.73587,0.19171 0.0652,0.10543 -0.22264,1.98226 -0.63957,4.17072 -0.41693,2.18845 -0.70691,4.1123 -0.64439,4.27523 0.16711,0.43547 0.92874,0.36072 1.07676,-0.10568 0.0702,-0.22104 0.45448,-2.14958 0.85405,-4.28564 0.39957,-2.13606 0.82078,-3.97804 0.93605,-4.09329 0.28929,-0.2893 0.87626,-0.0284 0.87626,0.38957 0,0.18879 -0.47859,2.88295 -1.06356,5.98701 -0.58495,3.10405 -1.06355,5.87506 -1.06355,6.15779 0,0.57252 0.54039,0.89624 0.89843,0.5382 0.12744,-0.12744 0.74156,-2.98782 1.36471,-6.35641 0.62314,-3.3686 1.17912,-6.31942 1.2355,-6.55739 0.0701,-0.29581 0.39081,-0.51013 1.01401,-0.6776 0.50132,-0.13472 0.97652,-0.17932 1.05599,-0.0991 0.0794,0.0802 -1.1256,6.91419 -2.67795,15.18663 -2.60968,13.90702 -2.8611,15.07257 -3.33517,15.46235 -0.75469,0.62047 -1.44922,0.96343 -1.61511,0.79754 -0.0802,-0.0802 0.1689,-1.82002 0.55357,-3.86627 0.38467,-2.04623 0.64459,-3.86326 0.5776,-4.03782 -0.16823,-0.43842 -0.93147,-0.39945 -1.07456,0.0548 -0.0645,0.20473 -0.50221,2.42279 -0.97272,4.92901 -0.47052,2.50622 -0.90483,4.60611 -0.96513,4.66641 -0.0603,0.0603 -0.6619,0.14958 -1.33685,0.19841 -0.86548,0.0626 -1.29522,0.004 -1.45794,-0.19946 z"
         style="fill:#ac0a1a;fill-opacity:1;stroke:none;stroke-width:0.35852247px;stroke-linecap:butt;stroke-linejoin:miter;stroke-opacity:1" />
      <path
         inkscape:connector-curvature="0"
         id="path5658-9"
         d="m 17.21536,73.53538 c -0.32912,-0.32912 -0.52212,-0.76515 -0.52212,-1.17958 0,-0.76946 0.8162,-1.7017 1.48988,-1.7017 0.61067,0 1.62076,0.54817 1.78138,0.96673 0.44326,1.15513 -0.38223,2.43666 -1.56956,2.43666 -0.41444,0 -0.85047,-0.19299 -1.17958,-0.52211 z m 23.55138,10.66539 c -0.83314,-0.88685 -0.53843,-2.22638 0.59293,-2.69501 1.63699,-0.67806 3.01438,1.21916 1.90709,2.62685 -0.58887,0.74862 -1.82899,0.78242 -2.50002,0.0682 z"
         style="fill:#e8fc1c;fill-opacity:1;stroke:none;stroke-width:0.35852247px;stroke-linecap:butt;stroke-linejoin:miter;stroke-opacity:1" />
    </g>
    <g
       id="g6171"
       transform="translate(250,-200.00001)">
      <rect
         y="2.1728515e-006"
         x="-1.4746093e-006"
         height="100"
         width="100"
         id="rect4580-56"
         style="opacity:1;fill:#000000;fill-opacity:0.25823047;stroke:none;stroke-width:0.51077282;stroke-linecap:butt;stroke-linejoin:miter;stroke-miterlimit:4;stroke-dasharray:none;stroke-dashoffset:0;stroke-opacity:1;paint-order:normal" />
      <path
         d="m 67.65538,5.9855 2.3614,6.67225 H 29.98322 L 32.23435,5.9855 Z m -47.46721,8.51969 h 59.62366 c 8.69249,0 15.69043,7.43957 15.69043,16.68065 v 46.14802 c 0,9.24107 -6.99794,16.68064 -15.69043,16.68064 H 20.18817 c -8.6925,0 -15.69043,-7.43957 -15.69043,-16.68064 V 31.18584 c 0,-9.24108 6.99793,-16.68065 15.69043,-16.68065 z"
         style="fill:#5cbdcc;fill-opacity:1;stroke:none;stroke-width:0.33361298px;stroke-linecap:butt;stroke-linejoin:miter;stroke-opacity:1"
         id="path5700-1"
         inkscape:connector-curvature="0" />
      <path
         d="M 69.83559,54.25984 A 19.835595,19.835595 0 0 1 50,74.09543 19.835595,19.835595 0 0 1 30.16441,54.25984 19.835595,19.835595 0 0 1 50,34.42425 19.835595,19.835595 0 0 1 69.83559,54.25984 Z M 88.13137,24.81878 a 3.1565878,3.1565878 0 0 1 -3.15659,3.15659 3.1565878,3.1565878 0 0 1 -3.15659,-3.15659 3.1565878,3.1565878 0 0 1 3.15659,-3.15659 3.1565878,3.1565878 0 0 1 3.15659,3.15659 z"
         style="fill:#fcff95;fill-opacity:1;stroke:none;stroke-width:0.2644746px;stroke-linecap:butt;stroke-linejoin:miter;stroke-opacity:1"
         id="path5700-9"
         inkscape:connector-curvature="0" />
    </g>
    <g
       id="g6179"
       transform="translate(250,-100)">
      <rect
         y="-2.5683594e-006"
         x="-1.4746093e-006"
         height="100"
         width="100"
         id="rect4580-7"
         style="opacity:1;fill:#000000;fill-opacity:0.25823047;stroke:none;stroke-width:0.51077282;stroke-linecap:butt;stroke-linejoin:miter;stroke-miterlimit:4;stroke-dasharray:none;stroke-dashoffset:0;stroke-opacity:1;paint-order:normal" />
      <path
         inkscape:connector-curvature="0"
         id="path5750"
         d="M 50,5.98564 C 28.33876,6.11116 5.98558,15.94789 5.98558,43.9291 V 94.01448 H 94.01442 V 43.9291 C 94.01442,15.60924 73.14643,5.9414 50,5.98564 Z"
         style="fill:#f92623;fill-opacity:1;stroke:none;stroke-width:0.31921878px;stroke-linecap:butt;stroke-linejoin:miter;stroke-opacity:1" />
      <path
         inkscape:connector-curvature="0"
         id="path5750-7"
         d="M 22.06831,21.45088 H 77.9316 v 9.31055 H 22.06831 Z"
         style="fill:#ffffff;fill-opacity:1;stroke:none;stroke-width:0.31921878px;stroke-linecap:butt;stroke-linejoin:miter;stroke-opacity:1" />
    </g>
    <g
       id="g5567"
       transform="translate(350,-200.00001)">
      <rect
         y="0"
         x="0"
         height="100"
         width="100"
         id="rect4580-1-5"
         style="opacity:1;fill:#000000;fill-opacity:0.25823047;stroke:none;stroke-width:0.51077282;stroke-linecap:butt;stroke-linejoin:miter;stroke-miterlimit:4;stroke-dasharray:none;stroke-dashoffset:0;stroke-opacity:1;paint-order:normal" />
      <path
         d="m 41.685876,58.750963 c 1.46415,-0.660651 20.141531,-11.534337 20.842009,-12.133899 1.869699,-1.600336 1.866522,-4.097709 -0.0072,-5.701589 -0.5485,-0.469452 -17.941695,-10.631832 -20.658401,-12.070122 -2.27243,-1.173798 -3.093898,-0.475366 -4.116255,0.160055 -0.849206,0.647126 -1.310964,1.585006 -1.525654,3.098774 -0.173336,1.222169 -0.09012,22.502186 0.09345,23.897666 0.103246,0.784865 0.603286,1.837636 1.075774,2.264904 1.024001,0.925999 2.85887,1.132797 4.29628,0.484211 z M 14.712316,14.869526 h 70.628776 c 4.61047,0 8.322147,3.711678 8.322147,8.322147 v 40.955704 c 0,4.61047 -3.711677,8.322147 -8.322147,8.322147 H 14.712316 c -4.61047,0 -8.3221478,-3.711677 -8.3221478,-8.322147 V 23.191673 c 0,-4.610469 3.7116778,-8.322147 8.3221478,-8.322147 z"
         style="fill:#ffffff;fill-opacity:1;stroke:none;stroke-width:0.17640831;stroke-opacity:1"
         id="path4654"
         inkscape:connector-curvature="0" />
      <path
         sodipodi:nodetypes="cccc"
         id="path4660"
         d="m 92.920136,79.55565 v 3.17539 H 7.0798568 v -3.17539"
         style="fill:#ffffff;fill-opacity:1;stroke:none;stroke-width:0.17640831;stroke-opacity:1"
         inkscape:connector-curvature="0" />
      <path
         d="m 69.395976,81.143349 a 3.9932885,3.9932885 0 0 1 -3.993289,3.993288 3.9932885,3.9932885 0 0 1 -3.993288,-3.993288 3.9932885,3.9932885 0 0 1 3.993288,-3.993289 3.9932885,3.9932885 0 0 1 3.993289,3.993289 z"
         style="opacity:1;fill:#faffff;fill-opacity:0.98290597;stroke:none;stroke-width:2.0517242;stroke-linecap:square;stroke-linejoin:miter;stroke-miterlimit:4;stroke-dasharray:none;stroke-dashoffset:0;stroke-opacity:1;paint-order:normal"
         id="path4801"
         inkscape:connector-curvature="0" />
    </g>
    <g
       id="g5602"
       transform="translate(350,-100)">
      <rect
         y="0"
         x="0"
         height="100"
         width="100"
         id="rect4580-1-5-3"
         style="opacity:1;fill:#000000;fill-opacity:0.25823047;stroke:none;stroke-width:0.51077282;stroke-linecap:butt;stroke-linejoin:miter;stroke-miterlimit:4;stroke-dasharray:none;stroke-dashoffset:0;stroke-opacity:1;paint-order:normal" />
      <path
         d="m 40.716877,66.785245 c 1.62956,-0.735288 22.416994,-12.837415 23.196607,-13.504711 2.080926,-1.781132 2.07739,-4.560643 -0.008,-6.345718 -0.610465,-0.52249 -19.968634,-11.83295 -22.992256,-13.43373 -2.529154,-1.306405 -3.443427,-0.52907 -4.581283,0.178137 -0.945144,0.720234 -1.459069,1.76407 -1.698014,3.448854 -0.192918,1.360242 -0.100303,25.044341 0.104008,26.597474 0.11491,0.873534 0.671441,2.045241 1.197309,2.520779 1.139686,1.030613 3.181847,1.260773 4.781646,0.538915 z M 10.696014,17.946359 h 78.60797 c 5.131331,0 9.262334,4.131001 9.262334,9.262331 v 45.582621 c 0,5.131332 -4.131003,9.262331 -9.262334,9.262331 h -78.60797 c -5.1313325,0 -9.2623319,-4.130999 -9.2623319,-9.262331 V 27.20869 c 0,-5.131331 4.1309994,-9.262331 9.2623319,-9.262331 z"
         style="fill:#ffffff;fill-opacity:1;stroke:none;stroke-width:0.1963378;stroke-opacity:1"
         id="path4654-6"
         inkscape:connector-curvature="0" />
    </g>
  </g>
</svg>
