<?xml version="1.0" encoding="UTF-8" standalone="no"?><!-- Generator: Gravit.io --><svg xmlns="http://www.w3.org/2000/svg" xmlns:xlink="http://www.w3.org/1999/xlink" style="isolation:isolate" viewBox="1015.864 -272 874.977 597" width="874.977pt" height="597pt"><g><rect x="1015.864" y="-272" width="874.977" height="597" transform="matrix(1,0,0,1,0,0)" fill="rgb(255,255,255)"/><path d=" M 1337.777 97.179 C 1348.54 110.164 1355.013 126.832 1355.013 145 L 1280 145 L 1337.777 97.179 Z " fill="rgb(68,77,244)"/><path d=" M 1123.876 241.632 C 1137.545 255.222 1146.013 274.04 1146.013 294.819 L 1071 294.819 L 1123.876 241.632 Z " fill="rgb(44,159,26)"/><path d=" M 1730.718 -149.034 C 1739.708 -136.665 1745.013 -121.447 1745.013 -105 L 1670 -105 L 1730.718 -149.034 Z " fill="rgb(255,191,52)"/><line x1="1070" y1="-245" x2="1070" y2="302.5" vector-effect="non-scaling-stroke" stroke-width="2" stroke="rgb(49,38,64)" stroke-linejoin="miter" stroke-linecap="square" stroke-miterlimit="3"/><line x1="1062.5" y1="-95" x2="1077.5" y2="-95" vector-effect="non-scaling-stroke" stroke-width="2" stroke="rgb(49,38,64)" stroke-linejoin="miter" stroke-linecap="square" stroke-miterlimit="3"/><line x1="1062.5" y1="-65" x2="1077.5" y2="-65" vector-effect="non-scaling-stroke" stroke-width="2" stroke="rgb(49,38,64)" stroke-linejoin="miter" stroke-linecap="square" stroke-miterlimit="3"/><line x1="1062.5" y1="-125" x2="1077.5" y2="-125" vector-effect="non-scaling-stroke" stroke-width="2" stroke="rgb(49,38,64)" stroke-linejoin="miter" stroke-linecap="square" stroke-miterlimit="3"/><line x1="1062.5" y1="-5" x2="1077.5" y2="-5" vector-effect="non-scaling-stroke" stroke-width="2" stroke="rgb(49,38,64)" stroke-linejoin="miter" stroke-linecap="square" stroke-miterlimit="3"/><line x1="1062.5" y1="55" x2="1077.5" y2="55" vector-effect="non-scaling-stroke" stroke-width="2" stroke="rgb(49,38,64)" stroke-linejoin="miter" stroke-linecap="square" stroke-miterlimit="3"/><line x1="1062.5" y1="-35" x2="1077.5" y2="-35" vector-effect="non-scaling-stroke" stroke-width="2" stroke="rgb(49,38,64)" stroke-linejoin="miter" stroke-linecap="square" stroke-miterlimit="3"/><line x1="1062.5" y1="115" x2="1077.5" y2="115" vector-effect="non-scaling-stroke" stroke-width="2" stroke="rgb(49,38,64)" stroke-linejoin="miter" stroke-linecap="square" stroke-miterlimit="3"/><line x1="1062.5" y1="175" x2="1077.5" y2="175" vector-effect="non-scaling-stroke" stroke-width="2" stroke="rgb(49,38,64)" stroke-linejoin="miter" stroke-linecap="square" stroke-miterlimit="3"/><line x1="1062.5" y1="25" x2="1077.5" y2="25" vector-effect="non-scaling-stroke" stroke-width="2" stroke="rgb(49,38,64)" stroke-linejoin="miter" stroke-linecap="square" stroke-miterlimit="3"/><line x1="1062.5" y1="145" x2="1077.5" y2="145" vector-effect="non-scaling-stroke" stroke-width="2" stroke="rgb(49,38,64)" stroke-linejoin="miter" stroke-linecap="square" stroke-miterlimit="3"/><line x1="1062.5" y1="205" x2="1077.5" y2="205" vector-effect="non-scaling-stroke" stroke-width="2" stroke="rgb(49,38,64)" stroke-linejoin="miter" stroke-linecap="square" stroke-miterlimit="3"/><line x1="1062.5" y1="85" x2="1077.5" y2="85" vector-effect="non-scaling-stroke" stroke-width="2" stroke="rgb(49,38,64)" stroke-linejoin="miter" stroke-linecap="square" stroke-miterlimit="3"/><line x1="1062.5" y1="265" x2="1077.5" y2="265" vector-effect="non-scaling-stroke" stroke-width="2" stroke="rgb(49,38,64)" stroke-linejoin="miter" stroke-linecap="square" stroke-miterlimit="3"/><line x1="1062.5" y1="235" x2="1077.5" y2="235" vector-effect="non-scaling-stroke" stroke-width="2" stroke="rgb(49,38,64)" stroke-linejoin="miter" stroke-linecap="square" stroke-miterlimit="3"/><line x1="1062.5" y1="-185" x2="1077.5" y2="-185" vector-effect="non-scaling-stroke" stroke-width="2" stroke="rgb(49,38,64)" stroke-linejoin="miter" stroke-linecap="square" stroke-miterlimit="3"/><line x1="1062.5" y1="-155" x2="1077.5" y2="-155" vector-effect="non-scaling-stroke" stroke-width="2" stroke="rgb(49,38,64)" stroke-linejoin="miter" stroke-linecap="square" stroke-miterlimit="3"/><line x1="1062.5" y1="-215" x2="1077.5" y2="-215" vector-effect="non-scaling-stroke" stroke-width="2" stroke="rgb(49,38,64)" stroke-linejoin="miter" stroke-linecap="square" stroke-miterlimit="3"/><line x1="1520" y1="295" x2="1062.5" y2="295" vector-effect="non-scaling-stroke" stroke-width="2" stroke="rgb(49,38,64)" stroke-linejoin="miter" stroke-linecap="square" stroke-miterlimit="3"/><line x1="1460" y1="287.5" x2="1460" y2="302.5" vector-effect="non-scaling-stroke" stroke-width="2" stroke="rgb(49,38,64)" stroke-linejoin="miter" stroke-linecap="square" stroke-miterlimit="3"/><line x1="1430" y1="287.5" x2="1430" y2="302.5" vector-effect="non-scaling-stroke" stroke-width="2" stroke="rgb(49,38,64)" stroke-linejoin="miter" stroke-linecap="square" stroke-miterlimit="3"/><line x1="1490" y1="287.5" x2="1490" y2="302.5" vector-effect="non-scaling-stroke" stroke-width="2" stroke="rgb(49,38,64)" stroke-linejoin="miter" stroke-linecap="square" stroke-miterlimit="3"/><line x1="1370" y1="287.5" x2="1370" y2="302.5" vector-effect="non-scaling-stroke" stroke-width="2" stroke="rgb(49,38,64)" stroke-linejoin="miter" stroke-linecap="square" stroke-miterlimit="3"/><line x1="1310" y1="287.5" x2="1310" y2="302.5" vector-effect="non-scaling-stroke" stroke-width="2" stroke="rgb(49,38,64)" stroke-linejoin="miter" stroke-linecap="square" stroke-miterlimit="3"/><line x1="1400" y1="287.5" x2="1400" y2="302.5" vector-effect="non-scaling-stroke" stroke-width="2" stroke="rgb(49,38,64)" stroke-linejoin="miter" stroke-linecap="square" stroke-miterlimit="3"/><line x1="1250" y1="287.5" x2="1250" y2="302.5" vector-effect="non-scaling-stroke" stroke-width="2" stroke="rgb(49,38,64)" stroke-linejoin="miter" stroke-linecap="square" stroke-miterlimit="3"/><line x1="1190" y1="287.5" x2="1190" y2="302.5" vector-effect="non-scaling-stroke" stroke-width="2" stroke="rgb(49,38,64)" stroke-linejoin="miter" stroke-linecap="square" stroke-miterlimit="3"/><line x1="1340" y1="287.5" x2="1340" y2="302.5" vector-effect="non-scaling-stroke" stroke-width="2" stroke="rgb(49,38,64)" stroke-linejoin="miter" stroke-linecap="square" stroke-miterlimit="3"/><line x1="1220" y1="287.5" x2="1220" y2="302.5" vector-effect="non-scaling-stroke" stroke-width="2" stroke="rgb(49,38,64)" stroke-linejoin="miter" stroke-linecap="square" stroke-miterlimit="3"/><line x1="1160" y1="287.5" x2="1160" y2="302.5" vector-effect="non-scaling-stroke" stroke-width="2" stroke="rgb(49,38,64)" stroke-linejoin="miter" stroke-linecap="square" stroke-miterlimit="3"/><line x1="1280" y1="287.5" x2="1280" y2="302.5" vector-effect="non-scaling-stroke" stroke-width="2" stroke="rgb(49,38,64)" stroke-linejoin="miter" stroke-linecap="square" stroke-miterlimit="3"/><line x1="1100" y1="287.5" x2="1100" y2="302.5" vector-effect="non-scaling-stroke" stroke-width="2" stroke="rgb(49,38,64)" stroke-linejoin="miter" stroke-linecap="square" stroke-miterlimit="3"/><line x1="1130" y1="287.5" x2="1130" y2="302.5" vector-effect="non-scaling-stroke" stroke-width="2" stroke="rgb(49,38,64)" stroke-linejoin="miter" stroke-linecap="square" stroke-miterlimit="3"/><path d=" M 1851.818 295 L 1748 295 L 1520 295" fill="none" vector-effect="non-scaling-stroke" stroke-width="2" stroke="rgb(49,38,64)" stroke-linejoin="miter" stroke-linecap="square" stroke-miterlimit="3"/><line x1="1820" y1="287.5" x2="1820" y2="302.5" vector-effect="non-scaling-stroke" stroke-width="2" stroke="rgb(49,38,64)" stroke-linejoin="miter" stroke-linecap="square" stroke-miterlimit="3"/><line x1="1760" y1="287.5" x2="1760" y2="302.5" vector-effect="non-scaling-stroke" stroke-width="2" stroke="rgb(49,38,64)" stroke-linejoin="miter" stroke-linecap="square" stroke-miterlimit="3"/><line x1="1700" y1="287.5" x2="1700" y2="302.5" vector-effect="non-scaling-stroke" stroke-width="2" stroke="rgb(49,38,64)" stroke-linejoin="miter" stroke-linecap="square" stroke-miterlimit="3"/><line x1="1640" y1="287.5" x2="1640" y2="302.5" vector-effect="non-scaling-stroke" stroke-width="2" stroke="rgb(49,38,64)" stroke-linejoin="miter" stroke-linecap="square" stroke-miterlimit="3"/><line x1="1790" y1="287.5" x2="1790" y2="302.5" vector-effect="non-scaling-stroke" stroke-width="2" stroke="rgb(49,38,64)" stroke-linejoin="miter" stroke-linecap="square" stroke-miterlimit="3"/><line x1="1670" y1="287.5" x2="1670" y2="302.5" vector-effect="non-scaling-stroke" stroke-width="2" stroke="rgb(49,38,64)" stroke-linejoin="miter" stroke-linecap="square" stroke-miterlimit="3"/><line x1="1610" y1="287.5" x2="1610" y2="302.5" vector-effect="non-scaling-stroke" stroke-width="2" stroke="rgb(49,38,64)" stroke-linejoin="miter" stroke-linecap="square" stroke-miterlimit="3"/><line x1="1730" y1="287.5" x2="1730" y2="302.5" vector-effect="non-scaling-stroke" stroke-width="2" stroke="rgb(49,38,64)" stroke-linejoin="miter" stroke-linecap="square" stroke-miterlimit="3"/><line x1="1550" y1="287.5" x2="1550" y2="302.5" vector-effect="non-scaling-stroke" stroke-width="2" stroke="rgb(49,38,64)" stroke-linejoin="miter" stroke-linecap="square" stroke-miterlimit="3"/><line x1="1520" y1="287.5" x2="1520" y2="302.5" vector-effect="non-scaling-stroke" stroke-width="2" stroke="rgb(49,38,64)" stroke-linejoin="miter" stroke-linecap="square" stroke-miterlimit="3"/><line x1="1580" y1="287.5" x2="1580" y2="302.5" vector-effect="non-scaling-stroke" stroke-width="2" stroke="rgb(49,38,64)" stroke-linejoin="miter" stroke-linecap="square" stroke-miterlimit="3"/><path d=" M 1017.711 291.171 L 1019.214 294.624 L 1020.729 291.171 L 1022.524 291.171 L 1020.327 295.456 L 1021.446 295.456 L 1021.446 296.477 L 1020.034 296.477 L 1020.034 297.269 L 1021.446 297.269 L 1021.446 298.29 L 1020.034 298.29 L 1020.034 299.558 L 1018.388 299.558 L 1018.388 298.29 L 1016.971 298.29 L 1016.971 297.269 L 1018.388 297.269 L 1018.388 296.477 L 1016.971 296.477 L 1016.971 295.456 L 1018.061 295.456 L 1015.898 291.171 L 1017.711 291.171 L 1017.711 291.171 Z  M 1027.423 291.171 L 1027.423 299.558 L 1025.651 299.558 L 1025.651 294.705 L 1025.668 293.907 L 1025.697 293.035 L 1025.697 293.035 Q 1025.255 293.477 1025.083 293.615 L 1025.083 293.615 L 1024.119 294.389 L 1023.264 293.322 L 1025.966 291.171 L 1027.423 291.171 L 1027.423 291.171 Z  M 1032.799 294.2 L 1032.799 294.2 L 1032.799 294.2 Q 1034.015 294.2 1034.735 294.882 L 1034.735 294.882 L 1034.735 294.882 Q 1035.455 295.565 1035.455 296.753 L 1035.455 296.753 L 1035.455 296.753 Q 1035.455 298.158 1034.589 298.915 L 1034.589 298.915 L 1034.589 298.915 Q 1033.722 299.673 1032.11 299.673 L 1032.11 299.673 L 1032.11 299.673 Q 1030.711 299.673 1029.85 299.219 L 1029.85 299.219 L 1029.85 297.688 L 1029.85 297.688 Q 1030.303 297.929 1030.906 298.081 L 1030.906 298.081 L 1030.906 298.081 Q 1031.508 298.233 1032.047 298.233 L 1032.047 298.233 L 1032.047 298.233 Q 1033.671 298.233 1033.671 296.902 L 1033.671 296.902 L 1033.671 296.902 Q 1033.671 295.634 1031.99 295.634 L 1031.99 295.634 L 1031.99 295.634 Q 1031.686 295.634 1031.319 295.694 L 1031.319 295.694 L 1031.319 295.694 Q 1030.952 295.754 1030.722 295.823 L 1030.722 295.823 L 1030.016 295.445 L 1030.332 291.171 L 1034.881 291.171 L 1034.881 292.674 L 1031.887 292.674 L 1031.732 294.32 L 1031.933 294.28 L 1031.933 294.28 Q 1032.283 294.2 1032.799 294.2 Z  M 1042.27 295.364 L 1042.27 295.364 L 1042.27 295.364 Q 1042.27 297.561 1041.55 298.617 L 1041.55 298.617 L 1041.55 298.617 Q 1040.83 299.673 1039.333 299.673 L 1039.333 299.673 L 1039.333 299.673 Q 1037.882 299.673 1037.144 298.583 L 1037.144 298.583 L 1037.144 298.583 Q 1036.407 297.493 1036.407 295.364 L 1036.407 295.364 L 1036.407 295.364 Q 1036.407 293.144 1037.124 292.091 L 1037.124 292.091 L 1037.124 292.091 Q 1037.842 291.039 1039.333 291.039 L 1039.333 291.039 L 1039.333 291.039 Q 1040.785 291.039 1041.527 292.14 L 1041.527 292.14 L 1041.527 292.14 Q 1042.27 293.242 1042.27 295.364 Z  M 1038.169 295.364 L 1038.169 295.364 L 1038.169 295.364 Q 1038.169 296.907 1038.435 297.576 L 1038.435 297.576 L 1038.435 297.576 Q 1038.702 298.244 1039.333 298.244 L 1039.333 298.244 L 1039.333 298.244 Q 1039.953 298.244 1040.228 297.567 L 1040.228 297.567 L 1040.228 297.567 Q 1040.503 296.89 1040.503 295.364 L 1040.503 295.364 L 1040.503 295.364 Q 1040.503 293.821 1040.225 293.147 L 1040.225 293.147 L 1040.225 293.147 Q 1039.947 292.473 1039.333 292.473 L 1039.333 292.473 L 1039.333 292.473 Q 1038.708 292.473 1038.438 293.147 L 1038.438 293.147 L 1038.438 293.147 Q 1038.169 293.821 1038.169 295.364 Z  M 1048.977 295.364 L 1048.977 295.364 L 1048.977 295.364 Q 1048.977 297.561 1048.257 298.617 L 1048.257 298.617 L 1048.257 298.617 Q 1047.537 299.673 1046.039 299.673 L 1046.039 299.673 L 1046.039 299.673 Q 1044.588 299.673 1043.851 298.583 L 1043.851 298.583 L 1043.851 298.583 Q 1043.114 297.493 1043.114 295.364 L 1043.114 295.364 L 1043.114 295.364 Q 1043.114 293.144 1043.831 292.091 L 1043.831 292.091 L 1043.831 292.091 Q 1044.548 291.039 1046.039 291.039 L 1046.039 291.039 L 1046.039 291.039 Q 1047.491 291.039 1048.234 292.14 L 1048.234 292.14 L 1048.234 292.14 Q 1048.977 293.242 1048.977 295.364 Z  M 1044.875 295.364 L 1044.875 295.364 L 1044.875 295.364 Q 1044.875 296.907 1045.142 297.576 L 1045.142 297.576 L 1045.142 297.576 Q 1045.408 298.244 1046.039 298.244 L 1046.039 298.244 L 1046.039 298.244 Q 1046.659 298.244 1046.934 297.567 L 1046.934 297.567 L 1046.934 297.567 Q 1047.21 296.89 1047.21 295.364 L 1047.21 295.364 L 1047.21 295.364 Q 1047.21 293.821 1046.932 293.147 L 1046.932 293.147 L 1046.932 293.147 Q 1046.653 292.473 1046.039 292.473 L 1046.039 292.473 L 1046.039 292.473 Q 1045.414 292.473 1045.144 293.147 L 1045.144 293.147 L 1045.144 293.147 Q 1044.875 293.821 1044.875 295.364 Z  M 1055.683 295.364 L 1055.683 295.364 L 1055.683 295.364 Q 1055.683 297.561 1054.963 298.617 L 1054.963 298.617 L 1054.963 298.617 Q 1054.243 299.673 1052.746 299.673 L 1052.746 299.673 L 1052.746 299.673 Q 1051.294 299.673 1050.557 298.583 L 1050.557 298.583 L 1050.557 298.583 Q 1049.82 297.493 1049.82 295.364 L 1049.82 295.364 L 1049.82 295.364 Q 1049.82 293.144 1050.537 292.091 L 1050.537 292.091 L 1050.537 292.091 Q 1051.254 291.039 1052.746 291.039 L 1052.746 291.039 L 1052.746 291.039 Q 1054.197 291.039 1054.94 292.14 L 1054.94 292.14 L 1054.94 292.14 Q 1055.683 293.242 1055.683 295.364 Z  M 1051.581 295.364 L 1051.581 295.364 L 1051.581 295.364 Q 1051.581 296.907 1051.848 297.576 L 1051.848 297.576 L 1051.848 297.576 Q 1052.115 298.244 1052.746 298.244 L 1052.746 298.244 L 1052.746 298.244 Q 1053.365 298.244 1053.641 297.567 L 1053.641 297.567 L 1053.641 297.567 Q 1053.916 296.89 1053.916 295.364 L 1053.916 295.364 L 1053.916 295.364 Q 1053.916 293.821 1053.638 293.147 L 1053.638 293.147 L 1053.638 293.147 Q 1053.36 292.473 1052.746 292.473 L 1052.746 292.473 L 1052.746 292.473 Q 1052.12 292.473 1051.851 293.147 L 1051.851 293.147 L 1051.851 293.147 Q 1051.581 293.821 1051.581 295.364 Z " fill="rgb(49,38,64)"/><path d=" M 1062.141 312.2 L 1062.141 312.2 L 1062.141 312.2 Q 1063.357 312.2 1064.077 312.882 L 1064.077 312.882 L 1064.077 312.882 Q 1064.797 313.565 1064.797 314.753 L 1064.797 314.753 L 1064.797 314.753 Q 1064.797 316.158 1063.93 316.915 L 1063.93 316.915 L 1063.93 316.915 Q 1063.064 317.673 1061.452 317.673 L 1061.452 317.673 L 1061.452 317.673 Q 1060.052 317.673 1059.192 317.219 L 1059.192 317.219 L 1059.192 315.688 L 1059.192 315.688 Q 1059.645 315.929 1060.247 316.081 L 1060.247 316.081 L 1060.247 316.081 Q 1060.85 316.233 1061.389 316.233 L 1061.389 316.233 L 1061.389 316.233 Q 1063.013 316.233 1063.013 314.902 L 1063.013 314.902 L 1063.013 314.902 Q 1063.013 313.634 1061.332 313.634 L 1061.332 313.634 L 1061.332 313.634 Q 1061.028 313.634 1060.66 313.694 L 1060.66 313.694 L 1060.66 313.694 Q 1060.293 313.754 1060.064 313.823 L 1060.064 313.823 L 1059.358 313.445 L 1059.674 309.171 L 1064.223 309.171 L 1064.223 310.674 L 1061.228 310.674 L 1061.074 312.32 L 1061.274 312.28 L 1061.274 312.28 Q 1061.624 312.2 1062.141 312.2 Z  M 1071.612 313.364 L 1071.612 313.364 L 1071.612 313.364 Q 1071.612 315.561 1070.892 316.617 L 1070.892 316.617 L 1070.892 316.617 Q 1070.172 317.673 1068.675 317.673 L 1068.675 317.673 L 1068.675 317.673 Q 1067.223 317.673 1066.486 316.583 L 1066.486 316.583 L 1066.486 316.583 Q 1065.749 315.493 1065.749 313.364 L 1065.749 313.364 L 1065.749 313.364 Q 1065.749 311.144 1066.466 310.091 L 1066.466 310.091 L 1066.466 310.091 Q 1067.183 309.039 1068.675 309.039 L 1068.675 309.039 L 1068.675 309.039 Q 1070.126 309.039 1070.869 310.14 L 1070.869 310.14 L 1070.869 310.14 Q 1071.612 311.242 1071.612 313.364 Z  M 1067.51 313.364 L 1067.51 313.364 L 1067.51 313.364 Q 1067.51 314.907 1067.777 315.576 L 1067.777 315.576 L 1067.777 315.576 Q 1068.044 316.244 1068.675 316.244 L 1068.675 316.244 L 1068.675 316.244 Q 1069.294 316.244 1069.57 315.567 L 1069.57 315.567 L 1069.57 315.567 Q 1069.845 314.89 1069.845 313.364 L 1069.845 313.364 L 1069.845 313.364 Q 1069.845 311.821 1069.567 311.147 L 1069.567 311.147 L 1069.567 311.147 Q 1069.289 310.473 1068.675 310.473 L 1068.675 310.473 L 1068.675 310.473 Q 1068.049 310.473 1067.78 311.147 L 1067.78 311.147 L 1067.78 311.147 Q 1067.51 311.821 1067.51 313.364 Z  M 1078.869 313.376 L 1078.869 317.558 L 1077.119 317.558 L 1077.119 313.812 L 1077.119 313.812 Q 1077.119 312.423 1076.087 312.423 L 1076.087 312.423 L 1076.087 312.423 Q 1075.352 312.423 1075.025 312.923 L 1075.025 312.923 L 1075.025 312.923 Q 1074.698 313.422 1074.698 314.54 L 1074.698 314.54 L 1074.698 317.558 L 1072.949 317.558 L 1072.949 308.631 L 1074.698 308.631 L 1074.698 310.45 L 1074.698 310.45 Q 1074.698 310.662 1074.658 311.448 L 1074.658 311.448 L 1074.618 311.965 L 1074.71 311.965 L 1074.71 311.965 Q 1075.295 311.024 1076.569 311.024 L 1076.569 311.024 L 1076.569 311.024 Q 1077.699 311.024 1078.284 311.632 L 1078.284 311.632 L 1078.284 311.632 Q 1078.869 312.24 1078.869 313.376 L 1078.869 313.376 L 1078.869 313.376 Z " fill="rgb(49,38,64)"/><path d=" M 1210.167 309.171 L 1210.167 317.558 L 1208.394 317.558 L 1208.394 312.705 L 1208.412 311.907 L 1208.44 311.035 L 1208.44 311.035 Q 1207.999 311.477 1207.826 311.615 L 1207.826 311.615 L 1206.863 312.389 L 1206.008 311.322 L 1208.71 309.171 L 1210.167 309.171 L 1210.167 309.171 Z  M 1218.308 313.364 L 1218.308 313.364 L 1218.308 313.364 Q 1218.308 315.561 1217.588 316.617 L 1217.588 316.617 L 1217.588 316.617 Q 1216.868 317.673 1215.37 317.673 L 1215.37 317.673 L 1215.37 317.673 Q 1213.919 317.673 1213.182 316.583 L 1213.182 316.583 L 1213.182 316.583 Q 1212.445 315.493 1212.445 313.364 L 1212.445 313.364 L 1212.445 313.364 Q 1212.445 311.144 1213.162 310.091 L 1213.162 310.091 L 1213.162 310.091 Q 1213.879 309.039 1215.37 309.039 L 1215.37 309.039 L 1215.37 309.039 Q 1216.822 309.039 1217.565 310.14 L 1217.565 310.14 L 1217.565 310.14 Q 1218.308 311.242 1218.308 313.364 Z  M 1214.206 313.364 L 1214.206 313.364 L 1214.206 313.364 Q 1214.206 314.907 1214.473 315.576 L 1214.473 315.576 L 1214.473 315.576 Q 1214.739 316.244 1215.37 316.244 L 1215.37 316.244 L 1215.37 316.244 Q 1215.99 316.244 1216.265 315.567 L 1216.265 315.567 L 1216.265 315.567 Q 1216.541 314.89 1216.541 313.364 L 1216.541 313.364 L 1216.541 313.364 Q 1216.541 311.821 1216.262 311.147 L 1216.262 311.147 L 1216.262 311.147 Q 1215.984 310.473 1215.37 310.473 L 1215.37 310.473 L 1215.37 310.473 Q 1214.745 310.473 1214.475 311.147 L 1214.475 311.147 L 1214.475 311.147 Q 1214.206 311.821 1214.206 313.364 Z  M 1225.014 313.364 L 1225.014 313.364 L 1225.014 313.364 Q 1225.014 315.561 1224.294 316.617 L 1224.294 316.617 L 1224.294 316.617 Q 1223.574 317.673 1222.077 317.673 L 1222.077 317.673 L 1222.077 317.673 Q 1220.625 317.673 1219.888 316.583 L 1219.888 316.583 L 1219.888 316.583 Q 1219.151 315.493 1219.151 313.364 L 1219.151 313.364 L 1219.151 313.364 Q 1219.151 311.144 1219.868 310.091 L 1219.868 310.091 L 1219.868 310.091 Q 1220.585 309.039 1222.077 309.039 L 1222.077 309.039 L 1222.077 309.039 Q 1223.528 309.039 1224.271 310.14 L 1224.271 310.14 L 1224.271 310.14 Q 1225.014 311.242 1225.014 313.364 Z  M 1220.912 313.364 L 1220.912 313.364 L 1220.912 313.364 Q 1220.912 314.907 1221.179 315.576 L 1221.179 315.576 L 1221.179 315.576 Q 1221.446 316.244 1222.077 316.244 L 1222.077 316.244 L 1222.077 316.244 Q 1222.696 316.244 1222.972 315.567 L 1222.972 315.567 L 1222.972 315.567 Q 1223.247 314.89 1223.247 313.364 L 1223.247 313.364 L 1223.247 313.364 Q 1223.247 311.821 1222.969 311.147 L 1222.969 311.147 L 1222.969 311.147 Q 1222.691 310.473 1222.077 310.473 L 1222.077 310.473 L 1222.077 310.473 Q 1221.451 310.473 1221.182 311.147 L 1221.182 311.147 L 1221.182 311.147 Q 1220.912 311.821 1220.912 313.364 Z  M 1232.271 313.376 L 1232.271 317.558 L 1230.521 317.558 L 1230.521 313.812 L 1230.521 313.812 Q 1230.521 312.423 1229.489 312.423 L 1229.489 312.423 L 1229.489 312.423 Q 1228.754 312.423 1228.427 312.923 L 1228.427 312.923 L 1228.427 312.923 Q 1228.1 313.422 1228.1 314.54 L 1228.1 314.54 L 1228.1 317.558 L 1226.351 317.558 L 1226.351 308.631 L 1228.1 308.631 L 1228.1 310.45 L 1228.1 310.45 Q 1228.1 310.662 1228.06 311.448 L 1228.06 311.448 L 1228.02 311.965 L 1228.112 311.965 L 1228.112 311.965 Q 1228.697 311.024 1229.971 311.024 L 1229.971 311.024 L 1229.971 311.024 Q 1231.101 311.024 1231.686 311.632 L 1231.686 311.632 L 1231.686 311.632 Q 1232.271 312.24 1232.271 313.376 L 1232.271 313.376 L 1232.271 313.376 Z " fill="rgb(49,38,64)"/><path d=" M 1571.698 316.066 L 1571.698 317.558 L 1565.835 317.558 L 1565.835 316.324 L 1567.94 314.196 L 1567.94 314.196 Q 1568.875 313.238 1569.162 312.868 L 1569.162 312.868 L 1569.162 312.868 Q 1569.449 312.498 1569.575 312.183 L 1569.575 312.183 L 1569.575 312.183 Q 1569.701 311.867 1569.701 311.529 L 1569.701 311.529 L 1569.701 311.529 Q 1569.701 311.024 1569.423 310.777 L 1569.423 310.777 L 1569.423 310.777 Q 1569.145 310.53 1568.68 310.53 L 1568.68 310.53 L 1568.68 310.53 Q 1568.193 310.53 1567.734 310.754 L 1567.734 310.754 L 1567.734 310.754 Q 1567.275 310.978 1566.776 311.391 L 1566.776 311.391 L 1565.812 310.249 L 1565.812 310.249 Q 1566.431 309.721 1566.839 309.503 L 1566.839 309.503 L 1566.839 309.503 Q 1567.246 309.285 1567.728 309.168 L 1567.728 309.168 L 1567.728 309.168 Q 1568.21 309.05 1568.806 309.05 L 1568.806 309.05 L 1568.806 309.05 Q 1569.592 309.05 1570.195 309.337 L 1570.195 309.337 L 1570.195 309.337 Q 1570.797 309.624 1571.13 310.14 L 1571.13 310.14 L 1571.13 310.14 Q 1571.463 310.657 1571.463 311.322 L 1571.463 311.322 L 1571.463 311.322 Q 1571.463 311.901 1571.259 312.409 L 1571.259 312.409 L 1571.259 312.409 Q 1571.055 312.917 1570.628 313.45 L 1570.628 313.45 L 1570.628 313.45 Q 1570.201 313.984 1569.122 314.971 L 1569.122 314.971 L 1568.043 315.986 L 1568.043 316.066 L 1571.698 316.066 L 1571.698 316.066 Z  M 1578.404 316.066 L 1578.404 317.558 L 1572.541 317.558 L 1572.541 316.324 L 1574.647 314.196 L 1574.647 314.196 Q 1575.582 313.238 1575.868 312.868 L 1575.868 312.868 L 1575.868 312.868 Q 1576.155 312.498 1576.282 312.183 L 1576.282 312.183 L 1576.282 312.183 Q 1576.408 311.867 1576.408 311.529 L 1576.408 311.529 L 1576.408 311.529 Q 1576.408 311.024 1576.13 310.777 L 1576.13 310.777 L 1576.13 310.777 Q 1575.851 310.53 1575.387 310.53 L 1575.387 310.53 L 1575.387 310.53 Q 1574.899 310.53 1574.44 310.754 L 1574.44 310.754 L 1574.44 310.754 Q 1573.981 310.978 1573.482 311.391 L 1573.482 311.391 L 1572.518 310.249 L 1572.518 310.249 Q 1573.138 309.721 1573.545 309.503 L 1573.545 309.503 L 1573.545 309.503 Q 1573.952 309.285 1574.434 309.168 L 1574.434 309.168 L 1574.434 309.168 Q 1574.916 309.05 1575.513 309.05 L 1575.513 309.05 L 1575.513 309.05 Q 1576.299 309.05 1576.901 309.337 L 1576.901 309.337 L 1576.901 309.337 Q 1577.503 309.624 1577.836 310.14 L 1577.836 310.14 L 1577.836 310.14 Q 1578.169 310.657 1578.169 311.322 L 1578.169 311.322 L 1578.169 311.322 Q 1578.169 311.901 1577.965 312.409 L 1577.965 312.409 L 1577.965 312.409 Q 1577.762 312.917 1577.334 313.45 L 1577.334 313.45 L 1577.334 313.45 Q 1576.907 313.984 1575.828 314.971 L 1575.828 314.971 L 1574.75 315.986 L 1574.75 316.066 L 1578.404 316.066 L 1578.404 316.066 Z  M 1585.065 313.364 L 1585.065 313.364 L 1585.065 313.364 Q 1585.065 315.561 1584.345 316.617 L 1584.345 316.617 L 1584.345 316.617 Q 1583.625 317.673 1582.127 317.673 L 1582.127 317.673 L 1582.127 317.673 Q 1580.676 317.673 1579.939 316.583 L 1579.939 316.583 L 1579.939 316.583 Q 1579.202 315.493 1579.202 313.364 L 1579.202 313.364 L 1579.202 313.364 Q 1579.202 311.144 1579.919 310.091 L 1579.919 310.091 L 1579.919 310.091 Q 1580.636 309.039 1582.127 309.039 L 1582.127 309.039 L 1582.127 309.039 Q 1583.579 309.039 1584.322 310.14 L 1584.322 310.14 L 1584.322 310.14 Q 1585.065 311.242 1585.065 313.364 Z  M 1580.963 313.364 L 1580.963 313.364 L 1580.963 313.364 Q 1580.963 314.907 1581.23 315.576 L 1581.23 315.576 L 1581.23 315.576 Q 1581.496 316.244 1582.127 316.244 L 1582.127 316.244 L 1582.127 316.244 Q 1582.747 316.244 1583.022 315.567 L 1583.022 315.567 L 1583.022 315.567 Q 1583.298 314.89 1583.298 313.364 L 1583.298 313.364 L 1583.298 313.364 Q 1583.298 311.821 1583.019 311.147 L 1583.019 311.147 L 1583.019 311.147 Q 1582.741 310.473 1582.127 310.473 L 1582.127 310.473 L 1582.127 310.473 Q 1581.502 310.473 1581.232 311.147 L 1581.232 311.147 L 1581.232 311.147 Q 1580.963 311.821 1580.963 313.364 Z  M 1592.322 313.376 L 1592.322 317.558 L 1590.572 317.558 L 1590.572 313.812 L 1590.572 313.812 Q 1590.572 312.423 1589.539 312.423 L 1589.539 312.423 L 1589.539 312.423 Q 1588.805 312.423 1588.478 312.923 L 1588.478 312.923 L 1588.478 312.923 Q 1588.151 313.422 1588.151 314.54 L 1588.151 314.54 L 1588.151 317.558 L 1586.401 317.558 L 1586.401 308.631 L 1588.151 308.631 L 1588.151 310.45 L 1588.151 310.45 Q 1588.151 310.662 1588.111 311.448 L 1588.111 311.448 L 1588.071 311.965 L 1588.162 311.965 L 1588.162 311.965 Q 1588.748 311.024 1590.021 311.024 L 1590.021 311.024 L 1590.021 311.024 Q 1591.151 311.024 1591.737 311.632 L 1591.737 311.632 L 1591.737 311.632 Q 1592.322 312.24 1592.322 313.376 L 1592.322 313.376 L 1592.322 313.376 Z " fill="rgb(49,38,64)"/><path d=" M 1270.167 309.171 L 1270.167 317.558 L 1268.394 317.558 L 1268.394 312.705 L 1268.412 311.907 L 1268.44 311.035 L 1268.44 311.035 Q 1267.999 311.477 1267.826 311.615 L 1267.826 311.615 L 1266.863 312.389 L 1266.008 311.322 L 1268.71 309.171 L 1270.167 309.171 L 1270.167 309.171 Z  M 1278.354 316.066 L 1278.354 317.558 L 1272.49 317.558 L 1272.49 316.324 L 1274.596 314.196 L 1274.596 314.196 Q 1275.531 313.238 1275.818 312.868 L 1275.818 312.868 L 1275.818 312.868 Q 1276.105 312.498 1276.231 312.183 L 1276.231 312.183 L 1276.231 312.183 Q 1276.357 311.867 1276.357 311.529 L 1276.357 311.529 L 1276.357 311.529 Q 1276.357 311.024 1276.079 310.777 L 1276.079 310.777 L 1276.079 310.777 Q 1275.801 310.53 1275.336 310.53 L 1275.336 310.53 L 1275.336 310.53 Q 1274.848 310.53 1274.389 310.754 L 1274.389 310.754 L 1274.389 310.754 Q 1273.93 310.978 1273.431 311.391 L 1273.431 311.391 L 1272.468 310.249 L 1272.468 310.249 Q 1273.087 309.721 1273.494 309.503 L 1273.494 309.503 L 1273.494 309.503 Q 1273.902 309.285 1274.384 309.168 L 1274.384 309.168 L 1274.384 309.168 Q 1274.866 309.05 1275.462 309.05 L 1275.462 309.05 L 1275.462 309.05 Q 1276.248 309.05 1276.85 309.337 L 1276.85 309.337 L 1276.85 309.337 Q 1277.453 309.624 1277.786 310.14 L 1277.786 310.14 L 1277.786 310.14 Q 1278.118 310.657 1278.118 311.322 L 1278.118 311.322 L 1278.118 311.322 Q 1278.118 311.901 1277.915 312.409 L 1277.915 312.409 L 1277.915 312.409 Q 1277.711 312.917 1277.284 313.45 L 1277.284 313.45 L 1277.284 313.45 Q 1276.856 313.984 1275.778 314.971 L 1275.778 314.971 L 1274.699 315.986 L 1274.699 316.066 L 1278.354 316.066 L 1278.354 316.066 Z  M 1285.014 313.364 L 1285.014 313.364 L 1285.014 313.364 Q 1285.014 315.561 1284.294 316.617 L 1284.294 316.617 L 1284.294 316.617 Q 1283.574 317.673 1282.077 317.673 L 1282.077 317.673 L 1282.077 317.673 Q 1280.625 317.673 1279.888 316.583 L 1279.888 316.583 L 1279.888 316.583 Q 1279.151 315.493 1279.151 313.364 L 1279.151 313.364 L 1279.151 313.364 Q 1279.151 311.144 1279.868 310.091 L 1279.868 310.091 L 1279.868 310.091 Q 1280.585 309.039 1282.077 309.039 L 1282.077 309.039 L 1282.077 309.039 Q 1283.528 309.039 1284.271 310.14 L 1284.271 310.14 L 1284.271 310.14 Q 1285.014 311.242 1285.014 313.364 Z  M 1280.912 313.364 L 1280.912 313.364 L 1280.912 313.364 Q 1280.912 314.907 1281.179 315.576 L 1281.179 315.576 L 1281.179 315.576 Q 1281.446 316.244 1282.077 316.244 L 1282.077 316.244 L 1282.077 316.244 Q 1282.696 316.244 1282.972 315.567 L 1282.972 315.567 L 1282.972 315.567 Q 1283.247 314.89 1283.247 313.364 L 1283.247 313.364 L 1283.247 313.364 Q 1283.247 311.821 1282.969 311.147 L 1282.969 311.147 L 1282.969 311.147 Q 1282.691 310.473 1282.077 310.473 L 1282.077 310.473 L 1282.077 310.473 Q 1281.451 310.473 1281.182 311.147 L 1281.182 311.147 L 1281.182 311.147 Q 1280.912 311.821 1280.912 313.364 Z  M 1292.271 313.376 L 1292.271 317.558 L 1290.521 317.558 L 1290.521 313.812 L 1290.521 313.812 Q 1290.521 312.423 1289.489 312.423 L 1289.489 312.423 L 1289.489 312.423 Q 1288.754 312.423 1288.427 312.923 L 1288.427 312.923 L 1288.427 312.923 Q 1288.1 313.422 1288.1 314.54 L 1288.1 314.54 L 1288.1 317.558 L 1286.351 317.558 L 1286.351 308.631 L 1288.1 308.631 L 1288.1 310.45 L 1288.1 310.45 Q 1288.1 310.662 1288.06 311.448 L 1288.06 311.448 L 1288.02 311.965 L 1288.112 311.965 L 1288.112 311.965 Q 1288.697 311.024 1289.971 311.024 L 1289.971 311.024 L 1289.971 311.024 Q 1291.101 311.024 1291.686 311.632 L 1291.686 311.632 L 1291.686 311.632 Q 1292.271 312.24 1292.271 313.376 L 1292.271 313.376 L 1292.271 313.376 Z " fill="rgb(49,38,64)"/><path d=" M 1017.711 141.171 L 1019.214 144.624 L 1020.729 141.171 L 1022.524 141.171 L 1020.327 145.456 L 1021.446 145.456 L 1021.446 146.477 L 1020.034 146.477 L 1020.034 147.269 L 1021.446 147.269 L 1021.446 148.29 L 1020.034 148.29 L 1020.034 149.558 L 1018.388 149.558 L 1018.388 148.29 L 1016.971 148.29 L 1016.971 147.269 L 1018.388 147.269 L 1018.388 146.477 L 1016.971 146.477 L 1016.971 145.456 L 1018.061 145.456 L 1015.898 141.171 L 1017.711 141.171 L 1017.711 141.171 Z  M 1028.577 143.047 L 1028.577 143.047 L 1028.577 143.047 Q 1028.577 143.833 1028.1 144.383 L 1028.1 144.383 L 1028.1 144.383 Q 1027.624 144.934 1026.764 145.141 L 1026.764 145.141 L 1026.764 145.175 L 1026.764 145.175 Q 1027.779 145.301 1028.301 145.792 L 1028.301 145.792 L 1028.301 145.792 Q 1028.823 146.282 1028.823 147.114 L 1028.823 147.114 L 1028.823 147.114 Q 1028.823 148.324 1027.946 148.999 L 1027.946 148.999 L 1027.946 148.999 Q 1027.068 149.673 1025.439 149.673 L 1025.439 149.673 L 1025.439 149.673 Q 1024.073 149.673 1023.018 149.219 L 1023.018 149.219 L 1023.018 147.711 L 1023.018 147.711 Q 1023.505 147.957 1024.09 148.112 L 1024.09 148.112 L 1024.09 148.112 Q 1024.676 148.267 1025.249 148.267 L 1025.249 148.267 L 1025.249 148.267 Q 1026.127 148.267 1026.546 147.969 L 1026.546 147.969 L 1026.546 147.969 Q 1026.965 147.67 1026.965 147.011 L 1026.965 147.011 L 1026.965 147.011 Q 1026.965 146.42 1026.483 146.173 L 1026.483 146.173 L 1026.483 146.173 Q 1026.001 145.926 1024.945 145.926 L 1024.945 145.926 L 1024.308 145.926 L 1024.308 144.567 L 1024.957 144.567 L 1024.957 144.567 Q 1025.932 144.567 1026.382 144.312 L 1026.382 144.312 L 1026.382 144.312 Q 1026.833 144.056 1026.833 143.437 L 1026.833 143.437 L 1026.833 143.437 Q 1026.833 142.484 1025.639 142.484 L 1025.639 142.484 L 1025.639 142.484 Q 1025.226 142.484 1024.799 142.622 L 1024.799 142.622 L 1024.799 142.622 Q 1024.371 142.76 1023.849 143.098 L 1023.849 143.098 L 1023.029 141.876 L 1023.029 141.876 Q 1024.176 141.05 1025.766 141.05 L 1025.766 141.05 L 1025.766 141.05 Q 1027.068 141.05 1027.822 141.578 L 1027.822 141.578 L 1027.822 141.578 Q 1028.577 142.106 1028.577 143.047 Z  M 1035.564 145.364 L 1035.564 145.364 L 1035.564 145.364 Q 1035.564 147.561 1034.844 148.617 L 1034.844 148.617 L 1034.844 148.617 Q 1034.124 149.673 1032.627 149.673 L 1032.627 149.673 L 1032.627 149.673 Q 1031.175 149.673 1030.438 148.583 L 1030.438 148.583 L 1030.438 148.583 Q 1029.701 147.493 1029.701 145.364 L 1029.701 145.364 L 1029.701 145.364 Q 1029.701 143.144 1030.418 142.091 L 1030.418 142.091 L 1030.418 142.091 Q 1031.135 141.039 1032.627 141.039 L 1032.627 141.039 L 1032.627 141.039 Q 1034.078 141.039 1034.821 142.14 L 1034.821 142.14 L 1034.821 142.14 Q 1035.564 143.242 1035.564 145.364 Z  M 1031.462 145.364 L 1031.462 145.364 L 1031.462 145.364 Q 1031.462 146.907 1031.729 147.576 L 1031.729 147.576 L 1031.729 147.576 Q 1031.996 148.244 1032.627 148.244 L 1032.627 148.244 L 1032.627 148.244 Q 1033.246 148.244 1033.522 147.567 L 1033.522 147.567 L 1033.522 147.567 Q 1033.797 146.89 1033.797 145.364 L 1033.797 145.364 L 1033.797 145.364 Q 1033.797 143.821 1033.519 143.147 L 1033.519 143.147 L 1033.519 143.147 Q 1033.241 142.473 1032.627 142.473 L 1032.627 142.473 L 1032.627 142.473 Q 1032.001 142.473 1031.732 143.147 L 1031.732 143.147 L 1031.732 143.147 Q 1031.462 143.821 1031.462 145.364 Z  M 1042.27 145.364 L 1042.27 145.364 L 1042.27 145.364 Q 1042.27 147.561 1041.55 148.617 L 1041.55 148.617 L 1041.55 148.617 Q 1040.83 149.673 1039.333 149.673 L 1039.333 149.673 L 1039.333 149.673 Q 1037.882 149.673 1037.144 148.583 L 1037.144 148.583 L 1037.144 148.583 Q 1036.407 147.493 1036.407 145.364 L 1036.407 145.364 L 1036.407 145.364 Q 1036.407 143.144 1037.124 142.091 L 1037.124 142.091 L 1037.124 142.091 Q 1037.842 141.039 1039.333 141.039 L 1039.333 141.039 L 1039.333 141.039 Q 1040.785 141.039 1041.527 142.14 L 1041.527 142.14 L 1041.527 142.14 Q 1042.27 143.242 1042.27 145.364 Z  M 1038.169 145.364 L 1038.169 145.364 L 1038.169 145.364 Q 1038.169 146.907 1038.435 147.576 L 1038.435 147.576 L 1038.435 147.576 Q 1038.702 148.244 1039.333 148.244 L 1039.333 148.244 L 1039.333 148.244 Q 1039.953 148.244 1040.228 147.567 L 1040.228 147.567 L 1040.228 147.567 Q 1040.503 146.89 1040.503 145.364 L 1040.503 145.364 L 1040.503 145.364 Q 1040.503 143.821 1040.225 143.147 L 1040.225 143.147 L 1040.225 143.147 Q 1039.947 142.473 1039.333 142.473 L 1039.333 142.473 L 1039.333 142.473 Q 1038.708 142.473 1038.438 143.147 L 1038.438 143.147 L 1038.438 143.147 Q 1038.169 143.821 1038.169 145.364 Z  M 1048.977 145.364 L 1048.977 145.364 L 1048.977 145.364 Q 1048.977 147.561 1048.257 148.617 L 1048.257 148.617 L 1048.257 148.617 Q 1047.537 149.673 1046.039 149.673 L 1046.039 149.673 L 1046.039 149.673 Q 1044.588 149.673 1043.851 148.583 L 1043.851 148.583 L 1043.851 148.583 Q 1043.114 147.493 1043.114 145.364 L 1043.114 145.364 L 1043.114 145.364 Q 1043.114 143.144 1043.831 142.091 L 1043.831 142.091 L 1043.831 142.091 Q 1044.548 141.039 1046.039 141.039 L 1046.039 141.039 L 1046.039 141.039 Q 1047.491 141.039 1048.234 142.14 L 1048.234 142.14 L 1048.234 142.14 Q 1048.977 143.242 1048.977 145.364 Z  M 1044.875 145.364 L 1044.875 145.364 L 1044.875 145.364 Q 1044.875 146.907 1045.142 147.576 L 1045.142 147.576 L 1045.142 147.576 Q 1045.408 148.244 1046.039 148.244 L 1046.039 148.244 L 1046.039 148.244 Q 1046.659 148.244 1046.934 147.567 L 1046.934 147.567 L 1046.934 147.567 Q 1047.21 146.89 1047.21 145.364 L 1047.21 145.364 L 1047.21 145.364 Q 1047.21 143.821 1046.932 143.147 L 1046.932 143.147 L 1046.932 143.147 Q 1046.653 142.473 1046.039 142.473 L 1046.039 142.473 L 1046.039 142.473 Q 1045.414 142.473 1045.144 143.147 L 1045.144 143.147 L 1045.144 143.147 Q 1044.875 143.821 1044.875 145.364 Z  M 1055.683 145.364 L 1055.683 145.364 L 1055.683 145.364 Q 1055.683 147.561 1054.963 148.617 L 1054.963 148.617 L 1054.963 148.617 Q 1054.243 149.673 1052.746 149.673 L 1052.746 149.673 L 1052.746 149.673 Q 1051.294 149.673 1050.557 148.583 L 1050.557 148.583 L 1050.557 148.583 Q 1049.82 147.493 1049.82 145.364 L 1049.82 145.364 L 1049.82 145.364 Q 1049.82 143.144 1050.537 142.091 L 1050.537 142.091 L 1050.537 142.091 Q 1051.254 141.039 1052.746 141.039 L 1052.746 141.039 L 1052.746 141.039 Q 1054.197 141.039 1054.94 142.14 L 1054.94 142.14 L 1054.94 142.14 Q 1055.683 143.242 1055.683 145.364 Z  M 1051.581 145.364 L 1051.581 145.364 L 1051.581 145.364 Q 1051.581 146.907 1051.848 147.576 L 1051.848 147.576 L 1051.848 147.576 Q 1052.115 148.244 1052.746 148.244 L 1052.746 148.244 L 1052.746 148.244 Q 1053.365 148.244 1053.641 147.567 L 1053.641 147.567 L 1053.641 147.567 Q 1053.916 146.89 1053.916 145.364 L 1053.916 145.364 L 1053.916 145.364 Q 1053.916 143.821 1053.638 143.147 L 1053.638 143.147 L 1053.638 143.147 Q 1053.36 142.473 1052.746 142.473 L 1052.746 142.473 L 1052.746 142.473 Q 1052.12 142.473 1051.851 143.147 L 1051.851 143.147 L 1051.851 143.147 Q 1051.581 143.821 1051.581 145.364 Z " fill="rgb(49,38,64)"/><path d=" M 1102.062 271.713 L 1103.941 276.03 L 1105.834 271.713 L 1108.079 271.713 L 1105.332 277.07 L 1106.73 277.07 L 1106.73 278.347 L 1104.966 278.347 L 1104.966 279.336 L 1106.73 279.336 L 1106.73 280.613 L 1104.966 280.613 L 1104.966 282.197 L 1102.908 282.197 L 1102.908 280.613 L 1101.137 280.613 L 1101.137 279.336 L 1102.908 279.336 L 1102.908 278.347 L 1101.137 278.347 L 1101.137 277.07 L 1102.499 277.07 L 1099.796 271.713 L 1102.062 271.713 L 1102.062 271.713 Z  M 1115.644 274.058 L 1115.644 274.058 L 1115.644 274.058 Q 1115.644 275.041 1115.049 275.729 L 1115.049 275.729 L 1115.049 275.729 Q 1114.454 276.418 1113.378 276.676 L 1113.378 276.676 L 1113.378 276.719 L 1113.378 276.719 Q 1114.647 276.876 1115.3 277.49 L 1115.3 277.49 L 1115.3 277.49 Q 1115.952 278.103 1115.952 279.143 L 1115.952 279.143 L 1115.952 279.143 Q 1115.952 280.656 1114.855 281.498 L 1114.855 281.498 L 1114.855 281.498 Q 1113.758 282.341 1111.721 282.341 L 1111.721 282.341 L 1111.721 282.341 Q 1110.015 282.341 1108.695 281.774 L 1108.695 281.774 L 1108.695 279.888 L 1108.695 279.888 Q 1109.305 280.197 1110.036 280.39 L 1110.036 280.39 L 1110.036 280.39 Q 1110.768 280.584 1111.485 280.584 L 1111.485 280.584 L 1111.485 280.584 Q 1112.582 280.584 1113.105 280.211 L 1113.105 280.211 L 1113.105 280.211 Q 1113.629 279.838 1113.629 279.013 L 1113.629 279.013 L 1113.629 279.013 Q 1113.629 278.275 1113.027 277.966 L 1113.027 277.966 L 1113.027 277.966 Q 1112.424 277.658 1111.105 277.658 L 1111.105 277.658 L 1110.309 277.658 L 1110.309 275.959 L 1111.119 275.959 L 1111.119 275.959 Q 1112.338 275.959 1112.901 275.639 L 1112.901 275.639 L 1112.901 275.639 Q 1113.464 275.32 1113.464 274.546 L 1113.464 274.546 L 1113.464 274.546 Q 1113.464 273.356 1111.972 273.356 L 1111.972 273.356 L 1111.972 273.356 Q 1111.456 273.356 1110.922 273.528 L 1110.922 273.528 L 1110.922 273.528 Q 1110.388 273.7 1109.735 274.123 L 1109.735 274.123 L 1108.71 272.595 L 1108.71 272.595 Q 1110.144 271.563 1112.13 271.563 L 1112.13 271.563 L 1112.13 271.563 Q 1113.758 271.563 1114.701 272.222 L 1114.701 272.222 L 1114.701 272.222 Q 1115.644 272.882 1115.644 274.058 Z  M 1124.378 276.955 L 1124.378 276.955 L 1124.378 276.955 Q 1124.378 279.702 1123.478 281.021 L 1123.478 281.021 L 1123.478 281.021 Q 1122.578 282.341 1120.707 282.341 L 1120.707 282.341 L 1120.707 282.341 Q 1118.892 282.341 1117.971 280.978 L 1117.971 280.978 L 1117.971 280.978 Q 1117.049 279.616 1117.049 276.955 L 1117.049 276.955 L 1117.049 276.955 Q 1117.049 274.18 1117.946 272.864 L 1117.946 272.864 L 1117.946 272.864 Q 1118.842 271.548 1120.707 271.548 L 1120.707 271.548 L 1120.707 271.548 Q 1122.521 271.548 1123.45 272.925 L 1123.45 272.925 L 1123.45 272.925 Q 1124.378 274.302 1124.378 276.955 Z  M 1119.251 276.955 L 1119.251 276.955 L 1119.251 276.955 Q 1119.251 278.884 1119.584 279.72 L 1119.584 279.72 L 1119.584 279.72 Q 1119.918 280.555 1120.707 280.555 L 1120.707 280.555 L 1120.707 280.555 Q 1121.481 280.555 1121.825 279.709 L 1121.825 279.709 L 1121.825 279.709 Q 1122.17 278.863 1122.17 276.955 L 1122.17 276.955 L 1122.17 276.955 Q 1122.17 275.026 1121.822 274.184 L 1121.822 274.184 L 1121.822 274.184 Q 1121.474 273.341 1120.707 273.341 L 1120.707 273.341 L 1120.707 273.341 Q 1119.925 273.341 1119.588 274.184 L 1119.588 274.184 L 1119.588 274.184 Q 1119.251 275.026 1119.251 276.955 Z  M 1132.761 276.955 L 1132.761 276.955 L 1132.761 276.955 Q 1132.761 279.702 1131.861 281.021 L 1131.861 281.021 L 1131.861 281.021 Q 1130.961 282.341 1129.09 282.341 L 1129.09 282.341 L 1129.09 282.341 Q 1127.275 282.341 1126.354 280.978 L 1126.354 280.978 L 1126.354 280.978 Q 1125.432 279.616 1125.432 276.955 L 1125.432 276.955 L 1125.432 276.955 Q 1125.432 274.18 1126.329 272.864 L 1126.329 272.864 L 1126.329 272.864 Q 1127.225 271.548 1129.09 271.548 L 1129.09 271.548 L 1129.09 271.548 Q 1130.904 271.548 1131.833 272.925 L 1131.833 272.925 L 1131.833 272.925 Q 1132.761 274.302 1132.761 276.955 Z  M 1127.634 276.955 L 1127.634 276.955 L 1127.634 276.955 Q 1127.634 278.884 1127.967 279.72 L 1127.967 279.72 L 1127.967 279.72 Q 1128.301 280.555 1129.09 280.555 L 1129.09 280.555 L 1129.09 280.555 Q 1129.864 280.555 1130.208 279.709 L 1130.208 279.709 L 1130.208 279.709 Q 1130.553 278.863 1130.553 276.955 L 1130.553 276.955 L 1130.553 276.955 Q 1130.553 275.026 1130.205 274.184 L 1130.205 274.184 L 1130.205 274.184 Q 1129.857 273.341 1129.09 273.341 L 1129.09 273.341 L 1129.09 273.341 Q 1128.308 273.341 1127.971 274.184 L 1127.971 274.184 L 1127.971 274.184 Q 1127.634 275.026 1127.634 276.955 Z " fill="rgb(255,255,255)"/><path d=" M 1704.062 -124.787 L 1705.941 -120.47 L 1707.834 -124.787 L 1710.079 -124.787 L 1707.332 -119.43 L 1708.73 -119.43 L 1708.73 -118.153 L 1706.966 -118.153 L 1706.966 -117.164 L 1708.73 -117.164 L 1708.73 -115.887 L 1706.966 -115.887 L 1706.966 -114.303 L 1704.908 -114.303 L 1704.908 -115.887 L 1703.137 -115.887 L 1703.137 -117.164 L 1704.908 -117.164 L 1704.908 -118.153 L 1703.137 -118.153 L 1703.137 -119.43 L 1704.499 -119.43 L 1701.796 -124.787 L 1704.062 -124.787 L 1704.062 -124.787 Z  M 1718.053 -116.167 L 1718.053 -114.303 L 1710.724 -114.303 L 1710.724 -115.844 L 1713.356 -118.505 L 1713.356 -118.505 Q 1714.525 -119.702 1714.883 -120.165 L 1714.883 -120.165 L 1714.883 -120.165 Q 1715.242 -120.627 1715.399 -121.022 L 1715.399 -121.022 L 1715.399 -121.022 Q 1715.557 -121.416 1715.557 -121.839 L 1715.557 -121.839 L 1715.557 -121.839 Q 1715.557 -122.47 1715.209 -122.779 L 1715.209 -122.779 L 1715.209 -122.779 Q 1714.862 -123.087 1714.281 -123.087 L 1714.281 -123.087 L 1714.281 -123.087 Q 1713.671 -123.087 1713.098 -122.807 L 1713.098 -122.807 L 1713.098 -122.807 Q 1712.524 -122.528 1711.9 -122.011 L 1711.9 -122.011 L 1710.695 -123.439 L 1710.695 -123.439 Q 1711.47 -124.098 1711.979 -124.371 L 1711.979 -124.371 L 1711.979 -124.371 Q 1712.488 -124.643 1713.09 -124.79 L 1713.09 -124.79 L 1713.09 -124.79 Q 1713.693 -124.937 1714.439 -124.937 L 1714.439 -124.937 L 1714.439 -124.937 Q 1715.421 -124.937 1716.174 -124.579 L 1716.174 -124.579 L 1716.174 -124.579 Q 1716.927 -124.22 1717.343 -123.575 L 1717.343 -123.575 L 1717.343 -123.575 Q 1717.759 -122.929 1717.759 -122.098 L 1717.759 -122.098 L 1717.759 -122.098 Q 1717.759 -121.373 1717.504 -120.739 L 1717.504 -120.739 L 1717.504 -120.739 Q 1717.25 -120.104 1716.715 -119.437 L 1716.715 -119.437 L 1716.715 -119.437 Q 1716.181 -118.77 1714.833 -117.537 L 1714.833 -117.537 L 1713.485 -116.267 L 1713.485 -116.167 L 1718.053 -116.167 L 1718.053 -116.167 Z  M 1726.436 -116.167 L 1726.436 -114.303 L 1719.107 -114.303 L 1719.107 -115.844 L 1721.739 -118.505 L 1721.739 -118.505 Q 1722.907 -119.702 1723.266 -120.165 L 1723.266 -120.165 L 1723.266 -120.165 Q 1723.625 -120.627 1723.782 -121.022 L 1723.782 -121.022 L 1723.782 -121.022 Q 1723.94 -121.416 1723.94 -121.839 L 1723.94 -121.839 L 1723.94 -121.839 Q 1723.94 -122.47 1723.592 -122.779 L 1723.592 -122.779 L 1723.592 -122.779 Q 1723.245 -123.087 1722.664 -123.087 L 1722.664 -123.087 L 1722.664 -123.087 Q 1722.054 -123.087 1721.48 -122.807 L 1721.48 -122.807 L 1721.48 -122.807 Q 1720.907 -122.528 1720.283 -122.011 L 1720.283 -122.011 L 1719.078 -123.439 L 1719.078 -123.439 Q 1719.853 -124.098 1720.362 -124.371 L 1720.362 -124.371 L 1720.362 -124.371 Q 1720.871 -124.643 1721.473 -124.79 L 1721.473 -124.79 L 1721.473 -124.79 Q 1722.076 -124.937 1722.821 -124.937 L 1722.821 -124.937 L 1722.821 -124.937 Q 1723.804 -124.937 1724.557 -124.579 L 1724.557 -124.579 L 1724.557 -124.579 Q 1725.31 -124.22 1725.726 -123.575 L 1725.726 -123.575 L 1725.726 -123.575 Q 1726.142 -122.929 1726.142 -122.098 L 1726.142 -122.098 L 1726.142 -122.098 Q 1726.142 -121.373 1725.887 -120.739 L 1725.887 -120.739 L 1725.887 -120.739 Q 1725.632 -120.104 1725.098 -119.437 L 1725.098 -119.437 L 1725.098 -119.437 Q 1724.564 -118.77 1723.216 -117.537 L 1723.216 -117.537 L 1721.868 -116.267 L 1721.868 -116.167 L 1726.436 -116.167 L 1726.436 -116.167 Z  M 1734.761 -119.545 L 1734.761 -119.545 L 1734.761 -119.545 Q 1734.761 -116.798 1733.861 -115.479 L 1733.861 -115.479 L 1733.861 -115.479 Q 1732.961 -114.159 1731.09 -114.159 L 1731.09 -114.159 L 1731.09 -114.159 Q 1729.275 -114.159 1728.354 -115.522 L 1728.354 -115.522 L 1728.354 -115.522 Q 1727.432 -116.884 1727.432 -119.545 L 1727.432 -119.545 L 1727.432 -119.545 Q 1727.432 -122.32 1728.329 -123.636 L 1728.329 -123.636 L 1728.329 -123.636 Q 1729.225 -124.952 1731.09 -124.952 L 1731.09 -124.952 L 1731.09 -124.952 Q 1732.904 -124.952 1733.833 -123.575 L 1733.833 -123.575 L 1733.833 -123.575 Q 1734.761 -122.198 1734.761 -119.545 Z  M 1729.634 -119.545 L 1729.634 -119.545 L 1729.634 -119.545 Q 1729.634 -117.616 1729.967 -116.78 L 1729.967 -116.78 L 1729.967 -116.78 Q 1730.301 -115.945 1731.09 -115.945 L 1731.09 -115.945 L 1731.09 -115.945 Q 1731.864 -115.945 1732.208 -116.791 L 1732.208 -116.791 L 1732.208 -116.791 Q 1732.553 -117.637 1732.553 -119.545 L 1732.553 -119.545 L 1732.553 -119.545 Q 1732.553 -121.474 1732.205 -122.316 L 1732.205 -122.316 L 1732.205 -122.316 Q 1731.857 -123.159 1731.09 -123.159 L 1731.09 -123.159 L 1731.09 -123.159 Q 1730.308 -123.159 1729.971 -122.316 L 1729.971 -122.316 L 1729.971 -122.316 Q 1729.634 -121.474 1729.634 -119.545 Z " fill="rgb(255,255,255)"/><path d=" M 1017.711 -108.829 L 1019.214 -105.376 L 1020.729 -108.829 L 1022.524 -108.829 L 1020.327 -104.544 L 1021.446 -104.544 L 1021.446 -103.523 L 1020.034 -103.523 L 1020.034 -102.731 L 1021.446 -102.731 L 1021.446 -101.71 L 1020.034 -101.71 L 1020.034 -100.442 L 1018.388 -100.442 L 1018.388 -101.71 L 1016.971 -101.71 L 1016.971 -102.731 L 1018.388 -102.731 L 1018.388 -103.523 L 1016.971 -103.523 L 1016.971 -104.544 L 1018.061 -104.544 L 1015.898 -108.829 L 1017.711 -108.829 L 1017.711 -108.829 Z  M 1026.093 -105.8 L 1026.093 -105.8 L 1026.093 -105.8 Q 1027.309 -105.8 1028.029 -105.118 L 1028.029 -105.118 L 1028.029 -105.118 Q 1028.749 -104.435 1028.749 -103.247 L 1028.749 -103.247 L 1028.749 -103.247 Q 1028.749 -101.842 1027.882 -101.085 L 1027.882 -101.085 L 1027.882 -101.085 Q 1027.016 -100.327 1025.404 -100.327 L 1025.404 -100.327 L 1025.404 -100.327 Q 1024.004 -100.327 1023.144 -100.781 L 1023.144 -100.781 L 1023.144 -102.312 L 1023.144 -102.312 Q 1023.597 -102.071 1024.199 -101.919 L 1024.199 -101.919 L 1024.199 -101.919 Q 1024.802 -101.767 1025.341 -101.767 L 1025.341 -101.767 L 1025.341 -101.767 Q 1026.965 -101.767 1026.965 -103.098 L 1026.965 -103.098 L 1026.965 -103.098 Q 1026.965 -104.366 1025.284 -104.366 L 1025.284 -104.366 L 1025.284 -104.366 Q 1024.98 -104.366 1024.612 -104.306 L 1024.612 -104.306 L 1024.612 -104.306 Q 1024.245 -104.246 1024.016 -104.177 L 1024.016 -104.177 L 1023.31 -104.555 L 1023.626 -108.829 L 1028.175 -108.829 L 1028.175 -107.326 L 1025.18 -107.326 L 1025.025 -105.68 L 1025.226 -105.72 L 1025.226 -105.72 Q 1025.576 -105.8 1026.093 -105.8 Z  M 1032.799 -105.8 L 1032.799 -105.8 L 1032.799 -105.8 Q 1034.015 -105.8 1034.735 -105.118 L 1034.735 -105.118 L 1034.735 -105.118 Q 1035.455 -104.435 1035.455 -103.247 L 1035.455 -103.247 L 1035.455 -103.247 Q 1035.455 -101.842 1034.589 -101.085 L 1034.589 -101.085 L 1034.589 -101.085 Q 1033.722 -100.327 1032.11 -100.327 L 1032.11 -100.327 L 1032.11 -100.327 Q 1030.711 -100.327 1029.85 -100.781 L 1029.85 -100.781 L 1029.85 -102.312 L 1029.85 -102.312 Q 1030.303 -102.071 1030.906 -101.919 L 1030.906 -101.919 L 1030.906 -101.919 Q 1031.508 -101.767 1032.047 -101.767 L 1032.047 -101.767 L 1032.047 -101.767 Q 1033.671 -101.767 1033.671 -103.098 L 1033.671 -103.098 L 1033.671 -103.098 Q 1033.671 -104.366 1031.99 -104.366 L 1031.99 -104.366 L 1031.99 -104.366 Q 1031.686 -104.366 1031.319 -104.306 L 1031.319 -104.306 L 1031.319 -104.306 Q 1030.952 -104.246 1030.722 -104.177 L 1030.722 -104.177 L 1030.016 -104.555 L 1030.332 -108.829 L 1034.881 -108.829 L 1034.881 -107.326 L 1031.887 -107.326 L 1031.732 -105.68 L 1031.933 -105.72 L 1031.933 -105.72 Q 1032.283 -105.8 1032.799 -105.8 Z  M 1042.27 -104.636 L 1042.27 -104.636 L 1042.27 -104.636 Q 1042.27 -102.439 1041.55 -101.383 L 1041.55 -101.383 L 1041.55 -101.383 Q 1040.83 -100.327 1039.333 -100.327 L 1039.333 -100.327 L 1039.333 -100.327 Q 1037.882 -100.327 1037.144 -101.417 L 1037.144 -101.417 L 1037.144 -101.417 Q 1036.407 -102.507 1036.407 -104.636 L 1036.407 -104.636 L 1036.407 -104.636 Q 1036.407 -106.856 1037.124 -107.909 L 1037.124 -107.909 L 1037.124 -107.909 Q 1037.842 -108.961 1039.333 -108.961 L 1039.333 -108.961 L 1039.333 -108.961 Q 1040.785 -108.961 1041.527 -107.86 L 1041.527 -107.86 L 1041.527 -107.86 Q 1042.27 -106.758 1042.27 -104.636 Z  M 1038.169 -104.636 L 1038.169 -104.636 L 1038.169 -104.636 Q 1038.169 -103.093 1038.435 -102.424 L 1038.435 -102.424 L 1038.435 -102.424 Q 1038.702 -101.756 1039.333 -101.756 L 1039.333 -101.756 L 1039.333 -101.756 Q 1039.953 -101.756 1040.228 -102.433 L 1040.228 -102.433 L 1040.228 -102.433 Q 1040.503 -103.11 1040.503 -104.636 L 1040.503 -104.636 L 1040.503 -104.636 Q 1040.503 -106.179 1040.225 -106.853 L 1040.225 -106.853 L 1040.225 -106.853 Q 1039.947 -107.527 1039.333 -107.527 L 1039.333 -107.527 L 1039.333 -107.527 Q 1038.708 -107.527 1038.438 -106.853 L 1038.438 -106.853 L 1038.438 -106.853 Q 1038.169 -106.179 1038.169 -104.636 Z  M 1048.977 -104.636 L 1048.977 -104.636 L 1048.977 -104.636 Q 1048.977 -102.439 1048.257 -101.383 L 1048.257 -101.383 L 1048.257 -101.383 Q 1047.537 -100.327 1046.039 -100.327 L 1046.039 -100.327 L 1046.039 -100.327 Q 1044.588 -100.327 1043.851 -101.417 L 1043.851 -101.417 L 1043.851 -101.417 Q 1043.114 -102.507 1043.114 -104.636 L 1043.114 -104.636 L 1043.114 -104.636 Q 1043.114 -106.856 1043.831 -107.909 L 1043.831 -107.909 L 1043.831 -107.909 Q 1044.548 -108.961 1046.039 -108.961 L 1046.039 -108.961 L 1046.039 -108.961 Q 1047.491 -108.961 1048.234 -107.86 L 1048.234 -107.86 L 1048.234 -107.86 Q 1048.977 -106.758 1048.977 -104.636 Z  M 1044.875 -104.636 L 1044.875 -104.636 L 1044.875 -104.636 Q 1044.875 -103.093 1045.142 -102.424 L 1045.142 -102.424 L 1045.142 -102.424 Q 1045.408 -101.756 1046.039 -101.756 L 1046.039 -101.756 L 1046.039 -101.756 Q 1046.659 -101.756 1046.934 -102.433 L 1046.934 -102.433 L 1046.934 -102.433 Q 1047.21 -103.11 1047.21 -104.636 L 1047.21 -104.636 L 1047.21 -104.636 Q 1047.21 -106.179 1046.932 -106.853 L 1046.932 -106.853 L 1046.932 -106.853 Q 1046.653 -107.527 1046.039 -107.527 L 1046.039 -107.527 L 1046.039 -107.527 Q 1045.414 -107.527 1045.144 -106.853 L 1045.144 -106.853 L 1045.144 -106.853 Q 1044.875 -106.179 1044.875 -104.636 Z  M 1055.683 -104.636 L 1055.683 -104.636 L 1055.683 -104.636 Q 1055.683 -102.439 1054.963 -101.383 L 1054.963 -101.383 L 1054.963 -101.383 Q 1054.243 -100.327 1052.746 -100.327 L 1052.746 -100.327 L 1052.746 -100.327 Q 1051.294 -100.327 1050.557 -101.417 L 1050.557 -101.417 L 1050.557 -101.417 Q 1049.82 -102.507 1049.82 -104.636 L 1049.82 -104.636 L 1049.82 -104.636 Q 1049.82 -106.856 1050.537 -107.909 L 1050.537 -107.909 L 1050.537 -107.909 Q 1051.254 -108.961 1052.746 -108.961 L 1052.746 -108.961 L 1052.746 -108.961 Q 1054.197 -108.961 1054.94 -107.86 L 1054.94 -107.86 L 1054.94 -107.86 Q 1055.683 -106.758 1055.683 -104.636 Z  M 1051.581 -104.636 L 1051.581 -104.636 L 1051.581 -104.636 Q 1051.581 -103.093 1051.848 -102.424 L 1051.848 -102.424 L 1051.848 -102.424 Q 1052.115 -101.756 1052.746 -101.756 L 1052.746 -101.756 L 1052.746 -101.756 Q 1053.365 -101.756 1053.641 -102.433 L 1053.641 -102.433 L 1053.641 -102.433 Q 1053.916 -103.11 1053.916 -104.636 L 1053.916 -104.636 L 1053.916 -104.636 Q 1053.916 -106.179 1053.638 -106.853 L 1053.638 -106.853 L 1053.638 -106.853 Q 1053.36 -107.527 1052.746 -107.527 L 1052.746 -107.527 L 1052.746 -107.527 Q 1052.12 -107.527 1051.851 -106.853 L 1051.851 -106.853 L 1051.851 -106.853 Q 1051.581 -106.179 1051.581 -104.636 Z " fill="rgb(49,38,64)"/><path d=" M 1017.921 -220.829 L 1019.424 -217.376 L 1020.939 -220.829 L 1022.734 -220.829 L 1020.537 -216.544 L 1021.656 -216.544 L 1021.656 -215.523 L 1020.245 -215.523 L 1020.245 -214.731 L 1021.656 -214.731 L 1021.656 -213.71 L 1020.245 -213.71 L 1020.245 -212.442 L 1018.598 -212.442 L 1018.598 -213.71 L 1017.181 -213.71 L 1017.181 -214.731 L 1018.598 -214.731 L 1018.598 -215.523 L 1017.181 -215.523 L 1017.181 -216.544 L 1018.271 -216.544 L 1016.108 -220.829 L 1017.921 -220.829 L 1017.921 -220.829 Z  M 1023.193 -216.005 L 1023.193 -216.005 L 1023.193 -216.005 Q 1023.193 -218.494 1024.246 -219.711 L 1024.246 -219.711 L 1024.246 -219.711 Q 1025.299 -220.927 1027.399 -220.927 L 1027.399 -220.927 L 1027.399 -220.927 Q 1028.116 -220.927 1028.523 -220.841 L 1028.523 -220.841 L 1028.523 -219.424 L 1028.523 -219.424 Q 1028.012 -219.539 1027.513 -219.539 L 1027.513 -219.539 L 1027.513 -219.539 Q 1026.601 -219.539 1026.025 -219.263 L 1026.025 -219.263 L 1026.025 -219.263 Q 1025.448 -218.988 1025.161 -218.449 L 1025.161 -218.449 L 1025.161 -218.449 Q 1024.874 -217.909 1024.823 -216.917 L 1024.823 -216.917 L 1024.897 -216.917 L 1024.897 -216.917 Q 1025.465 -217.892 1026.716 -217.892 L 1026.716 -217.892 L 1026.716 -217.892 Q 1027.84 -217.892 1028.477 -217.186 L 1028.477 -217.186 L 1028.477 -217.186 Q 1029.114 -216.481 1029.114 -215.236 L 1029.114 -215.236 L 1029.114 -215.236 Q 1029.114 -213.894 1028.357 -213.11 L 1028.357 -213.11 L 1028.357 -213.11 Q 1027.599 -212.327 1026.257 -212.327 L 1026.257 -212.327 L 1026.257 -212.327 Q 1025.328 -212.327 1024.636 -212.758 L 1024.636 -212.758 L 1024.636 -212.758 Q 1023.945 -213.188 1023.569 -214.014 L 1023.569 -214.014 L 1023.569 -214.014 Q 1023.193 -214.84 1023.193 -216.005 Z  M 1026.222 -213.744 L 1026.222 -213.744 L 1026.222 -213.744 Q 1026.79 -213.744 1027.094 -214.126 L 1027.094 -214.126 L 1027.094 -214.126 Q 1027.399 -214.507 1027.399 -215.213 L 1027.399 -215.213 L 1027.399 -215.213 Q 1027.399 -215.827 1027.115 -216.18 L 1027.115 -216.18 L 1027.115 -216.18 Q 1026.831 -216.532 1026.257 -216.532 L 1026.257 -216.532 L 1026.257 -216.532 Q 1025.718 -216.532 1025.336 -216.183 L 1025.336 -216.183 L 1025.336 -216.183 Q 1024.955 -215.833 1024.955 -215.368 L 1024.955 -215.368 L 1024.955 -215.368 Q 1024.955 -214.685 1025.313 -214.215 L 1025.313 -214.215 L 1025.313 -214.215 Q 1025.672 -213.744 1026.222 -213.744 Z  M 1029.9 -216.005 L 1029.9 -216.005 L 1029.9 -216.005 Q 1029.9 -218.494 1030.952 -219.711 L 1030.952 -219.711 L 1030.952 -219.711 Q 1032.005 -220.927 1034.105 -220.927 L 1034.105 -220.927 L 1034.105 -220.927 Q 1034.822 -220.927 1035.229 -220.841 L 1035.229 -220.841 L 1035.229 -219.424 L 1035.229 -219.424 Q 1034.719 -219.539 1034.22 -219.539 L 1034.22 -219.539 L 1034.22 -219.539 Q 1033.307 -219.539 1032.731 -219.263 L 1032.731 -219.263 L 1032.731 -219.263 Q 1032.154 -218.988 1031.868 -218.449 L 1031.868 -218.449 L 1031.868 -218.449 Q 1031.581 -217.909 1031.529 -216.917 L 1031.529 -216.917 L 1031.604 -216.917 L 1031.604 -216.917 Q 1032.172 -217.892 1033.422 -217.892 L 1033.422 -217.892 L 1033.422 -217.892 Q 1034.547 -217.892 1035.183 -217.186 L 1035.183 -217.186 L 1035.183 -217.186 Q 1035.82 -216.481 1035.82 -215.236 L 1035.82 -215.236 L 1035.82 -215.236 Q 1035.82 -213.894 1035.063 -213.11 L 1035.063 -213.11 L 1035.063 -213.11 Q 1034.306 -212.327 1032.963 -212.327 L 1032.963 -212.327 L 1032.963 -212.327 Q 1032.034 -212.327 1031.343 -212.758 L 1031.343 -212.758 L 1031.343 -212.758 Q 1030.651 -213.188 1030.276 -214.014 L 1030.276 -214.014 L 1030.276 -214.014 Q 1029.9 -214.84 1029.9 -216.005 Z  M 1032.929 -213.744 L 1032.929 -213.744 L 1032.929 -213.744 Q 1033.497 -213.744 1033.801 -214.126 L 1033.801 -214.126 L 1033.801 -214.126 Q 1034.105 -214.507 1034.105 -215.213 L 1034.105 -215.213 L 1034.105 -215.213 Q 1034.105 -215.827 1033.821 -216.18 L 1033.821 -216.18 L 1033.821 -216.18 Q 1033.537 -216.532 1032.963 -216.532 L 1032.963 -216.532 L 1032.963 -216.532 Q 1032.424 -216.532 1032.042 -216.183 L 1032.042 -216.183 L 1032.042 -216.183 Q 1031.661 -215.833 1031.661 -215.368 L 1031.661 -215.368 L 1031.661 -215.368 Q 1031.661 -214.685 1032.02 -214.215 L 1032.02 -214.215 L 1032.02 -214.215 Q 1032.378 -213.744 1032.929 -213.744 Z  M 1042.481 -216.636 L 1042.481 -216.636 L 1042.481 -216.636 Q 1042.481 -214.439 1041.761 -213.383 L 1041.761 -213.383 L 1041.761 -213.383 Q 1041.041 -212.327 1039.543 -212.327 L 1039.543 -212.327 L 1039.543 -212.327 Q 1038.092 -212.327 1037.355 -213.417 L 1037.355 -213.417 L 1037.355 -213.417 Q 1036.618 -214.507 1036.618 -216.636 L 1036.618 -216.636 L 1036.618 -216.636 Q 1036.618 -218.856 1037.335 -219.909 L 1037.335 -219.909 L 1037.335 -219.909 Q 1038.052 -220.961 1039.543 -220.961 L 1039.543 -220.961 L 1039.543 -220.961 Q 1040.995 -220.961 1041.738 -219.86 L 1041.738 -219.86 L 1041.738 -219.86 Q 1042.481 -218.758 1042.481 -216.636 Z  M 1038.379 -216.636 L 1038.379 -216.636 L 1038.379 -216.636 Q 1038.379 -215.093 1038.646 -214.424 L 1038.646 -214.424 L 1038.646 -214.424 Q 1038.912 -213.756 1039.543 -213.756 L 1039.543 -213.756 L 1039.543 -213.756 Q 1040.163 -213.756 1040.438 -214.433 L 1040.438 -214.433 L 1040.438 -214.433 Q 1040.714 -215.11 1040.714 -216.636 L 1040.714 -216.636 L 1040.714 -216.636 Q 1040.714 -218.179 1040.435 -218.853 L 1040.435 -218.853 L 1040.435 -218.853 Q 1040.157 -219.527 1039.543 -219.527 L 1039.543 -219.527 L 1039.543 -219.527 Q 1038.918 -219.527 1038.648 -218.853 L 1038.648 -218.853 L 1038.648 -218.853 Q 1038.379 -218.179 1038.379 -216.636 Z  M 1049.187 -216.636 L 1049.187 -216.636 L 1049.187 -216.636 Q 1049.187 -214.439 1048.467 -213.383 L 1048.467 -213.383 L 1048.467 -213.383 Q 1047.747 -212.327 1046.25 -212.327 L 1046.25 -212.327 L 1046.25 -212.327 Q 1044.798 -212.327 1044.061 -213.417 L 1044.061 -213.417 L 1044.061 -213.417 Q 1043.324 -214.507 1043.324 -216.636 L 1043.324 -216.636 L 1043.324 -216.636 Q 1043.324 -218.856 1044.041 -219.909 L 1044.041 -219.909 L 1044.041 -219.909 Q 1044.758 -220.961 1046.25 -220.961 L 1046.25 -220.961 L 1046.25 -220.961 Q 1047.701 -220.961 1048.444 -219.86 L 1048.444 -219.86 L 1048.444 -219.86 Q 1049.187 -218.758 1049.187 -216.636 Z  M 1045.085 -216.636 L 1045.085 -216.636 L 1045.085 -216.636 Q 1045.085 -215.093 1045.352 -214.424 L 1045.352 -214.424 L 1045.352 -214.424 Q 1045.619 -213.756 1046.25 -213.756 L 1046.25 -213.756 L 1046.25 -213.756 Q 1046.869 -213.756 1047.145 -214.433 L 1047.145 -214.433 L 1047.145 -214.433 Q 1047.42 -215.11 1047.42 -216.636 L 1047.42 -216.636 L 1047.42 -216.636 Q 1047.42 -218.179 1047.142 -218.853 L 1047.142 -218.853 L 1047.142 -218.853 Q 1046.864 -219.527 1046.25 -219.527 L 1046.25 -219.527 L 1046.25 -219.527 Q 1045.624 -219.527 1045.355 -218.853 L 1045.355 -218.853 L 1045.355 -218.853 Q 1045.085 -218.179 1045.085 -216.636 Z  M 1055.893 -216.636 L 1055.893 -216.636 L 1055.893 -216.636 Q 1055.893 -214.439 1055.173 -213.383 L 1055.173 -213.383 L 1055.173 -213.383 Q 1054.453 -212.327 1052.956 -212.327 L 1052.956 -212.327 L 1052.956 -212.327 Q 1051.505 -212.327 1050.767 -213.417 L 1050.767 -213.417 L 1050.767 -213.417 Q 1050.03 -214.507 1050.03 -216.636 L 1050.03 -216.636 L 1050.03 -216.636 Q 1050.03 -218.856 1050.747 -219.909 L 1050.747 -219.909 L 1050.747 -219.909 Q 1051.465 -220.961 1052.956 -220.961 L 1052.956 -220.961 L 1052.956 -220.961 Q 1054.407 -220.961 1055.15 -219.86 L 1055.15 -219.86 L 1055.15 -219.86 Q 1055.893 -218.758 1055.893 -216.636 Z  M 1051.792 -216.636 L 1051.792 -216.636 L 1051.792 -216.636 Q 1051.792 -215.093 1052.058 -214.424 L 1052.058 -214.424 L 1052.058 -214.424 Q 1052.325 -213.756 1052.956 -213.756 L 1052.956 -213.756 L 1052.956 -213.756 Q 1053.576 -213.756 1053.851 -214.433 L 1053.851 -214.433 L 1053.851 -214.433 Q 1054.126 -215.11 1054.126 -216.636 L 1054.126 -216.636 L 1054.126 -216.636 Q 1054.126 -218.179 1053.848 -218.853 L 1053.848 -218.853 L 1053.848 -218.853 Q 1053.57 -219.527 1052.956 -219.527 L 1052.956 -219.527 L 1052.956 -219.527 Q 1052.331 -219.527 1052.061 -218.853 L 1052.061 -218.853 L 1052.061 -218.853 Q 1051.792 -218.179 1051.792 -216.636 Z " fill="rgb(49,38,64)"/><line x1="1070" y1="294.819" x2="1220" y2="145" vector-effect="non-scaling-stroke" stroke-width="2" stroke="rgb(49,38,64)" stroke-linejoin="round" stroke-linecap="round" stroke-miterlimit="3"/><line x1="1070" y1="145" x2="1280" y2="145" vector-effect="non-scaling-stroke" stroke-width="2" stroke-dasharray="6,6" stroke="rgb(49,38,64)" stroke-linejoin="round" stroke-linecap="round" stroke-miterlimit="3"/><path d=" M 1580.051 -105 L 1580 -105 L 1280 145" fill="none" vector-effect="non-scaling-stroke" stroke-width="2" stroke="rgb(49,38,64)" stroke-linejoin="round" stroke-linecap="round" stroke-miterlimit="3"/><line x1="1670" y1="-105" x2="1820" y2="-215" vector-effect="non-scaling-stroke" stroke-width="2" stroke="rgb(49,38,64)" stroke-linejoin="round" stroke-linecap="round" stroke-miterlimit="3"/><line x1="1070" y1="-105" x2="1670" y2="-105" vector-effect="non-scaling-stroke" stroke-width="2" stroke-dasharray="6,6" stroke="rgb(49,38,64)" stroke-linejoin="round" stroke-linecap="round" stroke-miterlimit="3"/><path d=" M 1312.062 123.213 L 1313.941 127.53 L 1315.834 123.213 L 1318.079 123.213 L 1315.332 128.57 L 1316.73 128.57 L 1316.73 129.847 L 1314.966 129.847 L 1314.966 130.836 L 1316.73 130.836 L 1316.73 132.113 L 1314.966 132.113 L 1314.966 133.697 L 1312.908 133.697 L 1312.908 132.113 L 1311.137 132.113 L 1311.137 130.836 L 1312.908 130.836 L 1312.908 129.847 L 1311.137 129.847 L 1311.137 128.57 L 1312.499 128.57 L 1309.796 123.213 L 1312.062 123.213 L 1312.062 123.213 Z  M 1326.053 131.833 L 1326.053 133.697 L 1318.724 133.697 L 1318.724 132.156 L 1321.356 129.495 L 1321.356 129.495 Q 1322.525 128.298 1322.883 127.835 L 1322.883 127.835 L 1322.883 127.835 Q 1323.242 127.373 1323.399 126.978 L 1323.399 126.978 L 1323.399 126.978 Q 1323.557 126.584 1323.557 126.161 L 1323.557 126.161 L 1323.557 126.161 Q 1323.557 125.53 1323.209 125.221 L 1323.209 125.221 L 1323.209 125.221 Q 1322.862 124.913 1322.281 124.913 L 1322.281 124.913 L 1322.281 124.913 Q 1321.671 124.913 1321.098 125.193 L 1321.098 125.193 L 1321.098 125.193 Q 1320.524 125.472 1319.9 125.989 L 1319.9 125.989 L 1318.695 124.561 L 1318.695 124.561 Q 1319.47 123.902 1319.979 123.629 L 1319.979 123.629 L 1319.979 123.629 Q 1320.488 123.357 1321.09 123.21 L 1321.09 123.21 L 1321.09 123.21 Q 1321.693 123.063 1322.439 123.063 L 1322.439 123.063 L 1322.439 123.063 Q 1323.421 123.063 1324.174 123.421 L 1324.174 123.421 L 1324.174 123.421 Q 1324.927 123.78 1325.343 124.425 L 1325.343 124.425 L 1325.343 124.425 Q 1325.759 125.071 1325.759 125.902 L 1325.759 125.902 L 1325.759 125.902 Q 1325.759 126.627 1325.504 127.261 L 1325.504 127.261 L 1325.504 127.261 Q 1325.25 127.896 1324.715 128.563 L 1324.715 128.563 L 1324.715 128.563 Q 1324.181 129.23 1322.833 130.463 L 1322.833 130.463 L 1321.485 131.733 L 1321.485 131.833 L 1326.053 131.833 L 1326.053 131.833 Z  M 1330.922 127 L 1330.922 127 L 1330.922 127 Q 1332.442 127 1333.342 127.853 L 1333.342 127.853 L 1333.342 127.853 Q 1334.242 128.706 1334.242 130.191 L 1334.242 130.191 L 1334.242 130.191 Q 1334.242 131.948 1333.159 132.894 L 1333.159 132.894 L 1333.159 132.894 Q 1332.076 133.841 1330.061 133.841 L 1330.061 133.841 L 1330.061 133.841 Q 1328.312 133.841 1327.236 133.274 L 1327.236 133.274 L 1327.236 131.36 L 1327.236 131.36 Q 1327.802 131.661 1328.555 131.851 L 1328.555 131.851 L 1328.555 131.851 Q 1329.308 132.041 1329.982 132.041 L 1329.982 132.041 L 1329.982 132.041 Q 1332.012 132.041 1332.012 130.377 L 1332.012 130.377 L 1332.012 130.377 Q 1332.012 128.792 1329.911 128.792 L 1329.911 128.792 L 1329.911 128.792 Q 1329.531 128.792 1329.072 128.868 L 1329.072 128.868 L 1329.072 128.868 Q 1328.613 128.943 1328.326 129.029 L 1328.326 129.029 L 1327.444 128.556 L 1327.838 123.213 L 1333.525 123.213 L 1333.525 125.092 L 1329.782 125.092 L 1329.588 127.15 L 1329.839 127.1 L 1329.839 127.1 Q 1330.276 127 1330.922 127 Z  M 1342.761 128.455 L 1342.761 128.455 L 1342.761 128.455 Q 1342.761 131.202 1341.861 132.521 L 1341.861 132.521 L 1341.861 132.521 Q 1340.961 133.841 1339.09 133.841 L 1339.09 133.841 L 1339.09 133.841 Q 1337.275 133.841 1336.354 132.478 L 1336.354 132.478 L 1336.354 132.478 Q 1335.432 131.116 1335.432 128.455 L 1335.432 128.455 L 1335.432 128.455 Q 1335.432 125.68 1336.329 124.364 L 1336.329 124.364 L 1336.329 124.364 Q 1337.225 123.048 1339.09 123.048 L 1339.09 123.048 L 1339.09 123.048 Q 1340.904 123.048 1341.833 124.425 L 1341.833 124.425 L 1341.833 124.425 Q 1342.761 125.802 1342.761 128.455 Z  M 1337.634 128.455 L 1337.634 128.455 L 1337.634 128.455 Q 1337.634 130.384 1337.967 131.22 L 1337.967 131.22 L 1337.967 131.22 Q 1338.301 132.055 1339.09 132.055 L 1339.09 132.055 L 1339.09 132.055 Q 1339.864 132.055 1340.208 131.209 L 1340.208 131.209 L 1340.208 131.209 Q 1340.553 130.363 1340.553 128.455 L 1340.553 128.455 L 1340.553 128.455 Q 1340.553 126.526 1340.205 125.684 L 1340.205 125.684 L 1340.205 125.684 Q 1339.857 124.841 1339.09 124.841 L 1339.09 124.841 L 1339.09 124.841 Q 1338.308 124.841 1337.971 125.684 L 1337.971 125.684 L 1337.971 125.684 Q 1337.634 126.526 1337.634 128.455 Z " fill="rgb(255,255,255)"/><line x1="1220" y1="145" x2="1220" y2="295" vector-effect="non-scaling-stroke" stroke-width="2" stroke-dasharray="6,6" stroke="rgb(49,38,64)" stroke-linejoin="round" stroke-linecap="round" stroke-miterlimit="3"/><line x1="1280" y1="145" x2="1280" y2="295" vector-effect="non-scaling-stroke" stroke-width="2" stroke-dasharray="6,6" stroke="rgb(49,38,64)" stroke-linejoin="round" stroke-linecap="round" stroke-miterlimit="3"/><line x1="1580" y1="-105" x2="1580" y2="295" vector-effect="non-scaling-stroke" stroke-width="2" stroke-dasharray="6,6" stroke="rgb(49,38,64)" stroke-linejoin="round" stroke-linecap="round" stroke-miterlimit="3"/><line x1="1670" y1="-105" x2="1670" y2="295" vector-effect="non-scaling-stroke" stroke-width="2" stroke-dasharray="6,6" stroke="rgb(49,38,64)" stroke-linejoin="round" stroke-linecap="round" stroke-miterlimit="3"/><path d=" M 1661.647 316.066 L 1661.647 317.558 L 1655.784 317.558 L 1655.784 316.324 L 1657.89 314.196 L 1657.89 314.196 Q 1658.825 313.238 1659.112 312.868 L 1659.112 312.868 L 1659.112 312.868 Q 1659.398 312.498 1659.525 312.183 L 1659.525 312.183 L 1659.525 312.183 Q 1659.651 311.867 1659.651 311.529 L 1659.651 311.529 L 1659.651 311.529 Q 1659.651 311.024 1659.373 310.777 L 1659.373 310.777 L 1659.373 310.777 Q 1659.094 310.53 1658.63 310.53 L 1658.63 310.53 L 1658.63 310.53 Q 1658.142 310.53 1657.683 310.754 L 1657.683 310.754 L 1657.683 310.754 Q 1657.224 310.978 1656.725 311.391 L 1656.725 311.391 L 1655.761 310.249 L 1655.761 310.249 Q 1656.381 309.721 1656.788 309.503 L 1656.788 309.503 L 1656.788 309.503 Q 1657.195 309.285 1657.677 309.168 L 1657.677 309.168 L 1657.677 309.168 Q 1658.159 309.05 1658.756 309.05 L 1658.756 309.05 L 1658.756 309.05 Q 1659.542 309.05 1660.144 309.337 L 1660.144 309.337 L 1660.144 309.337 Q 1660.747 309.624 1661.079 310.14 L 1661.079 310.14 L 1661.079 310.14 Q 1661.412 310.657 1661.412 311.322 L 1661.412 311.322 L 1661.412 311.322 Q 1661.412 311.901 1661.208 312.409 L 1661.208 312.409 L 1661.208 312.409 Q 1661.005 312.917 1660.577 313.45 L 1660.577 313.45 L 1660.577 313.45 Q 1660.15 313.984 1659.071 314.971 L 1659.071 314.971 L 1657.993 315.986 L 1657.993 316.066 L 1661.647 316.066 L 1661.647 316.066 Z  M 1665.542 312.2 L 1665.542 312.2 L 1665.542 312.2 Q 1666.759 312.2 1667.479 312.882 L 1667.479 312.882 L 1667.479 312.882 Q 1668.199 313.565 1668.199 314.753 L 1668.199 314.753 L 1668.199 314.753 Q 1668.199 316.158 1667.332 316.915 L 1667.332 316.915 L 1667.332 316.915 Q 1666.466 317.673 1664.854 317.673 L 1664.854 317.673 L 1664.854 317.673 Q 1663.454 317.673 1662.594 317.219 L 1662.594 317.219 L 1662.594 315.688 L 1662.594 315.688 Q 1663.047 315.929 1663.649 316.081 L 1663.649 316.081 L 1663.649 316.081 Q 1664.252 316.233 1664.791 316.233 L 1664.791 316.233 L 1664.791 316.233 Q 1666.414 316.233 1666.414 314.902 L 1666.414 314.902 L 1666.414 314.902 Q 1666.414 313.634 1664.734 313.634 L 1664.734 313.634 L 1664.734 313.634 Q 1664.43 313.634 1664.062 313.694 L 1664.062 313.694 L 1664.062 313.694 Q 1663.695 313.754 1663.466 313.823 L 1663.466 313.823 L 1662.76 313.445 L 1663.076 309.171 L 1667.625 309.171 L 1667.625 310.674 L 1664.63 310.674 L 1664.475 312.32 L 1664.676 312.28 L 1664.676 312.28 Q 1665.026 312.2 1665.542 312.2 Z  M 1675.014 313.364 L 1675.014 313.364 L 1675.014 313.364 Q 1675.014 315.561 1674.294 316.617 L 1674.294 316.617 L 1674.294 316.617 Q 1673.574 317.673 1672.077 317.673 L 1672.077 317.673 L 1672.077 317.673 Q 1670.625 317.673 1669.888 316.583 L 1669.888 316.583 L 1669.888 316.583 Q 1669.151 315.493 1669.151 313.364 L 1669.151 313.364 L 1669.151 313.364 Q 1669.151 311.144 1669.868 310.091 L 1669.868 310.091 L 1669.868 310.091 Q 1670.585 309.039 1672.077 309.039 L 1672.077 309.039 L 1672.077 309.039 Q 1673.528 309.039 1674.271 310.14 L 1674.271 310.14 L 1674.271 310.14 Q 1675.014 311.242 1675.014 313.364 Z  M 1670.912 313.364 L 1670.912 313.364 L 1670.912 313.364 Q 1670.912 314.907 1671.179 315.576 L 1671.179 315.576 L 1671.179 315.576 Q 1671.446 316.244 1672.077 316.244 L 1672.077 316.244 L 1672.077 316.244 Q 1672.696 316.244 1672.972 315.567 L 1672.972 315.567 L 1672.972 315.567 Q 1673.247 314.89 1673.247 313.364 L 1673.247 313.364 L 1673.247 313.364 Q 1673.247 311.821 1672.969 311.147 L 1672.969 311.147 L 1672.969 311.147 Q 1672.691 310.473 1672.077 310.473 L 1672.077 310.473 L 1672.077 310.473 Q 1671.451 310.473 1671.182 311.147 L 1671.182 311.147 L 1671.182 311.147 Q 1670.912 311.821 1670.912 313.364 Z  M 1682.271 313.376 L 1682.271 317.558 L 1680.521 317.558 L 1680.521 313.812 L 1680.521 313.812 Q 1680.521 312.423 1679.489 312.423 L 1679.489 312.423 L 1679.489 312.423 Q 1678.754 312.423 1678.427 312.923 L 1678.427 312.923 L 1678.427 312.923 Q 1678.1 313.422 1678.1 314.54 L 1678.1 314.54 L 1678.1 317.558 L 1676.351 317.558 L 1676.351 308.631 L 1678.1 308.631 L 1678.1 310.45 L 1678.1 310.45 Q 1678.1 310.662 1678.06 311.448 L 1678.06 311.448 L 1678.02 311.965 L 1678.112 311.965 L 1678.112 311.965 Q 1678.697 311.024 1679.971 311.024 L 1679.971 311.024 L 1679.971 311.024 Q 1681.101 311.024 1681.686 311.632 L 1681.686 311.632 L 1681.686 311.632 Q 1682.271 312.24 1682.271 313.376 L 1682.271 313.376 L 1682.271 313.376 Z " fill="rgb(49,38,64)"/><path d=" M 1860.47 295.84 L 1860.47 295.84 L 1860.47 295.84 Q 1860.47 294.319 1860.915 292.994 L 1860.915 292.994 L 1860.915 292.994 Q 1861.36 291.669 1862.197 290.671 L 1862.197 290.671 L 1863.631 290.671 L 1863.631 290.671 Q 1862.823 291.778 1862.409 293.103 L 1862.409 293.103 L 1862.409 293.103 Q 1861.996 294.428 1861.996 295.828 L 1861.996 295.828 L 1861.996 295.828 Q 1861.996 297.234 1862.418 298.544 L 1862.418 298.544 L 1862.418 298.544 Q 1862.84 299.855 1863.62 300.917 L 1863.62 300.917 L 1862.197 300.917 L 1862.197 300.917 Q 1861.354 299.941 1860.912 298.639 L 1860.912 298.639 L 1860.912 298.639 Q 1860.47 297.337 1860.47 295.84 Z  M 1868.835 290.671 L 1868.835 299.058 L 1867.062 299.058 L 1867.062 294.205 L 1867.079 293.407 L 1867.108 292.535 L 1867.108 292.535 Q 1866.666 292.977 1866.494 293.115 L 1866.494 293.115 L 1865.53 293.889 L 1864.676 292.822 L 1867.378 290.671 L 1868.835 290.671 L 1868.835 290.671 Z  M 1876.975 294.864 L 1876.975 294.864 L 1876.975 294.864 Q 1876.975 297.061 1876.255 298.117 L 1876.255 298.117 L 1876.255 298.117 Q 1875.535 299.173 1874.038 299.173 L 1874.038 299.173 L 1874.038 299.173 Q 1872.587 299.173 1871.849 298.083 L 1871.849 298.083 L 1871.849 298.083 Q 1871.112 296.993 1871.112 294.864 L 1871.112 294.864 L 1871.112 294.864 Q 1871.112 292.644 1871.829 291.591 L 1871.829 291.591 L 1871.829 291.591 Q 1872.546 290.539 1874.038 290.539 L 1874.038 290.539 L 1874.038 290.539 Q 1875.489 290.539 1876.232 291.64 L 1876.232 291.64 L 1876.232 291.64 Q 1876.975 292.742 1876.975 294.864 Z  M 1872.873 294.864 L 1872.873 294.864 L 1872.873 294.864 Q 1872.873 296.407 1873.14 297.076 L 1873.14 297.076 L 1873.14 297.076 Q 1873.407 297.744 1874.038 297.744 L 1874.038 297.744 L 1874.038 297.744 Q 1874.658 297.744 1874.933 297.067 L 1874.933 297.067 L 1874.933 297.067 Q 1875.208 296.39 1875.208 294.864 L 1875.208 294.864 L 1875.208 294.864 Q 1875.208 293.321 1874.93 292.647 L 1874.93 292.647 L 1874.93 292.647 Q 1874.652 291.973 1874.038 291.973 L 1874.038 291.973 L 1874.038 291.973 Q 1873.413 291.973 1873.143 292.647 L 1873.143 292.647 L 1873.143 292.647 Q 1872.873 293.321 1872.873 294.864 Z  M 1884.232 294.876 L 1884.232 299.058 L 1882.483 299.058 L 1882.483 295.312 L 1882.483 295.312 Q 1882.483 293.923 1881.45 293.923 L 1881.45 293.923 L 1881.45 293.923 Q 1880.716 293.923 1880.389 294.423 L 1880.389 294.423 L 1880.389 294.423 Q 1880.062 294.922 1880.062 296.04 L 1880.062 296.04 L 1880.062 299.058 L 1878.312 299.058 L 1878.312 290.131 L 1880.062 290.131 L 1880.062 291.95 L 1880.062 291.95 Q 1880.062 292.162 1880.022 292.948 L 1880.022 292.948 L 1879.981 293.465 L 1880.073 293.465 L 1880.073 293.465 Q 1880.658 292.524 1881.932 292.524 L 1881.932 292.524 L 1881.932 292.524 Q 1883.062 292.524 1883.647 293.132 L 1883.647 293.132 L 1883.647 293.132 Q 1884.232 293.74 1884.232 294.876 L 1884.232 294.876 L 1884.232 294.876 Z  M 1888.627 295.84 L 1888.627 295.84 L 1888.627 295.84 Q 1888.627 297.348 1888.182 298.651 L 1888.182 298.651 L 1888.182 298.651 Q 1887.738 299.953 1886.9 300.917 L 1886.9 300.917 L 1885.477 300.917 L 1885.477 300.917 Q 1886.252 299.861 1886.676 298.55 L 1886.676 298.55 L 1886.676 298.55 Q 1887.101 297.239 1887.101 295.828 L 1887.101 295.828 L 1887.101 295.828 Q 1887.101 294.428 1886.688 293.103 L 1886.688 293.103 L 1886.688 293.103 Q 1886.275 291.778 1885.466 290.671 L 1885.466 290.671 L 1886.9 290.671 L 1886.9 290.671 Q 1887.743 291.675 1888.185 293.003 L 1888.185 293.003 L 1888.185 293.003 Q 1888.627 294.331 1888.627 295.84 Z " fill="rgb(49,38,64)"/><path d=" M 1054.166 -267.829 L 1055.669 -264.376 L 1057.184 -267.829 L 1058.98 -267.829 L 1056.782 -263.544 L 1057.901 -263.544 L 1057.901 -262.523 L 1056.49 -262.523 L 1056.49 -261.731 L 1057.901 -261.731 L 1057.901 -260.71 L 1056.49 -260.71 L 1056.49 -259.442 L 1054.843 -259.442 L 1054.843 -260.71 L 1053.426 -260.71 L 1053.426 -261.731 L 1054.843 -261.731 L 1054.843 -262.523 L 1053.426 -262.523 L 1053.426 -263.544 L 1054.516 -263.544 L 1052.354 -267.829 L 1054.166 -267.829 L 1054.166 -267.829 Z  M 1065.032 -265.953 L 1065.032 -265.953 L 1065.032 -265.953 Q 1065.032 -265.167 1064.556 -264.617 L 1064.556 -264.617 L 1064.556 -264.617 Q 1064.08 -264.066 1063.219 -263.859 L 1063.219 -263.859 L 1063.219 -263.825 L 1063.219 -263.825 Q 1064.234 -263.699 1064.757 -263.208 L 1064.757 -263.208 L 1064.757 -263.208 Q 1065.279 -262.718 1065.279 -261.886 L 1065.279 -261.886 L 1065.279 -261.886 Q 1065.279 -260.676 1064.401 -260.001 L 1064.401 -260.001 L 1064.401 -260.001 Q 1063.523 -259.327 1061.894 -259.327 L 1061.894 -259.327 L 1061.894 -259.327 Q 1060.529 -259.327 1059.473 -259.781 L 1059.473 -259.781 L 1059.473 -261.289 L 1059.473 -261.289 Q 1059.961 -261.043 1060.546 -260.888 L 1060.546 -260.888 L 1060.546 -260.888 Q 1061.131 -260.733 1061.705 -260.733 L 1061.705 -260.733 L 1061.705 -260.733 Q 1062.582 -260.733 1063.001 -261.031 L 1063.001 -261.031 L 1063.001 -261.031 Q 1063.42 -261.33 1063.42 -261.989 L 1063.42 -261.989 L 1063.42 -261.989 Q 1063.42 -262.58 1062.938 -262.827 L 1062.938 -262.827 L 1062.938 -262.827 Q 1062.456 -263.074 1061.401 -263.074 L 1061.401 -263.074 L 1060.764 -263.074 L 1060.764 -264.433 L 1061.412 -264.433 L 1061.412 -264.433 Q 1062.387 -264.433 1062.838 -264.688 L 1062.838 -264.688 L 1062.838 -264.688 Q 1063.288 -264.944 1063.288 -265.563 L 1063.288 -265.563 L 1063.288 -265.563 Q 1063.288 -266.516 1062.095 -266.516 L 1062.095 -266.516 L 1062.095 -266.516 Q 1061.682 -266.516 1061.254 -266.378 L 1061.254 -266.378 L 1061.254 -266.378 Q 1060.827 -266.24 1060.305 -265.902 L 1060.305 -265.902 L 1059.484 -267.124 L 1059.484 -267.124 Q 1060.632 -267.95 1062.221 -267.95 L 1062.221 -267.95 L 1062.221 -267.95 Q 1063.523 -267.95 1064.278 -267.422 L 1064.278 -267.422 L 1064.278 -267.422 Q 1065.032 -266.894 1065.032 -265.953 Z  M 1072.019 -263.636 L 1072.019 -263.636 L 1072.019 -263.636 Q 1072.019 -261.439 1071.299 -260.383 L 1071.299 -260.383 L 1071.299 -260.383 Q 1070.579 -259.327 1069.082 -259.327 L 1069.082 -259.327 L 1069.082 -259.327 Q 1067.631 -259.327 1066.894 -260.417 L 1066.894 -260.417 L 1066.894 -260.417 Q 1066.156 -261.507 1066.156 -263.636 L 1066.156 -263.636 L 1066.156 -263.636 Q 1066.156 -265.856 1066.873 -266.909 L 1066.873 -266.909 L 1066.873 -266.909 Q 1067.591 -267.961 1069.082 -267.961 L 1069.082 -267.961 L 1069.082 -267.961 Q 1070.534 -267.961 1071.276 -266.86 L 1071.276 -266.86 L 1071.276 -266.86 Q 1072.019 -265.758 1072.019 -263.636 Z  M 1067.918 -263.636 L 1067.918 -263.636 L 1067.918 -263.636 Q 1067.918 -262.093 1068.184 -261.424 L 1068.184 -261.424 L 1068.184 -261.424 Q 1068.451 -260.756 1069.082 -260.756 L 1069.082 -260.756 L 1069.082 -260.756 Q 1069.702 -260.756 1069.977 -261.433 L 1069.977 -261.433 L 1069.977 -261.433 Q 1070.252 -262.11 1070.252 -263.636 L 1070.252 -263.636 L 1070.252 -263.636 Q 1070.252 -265.179 1069.974 -265.853 L 1069.974 -265.853 L 1069.974 -265.853 Q 1069.696 -266.527 1069.082 -266.527 L 1069.082 -266.527 L 1069.082 -266.527 Q 1068.457 -266.527 1068.187 -265.853 L 1068.187 -265.853 L 1068.187 -265.853 Q 1067.918 -265.179 1067.918 -263.636 Z  M 1078.726 -263.636 L 1078.726 -263.636 L 1078.726 -263.636 Q 1078.726 -261.439 1078.006 -260.383 L 1078.006 -260.383 L 1078.006 -260.383 Q 1077.286 -259.327 1075.788 -259.327 L 1075.788 -259.327 L 1075.788 -259.327 Q 1074.337 -259.327 1073.6 -260.417 L 1073.6 -260.417 L 1073.6 -260.417 Q 1072.863 -261.507 1072.863 -263.636 L 1072.863 -263.636 L 1072.863 -263.636 Q 1072.863 -265.856 1073.58 -266.909 L 1073.58 -266.909 L 1073.58 -266.909 Q 1074.297 -267.961 1075.788 -267.961 L 1075.788 -267.961 L 1075.788 -267.961 Q 1077.24 -267.961 1077.983 -266.86 L 1077.983 -266.86 L 1077.983 -266.86 Q 1078.726 -265.758 1078.726 -263.636 Z  M 1074.624 -263.636 L 1074.624 -263.636 L 1074.624 -263.636 Q 1074.624 -262.093 1074.891 -261.424 L 1074.891 -261.424 L 1074.891 -261.424 Q 1075.157 -260.756 1075.788 -260.756 L 1075.788 -260.756 L 1075.788 -260.756 Q 1076.408 -260.756 1076.683 -261.433 L 1076.683 -261.433 L 1076.683 -261.433 Q 1076.959 -262.11 1076.959 -263.636 L 1076.959 -263.636 L 1076.959 -263.636 Q 1076.959 -265.179 1076.681 -265.853 L 1076.681 -265.853 L 1076.681 -265.853 Q 1076.402 -266.527 1075.788 -266.527 L 1075.788 -266.527 L 1075.788 -266.527 Q 1075.163 -266.527 1074.894 -265.853 L 1074.894 -265.853 L 1074.894 -265.853 Q 1074.624 -265.179 1074.624 -263.636 Z  M 1085.432 -263.636 L 1085.432 -263.636 L 1085.432 -263.636 Q 1085.432 -261.439 1084.712 -260.383 L 1084.712 -260.383 L 1084.712 -260.383 Q 1083.992 -259.327 1082.495 -259.327 L 1082.495 -259.327 L 1082.495 -259.327 Q 1081.043 -259.327 1080.306 -260.417 L 1080.306 -260.417 L 1080.306 -260.417 Q 1079.569 -261.507 1079.569 -263.636 L 1079.569 -263.636 L 1079.569 -263.636 Q 1079.569 -265.856 1080.286 -266.909 L 1080.286 -266.909 L 1080.286 -266.909 Q 1081.003 -267.961 1082.495 -267.961 L 1082.495 -267.961 L 1082.495 -267.961 Q 1083.946 -267.961 1084.689 -266.86 L 1084.689 -266.86 L 1084.689 -266.86 Q 1085.432 -265.758 1085.432 -263.636 Z  M 1081.33 -263.636 L 1081.33 -263.636 L 1081.33 -263.636 Q 1081.33 -262.093 1081.597 -261.424 L 1081.597 -261.424 L 1081.597 -261.424 Q 1081.864 -260.756 1082.495 -260.756 L 1082.495 -260.756 L 1082.495 -260.756 Q 1083.114 -260.756 1083.39 -261.433 L 1083.39 -261.433 L 1083.39 -261.433 Q 1083.665 -262.11 1083.665 -263.636 L 1083.665 -263.636 L 1083.665 -263.636 Q 1083.665 -265.179 1083.387 -265.853 L 1083.387 -265.853 L 1083.387 -265.853 Q 1083.109 -266.527 1082.495 -266.527 L 1082.495 -266.527 L 1082.495 -266.527 Q 1081.869 -266.527 1081.6 -265.853 L 1081.6 -265.853 L 1081.6 -265.853 Q 1081.33 -265.179 1081.33 -263.636 Z  M 1089.362 -262.66 L 1089.362 -262.66 L 1089.362 -262.66 Q 1089.362 -261.152 1088.917 -259.849 L 1088.917 -259.849 L 1088.917 -259.849 Q 1088.473 -258.547 1087.635 -257.583 L 1087.635 -257.583 L 1086.212 -257.583 L 1086.212 -257.583 Q 1086.987 -258.639 1087.411 -259.95 L 1087.411 -259.95 L 1087.411 -259.95 Q 1087.836 -261.261 1087.836 -262.672 L 1087.836 -262.672 L 1087.836 -262.672 Q 1087.836 -264.072 1087.423 -265.397 L 1087.423 -265.397 L 1087.423 -265.397 Q 1087.01 -266.722 1086.201 -267.829 L 1086.201 -267.829 L 1087.635 -267.829 L 1087.635 -267.829 Q 1088.478 -266.825 1088.92 -265.497 L 1088.92 -265.497 L 1088.92 -265.497 Q 1089.362 -264.169 1089.362 -262.66 Z  M 1048.808 -262.66 L 1048.808 -262.66 L 1048.808 -262.66 Q 1048.808 -264.181 1049.253 -265.506 L 1049.253 -265.506 L 1049.253 -265.506 Q 1049.697 -266.831 1050.535 -267.829 L 1050.535 -267.829 L 1051.969 -267.829 L 1051.969 -267.829 Q 1051.16 -266.722 1050.747 -265.397 L 1050.747 -265.397 L 1050.747 -265.397 Q 1050.334 -264.072 1050.334 -262.672 L 1050.334 -262.672 L 1050.334 -262.672 Q 1050.334 -261.266 1050.756 -259.956 L 1050.756 -259.956 L 1050.756 -259.956 Q 1051.177 -258.645 1051.958 -257.583 L 1051.958 -257.583 L 1050.535 -257.583 L 1050.535 -257.583 Q 1049.692 -258.559 1049.25 -259.861 L 1049.25 -259.861 L 1049.25 -259.861 Q 1048.808 -261.163 1048.808 -262.66 Z " fill="rgb(49,38,64)"/><line x1="1062.5" y1="-105" x2="1077.5" y2="-105" vector-effect="non-scaling-stroke" stroke-width="2" stroke="rgb(238,52,52)" stroke-linejoin="miter" stroke-linecap="square" stroke-miterlimit="3"/></g></svg>