<?xml version="1.0" encoding="UTF-8" standalone="no"?><!-- Generator: Gravit.io --><svg xmlns="http://www.w3.org/2000/svg" xmlns:xlink="http://www.w3.org/1999/xlink" style="isolation:isolate" viewBox="1033.465 579 879.535 592" width="879.535pt" height="592pt"><g><rect x="1033.465" y="579" width="879.535" height="592" transform="matrix(1,0,0,1,0,0)" fill="rgb(255,255,255)"/><path d=" M 1153.042 1097.505 C 1163.646 1110.442 1170.013 1126.983 1170.013 1145 L 1095.013 1145 L 1153.042 1097.505 Z " fill="rgb(44,159,26)"/><path d=" M 1365.255 967.736 C 1373.911 979.964 1379 994.892 1379 1011 L 1304 1011 L 1365.255 967.736 Z " fill="rgb(68,77,244)"/><line x1="1094" y1="605" x2="1094" y2="1152.5" vector-effect="non-scaling-stroke" stroke-width="2" stroke="rgb(49,38,64)" stroke-linejoin="miter" stroke-linecap="square" stroke-miterlimit="3"/><line x1="1086.5" y1="755" x2="1101.5" y2="755" vector-effect="non-scaling-stroke" stroke-width="2" stroke="rgb(49,38,64)" stroke-linejoin="miter" stroke-linecap="square" stroke-miterlimit="3"/><line x1="1086.5" y1="785" x2="1101.5" y2="785" vector-effect="non-scaling-stroke" stroke-width="2" stroke="rgb(49,38,64)" stroke-linejoin="miter" stroke-linecap="square" stroke-miterlimit="3"/><line x1="1086.5" y1="725" x2="1101.5" y2="725" vector-effect="non-scaling-stroke" stroke-width="2" stroke="rgb(49,38,64)" stroke-linejoin="miter" stroke-linecap="square" stroke-miterlimit="3"/><line x1="1086.5" y1="845" x2="1101.5" y2="845" vector-effect="non-scaling-stroke" stroke-width="2" stroke="rgb(49,38,64)" stroke-linejoin="miter" stroke-linecap="square" stroke-miterlimit="3"/><line x1="1086.5" y1="905" x2="1101.5" y2="905" vector-effect="non-scaling-stroke" stroke-width="2" stroke="rgb(49,38,64)" stroke-linejoin="miter" stroke-linecap="square" stroke-miterlimit="3"/><line x1="1086.5" y1="815" x2="1101.5" y2="815" vector-effect="non-scaling-stroke" stroke-width="2" stroke="rgb(49,38,64)" stroke-linejoin="miter" stroke-linecap="square" stroke-miterlimit="3"/><line x1="1086.5" y1="965" x2="1101.5" y2="965" vector-effect="non-scaling-stroke" stroke-width="2" stroke="rgb(49,38,64)" stroke-linejoin="miter" stroke-linecap="square" stroke-miterlimit="3"/><line x1="1086.5" y1="1025" x2="1101.5" y2="1025" vector-effect="non-scaling-stroke" stroke-width="2" stroke="rgb(49,38,64)" stroke-linejoin="miter" stroke-linecap="square" stroke-miterlimit="3"/><line x1="1086.5" y1="875" x2="1101.5" y2="875" vector-effect="non-scaling-stroke" stroke-width="2" stroke="rgb(49,38,64)" stroke-linejoin="miter" stroke-linecap="square" stroke-miterlimit="3"/><line x1="1086.5" y1="995" x2="1101.5" y2="995" vector-effect="non-scaling-stroke" stroke-width="2" stroke="rgb(49,38,64)" stroke-linejoin="miter" stroke-linecap="square" stroke-miterlimit="3"/><line x1="1086.5" y1="1055" x2="1101.5" y2="1055" vector-effect="non-scaling-stroke" stroke-width="2" stroke="rgb(49,38,64)" stroke-linejoin="miter" stroke-linecap="square" stroke-miterlimit="3"/><line x1="1086.5" y1="935" x2="1101.5" y2="935" vector-effect="non-scaling-stroke" stroke-width="2" stroke="rgb(49,38,64)" stroke-linejoin="miter" stroke-linecap="square" stroke-miterlimit="3"/><line x1="1086.5" y1="1115" x2="1101.5" y2="1115" vector-effect="non-scaling-stroke" stroke-width="2" stroke="rgb(49,38,64)" stroke-linejoin="miter" stroke-linecap="square" stroke-miterlimit="3"/><line x1="1086.5" y1="1085" x2="1101.5" y2="1085" vector-effect="non-scaling-stroke" stroke-width="2" stroke="rgb(49,38,64)" stroke-linejoin="miter" stroke-linecap="square" stroke-miterlimit="3"/><line x1="1086.5" y1="665" x2="1101.5" y2="665" vector-effect="non-scaling-stroke" stroke-width="2" stroke="rgb(49,38,64)" stroke-linejoin="miter" stroke-linecap="square" stroke-miterlimit="3"/><line x1="1086.5" y1="695" x2="1101.5" y2="695" vector-effect="non-scaling-stroke" stroke-width="2" stroke="rgb(49,38,64)" stroke-linejoin="miter" stroke-linecap="square" stroke-miterlimit="3"/><line x1="1086.5" y1="635" x2="1101.5" y2="635" vector-effect="non-scaling-stroke" stroke-width="2" stroke="rgb(49,38,64)" stroke-linejoin="miter" stroke-linecap="square" stroke-miterlimit="3"/><line x1="1544" y1="1145" x2="1086.5" y2="1145" vector-effect="non-scaling-stroke" stroke-width="2" stroke="rgb(49,38,64)" stroke-linejoin="miter" stroke-linecap="square" stroke-miterlimit="3"/><line x1="1484" y1="1137.5" x2="1484" y2="1152.5" vector-effect="non-scaling-stroke" stroke-width="2" stroke="rgb(49,38,64)" stroke-linejoin="miter" stroke-linecap="square" stroke-miterlimit="3"/><line x1="1454" y1="1137.5" x2="1454" y2="1152.5" vector-effect="non-scaling-stroke" stroke-width="2" stroke="rgb(49,38,64)" stroke-linejoin="miter" stroke-linecap="square" stroke-miterlimit="3"/><line x1="1514" y1="1137.5" x2="1514" y2="1152.5" vector-effect="non-scaling-stroke" stroke-width="2" stroke="rgb(49,38,64)" stroke-linejoin="miter" stroke-linecap="square" stroke-miterlimit="3"/><line x1="1394" y1="1137.5" x2="1394" y2="1152.5" vector-effect="non-scaling-stroke" stroke-width="2" stroke="rgb(49,38,64)" stroke-linejoin="miter" stroke-linecap="square" stroke-miterlimit="3"/><line x1="1334" y1="1137.5" x2="1334" y2="1152.5" vector-effect="non-scaling-stroke" stroke-width="2" stroke="rgb(49,38,64)" stroke-linejoin="miter" stroke-linecap="square" stroke-miterlimit="3"/><line x1="1424" y1="1137.5" x2="1424" y2="1152.5" vector-effect="non-scaling-stroke" stroke-width="2" stroke="rgb(49,38,64)" stroke-linejoin="miter" stroke-linecap="square" stroke-miterlimit="3"/><line x1="1274" y1="1137.5" x2="1274" y2="1152.5" vector-effect="non-scaling-stroke" stroke-width="2" stroke="rgb(49,38,64)" stroke-linejoin="miter" stroke-linecap="square" stroke-miterlimit="3"/><line x1="1214" y1="1137.5" x2="1214" y2="1152.5" vector-effect="non-scaling-stroke" stroke-width="2" stroke="rgb(49,38,64)" stroke-linejoin="miter" stroke-linecap="square" stroke-miterlimit="3"/><line x1="1364" y1="1137.5" x2="1364" y2="1152.5" vector-effect="non-scaling-stroke" stroke-width="2" stroke="rgb(49,38,64)" stroke-linejoin="miter" stroke-linecap="square" stroke-miterlimit="3"/><line x1="1244" y1="1137.5" x2="1244" y2="1152.5" vector-effect="non-scaling-stroke" stroke-width="2" stroke="rgb(49,38,64)" stroke-linejoin="miter" stroke-linecap="square" stroke-miterlimit="3"/><line x1="1184" y1="1137.5" x2="1184" y2="1152.5" vector-effect="non-scaling-stroke" stroke-width="2" stroke="rgb(49,38,64)" stroke-linejoin="miter" stroke-linecap="square" stroke-miterlimit="3"/><line x1="1304" y1="1137.5" x2="1304" y2="1152.5" vector-effect="non-scaling-stroke" stroke-width="2" stroke="rgb(49,38,64)" stroke-linejoin="miter" stroke-linecap="square" stroke-miterlimit="3"/><line x1="1124" y1="1137.5" x2="1124" y2="1152.5" vector-effect="non-scaling-stroke" stroke-width="2" stroke="rgb(49,38,64)" stroke-linejoin="miter" stroke-linecap="square" stroke-miterlimit="3"/><line x1="1154" y1="1137.5" x2="1154" y2="1152.5" vector-effect="non-scaling-stroke" stroke-width="2" stroke="rgb(49,38,64)" stroke-linejoin="miter" stroke-linecap="square" stroke-miterlimit="3"/><path d=" M 1875.818 1145 L 1772 1145 L 1544 1145" fill="none" vector-effect="non-scaling-stroke" stroke-width="2" stroke="rgb(49,38,64)" stroke-linejoin="miter" stroke-linecap="square" stroke-miterlimit="3"/><line x1="1844" y1="1137.5" x2="1844" y2="1152.5" vector-effect="non-scaling-stroke" stroke-width="2" stroke="rgb(49,38,64)" stroke-linejoin="miter" stroke-linecap="square" stroke-miterlimit="3"/><line x1="1784" y1="1137.5" x2="1784" y2="1152.5" vector-effect="non-scaling-stroke" stroke-width="2" stroke="rgb(49,38,64)" stroke-linejoin="miter" stroke-linecap="square" stroke-miterlimit="3"/><line x1="1724" y1="1137.5" x2="1724" y2="1152.5" vector-effect="non-scaling-stroke" stroke-width="2" stroke="rgb(49,38,64)" stroke-linejoin="miter" stroke-linecap="square" stroke-miterlimit="3"/><line x1="1664" y1="1137.5" x2="1664" y2="1152.5" vector-effect="non-scaling-stroke" stroke-width="2" stroke="rgb(49,38,64)" stroke-linejoin="miter" stroke-linecap="square" stroke-miterlimit="3"/><line x1="1814" y1="1137.5" x2="1814" y2="1152.5" vector-effect="non-scaling-stroke" stroke-width="2" stroke="rgb(49,38,64)" stroke-linejoin="miter" stroke-linecap="square" stroke-miterlimit="3"/><line x1="1694" y1="1137.5" x2="1694" y2="1152.5" vector-effect="non-scaling-stroke" stroke-width="2" stroke="rgb(49,38,64)" stroke-linejoin="miter" stroke-linecap="square" stroke-miterlimit="3"/><line x1="1634" y1="1137.5" x2="1634" y2="1152.5" vector-effect="non-scaling-stroke" stroke-width="2" stroke="rgb(49,38,64)" stroke-linejoin="miter" stroke-linecap="square" stroke-miterlimit="3"/><line x1="1754" y1="1137.5" x2="1754" y2="1152.5" vector-effect="non-scaling-stroke" stroke-width="2" stroke="rgb(49,38,64)" stroke-linejoin="miter" stroke-linecap="square" stroke-miterlimit="3"/><line x1="1574" y1="1137.5" x2="1574" y2="1152.5" vector-effect="non-scaling-stroke" stroke-width="2" stroke="rgb(49,38,64)" stroke-linejoin="miter" stroke-linecap="square" stroke-miterlimit="3"/><line x1="1544" y1="1137.5" x2="1544" y2="1152.5" vector-effect="non-scaling-stroke" stroke-width="2" stroke="rgb(49,38,64)" stroke-linejoin="miter" stroke-linecap="square" stroke-miterlimit="3"/><line x1="1604" y1="1137.5" x2="1604" y2="1152.5" vector-effect="non-scaling-stroke" stroke-width="2" stroke="rgb(49,38,64)" stroke-linejoin="miter" stroke-linecap="square" stroke-miterlimit="3"/><path d=" M 1086.141 1162.2 L 1086.141 1162.2 L 1086.141 1162.2 Q 1087.357 1162.2 1088.077 1162.882 L 1088.077 1162.882 L 1088.077 1162.882 Q 1088.797 1163.565 1088.797 1164.753 L 1088.797 1164.753 L 1088.797 1164.753 Q 1088.797 1166.158 1087.93 1166.915 L 1087.93 1166.915 L 1087.93 1166.915 Q 1087.064 1167.673 1085.452 1167.673 L 1085.452 1167.673 L 1085.452 1167.673 Q 1084.052 1167.673 1083.192 1167.219 L 1083.192 1167.219 L 1083.192 1165.688 L 1083.192 1165.688 Q 1083.645 1165.929 1084.247 1166.081 L 1084.247 1166.081 L 1084.247 1166.081 Q 1084.85 1166.233 1085.389 1166.233 L 1085.389 1166.233 L 1085.389 1166.233 Q 1087.013 1166.233 1087.013 1164.902 L 1087.013 1164.902 L 1087.013 1164.902 Q 1087.013 1163.634 1085.332 1163.634 L 1085.332 1163.634 L 1085.332 1163.634 Q 1085.028 1163.634 1084.66 1163.694 L 1084.66 1163.694 L 1084.66 1163.694 Q 1084.293 1163.754 1084.064 1163.823 L 1084.064 1163.823 L 1083.358 1163.445 L 1083.674 1159.171 L 1088.223 1159.171 L 1088.223 1160.674 L 1085.228 1160.674 L 1085.074 1162.32 L 1085.274 1162.28 L 1085.274 1162.28 Q 1085.624 1162.2 1086.141 1162.2 Z  M 1095.612 1163.364 L 1095.612 1163.364 L 1095.612 1163.364 Q 1095.612 1165.561 1094.892 1166.617 L 1094.892 1166.617 L 1094.892 1166.617 Q 1094.172 1167.673 1092.675 1167.673 L 1092.675 1167.673 L 1092.675 1167.673 Q 1091.223 1167.673 1090.486 1166.583 L 1090.486 1166.583 L 1090.486 1166.583 Q 1089.749 1165.493 1089.749 1163.364 L 1089.749 1163.364 L 1089.749 1163.364 Q 1089.749 1161.144 1090.466 1160.091 L 1090.466 1160.091 L 1090.466 1160.091 Q 1091.183 1159.039 1092.675 1159.039 L 1092.675 1159.039 L 1092.675 1159.039 Q 1094.126 1159.039 1094.869 1160.14 L 1094.869 1160.14 L 1094.869 1160.14 Q 1095.612 1161.242 1095.612 1163.364 Z  M 1091.51 1163.364 L 1091.51 1163.364 L 1091.51 1163.364 Q 1091.51 1164.907 1091.777 1165.576 L 1091.777 1165.576 L 1091.777 1165.576 Q 1092.044 1166.244 1092.675 1166.244 L 1092.675 1166.244 L 1092.675 1166.244 Q 1093.294 1166.244 1093.57 1165.567 L 1093.57 1165.567 L 1093.57 1165.567 Q 1093.845 1164.89 1093.845 1163.364 L 1093.845 1163.364 L 1093.845 1163.364 Q 1093.845 1161.821 1093.567 1161.147 L 1093.567 1161.147 L 1093.567 1161.147 Q 1093.289 1160.473 1092.675 1160.473 L 1092.675 1160.473 L 1092.675 1160.473 Q 1092.049 1160.473 1091.78 1161.147 L 1091.78 1161.147 L 1091.78 1161.147 Q 1091.51 1161.821 1091.51 1163.364 Z  M 1102.869 1163.376 L 1102.869 1167.558 L 1101.119 1167.558 L 1101.119 1163.812 L 1101.119 1163.812 Q 1101.119 1162.423 1100.087 1162.423 L 1100.087 1162.423 L 1100.087 1162.423 Q 1099.352 1162.423 1099.025 1162.923 L 1099.025 1162.923 L 1099.025 1162.923 Q 1098.698 1163.422 1098.698 1164.54 L 1098.698 1164.54 L 1098.698 1167.558 L 1096.949 1167.558 L 1096.949 1158.631 L 1098.698 1158.631 L 1098.698 1160.45 L 1098.698 1160.45 Q 1098.698 1160.662 1098.658 1161.448 L 1098.658 1161.448 L 1098.618 1161.965 L 1098.71 1161.965 L 1098.71 1161.965 Q 1099.295 1161.024 1100.569 1161.024 L 1100.569 1161.024 L 1100.569 1161.024 Q 1101.699 1161.024 1102.284 1161.632 L 1102.284 1161.632 L 1102.284 1161.632 Q 1102.869 1162.24 1102.869 1163.376 L 1102.869 1163.376 L 1102.869 1163.376 Z " fill="rgb(49,38,64)"/><path d=" M 1294.167 1159.171 L 1294.167 1167.558 L 1292.394 1167.558 L 1292.394 1162.705 L 1292.412 1161.907 L 1292.44 1161.035 L 1292.44 1161.035 Q 1291.999 1161.477 1291.826 1161.615 L 1291.826 1161.615 L 1290.863 1162.389 L 1290.008 1161.322 L 1292.71 1159.171 L 1294.167 1159.171 L 1294.167 1159.171 Z  M 1302.354 1166.066 L 1302.354 1167.558 L 1296.49 1167.558 L 1296.49 1166.324 L 1298.596 1164.196 L 1298.596 1164.196 Q 1299.531 1163.238 1299.818 1162.868 L 1299.818 1162.868 L 1299.818 1162.868 Q 1300.105 1162.498 1300.231 1162.183 L 1300.231 1162.183 L 1300.231 1162.183 Q 1300.357 1161.867 1300.357 1161.529 L 1300.357 1161.529 L 1300.357 1161.529 Q 1300.357 1161.024 1300.079 1160.777 L 1300.079 1160.777 L 1300.079 1160.777 Q 1299.801 1160.53 1299.336 1160.53 L 1299.336 1160.53 L 1299.336 1160.53 Q 1298.848 1160.53 1298.389 1160.754 L 1298.389 1160.754 L 1298.389 1160.754 Q 1297.93 1160.978 1297.431 1161.391 L 1297.431 1161.391 L 1296.468 1160.249 L 1296.468 1160.249 Q 1297.087 1159.721 1297.494 1159.503 L 1297.494 1159.503 L 1297.494 1159.503 Q 1297.902 1159.285 1298.384 1159.168 L 1298.384 1159.168 L 1298.384 1159.168 Q 1298.866 1159.05 1299.462 1159.05 L 1299.462 1159.05 L 1299.462 1159.05 Q 1300.248 1159.05 1300.85 1159.337 L 1300.85 1159.337 L 1300.85 1159.337 Q 1301.453 1159.624 1301.786 1160.14 L 1301.786 1160.14 L 1301.786 1160.14 Q 1302.118 1160.657 1302.118 1161.322 L 1302.118 1161.322 L 1302.118 1161.322 Q 1302.118 1161.901 1301.915 1162.409 L 1301.915 1162.409 L 1301.915 1162.409 Q 1301.711 1162.917 1301.284 1163.45 L 1301.284 1163.45 L 1301.284 1163.45 Q 1300.856 1163.984 1299.778 1164.971 L 1299.778 1164.971 L 1298.699 1165.986 L 1298.699 1166.066 L 1302.354 1166.066 L 1302.354 1166.066 Z  M 1309.014 1163.364 L 1309.014 1163.364 L 1309.014 1163.364 Q 1309.014 1165.561 1308.294 1166.617 L 1308.294 1166.617 L 1308.294 1166.617 Q 1307.574 1167.673 1306.077 1167.673 L 1306.077 1167.673 L 1306.077 1167.673 Q 1304.625 1167.673 1303.888 1166.583 L 1303.888 1166.583 L 1303.888 1166.583 Q 1303.151 1165.493 1303.151 1163.364 L 1303.151 1163.364 L 1303.151 1163.364 Q 1303.151 1161.144 1303.868 1160.091 L 1303.868 1160.091 L 1303.868 1160.091 Q 1304.585 1159.039 1306.077 1159.039 L 1306.077 1159.039 L 1306.077 1159.039 Q 1307.528 1159.039 1308.271 1160.14 L 1308.271 1160.14 L 1308.271 1160.14 Q 1309.014 1161.242 1309.014 1163.364 Z  M 1304.912 1163.364 L 1304.912 1163.364 L 1304.912 1163.364 Q 1304.912 1164.907 1305.179 1165.576 L 1305.179 1165.576 L 1305.179 1165.576 Q 1305.446 1166.244 1306.077 1166.244 L 1306.077 1166.244 L 1306.077 1166.244 Q 1306.696 1166.244 1306.972 1165.567 L 1306.972 1165.567 L 1306.972 1165.567 Q 1307.247 1164.89 1307.247 1163.364 L 1307.247 1163.364 L 1307.247 1163.364 Q 1307.247 1161.821 1306.969 1161.147 L 1306.969 1161.147 L 1306.969 1161.147 Q 1306.691 1160.473 1306.077 1160.473 L 1306.077 1160.473 L 1306.077 1160.473 Q 1305.451 1160.473 1305.182 1161.147 L 1305.182 1161.147 L 1305.182 1161.147 Q 1304.912 1161.821 1304.912 1163.364 Z  M 1316.271 1163.376 L 1316.271 1167.558 L 1314.521 1167.558 L 1314.521 1163.812 L 1314.521 1163.812 Q 1314.521 1162.423 1313.489 1162.423 L 1313.489 1162.423 L 1313.489 1162.423 Q 1312.754 1162.423 1312.427 1162.923 L 1312.427 1162.923 L 1312.427 1162.923 Q 1312.1 1163.422 1312.1 1164.54 L 1312.1 1164.54 L 1312.1 1167.558 L 1310.351 1167.558 L 1310.351 1158.631 L 1312.1 1158.631 L 1312.1 1160.45 L 1312.1 1160.45 Q 1312.1 1160.662 1312.06 1161.448 L 1312.06 1161.448 L 1312.02 1161.965 L 1312.112 1161.965 L 1312.112 1161.965 Q 1312.697 1161.024 1313.971 1161.024 L 1313.971 1161.024 L 1313.971 1161.024 Q 1315.101 1161.024 1315.686 1161.632 L 1315.686 1161.632 L 1315.686 1161.632 Q 1316.271 1162.24 1316.271 1163.376 L 1316.271 1163.376 L 1316.271 1163.376 Z " fill="rgb(49,38,64)"/><path d=" M 1882.629 1146.34 L 1882.629 1146.34 L 1882.629 1146.34 Q 1882.629 1144.819 1883.074 1143.494 L 1883.074 1143.494 L 1883.074 1143.494 Q 1883.518 1142.169 1884.356 1141.171 L 1884.356 1141.171 L 1885.79 1141.171 L 1885.79 1141.171 Q 1884.981 1142.278 1884.568 1143.603 L 1884.568 1143.603 L 1884.568 1143.603 Q 1884.155 1144.928 1884.155 1146.328 L 1884.155 1146.328 L 1884.155 1146.328 Q 1884.155 1147.734 1884.577 1149.044 L 1884.577 1149.044 L 1884.577 1149.044 Q 1884.999 1150.355 1885.779 1151.417 L 1885.779 1151.417 L 1884.356 1151.417 L 1884.356 1151.417 Q 1883.513 1150.441 1883.071 1149.139 L 1883.071 1149.139 L 1883.071 1149.139 Q 1882.629 1147.837 1882.629 1146.34 Z  M 1890.994 1141.171 L 1890.994 1149.558 L 1889.221 1149.558 L 1889.221 1144.705 L 1889.238 1143.907 L 1889.267 1143.035 L 1889.267 1143.035 Q 1888.825 1143.477 1888.653 1143.615 L 1888.653 1143.615 L 1887.689 1144.389 L 1886.834 1143.322 L 1889.536 1141.171 L 1890.994 1141.171 L 1890.994 1141.171 Z  M 1899.134 1145.364 L 1899.134 1145.364 L 1899.134 1145.364 Q 1899.134 1147.561 1898.414 1148.617 L 1898.414 1148.617 L 1898.414 1148.617 Q 1897.694 1149.673 1896.197 1149.673 L 1896.197 1149.673 L 1896.197 1149.673 Q 1894.745 1149.673 1894.008 1148.583 L 1894.008 1148.583 L 1894.008 1148.583 Q 1893.271 1147.493 1893.271 1145.364 L 1893.271 1145.364 L 1893.271 1145.364 Q 1893.271 1143.144 1893.988 1142.091 L 1893.988 1142.091 L 1893.988 1142.091 Q 1894.705 1141.039 1896.197 1141.039 L 1896.197 1141.039 L 1896.197 1141.039 Q 1897.648 1141.039 1898.391 1142.14 L 1898.391 1142.14 L 1898.391 1142.14 Q 1899.134 1143.242 1899.134 1145.364 Z  M 1895.032 1145.364 L 1895.032 1145.364 L 1895.032 1145.364 Q 1895.032 1146.907 1895.299 1147.576 L 1895.299 1147.576 L 1895.299 1147.576 Q 1895.566 1148.244 1896.197 1148.244 L 1896.197 1148.244 L 1896.197 1148.244 Q 1896.816 1148.244 1897.092 1147.567 L 1897.092 1147.567 L 1897.092 1147.567 Q 1897.367 1146.89 1897.367 1145.364 L 1897.367 1145.364 L 1897.367 1145.364 Q 1897.367 1143.821 1897.089 1143.147 L 1897.089 1143.147 L 1897.089 1143.147 Q 1896.811 1142.473 1896.197 1142.473 L 1896.197 1142.473 L 1896.197 1142.473 Q 1895.572 1142.473 1895.302 1143.147 L 1895.302 1143.147 L 1895.302 1143.147 Q 1895.032 1143.821 1895.032 1145.364 Z  M 1906.391 1145.376 L 1906.391 1149.558 L 1904.641 1149.558 L 1904.641 1145.812 L 1904.641 1145.812 Q 1904.641 1144.423 1903.609 1144.423 L 1903.609 1144.423 L 1903.609 1144.423 Q 1902.875 1144.423 1902.548 1144.923 L 1902.548 1144.923 L 1902.548 1144.923 Q 1902.221 1145.422 1902.221 1146.54 L 1902.221 1146.54 L 1902.221 1149.558 L 1900.471 1149.558 L 1900.471 1140.631 L 1902.221 1140.631 L 1902.221 1142.45 L 1902.221 1142.45 Q 1902.221 1142.662 1902.18 1143.448 L 1902.18 1143.448 L 1902.14 1143.965 L 1902.232 1143.965 L 1902.232 1143.965 Q 1902.817 1143.024 1904.091 1143.024 L 1904.091 1143.024 L 1904.091 1143.024 Q 1905.221 1143.024 1905.806 1143.632 L 1905.806 1143.632 L 1905.806 1143.632 Q 1906.391 1144.24 1906.391 1145.376 L 1906.391 1145.376 L 1906.391 1145.376 Z  M 1910.786 1146.34 L 1910.786 1146.34 L 1910.786 1146.34 Q 1910.786 1147.848 1910.341 1149.151 L 1910.341 1149.151 L 1910.341 1149.151 Q 1909.896 1150.453 1909.059 1151.417 L 1909.059 1151.417 L 1907.636 1151.417 L 1907.636 1151.417 Q 1908.411 1150.361 1908.835 1149.05 L 1908.835 1149.05 L 1908.835 1149.05 Q 1909.26 1147.739 1909.26 1146.328 L 1909.26 1146.328 L 1909.26 1146.328 Q 1909.26 1144.928 1908.847 1143.603 L 1908.847 1143.603 L 1908.847 1143.603 Q 1908.433 1142.278 1907.625 1141.171 L 1907.625 1141.171 L 1909.059 1141.171 L 1909.059 1141.171 Q 1909.902 1142.175 1910.344 1143.503 L 1910.344 1143.503 L 1910.344 1143.503 Q 1910.786 1144.831 1910.786 1146.34 Z " fill="rgb(49,38,64)"/><path d=" M 1249.167 1159.171 L 1249.167 1167.558 L 1247.394 1167.558 L 1247.394 1162.705 L 1247.412 1161.907 L 1247.44 1161.035 L 1247.44 1161.035 Q 1246.999 1161.477 1246.826 1161.615 L 1246.826 1161.615 L 1245.863 1162.389 L 1245.008 1161.322 L 1247.71 1159.171 L 1249.167 1159.171 L 1249.167 1159.171 Z  M 1257.308 1163.364 L 1257.308 1163.364 L 1257.308 1163.364 Q 1257.308 1165.561 1256.588 1166.617 L 1256.588 1166.617 L 1256.588 1166.617 Q 1255.868 1167.673 1254.37 1167.673 L 1254.37 1167.673 L 1254.37 1167.673 Q 1252.919 1167.673 1252.182 1166.583 L 1252.182 1166.583 L 1252.182 1166.583 Q 1251.445 1165.493 1251.445 1163.364 L 1251.445 1163.364 L 1251.445 1163.364 Q 1251.445 1161.144 1252.162 1160.091 L 1252.162 1160.091 L 1252.162 1160.091 Q 1252.879 1159.039 1254.37 1159.039 L 1254.37 1159.039 L 1254.37 1159.039 Q 1255.822 1159.039 1256.565 1160.14 L 1256.565 1160.14 L 1256.565 1160.14 Q 1257.308 1161.242 1257.308 1163.364 Z  M 1253.206 1163.364 L 1253.206 1163.364 L 1253.206 1163.364 Q 1253.206 1164.907 1253.473 1165.576 L 1253.473 1165.576 L 1253.473 1165.576 Q 1253.739 1166.244 1254.37 1166.244 L 1254.37 1166.244 L 1254.37 1166.244 Q 1254.99 1166.244 1255.265 1165.567 L 1255.265 1165.567 L 1255.265 1165.567 Q 1255.541 1164.89 1255.541 1163.364 L 1255.541 1163.364 L 1255.541 1163.364 Q 1255.541 1161.821 1255.262 1161.147 L 1255.262 1161.147 L 1255.262 1161.147 Q 1254.984 1160.473 1254.37 1160.473 L 1254.37 1160.473 L 1254.37 1160.473 Q 1253.745 1160.473 1253.475 1161.147 L 1253.475 1161.147 L 1253.475 1161.147 Q 1253.206 1161.821 1253.206 1163.364 Z  M 1261.249 1162.2 L 1261.249 1162.2 L 1261.249 1162.2 Q 1262.465 1162.2 1263.185 1162.882 L 1263.185 1162.882 L 1263.185 1162.882 Q 1263.905 1163.565 1263.905 1164.753 L 1263.905 1164.753 L 1263.905 1164.753 Q 1263.905 1166.158 1263.039 1166.915 L 1263.039 1166.915 L 1263.039 1166.915 Q 1262.172 1167.673 1260.56 1167.673 L 1260.56 1167.673 L 1260.56 1167.673 Q 1259.161 1167.673 1258.3 1167.219 L 1258.3 1167.219 L 1258.3 1165.688 L 1258.3 1165.688 Q 1258.753 1165.929 1259.356 1166.081 L 1259.356 1166.081 L 1259.356 1166.081 Q 1259.958 1166.233 1260.497 1166.233 L 1260.497 1166.233 L 1260.497 1166.233 Q 1262.121 1166.233 1262.121 1164.902 L 1262.121 1164.902 L 1262.121 1164.902 Q 1262.121 1163.634 1260.44 1163.634 L 1260.44 1163.634 L 1260.44 1163.634 Q 1260.136 1163.634 1259.769 1163.694 L 1259.769 1163.694 L 1259.769 1163.694 Q 1259.402 1163.754 1259.172 1163.823 L 1259.172 1163.823 L 1258.466 1163.445 L 1258.782 1159.171 L 1263.331 1159.171 L 1263.331 1160.674 L 1260.337 1160.674 L 1260.182 1162.32 L 1260.383 1162.28 L 1260.383 1162.28 Q 1260.733 1162.2 1261.249 1162.2 Z  M 1271.271 1163.376 L 1271.271 1167.558 L 1269.521 1167.558 L 1269.521 1163.812 L 1269.521 1163.812 Q 1269.521 1162.423 1268.489 1162.423 L 1268.489 1162.423 L 1268.489 1162.423 Q 1267.754 1162.423 1267.427 1162.923 L 1267.427 1162.923 L 1267.427 1162.923 Q 1267.1 1163.422 1267.1 1164.54 L 1267.1 1164.54 L 1267.1 1167.558 L 1265.351 1167.558 L 1265.351 1158.631 L 1267.1 1158.631 L 1267.1 1160.45 L 1267.1 1160.45 Q 1267.1 1160.662 1267.06 1161.448 L 1267.06 1161.448 L 1267.02 1161.965 L 1267.112 1161.965 L 1267.112 1161.965 Q 1267.697 1161.024 1268.971 1161.024 L 1268.971 1161.024 L 1268.971 1161.024 Q 1270.101 1161.024 1270.686 1161.632 L 1270.686 1161.632 L 1270.686 1161.632 Q 1271.271 1162.24 1271.271 1163.376 L 1271.271 1163.376 L 1271.271 1163.376 Z " fill="rgb(49,38,64)"/><path d=" M 1041.711 1141.171 L 1043.214 1144.624 L 1044.729 1141.171 L 1046.524 1141.171 L 1044.327 1145.456 L 1045.446 1145.456 L 1045.446 1146.477 L 1044.034 1146.477 L 1044.034 1147.269 L 1045.446 1147.269 L 1045.446 1148.29 L 1044.034 1148.29 L 1044.034 1149.558 L 1042.388 1149.558 L 1042.388 1148.29 L 1040.971 1148.29 L 1040.971 1147.269 L 1042.388 1147.269 L 1042.388 1146.477 L 1040.971 1146.477 L 1040.971 1145.456 L 1042.061 1145.456 L 1039.898 1141.171 L 1041.711 1141.171 L 1041.711 1141.171 Z  M 1052.904 1148.066 L 1052.904 1149.558 L 1047.041 1149.558 L 1047.041 1148.324 L 1049.146 1146.196 L 1049.146 1146.196 Q 1050.081 1145.238 1050.368 1144.868 L 1050.368 1144.868 L 1050.368 1144.868 Q 1050.655 1144.498 1050.781 1144.183 L 1050.781 1144.183 L 1050.781 1144.183 Q 1050.907 1143.867 1050.907 1143.529 L 1050.907 1143.529 L 1050.907 1143.529 Q 1050.907 1143.024 1050.629 1142.777 L 1050.629 1142.777 L 1050.629 1142.777 Q 1050.351 1142.53 1049.886 1142.53 L 1049.886 1142.53 L 1049.886 1142.53 Q 1049.398 1142.53 1048.939 1142.754 L 1048.939 1142.754 L 1048.939 1142.754 Q 1048.48 1142.978 1047.981 1143.391 L 1047.981 1143.391 L 1047.018 1142.249 L 1047.018 1142.249 Q 1047.637 1141.721 1048.044 1141.503 L 1048.044 1141.503 L 1048.044 1141.503 Q 1048.452 1141.285 1048.934 1141.168 L 1048.934 1141.168 L 1048.934 1141.168 Q 1049.416 1141.05 1050.012 1141.05 L 1050.012 1141.05 L 1050.012 1141.05 Q 1050.798 1141.05 1051.401 1141.337 L 1051.401 1141.337 L 1051.401 1141.337 Q 1052.003 1141.624 1052.336 1142.14 L 1052.336 1142.14 L 1052.336 1142.14 Q 1052.668 1142.657 1052.668 1143.322 L 1052.668 1143.322 L 1052.668 1143.322 Q 1052.668 1143.901 1052.465 1144.409 L 1052.465 1144.409 L 1052.465 1144.409 Q 1052.261 1144.917 1051.834 1145.45 L 1051.834 1145.45 L 1051.834 1145.45 Q 1051.406 1145.984 1050.328 1146.971 L 1050.328 1146.971 L 1049.249 1147.986 L 1049.249 1148.066 L 1052.904 1148.066 L 1052.904 1148.066 Z  M 1059.61 1148.066 L 1059.61 1149.558 L 1053.747 1149.558 L 1053.747 1148.324 L 1055.852 1146.196 L 1055.852 1146.196 Q 1056.787 1145.238 1057.074 1144.868 L 1057.074 1144.868 L 1057.074 1144.868 Q 1057.361 1144.498 1057.487 1144.183 L 1057.487 1144.183 L 1057.487 1144.183 Q 1057.613 1143.867 1057.613 1143.529 L 1057.613 1143.529 L 1057.613 1143.529 Q 1057.613 1143.024 1057.335 1142.777 L 1057.335 1142.777 L 1057.335 1142.777 Q 1057.057 1142.53 1056.592 1142.53 L 1056.592 1142.53 L 1056.592 1142.53 Q 1056.105 1142.53 1055.646 1142.754 L 1055.646 1142.754 L 1055.646 1142.754 Q 1055.187 1142.978 1054.688 1143.391 L 1054.688 1143.391 L 1053.724 1142.249 L 1053.724 1142.249 Q 1054.343 1141.721 1054.751 1141.503 L 1054.751 1141.503 L 1054.751 1141.503 Q 1055.158 1141.285 1055.64 1141.168 L 1055.64 1141.168 L 1055.64 1141.168 Q 1056.122 1141.05 1056.719 1141.05 L 1056.719 1141.05 L 1056.719 1141.05 Q 1057.504 1141.05 1058.107 1141.337 L 1058.107 1141.337 L 1058.107 1141.337 Q 1058.709 1141.624 1059.042 1142.14 L 1059.042 1142.14 L 1059.042 1142.14 Q 1059.375 1142.657 1059.375 1143.322 L 1059.375 1143.322 L 1059.375 1143.322 Q 1059.375 1143.901 1059.171 1144.409 L 1059.171 1144.409 L 1059.171 1144.409 Q 1058.967 1144.917 1058.54 1145.45 L 1058.54 1145.45 L 1058.54 1145.45 Q 1058.113 1145.984 1057.034 1146.971 L 1057.034 1146.971 L 1055.956 1147.986 L 1055.956 1148.066 L 1059.61 1148.066 L 1059.61 1148.066 Z  M 1063.505 1144.2 L 1063.505 1144.2 L 1063.505 1144.2 Q 1064.721 1144.2 1065.441 1144.882 L 1065.441 1144.882 L 1065.441 1144.882 Q 1066.161 1145.565 1066.161 1146.753 L 1066.161 1146.753 L 1066.161 1146.753 Q 1066.161 1148.158 1065.295 1148.915 L 1065.295 1148.915 L 1065.295 1148.915 Q 1064.429 1149.673 1062.817 1149.673 L 1062.817 1149.673 L 1062.817 1149.673 Q 1061.417 1149.673 1060.556 1149.219 L 1060.556 1149.219 L 1060.556 1147.688 L 1060.556 1147.688 Q 1061.01 1147.929 1061.612 1148.081 L 1061.612 1148.081 L 1061.612 1148.081 Q 1062.214 1148.233 1062.754 1148.233 L 1062.754 1148.233 L 1062.754 1148.233 Q 1064.377 1148.233 1064.377 1146.902 L 1064.377 1146.902 L 1064.377 1146.902 Q 1064.377 1145.634 1062.696 1145.634 L 1062.696 1145.634 L 1062.696 1145.634 Q 1062.392 1145.634 1062.025 1145.694 L 1062.025 1145.694 L 1062.025 1145.694 Q 1061.658 1145.754 1061.428 1145.823 L 1061.428 1145.823 L 1060.723 1145.445 L 1061.038 1141.171 L 1065.588 1141.171 L 1065.588 1142.674 L 1062.593 1142.674 L 1062.438 1144.32 L 1062.639 1144.28 L 1062.639 1144.28 Q 1062.989 1144.2 1063.505 1144.2 Z  M 1072.977 1145.364 L 1072.977 1145.364 L 1072.977 1145.364 Q 1072.977 1147.561 1072.257 1148.617 L 1072.257 1148.617 L 1072.257 1148.617 Q 1071.537 1149.673 1070.039 1149.673 L 1070.039 1149.673 L 1070.039 1149.673 Q 1068.588 1149.673 1067.851 1148.583 L 1067.851 1148.583 L 1067.851 1148.583 Q 1067.114 1147.493 1067.114 1145.364 L 1067.114 1145.364 L 1067.114 1145.364 Q 1067.114 1143.144 1067.831 1142.091 L 1067.831 1142.091 L 1067.831 1142.091 Q 1068.548 1141.039 1070.039 1141.039 L 1070.039 1141.039 L 1070.039 1141.039 Q 1071.491 1141.039 1072.234 1142.14 L 1072.234 1142.14 L 1072.234 1142.14 Q 1072.977 1143.242 1072.977 1145.364 Z  M 1068.875 1145.364 L 1068.875 1145.364 L 1068.875 1145.364 Q 1068.875 1146.907 1069.142 1147.576 L 1069.142 1147.576 L 1069.142 1147.576 Q 1069.408 1148.244 1070.039 1148.244 L 1070.039 1148.244 L 1070.039 1148.244 Q 1070.659 1148.244 1070.934 1147.567 L 1070.934 1147.567 L 1070.934 1147.567 Q 1071.21 1146.89 1071.21 1145.364 L 1071.21 1145.364 L 1071.21 1145.364 Q 1071.21 1143.821 1070.932 1143.147 L 1070.932 1143.147 L 1070.932 1143.147 Q 1070.653 1142.473 1070.039 1142.473 L 1070.039 1142.473 L 1070.039 1142.473 Q 1069.414 1142.473 1069.144 1143.147 L 1069.144 1143.147 L 1069.144 1143.147 Q 1068.875 1143.821 1068.875 1145.364 Z  M 1079.683 1145.364 L 1079.683 1145.364 L 1079.683 1145.364 Q 1079.683 1147.561 1078.963 1148.617 L 1078.963 1148.617 L 1078.963 1148.617 Q 1078.243 1149.673 1076.746 1149.673 L 1076.746 1149.673 L 1076.746 1149.673 Q 1075.294 1149.673 1074.557 1148.583 L 1074.557 1148.583 L 1074.557 1148.583 Q 1073.82 1147.493 1073.82 1145.364 L 1073.82 1145.364 L 1073.82 1145.364 Q 1073.82 1143.144 1074.537 1142.091 L 1074.537 1142.091 L 1074.537 1142.091 Q 1075.254 1141.039 1076.746 1141.039 L 1076.746 1141.039 L 1076.746 1141.039 Q 1078.197 1141.039 1078.94 1142.14 L 1078.94 1142.14 L 1078.94 1142.14 Q 1079.683 1143.242 1079.683 1145.364 Z  M 1075.581 1145.364 L 1075.581 1145.364 L 1075.581 1145.364 Q 1075.581 1146.907 1075.848 1147.576 L 1075.848 1147.576 L 1075.848 1147.576 Q 1076.115 1148.244 1076.746 1148.244 L 1076.746 1148.244 L 1076.746 1148.244 Q 1077.365 1148.244 1077.641 1147.567 L 1077.641 1147.567 L 1077.641 1147.567 Q 1077.916 1146.89 1077.916 1145.364 L 1077.916 1145.364 L 1077.916 1145.364 Q 1077.916 1143.821 1077.638 1143.147 L 1077.638 1143.147 L 1077.638 1143.147 Q 1077.36 1142.473 1076.746 1142.473 L 1076.746 1142.473 L 1076.746 1142.473 Q 1076.12 1142.473 1075.851 1143.147 L 1075.851 1143.147 L 1075.851 1143.147 Q 1075.581 1143.821 1075.581 1145.364 Z " fill="rgb(49,38,64)"/><path d=" M 1129.309 1123.213 L 1131.188 1127.53 L 1133.081 1123.213 L 1135.326 1123.213 L 1132.579 1128.57 L 1133.977 1128.57 L 1133.977 1129.847 L 1132.213 1129.847 L 1132.213 1130.836 L 1133.977 1130.836 L 1133.977 1132.113 L 1132.213 1132.113 L 1132.213 1133.697 L 1130.155 1133.697 L 1130.155 1132.113 L 1128.384 1132.113 L 1128.384 1130.836 L 1130.155 1130.836 L 1130.155 1129.847 L 1128.384 1129.847 L 1128.384 1128.57 L 1129.747 1128.57 L 1127.043 1123.213 L 1129.309 1123.213 L 1129.309 1123.213 Z  M 1143.536 1129.804 L 1143.536 1131.525 L 1142.274 1131.525 L 1142.274 1133.697 L 1140.109 1133.697 L 1140.109 1131.525 L 1135.634 1131.525 L 1135.634 1129.983 L 1140.231 1123.213 L 1142.274 1123.213 L 1142.274 1129.804 L 1143.536 1129.804 L 1143.536 1129.804 Z  M 1137.584 1129.804 L 1140.109 1129.804 L 1140.109 1128.025 L 1140.109 1128.025 Q 1140.109 1127.58 1140.144 1126.734 L 1140.144 1126.734 L 1140.144 1126.734 Q 1140.18 1125.888 1140.202 1125.752 L 1140.202 1125.752 L 1140.144 1125.752 L 1140.144 1125.752 Q 1139.879 1126.34 1139.506 1126.899 L 1139.506 1126.899 L 1137.584 1129.804 L 1137.584 1129.804 Z  M 1147.968 1123.077 L 1147.968 1123.077 L 1147.968 1123.077 Q 1149.474 1123.077 1150.395 1123.762 L 1150.395 1123.762 L 1150.395 1123.762 Q 1151.317 1124.447 1151.317 1125.608 L 1151.317 1125.608 L 1151.317 1125.608 Q 1151.317 1126.412 1150.872 1127.039 L 1150.872 1127.039 L 1150.872 1127.039 Q 1150.428 1127.667 1149.438 1128.161 L 1149.438 1128.161 L 1149.438 1128.161 Q 1150.614 1128.792 1151.127 1129.477 L 1151.127 1129.477 L 1151.127 1129.477 Q 1151.64 1130.162 1151.64 1130.98 L 1151.64 1130.98 L 1151.64 1130.98 Q 1151.64 1132.27 1150.629 1133.056 L 1150.629 1133.056 L 1150.629 1133.056 Q 1149.617 1133.841 1147.968 1133.841 L 1147.968 1133.841 L 1147.968 1133.841 Q 1146.247 1133.841 1145.265 1133.109 L 1145.265 1133.109 L 1145.265 1133.109 Q 1144.282 1132.378 1144.282 1131.037 L 1144.282 1131.037 L 1144.282 1131.037 Q 1144.282 1130.141 1144.759 1129.445 L 1144.759 1129.445 L 1144.759 1129.445 Q 1145.236 1128.749 1146.29 1128.219 L 1146.29 1128.219 L 1146.29 1128.219 Q 1145.394 1127.652 1144.999 1127.007 L 1144.999 1127.007 L 1144.999 1127.007 Q 1144.605 1126.361 1144.605 1125.594 L 1144.605 1125.594 L 1144.605 1125.594 Q 1144.605 1124.468 1145.537 1123.773 L 1145.537 1123.773 L 1145.537 1123.773 Q 1146.469 1123.077 1147.968 1123.077 Z  M 1146.333 1130.908 L 1146.333 1130.908 L 1146.333 1130.908 Q 1146.333 1131.525 1146.763 1131.869 L 1146.763 1131.869 L 1146.763 1131.869 Q 1147.194 1132.213 1147.939 1132.213 L 1147.939 1132.213 L 1147.939 1132.213 Q 1148.764 1132.213 1149.173 1131.858 L 1149.173 1131.858 L 1149.173 1131.858 Q 1149.582 1131.503 1149.582 1130.922 L 1149.582 1130.922 L 1149.582 1130.922 Q 1149.582 1130.442 1149.176 1130.022 L 1149.176 1130.022 L 1149.176 1130.022 Q 1148.771 1129.603 1147.861 1129.129 L 1147.861 1129.129 L 1147.861 1129.129 Q 1146.333 1129.832 1146.333 1130.908 Z  M 1147.954 1124.698 L 1147.954 1124.698 L 1147.954 1124.698 Q 1147.387 1124.698 1147.039 1124.988 L 1147.039 1124.988 L 1147.039 1124.988 Q 1146.692 1125.279 1146.692 1125.766 L 1146.692 1125.766 L 1146.692 1125.766 Q 1146.692 1126.196 1146.968 1126.537 L 1146.968 1126.537 L 1146.968 1126.537 Q 1147.244 1126.878 1147.968 1127.236 L 1147.968 1127.236 L 1147.968 1127.236 Q 1148.671 1126.906 1148.951 1126.562 L 1148.951 1126.562 L 1148.951 1126.562 Q 1149.23 1126.218 1149.23 1125.766 L 1149.23 1125.766 L 1149.23 1125.766 Q 1149.23 1125.271 1148.872 1124.985 L 1148.872 1124.985 L 1148.872 1124.985 Q 1148.513 1124.698 1147.954 1124.698 Z  M 1160.008 1128.455 L 1160.008 1128.455 L 1160.008 1128.455 Q 1160.008 1131.202 1159.108 1132.521 L 1159.108 1132.521 L 1159.108 1132.521 Q 1158.208 1133.841 1156.337 1133.841 L 1156.337 1133.841 L 1156.337 1133.841 Q 1154.522 1133.841 1153.601 1132.478 L 1153.601 1132.478 L 1153.601 1132.478 Q 1152.679 1131.116 1152.679 1128.455 L 1152.679 1128.455 L 1152.679 1128.455 Q 1152.679 1125.68 1153.576 1124.364 L 1153.576 1124.364 L 1153.576 1124.364 Q 1154.472 1123.048 1156.337 1123.048 L 1156.337 1123.048 L 1156.337 1123.048 Q 1158.151 1123.048 1159.08 1124.425 L 1159.08 1124.425 L 1159.08 1124.425 Q 1160.008 1125.802 1160.008 1128.455 Z  M 1154.881 1128.455 L 1154.881 1128.455 L 1154.881 1128.455 Q 1154.881 1130.384 1155.214 1131.22 L 1155.214 1131.22 L 1155.214 1131.22 Q 1155.548 1132.055 1156.337 1132.055 L 1156.337 1132.055 L 1156.337 1132.055 Q 1157.111 1132.055 1157.455 1131.209 L 1157.455 1131.209 L 1157.455 1131.209 Q 1157.8 1130.363 1157.8 1128.455 L 1157.8 1128.455 L 1157.8 1128.455 Q 1157.8 1126.526 1157.452 1125.684 L 1157.452 1125.684 L 1157.452 1125.684 Q 1157.104 1124.841 1156.337 1124.841 L 1156.337 1124.841 L 1156.337 1124.841 Q 1155.555 1124.841 1155.218 1125.684 L 1155.218 1125.684 L 1155.218 1125.684 Q 1154.881 1126.526 1154.881 1128.455 Z " fill="rgb(255,255,255)"/><path d=" M 1338.309 991.013 L 1340.188 995.33 L 1342.081 991.013 L 1344.326 991.013 L 1341.579 996.37 L 1342.977 996.37 L 1342.977 997.647 L 1341.213 997.647 L 1341.213 998.636 L 1342.977 998.636 L 1342.977 999.913 L 1341.213 999.913 L 1341.213 1001.497 L 1339.155 1001.497 L 1339.155 999.913 L 1337.384 999.913 L 1337.384 998.636 L 1339.155 998.636 L 1339.155 997.647 L 1337.384 997.647 L 1337.384 996.37 L 1338.747 996.37 L 1336.043 991.013 L 1338.309 991.013 L 1338.309 991.013 Z  M 1352.536 997.604 L 1352.536 999.325 L 1351.274 999.325 L 1351.274 1001.497 L 1349.109 1001.497 L 1349.109 999.325 L 1344.634 999.325 L 1344.634 997.783 L 1349.231 991.013 L 1351.274 991.013 L 1351.274 997.604 L 1352.536 997.604 L 1352.536 997.604 Z  M 1346.584 997.604 L 1349.109 997.604 L 1349.109 995.825 L 1349.109 995.825 Q 1349.109 995.38 1349.144 994.534 L 1349.144 994.534 L 1349.144 994.534 Q 1349.18 993.688 1349.202 993.552 L 1349.202 993.552 L 1349.144 993.552 L 1349.144 993.552 Q 1348.879 994.14 1348.506 994.699 L 1348.506 994.699 L 1346.584 997.604 L 1346.584 997.604 Z  M 1360.683 999.633 L 1360.683 1001.497 L 1353.354 1001.497 L 1353.354 999.956 L 1355.986 997.295 L 1355.986 997.295 Q 1357.155 996.098 1357.513 995.635 L 1357.513 995.635 L 1357.513 995.635 Q 1357.872 995.173 1358.029 994.778 L 1358.029 994.778 L 1358.029 994.778 Q 1358.187 994.384 1358.187 993.961 L 1358.187 993.961 L 1358.187 993.961 Q 1358.187 993.33 1357.839 993.021 L 1357.839 993.021 L 1357.839 993.021 Q 1357.492 992.713 1356.911 992.713 L 1356.911 992.713 L 1356.911 992.713 Q 1356.301 992.713 1355.728 992.993 L 1355.728 992.993 L 1355.728 992.993 Q 1355.154 993.272 1354.53 993.789 L 1354.53 993.789 L 1353.325 992.361 L 1353.325 992.361 Q 1354.1 991.702 1354.609 991.429 L 1354.609 991.429 L 1354.609 991.429 Q 1355.118 991.157 1355.72 991.01 L 1355.72 991.01 L 1355.72 991.01 Q 1356.323 990.863 1357.068 990.863 L 1357.068 990.863 L 1357.068 990.863 Q 1358.051 990.863 1358.804 991.221 L 1358.804 991.221 L 1358.804 991.221 Q 1359.557 991.58 1359.973 992.225 L 1359.973 992.225 L 1359.973 992.225 Q 1360.389 992.871 1360.389 993.702 L 1360.389 993.702 L 1360.389 993.702 Q 1360.389 994.427 1360.134 995.061 L 1360.134 995.061 L 1360.134 995.061 Q 1359.88 995.696 1359.345 996.363 L 1359.345 996.363 L 1359.345 996.363 Q 1358.811 997.03 1357.463 998.263 L 1357.463 998.263 L 1356.115 999.533 L 1356.115 999.633 L 1360.683 999.633 L 1360.683 999.633 Z  M 1369.008 996.255 L 1369.008 996.255 L 1369.008 996.255 Q 1369.008 999.002 1368.108 1000.321 L 1368.108 1000.321 L 1368.108 1000.321 Q 1367.208 1001.641 1365.337 1001.641 L 1365.337 1001.641 L 1365.337 1001.641 Q 1363.522 1001.641 1362.601 1000.278 L 1362.601 1000.278 L 1362.601 1000.278 Q 1361.679 998.916 1361.679 996.255 L 1361.679 996.255 L 1361.679 996.255 Q 1361.679 993.48 1362.576 992.164 L 1362.576 992.164 L 1362.576 992.164 Q 1363.472 990.848 1365.337 990.848 L 1365.337 990.848 L 1365.337 990.848 Q 1367.151 990.848 1368.08 992.225 L 1368.08 992.225 L 1368.08 992.225 Q 1369.008 993.602 1369.008 996.255 Z  M 1363.881 996.255 L 1363.881 996.255 L 1363.881 996.255 Q 1363.881 998.184 1364.214 999.02 L 1364.214 999.02 L 1364.214 999.02 Q 1364.548 999.855 1365.337 999.855 L 1365.337 999.855 L 1365.337 999.855 Q 1366.111 999.855 1366.455 999.009 L 1366.455 999.009 L 1366.455 999.009 Q 1366.8 998.163 1366.8 996.255 L 1366.8 996.255 L 1366.8 996.255 Q 1366.8 994.326 1366.452 993.484 L 1366.452 993.484 L 1366.452 993.484 Q 1366.104 992.641 1365.337 992.641 L 1365.337 992.641 L 1365.337 992.641 Q 1364.555 992.641 1364.218 993.484 L 1364.218 993.484 L 1364.218 993.484 Q 1363.881 994.326 1363.881 996.255 Z " fill="rgb(255,255,255)"/><path d=" M 1041.921 1005.171 L 1043.424 1008.624 L 1044.939 1005.171 L 1046.734 1005.171 L 1044.537 1009.456 L 1045.656 1009.456 L 1045.656 1010.477 L 1044.245 1010.477 L 1044.245 1011.269 L 1045.656 1011.269 L 1045.656 1012.29 L 1044.245 1012.29 L 1044.245 1013.558 L 1042.598 1013.558 L 1042.598 1012.29 L 1041.181 1012.29 L 1041.181 1011.269 L 1042.598 1011.269 L 1042.598 1010.477 L 1041.181 1010.477 L 1041.181 1009.456 L 1042.271 1009.456 L 1040.108 1005.171 L 1041.921 1005.171 L 1041.921 1005.171 Z  M 1050.303 1008.2 L 1050.303 1008.2 L 1050.303 1008.2 Q 1051.519 1008.2 1052.239 1008.882 L 1052.239 1008.882 L 1052.239 1008.882 Q 1052.959 1009.565 1052.959 1010.753 L 1052.959 1010.753 L 1052.959 1010.753 Q 1052.959 1012.158 1052.093 1012.915 L 1052.093 1012.915 L 1052.093 1012.915 Q 1051.226 1013.673 1049.614 1013.673 L 1049.614 1013.673 L 1049.614 1013.673 Q 1048.215 1013.673 1047.354 1013.219 L 1047.354 1013.219 L 1047.354 1011.688 L 1047.354 1011.688 Q 1047.807 1011.929 1048.41 1012.081 L 1048.41 1012.081 L 1048.41 1012.081 Q 1049.012 1012.233 1049.551 1012.233 L 1049.551 1012.233 L 1049.551 1012.233 Q 1051.175 1012.233 1051.175 1010.902 L 1051.175 1010.902 L 1051.175 1010.902 Q 1051.175 1009.634 1049.494 1009.634 L 1049.494 1009.634 L 1049.494 1009.634 Q 1049.19 1009.634 1048.823 1009.694 L 1048.823 1009.694 L 1048.823 1009.694 Q 1048.456 1009.754 1048.226 1009.823 L 1048.226 1009.823 L 1047.52 1009.445 L 1047.836 1005.171 L 1052.385 1005.171 L 1052.385 1006.674 L 1049.391 1006.674 L 1049.236 1008.32 L 1049.437 1008.28 L 1049.437 1008.28 Q 1049.786 1008.2 1050.303 1008.2 Z  M 1059.774 1009.364 L 1059.774 1009.364 L 1059.774 1009.364 Q 1059.774 1011.561 1059.054 1012.617 L 1059.054 1012.617 L 1059.054 1012.617 Q 1058.334 1013.673 1056.837 1013.673 L 1056.837 1013.673 L 1056.837 1013.673 Q 1055.386 1013.673 1054.648 1012.583 L 1054.648 1012.583 L 1054.648 1012.583 Q 1053.911 1011.493 1053.911 1009.364 L 1053.911 1009.364 L 1053.911 1009.364 Q 1053.911 1007.144 1054.628 1006.091 L 1054.628 1006.091 L 1054.628 1006.091 Q 1055.345 1005.039 1056.837 1005.039 L 1056.837 1005.039 L 1056.837 1005.039 Q 1058.288 1005.039 1059.031 1006.14 L 1059.031 1006.14 L 1059.031 1006.14 Q 1059.774 1007.242 1059.774 1009.364 Z  M 1055.672 1009.364 L 1055.672 1009.364 L 1055.672 1009.364 Q 1055.672 1010.907 1055.939 1011.576 L 1055.939 1011.576 L 1055.939 1011.576 Q 1056.206 1012.244 1056.837 1012.244 L 1056.837 1012.244 L 1056.837 1012.244 Q 1057.457 1012.244 1057.732 1011.567 L 1057.732 1011.567 L 1057.732 1011.567 Q 1058.007 1010.89 1058.007 1009.364 L 1058.007 1009.364 L 1058.007 1009.364 Q 1058.007 1007.821 1057.729 1007.147 L 1057.729 1007.147 L 1057.729 1007.147 Q 1057.451 1006.473 1056.837 1006.473 L 1056.837 1006.473 L 1056.837 1006.473 Q 1056.212 1006.473 1055.942 1007.147 L 1055.942 1007.147 L 1055.942 1007.147 Q 1055.672 1007.821 1055.672 1009.364 Z  M 1066.716 1010.443 L 1066.716 1011.82 L 1065.706 1011.82 L 1065.706 1013.558 L 1063.974 1013.558 L 1063.974 1011.82 L 1060.394 1011.82 L 1060.394 1010.586 L 1064.071 1005.171 L 1065.706 1005.171 L 1065.706 1010.443 L 1066.716 1010.443 L 1066.716 1010.443 Z  M 1061.954 1010.443 L 1063.974 1010.443 L 1063.974 1009.02 L 1063.974 1009.02 Q 1063.974 1008.664 1064.002 1007.987 L 1064.002 1007.987 L 1064.002 1007.987 Q 1064.031 1007.311 1064.048 1007.202 L 1064.048 1007.202 L 1064.002 1007.202 L 1064.002 1007.202 Q 1063.79 1007.672 1063.492 1008.119 L 1063.492 1008.119 L 1061.954 1010.443 L 1061.954 1010.443 Z  M 1073.187 1009.364 L 1073.187 1009.364 L 1073.187 1009.364 Q 1073.187 1011.561 1072.467 1012.617 L 1072.467 1012.617 L 1072.467 1012.617 Q 1071.747 1013.673 1070.25 1013.673 L 1070.25 1013.673 L 1070.25 1013.673 Q 1068.798 1013.673 1068.061 1012.583 L 1068.061 1012.583 L 1068.061 1012.583 Q 1067.324 1011.493 1067.324 1009.364 L 1067.324 1009.364 L 1067.324 1009.364 Q 1067.324 1007.144 1068.041 1006.091 L 1068.041 1006.091 L 1068.041 1006.091 Q 1068.758 1005.039 1070.25 1005.039 L 1070.25 1005.039 L 1070.25 1005.039 Q 1071.701 1005.039 1072.444 1006.14 L 1072.444 1006.14 L 1072.444 1006.14 Q 1073.187 1007.242 1073.187 1009.364 Z  M 1069.085 1009.364 L 1069.085 1009.364 L 1069.085 1009.364 Q 1069.085 1010.907 1069.352 1011.576 L 1069.352 1011.576 L 1069.352 1011.576 Q 1069.619 1012.244 1070.25 1012.244 L 1070.25 1012.244 L 1070.25 1012.244 Q 1070.869 1012.244 1071.145 1011.567 L 1071.145 1011.567 L 1071.145 1011.567 Q 1071.42 1010.89 1071.42 1009.364 L 1071.42 1009.364 L 1071.42 1009.364 Q 1071.42 1007.821 1071.142 1007.147 L 1071.142 1007.147 L 1071.142 1007.147 Q 1070.864 1006.473 1070.25 1006.473 L 1070.25 1006.473 L 1070.25 1006.473 Q 1069.624 1006.473 1069.355 1007.147 L 1069.355 1007.147 L 1069.355 1007.147 Q 1069.085 1007.821 1069.085 1009.364 Z  M 1079.893 1009.364 L 1079.893 1009.364 L 1079.893 1009.364 Q 1079.893 1011.561 1079.173 1012.617 L 1079.173 1012.617 L 1079.173 1012.617 Q 1078.453 1013.673 1076.956 1013.673 L 1076.956 1013.673 L 1076.956 1013.673 Q 1075.505 1013.673 1074.767 1012.583 L 1074.767 1012.583 L 1074.767 1012.583 Q 1074.03 1011.493 1074.03 1009.364 L 1074.03 1009.364 L 1074.03 1009.364 Q 1074.03 1007.144 1074.747 1006.091 L 1074.747 1006.091 L 1074.747 1006.091 Q 1075.465 1005.039 1076.956 1005.039 L 1076.956 1005.039 L 1076.956 1005.039 Q 1078.407 1005.039 1079.15 1006.14 L 1079.15 1006.14 L 1079.15 1006.14 Q 1079.893 1007.242 1079.893 1009.364 Z  M 1075.792 1009.364 L 1075.792 1009.364 L 1075.792 1009.364 Q 1075.792 1010.907 1076.058 1011.576 L 1076.058 1011.576 L 1076.058 1011.576 Q 1076.325 1012.244 1076.956 1012.244 L 1076.956 1012.244 L 1076.956 1012.244 Q 1077.576 1012.244 1077.851 1011.567 L 1077.851 1011.567 L 1077.851 1011.567 Q 1078.126 1010.89 1078.126 1009.364 L 1078.126 1009.364 L 1078.126 1009.364 Q 1078.126 1007.821 1077.848 1007.147 L 1077.848 1007.147 L 1077.848 1007.147 Q 1077.57 1006.473 1076.956 1006.473 L 1076.956 1006.473 L 1076.956 1006.473 Q 1076.331 1006.473 1076.061 1007.147 L 1076.061 1007.147 L 1076.061 1007.147 Q 1075.792 1007.821 1075.792 1009.364 Z " fill="rgb(49,38,64)"/><path d=" M 1035.312 629.171 L 1036.816 632.624 L 1038.33 629.171 L 1040.126 629.171 L 1037.928 633.456 L 1039.047 633.456 L 1039.047 634.477 L 1037.636 634.477 L 1037.636 635.269 L 1039.047 635.269 L 1039.047 636.29 L 1037.636 636.29 L 1037.636 637.558 L 1035.989 637.558 L 1035.989 636.29 L 1034.572 636.29 L 1034.572 635.269 L 1035.989 635.269 L 1035.989 634.477 L 1034.572 634.477 L 1034.572 633.456 L 1035.662 633.456 L 1033.5 629.171 L 1035.312 629.171 L 1035.312 629.171 Z  M 1045.025 629.171 L 1045.025 637.558 L 1043.252 637.558 L 1043.252 632.705 L 1043.269 631.907 L 1043.298 631.035 L 1043.298 631.035 Q 1042.856 631.477 1042.684 631.615 L 1042.684 631.615 L 1041.721 632.389 L 1040.866 631.322 L 1043.568 629.171 L 1045.025 629.171 L 1045.025 629.171 Z  M 1053.211 636.066 L 1053.211 637.558 L 1047.348 637.558 L 1047.348 636.324 L 1049.454 634.196 L 1049.454 634.196 Q 1050.389 633.238 1050.676 632.868 L 1050.676 632.868 L 1050.676 632.868 Q 1050.963 632.498 1051.089 632.183 L 1051.089 632.183 L 1051.089 632.183 Q 1051.215 631.867 1051.215 631.529 L 1051.215 631.529 L 1051.215 631.529 Q 1051.215 631.024 1050.937 630.777 L 1050.937 630.777 L 1050.937 630.777 Q 1050.658 630.53 1050.194 630.53 L 1050.194 630.53 L 1050.194 630.53 Q 1049.706 630.53 1049.247 630.754 L 1049.247 630.754 L 1049.247 630.754 Q 1048.788 630.978 1048.289 631.391 L 1048.289 631.391 L 1047.325 630.249 L 1047.325 630.249 Q 1047.945 629.721 1048.352 629.503 L 1048.352 629.503 L 1048.352 629.503 Q 1048.76 629.285 1049.241 629.168 L 1049.241 629.168 L 1049.241 629.168 Q 1049.723 629.05 1050.32 629.05 L 1050.32 629.05 L 1050.32 629.05 Q 1051.106 629.05 1051.708 629.337 L 1051.708 629.337 L 1051.708 629.337 Q 1052.311 629.624 1052.643 630.14 L 1052.643 630.14 L 1052.643 630.14 Q 1052.976 630.657 1052.976 631.322 L 1052.976 631.322 L 1052.976 631.322 Q 1052.976 631.901 1052.772 632.409 L 1052.772 632.409 L 1052.772 632.409 Q 1052.569 632.917 1052.141 633.45 L 1052.141 633.45 L 1052.141 633.45 Q 1051.714 633.984 1050.636 634.971 L 1050.636 634.971 L 1049.557 635.986 L 1049.557 636.066 L 1053.211 636.066 L 1053.211 636.066 Z  M 1060.107 634.443 L 1060.107 635.82 L 1059.097 635.82 L 1059.097 637.558 L 1057.365 637.558 L 1057.365 635.82 L 1053.785 635.82 L 1053.785 634.586 L 1057.462 629.171 L 1059.097 629.171 L 1059.097 634.443 L 1060.107 634.443 L 1060.107 634.443 Z  M 1055.345 634.443 L 1057.365 634.443 L 1057.365 633.02 L 1057.365 633.02 Q 1057.365 632.664 1057.394 631.987 L 1057.394 631.987 L 1057.394 631.987 Q 1057.422 631.311 1057.439 631.202 L 1057.439 631.202 L 1057.394 631.202 L 1057.394 631.202 Q 1057.181 631.672 1056.883 632.119 L 1056.883 632.119 L 1055.345 634.443 L 1055.345 634.443 Z  M 1063.813 632.2 L 1063.813 632.2 L 1063.813 632.2 Q 1065.029 632.2 1065.749 632.882 L 1065.749 632.882 L 1065.749 632.882 Q 1066.469 633.565 1066.469 634.753 L 1066.469 634.753 L 1066.469 634.753 Q 1066.469 636.158 1065.603 636.915 L 1065.603 636.915 L 1065.603 636.915 Q 1064.737 637.673 1063.125 637.673 L 1063.125 637.673 L 1063.125 637.673 Q 1061.725 637.673 1060.864 637.219 L 1060.864 637.219 L 1060.864 635.688 L 1060.864 635.688 Q 1061.317 635.929 1061.92 636.081 L 1061.92 636.081 L 1061.92 636.081 Q 1062.522 636.233 1063.061 636.233 L 1063.061 636.233 L 1063.061 636.233 Q 1064.685 636.233 1064.685 634.902 L 1064.685 634.902 L 1064.685 634.902 Q 1064.685 633.634 1063.004 633.634 L 1063.004 633.634 L 1063.004 633.634 Q 1062.7 633.634 1062.333 633.694 L 1062.333 633.694 L 1062.333 633.694 Q 1061.966 633.754 1061.736 633.823 L 1061.736 633.823 L 1061.031 633.445 L 1061.346 629.171 L 1065.895 629.171 L 1065.895 630.674 L 1062.901 630.674 L 1062.746 632.32 L 1062.947 632.28 L 1062.947 632.28 Q 1063.297 632.2 1063.813 632.2 Z  M 1073.285 633.364 L 1073.285 633.364 L 1073.285 633.364 Q 1073.285 635.561 1072.565 636.617 L 1072.565 636.617 L 1072.565 636.617 Q 1071.845 637.673 1070.347 637.673 L 1070.347 637.673 L 1070.347 637.673 Q 1068.896 637.673 1068.159 636.583 L 1068.159 636.583 L 1068.159 636.583 Q 1067.421 635.493 1067.421 633.364 L 1067.421 633.364 L 1067.421 633.364 Q 1067.421 631.144 1068.139 630.091 L 1068.139 630.091 L 1068.139 630.091 Q 1068.856 629.039 1070.347 629.039 L 1070.347 629.039 L 1070.347 629.039 Q 1071.799 629.039 1072.542 630.14 L 1072.542 630.14 L 1072.542 630.14 Q 1073.285 631.242 1073.285 633.364 Z  M 1069.183 633.364 L 1069.183 633.364 L 1069.183 633.364 Q 1069.183 634.907 1069.449 635.576 L 1069.449 635.576 L 1069.449 635.576 Q 1069.716 636.244 1070.347 636.244 L 1070.347 636.244 L 1070.347 636.244 Q 1070.967 636.244 1071.242 635.567 L 1071.242 635.567 L 1071.242 635.567 Q 1071.518 634.89 1071.518 633.364 L 1071.518 633.364 L 1071.518 633.364 Q 1071.518 631.821 1071.239 631.147 L 1071.239 631.147 L 1071.239 631.147 Q 1070.961 630.473 1070.347 630.473 L 1070.347 630.473 L 1070.347 630.473 Q 1069.722 630.473 1069.452 631.147 L 1069.452 631.147 L 1069.452 631.147 Q 1069.183 631.821 1069.183 633.364 Z  M 1079.991 633.364 L 1079.991 633.364 L 1079.991 633.364 Q 1079.991 635.561 1079.271 636.617 L 1079.271 636.617 L 1079.271 636.617 Q 1078.551 637.673 1077.054 637.673 L 1077.054 637.673 L 1077.054 637.673 Q 1075.602 637.673 1074.865 636.583 L 1074.865 636.583 L 1074.865 636.583 Q 1074.128 635.493 1074.128 633.364 L 1074.128 633.364 L 1074.128 633.364 Q 1074.128 631.144 1074.845 630.091 L 1074.845 630.091 L 1074.845 630.091 Q 1075.562 629.039 1077.054 629.039 L 1077.054 629.039 L 1077.054 629.039 Q 1078.505 629.039 1079.248 630.14 L 1079.248 630.14 L 1079.248 630.14 Q 1079.991 631.242 1079.991 633.364 Z  M 1075.889 633.364 L 1075.889 633.364 L 1075.889 633.364 Q 1075.889 634.907 1076.156 635.576 L 1076.156 635.576 L 1076.156 635.576 Q 1076.423 636.244 1077.054 636.244 L 1077.054 636.244 L 1077.054 636.244 Q 1077.673 636.244 1077.949 635.567 L 1077.949 635.567 L 1077.949 635.567 Q 1078.224 634.89 1078.224 633.364 L 1078.224 633.364 L 1078.224 633.364 Q 1078.224 631.821 1077.946 631.147 L 1077.946 631.147 L 1077.946 631.147 Q 1077.667 630.473 1077.054 630.473 L 1077.054 630.473 L 1077.054 630.473 Q 1076.428 630.473 1076.159 631.147 L 1076.159 631.147 L 1076.159 631.147 Q 1075.889 631.821 1075.889 633.364 Z " fill="rgb(49,38,64)"/><path d=" M 1078.166 583.171 L 1079.669 586.624 L 1081.184 583.171 L 1082.98 583.171 L 1080.782 587.456 L 1081.901 587.456 L 1081.901 588.477 L 1080.49 588.477 L 1080.49 589.269 L 1081.901 589.269 L 1081.901 590.29 L 1080.49 590.29 L 1080.49 591.558 L 1078.843 591.558 L 1078.843 590.29 L 1077.426 590.29 L 1077.426 589.269 L 1078.843 589.269 L 1078.843 588.477 L 1077.426 588.477 L 1077.426 587.456 L 1078.516 587.456 L 1076.354 583.171 L 1078.166 583.171 L 1078.166 583.171 Z  M 1083.439 587.995 L 1083.439 587.995 L 1083.439 587.995 Q 1083.439 585.506 1084.491 584.289 L 1084.491 584.289 L 1084.491 584.289 Q 1085.544 583.073 1087.644 583.073 L 1087.644 583.073 L 1087.644 583.073 Q 1088.361 583.073 1088.768 583.159 L 1088.768 583.159 L 1088.768 584.576 L 1088.768 584.576 Q 1088.257 584.461 1087.758 584.461 L 1087.758 584.461 L 1087.758 584.461 Q 1086.846 584.461 1086.27 584.737 L 1086.27 584.737 L 1086.27 584.737 Q 1085.693 585.012 1085.406 585.551 L 1085.406 585.551 L 1085.406 585.551 Q 1085.119 586.091 1085.068 587.083 L 1085.068 587.083 L 1085.142 587.083 L 1085.142 587.083 Q 1085.71 586.108 1086.961 586.108 L 1086.961 586.108 L 1086.961 586.108 Q 1088.085 586.108 1088.722 586.814 L 1088.722 586.814 L 1088.722 586.814 Q 1089.359 587.519 1089.359 588.764 L 1089.359 588.764 L 1089.359 588.764 Q 1089.359 590.106 1088.602 590.89 L 1088.602 590.89 L 1088.602 590.89 Q 1087.844 591.673 1086.502 591.673 L 1086.502 591.673 L 1086.502 591.673 Q 1085.573 591.673 1084.881 591.242 L 1084.881 591.242 L 1084.881 591.242 Q 1084.19 590.812 1083.814 589.986 L 1083.814 589.986 L 1083.814 589.986 Q 1083.439 589.16 1083.439 587.995 Z  M 1086.468 590.256 L 1086.468 590.256 L 1086.468 590.256 Q 1087.035 590.256 1087.34 589.874 L 1087.34 589.874 L 1087.34 589.874 Q 1087.644 589.493 1087.644 588.787 L 1087.644 588.787 L 1087.644 588.787 Q 1087.644 588.173 1087.36 587.82 L 1087.36 587.82 L 1087.36 587.82 Q 1087.076 587.468 1086.502 587.468 L 1086.502 587.468 L 1086.502 587.468 Q 1085.963 587.468 1085.581 587.817 L 1085.581 587.817 L 1085.581 587.817 Q 1085.2 588.167 1085.2 588.632 L 1085.2 588.632 L 1085.2 588.632 Q 1085.2 589.315 1085.558 589.785 L 1085.558 589.785 L 1085.558 589.785 Q 1085.917 590.256 1086.468 590.256 Z  M 1096.019 587.364 L 1096.019 587.364 L 1096.019 587.364 Q 1096.019 589.561 1095.299 590.617 L 1095.299 590.617 L 1095.299 590.617 Q 1094.579 591.673 1093.082 591.673 L 1093.082 591.673 L 1093.082 591.673 Q 1091.631 591.673 1090.894 590.583 L 1090.894 590.583 L 1090.894 590.583 Q 1090.156 589.493 1090.156 587.364 L 1090.156 587.364 L 1090.156 587.364 Q 1090.156 585.144 1090.873 584.091 L 1090.873 584.091 L 1090.873 584.091 Q 1091.591 583.039 1093.082 583.039 L 1093.082 583.039 L 1093.082 583.039 Q 1094.534 583.039 1095.276 584.14 L 1095.276 584.14 L 1095.276 584.14 Q 1096.019 585.242 1096.019 587.364 Z  M 1091.918 587.364 L 1091.918 587.364 L 1091.918 587.364 Q 1091.918 588.907 1092.184 589.576 L 1092.184 589.576 L 1092.184 589.576 Q 1092.451 590.244 1093.082 590.244 L 1093.082 590.244 L 1093.082 590.244 Q 1093.702 590.244 1093.977 589.567 L 1093.977 589.567 L 1093.977 589.567 Q 1094.252 588.89 1094.252 587.364 L 1094.252 587.364 L 1094.252 587.364 Q 1094.252 585.821 1093.974 585.147 L 1093.974 585.147 L 1093.974 585.147 Q 1093.696 584.473 1093.082 584.473 L 1093.082 584.473 L 1093.082 584.473 Q 1092.457 584.473 1092.187 585.147 L 1092.187 585.147 L 1092.187 585.147 Q 1091.918 585.821 1091.918 587.364 Z  M 1102.726 587.364 L 1102.726 587.364 L 1102.726 587.364 Q 1102.726 589.561 1102.006 590.617 L 1102.006 590.617 L 1102.006 590.617 Q 1101.286 591.673 1099.788 591.673 L 1099.788 591.673 L 1099.788 591.673 Q 1098.337 591.673 1097.6 590.583 L 1097.6 590.583 L 1097.6 590.583 Q 1096.863 589.493 1096.863 587.364 L 1096.863 587.364 L 1096.863 587.364 Q 1096.863 585.144 1097.58 584.091 L 1097.58 584.091 L 1097.58 584.091 Q 1098.297 583.039 1099.788 583.039 L 1099.788 583.039 L 1099.788 583.039 Q 1101.24 583.039 1101.983 584.14 L 1101.983 584.14 L 1101.983 584.14 Q 1102.726 585.242 1102.726 587.364 Z  M 1098.624 587.364 L 1098.624 587.364 L 1098.624 587.364 Q 1098.624 588.907 1098.891 589.576 L 1098.891 589.576 L 1098.891 589.576 Q 1099.157 590.244 1099.788 590.244 L 1099.788 590.244 L 1099.788 590.244 Q 1100.408 590.244 1100.683 589.567 L 1100.683 589.567 L 1100.683 589.567 Q 1100.959 588.89 1100.959 587.364 L 1100.959 587.364 L 1100.959 587.364 Q 1100.959 585.821 1100.681 585.147 L 1100.681 585.147 L 1100.681 585.147 Q 1100.402 584.473 1099.788 584.473 L 1099.788 584.473 L 1099.788 584.473 Q 1099.163 584.473 1098.894 585.147 L 1098.894 585.147 L 1098.894 585.147 Q 1098.624 585.821 1098.624 587.364 Z  M 1109.432 587.364 L 1109.432 587.364 L 1109.432 587.364 Q 1109.432 589.561 1108.712 590.617 L 1108.712 590.617 L 1108.712 590.617 Q 1107.992 591.673 1106.495 591.673 L 1106.495 591.673 L 1106.495 591.673 Q 1105.043 591.673 1104.306 590.583 L 1104.306 590.583 L 1104.306 590.583 Q 1103.569 589.493 1103.569 587.364 L 1103.569 587.364 L 1103.569 587.364 Q 1103.569 585.144 1104.286 584.091 L 1104.286 584.091 L 1104.286 584.091 Q 1105.003 583.039 1106.495 583.039 L 1106.495 583.039 L 1106.495 583.039 Q 1107.946 583.039 1108.689 584.14 L 1108.689 584.14 L 1108.689 584.14 Q 1109.432 585.242 1109.432 587.364 Z  M 1105.33 587.364 L 1105.33 587.364 L 1105.33 587.364 Q 1105.33 588.907 1105.597 589.576 L 1105.597 589.576 L 1105.597 589.576 Q 1105.864 590.244 1106.495 590.244 L 1106.495 590.244 L 1106.495 590.244 Q 1107.114 590.244 1107.39 589.567 L 1107.39 589.567 L 1107.39 589.567 Q 1107.665 588.89 1107.665 587.364 L 1107.665 587.364 L 1107.665 587.364 Q 1107.665 585.821 1107.387 585.147 L 1107.387 585.147 L 1107.387 585.147 Q 1107.109 584.473 1106.495 584.473 L 1106.495 584.473 L 1106.495 584.473 Q 1105.869 584.473 1105.6 585.147 L 1105.6 585.147 L 1105.6 585.147 Q 1105.33 585.821 1105.33 587.364 Z  M 1113.362 588.34 L 1113.362 588.34 L 1113.362 588.34 Q 1113.362 589.848 1112.917 591.151 L 1112.917 591.151 L 1112.917 591.151 Q 1112.473 592.453 1111.635 593.417 L 1111.635 593.417 L 1110.212 593.417 L 1110.212 593.417 Q 1110.987 592.361 1111.411 591.05 L 1111.411 591.05 L 1111.411 591.05 Q 1111.836 589.739 1111.836 588.328 L 1111.836 588.328 L 1111.836 588.328 Q 1111.836 586.928 1111.423 585.603 L 1111.423 585.603 L 1111.423 585.603 Q 1111.01 584.278 1110.201 583.171 L 1110.201 583.171 L 1111.635 583.171 L 1111.635 583.171 Q 1112.478 584.175 1112.92 585.503 L 1112.92 585.503 L 1112.92 585.503 Q 1113.362 586.831 1113.362 588.34 Z  M 1072.808 588.34 L 1072.808 588.34 L 1072.808 588.34 Q 1072.808 586.819 1073.253 585.494 L 1073.253 585.494 L 1073.253 585.494 Q 1073.697 584.169 1074.535 583.171 L 1074.535 583.171 L 1075.969 583.171 L 1075.969 583.171 Q 1075.16 584.278 1074.747 585.603 L 1074.747 585.603 L 1074.747 585.603 Q 1074.334 586.928 1074.334 588.328 L 1074.334 588.328 L 1074.334 588.328 Q 1074.334 589.734 1074.756 591.044 L 1074.756 591.044 L 1074.756 591.044 Q 1075.177 592.355 1075.958 593.417 L 1075.958 593.417 L 1074.535 593.417 L 1074.535 593.417 Q 1073.692 592.441 1073.25 591.139 L 1073.25 591.139 L 1073.25 591.139 Q 1072.808 589.837 1072.808 588.34 Z " fill="rgb(49,38,64)"/><line x1="1095" y1="1145" x2="1259" y2="1011" vector-effect="non-scaling-stroke" stroke-width="2" stroke="rgb(49,38,64)" stroke-linejoin="round" stroke-linecap="round" stroke-miterlimit="3"/><line x1="1095" y1="1011" x2="1305" y2="1010.7" vector-effect="non-scaling-stroke" stroke-width="2" stroke-dasharray="6,6" stroke="rgb(49,38,64)" stroke-linejoin="round" stroke-linecap="round" stroke-miterlimit="3"/><line x1="1844" y1="628.846" x2="1304" y2="1011" vector-effect="non-scaling-stroke" stroke-width="2.077" stroke="rgb(49,38,64)" stroke-linejoin="round" stroke-linecap="round" stroke-miterlimit="3"/><line x1="1259" y1="1011" x2="1259" y2="1145" vector-effect="non-scaling-stroke" stroke-width="2" stroke-dasharray="6,6" stroke="rgb(49,38,64)" stroke-linejoin="round" stroke-linecap="round" stroke-miterlimit="3"/><line x1="1304" y1="1011" x2="1304" y2="1145" vector-effect="non-scaling-stroke" stroke-width="2" stroke-dasharray="6,6" stroke="rgb(49,38,64)" stroke-linejoin="miter" stroke-linecap="round" stroke-miterlimit="3"/><line x1="1086.71" y1="1011" x2="1101.71" y2="1011" vector-effect="non-scaling-stroke" stroke-width="2" stroke="rgb(238,52,52)" stroke-linejoin="miter" stroke-linecap="square" stroke-miterlimit="3"/><path d=" M 1259 1137.5 L 1259 1145 L 1259 1152.5" fill="none" vector-effect="non-scaling-stroke" stroke-width="2" stroke="rgb(238,52,52)" stroke-linejoin="miter" stroke-linecap="square" stroke-miterlimit="3"/></g></svg>