<?xml version="1.0" encoding="UTF-8" standalone="no"?>
<svg
   xmlns:dc="http://purl.org/dc/elements/1.1/"
   xmlns:cc="http://creativecommons.org/ns#"
   xmlns:rdf="http://www.w3.org/1999/02/22-rdf-syntax-ns#"
   xmlns:svg="http://www.w3.org/2000/svg"
   xmlns="http://www.w3.org/2000/svg"
   xmlns:sodipodi="http://sodipodi.sourceforge.net/DTD/sodipodi-0.dtd"
   xmlns:inkscape="http://www.inkscape.org/namespaces/inkscape"
   viewBox="0 0 600 160"
   version="1.1"
   id="svg26"
   sodipodi:docname="preview.year.svg"
   height="100%"
   width="100%"
   inkscape:version="0.92.1 r15371">
  <metadata
     id="metadata32">
    <rdf:RDF>
      <cc:Work
         rdf:about="">
        <dc:format>image/svg+xml</dc:format>
        <dc:type
           rdf:resource="http://purl.org/dc/dcmitype/StillImage" />
        <dc:title></dc:title>
      </cc:Work>
    </rdf:RDF>
  </metadata>
  <defs
     id="defs30" />
  <sodipodi:namedview
     pagecolor="#ffffff"
     bordercolor="#666666"
     borderopacity="1"
     objecttolerance="10"
     gridtolerance="10"
     guidetolerance="10"
     inkscape:pageopacity="0"
     inkscape:pageshadow="2"
     inkscape:window-width="1853"
     inkscape:window-height="1057"
     id="namedview28"
     showgrid="false"
     inkscape:zoom="1.0466667"
     inkscape:cx="300"
     inkscape:cy="80"
     inkscape:window-x="-8"
     inkscape:window-y="-8"
     inkscape:window-maximized="1"
     inkscape:current-layer="svg26" />
  <rect
     style="opacity:1;fill:#7a8a8d;fill-opacity:1;stroke:none;stroke-width:2.02004433;stroke-linecap:square;stroke-linejoin:miter;stroke-miterlimit:4;stroke-dasharray:none;stroke-dashoffset:0;stroke-opacity:1;paint-order:normal"
     id="rect4503-8"
     width="150"
     height="45.939423"
     x="450"
     y="0" />
  <rect
     style="opacity:1;fill:#d8ae46;fill-opacity:1;stroke:none;stroke-width:2.02004433;stroke-linecap:square;stroke-linejoin:miter;stroke-miterlimit:4;stroke-dasharray:none;stroke-dashoffset:0;stroke-opacity:1;paint-order:normal"
     id="rect4503-0"
     width="150"
     height="45.939423"
     x="300"
     y="0" />
  <rect
     style="opacity:1;fill:#7ca3c5;fill-opacity:1;stroke:none;stroke-width:2.02004433;stroke-linecap:square;stroke-linejoin:miter;stroke-miterlimit:4;stroke-dasharray:none;stroke-dashoffset:0;stroke-opacity:1;paint-order:normal"
     id="rect4503-9"
     width="150"
     height="45.939423"
     x="150"
     y="0" />
  <rect
     style="opacity:1;fill:#f57a62;fill-opacity:1;stroke:none;stroke-width:2.02004433;stroke-linecap:square;stroke-linejoin:miter;stroke-miterlimit:4;stroke-dasharray:none;stroke-dashoffset:0;stroke-opacity:1;paint-order:normal"
     id="rect4503"
     width="150"
     height="45.939423"
     x="0"
     y="0" />
  <path
     inkscape:connector-curvature="0"
     id="path4788"
     style="fill:#ff4a58;fill-opacity:1;stroke:none;stroke-width:3.66017747"
     d="m 115.73001,85.213944 q 0,-0.23425 0.23425,-0.23425 h 1.54216 q 0.15617,-1.19932 0.28061,-2.38399 0.12575,-1.18347 0.23425,-2.36813 0.0304,-0.23427 0.2489,-0.23427 h 10.90732 q 0.12575,0 0.1879,0.0781 0.0781,0.0623 0.0623,0.20253 -0.0781,1.07487 -0.17076,2.25953 -0.0939,1.16884 -0.21961,2.44623 h 1.45063 q 0.23304,0 0.23304,0.23425 v 1.2762 q 0,0.23423 -0.23304,0.23423 h -1.62144 q -0.0304,0.32698 -0.37334,3.350288 h 1.35547 q 0.23425,0 0.23425,0.248893 v 1.200539 q 0,0.233015 -0.23425,0.233015 h -1.55801 q -0.0163,0.03188 -0.0163,0.109806 0,0.061 -0.0163,0.154866 -0.0304,0.218391 -0.061,0.280614 -0.17203,1.122455 -0.70276,1.511655 -0.51364,0.390419 -1.86913,0.390419 -0.40505,0 -0.93578,-0.01627 -0.5295,-0.01627 -1.19932,-0.06344 -0.23425,0 -0.23425,-0.217187 l -0.061,-1.168818 q 0,-0.250112 0.26352,-0.250112 0.67105,0.03188 1.13833,0.04766 0.46728,0.01627 0.74787,0.01627 0.52952,0 0.65395,-0.140388 0.0781,-0.108667 0.17076,-0.653952 h -7.6657 q -0.0781,0.326976 -0.12445,0.607606 -0.0477,0.264737 -0.0781,0.483128 -0.0477,0.21839 -0.26477,0.186669 l -1.54338,-0.140388 q -0.2806,-0.03042 -0.21837,-0.311116 0.54536,-2.789041 0.99801,-5.858727 h -1.30913 q -0.23425,0 -0.23425,-0.23424 v -1.27717 z m 10.67432,4.861939 q 0.14038,-1.106599 0.23425,-1.948439 0.10981,-0.84184 0.17074,-1.40307 h -4.72162 q 0.82597,0.51487 1.52752,1.01265 0.70154,0.48437 1.29327,0.96751 0.17076,0.15487 0.0317,0.34162 l -0.84184,1.029729 z m -2.78906,0 q -0.65397,-0.499005 -1.33965,-0.966289 -0.68568,-0.48314 -1.4177,-0.93579 -0.21961,-0.15486 -0.0634,-0.37333 l 0.8577,-1.07488 h -2.29125 q -0.0781,0.60759 -0.21719,1.44821 -0.14039,0.84185 -0.3282,1.902079 z m 3.38198,-5.096189 q 0.10981,-1.10658 0.18669,-1.91548 0.0781,-0.82722 0.12445,-1.38845 h -4.61183 q 0.71618,0.4368 1.38599,0.90407 0.67104,0.46728 1.30912,0.95166 0.20253,0.15487 0.0317,0.34162 l -0.87354,1.10658 z m -2.82075,0 q -0.59173,-0.48315 -1.2469,-0.93455 -0.65398,-0.45144 -1.38722,-0.90407 -0.10867,-0.0623 -0.13909,-0.15617 -0.0163,-0.10996 0.061,-0.21839 l 0.88944,-1.09075 h -2.38399 q -0.10981,1.09075 -0.20375,1.91672 -0.077,0.82598 -0.15487,1.38721 z m -4.42639,15.317836 q -0.90283,0.81012 -1.37011,1.85451 -0.4673,1.04435 -0.4673,2.11923 v 0.15617 q 0,0.0623 0.0163,0.14038 0.0163,0.23304 0.0781,0.60759 0.0781,0.3587 0.26475,0.71618 0.18788,0.3587 0.51487,0.60881 0.32697,0.23303 0.87233,0.20253 0.60759,-0.0317 1.09075,-0.62345 0.48314,-0.60759 0.93577,-1.97894 0.40507,-1.2469 0.54536,-2.54015 0.13909,-1.30914 0.17076,-2.58654 -0.76376,0.17076 -1.43355,0.49778 -0.65397,0.31234 -1.2152,0.82598 z m 9.14802,11.53201 q 0.23424,0 0.23424,0.23302 v 13.417 q 0,0.23425 -0.23424,0.23425 h -1.65198 q -0.23301,0 -0.23301,-0.23425 v -0.65395 h -7.57415 v 0.65395 q 0,0.23425 -0.23303,0.23425 H 117.554 q -0.23425,0 -0.23425,-0.23425 v -13.417 q 0,-0.23302 0.23425,-0.23302 z m -1.88499,5.48539 v -3.66263 h -7.57415 v 3.66263 z m -7.57415,5.74891 h 7.57415 v -3.9896 h -7.57415 z m 8.74175,-14.67853 q -0.68568,0.56123 -1.40188,0.88819 -0.71738,0.34284 -1.52749,0.62225 -0.21839,0.0792 -0.34162,-0.13909 l -0.63931,-1.44943 v -0.0304 q -0.0781,-0.26598 0.14039,-0.3282 0.3111,-0.12444 0.60757,-0.21717 0.29527,-0.1098 0.59174,-0.25011 0.28061,-0.14023 0.54537,-0.29526 0.28059,-0.15616 0.5295,-0.35869 0.73203,-0.60759 1.20055,-1.38721 0.48313,-0.79425 0.63809,-1.71419 0.15617,-1.01263 -0.0927,-1.85449 -0.25011,-0.84184 -0.81012,-1.47993 -0.54537,-0.6393 -1.37135,-1.0285 -0.81012,-0.40506 -1.77641,-0.51486 -0.0163,1.40305 -0.14022,2.883 -0.12445,1.46406 -0.62347,2.96109 -0.0623,0.18665 -0.15617,0.4514 -0.0781,0.25012 -0.21839,0.57711 -0.12444,0.3111 -0.31111,0.63931 -0.18666,0.32696 -0.40506,0.65394 -0.46728,0.65395 -1.16883,1.15295 -0.70154,0.49901 -1.68368,0.54537 -0.95041,0.0623 -1.66661,-0.26475 -0.71739,-0.32696 -1.21516,-0.90285 -0.48314,-0.57709 -0.74791,-1.31033 -0.26598,-0.74791 -0.31234,-1.54215 -0.0927,-1.58974 0.54538,-3.1319 0.65516,-1.54337 1.91672,-2.69633 0.85769,-0.79428 1.90084,-1.293265 1.04437,-0.499004 2.16682,-0.685673 1.12247,-0.20253 2.27421,-0.07808 1.15416,0.109642 2.22905,0.545367 1.10658,0.467283 1.93257,1.232241 0.84184,0.7467 1.32376,1.72884 0.499,0.96628 0.63931,2.08751 0.14039,1.1066 -0.17076,2.24493 -0.26597,1.10536 -0.88942,2.05702 -0.60759,0.95043 -1.51166,1.68245 z" />
  <path
     inkscape:connector-curvature="0"
     id="path4750"
     style="fill:#ff4a58;fill-opacity:1;stroke:none;stroke-width:3.66017747"
     d="m 80.092295,73.902415 -0.68567,1.511638 q -0.10981,0.248909 -0.37456,0.139087 -0.37334,-0.17076 -0.70031,-0.32696 -0.3282,-0.17076 -0.62346,-0.357494 -0.29647,-0.187873 -0.59294,-0.390419 -0.28062,-0.218391 -0.57587,-0.498989 0.15494,0.825981 0.18667,1.637321 0.0464,0.794243 -0.0317,1.510419 -0.4197,3.678498 -2.67925,5.112053 -0.70154,0.435561 -1.52752,0.62223 -0.82598,0.20375 -1.66782,0.156168 -0.82598,-0.03042 -1.62024,-0.311115 -0.79426,-0.280614 -1.4177,-0.79426 -1.73005,-1.433571 -1.73005,-4.160405 0,-0.763742 0.14031,-1.481154 0.15617,-0.717395 0.42092,-1.387192 0.26475,-0.685674 0.60759,-1.339642 0.34161,-0.671017 0.73203,-1.309109 -0.39042,0 -0.85648,0.03188 -0.45142,0.01627 -0.90406,0.04636 -0.43678,0.01627 -0.81012,0.04636 l -0.56123,0.04636 q -0.12445,0 -0.21839,-0.061 -0.0781,-0.07922 -0.0781,-0.203734 v -1.558033 q 0,-0.264753 0.26475,-0.264753 h 4.66062 q 0.20131,0 0.31112,0.202546 l 0.60759,1.183459 q 0.0939,0.203734 -0.0464,0.390419 -0.8577,1.058996 -1.38721,2.244895 -0.51486,1.183458 -0.68567,2.445001 -0.0622,0.436781 -0.0781,0.951647 0,0.513645 0.094,1.01265 0.0927,0.483144 0.31111,0.934566 0.21839,0.436782 0.59173,0.747897 0.3587,0.280598 0.82598,0.451406 0.4685,0.156168 0.96629,0.187906 0.499,0.01627 0.98214,-0.09386 0.48315,-0.109968 0.90285,-0.390419 1.44943,-0.887 1.74591,-3.660197 0.12444,-1.20054 0,-2.43158 -0.10983,-1.232245 -0.45143,-2.508428 -0.0622,-0.234252 0.14031,-0.342837 l 1.33962,-0.701535 q 0.21839,-0.109805 0.39042,0.061 0.43556,0.468503 0.88699,0.841842 0.4685,0.358698 0.93578,0.655172 0.46728,0.296475 0.98093,0.545367 0.53072,0.248893 1.12245,0.514866 0.2489,0.108504 0.15617,0.341617 z m -0.39042,15.691163 -0.87234,1.168834 q -0.12445,0.17076 -0.3587,0.03172 l -0.59173,-0.40506 q -0.43678,-0.280613 -0.87234,-0.577088 -0.3587,-0.233032 -0.81012,-0.513645 -0.43678,-0.280614 -0.82598,-0.500225 l -0.65517,-0.373339 q -0.18667,-0.108504 -0.0781,-0.326976 l 0.74911,-1.21518 q 0.10857,-0.20253 0.31112,-0.109805 h 0.0317 l 0.63809,0.358697 q 0.43678,0.250113 0.8882,0.545367 0.46728,0.280614 0.87234,0.545367 0.18789,0.125748 0.34284,0.234252 0.17081,0.109968 0.29648,0.186669 l 0.18666,0.140388 0.094,0.04636 0.60759,0.420904 q 0.20253,0.140388 0.0464,0.342837 z m -6.63834,-1.838631 v 1.417726 q 0,0.265973 -0.23303,0.265973 h -3.10139 q -0.57587,1.760547 -1.19932,3.458855 -0.62345,1.698324 -1.38721,3.412509 -0.10979,0.23425 -0.32697,0.14039 l -1.46407,-0.591731 q -0.23426,-0.09386 -0.12567,-0.296475 0.67103,-1.542156 1.2469,-3.053811 0.59173,-1.512875 1.10659,-3.069655 h -2.29127 q -0.1098,0 -0.18667,-0.07808 -0.0622,-0.07808 -0.0622,-0.187889 v -1.40307 q 0,-0.108666 0.061,-0.170759 0.0793,-0.061 0.18789,-0.061 h 2.89886 q 0.1708,-0.514866 0.31111,-1.029731 0.14031,-0.513646 0.26475,-1.012634 l 0.18789,-0.716175 q 0,-0.04766 0.0146,-0.04766 0.10983,-0.17076 0.29648,-0.155029 l 1.52751,0.389199 q 0.10981,0.01627 0.15495,0.09273 0.0635,0.07808 0.0158,0.187889 -0.14031,0.591729 -0.31111,1.168801 -0.15617,0.561228 -0.32698,1.122456 h 2.50844 q 0.094,0 0.15617,0.061 0.0769,0.04766 0.0769,0.156168 z m 6.03075,9.116293 -0.74789,1.23104 q -0.12445,0.20253 -0.32698,0.0781 l -1.02851,-0.56123 q -0.51364,-0.29647 -1.04437,-0.56123 -0.20253,0.46729 -0.54537,0.84184 -0.34161,0.39042 -0.79426,0.65396 -0.45142,0.28061 -1.01265,0.42092 -0.54536,0.14039 -1.16881,0.14039 -0.81012,-0.0163 -1.49579,-0.32698 -0.67104,-0.29647 -1.09074,-0.8577 -0.67103,-0.91871 -0.28061,-2.087526 0.10979,-0.326976 0.37334,-0.701518 0.28061,-0.373355 0.79548,-0.622247 0.5295,-0.265973 1.30912,-0.328197 0.79304,-0.07808 1.94721,0.18667 0.12445,0.03172 0.23426,0.07808 0.10858,0.03172 0.23303,0.0623 0.0317,-0.60759 0.0317,-1.168802 v -1.838647 q 0.0158,-0.311099 0,-0.52949 l -0.0317,-0.716175 q 0,-0.265973 0.25011,-0.265973 l 1.49579,-0.04636 q 0.24889,0 0.24889,0.248892 l 0.0317,0.701518 v 0.40506 q 0.0146,0.358714 0.0146,0.919942 0,0.671017 -0.0464,1.417694 -0.0464,0.732036 -0.12444,1.543376 0.71617,0.326976 1.37134,0.653952 0.65395,0.326981 1.30913,0.685671 0.12444,0.0464 0.12444,0.15617 0.0158,0.10981 -0.0317,0.18667 z m -4.86193,-0.56123 q -0.4197,-0.15617 -0.81012,-0.24889 -0.39042,-0.109808 -0.76376,-0.170762 -0.29525,-0.03188 -0.65395,0.01627 -0.3587,0.03172 -0.52951,0.296472 -0.14031,0.20253 -0.12444,0.40506 0.0146,0.18667 0.15494,0.32698 0.14031,0.14039 0.39042,0.21839 0.24889,0.0781 0.52951,0.0781 0.5295,0 1.05901,-0.21961 0.54536,-0.23181 0.74789,-0.70032 z m -7.89989,8.55505 q 0.18667,-0.12445 0.34162,0.0163 0.35992,0.35868 0.62467,0.65393 0.28061,0.28062 0.45142,0.49901 0.23425,-0.17076 0.40506,-0.31112 0.17081,-0.15616 0.31234,-0.28059 l 0.0305,-0.0319 q 0.0158,-0.0163 0.0476,-0.0163 -0.62345,-0.68568 -1.02851,-1.07367 -0.0781,-0.0792 -0.0781,-0.17203 0.0146,-0.10997 0.0927,-0.20252 l 0.81134,-0.71741 q 0.20253,-0.12444 0.34162,0.0163 0.17203,0.18667 0.40628,0.43556 0.23303,0.23426 0.54536,0.56123 0.48315,-0.57587 0.96507,-1.32376 h -2.43036 q -0.48314,0.54536 -1.07487,1.05901 -0.57709,0.499 -1.27862,1.01265 -0.0769,0.0623 -0.18667,0.0477 -0.0927,-0.0163 -0.15617,-0.10997 l -0.70032,-1.12245 q -0.12566,-0.17075 0.0464,-0.31112 1.85449,-1.38721 3.03794,-2.96109 0.10981,-0.12444 0.26598,-0.0768 l 1.15295,0.45143 q 0.26475,0.10996 0.21839,0.21839 -0.0158,0.0163 -0.0622,0.0927 -0.0317,0.0781 -0.0634,0.14038 -0.0305,0.0477 -0.061,0.0781 h 2.00944 q -0.0158,-0.0304 -0.0464,-0.1098 -0.0158,-0.0768 -0.0476,-0.17076 -0.061,-0.12445 0,-0.23303 0.0781,-0.10997 0.20253,-0.12445 l 1.43357,-0.20373 q 0.18788,0 0.23425,0.15617 0.20253,0.49902 0.40506,0.9663 0.21839,0.45141 0.45142,0.8882 v -1.04438 q 0,-0.2489 0.23425,-0.2489 h 4.44101 q 0.23426,0 0.23426,0.2489 v 1.34084 q 0,0.061 -0.0158,0.0927 -0.81012,1.5275 -2.10339,2.96109 0.60759,0.51486 1.33963,0.99799 0.73203,0.48193 1.58973,0.93457 0.20254,0.10997 0.094,0.32698 l -0.60881,1.33961 q -0.0464,0.1098 -0.15495,0.14038 -0.0939,0.0317 -0.18789,-0.0304 -0.12444,-0.0623 -0.23303,-0.12445 l -0.21839,-0.12444 v 1.05901 q 0,0.2489 -0.23425,0.2489 h -1.74468 q 0.76375,0.68567 1.47993,1.37134 0.73203,0.67102 1.40307,1.38721 0.15616,0.15617 -0.0158,0.32698 l -1.01265,0.98213 q -0.0781,0.0781 -0.17081,0.0781 -0.0939,0 -0.17203,-0.0781 -0.79548,-0.84182 -1.58974,-1.58974 -0.77961,-0.74788 -1.58973,-1.46407 -0.0781,-0.0781 -0.0927,-0.17074 0,-0.10997 0.0781,-0.18789 l 0.66981,-0.65518 h -1.82399 v 2.54017 q 0,0.23424 -0.0146,0.3587 -0.0158,0.15617 -0.0476,0.31232 -0.0146,0.17076 -0.0781,0.34163 -0.061,0.23425 -0.26475,0.43678 -0.18667,0.18667 -0.43556,0.24888 -0.17081,0.0634 -0.34284,0.0781 -0.17081,0.0319 -0.32697,0.0477 -0.12567,0.0163 -0.3587,0.0163 h -0.60759 q -0.23425,0 -0.73204,-0.0163 -0.48436,-0.0163 -1.23225,-0.0477 -0.0927,-0.0163 -0.17081,-0.0781 -0.0622,-0.0464 -0.0622,-0.13909 l -0.0622,-1.26274 q 0,-0.26476 0.26476,-0.26476 0.65395,0 1.04437,0.0163 h 0.56122 q 0.52951,0 0.59173,-0.0623 0.0927,-0.0634 0.0927,-0.50024 v -2.0863 h -2.60239 l 0.76376,0.60637 q 0.18667,0.15616 0.0476,0.34283 -0.67103,0.87358 -1.46529,1.65197 -0.77962,0.76377 -1.68368,1.43357 -0.17081,0.12574 -0.31112,-0.0464 l -0.93456,-0.98215 q -0.0781,-0.0768 -0.0781,-0.18667 0.0158,-0.10997 0.12445,-0.20253 1.47993,-1.07487 2.77441,-2.61825 h -1.74597 q -0.23425,0 -0.23425,-0.23302 v -1.02851 q -0.0146,0.0163 -0.12445,0.061 -0.10978,0.0488 -0.31111,0.17203 -0.10979,0.0477 -0.21839,0.0317 -0.094,-0.0317 -0.14031,-0.14039 l -0.60759,-1.30912 q -0.12444,-0.2184 0.10979,-0.32696 0.46729,-0.23427 0.90285,-0.48317 0.43678,-0.24887 0.82598,-0.49898 -0.46729,-0.52953 -0.95043,-1.01267 -0.17081,-0.17076 0.0158,-0.35868 z m 2.81956,2.36813 q -0.51243,0.46851 -1.10537,0.90407 -0.59295,0.42092 -1.26276,0.84184 h 10.89268 q -0.60759,-0.42092 -1.19931,-0.87232 -0.57709,-0.46851 -1.13832,-0.98215 v 0.57707 q 0,0.23305 -0.24889,0.23305 h -5.68792 q -0.24889,0 -0.24889,-0.23305 v -0.46851 z m 5.28286,-0.98092 -0.32698,-0.39042 q -1.01265,-1.10536 -1.72882,-2.29004 -0.93579,1.46406 -2.15097,2.68046 z m 0.98214,-1.54336 q 0.7479,-0.84185 1.32499,-1.76055 h -2.60239 q 0.62223,1.01265 1.2774,1.76055 z m 1.85449,12.49828 0.0158,2.18147 q 0.0158,0.90284 0,1.80691 0,0.88818 -0.0317,1.79347 -0.0305,0.88698 -0.14031,1.72884 -0.10979,0.82596 -0.28061,1.60436 -0.35748,1.55924 -1.15296,2.77442 -0.77839,1.19932 -2.24368,1.87035 l -0.7479,0.34162 q -0.23425,0.0939 -0.32698,-0.13909 l -0.67103,-1.38721 q -0.0464,-0.0939 -0.0305,-0.18667 0.0317,-0.0939 0.14031,-0.14038 l 0.74789,-0.32818 q 1.02851,-0.43558 1.55802,-1.37135 0.54537,-0.95044 0.77962,-2.25957 0.12444,-0.66981 0.17081,-1.37013 0.0476,-0.71739 0.0781,-1.49701 0.0317,-0.77838 0.0476,-1.57388 0.0146,-0.79424 -0.0158,-1.65072 l -0.0158,-2.19733 q 0,-0.23427 0.26476,-0.23427 h 1.62024 q 0.23425,0 0.23425,0.23427 z m -6.62248,6.43582 0.68568,1.37134 q 0.0927,0.21718 -0.10981,0.32696 -0.18667,0.0781 -0.35748,0.15487 -0.15616,0.0634 -0.29647,0.12575 -0.49901,0.21717 -1.04437,0.35746 -0.54537,0.12575 -1.1066,-0.1085 -0.40505,-0.15617 -0.66981,-0.4368 -0.26475,-0.2806 -0.42092,-0.60759 -0.14031,-0.34162 -0.20253,-0.71616 -0.061,-0.39042 -0.0781,-0.76376 -0.0146,-0.26475 -0.0146,-0.51486 v -5.37557 q 0,-0.23427 0.24889,-0.23427 h 1.6056 q 0.24889,0 0.24889,0.23427 v 4.89242 q 0,0.0939 -0.0158,0.23425 0,0.14039 -0.0158,0.28062 v 0.29649 q 0,0.14039 0.0317,0.28063 0.0781,0.59173 0.34162,0.46728 0.21961,-0.0781 0.42214,-0.17076 0.20253,-0.1098 0.42092,-0.21961 0.21717,-0.10867 0.32698,0.12575 z" />
  <path
     inkscape:connector-curvature="0"
     id="path4732"
     style="fill:#ff4a58;fill-opacity:1;stroke:none;stroke-width:3.66017747"
     d="m 28.87069,83.969528 q 0.1086,0.186653 -0.0634,0.296458 l -1.38599,0.81012 q -0.18789,0.09386 -0.32819,-0.07808 -0.52951,-0.82598 -1.09074,-1.604379 -0.54536,-0.795463 -1.15295,-1.559221 -0.14031,-0.170759 0.0317,-0.326992 l 1.30912,-0.918689 q 0.0781,-0.04766 0.17081,-0.03172 0.0939,0.01627 0.14031,0.09386 0.62345,0.810121 1.20053,1.634881 0.59173,0.827217 1.16882,1.6837 z m -1.79227,2.103384 q 0.34162,0.514865 0.49778,1.091938 0.15617,0.561227 0.12567,1.13708 -0.0158,0.561244 -0.23425,1.122471 -0.20253,0.545367 -0.59173,1.027291 -0.46728,0.561228 -1.06023,0.873563 -0.57587,0.326976 -1.23104,0.497785 -0.63931,0.17076 -1.33963,0.219611 -0.68567,0.04636 -1.34084,0.04636 -0.21717,0 -0.21717,-0.219611 v -1.510435 q 0,-0.234251 0.21717,-0.234251 0.79548,0 1.6056,-0.09273 0.81012,-0.109805 1.43357,-0.577088 0.54536,-0.40506 0.68567,-1.028511 0.14031,-0.639312 -0.21839,-1.231025 -0.37334,-0.591729 -0.95043,-0.88822 -0.57708,-0.296474 -1.26276,-0.390403 -0.66981,-0.09272 -1.37134,-0.03042 -0.70032,0.0623 -1.30791,0.202546 v 2.83664 q 0,0.622231 -0.20253,1.168802 -0.20253,0.529522 -0.57709,0.934566 -0.35869,0.420937 -0.87234,0.67105 -0.499,0.248876 -1.09073,0.295254 -0.56123,0.03042 -1.04437,-0.124446 -0.48314,-0.156168 -0.87234,-0.467283 -0.37456,-0.296491 -0.62346,-0.747913 -0.23425,-0.436782 -0.28061,-0.935787 -0.0158,-0.09272 -0.0158,-0.186669 v -0.186653 q 0,-0.747913 0.28062,-1.41893 0.29647,-0.685674 0.77961,-1.261558 0.49779,-0.59173 1.15296,-1.044356 0.66981,-0.467299 1.40307,-0.810136 v -2.82078 h -3.31978 q -0.21839,0 -0.21839,-0.21839 V 80.35458 q 0,-0.248909 0.21839,-0.248909 h 3.31856 v -2.197312 q 0,-0.218391 0.23425,-0.218391 h 1.51165 q 0.21839,0 0.21839,0.218391 v 2.196092 h 3.45887 q 0.10982,0 0.15617,0.07922 0.061,0.061 0.061,0.170759 v 1.41771 q 0,0.219611 -0.21717,0.219611 h -3.45887 v 2.21197 q 0.90284,-0.186653 1.85449,-0.186653 0.95042,-0.01627 1.82277,0.202513 0.87234,0.20253 1.62023,0.653969 0.7479,0.451406 1.26277,1.200523 z m -8.52455,2.852485 v -1.994799 q -0.68568,0.436782 -1.18346,1.059012 -0.48315,0.623451 -0.48315,1.356707 0,0.140389 0.0146,0.18667 0.0317,0.280614 0.2196,0.451422 0.20131,0.17076 0.49779,0.140388 0.46728,-0.04636 0.70153,-0.405076 0.23304,-0.358682 0.23304,-0.794243 z m -1.15296,5.828228 v -1.138333 q 0,-0.248892 0.23425,-0.248892 h 1.58974 q 0.24889,0 0.24889,0.248892 v 1.138333 h 4.23849 v -1.138333 q 0,-0.248892 0.24889,-0.248892 h 1.58973 q 0.23426,0 0.23426,0.248892 v 1.138333 h 2.74269 q 0.24889,0 0.24889,0.248892 V 96.2799 q 0,0.23427 -0.24889,0.23427 h -2.74269 v 1.02851 q 0,0.24889 -0.23426,0.24889 h -1.58973 q -0.24889,0 -0.24889,-0.24889 v -1.02851 h -4.23849 v 1.02851 q 0,0.24889 -0.24889,0.24889 h -0.68567 l 1.47993,0.62344 q 0.0939,0.0317 0.12444,0.12445 0.0464,0.0939 0.0158,0.18787 -0.28061,0.6076 -0.57709,1.18346 -0.29525,0.56122 -0.66981,1.07487 v 6.73229 q 0,0.23425 -0.23425,0.23425 h -1.6666 q -0.23425,0 -0.23425,-0.23425 v -4.58132 q -0.0158,0.0317 -0.12445,0.10996 -0.0622,0.0304 -0.0939,0.061 l -0.0464,0.0477 q -0.37333,0.34162 -0.73203,0.62224 -0.3587,0.28059 -0.70153,0.5002 -0.23304,0.12445 -0.3587,-0.1098 l -0.66981,-1.33963 q -0.0464,-0.0781 -0.0305,-0.17076 0.0305,-0.0939 0.10859,-0.14152 0.79426,-0.52949 1.41771,-1.07486 0.62345,-0.54537 1.10659,-1.10661 0.98215,-1.1688 1.66782,-2.74267 h -0.68567 q -0.23425,0 -0.23425,-0.2489 V 96.51447 H 14.6594 q -0.2489,0 -0.2489,-0.23426 v -1.277382 q 0,-0.248893 0.2489,-0.248893 h 2.74269 z m 11.2038,8.695355 q 0.094,0.0163 0.15617,0.0927 0.0622,0.0623 0.0464,0.15617 0,0.28061 -0.0146,0.57586 -0.0158,0.28062 -0.0476,0.56123 -0.0781,0.95165 -0.0927,1.04437 -0.0317,0.29648 -0.0781,0.49901 -0.0317,0.18667 -0.0622,0.26475 -0.094,0.34162 -0.18789,0.54537 -0.12445,0.21839 -0.26475,0.3587 -0.0769,0.0927 -0.37334,0.21717 -0.10981,0.0317 -0.23425,0.0623 -0.10983,0.0316 -0.2489,0.0477 -0.23425,0.0304 -0.59173,0.0464 -0.73203,0.0464 -1.58973,0.0464 h -0.93583 q -0.38919,0 -0.63809,-0.0163 -0.71739,-0.0163 -1.09073,-0.0939 -0.37456,-0.0623 -0.60759,-0.26476 -0.23425,-0.21839 -0.29647,-0.51486 -0.0622,-0.24889 -0.0622,-0.90285 v -8.02555 q 0,-0.23424 0.23303,-0.23424 h 1.65196 q 0.23425,0 0.23425,0.23424 v 2.82079 q 2.1656,-0.84186 4.31657,-2.16684 0.23303,-0.14039 0.3587,0.0939 l 0.66981,1.23104 q 0.10982,0.21839 -0.0781,0.32698 -1.29327,0.79548 -2.60239,1.43357 -1.30912,0.63931 -2.66461,1.12245 v 2.57067 q 0,0.35868 0.094,0.45142 0.10858,0.10997 0.45142,0.10997 0.29647,0.0163 0.5295,0.0163 h 0.76376 q 0.23425,-0.0163 0.54537,-0.0319 0.65395,-0.0304 0.77962,-0.3904 0.061,-0.18547 0.10858,-0.71619 0.0464,-0.54537 0.10982,-1.46406 0.0305,-0.25013 0.26476,-0.25013 l 1.44821,0.14039 z m -14.1173,19.04145 q -0.0317,-0.1098 0.0158,-0.18666 0.0464,-0.0939 0.18667,-0.14039 1.05901,-0.20252 1.80691,-0.499 0.76375,-0.3111 1.23225,-0.68568 0.7784,-0.6698 0.98093,-1.558 h -2.61821 q -0.24889,0 -0.24889,-0.23427 v -9.05282 q 0,-0.23425 0.24889,-0.23425 h 11.00128 q 0.25011,0 0.25011,0.23425 v 9.05282 q 0,0.23427 -0.25011,0.23427 h -2.83538 v 2.13509 q 0,0.3587 0.0781,0.43558 0.061,0.0634 0.48314,0.0781 h 0.70031 q 0.12567,0 0.21961,-0.0163 0.0769,-0.0163 0.15495,-0.0163 h 0.17081 q 0.0476,0 0.21961,-0.0939 0.0769,-0.0464 0.15495,-0.18666 0.0464,-0.0939 0.0939,-0.39042 0.0146,-0.10866 0.0305,-0.24889 0.0317,-0.14039 0.0476,-0.32697 0.0146,-0.12445 0.0146,-0.28062 0,-0.15617 0.0158,-0.34162 0.0317,-0.26597 0.28061,-0.23425 l 1.52752,0.17076 q 0.21717,0 0.21717,0.23425 0,0.14039 -0.0146,0.21717 -0.0158,0.10981 -0.0158,0.2196 0,0.0927 -0.0158,0.20133 -0.0158,0.1098 -0.0158,0.18787 v 0.10867 q -0.0146,0.12444 -0.0464,0.34161 -0.0305,0.21961 -0.0781,0.53073 -0.0305,0.20253 -0.061,0.37456 -0.0317,0.15486 -0.0634,0.28059 -0.0464,0.20255 -0.24889,0.41972 -0.10982,0.10981 -0.18789,0.17203 -0.0769,0.0781 -0.14031,0.10981 -0.13909,0.0927 -0.49778,0.17076 -0.28062,0.0623 -0.63931,0.0623 -0.0464,0 -0.26476,0.0163 -0.20253,0.0163 -0.57708,0.0163 h -1.46408 q -0.35869,0 -0.62345,-0.0319 -0.24889,-0.0163 -0.37455,-0.0317 -0.57587,-0.0768 -0.63809,-0.0927 -0.28062,-0.0781 -0.37456,-0.23424 -0.0927,-0.14039 -0.15617,-0.34163 -0.0464,-0.20376 -0.0464,-0.53073 v -3.10139 h -1.26154 q -0.56123,3.53819 -5.67328,4.55082 -0.20253,0.0464 -0.26475,-0.14039 z m 10.72066,-9.81659 v -1.02851 H 17.978 v 1.02851 z M 17.978,115.2128 h 7.23007 v -1.05901 H 17.978 v 1.06023 z m 0,2.52551 h 7.23007 v -1.06022 H 17.978 Z" />
  <path
     inkscape:connector-curvature="0"
     id="path4"
     style="fill:#ffffff;fill-opacity:1;stroke:none;stroke-width:3.53447962"
     d="m 61.452807,18.35124 q 0,-0.430013 0.43122,-0.430013 h 7.21976 q 0.20145,-0.316925 0.40292,-0.662126 0.20029,-0.373493 0.43121,-0.862414 h -6.06871 q -0.43119,0 -0.43119,-0.432401 V 14.21002 q 0,-0.459483 0.43119,-0.459483 h 7.13259 q 0.0589,-0.23092 0.17318,-0.604397 0.11547,-0.374639 0.25921,-0.863592 h -8.5723 q -0.4312,0 -0.4312,-0.431207 V 9.723598 q 0,-0.432401 0.4312,-0.432401 h 9.23325 q 0.0577,-0.488921 0.086,-0.834138 l 0.11546,-0.6904022 q 0.0577,-0.373477 0.43121,-0.373477 l 3.04908,0.08608 q 0.45949,0 0.45949,0.287456 0,0.05891 -0.0283,0.143735 V 8.083657 q -0.0283,0.143735 -0.0566,0.315747 -0.0294,0.143736 -0.059,0.31691 -0.0283,0.316941 -0.0848,0.574958 h 11.13125 q 0.4312,0 0.4312,0.431207 V 11.8514 q 0,0.431207 -0.4312,0.431207 h -11.82166 q -0.20147,0.690402 -0.31692,1.065058 -0.086,0.345217 -0.11547,0.401752 h 11.24672 q 0.43239,0 0.43239,0.460677 v 1.755445 q 0,0.431207 -0.43239,0.431207 h -6.04043 q 0.23093,0.488936 0.43239,0.862414 0.22974,0.3452 0.40175,0.660948 h 7.1915 q 0.4312,0 0.4312,0.432384 v 2.041754 q 0,0.431207 -0.4312,0.431207 h -4.97656 q 2.15721,2.272657 5.32176,3.970402 0.28747,0.200272 0.20028,0.545489 l -0.94842,2.703864 q -0.086,0.230919 -0.28747,0.316942 -0.20029,0.05781 -0.40294,-0.08608 -0.77639,-0.488937 -1.4668,-0.977858 -0.69041,-0.49013 -1.26535,-1.007344 v 7.82299 q 0,0.432385 -0.45948,0.432385 h -3.0208 q -0.45948,0 -0.45948,-0.431206 v -0.632674 h -10.70122 v 0.632674 q 0,0.431206 -0.45949,0.431206 h -3.02081 q -0.45947,0 -0.45947,-0.431206 v -7.824169 q -0.57612,0.518392 -1.26654,1.006166 -0.66094,0.490099 -1.43734,0.977859 -0.23092,0.144991 -0.43239,0.08718 -0.20028,-0.08608 -0.28746,-0.316941 l -0.9496,-2.703864 q -0.086,-0.373491 0.20146,-0.546666 1.58227,-0.862429 2.90533,-1.840289 1.32309,-1.007343 2.41525,-2.128936 h -4.97534 q -0.43121,0 -0.43121,-0.431206 v -2.041748 z m 18.89769,10.815518 h -10.70004 v 1.726006 h 10.70004 z m -9.06005,-8.341364 q -0.2592,0.374655 -0.57612,0.805862 -0.31575,0.402932 -0.66095,0.805847 h 9.95191 l -0.71867,-0.921323 q -0.28747,-0.402931 -0.48894,-0.690386 h -7.50841 z m 5.78123,-2.904167 -0.71868,-1.52454 h -2.50359 l -0.4312,0.890674 q -0.0577,0.11546 -0.14374,0.259196 -0.0577,0.143735 -0.20029,0.37467 z m 3.27882,8.944582 v -1.726006 h -10.70004 v 1.726006 z" />
  <path
     inkscape:connector-curvature="0"
     id="path4702"
     style="fill:#397ec3;fill-opacity:1;stroke:none;stroke-width:3.66017747"
     d="m 282.729,63.509802 q 0,0.591745 -0.31234,1.073653 -0.31111,0.484364 -0.82598,0.717411 -0.1098,0.31232 -0.37334,0.935787 -0.25011,0.60759 -0.62345,1.41771 -0.37455,0.810104 -0.8882,1.792252 -0.499,0.966288 -1.12246,1.994799 -0.62221,1.028511 -1.37134,2.071662 -0.7479,1.044355 -1.58974,2.010659 l -0.54537,0.607591 q -0.061,0.07808 -0.15503,0.07808 -0.0939,0.01627 -0.17074,-0.0623 l -1.26278,-1.012634 q -0.0939,-0.07808 -0.0939,-0.170759 0,-0.09386 0.0623,-0.172029 l 0.54535,-0.592949 q 0.95166,-1.059013 1.7447,-2.22783 0.81134,-1.168818 1.45066,-2.305914 0.63809,-1.138317 1.12245,-2.150967 0.48191,-1.028511 0.79304,-1.760547 H 268.8131 q -0.24891,0 -0.24891,-0.248892 v -1.559237 q 0,-0.248892 0.24891,-0.248892 h 9.91052 q -0.0163,-0.06231 -0.0163,-0.18667 0,-0.420921 0.15616,-0.779602 0.15617,-0.373355 0.42092,-0.639312 0.28062,-0.28063 0.6393,-0.435561 0.37334,-0.156168 0.79428,-0.156168 0.40504,0 0.76375,0.156168 0.37333,0.156168 0.63809,0.435561 0.2806,0.265957 0.43679,0.639312 0.17074,0.358681 0.17074,0.779602 z m -1.26276,0 q 0,-0.328197 -0.21839,-0.53071 -0.21839,-0.20253 -0.52951,-0.20253 -0.31112,0 -0.52951,0.20253 -0.20253,0.202513 -0.20253,0.53071 0,0.295254 0.20253,0.529506 0.21839,0.218391 0.52951,0.218391 0.31112,0 0.52951,-0.219611 0.21839,-0.231796 0.21839,-0.528286 z m -7.68272,15.769263 q 0,-0.233015 0.25011,-0.233015 h 1.74469 q 0.25012,0 0.25012,0.233015 v 11.500272 q 0,0.234268 -0.25012,0.234268 h -1.74469 q -0.25011,0 -0.25011,-0.234268 z m 8.80516,23.530065 q -1.20053,1.29327 -2.50965,2.39986 -1.29327,1.1066 -2.81956,2.0253 -0.4685,0.29648 -0.96629,0.54659 -0.48313,0.26475 -0.96629,0.49778 -0.21839,0.0781 -0.37454,-0.0464 l -0.90286,-0.76377 q -0.17201,-0.12445 -0.17201,-0.35868 V 94.581047 q 0,-0.248892 0.24887,-0.248892 h 1.60562 q 0.24889,0 0.24889,0.248892 v 11.033003 q 0.45141,-0.26475 0.998,-0.63809 0.56122,-0.37456 1.13709,-0.82598 0.59173,-0.45144 1.19932,-0.98215 0.60881,-0.54536 1.1688,-1.13709 l 0.53074,-0.56122 q 0.15487,-0.20254 0.35748,-0.0317 l 1.20054,1.01264 q 0.0781,0.0634 0.0781,0.17076 0.0163,0.1098 -0.0623,0.18789 z m -10.58157,-7.666841 q -0.0163,3.318551 -0.57587,6.513891 -0.56123,3.17947 -1.90085,6.23328 -0.0939,0.23426 -0.35868,0.14039 l -1.41893,-0.59173 q -0.0927,-0.0316 -0.13909,-0.12574 -0.0477,-0.0927 0,-0.20253 1.24568,-2.86715 1.76055,-5.84409 0.5295,-2.99159 0.56122,-6.139332 0,-0.233047 0.24888,-0.233047 h 1.55803 q 0.26474,0 0.26474,0.248892 z m 4.42638,15.864431 q 0.24889,0 0.24889,0.23303 v 0.63931 q 0.34284,-0.50022 0.62223,-1.04437 0.2977,-0.54537 0.56123,-1.12246 0.0939,-0.15486 0.26597,-0.12444 l 1.44943,0.29647 q 0.12445,0.0304 0.17075,0.14039 0.0623,0.0927 0.0163,0.21839 l -0.21839,0.52949 h 2.29125 q 0.24891,0 0.24891,0.23305 v 1.27862 q 0,0.23303 -0.24891,0.23303 h -3.24168 q -0.14039,0.21961 -0.29647,0.43677 -0.14039,0.20255 -0.31114,0.43678 h 3.76999 q 0.25011,0 0.25011,0.23305 v 1.35547 q 0,0.0477 -0.0304,0.10981 -0.2806,0.43556 -0.57707,0.81012 -0.28063,0.37333 -0.54538,0.68567 v 0.20251 h 1.10661 q 0.23301,0 0.23301,0.23305 v 1.24689 q 0,0.23425 -0.23301,0.23425 h -1.10662 v 1.57388 q -0.0163,0.15616 -0.0163,0.26475 v 0.12444 q 0,0.37458 -0.061,0.60759 -0.0634,0.31236 -0.1573,0.42093 -0.0927,0.0939 -0.31113,0.18668 -0.0939,0.0317 -0.21838,0.0623 -0.1098,0.0317 -0.24889,0.0477 -0.0781,0.0163 -0.25011,0.0163 h -0.43557 q -0.23425,0 -0.67103,-0.0163 -0.4197,-0.0163 -1.02729,-0.0477 -0.0939,0 -0.17076,-0.061 -0.0792,-0.0634 -0.0792,-0.15617 l -0.061,-1.20053 q -0.0172,-0.12445 0.077,-0.18667 0.0939,-0.0781 0.21839,-0.0781 0.32696,0.0317 0.56123,0.0464 0.23301,0.0163 0.37332,0.0163 0.31235,0 0.3587,-0.0939 0.0464,-0.10867 0.0464,-0.62225 v -0.90406 h -1.62026 q -0.23423,0 -0.23423,-0.23424 v -1.2469 q 0,-0.23305 0.23423,-0.23305 h 1.62026 v -0.76374 q 0,-0.24889 0.23423,-0.24889 h 0.39042 q 0.21717,-0.23425 0.37334,-0.42092 0.17076,-0.18667 0.28063,-0.31234 h -2.52552 q -0.23305,0 -0.23305,-0.23303 v -0.77962 l -1.30922,-0.68554 q -0.14039,-0.0781 -0.17075,-0.18666 -0.0163,-0.1098 0.061,-0.20254 0.0792,-0.0623 0.10997,-0.10981 0.0464,-0.061 0.0781,-0.10866 h -2.27541 v 1.12245 h 2.47671 q 0.23548,0 0.23548,0.26475 v 1.86914 q 0,0.76376 -0.0163,1.15417 -0.0317,1.27741 -0.0939,2.2437 -0.0304,0.35868 -0.0781,0.71617 -0.0304,0.35868 -0.0781,0.68568 -0.061,0.4514 -0.24891,0.73203 -0.20253,0.26597 -0.39041,0.31232 -0.18667,0.0464 -0.56122,0.0464 -0.26353,0 -0.68445,-0.0304 -0.42094,-0.0317 -0.98215,-0.0939 -0.21839,-0.0304 -0.21839,-0.21839 l -0.061,-1.13708 q -0.15617,0.51486 -0.42212,1.07486 -0.061,0.12574 -0.18669,0.14038 -0.1098,0.0163 -0.21839,-0.061 l -1.24568,-1.01389 v 0.39042 q 0.35748,0.62225 0.93458,0.93457 0.54537,0.32698 1.79227,0.46728 1.2469,0.14039 3.70897,0.14039 h 4.58132 q 0.23303,0 0.23303,0.26475 l -0.061,1.24691 q 0,0.0927 -0.0792,0.15486 -0.061,0.0634 -0.15616,0.0634 h -4.47152 q -2.22905,0 -3.63089,-0.14039 -1.44943,-0.15617 -2.32179,-0.54537 -0.73203,-0.31234 -1.18344,-0.73204 -0.43678,0.40384 -0.93579,0.7784 -0.48314,0.39041 -1.01266,0.7479 -0.0939,0.0623 -0.20252,0.0304 -0.0939,-0.0163 -0.14039,-0.12445 l -0.71737,-1.2469 q -0.12445,-0.18668 0.0781,-0.31113 0.37454,-0.26475 0.77961,-0.56123 0.40505,-0.29525 0.81012,-0.62221 v -3.86515 h -1.30912 q -0.23425,0 -0.23425,-0.23425 v -1.27742 q 0,-0.24888 0.23425,-0.24888 h 3.06967 q 0.23424,0 0.23424,0.24888 v 3.98959 q 0.45143,-1.06021 0.62224,-2.33762 0.10997,-0.81012 0.15617,-2.05702 0.0477,-1.26276 0.0477,-2.96108 h -0.63931 l 0.28063,0.29647 q 0.15487,0.15617 -0.0163,0.34162 l -1.01265,0.91992 q -0.15617,0.15617 -0.32699,-0.0304 -0.65516,-0.70155 -1.26275,-1.32498 -0.59173,-0.6381 -1.15295,-1.2152 -0.18667,-0.18667 0,-0.3587 l 1.04437,-0.93456 q 0.18667,-0.12445 0.32697,0.0163 0.51365,0.51363 0.96629,0.99677 0.45142,0.48314 0.84184,0.91993 v -1.12248 q 0,-0.23425 0.23303,-0.23425 h 1.47994 v -1.02854 q 0,-0.24889 0.23425,-0.24889 h 1.62022 q 0.25011,0 0.25011,0.24889 v 1.02851 h 1.71419 z m -3.22584,9.05285 q 0.34162,0.0317 0.56123,0.0623 0.21717,0.0163 0.29525,0.0163 0.17076,0 0.23425,-0.10981 0.061,-0.12444 0.14039,-0.57587 0.0304,-0.17074 0.0464,-0.51486 0.0163,-0.34162 0.0316,-0.84184 0.0163,-0.31112 0.0163,-0.91871 v -1.57344 h -0.76254 q -0.0319,0.88821 -0.0781,1.62146 -0.0477,0.73204 -0.12574,1.30789 -0.0927,0.67105 -0.35748,1.52753 z m 8.50748,5.29748 0.99799,2.26077 q 0.0464,0.15487 -0.1098,0.21717 l -1.01267,0.39042 q -0.17074,0.0781 -0.24889,-0.10996 l -0.98213,-2.24368 q -0.0464,-0.12445 0.0781,-0.21839 l 0.0317,-0.0304 0.99679,-0.39042 q 0.17076,-0.0781 0.24889,0.12575 z m -1.76055,0.67103 0.98215,2.25954 q 0.061,0.14039 -0.1098,0.21841 l -1.0285,0.3892 q -0.0768,0.0304 -0.14039,0.0304 -0.0464,-0.0163 -0.0927,-0.14039 -0.0623,-0.15487 -0.12444,-0.32698 -0.0623,-0.17076 -0.14039,-0.34161 l -0.31234,-0.73326 q -0.17076,-0.40504 -0.3892,-0.87233 -0.0939,-0.14039 0.0939,-0.21961 l 1.01264,-0.38798 q 0.15616,-0.0634 0.24889,0.12445 z m 2.85128,5.03275 -0.68567,1.44943 q -0.10867,0.2489 -0.35748,0.14039 -0.77962,-0.32697 -1.35549,-0.68567 -0.57708,-0.35868 -1.16881,-0.91991 0.15486,0.81134 0.20253,1.65195 0.0464,0.82598 -0.0317,1.55923 -0.42091,3.67726 -2.68048,5.11085 -0.70151,0.43555 -1.52629,0.62222 -0.82598,0.20375 -1.66781,0.15616 -0.82599,-0.0304 -1.62024,-0.3111 -0.79548,-0.28063 -1.41893,-0.79427 -1.71418,-1.41893 -1.71418,-4.14577 0,-1.54215 0.54536,-2.9135 0.54537,-1.37133 1.35671,-2.64873 -0.39042,0 -0.8577,0.0163 -0.45142,0.0163 -0.90285,0.0477 -0.45264,0.0163 -0.84184,0.0464 -0.37456,0.0163 -0.57709,0.0304 -0.12444,0.0163 -0.20253,-0.0464 -0.0623,-0.0781 -0.0623,-0.20253 v -1.54216 q 0,-0.25011 0.2489,-0.25011 h 4.66061 q 0.21717,0 0.32577,0.20253 l 0.57708,1.16882 q 0.14038,0.20253 -0.0317,0.37455 -0.85649,1.05903 -1.38599,2.25957 -0.52951,1.18344 -0.70154,2.44621 -0.0623,0.45142 -0.0781,0.96628 0,0.51365 0.0781,1.01265 0.0939,0.48315 0.31112,0.93457 0.23425,0.45142 0.62345,0.76376 0.37454,0.28061 0.82598,0.45142 0.46728,0.15617 0.96627,0.18787 0.49902,0.0163 0.98215,-0.0939 0.49902,-0.1098 0.91872,-0.3892 1.43356,-0.8882 1.76177,-3.66262 0.14039,-1.1993 0.0304,-2.384 -0.10981,-1.19932 -0.48315,-2.49258 -0.0464,-0.12445 0,-0.20253 0.0477,-0.0939 0.14039,-0.14039 l 1.34085,-0.62343 q 0.23301,-0.0939 0.37332,0.0623 0.4368,0.46728 0.8882,0.82597 0.46729,0.34161 0.93579,0.62224 0.46728,0.2806 0.98093,0.51487 0.5295,0.23423 1.13831,0.49899 0.23304,0.1098 0.13909,0.32697 z" />
  <path
     inkscape:connector-curvature="0"
     id="path4688"
     style="fill:#397ec3;fill-opacity:1;stroke:none;stroke-width:3.66017747"
     d="m 222.44614,61.811252 q 0.2489,0.03042 0.2489,0.233015 v 4.099419 l 8.2903,-1.964297 q 0.21839,-0.04636 0.29647,0.186653 l 0.32698,1.387209 q 0.0781,0.218407 -0.17074,0.280613 l -8.74296,2.057022 v 4.627689 q 0,0.717379 0.12445,0.888188 0.14039,0.140388 0.76376,0.202546 0.45142,0 0.84184,0.01627 0.3904,0.01627 0.73202,0.01627 0.39043,0 0.84186,-0.01627 0.45142,-0.03188 0.96628,-0.0623 0.84185,-0.0623 1.059,-0.264737 0.34284,-0.296491 0.45144,-1.792285 0.0319,-0.311099 0.0634,-0.794243 0.0304,-0.500225 0.061,-1.216416 0.0488,-0.280598 0.28061,-0.233015 l 1.59096,0.170759 q 0.0927,0 0.15486,0.07808 0.0781,0.0623 0.0623,0.156168 -0.0163,0.48316 -0.0304,0.872359 -0.0163,0.390419 -0.0623,0.717379 -0.0477,0.762538 -0.14038,1.386005 -0.0623,0.405044 -0.10981,0.671017 -0.0304,0.248892 -0.061,0.357494 -0.0939,0.436765 -0.28063,0.73202 -0.18788,0.296491 -0.37454,0.484364 -0.2184,0.17076 -0.51487,0.280614 -0.14039,0.061 -0.31113,0.09272 -0.15617,0.04636 -0.34284,0.07808 -0.15617,0.03172 -0.37454,0.0623 -0.20253,0.03172 -0.46728,0.03172 -0.66983,0.01627 -1.26156,0.01627 h -1.09062 q -0.46729,0 -0.99801,-0.03042 -0.51365,-0.01627 -1.07488,-0.04636 -0.0781,-0.01627 -0.20253,-0.01627 -0.1098,0 -0.24889,-0.01627 -0.28061,-0.01627 -0.40506,-0.04653 l -0.25011,-0.04766 q -0.17076,-0.01627 -0.39042,-0.07808 -0.27939,-0.061 -0.48192,-0.139087 -0.15617,-0.07808 -0.31234,-0.234235 -0.20253,-0.186686 -0.21717,-0.326977 -0.0623,-0.187889 -0.10997,-0.467299 -0.0304,-0.234235 -0.0464,-0.390419 -0.0163,-0.154867 -0.0163,-0.248893 v -5.064445 l -2.86714,0.685674 q -0.21839,0.04636 -0.29646,-0.186669 l -0.32699,-1.387209 q -0.0781,-0.234251 0.17076,-0.296474 l 3.31977,-0.778382 v -4.597204 q 0,-0.109968 0.0623,-0.17076 0.0623,-0.07922 0.18789,-0.06344 z m 0.45143,20.817873 q 0.14039,-0.186686 0.31234,-0.04636 1.02851,0.73202 1.96308,1.449415 0.95164,0.716175 1.80813,1.387209 0.0304,-0.04766 0.061,-0.109806 0.0319,-0.0623 0.0939,-0.140388 0.57707,-0.856482 1.02851,-1.932576 0.45141,-1.073653 0.77962,-2.43036 h -5.98441 q -0.12445,0.17076 -0.3111,0.40506 -0.17076,0.234252 -0.40506,0.529506 -1.57388,1.932576 -3.56869,3.474732 -0.20252,0.140226 -0.34284,-0.03042 l -0.95163,-1.152957 q -0.17076,-0.186669 0.0319,-0.342837 0.84186,-0.671033 1.57388,-1.403069 0.74912,-0.747897 1.41893,-1.573878 1.37135,-1.634881 2.21197,-3.350286 0.0939,-0.154866 0.26597,-0.109805 l 1.54214,0.374558 q 0.12445,0.03172 0.18669,0.125748 0.0623,0.09272 -0.0163,0.217171 -0.12445,0.28063 -0.24888,0.545367 -0.10997,0.250128 -0.24891,0.500224 h 6.76278 q 0.23305,0 0.23305,0.231812 v 1.527532 q 0,0.03172 -0.0304,0.03172 h 0.0163 q -0.87355,4.705773 -3.84928,7.354524 -2.94522,2.618249 -8.27443,3.56866 -0.21839,0.03172 -0.26475,-0.170744 l -0.39042,-1.355504 q -0.0768,-0.265973 0.18788,-0.312319 1.65197,-0.341617 2.95986,-0.794275 1.30914,-0.451407 2.32178,-0.982133 1.07609,-0.561244 1.85449,-1.246918 -0.87234,-0.700298 -1.77641,-1.371331 -0.8882,-0.669813 -1.82277,-1.371348 -0.0939,-0.07695 -0.12445,-0.17076 -0.0163,-0.109805 0.061,-0.20253 z m 8.16585,13.183955 v 1.41771 q 0,0.23302 -0.21839,0.23302 h -4.81556 v 0.81134 q 0.0163,0.3892 0.0163,0.79305 0,0.14153 -0.0163,0.18788 h 4.0213 q 0.21841,0 0.21841,0.21839 v 1.43358 q 0,0.2184 -0.21961,0.2184 h -4.05062 q -0.0464,0.60757 -0.0781,1.13708 -0.0304,0.51486 -0.0623,0.95164 1.19932,0.43558 2.25954,1.05901 1.05901,0.62224 2.0729,1.33963 0.1085,0.0477 0.1085,0.14039 0,0.0939 -0.0464,0.17074 l -0.98216,1.18468 q -0.14039,0.17074 -0.29648,0.0634 -0.8101,-0.59295 -1.62022,-1.10659 -0.81012,-0.53073 -1.73005,-0.90407 -0.0781,0.23303 -0.14039,0.39042 -0.29525,0.71618 -0.87234,1.21396 -0.57587,0.50023 -1.30912,0.76376 -0.71616,0.28061 -1.47994,0.31233 -0.76376,0.0304 -1.43357,-0.17076 -0.8577,-0.26597 -1.35547,-0.88942 -0.49902,-0.60759 -0.49902,-1.38721 0,-0.66979 0.32699,-1.23102 0.34284,-0.57589 0.93579,-0.95045 0.76252,-0.46728 1.83861,-0.57586 1.09074,-0.10981 2.384,0.12444 0.0464,-0.71741 0.0464,-1.6361 h -5.09497 q -0.21961,0 -0.21961,-0.21839 v -1.43359 q 0,-0.21839 0.21961,-0.21839 h 5.09497 v -1.79222 h -5.82823 q -0.21839,0 -0.21839,-0.23302 l -0.0304,-1.417711 q 0,-0.234268 0.23427,-0.234268 h 5.84409 v -2.087507 q 0,-0.234251 0.20131,-0.234251 h 1.5275 q 0.23305,0 0.23305,0.234251 v 2.087507 h 4.81556 q 0.21839,0 0.21839,0.234268 z m -7.24594,8.78808 q -0.56121,-0.0939 -1.1383,-0.12445 -0.57588,-0.0317 -1.13709,0.0623 -0.28062,0.0464 -0.52951,0.17076 -0.25011,0.12575 -0.39042,0.34284 -0.13908,0.26596 -0.0304,0.48314 0.10981,0.20253 0.39042,0.29646 0.40384,0.12445 0.84062,0.10981 0.45143,-0.0319 0.84184,-0.18787 0.40506,-0.15487 0.70032,-0.43558 0.31233,-0.29648 0.45142,-0.7174 z m 6.62251,9.209 q 0.4209,0.76376 0.52949,1.60562 0.10997,0.82598 -0.0304,1.65194 -0.14039,0.82598 -0.51487,1.6044 -0.37334,0.76374 -0.93456,1.38719 -0.68568,0.76377 -1.54338,1.2774 -0.85648,0.50023 -1.82275,0.82598 -0.95043,0.31234 -1.94722,0.50023 -0.99801,0.18545 -1.9643,0.29525 -0.23303,0.0304 -0.26475,-0.20253 l -0.20253,-1.6056 q -0.0304,-0.23303 0.20253,-0.26475 0.68567,-0.0781 1.37135,-0.18667 0.70153,-0.1098 1.35548,-0.28061 0.67104,-0.18667 1.27863,-0.46729 0.62223,-0.29647 1.15295,-0.74789 0.46729,-0.37456 0.84183,-0.88821 0.37334,-0.51486 0.57588,-1.07609 0.2184,-0.56123 0.2184,-1.15296 0,-0.59171 -0.31234,-1.15295 -0.28063,-0.52951 -0.74791,-0.84183 -0.46729,-0.31111 -1.02851,-0.46728 -0.54536,-0.15617 -1.15296,-0.18667 -0.59171,-0.0464 -1.15294,-0.0464 -0.79426,0 -1.57388,0.0781 -0.76376,0.061 -1.55802,0.18668 -0.77962,0.12445 -1.55801,0.26476 -0.76376,0.14039 -1.54338,0.28059 -0.18667,0.0304 -0.29648,-0.15616 v -0.0304 l -0.31111,-1.63611 q -0.0464,-0.21961 0.20253,-0.26597 l 1.6361,-0.31113 q 1.55802,-0.2806 3.11725,-0.46727 1.55802,-0.18667 3.14776,-0.0623 0.71618,0.061 1.41771,0.21717 0.71618,0.15617 1.33961,0.45143 0.63931,0.29769 1.16883,0.76496 0.54536,0.45144 0.90407,1.10659 z m -1.04439,12.01515 0.0163,2.18147 q 0.0163,0.90285 0,1.80813 0,0.88821 -0.0317,1.79105 -0.0304,0.8882 -0.13909,1.73003 -0.10981,0.826 -0.28063,1.60562 -0.35868,1.558 -1.15418,2.77318 -0.7784,1.20054 -2.24367,1.87035 l -0.74792,0.34162 q -0.23303,0.0939 -0.32696,-0.13909 l -0.67105,-1.38721 q -0.0464,-0.0939 -0.0304,-0.18667 0.0317,-0.0939 0.14039,-0.14039 l 0.74788,-0.32697 q 1.02851,-0.43679 1.55924,-1.37135 0.54537,-0.95165 0.77842,-2.25955 0.12444,-0.67104 0.17075,-1.37135 0.0477,-0.71738 0.0792,-1.49578 0.0304,-0.77963 0.0464,-1.57388 0.0163,-0.79549 -0.0163,-1.65197 l -0.0163,-2.19733 q 0,-0.23424 0.26475,-0.23424 h 1.62146 q 0.23303,0 0.23303,0.23424 z m -6.62247,6.43581 0.68567,1.37134 q 0.0939,0.2184 -0.10997,0.327 -0.18666,0.0781 -0.35746,0.15616 -0.15616,0.061 -0.29649,0.12445 -0.49778,0.21839 -1.04435,0.35871 -0.54537,0.12445 -1.10538,-0.1098 -0.40506,-0.15617 -0.67105,-0.43556 -0.26475,-0.28062 -0.41968,-0.6088 -0.14039,-0.34161 -0.20253,-0.71619 -0.0634,-0.39042 -0.0781,-0.76376 -0.0163,-0.26475 -0.0163,-0.51364 v -5.37554 q 0,-0.23425 0.24887,-0.23425 h 1.60562 q 0.24889,0 0.24889,0.23303 v 4.89244 q 0,0.0939 -0.0163,0.23426 0,0.14038 -0.0163,0.28061 v 0.29647 q 0,0.14039 0.0304,0.2806 0.0781,0.59173 0.34282,0.46728 0.21839,-0.0781 0.42092,-0.17075 0.20253,-0.10981 0.42092,-0.21962 0.21839,-0.1085 0.32697,0.12575 z" />
  <path
     inkscape:connector-curvature="0"
     id="path4672"
     style="fill:#397ec3;fill-opacity:1;stroke:none;stroke-width:3.66017747"
     d="m 166.65397,82.640736 q -0.0781,-0.09386 -0.0464,-0.186686 0.0304,-0.09386 0.10867,-0.156168 2.69633,-1.854508 4.62769,-4.238489 0.14039,-0.186669 0.34283,-0.04636 l 1.18467,0.91869 q 0.0781,0.0623 0.0939,0.156167 0.0304,0.09386 -0.0317,0.17076 -0.98217,1.340846 -2.24491,2.493803 -1.26156,1.152957 -2.85007,2.150967 -0.17202,0.124446 -0.31233,-0.06344 z m 8.976,-4.627689 q 0.14023,-0.187906 0.3111,-0.04766 2.96109,2.213173 5.04861,4.348279 0.15617,0.156167 0,0.326976 l -1.07489,1.106595 q -0.0781,0.07808 -0.17074,0.07808 -0.0939,0 -0.17203,-0.07808 -1.07487,-1.060233 -2.30591,-2.103384 -1.2164,-1.044372 -2.61824,-2.119245 -0.0781,-0.07808 -0.0939,-0.17076 -0.0163,-0.095 0.0623,-0.187873 l 1.01265,-1.152957 z m -8.8674,12.107862 q -0.0781,-0.250112 0.17075,-0.328196 1.35672,-0.40506 2.41572,-0.810136 1.07609,-0.420905 1.88621,-0.841826 0.59173,-0.295254 1.07487,-0.60759 -1.37135,-1.573878 -2.33763,-3.785847 -0.0464,-0.09386 -0.0163,-0.186669 0.0464,-0.109968 0.13908,-0.140389 l 1.44942,-0.577088 q 0.20253,-0.07808 0.31235,0.156168 0.40505,0.902844 0.84183,1.666602 0.43557,0.747897 0.95042,1.340846 l 0.077,0.07808 0.0319,0.03042 q 0.0163,0.04636 0.0623,0.109806 0.0163,-0.01627 0.0319,-0.04766 0.0304,-0.04636 0.061,-0.07808 0.0316,-0.04636 0.0792,-0.09272 0.51365,-0.59295 0.95043,-1.340847 0.43556,-0.762537 0.85648,-1.682463 0.0781,-0.234251 0.28062,-0.156168 l 1.47993,0.499021 q 0.10981,0.03042 0.15617,0.140389 0.0464,0.09386 0,0.202546 -0.46728,1.13708 -1.07486,2.103368 -0.59174,0.951647 -1.30912,1.760547 0.28061,0.170759 0.5295,0.328196 0.26476,0.140226 0.54537,0.280614 0.81012,0.419701 1.87034,0.841841 1.07487,0.40384 2.43037,0.8089 0.25012,0.07808 0.17075,0.328197 l -0.49779,1.41771 q -0.0781,0.218391 -0.31111,0.140388 -2.01066,-0.561228 -3.56866,-1.246902 -1.54216,-0.701534 -2.68049,-1.527515 -1.13708,0.825981 -2.68046,1.527515 -1.54216,0.685674 -3.56868,1.246902 -0.23303,0.07808 -0.31109,-0.140388 z m 3.58454,8.212211 q -0.90286,0.81012 -1.37135,1.85449 -0.46728,1.04315 -0.46728,2.11925 v 0.15486 q 0,0.0623 0.0163,0.14039 0.0163,0.23425 0.0768,0.60759 0.0781,0.3587 0.26597,0.7174 0.18667,0.35869 0.51365,0.60759 0.32699,0.23425 0.87234,0.20254 0.60761,-0.0319 1.09074,-0.62224 0.48314,-0.60881 0.9358,-1.98016 0.40504,-1.2469 0.54535,-2.54015 0.14022,-1.30914 0.17076,-2.58655 -0.76378,0.17076 -1.43357,0.49901 -0.65395,0.31111 -1.21518,0.82598 z m 8.4306,8.08656 q -0.68567,0.56123 -1.40307,0.88819 -0.71617,0.34283 -1.52751,0.62346 -0.21716,0.0781 -0.34162,-0.14038 l -0.63931,-1.44822 v -0.0319 q -0.0781,-0.26473 0.14039,-0.32696 0.31111,-0.12444 0.60759,-0.2184 0.29647,-0.10997 0.59173,-0.24888 0.28063,-0.14039 0.54536,-0.29647 0.28062,-0.15617 0.52951,-0.35872 0.73203,-0.60759 1.20054,-1.38719 0.48314,-0.79304 0.63931,-1.71296 0.15487,-1.01266 -0.0939,-1.8545 -0.24889,-0.84184 -0.81012,-1.48115 -0.54537,-0.63808 -1.37135,-1.02849 -0.81012,-0.40508 -1.77639,-0.51365 -0.0163,1.40305 -0.14039,2.88299 -0.12444,1.46407 -0.62343,2.95986 -0.0623,0.18789 -0.15617,0.45143 -0.0781,0.25011 -0.21839,0.57708 -0.12445,0.31234 -0.3111,0.63932 -0.18669,0.32697 -0.40508,0.65395 -0.46728,0.65517 -1.1688,1.15417 -0.70153,0.49777 -1.68368,0.54536 -0.94921,0.061 -1.6666,-0.26476 -0.71618,-0.32818 -1.21518,-0.90405 -0.48316,-0.57708 -0.7479,-1.30912 -0.26475,-0.7479 -0.31234,-1.54338 -0.0927,-1.58852 0.54537,-3.13189 0.65517,-1.54216 1.9167,-2.69634 0.8577,-0.79303 1.90209,-1.29326 1.04315,-0.497784 2.16559,-0.684437 1.12246,-0.203767 2.27541,-0.07808 1.15296,0.108666 2.22783,0.545383 1.1066,0.467283 1.93258,1.231024 0.84184,0.7479 1.32376,1.72883 0.50024,0.96628 0.63932,2.08874 0.14038,1.10659 -0.17076,2.24369 -0.26596,1.10658 -0.88821,2.05702 -0.60881,0.95165 -1.51287,1.68369 z m 0.71618,3.44423 q 0.23425,0 0.23425,0.23423 v 13.41701 q 0,0.23304 -0.23425,0.23304 h -1.65196 q -0.23304,0 -0.23304,-0.23304 v -0.65517 h -7.57413 v 0.65517 q 0,0.23304 -0.23302,0.23304 h -1.65197 q -0.23424,0 -0.23424,-0.23304 v -13.41823 q 0,-0.23423 0.23424,-0.23423 h 11.34412 z m -1.885,5.48539 v -3.66264 h -7.57413 v 3.66264 z m -7.57291,5.74892 h 7.57291 v -3.98838 h -7.57413 v 3.9896 z" />
  <path
     inkscape:connector-curvature="0"
     id="path6"
     style="fill:#ffffff;fill-opacity:1;stroke:none;stroke-width:3.53447962"
     d="m 232.29657,20.433643 h -14.32408 v 0.977874 h 14.32408 z M 212.16181,8.3822339 q 0,-0.432384 0.4595,-0.432384 h 25.02528 q 0.45948,0 0.45948,0.431206 v 2.2738511 q 0,0.459483 -0.45948,0.459483 h -11.07471 q -0.0862,0.315747 -0.17198,0.574942 -0.0578,0.229741 -0.11547,0.373477 h 9.60791 q 0.43119,0 0.43119,0.46066 v 10.498578 q 0,0.459482 -0.43119,0.459482 h -12.16682 q -0.28864,0.288667 -0.57613,0.518393 -0.2592,0.20148 -0.48892,0.402931 h 11.7651 q 0.4312,0 0.4312,0.459497 v 1.870905 q 0,0.114202 -0.11545,0.315747 -0.94958,0.748132 -2.12774,1.496264 -1.15108,0.718678 -2.58963,1.409081 1.78376,0.345201 3.71123,0.604413 1.92629,0.259179 3.93976,0.40172 0.60439,0.05892 0.46066,0.604413 l -0.66213,2.128938 q -0.0862,0.3452 -0.40174,0.287471 -5.66695,-0.402932 -10.81551,-1.927472 -0.0861,-0.02828 -0.22976,-0.05781 -0.11545,-0.02828 -0.2592,-0.08608 -0.17317,-0.08608 -0.3169,-0.114203 -0.1142,-0.02937 -0.17202,-0.05892 -5.14856,1.582272 -12.05259,2.244398 -0.34517,0.05781 -0.4312,-0.287471 l -0.66095,-2.128937 q -0.0589,-0.229742 0.0567,-0.402932 0.14499,-0.200303 0.40293,-0.22974 4.51589,-0.373478 8.11163,-0.977874 -0.69041,-0.345201 -1.32307,-0.690417 -0.63269,-0.373462 -1.17934,-0.718664 -0.17201,-0.143735 -0.20029,-0.345201 -0.0295,-0.201466 0.11419,-0.345201 l 0.83414,-0.949598 h -0.0294 q -2.61667,1.496265 -5.49374,2.358664 -0.31575,0.143735 -0.51839,-0.200274 l -1.00611,-1.956919 q -0.1142,-0.259196 -0.0283,-0.431206 0.0861,-0.201467 0.31692,-0.259196 1.95574,-0.574943 3.68175,-1.323075 1.75428,-0.748133 3.27881,-1.610546 h -4.77509 q -0.43118,0 -0.43118,-0.459484 V 12.523392 q 0,-0.459499 0.43118,-0.459499 h 7.82299 q 0.11547,-0.318088 0.1732,-0.546667 0.0861,-0.259195 0.14372,-0.402931 h -9.89416 q -0.45949,0 -0.45949,-0.459467 V 8.3809779 Z m 20.13476,7.0454041 v -1.006151 h -14.32408 v 1.007328 h 14.32408 z m -14.32408,2.992513 h 14.32408 v -0.977859 h -14.32408 z m 7.50723,10.383133 q 2.41524,-0.776393 4.54418,-1.898017 h -9.11779 q 2.15723,1.121624 4.57361,1.898017 z" />
  <path
     inkscape:connector-curvature="0"
     id="path4608"
     style="fill:#502011;fill-opacity:1;stroke:none;stroke-width:3.66017747"
     d="m 330.05805,73.127946 h -4.34706 v 1.356707 h 4.34706 z m -7.46311,-0.591729 q 0.20133,0.109968 0.12445,0.326976 -0.39042,0.982132 -0.88822,1.886197 -0.50021,0.902861 -1.10658,1.760547 -0.12445,0.17076 -0.29647,0.07808 l -1.32499,-0.732036 q -0.0927,-0.06344 -0.12445,-0.172029 -0.0304,-0.09386 0.0477,-0.186653 0.54536,-0.825981 1.01265,-1.651978 0.46728,-0.841825 0.87234,-1.76053 0.0464,-0.09386 0.14039,-0.125748 0.0927,-0.03042 0.18667,0 l 1.35549,0.577105 z m -1.12244,-1.465293 q -0.14038,0.18789 -0.32699,0.04766 -0.54535,-0.374558 -1.18466,-0.779602 -0.62345,-0.420937 -1.34085,-0.856483 -0.10866,-0.07808 -0.13908,-0.170759 -0.0163,-0.109806 0.061,-0.203766 l 0.79548,-1.090718 q 0.12444,-0.17076 0.31111,-0.07808 0.73204,0.420921 1.37135,0.841825 0.65517,0.405077 1.20054,0.825997 0.20253,0.140389 0.061,0.32696 z m -1.27864,-5.936813 q 0.15617,-0.17076 0.31236,-0.061 0.67103,0.357478 1.2469,0.746677 0.59171,0.374558 1.13709,0.747897 0.0939,0.0623 0.10981,0.170759 0.0304,0.09386 -0.0477,0.18789 l -0.87235,1.090734 q -0.14039,0.20253 -0.32697,0.04636 -1.1066,-0.825981 -2.27542,-1.479933 -0.0939,-0.06231 -0.12444,-0.156168 -0.0317,-0.109968 0.0464,-0.202546 z m 12.90336,-0.872343 q 0,0.234268 -0.25011,0.234268 h -2.99159 v 0.561227 q 0,0.231796 -0.23303,0.231796 h -1.65196 q -0.10997,0.187889 -0.20252,0.329432 -0.0781,0.123308 -0.14038,0.201294 h 4.75213 q 0.23425,0 0.23425,0.234251 v 1.27742 q 0,0.07808 -0.0464,0.156168 -1.15418,1.246901 -2.69633,2.22783 1.41771,0.561227 3.28804,0.904064 0.23427,0.04636 0.18669,0.296475 l -0.24889,1.231041 q -0.0464,0.233031 -0.29648,0.186669 l -0.62224,-0.140388 v 4.144545 q 0,0.234251 -0.23424,0.234251 h -1.6361 q -0.25011,0 -0.25011,-0.234251 v -0.357494 h -4.34708 v 0.357494 q 0,0.234251 -0.25011,0.234251 h -1.58852 q -0.23423,0 -0.23423,-0.234251 v -4.035976 q -0.15617,0.03188 -0.28063,0.06344 -0.12445,0.03042 -0.23302,0.061 -0.0939,0.03172 -0.18791,-0.01627 -0.0781,-0.04636 -0.1085,-0.140389 l -0.34284,-1.21518 q -0.0319,-0.109968 0.0163,-0.202513 0.061,-0.09386 0.17076,-0.125748 0.98215,-0.217171 1.83863,-0.483128 0.8577,-0.28063 1.66782,-0.591745 -0.35869,-0.264737 -0.70153,-0.499005 -0.32698,-0.233015 -0.63809,-0.483144 -0.18789,0.172029 -0.40506,0.312336 -0.21961,0.140388 -0.43678,0.296474 -0.15617,0.09273 -0.28062,-0.03172 l -0.93455,-0.902845 q -0.0939,-0.09386 -0.0939,-0.203734 0.0163,-0.124446 0.12445,-0.20253 1.88621,-1.323765 3.16361,-3.023325 0.0781,-0.124447 0.20255,-0.07678 l 1.60558,0.248876 v -0.591708 h -3.59918 v 0.638076 q 0,0.234267 -0.23423,0.234267 h -1.58974 q -0.24889,0 -0.24889,-0.234267 v -0.638076 h -3.13312 q -0.24889,0 -0.24889,-0.234251 v -1.168818 q 0,-0.234268 0.24889,-0.234268 h 3.13312 v -0.762521 q 0,-0.234252 0.24889,-0.234252 h 1.58974 q 0.23301,0 0.23301,0.234252 v 0.762521 h 3.59918 v -0.762521 q 0,-0.234252 0.23427,-0.234252 h 1.60558 q 0.23303,0 0.23303,0.234252 v 0.762521 h 2.99281 q 0.24889,0 0.24889,0.234268 z m -2.99159,7.308161 q -0.60881,-0.233031 -1.12245,-0.435561 -0.49901,-0.203734 -0.91991,-0.420921 -0.51365,0.264753 -1.01267,0.467283 -0.49778,0.20253 -1.01265,0.390419 h 4.06768 z m -2.16681,-2.742695 q 0.60758,-0.341617 1.1066,-0.685658 0.51486,-0.358714 0.93455,-0.732053 H 326.271 l -0.0465,0.03042 -0.10981,0.125747 q 0.42214,0.341617 0.87356,0.653952 0.45143,0.312352 0.95165,0.607591 z m 4.81556,16.767272 q 0.40507,0.60759 0.51365,1.309125 0.12575,0.685674 -0.0163,1.371348 -0.14039,0.671033 -0.53074,1.293264 -0.3892,0.60759 -1.01263,1.044371 -0.70155,0.513646 -1.46409,0.825981 -0.76374,0.311115 -1.55924,0.497785 -0.79424,0.187889 -1.62024,0.265973 -0.8101,0.07678 -1.6361,0.108667 -0.23424,0 -0.23424,-0.20253 v -1.511655 q 0,-0.218375 0.21962,-0.218375 0.66859,-0.03042 1.33962,-0.07808 0.66981,-0.061 1.29325,-0.20253 0.63809,-0.140388 1.24568,-0.373338 0.60761,-0.234252 1.16883,-0.639295 0.26476,-0.186686 0.46729,-0.483161 0.21961,-0.296474 0.31233,-0.622214 0.0939,-0.328213 0.0464,-0.671049 -0.0304,-0.342837 -0.2489,-0.671017 -0.24891,-0.325756 -0.65517,-0.528303 -0.40508,-0.219611 -0.8882,-0.296474 -0.46729,-0.09386 -0.99679,-0.07808 -0.52952,0 -1.01265,0.07808 -1.04437,0.170759 -2.01066,0.639311 -0.95043,0.467283 -1.74469,1.21518 -0.15617,0.124446 -0.34283,0.04636 l -1.34083,-0.622231 q -0.18669,-0.07922 -0.15503,-0.312336 0.0464,-0.219611 0.12444,-0.671049 0.0781,-0.451406 0.20253,-1.090718 0.12445,-0.638091 0.24888,-1.401849 0.14039,-0.779619 0.31235,-1.636101 h -3.25756 q -0.0927,0 -0.15617,-0.0623 -0.061,-0.07808 -0.061,-0.170744 v -1.403069 q 0,-0.234252 0.21717,-0.234252 h 3.64676 l 0.3111,-1.41771 0.17076,-0.732036 q 0.0488,-0.219611 0.26597,-0.17076 l 1.54216,0.295255 q 0.23423,0.09273 0.18789,0.28063 l -0.40506,1.74467 h 6.26379 q 0.24889,0 0.24889,0.234268 v 1.403053 q 0,0.231812 -0.24889,0.231812 h -6.65421 q -0.17076,0.8272 -0.34162,1.63732 -0.15617,0.79426 -0.31233,1.573878 0.96628,-0.671033 2.1656,-1.060232 1.20054,-0.40506 2.39986,-0.40506 1.20054,-0.01627 2.25955,0.420921 1.06022,0.436798 1.73005,1.449431 z m 0.34284,10.612064 q 0,0.23427 -0.25011,0.23427 h -2.99159 v 0.56123 h 1.02851 q 0.25011,0 0.25011,0.23301 v 0.52953 h 1.71297 q 0.25011,0 0.25011,0.23423 v 1.04439 q 0,0.23302 -0.25011,0.23302 h -1.71297 v 1.62025 q 0,0.23423 -0.25011,0.23423 h -6.35651 q -0.23424,0 -0.23424,-0.23423 v -1.62025 h -1.62146 v 2.29126 h 9.27244 q 0.23305,0 0.23305,0.23303 v 1.01265 q 0,0.23426 -0.23305,0.23426 h -4.94124 v 0.51364 h 5.68916 q 0.24887,0 0.24887,0.23425 v 1.07488 q 0,0.23425 -0.24887,0.23425 h -4.38002 q 0.91991,0.45142 2.13509,0.85648 1.21642,0.39042 2.72806,0.77962 0.12444,0.0317 0.17076,0.14039 0.0623,0.0939 0,0.21839 l -0.54537,1.10659 q -0.0781,0.17076 -0.26475,0.12445 -1.71419,-0.51487 -3.10138,-1.09072 -1.37135,-0.5771 -2.43038,-1.23228 v 2.18269 q 0,0.23303 -0.24889,0.23303 h -1.68368 q -0.2489,0 -0.2489,-0.23303 v -2.18147 q -1.06023,0.65396 -2.44622,1.23106 -1.37134,0.57585 -3.08675,1.09072 -0.18665,0.0464 -0.26352,-0.12445 l -0.5466,-1.10659 q -0.061,-0.12445 -0.0163,-0.21839 0.061,-0.10997 0.18667,-0.14039 1.51166,-0.39042 2.72684,-0.77962 1.21516,-0.40506 2.1351,-0.85648 h -4.38001 q -0.24768,0 -0.24768,-0.23425 v -1.07366 q 0,-0.23547 0.2489,-0.23547 h 5.6879 v -0.51364 h -4.0518 q -0.23425,0 -0.23425,-0.23426 v -3.53694 h -1.55802 q -0.24889,0 -0.24889,-0.23302 v -1.04439 q 0,-0.23423 0.24889,-0.23423 h 1.55802 v -0.52953 q 0,-0.23423 0.23425,-0.23423 h 1.19932 v -0.56123 h -2.99159 q -0.24889,0 -0.24889,-0.23305 v -1.152936 q 0,-0.234252 0.24889,-0.234252 h 2.99159 v -0.716191 q 0,-0.250097 0.23425,-0.250097 h 1.6056 q 0.23303,0 0.23303,0.250097 v 0.716191 h 3.73947 v -0.716191 q 0,-0.250097 0.23427,-0.250097 h 1.60558 q 0.23303,0 0.23303,0.250097 v 0.716191 h 2.99159 q 0.25011,0 0.25011,0.234252 z m -8.80394,1.02851 q 0,-0.23423 0.23302,-0.23423 h 1.54337 q 0.2489,0 0.2489,0.23423 v 0.52953 h 2.74269 v -0.54539 h -1.04435 q -0.23305,0 -0.23305,-0.23301 v -0.54537 h -3.74069 v 0.54537 q 0,0.23301 -0.23303,0.23301 h -1.13832 v 0.54539 h 1.62146 z m 2.02529,2.67926 h 2.74269 v -0.63809 h -2.74269 v 0.63933 z m -5.89044,24.44999 q -0.18668,0 -0.499,-0.0163 -0.31112,-0.0163 -0.82598,-0.0477 -0.2489,-0.0304 -0.2489,-0.21839 l -0.0623,-1.21518 q -0.0163,-0.12444 0.0781,-0.20253 0.0927,-0.0927 0.21841,-0.0781 0.41969,0.0317 0.68566,0.0623 0.26477,0.0163 0.34163,0.0163 0.18789,0 0.21961,-0.10981 0.0304,-0.15486 0.0304,-0.65395 v -2.1656 l -0.65393,0.15616 q -0.32822,0.061 -0.65518,0.14039 -0.1098,0.0304 -0.20253,-0.0477 -0.0781,-0.0768 -0.0927,-0.20253 l -0.0939,-1.35427 q -0.0317,-0.21961 0.18667,-0.25013 0.43678,-0.0781 0.81012,-0.15617 0.37455,-0.0781 0.70153,-0.15616 v -3.5833 h -1.44943 q -0.23303,0 -0.23303,-0.23427 v -1.2774 q 0,-0.24888 0.23303,-0.24888 h 1.44943 v -2.27542 q 0,-0.25012 0.23425,-0.25012 h 1.57386 q 0.2489,0 0.2489,0.25012 v 2.27542 h 1.07487 q 0.25013,0 0.25013,0.24888 v 0.6076 l 0.84184,-0.67105 q 0.3892,-0.32575 0.68445,-0.60635 0.93577,-0.90408 1.77639,-1.96432 0.0781,-0.0781 0.15617,-0.0781 h 2.04115 q 0.0781,0 0.15616,0.0781 0.46729,0.56122 0.91993,1.04437 0.45142,0.48317 0.91871,0.91995 0.46728,0.40504 0.998,0.84182 0.52951,0.43558 1.13708,0.85649 0.14039,0.0927 0.0927,0.26476 l -0.46728,1.49578 q -0.0464,0.14039 -0.17076,0.18667 -0.12445,0.0317 -0.25012,-0.0464 -0.3892,-0.24889 -0.95042,-0.71618 v 0.84185 q 0,0.24887 -0.2489,0.24887 h -6.21742 q -0.23424,0 -0.23424,-0.25009 v -0.85649 q -0.20254,0.15617 -0.43556,0.34162 -0.21963,0.17203 -0.51487,0.37456 -0.12444,0.0781 -0.24889,0.0477 -0.1098,-0.0477 -0.17076,-0.18789 l -0.39042,-1.26154 h -0.74791 v 3.02331 l 0.48314,-0.14039 q 0.21841,-0.0781 0.40508,-0.14039 0.12445,-0.0477 0.23424,0.0163 0.10866,0.0634 0.12444,0.18787 l 0.0304,0.24891 h 8.86738 q 0.23304,0 0.23304,0.23425 v 6.41995 q 0,0.23304 -0.23304,0.23304 h -1.65196 q -0.25011,0 -0.25011,-0.23304 v -0.51487 h -4.97053 v 0.51487 q 0,0.23304 -0.24887,0.23304 h -1.54338 q -0.23305,0 -0.23305,-0.23304 v -5.36095 q -0.42092,0.14039 -0.73203,0.25013 l -0.51487,0.15487 v 3.24168 q 0,0.24889 -0.0163,0.37334 -0.0304,0.45142 -0.0927,0.70153 -0.1098,0.35872 -0.21961,0.46729 -0.15487,0.20253 -0.35748,0.26475 -0.15617,0.0634 -0.29647,0.0781 -0.12445,0.0317 -0.24888,0.0477 -0.0939,0.0163 -0.29649,0.0163 z m 10.23751,-5.14131 h -4.97052 v 2.71095 h 4.97052 z m 0.21839,-4.86196 q -0.71616,-0.6393 -1.38721,-1.35669 -0.66981,-0.71618 -1.2774,-1.52631 -1.18344,1.58974 -2.58653,2.883 z m 2.15097,22.46983 h -1.71417 q -0.10981,0 -0.17076,-0.061 -0.0477,-0.0792 -0.0634,-0.1879 -0.0304,-1.97894 -0.35868,-3.9896 -0.327,-2.0253 -0.99679,-3.84928 -0.0781,-0.21717 0.14039,-0.29525 l 1.57386,-0.53074 q 0.2184,-0.061 0.32697,0.17076 0.71741,2.04238 1.07488,4.19334 0.37455,2.13511 0.40629,4.28486 0,0.26475 -0.21961,0.26475 z m -7.09099,-0.35868 q -0.10851,0.42092 -0.26475,0.85771 -0.14039,0.4209 -0.32698,0.82596 -0.18667,0.37335 -0.45141,0.70153 -0.25013,0.32698 -0.57709,0.54537 -0.31113,0.23303 -0.71617,0.32699 -0.4063,0.10981 -0.90407,0.0304 -0.40507,-0.061 -0.77961,-0.24889 -0.35872,-0.17074 -0.63932,-0.43678 -0.28061,-0.24889 -0.49778,-0.54537 -0.21839,-0.31111 -0.37458,-0.60757 -0.59171,-1.10661 -0.91868,-2.35228 -0.3282,-1.26278 -0.46729,-2.50968 -0.14039,-1.2469 -0.14039,-2.43034 0,-1.18346 0.0768,-2.18147 l 0.0477,-0.81012 q 0.0304,-0.21961 0.24889,-0.21961 h 1.71417 q 0.0939,0 0.15617,0.0634 0.0781,0.0464 0.061,0.17075 l -0.061,0.77962 q -0.0781,0.91872 -0.0781,2.01065 0,1.07366 0.12444,2.21197 0.12445,1.13832 0.40506,2.27542 0.28062,1.12245 0.77962,2.08752 0.10997,0.20253 0.23303,0.40628 0.14039,0.20253 0.37456,0.23303 0.21839,0 0.3587,-0.23303 0.14039,-0.25011 0.21715,-0.45142 0.25013,-0.65517 0.4063,-1.26276 0.0769,-0.3282 0.12444,-0.63932 0.061,-0.32697 0.14039,-0.65517 0.0464,-0.0927 0.10997,-0.15487 0.0768,-0.0781 0.20131,-0.0319 l 1.60562,0.35871 q 0.0781,0.0464 0.15486,0.12445 0.0781,0.0623 0.0319,0.17076 -0.0939,0.34406 -0.17076,0.76376 -0.0792,0.42092 -0.20377,0.82598 z" />
  <path
     inkscape:connector-curvature="0"
     id="path4588"
     style="fill:#502011;fill-opacity:1;stroke:none;stroke-width:3.66017747"
     d="m 383.74228,83.969528 q 0.1098,0.187873 -0.0623,0.296458 l -1.3872,0.81012 q -0.18667,0.09386 -0.32698,-0.07808 -0.52951,-0.82598 -1.09073,-1.604379 -0.54537,-0.795463 -1.15296,-1.559221 -0.14039,-0.170759 0.0304,-0.326992 l 1.30914,-0.918689 q 0.0781,-0.04766 0.17076,-0.03172 0.0939,0.01627 0.14153,0.09386 0.62224,0.810121 1.19932,1.634881 0.59173,0.827217 1.16881,1.6837 z m -1.79225,2.103384 q 0.34283,0.514865 0.499,1.091938 0.15617,0.561227 0.12445,1.13708 -0.0163,0.561244 -0.23303,1.122471 -0.20375,0.545367 -0.59295,1.027291 -0.46729,0.561228 -1.05902,0.873563 -0.57708,0.326976 -1.23224,0.497785 -0.63809,0.17076 -1.33964,0.219611 -0.68568,0.04636 -1.33963,0.04636 -0.21839,0 -0.21839,-0.219611 v -1.510435 q 0,-0.234251 0.21839,-0.234251 0.79428,0 1.60438,-0.09273 0.81134,-0.109805 1.43357,-0.577088 0.54538,-0.40506 0.68568,-1.028511 0.14038,-0.639312 -0.21718,-1.231025 -0.37455,-0.591729 -0.95163,-0.88822 -0.57588,-0.296474 -1.26156,-0.390403 -0.67101,-0.09272 -1.37134,-0.03042 -0.70154,0.0623 -1.30911,0.202546 v 2.83664 q 0,0.622231 -0.20255,1.168802 -0.20253,0.529522 -0.57585,0.934566 -0.35871,0.420937 -0.87358,0.67105 -0.49777,0.248876 -1.09072,0.295254 -0.56122,0.03172 -1.04437,-0.124446 -0.48194,-0.156168 -0.87234,-0.467283 -0.37336,-0.296491 -0.62223,-0.747913 -0.23425,-0.436782 -0.28062,-0.935787 -0.0163,-0.09272 -0.0163,-0.186669 v -0.186653 q 0,-0.747913 0.28061,-1.41893 0.29525,-0.685674 0.77838,-1.261558 0.49902,-0.59173 1.15298,-1.044356 0.67103,-0.467299 1.40306,-0.810136 v -2.82078 h -3.31856 q -0.21961,0 -0.21961,-0.21839 V 80.35458 q 0,-0.248909 0.21961,-0.248909 h 3.31856 v -2.197312 q 0,-0.218391 0.23302,-0.218391 h 1.51289 q 0.21717,0 0.21717,0.218391 v 2.196092 h 3.46008 q 0.10866,0 0.15486,0.07922 0.0623,0.061 0.0623,0.170759 v 1.41771 q 0,0.219611 -0.21717,0.219611 h -3.46008 v 2.21197 q 0.90285,-0.186653 1.85449,-0.186653 0.95165,-0.01627 1.82276,0.202513 0.87358,0.20253 1.62146,0.653969 0.74791,0.451406 1.26156,1.200523 z m -8.52456,2.852485 v -1.994799 q -0.68446,0.436782 -1.18346,1.059012 -0.48315,0.623451 -0.48315,1.356707 0,0.140389 0.0163,0.18667 0.0304,0.280614 0.21841,0.451422 0.20251,0.17076 0.49899,0.140388 0.46728,-0.04636 0.70033,-0.405076 0.23423,-0.358682 0.23423,-0.794243 z m -4.2214,18.169123 q -0.20253,-0.15617 -0.0319,-0.37334 1.13709,-1.29328 1.54337,-2.63411 0.48193,-1.47993 0.48193,-4.33121 v -5.673285 q 0,-0.233015 0.23425,-0.233015 h 10.70603 q 0.23301,0 0.23301,0.233015 v 11.359985 q 0,0.26475 -0.0163,0.51486 0,0.24889 -0.0163,0.51365 -0.0163,0.15616 -0.0477,0.32818 -0.0163,0.18668 -0.0781,0.37335 -0.10997,0.34284 -0.23303,0.48313 -0.14039,0.14039 -0.43678,0.24891 -0.29648,0.1098 -0.67103,0.12575 -0.12331,0.0163 -0.35748,0.0163 h -0.59173 q -0.28061,0 -0.90407,-0.0304 -0.62223,-0.0163 -1.58973,-0.0464 -0.0927,0 -0.17076,-0.0634 -0.0623,-0.0464 -0.0623,-0.14023 l -0.0781,-1.32377 q -0.0163,-0.10996 0.061,-0.18666 0.0792,-0.0781 0.20373,-0.0781 0.91873,0.0304 1.43359,0.061 0.52949,0.0172 0.68568,0.0172 0.52949,0 0.63929,-0.10997 0.10867,-0.10981 0.10867,-0.65395 v -2.22905 h -7.12149 q -0.14039,0.998 -0.43679,1.7764 -0.57586,1.58974 -1.90085,2.99281 -0.14039,0.14039 -0.29525,0.0163 z m 11.04763,-9.42739 v -2.057023 h -6.93482 v 2.057023 z m -6.93482,2.99157 v 0.54537 q 0,0.21961 -0.0163,0.35869 h 6.94945 v -2.21318 h -6.93482 z m -3.95788,21.83173 q -0.0304,-0.1098 0.0163,-0.18666 0.0464,-0.0939 0.18665,-0.14039 1.06025,-0.20253 1.80813,-0.49901 0.76376,-0.3111 1.23104,-0.68567 0.77962,-0.66981 0.98215,-1.558 h -2.61823 q -0.25013,0 -0.25013,-0.23427 v -9.05282 q 0,-0.23425 0.25013,-0.23425 h 11.00127 q 0.24889,0 0.24889,0.23425 v 9.05282 q 0,0.23427 -0.24889,0.23427 h -2.83664 v 2.13509 q 0,0.3587 0.0781,0.43558 0.0623,0.0634 0.48315,0.0781 h 0.70151 q 0.12445,0 0.21839,-0.0163 0.0781,-0.0163 0.15617,-0.0163 h 0.17076 q 0.0464,0 0.21839,-0.0939 0.0781,-0.0464 0.15617,-0.18666 0.0464,-0.0939 0.0927,-0.39042 0.0163,-0.10866 0.0317,-0.24889 0.0304,-0.14039 0.0464,-0.32697 0.0163,-0.12445 0.0163,-0.28062 0,-0.15617 0.0163,-0.34162 0.0304,-0.26597 0.28062,-0.23425 l 1.52631,0.17076 q 0.21839,0 0.21839,0.23425 0,0.14039 -0.0163,0.21717 -0.0163,0.10981 -0.0163,0.2196 0,0.0927 -0.0163,0.20133 -0.0163,0.1098 -0.0163,0.18787 v 0.10867 l -0.0464,0.34161 -0.0781,0.53073 q -0.0317,0.20253 -0.0623,0.37456 -0.0317,0.15486 -0.0634,0.28059 -0.0464,0.20255 -0.24888,0.41972 -0.1098,0.10981 -0.18668,0.17203 -0.0781,0.0781 -0.14039,0.10981 -0.14039,0.0927 -0.49901,0.17076 -0.28061,0.0623 -0.63931,0.0623 -0.0464,0 -0.26475,0.0163 -0.20252,0.0163 -0.57587,0.0163 h -1.46406 q -0.35993,0 -0.62468,-0.0319 -0.2489,-0.0163 -0.37334,-0.0317 -0.57709,-0.0768 -0.6393,-0.0927 -0.28063,-0.0781 -0.37334,-0.23424 -0.0939,-0.14039 -0.15616,-0.34162 -0.0464,-0.20376 -0.0464,-0.53074 v -3.10139 h -1.26274 q -0.56123,3.53819 -5.67328,4.55082 -0.20131,0.0464 -0.26355,-0.14039 z m 10.72189,-9.81659 v -1.02851 h -7.23128 v 1.02851 z m -7.23128,2.54018 h 7.23128 v -1.06023 h -7.23128 z m 0,2.52306 h 7.23128 v -1.059 h -7.23128 v 1.06022 z" />
  <path
     inkscape:connector-curvature="0"
     id="path4572"
     style="fill:#502011;fill-opacity:1;stroke:none;stroke-width:3.66017747"
     d="m 421.34737,74.487608 q -0.12444,0.20253 -0.39041,0.124446 -0.0304,0 -0.0452,-0.01627 l -1.37135,-0.81012 q -0.12574,-0.07808 -0.14038,-0.18667 -0.0163,-0.124446 0.0464,-0.234235 0.71619,-1.073653 1.37135,-2.243707 0.65396,-1.168818 1.21519,-2.368121 0.57707,-1.21518 1.01264,-2.462082 0.45143,-1.262778 0.76375,-2.540165 l 0.15617,-0.73202 q 0.0304,-0.109805 0.12445,-0.187906 0.0939,-0.09272 0.21839,-0.04636 l 1.65194,0.326976 q 0.28063,0.07808 0.20253,0.342837 -0.70151,2.930585 -1.91671,5.719627 -1.21517,2.789058 -2.89885,5.313362 z m 13.71347,-0.824777 -1.58974,0.590525 q -0.0939,0.03156 -0.20255,-0.01627 -0.1098,-0.03188 -0.15617,-0.17076 -1.15295,-2.635314 -2.50844,-5.19012 -1.35549,-2.570667 -2.89886,-4.970526 -0.0927,-0.124446 -0.061,-0.219611 0.0452,-0.09272 0.13909,-0.170759 l 1.43355,-0.841826 q 0.2489,-0.123307 0.40508,0.141527 1.60558,2.462082 2.99157,5.110833 1.40307,2.632874 2.60239,5.343848 0.0781,0.312352 -0.15487,0.390436 z m -1.44945,5.063267 v 11.04885 q 0,0.248892 -0.24888,0.248892 h -12.12374 q -0.26473,0 -0.26473,-0.248892 v -11.04885 q 0,-0.124447 0.10866,-0.186686 0.10981,-0.0623 0.23425,-0.0623 h 12.04566 q 0.24888,0 0.24888,0.248892 z m -10.48762,9.302943 h 8.35253 v -7.557053 h -8.35131 v 7.557053 z m 10.61208,7.27644 q -0.15617,1.122459 -0.3587,2.198549 -0.18667,1.07364 -0.51364,2.18147 -0.32698,1.1688 -0.7479,2.29003 -0.42092,1.12246 -0.96629,2.22906 -0.42092,0.84184 -0.8882,1.62024 -0.46727,0.77961 -0.98213,1.57387 -0.12445,0.15617 -0.34162,0.0781 -0.0172,0 -0.0319,-0.0163 l -1.35549,-0.82598 q -0.10981,-0.0464 -0.10981,-0.14039 0,-0.0927 0.0317,-0.18668 0,-0.0317 0.0163,-0.0317 0.71618,-1.10538 1.32377,-2.19613 0.62345,-1.09193 1.10659,-2.32297 0.46729,-1.15298 0.81012,-2.3523 0.3587,-1.20054 0.59295,-2.39984 h -8.21221 v 3.67726 q 0,0.26474 -0.28063,0.26474 h -1.58974 q -0.26473,0 -0.26473,-0.26474 v -5.375584 q 0,-0.250113 0.26473,-0.250113 h 4.92417 V 92.84412 q 0,-0.264769 0.28061,-0.264769 h 1.6349 q 0.25009,0 0.25009,0.264769 v 2.211953 h 5.15842 q 0.24887,0 0.24887,0.250113 z m -1.76055,17.703049 q -0.0623,0.0464 -0.77962,0.70155 -0.70153,0.63809 -1.91547,1.63488 v 7.30936 q 0,0.0939 -0.0792,0.17076 -0.061,0.0781 -0.17076,0.0781 h -1.43361 q -0.12445,0 -0.20252,-0.0781 -0.0623,-0.0769 -0.0623,-0.17076 v -5.81235 q -0.79546,0.57707 -1.66782,1.15296 -0.87233,0.56123 -1.82276,1.15294 l -0.5771,0.35871 q -0.0939,0.0317 -0.20252,0.0317 -0.1098,-0.0163 -0.18668,-0.14038 l -0.68566,-1.13832 q -0.14039,-0.21839 0.10981,-0.39042 l 0.56,-0.31112 q 1.66783,-1.01265 3.08554,-2.0253 1.41771,-1.02851 2.47672,-1.88499 1.04437,-0.8577 1.63732,-1.41893 l 0.60759,-0.57585 0.48313,-0.46728 q 0.18667,-0.18789 0.39042,0 l 0.93334,0.96505 q 0.17205,0.20375 0,0.37456 z m -2.50966,22.51741 q -1.51042,1.27742 -3.20876,2.08754 -1.68367,0.81012 -3.55403,1.38719 -0.26476,0.0781 -0.34162,-0.17076 l -0.50021,-1.48113 q -0.0304,-0.14039 0.0163,-0.21841 0.0634,-0.0781 0.15616,-0.14039 h 0.0317 q 1.41769,-0.43556 2.71097,-0.99677 1.29326,-0.56123 2.4938,-1.46407 1.54216,-1.12246 2.7427,-2.55605 1.19932,-1.43355 2.10338,-3.11723 l 0.37333,-0.66982 q 0.0781,-0.10997 0.17076,-0.14039 0.10996,-0.0464 0.21961,0.0163 l 1.40307,0.73202 q 0.23182,0.10981 0.15486,0.34284 v 0.0317 q -1.01265,1.79228 -2.19731,3.39665 -1.16883,1.6056 -2.7732,2.96108 z m -2.92935,-4.8778 q -0.061,0.0781 -0.17076,0.10981 -0.1098,0.0163 -0.20253,-0.0635 -2.32177,-1.71418 -4.79972,-3.17825 -0.28061,-0.12445 -0.1098,-0.40506 l 0.79546,-1.26275 q 0.15617,-0.23305 0.39042,-0.0927 1.32377,0.76376 2.53895,1.60438 1.23226,0.82599 2.46209,1.73005 0.0939,0.0781 0.12445,0.18667 0.0317,0.0939 -0.061,0.20253 z" />
  <path
     inkscape:connector-curvature="0"
     id="path8"
     style="fill:#ffffff;fill-opacity:1;stroke:none;stroke-width:3.53447962"
     d="m 365.23438,15.168641 v -3.192817 q -0.71867,0.08719 -1.43736,0.143736 -0.69157,0.02937 -1.43853,0.08719 -0.17319,0.02827 -0.31693,-0.08719 -0.14373,-0.114204 -0.172,-0.287488 l -0.20147,-2.1560341 q -0.0589,-0.432385 0.40175,-0.490099 5.092,-0.373477 9.80936,-1.552816 0.20028,-0.05781 0.3452,0.05781 0.14373,0.08608 0.20029,0.259196 l 0.66214,2.0700281 q 0.17318,0.459467 -0.28747,0.604397 -1.89804,0.518391 -3.97041,0.891852 v 3.652316 h 2.96307 q 0.46066,0 0.46066,0.432369 v 2.357516 q 0,0.43237 -0.45949,0.43237 h -2.7616 l 1.38081,2.474137 q 0.97786,1.724828 2.5024,4.486438 0.20029,0.345201 -0.11544,0.574926 l -1.64001,1.17934 q -0.20028,0.143893 -0.43121,0.115459 -0.20028,-0.05781 -0.28746,-0.28747 -0.40293,-0.949599 -0.83414,-1.783754 -0.40294,-0.834121 -0.77759,-1.639983 v 10.384293 q 0,0.431207 -0.43003,0.431207 h -2.73333 q -0.43121,0 -0.43121,-0.431207 v -8.686564 q -0.94959,2.474123 -2.0712,4.228419 -0.17201,0.259181 -0.45949,0.259181 -0.25919,-0.02938 -0.40293,-0.28865 L 360.94823,27.1058 q -0.17199,-0.229742 0,-0.431192 2.93362,-4.142413 4.11414,-8.283649 h -3.19281 q -0.43237,0 -0.43237,-0.431207 v -2.358679 q 0,-0.432385 0.43237,-0.432385 z m 6.9323,6.501093 q -0.17319,-0.05781 -0.2592,-0.229758 -0.0862,-0.173174 -0.0283,-0.374655 0.80469,-2.041753 1.38079,-4.228405 0.57496,-2.214942 0.9779,-4.572427 0.1142,-0.460676 0.57494,-0.37467 l 2.41521,0.518391 q 0.40294,0.08592 0.34639,0.517213 -0.40293,2.560144 -1.03677,4.889368 -0.63152,2.330402 -1.4951,4.51589 -0.2003,0.402917 -0.57494,0.259196 z m 9.52071,-13.7208651 q 0.45948,0 0.45948,0.432386 v 6.2124431 q 0,3.336552 0.51838,5.982702 1.66829,-3.883219 2.67443,-8.859771 0.11547,-0.459483 0.57613,-0.344023 l 2.56012,0.603218 q 0.40176,0.11546 0.31576,0.488937 -1.06387,5.178018 -2.78987,9.204973 -0.0578,0.171996 -0.22976,0.229741 -0.17318,0.05781 -0.37465,0 l -2.70388,-1.17816 q 0.23093,1.063879 0.5184,2.012282 0.28747,0.949598 0.66095,1.75546 1.66828,3.59457 5.03428,5.982701 0.37345,0.229742 0.14372,0.60322 l -1.61054,2.646133 q -0.11545,0.173206 -0.31691,0.201481 -0.17202,0.02937 -0.31576,-0.08608 -1.75545,-1.294815 -3.16454,-3.135086 -1.40907,-1.869741 -2.53068,-4.400431 -0.14375,-0.345201 -0.3452,-0.805846 -0.1732,-0.488953 -0.4324,-1.15108 -0.0859,0.201482 -0.25917,0.662127 -0.17203,0.431206 -0.48777,1.121609 -2.4164,5.234569 -6.04042,7.736967 -0.34521,0.259196 -0.63269,-0.143734 l -1.61171,-2.646151 q -0.20029,-0.373478 0.11546,-0.603201 3.42256,-2.416409 5.09084,-6.012157 1.812,-3.797214 1.812,-9.865905 V 8.3811779 q 0,-0.432385 0.43239,-0.432385 z" />
  <path
     inkscape:connector-curvature="0"
     id="path4532"
     style="fill:#3f3642;fill-opacity:1;stroke:none;stroke-width:3.66017747"
     d="m 583.45679,71.085349 q -0.23303,0 -0.57587,-0.01627 -0.32697,0 -0.76375,-0.01627 -0.20253,-0.03042 -0.23426,-0.21839 l -0.1085,-1.307905 q -0.0163,-0.125748 0.0623,-0.203734 0.0781,-0.07678 0.20255,-0.061 0.32696,0.01627 0.56123,0.03042 h 0.4209 q 0.26477,0 0.31113,-0.09386 0.0477,-0.109805 0.0477,-0.545367 v -5.267 h -2.22905 v 8.773453 q 0,0.234252 -0.23305,0.234252 h -1.54338 q -0.23423,0 -0.23423,-0.234252 v -0.545368 l -1.26154,0.59173 q -0.21839,0.109968 -0.32698,-0.109968 -0.0477,-0.107366 -0.12445,-0.247656 -0.0781,-0.125748 -0.15616,-0.280614 -0.12445,-0.250113 -0.21839,-0.420921 -0.0781,-0.17076 -0.12445,-0.264753 -1.41771,0.467283 -2.83664,0.778398 -1.40305,0.312319 -2.85127,0.483128 -0.23425,0.03172 -0.26475,-0.186653 l -0.18668,-1.21518 q -0.0477,-0.264753 0.21718,-0.296475 0.26598,-0.03042 0.65517,-0.09386 v -8.601425 l -0.73203,-0.732037 q -0.20375,-0.186652 0,-0.358681 0.71616,-0.671049 1.26154,-1.403069 0.26474,-0.3892 0.49901,-0.778399 0.23303,-0.390419 0.40506,-0.779618 0.0781,-0.154867 0.24889,-0.124447 l 1.44943,0.264754 q 0.12445,0.03188 0.17076,0.140388 0.0477,0.09386 0.0163,0.219611 l -0.18666,0.435578 h 3.49058 q 0.23424,0 0.23424,0.233031 v 0.685674 q 0.15486,-0.155029 0.28063,-0.311115 l 0.24889,-0.280631 q 0.26475,-0.326959 0.46728,-0.639311 0.21839,-0.32696 0.3587,-0.622215 0.0781,-0.156167 0.26475,-0.125747 l 1.4177,0.264737 q 0.12444,0.03188 0.17076,0.140388 0.0634,0.09386 0.0172,0.219611 -0.0477,0.09272 -0.0939,0.20131 -0.0464,0.09386 -0.10997,0.234268 h 3.92858 q 0.23182,0 0.23182,0.233031 v 1.200539 q 0,0.233032 -0.23182,0.233032 h -2.3547 q 0.20375,0.545351 0.32819,0.888188 0.14039,0.342836 0.18667,0.483143 h 1.54216 q 0.25009,0 0.25009,0.250113 v 7.214216 q 0,0.250113 -0.0163,0.374559 -0.0464,0.390419 -0.10981,0.716175 -0.0464,0.234252 -0.18665,0.467283 -0.0927,0.140389 -0.34162,0.250097 -0.25013,0.109968 -0.5466,0.124446 -0.0927,0.01627 -0.29526,0.01627 z m -4.31657,-9.162653 q 0,-0.250112 0.23425,-0.250112 h 2.18147 l -0.32698,-0.794259 q -0.12444,-0.358682 -0.21839,-0.577073 h -0.60759 q -0.62223,0.71738 -1.35549,1.309109 -0.18667,0.140388 -0.34283,-0.04636 l -0.95165,-1.262747 h -1.2774 q 0.0319,0.125748 0.0939,0.296459 0.0781,0.17076 0.15617,0.390419 0.0927,0.233032 0.15486,0.40506 0.0634,0.154867 0.10981,0.280614 h 1.07487 q 0.25011,0 0.25011,0.248892 v 5.624462 q 0,0.234268 -0.25011,0.234268 h -0.73203 q 1.04437,1.760547 1.80691,3.36613 z m -3.02208,7.464329 q -0.28063,-0.514865 -0.49902,-0.841841 -0.0623,-0.109806 -0.0317,-0.20253 0.0317,-0.109968 0.14039,-0.156168 l 0.85767,-0.40506 h -2.85126 v 2.197329 q 0.63809,-0.140389 1.23104,-0.280631 0.59174,-0.156167 1.15295,-0.311099 z m 0.32696,-3.163616 v -0.825981 h -2.71097 v 0.825981 z m 0,-2.119245 v -0.81012 h -2.71097 v 0.81012 z m -1.54337,-2.43036 -0.32696,-0.795479 q -0.12445,-0.358682 -0.21839,-0.577073 h -0.56123 q -0.59173,0.795464 -1.19932,1.371332 h 2.3059 z m -3.02207,25.352837 q -0.0781,-0.09386 -0.0623,-0.218391 0.0163,-0.109968 0.12445,-0.170759 1.80691,-1.044372 2.6329,-2.477943 0.74788,-1.293264 0.98215,-3.568676 h -2.47672 q -0.0634,0 -0.0634,-0.06231 v 0.04636 l -0.32696,0.326976 -0.32698,0.296458 q -0.17076,0.156168 -0.34284,0 l -1.12245,-1.15294 q -0.0781,-0.07808 -0.0781,-0.186686 0.0163,-0.109805 0.0939,-0.187873 2.57066,-2.352276 4.1604,-5.485391 0.10981,-0.154867 0.28063,-0.108667 l 1.4958,0.514866 q 0.1098,0.03042 0.14039,0.139086 0.0464,0.09386 0,0.203734 -0.998,2.087523 -2.39986,3.84807 h 7.63513 q -1.40307,-1.760547 -2.39985,-3.84807 -0.10851,-0.234235 0.15616,-0.342837 l 1.47994,-0.514865 q 0.18787,-0.04636 0.28061,0.124446 1.6056,3.163633 4.16041,5.469547 0.0781,0.07808 0.0781,0.187873 0.0163,0.108666 -0.061,0.186685 l -1.12246,1.152941 q -0.0939,0.07808 -0.18789,0.07808 -0.0768,0 -0.15486,-0.07808 -0.28063,-0.280598 -0.54537,-0.529506 -0.25013,-0.264737 -0.4673,-0.483128 v 0.716176 q 0,1.730045 -0.0634,2.83664 -0.0304,0.622214 -0.0768,1.122455 -0.0319,0.497769 -0.0939,0.856466 -0.14039,0.856483 -0.32698,1.293264 -0.20254,0.467283 -0.54538,0.717412 -0.37454,0.280598 -0.76374,0.341601 -0.32698,0.06344 -1.06023,0.06344 -0.29526,0 -0.91869,-0.03172 -0.60761,-0.01627 -1.52753,-0.07808 -0.0927,0 -0.15617,-0.07808 -0.061,-0.061 -0.061,-0.170759 l -0.0317,-1.371348 q -0.0163,-0.109805 0.061,-0.186685 0.0792,-0.07808 0.21961,-0.06344 0.76374,0.03189 1.27738,0.07808 0.52953,0.03172 0.84186,0.03172 0.39042,0 0.62223,-0.280614 0.21961,-0.311099 0.34406,-1.246885 0.061,-0.513646 0.0927,-1.231058 0.0317,-0.716175 0.0317,-1.634864 v -1.27864 h -3.66262 q -0.14023,1.760547 -0.57586,3.085533 -0.56122,1.634881 -1.49579,2.710974 -0.95165,1.060232 -2.38523,1.932576 -0.17075,0.09386 -0.29526,-0.0623 l -1.01263,-1.232261 z m 3.05379,7.60462 q -0.90283,0.810117 -1.37135,1.854509 -0.46728,1.04314 -0.46728,2.11923 v 0.15487 q 0,0.0623 0.0163,0.14038 0.0163,0.23426 0.0781,0.60759 0.0768,0.3587 0.26475,0.7174 0.18667,0.3587 0.51365,0.60759 0.32698,0.23425 0.87234,0.20253 0.60881,-0.0319 1.09074,-0.62223 0.48314,-0.60881 0.93578,-1.98016 0.40505,-1.2469 0.54537,-2.540152 0.14039,-1.309139 0.17076,-2.586526 -0.76376,0.170759 -1.43359,0.498988 -0.65393,0.311115 -1.21516,0.825981 z m 8.4306,8.086559 q -0.68567,0.56123 -1.40305,0.88821 -0.71618,0.34283 -1.5263,0.62345 -0.21961,0.0781 -0.34283,-0.14039 l -0.63932,-1.44821 v -0.0319 q -0.0781,-0.26474 0.14039,-0.32696 0.3111,-0.12445 0.60758,-0.21961 0.29647,-0.10737 0.59174,-0.24768 0.2806,-0.14038 0.54535,-0.29647 0.28062,-0.15617 0.53073,-0.3587 0.73203,-0.6076 1.19932,-1.38721 0.48314,-0.79426 0.63929,-1.71418 0.15503,-1.01265 -0.0939,-1.85449 -0.24889,-0.841832 -0.81012,-1.479921 -0.54537,-0.638108 -1.37135,-1.028511 -0.8101,-0.405076 -1.77641,-0.513645 -0.0163,1.403053 -0.14038,2.882987 -0.12445,1.46407 -0.62224,2.95987 -0.0634,0.18789 -0.1573,0.4514 -0.077,0.25013 -0.21719,0.57711 -0.12575,0.31233 -0.31233,0.63931 -0.18666,0.32696 -0.40505,0.65395 -0.46728,0.65518 -1.16882,1.15418 -0.70155,0.49777 -1.6837,0.54535 -0.9492,0.061 -1.66658,-0.26597 -0.71618,-0.32696 -1.21518,-0.90285 -0.48315,-0.57707 -0.7479,-1.30911 -0.26475,-0.74791 -0.31233,-1.54337 -0.0927,-1.58852 0.54536,-3.131902 0.65516,-1.542154 1.91672,-2.696331 0.8577,-0.793039 1.90206,-1.293264 1.04316,-0.497784 2.16562,-0.685674 1.12245,-0.20253 2.27541,-0.07678 1.15296,0.108667 2.22783,0.545383 1.10658,0.467283 1.93258,1.231025 0.84182,0.747897 1.32497,1.728825 0.49778,0.966286 0.63809,2.088748 0.14039,1.10659 -0.17076,2.24369 -0.26475,1.10659 -0.88819,2.05702 -0.60761,0.95043 -1.51289,1.68368 z m -12.13957,15.47401 q 0,-0.23303 0.2501,-0.23303 h 3.64554 q -0.24888,-0.7174 -0.51365,-1.35671 -0.25009,-0.65395 -0.5295,-1.26154 -0.0477,-0.12445 0,-0.21839 0.061,-0.10981 0.18667,-0.14039 l 1.52629,-0.42094 q 0.0781,-0.0304 0.15617,0.0163 0.0781,0.0316 0.10981,0.10981 0.37335,0.82474 0.68567,1.65072 0.32699,0.81134 0.60759,1.62146 h 1.82279 q 0.46728,-0.76376 0.85646,-1.57388 0.40628,-0.81012 0.74912,-1.68368 0.0769,-0.18665 0.28063,-0.14039 l 1.558,0.43678 q 0.12445,0.0316 0.17076,0.14039 0.0464,0.0927 0,0.20253 -0.49901,1.30913 -1.26154,2.61825 h 3.81757 q 0.24887,0 0.24887,0.23303 v 1.27863 q 0,0.23303 -0.24887,0.23303 h -13.86843 q -0.2501,0 -0.2501,-0.23303 z m 0.15617,-11.7028 q 0,-0.24889 0.24889,-0.24889 h 13.55731 q 0.2489,0 0.2489,0.24889 v 1.27862 q 0,0.23303 -0.2489,0.23303 h -13.55731 q -0.24889,0 -0.24889,-0.23303 z m 10.534,6.27963 v -1.97892 h -7.01291 v 1.97892 z m -8.8979,1.55802 q -0.23423,0 -0.23423,-0.23181 v -4.62889 q 0,-0.23425 0.23423,-0.23425 h 10.78289 q 0.23426,0 0.23426,0.23425 v 4.62767 q 0,0.23425 -0.23426,0.23425 h -10.78289 z m 12.1396,9.83369 v 1.41771 q 0,0.23425 -0.21961,0.23425 h -4.81436 v 0.81012 q 0.0163,0.39042 0.0163,0.79424 0,0.14039 -0.0163,0.18791 h 4.0201 q 0.21961,0 0.21961,0.21717 v 1.43355 q 0,0.21961 -0.21961,0.21961 h -4.0506 q -0.0477,0.60639 -0.0781,1.13712 -0.0317,0.51364 -0.0623,0.95041 1.19932,0.43556 2.25955,1.05902 1.059,0.62344 2.07167,1.34083 0.1098,0.0464 0.1098,0.14039 0,0.0927 -0.0477,0.17076 l -0.98093,1.18346 q -0.14023,0.17203 -0.29646,0.0634 -0.81012,-0.59172 -1.62024,-1.10659 -0.81012,-0.52951 -1.73004,-0.90285 -0.0781,0.23182 -0.14039,0.3892 -0.29648,0.71618 -0.87234,1.21518 -0.57709,0.49901 -1.30913,0.76378 -0.71738,0.2806 -1.47993,0.3111 -0.76376,0.0319 -1.43357,-0.17076 -0.85771,-0.26474 -1.35669,-0.88821 -0.49781,-0.60759 -0.49781,-1.38719 0,-0.67105 0.327,-1.23228 0.3416,-0.57585 0.93456,-0.9492 0.76374,-0.46729 1.83863,-0.57707 1.09072,-0.10981 2.38399,0.12444 0.0477,-0.71616 0.0477,-1.63486 h -5.09619 q -0.21839,0 -0.21839,-0.21961 v -1.43357 q 0,-0.21718 0.21961,-0.21718 h 5.09497 v -1.79348 h -5.82823 q -0.21839,0 -0.21839,-0.2318 l -0.0304,-1.41893 q 0,-0.23427 0.23303,-0.23427 h 5.84407 v -2.08752 q 0,-0.23425 0.20255,-0.23425 h 1.5275 q 0.23303,0 0.23303,0.23425 v 2.08752 h 4.81558 q 0.21839,0 0.21839,0.23427 z m -7.24716,8.78929 q -0.56122,-0.0939 -1.13709,-0.12574 -0.57587,-0.0304 -1.1371,0.0623 -0.28061,0.0477 -0.53073,0.17076 -0.24889,0.12575 -0.38919,0.34406 -0.14039,0.26475 -0.0304,0.48314 0.1098,0.20253 0.38919,0.29648 0.40508,0.12444 0.84186,0.10866 0.45141,-0.0319 0.84183,-0.18668 0.40384,-0.15617 0.70033,-0.43678 0.31232,-0.29648 0.4514,-0.71618 z m 6.84088,11.1721 v 1.41771 q 0,0.23423 -0.21717,0.23423 h -2.61825 q 0.18667,0.60759 0.3587,1.20054 0.18665,0.57589 0.3892,1.18348 0.0464,0.25009 -0.15617,0.29647 l -1.49578,0.43556 q -0.1098,0.0477 -0.18667,0 -0.0623,-0.0465 -0.1098,-0.12444 -0.23303,-0.76376 -0.46728,-1.4958 -0.21718,-0.73203 -0.43557,-1.49579 h -7.72906 q -0.20253,0 -0.20253,-0.23424 v -1.41771 q 0,-0.21839 0.20253,-0.21839 h 7.2142 l -0.46728,-1.99358 -6.74692,0.0163 q -0.20253,0 -0.20253,-0.23303 v -1.41891 q 0,-0.0927 0.0464,-0.15503 0.0623,-0.0781 0.15617,-0.0781 h 6.34186 q -0.10981,-0.51486 -0.20253,-0.98215 -0.0939,-0.46728 -0.18667,-0.98092 -0.0477,-0.23427 0.18667,-0.26598 l 1.55801,-0.26477 q 0.21839,-0.0304 0.24889,0.20255 0.12575,0.56121 0.21962,1.13832 0.1085,0.57585 0.23181,1.15295 h 4.05304 q 0.0927,0 0.15486,0.0781 0.0623,0.061 0.0623,0.15503 v 1.41891 q 0,0.23303 -0.21717,0.23303 l -3.6309,-0.0163 q 0.12444,0.51363 0.23303,1.01265 0.12575,0.48315 0.28061,0.98093 h 3.11726 q 0.21717,0 0.21717,0.21961 z m -4.30071,6.23327 v 1.51165 q 0,0.21839 -0.23303,0.21839 h -0.79548 q -1.01265,0 -1.88498,-0.0623 -0.87236,-0.0477 -1.57389,-0.20253 -0.70152,-0.14039 -1.26275,-0.42092 -0.54538,-0.26475 -0.93457,-0.71738 -0.48314,-0.56124 -0.62224,-1.2457 -0.12575,-0.70153 0.0304,-1.58974 l 0.12444,-0.73203 q 0.0464,-0.23425 0.26476,-0.20374 l 1.62024,0.2806 q 0.21961,0.0317 0.17076,0.25011 l -0.13909,0.7784 q -0.0623,0.32698 -0.0623,0.54537 0.0163,0.21961 0.061,0.34284 v 0.0319 l 0.0317,0.14039 q 0.0163,0.0464 0.0781,0.1098 l 0.0317,0.0304 q 0.21839,0.23304 0.65393,0.37334 0.43678,0.12575 0.98215,0.20253 0.56123,0.0634 1.18348,0.0939 0.63929,0.0317 1.2469,0.0317 h 0.79546 q 0.23305,0 0.23305,0.23303 z" />
  <path
     inkscape:connector-curvature="0"
     id="path4518"
     style="fill:#3f3642;fill-opacity:1;stroke:none;stroke-width:3.66017747"
     d="m 535.12824,83.919971 q 0.10867,0.186653 -0.0634,0.296458 l -1.38721,0.81012 q -0.18669,0.09386 -0.32698,-0.07808 -0.5295,-0.82598 -1.09073,-1.604379 -0.54537,-0.795463 -1.15296,-1.559221 -0.14039,-0.170759 0.0304,-0.326992 l 1.30914,-0.918689 q 0.0781,-0.04766 0.17075,-0.03172 0.0939,0.01627 0.14152,0.09386 0.62225,0.810121 1.19932,1.634881 0.59295,0.827217 1.16882,1.6837 z m -1.79347,2.103384 q 0.34283,0.514865 0.49899,1.091938 0.15616,0.561227 0.12444,1.13708 -0.0163,0.561244 -0.23303,1.122471 -0.20253,0.545367 -0.59295,1.027291 -0.46728,0.561228 -1.05901,0.873563 -0.57709,0.326976 -1.23226,0.497785 -0.63809,0.17076 -1.33963,0.219611 -0.68567,0.04636 -1.33962,0.04636 -0.2184,0 -0.2184,-0.219611 v -1.510435 q 0,-0.234251 0.2184,-0.234251 0.79425,0 1.60439,-0.09273 0.81132,-0.109805 1.43478,-0.577088 0.54536,-0.40506 0.68567,-1.028511 0.13909,-0.639312 -0.21961,-1.231025 -0.37334,-0.591729 -0.94921,-0.88822 -0.57709,-0.296474 -1.26276,-0.390403 -0.67103,-0.09272 -1.37135,-0.03042 -0.70153,0.0623 -1.30912,0.202546 v 2.83664 q 0,0.622231 -0.20253,1.168802 -0.20253,0.529522 -0.57586,0.934566 -0.35871,0.420937 -0.87357,0.67105 -0.49777,0.248876 -1.09074,0.295254 -0.56121,0.03172 -1.04313,-0.124446 -0.48316,-0.156168 -0.87358,-0.467283 -0.37333,-0.296491 -0.62222,-0.747913 -0.23427,-0.436782 -0.28063,-0.935787 -0.0163,-0.09272 -0.0163,-0.186669 v -0.186653 q 0,-0.747913 0.2806,-1.41893 0.29527,-0.685674 0.77842,-1.261558 0.499,-0.59173 1.15294,-1.044356 0.67105,-0.467299 1.40308,-0.810136 v -2.82078 h -3.31856 q -0.21961,0 -0.21961,-0.21839 v -1.417694 q 0,-0.248909 0.21961,-0.248909 h 3.31856 v -2.197312 q 0,-0.218391 0.23303,-0.218391 h 1.51288 q 0.21717,0 0.21717,0.218391 v 2.196092 h 3.46007 q 0.10851,0 0.15487,0.07922 0.0623,0.061 0.0623,0.170759 v 1.41771 q 0,0.219611 -0.21719,0.219611 h -3.46008 v 2.21197 q 0.90407,-0.186653 1.85448,-0.186653 0.95165,-0.01627 1.82279,0.202513 0.87354,0.20253 1.62144,0.653969 0.74791,0.451406 1.26154,1.200523 z m -8.52334,2.852485 v -1.994799 q -0.68568,0.436782 -1.18346,1.059012 -0.48437,0.623451 -0.48437,1.356707 0,0.140389 0.0163,0.18667 0.0317,0.280614 0.21839,0.451422 0.20253,0.17076 0.49901,0.140388 0.46728,-0.04636 0.70031,-0.405076 0.23425,-0.358682 0.23425,-0.794243 z m 9.50549,5.235278 q 0.23425,0 0.23425,0.250113 v 1.339626 q 0,0.234235 -0.23425,0.234235 h -5.06447 v 3.443028 h 4.27021 q 0.23301,0 0.23301,0.25009 v 1.33963 q 0,0.23425 -0.23301,0.23425 h -4.27021 v 4.4093 h 5.37558 q 0.25011,0 0.25011,0.23425 v 1.33963 q 0,0.23425 -0.25011,0.23425 h -13.55607 q -0.25013,0 -0.25013,-0.23425 v -1.33963 q 0,-0.23425 0.25013,-0.23425 h 1.69831 v -6.31137 q 0,-0.23303 0.24889,-0.23303 h 1.58974 q 0.23303,0 0.23303,0.23303 v 6.31137 h 2.24491 v -9.676298 h -5.70378 q -0.23424,0 -0.23424,-0.234235 v -1.339626 q 0,-0.250113 0.23424,-0.250113 z m -13.72811,28.890992 q -0.20253,-0.15617 -0.0317,-0.37457 1.1383,-1.29325 1.54338,-2.63288 0.48313,-1.47991 0.48313,-4.33121 v -5.67326 q 0,-0.23303 0.23304,-0.23303 h 10.70602 q 0.23301,0 0.23301,0.23303 v 11.35996 q 0,0.26475 -0.0163,0.51487 0,0.24889 -0.0163,0.51364 -0.0163,0.15617 -0.0477,0.32698 -0.0163,0.18789 -0.0781,0.37456 -0.10867,0.34161 -0.23303,0.48314 -0.14039,0.14039 -0.43678,0.24889 -0.29526,0.10981 -0.6698,0.12445 -0.12445,0.0163 -0.35871,0.0163 h -0.59173 q -0.2806,0 -0.90285,-0.0304 -0.62465,-0.0163 -1.59096,-0.0477 -0.0927,0 -0.17076,-0.061 -0.0623,-0.0488 -0.0623,-0.14153 l -0.0781,-1.32376 q -0.0163,-0.10981 0.0623,-0.18789 0.0781,-0.0781 0.20251,-0.0781 0.91994,0.0317 1.43359,0.0634 0.52951,0.0163 0.68567,0.0163 0.52951,0 0.63932,-0.10981 0.10996,-0.10736 0.10996,-0.65271 v -2.22906 h -7.12271 q -0.14039,0.99801 -0.43556,1.7764 -0.57707,1.58974 -1.90206,2.99159 -0.14039,0.14038 -0.29525,0.0163 z m 11.04763,-9.4274 v -2.05701 h -6.9336 v 2.05701 z m -6.9336,2.99158 v 0.54537 q 0,0.21839 -0.0163,0.3587 h 6.94947 v -2.21317 h -6.93481 v 1.3091 z" />
  <path
     inkscape:connector-curvature="0"
     id="path4506"
     style="fill:#3f3642;fill-opacity:1;stroke:none;stroke-width:3.66017747"
     d="m 483.07932,68.881997 q -1.15295,2.135106 -2.55601,4.03596 -1.40308,1.900838 -2.9916,3.708967 -0.0623,0.07808 -0.15617,0.07808 -0.0927,0.01627 -0.17076,-0.04636 l -1.26274,-1.012634 q -0.17076,-0.141527 -0.0304,-0.312352 1.79104,-2.010643 3.3027,-4.160406 1.52751,-2.16681 2.66459,-4.58131 h -6.5139 q -0.65393,0.93455 -1.32373,1.82277 -0.67105,0.872327 -1.43359,1.73003 -0.0781,0.07808 -0.17076,0.09272 -0.0792,0 -0.15616,-0.061 l -1.21642,-1.013854 q -0.0781,-0.0623 -0.0927,-0.140388 0,-0.09386 0.061,-0.17076 1.45063,-1.636084 2.66583,-3.382007 1.23102,-1.74467 2.18145,-3.708967 0.0316,-0.07808 0.12445,-0.109805 0.1098,-0.03042 0.18668,0 l 1.46529,0.655172 q 0.0781,0.03156 0.10965,0.124446 0.0304,0.09386 0,0.187889 -0.2501,0.497785 -0.54657,0.980929 -0.28063,0.483144 -0.57589,0.951647 h 6.66885 q 0.23425,0 0.3282,0.186653 l 0.66981,1.012666 q 0.0927,0.186653 0.0304,0.373339 -0.54537,1.403053 -1.26156,2.758556 z m -8.55504,17.733561 q 0,0.280614 -0.28063,0.280614 h -1.51164 q -0.26475,0 -0.26475,-0.280614 l 0.0304,-8.087764 q 0,-0.264753 0.26597,-0.264753 h 1.51042 q 0.28063,0 0.28063,0.264753 z m 8.40011,-1.963077 q -0.0488,0.950443 -0.1879,1.869132 -0.12445,0.904065 -0.40506,1.80813 -0.26474,0.81012 -0.67104,1.573877 -0.3892,0.763758 -0.99679,1.387209 -0.20253,0.20253 -0.40506,0.357478 l -0.21839,0.187889 q -0.1098,0.09272 -0.23303,0.186669 -0.21961,0.170744 -0.45142,0.296475 -0.23425,0.139087 -0.46849,0.326976 -0.2184,0.154866 -0.37334,-0.04766 l -0.90406,-1.261558 q -0.12445,-0.234236 0.0781,-0.390403 0.18666,-0.124447 0.37333,-0.233032 0.20253,-0.124446 0.37455,-0.264753 0.17076,-0.124446 0.34162,-0.264769 0.18789,-0.140226 0.34406,-0.31232 0.46728,-0.483143 0.76376,-1.059028 0.29527,-0.577072 0.48192,-1.232245 0.21961,-0.793039 0.31234,-1.62024 0.1098,-0.824761 0.14038,-1.682463 0.0304,-0.856482 0.0163,-1.683667 0,-0.824777 -0.0163,-1.666602 l -0.0317,-2.586545 q 0,-0.264753 0.2806,-0.264753 h 1.57388 q 0.28063,0 0.28063,0.264753 l 0.0163,2.570667 q 0,0.904065 0.0163,1.838631 0.0163,0.935787 -0.0317,1.902074 z m 1.35425,22.299029 -1.12245,1.05901 q -0.18667,0.18667 -0.37334,0 l -1.29326,-1.29326 q -0.62222,-0.62223 -1.23105,-1.21518 -0.60759,-0.59293 -1.23102,-1.15296 -0.62225,-0.56123 -1.33963,-1.10658 -1.18469,1.29325 -2.43158,2.47671 -1.23105,1.18468 -2.63289,2.2754 -0.0781,0.0781 -0.1879,0.0623 -0.0927,-0.0163 -0.17075,-0.0927 l -1.01265,-1.18346 q -0.0781,-0.0792 -0.0623,-0.17203 0.0163,-0.10997 0.0927,-0.20253 2.49381,-1.94844 4.59719,-4.23847 2.11926,-2.30592 3.97374,-4.84731 h -7.41797 q -0.24889,0 -0.24889,-0.26475 v -1.511672 q 0,-0.108504 0.0623,-0.186653 0.0781,-0.07808 0.18666,-0.07808 h 9.25659 q 0.18667,0 0.327,0.187873 l 0.62343,0.950442 q 0.14039,0.21717 0,0.40506 -0.85648,1.27741 -1.76055,2.50845 -0.90284,1.21518 -1.88621,2.38398 0.73204,0.57711 1.37135,1.15296 0.65517,0.57709 1.27862,1.16882 0.65395,0.60759 1.29327,1.2469 l 1.33962,1.30914 q 0.0781,0.0781 0.0781,0.18665 0,0.0939 -0.0781,0.17076 z m 0.51487,6.38946 q -0.77962,1.04313 -1.62146,2.0558 -0.82598,0.99799 -1.60438,1.88621 -0.76376,0.87233 -1.43356,1.57386 -0.65518,0.70032 -1.09075,1.1371 0.6381,0.56123 1.26156,1.12245 0.62344,0.56123 1.23225,1.18346 0.061,0.0781 0.0769,0.18789 0.0163,0.0927 -0.1098,0.17076 l -1.18346,1.01265 q -0.18667,0.17076 -0.37334,-0.0163 -1.52751,-1.60437 -3.17948,-3.02208 -1.65194,-1.41892 -3.53816,-2.57188 -0.21717,-0.15616 -0.0769,-0.37335 l 0.85648,-1.27861 q 0.15617,-0.21718 0.37458,-0.0781 0.82596,0.51486 1.58974,1.1383 0.77838,0.60759 1.558,1.23106 0.32699,-0.34284 0.81012,-0.85771 0.499,-0.5295 1.07487,-1.18347 0.59295,-0.67102 1.23226,-1.43356 0.63808,-0.76375 1.29326,-1.58973 h -10.84633 q -0.24889,0 -0.24889,-0.26476 v -1.52751 q 0,-0.24889 0.24889,-0.24889 h 12.09202 q 0.20251,0 0.35869,0.14038 l 1.23104,1.21518 q 0.17076,0.17076 0.0163,0.39042 z m -0.51487,25.52363 -1.12245,1.06023 q -0.18667,0.18667 -0.37334,0 l -1.29326,-1.29327 q -0.62222,-0.62343 -1.23105,-1.2164 -0.60759,-0.59172 -1.23102,-1.15295 -0.62225,-0.56123 -1.33963,-1.1066 -1.18469,1.29327 -2.43158,2.47795 -1.23105,1.18347 -2.63289,2.27541 -0.0781,0.0781 -0.1879,0.0623 -0.0927,-0.0163 -0.17075,-0.0939 l -1.01265,-1.18344 q -0.0781,-0.0781 -0.0623,-0.17076 0.0163,-0.10997 0.0927,-0.20375 2.49381,-1.94722 4.59719,-4.23849 2.11926,-2.3059 3.97374,-4.84608 h -7.41797 q -0.24889,0 -0.24889,-0.26476 v -1.51287 q 0,-0.10737 0.0623,-0.18543 0.0781,-0.0781 0.18666,-0.0781 h 9.25659 q 0.18667,0 0.327,0.18666 l 0.62343,0.95164 q 0.14039,0.21717 0,0.40386 -0.85648,1.27861 -1.76055,2.50965 -0.90284,1.21518 -1.88621,2.384 0.73204,0.57586 1.37135,1.15295 0.65517,0.57587 1.27862,1.16882 0.65395,0.60759 1.29327,1.2469 l 1.33962,1.30789 q 0.0781,0.0781 0.0781,0.18791 0,0.0927 -0.0781,0.17076 z" />
  <path
     inkscape:connector-curvature="0"
     id="path10"
     style="fill:#ffffff;fill-opacity:1;stroke:none;stroke-width:3.53447962"
     d="m 516.36193,29.016185 q 0.0861,-0.431206 0.45948,-0.374654 4.40159,0.432401 8.63001,1.151063 4.2567,0.718679 8.45568,1.811997 0.48891,0.115459 0.34517,0.574957 l -0.80467,2.300948 q -0.11547,0.374656 -0.48893,0.259196 -8.02564,-1.755459 -16.65447,-2.733349 -0.48894,-0.05656 -0.40293,-0.545473 l 0.45947,-2.444685 z m 8.4851,-11.851105 q 0.69041,-0.40293 1.06389,-0.660948 0.40293,-0.28865 0.51838,-0.37467 0.89068,-0.632658 1.75428,-1.496249 0.89185,-0.862415 1.78373,-1.868564 h -9.17669 q -0.0566,0.05781 -0.17201,0.143735 -0.0861,0.05781 -0.20148,0.171995 l -0.34519,0.345202 q 2.04177,2.100662 4.77509,3.739484 z m -3.25054,1.726006 q -1.17936,-0.777602 -2.18548,-1.58227 -1.00733,-0.804684 -1.8992,-1.638821 -1.00616,0.776407 -2.04176,1.466809 -1.00731,0.690403 -2.09946,1.293621 -0.23093,0.11546 -0.40294,0.05891 -0.17321,-0.08719 -0.2592,-0.259195 l -1.12161,-2.503609 q -0.20146,-0.345185 0.172,-0.574927 1.29481,-0.718678 2.50242,-1.610547 1.23708,-0.920143 2.4164,-1.927456 1.12161,-0.977889 2.07121,-2.0417678 0.97787,-1.065058 1.78373,-2.214928 0.17203,-0.2297562 0.40175,-0.173204 l 3.02081,0.4324 q 0.34521,0.05655 0.43119,0.315732 0.11547,0.230935 -0.0578,0.488952 -0.20031,0.287472 -0.40175,0.604381 l -0.40293,0.574959 h 10.64231 q 0.43121,0 0.43121,0.4312058 v 2.589582 q 0,0.143892 -0.0862,0.229741 -1.32307,1.726007 -2.90534,3.221093 -1.55281,1.496264 -3.36483,2.819339 4.11179,1.72599 10.18165,3.250547 0.4595,0.114203 0.31694,0.603203 l -0.77758,2.474153 q -0.14248,0.373461 -0.5455,0.287472 -7.42123,-2.041754 -12.42605,-4.630173 -1.00731,0.574927 -1.89803,0.977857 -0.86357,0.401754 -1.63998,0.74697 2.5307,0.632673 4.86108,1.38079 2.33041,0.748132 4.45816,1.610545 0.20147,0.08718 0.2592,0.259196 0.0861,0.173205 -0.0283,0.345201 l -1.09331,2.243218 q -0.1439,0.374671 -0.54668,0.201467 -4.57362,-1.811997 -9.75045,-3.105633 -0.20146,-0.0589 -0.31693,-0.20145 -0.11545,-0.173206 -0.0283,-0.4324 l 0.66094,-1.696537 q -3.25053,1.237069 -7.50721,2.386938 -0.17203,0.0589 -0.3452,-0.02828 -0.17201,-0.08592 -0.22977,-0.287471 l -0.60437,-2.560123 q -0.0862,-0.488952 0.34518,-0.574942 2.76161,-0.662127 4.94827,-1.380821 2.21495,-0.718663 3.88203,-1.380789 0.0578,-0.02827 0.17321,-0.05781 0.14374,-0.05781 0.37347,-0.143736 0.20029,-0.08608 0.34521,-0.143735 z" />
  <path
     style="fill:none;stroke:#ff4a58;stroke-width:4;stroke-linecap:square;stroke-linejoin:miter;stroke-miterlimit:4;stroke-dasharray:none;stroke-opacity:1"
     d="M 2,44.372118 H 149.71912"
     id="path16"
     inkscape:connector-curvature="0" />
  <path
     style="fill:none;stroke:#397ec3;stroke-width:4;stroke-linecap:square;stroke-linejoin:miter;stroke-miterlimit:4;stroke-dasharray:none;stroke-opacity:1"
     d="M 152,44.372118 H 299.71911"
     id="path18"
     inkscape:connector-curvature="0" />
  <path
     style="fill:none;stroke:#502011;stroke-width:4;stroke-linecap:square;stroke-linejoin:miter;stroke-miterlimit:4;stroke-dasharray:none"
     d="M 302,44.372118 H 449.71912"
     id="path20"
     inkscape:connector-curvature="0" />
  <path
     style="fill:none;stroke:#3f3642;stroke-width:4;stroke-linecap:square;stroke-linejoin:miter;stroke-miterlimit:4;stroke-dasharray:none;stroke-opacity:1;fill-opacity:1"
     d="M 452,44.372118 H 599.71762"
     id="path22"
     inkscape:connector-curvature="0" />
</svg>
