<?xml version="1.0" encoding="UTF-8" standalone="no"?>
<svg
   xmlns:dc="http://purl.org/dc/elements/1.1/"
   xmlns:cc="http://creativecommons.org/ns#"
   xmlns:rdf="http://www.w3.org/1999/02/22-rdf-syntax-ns#"
   xmlns:svg="http://www.w3.org/2000/svg"
   xmlns="http://www.w3.org/2000/svg"
   xmlns:sodipodi="http://sodipodi.sourceforge.net/DTD/sodipodi-0.dtd"
   xmlns:inkscape="http://www.inkscape.org/namespaces/inkscape"
   viewBox="0 0 600 320"
   version="1.1"
   id="svg28"
   sodipodi:docname="preview.room.svg"
   height="100%"
   width="100%"
   inkscape:version="0.92.3 (2405546, 2018-03-11)">
  <metadata
     id="metadata34">
    <rdf:RDF>
      <cc:Work
         rdf:about="">
        <dc:format>image/svg+xml</dc:format>
        <dc:type
           rdf:resource="http://purl.org/dc/dcmitype/StillImage" />
        <dc:title></dc:title>
      </cc:Work>
    </rdf:RDF>
  </metadata>
  <defs
     id="defs32" />
  <sodipodi:namedview
     pagecolor="#ffffff"
     bordercolor="#666666"
     borderopacity="1"
     objecttolerance="10"
     gridtolerance="10"
     guidetolerance="10"
     inkscape:pageopacity="0"
     inkscape:pageshadow="2"
     inkscape:window-width="1842"
     inkscape:window-height="1051"
     id="namedview30"
     showgrid="false"
     inkscape:zoom="1.8664327"
     inkscape:cx="300"
     inkscape:cy="160"
     inkscape:window-x="-9"
     inkscape:window-y="-9"
     inkscape:window-maximized="1"
     inkscape:current-layer="svg28" />
  <path
     inkscape:connector-curvature="0"
     style="fill:#ffdb8e;fill-opacity:0.70588237;stroke:#73461c;stroke-width:2.57624316;stroke-linecap:round;stroke-linejoin:round;stroke-opacity:1"
     d="M 596.33832,46.890821 V 2.6301101 H 3.6615389 V 317.36975 H 282.00057 V 197.1047 h 314.33775 v -47.16413"
     id="path8"
     sodipodi:nodetypes="cccccccc" />
  <path
     inkscape:connector-curvature="0"
     style="fill:#ffeb51;fill-opacity:1;stroke:#73461c;stroke-width:2.57624316;stroke-linecap:round;stroke-linejoin:round;stroke-opacity:1"
     d="m 78.499687,202.64791 h 88.280983 v 33.57704 H 78.499687 Z"
     id="path4517" />
  <path
     inkscape:connector-curvature="0"
     style="fill:#ffeb51;fill-opacity:1;stroke:#73461c;stroke-width:2.57624316;stroke-linecap:round;stroke-linejoin:round;stroke-opacity:1"
     d="M 60.287366,286.10876 H 163.30875 v 24.66323 H 60.287366 Z"
     id="path4507" />
  <path
     inkscape:connector-curvature="0"
     style="fill:#ffeb51;fill-opacity:1;stroke:#73461c;stroke-width:2.57624316;stroke-linecap:round;stroke-linejoin:round;stroke-opacity:1"
     d="m 10.505758,286.04692 h 42.639403 v 24.78691 H 10.505758 Z"
     id="path4499" />
  <path
     inkscape:connector-curvature="0"
     style="fill:#ffeb51;fill-opacity:1;stroke:#73461c;stroke-width:2.57624316;stroke-linecap:round;stroke-linejoin:round;stroke-opacity:1"
     d="m 170.50936,286.1431 h 46.79145 v 24.66926 h -46.79145 z"
     id="path12" />
  <path
     inkscape:connector-curvature="0"
     style="fill:#ffeb51;fill-opacity:1;stroke:#73461c;stroke-width:2.57624316;stroke-linecap:round;stroke-linejoin:round;stroke-opacity:1"
     d="m 10.842388,202.47531 h 59.664083 v 33.92225 H 10.842388 Z"
     id="path4519" />
  <path
     inkscape:connector-curvature="0"
     style="fill:#ffeb51;fill-opacity:1;stroke:#73461c;stroke-width:2.57624316;stroke-linecap:round;stroke-linejoin:round;stroke-opacity:1"
     d="M 5.1819723,178.94133 H 166.46339 v 15.74084 H 5.1819723"
     id="path4521" />
  <path
     inkscape:connector-curvature="0"
     style="fill:#ffeb51;fill-opacity:1;stroke:#73461c;stroke-width:2.57626724;stroke-linecap:round;stroke-linejoin:round;stroke-miterlimit:4;stroke-dasharray:none;stroke-opacity:1"
     d="M 224.79766,166.51268 H 509.51377 V 189.7521 H 224.79766 Z"
     id="path4505" />
  <path
     inkscape:connector-curvature="0"
     style="fill:#ffeb51;fill-opacity:1;stroke:#73461c;stroke-width:2.57624316;stroke-linecap:round;stroke-linejoin:round;stroke-opacity:1"
     d="M 516.22574,195.82156 V 68.515729 H 534.2646 V 195.82156"
     id="path14" />
  <path
     inkscape:connector-curvature="0"
     id="path4561"
     style="fill:#73461c;fill-opacity:1;stroke:none;stroke-width:2.57624316"
     d="m 235.74069,84.530603 q 0.0944,0 0.1726,0.06271 0.0791,0.06271 0.0791,0.157157 l 0.0309,0.785761 h 0.0317 q 0.92744,-1.179076 2.13829,-1.179076 0.72392,0 1.19537,0.28339 0.40877,0.251619 0.7703,0.974688 h 0.0317 q 1.02192,-1.258078 2.29544,-1.258078 1.32074,0 1.9339,0.723079 0.59768,0.707596 0.59768,2.500671 v 5.07862 q 0,0.236158 -0.23616,0.236158 h -1.63505 q -0.23616,0 -0.23616,-0.236158 v -4.748866 q 0,-1.179055 -0.21983,-1.55605 -0.23615,-0.362391 -0.88022,-0.362391 -0.42509,0 -0.83298,0.377842 -0.42509,0.393314 -0.42509,0.77031 v 5.519155 q 0,0.236158 -0.23616,0.236158 h -1.60413 q -0.25161,0 -0.25161,-0.236158 v -4.748866 q 0,-1.194516 -0.21984,-1.55605 -0.21985,-0.362391 -0.88022,-0.362391 -0.44054,0 -0.84931,0.377842 -0.40876,0.393314 -0.40876,0.77031 v 5.519155 q 0,0.236158 -0.2516,0.236158 h -1.65137 q -0.2353,0 -0.2353,-0.236158 v -7.893604 q 0,-0.236147 0.2353,-0.236147 h 1.54144 z m 14.6073,-0.173475 q 2.09191,0 2.89399,0.738519 0.81752,0.771156 0.81752,2.595145 v 4.968705 q 0,0.236158 -0.23616,0.236158 h -1.52514 q -0.23615,0 -0.23615,-0.236158 l -0.0309,-0.927435 h -0.0317 q -0.99101,1.32075 -2.70506,1.32075 -1.08461,0 -1.80767,-0.723058 -0.72393,-0.723935 -0.72393,-1.855769 0,-1.39975 1.08546,-2.17005 1.05368,-0.7703 3.27097,-0.7703 h 0.80122 v -0.26707 q 0,-0.755705 -0.36068,-1.053679 -0.36239,-0.283389 -1.25893,-0.283389 -0.59682,0 -1.27351,0.109935 -0.67584,0.110782 -1.43068,0.330611 -0.14169,0.04717 -0.25162,-0.03173 -0.0944,-0.07805 -0.0944,-0.219829 v -1.116382 q 0,-0.157146 0.17349,-0.204377 1.46158,-0.440536 2.92403,-0.440536 z m 0.7703,4.513586 q -2.3109,0 -2.3109,1.414345 0,0.534998 0.31431,0.832993 0.28338,0.330621 0.75484,0.330621 0.91199,0 1.47791,-0.581384 0.56678,-0.566768 0.56678,-1.556907 v -0.440535 h -0.80294 z m 5.55095,-4.104821 q 0,-0.23529 0.25162,-0.23529 h 1.76041 q 0.25248,0 0.25248,0.23529 v 7.893604 q 0,0.236158 -0.25161,0.236158 h -1.76043 q -0.25247,0 -0.25247,-0.236158 z m 0,-3.710649 q 0,-0.236158 0.25162,-0.236158 h 1.76041 q 0.25248,0 0.25248,0.236158 v 1.462444 q 0,0.235301 -0.25161,0.235301 h -1.76043 q -0.25247,0 -0.25247,-0.235301 z m 6.74546,3.475359 q 0.25162,0 0.25162,0.23529 l 0.0317,0.80207 h 0.0309 q 1.07,-1.210835 2.57882,-1.210835 1.46245,0 2.12283,0.832982 0.66123,0.83385 0.66123,2.767753 v 4.701634 q 0,0.236158 -0.25246,0.236158 h -1.60328 q -0.23616,0 -0.23616,-0.236158 v -4.544488 q 0,-1.210835 -0.3143,-1.665965 -0.31431,-0.425084 -1.10091,-0.425084 -0.66039,0 -1.2263,0.566779 -0.58224,0.549593 -0.58224,1.193659 v 4.875099 q 0,0.236158 -0.2516,0.236158 h -1.65051 q -0.23616,0 -0.23616,-0.236158 v -7.893604 q 0,-0.23529 0.23616,-0.23529 z" />
  <path
     inkscape:connector-curvature="0"
     id="path4543"
     style="fill:#73461c;fill-opacity:1;stroke:none;stroke-width:2.57624316"
     d="m 87.781034,261.54341 h 0.03088 l 2.988437,-3.36543 q 0.07815,-0.0627 0.171751,-0.0627 h 1.635908 q 0.25162,0 0.330621,0.18893 0.09444,0.18892 -0.07911,0.36153 l -3.144737,3.47535 3.20743,3.78966 q 0.141685,0.1726 0.04717,0.36067 -0.07805,0.18892 -0.314314,0.18892 h -1.68314 q -0.0772,0 -0.17174,-0.078 l -2.988448,-3.6325 h -0.03088 v 3.47535 q 0,0.23615 -0.236158,0.23615 H 85.87873 q -0.237015,0 -0.237015,-0.23615 v -11.60426 q 0,-0.23616 0.236158,-0.23616 h 1.666831 q 0.236158,0 0.236158,0.23616 z m 7.814602,-3.19282 q 0,-0.2353 0.25162,-0.2353 h 1.760417 q 0.252476,0 0.252476,0.23616 v 7.89361 q 0,0.23529 -0.251619,0.23529 h -1.760418 q -0.252476,0 -0.252476,-0.23529 v -7.89361 z m 0,-3.70979 q 0,-0.23616 0.25162,-0.23616 h 1.760417 q 0.252476,0 0.252476,0.23616 v 1.46159 q 0,0.23615 -0.251619,0.23615 h -1.760418 q -0.252476,0 -0.252476,-0.23615 z m 10.928414,3.78879 q 0.23616,0 0.23616,0.23616 v 1.08545 q 0,0.2353 -0.23616,0.2353 h -2.53158 v 3.3809 q 0,1.03737 0.21985,1.35253 0.20437,0.31429 0.92743,0.31429 0.53501,0 1.05368,-0.12624 0.1417,-0.0309 0.25162,0.0472 0.11078,0.0636 0.11078,0.2207 v 1.0846 q 0,0.18892 -0.20436,0.21984 -0.75571,0.158 -1.68315,0.158 -1.57151,0 -2.18552,-0.67668 -0.6286,-0.64407 -0.6286,-2.37444 v -3.60073 h -1.46245 q -0.23615,0 -0.23615,-0.2353 v -1.08545 q 0,-0.23616 0.23615,-0.23616 h 1.46245 v -2.81411 q 0,-0.25162 0.2353,-0.25162 h 1.65137 q 0.25161,0 0.25161,0.25162 v 2.81411 z m 1.90299,3.86867 q 0,-2.09106 1.03737,-3.2392 1.03737,-1.11638 2.95582,-1.11638 1.03821,0 2.29629,0.25161 0.18893,0.0309 0.18893,0.21985 v 1.16359 q 0,0.1417 -0.1108,0.21984 -0.0944,0.0636 -0.21983,0.0318 -0.95922,-0.23616 -1.88667,-0.23616 -1.00645,0 -1.50967,0.64492 -0.50323,0.64406 -0.50323,2.06014 0,1.44612 0.53413,2.0756 0.535,0.62859 1.63592,0.62859 0.86476,0 1.80766,-0.28339 0.14169,-0.0464 0.25162,0.0317 0.12623,0.0791 0.12623,0.23615 v 1.14815 q 0,0.18892 -0.18893,0.23529 -1.13182,0.26793 -2.26451,0.26793 -1.99658,0 -3.08119,-1.10091 -1.06999,-1.08545 -1.06999,-3.23919 z m 10.95849,-3.22374 h 0.0326 q 1.13184,-1.13184 2.49896,-1.13184 1.47877,0 2.12369,0.8493 0.66037,0.84845 0.66037,2.86135 v 4.59173 q 0,0.23529 -0.23616,0.23529 h -1.61959 q -0.2353,0 -0.2353,-0.23529 v -4.27657 q 0,-1.3843 -0.29884,-1.8403 -0.29884,-0.45599 -1.11637,-0.45599 -0.64492,0 -1.22716,0.58138 -0.58137,0.58223 -0.58137,1.2426 v 4.74888 q 0,0.23529 -0.23616,0.23529 h -1.66597 q -0.23614,0 -0.23614,-0.23529 V 254.6408 q 0,-0.23616 0.23528,-0.23616 h 1.66683 q 0.23616,0 0.23616,0.23616 v 4.43372 z m 12.48619,2.43712 q -0.0317,-2.05927 -1.60414,-2.05927 -0.86476,0 -1.28985,0.47145 -0.45513,0.4723 -0.54959,1.58868 h 3.44358 z m -3.44358,1.39977 q 0.0944,1.14814 0.70675,1.66595 0.59769,0.53501 1.79305,0.53501 0.81755,0 2.02837,-0.37698 0.14169,-0.0472 0.25162,0.0472 0.10994,0.078 0.10994,0.23615 v 1.06914 q 0,0.18893 -0.17261,0.23529 -1.28984,0.31516 -2.48436,0.31516 -2.10736,0 -3.22372,-1.10091 -1.14816,-1.10092 -1.14816,-3.23919 0,-2.12283 1.00646,-3.23919 1.0219,-1.11638 2.94035,-1.11638 3.66428,0 3.66428,4.30834 v 0.21984 q 0,0.0944 -0.0164,0.2207 -0.0309,0.21984 -0.23529,0.21984 h -5.22118 z m 9.00912,-4.79612 q 0.25161,0 0.25161,0.23616 l 0.0317,0.80207 h 0.0317 q 1.06913,-1.21084 2.57883,-1.21084 1.46159,0 2.12195,0.833 0.66124,0.83298 0.66124,2.76773 v 4.70165 q 0,0.23529 -0.25162,0.23529 h -1.60414 q -0.23614,0 -0.23614,-0.23529 v -4.5445 q 0,-1.21083 -0.31432,-1.66597 -0.31429,-0.42507 -1.10091,-0.42507 -0.66037,0 -1.22628,0.56591 -0.58138,0.5496 -0.58138,1.19538 v 4.87425 q 0,0.23529 -0.25162,0.23529 h -1.65137 q -0.23615,0 -0.23615,-0.23529 v -7.89361 q 0,-0.23616 0.23615,-0.23616 z" />
  <path
     inkscape:connector-curvature="0"
     id="path2"
     style="fill:#73461c;fill-opacity:1;stroke:none;stroke-width:2.57624316"
     d="m 590.51232,65.146883 q -0.0318,-2.059283 -1.60414,-2.059283 -0.86476,0 -1.28898,0.471459 -0.456,0.472305 -0.55046,1.588681 h 3.44358 z m -3.44358,1.399751 q 0.0944,1.148142 0.7076,1.665976 0.59769,0.535009 1.7922,0.535009 0.81755,0 2.02837,-0.377853 0.1417,-0.04632 0.25162,0.04801 0.11078,0.07805 0.11078,0.235291 v 1.069997 q 0,0.188926 -0.17346,0.235301 -1.28898,0.314292 -2.48435,0.314292 -2.10737,0 -3.22375,-1.100054 -1.14729,-1.100909 -1.14729,-3.23919 0,-2.122834 1.00646,-3.239205 1.02191,-1.116362 2.94035,-1.116362 3.66343,0 3.66343,4.308335 v 0.21984 q 0,0.09444 -0.0155,0.219839 -0.0317,0.220696 -0.23616,0.220696 z m -0.18893,11.305409 q 0.25161,0 0.25161,0.236158 l 0.0318,0.802069 h 0.0309 q 1.07001,-1.210824 2.57881,-1.210824 1.46246,0 2.12283,0.832982 0.66123,0.832993 0.66123,2.767742 v 4.701645 q 0,0.235301 -0.25246,0.235301 h -1.60328 q -0.23616,0 -0.23616,-0.235301 v -4.544499 q 0,-1.210835 -0.3143,-1.666832 -0.31431,-0.424206 -1.10091,-0.424206 -0.66039,0 -1.2263,0.565901 -0.58223,0.549603 -0.58223,1.194516 v 4.87512 q 0,0.235301 -0.25161,0.235301 h -1.65052 q -0.23615,0 -0.23615,-0.235301 v -7.893614 q 0,-0.236158 0.23615,-0.236158 z m 4.76433,16.415823 q 0.23616,0 0.23616,0.236158 v 1.084602 q 0,0.236158 -0.23616,0.236158 h -2.53158 v 3.380885 q 0,1.037371 0.22069,1.352531 0.20438,0.3143 0.92745,0.3143 0.53501,0 1.05368,-0.12624 0.14169,-0.0309 0.25162,0.0472 0.10993,0.0627 0.10993,0.22069 v 1.0846 q 0,0.18893 -0.20436,0.21984 -0.75485,0.15716 -1.68315,0.15716 -1.57151,0 -2.18466,-0.67584 -0.62946,-0.64406 -0.62946,-2.374435 v -3.600724 h -1.46245 q -0.2353,0 -0.2353,-0.236158 v -1.084602 q 0,-0.236158 0.2353,-0.236158 h 1.46245 v -2.814106 q 0,-0.25162 0.23616,-0.25162 h 1.65051 q 0.25161,0 0.25161,0.25162 v 2.814106 z m -1.13182,19.183574 q -0.0318,-2.05929 -1.60414,-2.05929 -0.86476,0 -1.28898,0.47146 -0.456,0.47232 -0.55046,1.58868 h 3.44358 z m -3.44358,1.39975 q 0.0944,1.14816 0.7076,1.66598 0.59769,0.535 1.7922,0.535 0.81755,0 2.02837,-0.37786 0.1417,-0.0463 0.25162,0.0481 0.11078,0.078 0.11078,0.23531 v 1.06999 q 0,0.18893 -0.17346,0.2353 -1.28898,0.31431 -2.48435,0.31431 -2.10737,0 -3.22375,-1.10006 -1.14729,-1.10092 -1.14729,-3.23921 0,-2.12281 1.00646,-3.23919 1.02191,-1.11637 2.94035,-1.11637 3.66343,0 3.66343,4.30833 v 0.21985 q 0,0.0944 -0.0155,0.21984 -0.0317,0.2207 -0.23616,0.2207 z m 0.81752,11.30543 q 0.25162,0 0.25162,0.23615 v 1.36799 h 0.0317 q 0.50322,-0.72308 1.43067,-1.17907 0.91199,-0.42507 1.98113,-0.42507 h 0.079 q 0.2353,0 0.2353,0.23615 v 1.17906 q 0,0.23616 -0.2353,0.23616 h -0.079 q -1.63505,0 -2.49982,0.75482 -0.86475,0.75485 -0.86475,2.17007 v 3.5535 q 0,0.23529 -0.23616,0.23529 h -1.74583 q -0.2353,0 -0.2353,-0.23529 v -7.89361 q 0,-0.23615 0.2353,-0.23615 z" />
  <path
     inkscape:connector-curvature="0"
     style="fill:none;stroke:#73461c;stroke-width:2.57624316;stroke-linecap:round;stroke-linejoin:round;stroke-opacity:1"
     d="M 282.00057,197.1047 H 224.38203 V 317.06024"
     id="path4523"
     sodipodi:nodetypes="ccc" />
  <path
     inkscape:connector-curvature="0"
     style="fill:#ffffff;fill-opacity:1;stroke:#73461c;stroke-width:2.57624316;stroke-opacity:1"
     d="M 260.96727,304.8037 H 242.8391 a 2.8312914,2.8312914 0 0 1 -2.83731,-2.83817 v -2.03866 a 2.8312914,2.8312914 0 0 1 2.83731,-2.83817 h 18.12817 a 2.8312914,2.8312914 0 0 1 2.8373,2.83817 v 2.03866 a 2.8312914,2.8312914 0 0 1 -2.8373,2.83817 z"
     id="path10" />
  <path
     sodipodi:nodetypes="cccccc"
     inkscape:connector-curvature="0"
     style="fill:#ffffff;fill-opacity:1;stroke:#73461c;stroke-width:2.57624316;stroke-opacity:1"
     d="m 236.99962,275.19236 c -0.0779,-10.9318 6.44331,-19.90738 14.61675,-20.11789 8.17332,-0.20991 14.94777,8.42347 15.18436,19.35101 0.23683,10.92757 -6.15259,20.07092 -14.32132,20.49403 -8.16865,0.42222 -15.0672,-8.03336 -15.46262,-18.95256 z"
     id="path4527" />
  <path
     sodipodi:nodetypes="cccccc"
     inkscape:connector-curvature="0"
     style="fill:#ffffff;fill-opacity:1;stroke:#73461c;stroke-width:2.57624316;stroke-opacity:1"
     d="m 203.85281,298.41461 c 0.0517,3.64643 -4.30099,6.64021 -9.75623,6.71025 -5.45505,0.0701 -9.97667,-2.80939 -10.13494,-6.45435 -0.15772,-3.64492 4.10681,-6.69456 9.55872,-6.83563 5.45126,-0.1409 10.05532,2.6787 10.32043,6.32038 z"
     id="path4509" />
  <path
     sodipodi:nodetypes="cccccc"
     inkscape:connector-curvature="0"
     style="fill:#ffffff;fill-opacity:1;stroke:#73461c;stroke-width:2.57624316;stroke-opacity:1"
     d="m 57.928386,219.37374 c 0.03458,3.61738 -2.851207,6.58747 -6.468087,6.65702 -3.617158,0.0698 -6.615328,-2.78736 -6.719702,-6.40368 -0.104923,-3.61608 2.722657,-6.64175 6.337558,-6.78154 3.614809,-0.13989 6.667634,2.65816 6.842502,6.27144 z"
     id="path4503" />
  <path
     sodipodi:nodetypes="cccccc"
     inkscape:connector-curvature="0"
     style="fill:#ffffff;fill-opacity:1;stroke:#73461c;stroke-width:2.57624316;stroke-opacity:1"
     d="m 36.610833,219.37374 c 0.03458,3.61771 -2.85173,6.58794 -6.468948,6.65702 -3.617156,0.0698 -6.615326,-2.78736 -6.719701,-6.40368 -0.104922,-3.61608 2.722657,-6.64175 6.337558,-6.78154 3.615465,-0.14085 6.669355,2.65747 6.84422,6.27144 z"
     id="path4501" />
  <path
     inkscape:connector-curvature="0"
     style="stroke:#73461c;stroke-width:2.57626724;stroke-linecap:round;stroke-linejoin:round;stroke-miterlimit:4;stroke-dasharray:none;stroke-opacity:1"
     d="m 596.33832,205.99446 v 33.28763"
     id="path4495" />
  <path
     inkscape:connector-curvature="0"
     style="fill:none;fill-opacity:1;stroke:#73461c;stroke-width:2.57626724;stroke-linecap:round;stroke-linejoin:round;stroke-miterlimit:4;stroke-dasharray:none;stroke-opacity:1"
     d="m 596.33832,290.80697 v 26.56278 H 288.73744"
     id="path16" />
  <path
     inkscape:connector-curvature="0"
     id="path18"
     style="fill:#f04c55;stroke:none;stroke-width:2.57624316;stroke-opacity:1;fill-opacity:1"
     d="m 544.50773,198.89604 -40.34139,46.91855 h -73.04166 l 7.24011,29.7642 h 112.62306 v -29.7642 h -35.61399 l 29.13301,-46.91855" />
  <path
     inkscape:connector-curvature="0"
     id="path4573"
     style="fill:#ffffff;fill-opacity:1;stroke:none;stroke-width:2.57624316;stroke-opacity:1"
     d="m 447.19271,257.39395 q 0,-0.23616 0.25162,-0.23616 h 1.7613 q 0.25161,0 0.25161,0.23616 v 7.89361 q 0,0.23616 -0.25161,0.23616 h -1.76043 q -0.25249,0 -0.25249,-0.23616 z m 0,-3.71064 q 0,-0.23616 0.25162,-0.23616 h 1.7613 q 0.25161,0 0.25161,0.23616 v 1.46244 q 0,0.23529 -0.25161,0.23529 h -1.76043 q -0.25249,0 -0.25249,-0.23529 z m 6.74633,3.47448 q 0.25162,0 0.25162,0.23616 l 0.0309,0.80207 h 0.0318 q 1.06913,-1.21083 2.5788,-1.21083 1.46246,0 2.12283,0.83297 0.66039,0.83299 0.66039,2.76775 v 4.70165 q 0,0.23616 -0.25162,0.23616 h -1.60414 q -0.23616,0 -0.23616,-0.23616 v -4.5445 q 0,-1.21083 -0.3143,-1.66596 -0.31431,-0.42509 -1.10091,-0.42509 -0.66038,0 -1.2263,0.56677 -0.58136,0.5496 -0.58136,1.19366 v 4.87512 q 0,0.23616 -0.25162,0.23616 h -1.65137 q -0.23616,0 -0.23616,-0.23616 v -7.89361 q 0,-0.23616 0.23616,-0.23616 z m 13.77432,0.31516 q 0.2353,0 0.2353,0.2353 v 1.08546 q 0,0.23529 -0.2353,0.23529 h -2.5316 v 3.38088 q 0,1.03824 0.21985,1.35254 0.20438,0.3143 0.92744,0.3143 0.535,0 1.0537,-0.12537 0.14168,-0.0317 0.2516,0.0463 0.10994,0.0636 0.10994,0.2207 v 1.0846 q 0,0.18893 -0.20439,0.22071 -0.75484,0.15714 -1.68228,0.15714 -1.57237,0 -2.18552,-0.67669 -0.62946,-0.64407 -0.62946,-2.37444 v -3.60073 h -1.46158 q -0.23616,0 -0.23616,-0.23529 v -1.08546 q 0,-0.2353 0.23616,-0.2353 h 1.46158 v -2.81498 q 0,-0.25161 0.23615,-0.25161 h 1.65138 q 0.2516,0 0.2516,0.25161 v 2.81498 z m 7.48484,3.08119 q -0.0317,-2.05927 -1.60414,-2.05927 -0.86476,0 -1.28984,0.4723 -0.45513,0.47059 -0.54959,1.58697 z m -3.44357,1.39976 q 0.0944,1.14814 0.70675,1.66683 0.59769,0.53499 1.79306,0.53499 0.81753,0 2.02837,-0.37783 0.14168,-0.0472 0.25161,0.0472 0.10993,0.0791 0.10993,0.23615 v 1.06915 q 0,0.18893 -0.17262,0.23529 -1.28982,0.31516 -2.48434,0.31516 -2.10737,0 -3.22375,-1.10091 -1.14814,-1.10091 -1.14814,-3.23919 0,-2.12283 1.00645,-3.2392 1.02192,-1.11637 2.94036,-1.11637 3.6634,0 3.6634,4.30834 v 0.21984 q 0,0.0944 -0.0155,0.22069 -0.0309,0.21983 -0.2353,0.21983 h -5.22119 z m 9.1199,-4.79611 q 0.25161,0 0.25161,0.23616 v 1.36798 h 0.0309 q 0.50322,-0.72306 1.43067,-1.17906 0.91199,-0.42508 1.98199,-0.42508 h 0.0781 q 0.23616,0 0.23616,0.23616 v 1.17905 q 0,0.23616 -0.23616,0.23616 h -0.0781 q -1.63591,0 -2.50067,0.75484 -0.86476,0.75484 -0.86476,2.17006 v 3.5535 q 0,0.23616 -0.23615,0.23616 h -1.74498 q -0.23615,0 -0.23615,-0.23616 v -7.89361 q 0,-0.23616 0.23615,-0.23616 z m 5.99062,3.01936 q 0,-0.23616 0.23616,-0.23616 h 4.7171 q 0.25161,0 0.25161,0.23616 v 1.35253 q 0,0.23529 -0.25161,0.23529 h -4.7171 q -0.23616,0 -0.23616,-0.23529 z m 9.27705,-3.01849 q 0.25161,0 0.25161,0.23529 l 0.0318,0.80207 h 0.0309 q 1.06914,-1.21083 2.53159,-1.21083 1.52513,0 2.4062,1.13182 0.89568,1.14815 0.89568,3.22374 0,2.02837 -0.92745,3.16019 -0.92745,1.17992 -2.37443,1.17992 -1.43068,0 -2.45259,-1.02191 h -0.0317 v 4.16665 q 0,0.2353 -0.25161,0.2353 h -1.65053 q -0.23615,0 -0.23615,-0.2353 v -11.43165 q 0,-0.23616 0.23615,-0.23616 h 1.5406 z m 4.04127,4.18209 q 0,-2.73597 -1.83944,-2.73597 -0.75571,0 -1.28984,0.48777 -0.56678,0.51868 -0.56678,1.14729 v 2.18551 q 0,0.62946 0.56678,1.14815 0.535,0.50322 1.28984,0.50322 0.84844,0 1.35166,-0.69215 0.48778,-0.6913 0.48778,-2.04382 z m 6.08594,-3.22374 h 0.0309 q 1.13183,-1.13182 2.49982,-1.13182 1.4779,0 2.12282,0.84929 0.66037,0.84845 0.66037,2.86135 v 4.59173 q 0,0.23616 -0.23615,0.23616 h -1.6196 q -0.2353,0 -0.2353,-0.23616 v -4.27657 q 0,-1.3843 -0.29883,-1.8403 -0.29885,-0.45513 -1.11638,-0.45513 -0.64492,0 -1.22629,0.58137 -0.58224,0.58138 -0.58224,1.24174 v 4.74889 q 0,0.23616 -0.23615,0.23616 h -1.66597 q -0.23616,0 -0.23616,-0.23616 v -11.60425 q 0,-0.23616 0.2353,-0.23616 h 1.66683 q 0.23615,0 0.23615,0.23616 v 4.4337 z m 10.97479,6.00694 q 1.91845,0 1.91845,-2.7832 0,-2.7832 -1.91845,-2.7832 -0.97467,0 -1.44698,0.66123 -0.45513,0.65953 -0.45513,2.12197 0,1.46245 0.45513,2.12282 0.47231,0.66038 1.44698,0.66038 z m -3.01935,-5.99062 q 1.10092,-1.14814 3.01935,-1.14814 1.91845,0 3.00306,1.14814 1.08545,1.13183 1.08545,3.20742 0,2.07559 -1.08545,3.20742 -1.08461,1.13269 -3.00306,1.13269 -1.93389,0 -3.01935,-1.11638 -1.05368,-1.13268 -1.05368,-3.22373 0,-2.06013 1.05368,-3.20742 z m 10.53512,-0.97554 q 0.25162,0 0.25162,0.23616 l 0.0317,0.80207 h 0.0309 q 1.06999,-1.21083 2.57881,-1.21083 1.46245,0 2.12283,0.83297 0.66124,0.83299 0.66124,2.76775 v 4.70165 q 0,0.23616 -0.25248,0.23616 h -1.60328 q -0.23615,0 -0.23615,-0.23616 v -4.5445 q 0,-1.21083 -0.31431,-1.66596 -0.3143,-0.42509 -1.10091,-0.42509 -0.66037,0 -1.22629,0.56677 -0.58222,0.5496 -0.58222,1.19366 v 4.87512 q 0,0.23616 -0.25162,0.23616 h -1.65052 q -0.23615,0 -0.23615,-0.23616 v -7.89361 q 0,-0.23616 0.23615,-0.23616 z m 12.83141,3.39635 q -0.0317,-2.05927 -1.60413,-2.05927 -0.86477,0 -1.28898,0.4723 -0.456,0.47059 -0.55046,1.58697 z m -3.44357,1.39976 q 0.0944,1.14814 0.70759,1.66683 0.59684,0.53499 1.79221,0.53499 0.81754,0 2.02837,-0.37783 0.14169,-0.0472 0.25161,0.0472 0.10994,0.0791 0.10994,0.23615 v 1.06915 q 0,0.18893 -0.17261,0.23529 -1.28983,0.31516 -2.48435,0.31516 -2.10737,0 -3.22375,-1.10091 -1.14814,-1.10091 -1.14814,-3.23919 0,-2.12283 1.00647,-3.2392 1.02189,-1.11637 2.94034,-1.11637 3.66428,0 3.66428,4.30834 v 0.21984 q 0,0.0944 -0.0164,0.22069 -0.0309,0.21983 -0.23529,0.21983 h -5.22118 z" />
</svg>
