<?xml version="1.0" encoding="UTF-8" standalone="no"?>
<svg
   xmlns:dc="http://purl.org/dc/elements/1.1/"
   xmlns:cc="http://creativecommons.org/ns#"
   xmlns:rdf="http://www.w3.org/1999/02/22-rdf-syntax-ns#"
   xmlns:svg="http://www.w3.org/2000/svg"
   xmlns="http://www.w3.org/2000/svg"
   xmlns:sodipodi="http://sodipodi.sourceforge.net/DTD/sodipodi-0.dtd"
   xmlns:inkscape="http://www.inkscape.org/namespaces/inkscape"
   viewBox="0 0 600 260"
   version="1.1"
   id="svg6"
   sodipodi:docname="temp.fee.svg"
   height="100%"
   width="100%"
   inkscape:version="0.92.3 (2405546, 2018-03-11)">
  <metadata
     id="metadata12">
    <rdf:RDF>
      <cc:Work
         rdf:about="">
        <dc:format>image/svg+xml</dc:format>
        <dc:type
           rdf:resource="http://purl.org/dc/dcmitype/StillImage" />
        <dc:title />
      </cc:Work>
    </rdf:RDF>
  </metadata>
  <defs
     id="defs10" />
  <sodipodi:namedview
     pagecolor="#ffffff"
     bordercolor="#666666"
     borderopacity="1"
     objecttolerance="10"
     gridtolerance="10"
     guidetolerance="10"
     inkscape:pageopacity="0"
     inkscape:pageshadow="2"
     inkscape:window-width="1842"
     inkscape:window-height="1051"
     id="namedview8"
     showgrid="false"
     inkscape:zoom="1.3093261"
     inkscape:cx="81.948897"
     inkscape:cy="130"
     inkscape:window-x="-9"
     inkscape:window-y="-9"
     inkscape:window-maximized="1"
     inkscape:current-layer="svg6"
     showborder="true" />
  <path
     inkscape:connector-curvature="0"
     style="opacity:1;fill:#fef5ae;fill-opacity:0.70588235;stroke:#fecd2b;stroke-width:2.9059999;stroke-linecap:round;stroke-linejoin:round;stroke-miterlimit:4;stroke-dasharray:none;stroke-opacity:1"
     d="m 40.183115,250.93274 c 3.8e-5,-22.16247 3.319821,-44.21196 9.859337,-65.48421 l 235.594588,65.48421 z"
     id="path4835"
     sodipodi:nodetypes="cccc" />
  <path
     inkscape:connector-curvature="0"
     style="opacity:1;fill:#bdffb4;fill-opacity:0.70588235;stroke:#639f6c;stroke-width:2.9059999;stroke-linecap:round;stroke-linejoin:round;stroke-miterlimit:4;stroke-dasharray:none;stroke-opacity:1"
     d="M 55.097058,176.39789 A 245.45296,233.39415 0 0 1 196.50785,24.888543 245.45296,233.39415 0 0 1 409.24873,35.590476 L 291.19623,240.21724 Z"
     id="path4833" />
  <path
     inkscape:connector-curvature="0"
     style="opacity:1;fill:#ffd0aa;fill-opacity:0.70588235;stroke:#d94e1f;stroke-width:2.9059999;stroke-linecap:round;stroke-linejoin:round;stroke-miterlimit:4;stroke-dasharray:none;stroke-opacity:1"
     d="m 419.87124,37.811246 a 245.45296,233.39415 0 0 1 95.47287,86.798964 L 304.24,243.68544 Z"
     id="path4831" />
  <path
     inkscape:connector-curvature="0"
     style="opacity:1;fill:#c7ceff;fill-opacity:0.70588237;stroke:#636185;stroke-width:2.9059999;stroke-linecap:round;stroke-linejoin:round;stroke-miterlimit:4;stroke-dasharray:none;stroke-opacity:1"
     d="M 520.93914,137.60653 A 245.45296,233.39415 0 0 1 551.81688,250.9337 H 306.36296 Z"
     id="path4" />
  <path
     id="path4627"
     style="fill:#4f3327;fill-opacity:1;stroke:none;stroke-width:2.90550232"
     d="m 560.3087,252.12399 h 3.24447 q 0.17143,0 0.17143,0.18208 v 0.96463 q 0,0.16948 -0.17046,0.16948 h -5.23281 q -0.16948,0 -0.16948,-0.16948 v -1.07891 q 0,-0.0562 0.0562,-0.11332 2.29244,-1.80431 3.05368,-2.73504 0.77093,-0.95301 0.77093,-1.86146 0,-1.29392 -1.38496,-1.29392 -0.87359,0 -2.01932,0.5104 -0.11332,0.0581 -0.21598,0 -0.091,-0.0562 -0.091,-0.18111 v -1.07794 q 0,-0.091 0.10266,-0.14818 1.11184,-0.45326 2.4629,-0.45326 1.33944,0 2.08809,0.65858 0.72637,0.64599 0.72637,1.81497 0,1.08956 -0.68085,2.11133 -0.68086,0.99853 -2.7118,2.67888 z m 8.5228,-3.66577 q 1.07794,0 1.67938,0.60144 0.61306,0.61306 0.61306,1.70262 0,1.35009 -0.80579,2.06581 -0.82807,0.72638 -2.32634,0.72638 -1.2145,0 -2.25854,-0.37481 -0.10266,-0.0339 -0.10266,-0.14721 v -1.02177 q 0,-0.12591 0.0794,-0.17046 0.091,-0.0571 0.21598,-0.0116 0.52202,0.21597 1.02177,0.31767 0.49878,0.10266 0.97528,0.10266 0.74962,0 1.18157,-0.37481 0.41936,-0.36319 0.41936,-1.07794 0,-0.65858 -0.46488,-0.94235 -0.47747,-0.28377 -1.65807,-0.28377 H 566.879 q -0.18111,0 -0.18111,-0.16949 v -0.92008 q 0,-0.0678 0.0455,-0.11331 l 2.28081,-2.07647 v -0.0232 h -3.28031 q -0.16949,0 -0.16949,-0.17046 v -0.96463 q 0,-0.18111 0.16949,-0.18111 h 5.09625 q 0.17046,0 0.17046,0.18111 v 1.06729 q 0,0.0678 -0.0455,0.11332 l -2.33796,2.12198 v 0.0233 z m 4.75534,-1.27165 q 0,-0.16948 0.17046,-0.16948 h 1.52054 q 0.17046,0 0.17046,0.16948 v 1.62321 q 0,0.18208 -0.17046,0.18208 h -1.52054 q -0.17046,0 -0.17046,-0.18208 z m 0,4.45027 q 0,-0.17143 0.17046,-0.17143 h 1.52054 q 0.17046,0 0.17046,0.17046 v 1.63483 q 0,0.16948 -0.17046,0.16948 h -1.52054 q -0.17046,0 -0.17046,-0.16948 v -1.63483 z m 5.47106,-2.44063 q 0,0.41936 0.0223,0.96463 0.0339,0.53268 0.1937,1.01015 0.15786,0.46488 0.47553,0.79417 0.31864,0.32929 0.92008,0.32929 0.58981,0 0.90748,-0.32929 0.31767,-0.32929 0.47651,-0.79417 0.15883,-0.47747 0.18207,-1.01015 0.0339,-0.54527 0.0339,-0.96463 0,-0.42033 -0.0339,-0.95397 -0.0232,-0.5443 -0.18207,-1.01015 -0.15884,-0.4765 -0.47651,-0.79417 -0.31767,-0.32929 -0.90748,-0.32929 -0.60144,0 -0.92008,0.32929 -0.31767,0.31767 -0.4765,0.79417 -0.15883,0.46488 -0.19273,1.01015 -0.0223,0.53364 -0.0223,0.95397 z m -1.64645,0 q 0,-0.86293 0.12591,-1.64645 0.12396,-0.79417 0.47553,-1.38495 0.36319,-0.60047 0.99949,-0.96366 0.64696,-0.36319 1.65614,-0.36319 1.01111,0 1.63483,0.36319 0.63533,0.36319 0.99852,0.96462 0.36319,0.60048 0.48813,1.39561 0.1259,0.78352 0.1259,1.63483 0,0.86197 -0.1259,1.64549 -0.12494,0.78255 -0.48813,1.39561 -0.36319,0.60144 -0.99755,0.96462 -0.62469,0.35254 -1.63483,0.35254 -1.01015,0 -1.65711,-0.35254 -0.6363,-0.36318 -0.99949,-0.96462 -0.35157,-0.60047 -0.4765,-1.38496 -0.12494,-0.79417 -0.12494,-1.65614 z m 9.09229,0 q 0,0.41936 0.0213,0.96463 0.0349,0.53268 0.1937,1.01015 0.15884,0.46488 0.47651,0.79417 0.31766,0.32929 0.92007,0.32929 0.58885,0 0.90749,-0.32929 0.31766,-0.32929 0.4765,-0.79417 0.15883,-0.47747 0.18111,-1.01015 0.0349,-0.54527 0.0349,-0.96463 0,-0.42033 -0.0349,-0.95397 -0.0223,-0.5443 -0.18111,-1.01015 -0.15884,-0.4765 -0.4765,-0.79417 -0.31864,-0.32929 -0.90846,-0.32929 -0.60144,0 -0.92007,0.32929 -0.3167,0.31767 -0.47554,0.79417 -0.15883,0.46488 -0.1937,1.01015 -0.0223,0.53364 -0.0223,0.95397 z m -1.64646,0 q 0,-0.86293 0.12494,-1.64645 0.12494,-0.79417 0.4765,-1.38495 0.36319,-0.60047 0.99853,-0.96366 0.64696,-0.36319 1.6571,-0.36319 1.01015,0 1.63483,0.36319 0.63534,0.36319 0.99756,0.96462 0.36415,0.60048 0.48909,1.39561 0.12494,0.78352 0.12494,1.63483 0,0.86197 -0.12591,1.64549 -0.12397,0.78255 -0.48715,1.39561 -0.36319,0.60144 -0.99853,0.96462 -0.62468,0.35254 -1.63483,0.35254 -1.01014,0 -1.65613,-0.35254 -0.63631,-0.36318 -0.9995,-0.96462 -0.35156,-0.60047 -0.4765,-1.38496 -0.1259,-0.79417 -0.1259,-1.65614 z"
     inkscape:connector-curvature="0" />
  <path
     id="path4609"
     style="fill:#4f3327;fill-opacity:1;stroke:none;stroke-width:2.90550232"
     d="m 523.47468,125.78501 h 3.24641 q 0.17046,0 0.17046,0.18207 v 0.96463 q 0,0.16949 -0.17046,0.16949 h -5.23184 q -0.17046,0 -0.17046,-0.16949 v -1.07891 q 0,-0.0562 0.0562,-0.11331 2.29341,-1.80432 3.05368,-2.73505 0.77189,-0.953 0.77189,-1.86146 0,-1.29392 -1.38495,-1.29392 -0.87359,0 -2.02029,0.51137 -0.11332,0.0562 -0.21598,0 -0.0901,-0.0581 -0.0901,-0.18208 v -1.07794 q 0,-0.091 0.10169,-0.14818 1.11184,-0.45326 2.4629,-0.45326 1.33944,0 2.08809,0.65858 0.72637,0.64599 0.72637,1.81498 0,1.08956 -0.68085,2.11133 -0.68086,0.99852 -2.71181,2.67887 v 0.0223 z m 6.44731,-2.92778 q 0,0.41936 0.0223,0.96462 0.0339,0.53268 0.1937,1.01015 0.15787,0.46488 0.47553,0.79417 0.31767,0.32929 0.92008,0.32929 0.58982,0 0.90749,-0.32929 0.31766,-0.32929 0.4765,-0.79417 0.15883,-0.4765 0.18208,-1.01015 0.0339,-0.54526 0.0339,-0.96462 0,-0.42033 -0.0339,-0.95398 -0.0233,-0.54429 -0.18208,-1.01014 -0.15884,-0.4765 -0.4765,-0.79417 -0.31767,-0.32929 -0.90749,-0.32929 -0.60241,0 -0.92008,0.32929 -0.31766,0.31767 -0.4765,0.79417 -0.15883,0.46488 -0.1937,1.01014 -0.0213,0.53365 -0.0213,0.95398 z m -1.64646,0 q 0,-0.86294 0.12591,-1.64645 0.12397,-0.79417 0.47553,-1.38496 0.36319,-0.60047 0.9995,-0.96366 0.64695,-0.36319 1.65613,-0.36319 1.01112,0 1.63483,0.36319 0.63534,0.36319 0.99853,0.96463 0.36318,0.60047 0.48812,1.39561 0.1259,0.78352 0.1259,1.63483 0,0.86196 -0.1259,1.64548 -0.12494,0.78255 -0.48812,1.39561 -0.36319,0.60144 -0.99756,0.96463 -0.62468,0.35253 -1.63483,0.35253 -1.01015,0 -1.6571,-0.35253 -0.63631,-0.36319 -0.9995,-0.96463 -0.35156,-0.60047 -0.4765,-1.38496 -0.12494,-0.79417 -0.12494,-1.65613 z m 8.47826,-2.00964 q 0,-0.16949 0.17046,-0.16949 h 1.52054 q 0.17046,0 0.17046,0.16949 v 1.62321 q 0,0.18207 -0.17046,0.18207 h -1.52054 q -0.17046,0 -0.17046,-0.18207 z m 0,4.45026 q 0,-0.17142 0.17046,-0.17142 h 1.52054 q 0.17046,0 0.17046,0.17045 v 1.63483 q 0,0.16949 -0.17046,0.16949 h -1.52054 q -0.17046,0 -0.17046,-0.16949 v -1.63483 z m 5.47106,-2.44062 q 0,0.41936 0.0223,0.96462 0.0339,0.53268 0.1937,1.01015 0.15786,0.46488 0.47553,0.79417 0.31864,0.32929 0.92008,0.32929 0.59078,0 0.90748,-0.32929 0.31767,-0.32929 0.4765,-0.79417 0.15884,-0.4765 0.18208,-1.01015 0.0339,-0.54526 0.0339,-0.96462 0,-0.42033 -0.0339,-0.95398 -0.0232,-0.54429 -0.18208,-1.01014 -0.15883,-0.4765 -0.4765,-0.79417 -0.31767,-0.32929 -0.90748,-0.32929 -0.60144,0 -0.92008,0.32929 -0.31767,0.31767 -0.4765,0.79417 -0.15884,0.46488 -0.19273,1.01014 -0.0223,0.53365 -0.0223,0.95398 z m -1.64645,0 q 0,-0.86294 0.1259,-1.64645 0.12397,-0.79417 0.47651,-1.38496 0.36318,-0.60047 0.99755,-0.96366 0.64793,-0.36319 1.65808,-0.36319 1.01014,0 1.63386,0.36319 0.63533,0.36319 0.99852,0.96463 0.36319,0.60047 0.48812,1.39561 0.12591,0.78352 0.12591,1.63483 0,0.86196 -0.12591,1.64548 -0.12493,0.78255 -0.48812,1.39561 -0.36319,0.60144 -0.99756,0.96463 -0.62468,0.35253 -1.63482,0.35253 -1.01015,0 -1.65711,-0.35253 -0.63534,-0.36319 -0.99852,-0.96463 -0.35254,-0.60047 -0.47747,-1.38496 -0.12494,-0.79417 -0.12494,-1.65613 z m 9.09228,0 q 0,0.41936 0.0223,0.96462 0.0339,0.53268 0.19273,1.01015 0.15884,0.46488 0.4765,0.79417 0.31767,0.32929 0.92008,0.32929 0.58982,0 0.90748,-0.32929 0.31767,-0.32929 0.47651,-0.79417 0.15883,-0.4765 0.18111,-1.01015 0.0349,-0.54526 0.0349,-0.96462 0,-0.42033 -0.0349,-0.95398 -0.0223,-0.54429 -0.18111,-1.01014 -0.15884,-0.4765 -0.47651,-0.79417 -0.31766,-0.32929 -0.90845,-0.32929 -0.60047,0 -0.91911,0.32929 -0.31766,0.31767 -0.4765,0.79417 -0.15883,0.46488 -0.1937,1.01014 -0.0223,0.53365 -0.0223,0.95398 z m -1.64645,0 q 0,-0.86294 0.12494,-1.64645 0.12494,-0.79417 0.4765,-1.38496 0.36319,-0.60047 0.99853,-0.96366 0.64695,-0.36319 1.6571,-0.36319 1.01015,0 1.63483,0.36319 0.63534,0.36319 0.99852,0.96463 0.36319,0.60047 0.48813,1.39561 0.12494,0.78352 0.12494,1.63483 0,0.86196 -0.12591,1.64548 -0.12397,0.78255 -0.48716,1.39561 -0.36318,0.60144 -0.99852,0.96463 -0.62468,0.35253 -1.63483,0.35253 -1.01015,0 -1.65614,-0.35253 -0.6363,-0.36319 -0.99949,-0.96463 -0.35156,-0.60047 -0.4765,-1.38496 -0.12494,-0.79417 -0.12494,-1.65613 z"
     inkscape:connector-curvature="0" />
  <path
     id="path4589"
     style="fill:#4f3327;fill-opacity:1;stroke:none;stroke-width:2.90550232"
     d="m 408.07103,18.698855 q 0.18111,0 0.18111,0.181109 v 8.138312 q 0,0.16949 -0.18111,0.16949 h -1.30554 q -0.18111,0 -0.18111,-0.16949 v -6.53738 h -0.0232 l -1.89536,1.452751 q -0.12493,0.09007 -0.2489,0.0339 -0.12591,-0.05714 -0.12591,-0.215976 v -1.235807 q 0,-0.05714 0.0678,-0.113314 l 2.19172,-1.668727 q 0.0455,-0.0339 0.0794,-0.0339 h 1.44113 z m 9.18139,2.020292 q 0,1.2145 -1.45275,1.883734 v 0.02228 q 1.71424,0.636305 1.71424,2.237237 0,1.123458 -0.85131,1.781068 -0.86196,0.65858 -2.3951,0.65858 -1.55444,0 -2.39413,-0.65858 -0.86197,-0.65858 -0.86197,-1.782037 0,-0.65858 0.43001,-1.191256 0.40871,-0.533644 1.24937,-0.885209 v -0.02324 q -0.68182,-0.329291 -1.04501,-0.873588 -0.36319,-0.545266 -0.36319,-1.168981 0,-0.953973 0.78352,-1.555412 0.79417,-0.578195 2.2014,-0.578195 1.4082,0 2.19075,0.578195 0.79417,0.601439 0.79417,1.555412 z m -2.95005,1.429508 q 1.41788,-0.419361 1.41788,-1.270673 0,-0.499747 -0.38546,-0.805793 -0.39709,-0.295393 -1.06729,-0.295393 -0.68086,0 -1.04404,0.295393 -0.38547,0.306046 -0.38547,0.805793 0,0.873587 1.46438,1.270673 z m -0.17046,1.158326 q -1.56607,0.476503 -1.56607,1.475027 0,0.601439 0.46488,0.964627 0.47651,0.374811 1.23678,0.374811 0.74962,0 1.2145,-0.374811 0.4426,-0.37481 0.4426,-0.964627 0,-0.544297 -0.38546,-0.88521 -0.1937,-0.170456 -0.54527,-0.317668 -0.35156,-0.147212 -0.86196,-0.272149 z m 5.35678,-2.372826 q 0,-0.169488 0.17045,-0.169488 h 1.52055 q 0.17046,0 0.17046,0.169488 v 1.623207 q 0,0.182078 -0.17046,0.182078 h -1.52055 q -0.17045,0 -0.17045,-0.182078 z m 0,4.450261 q 0,-0.171425 0.17045,-0.171425 h 1.52055 q 0.17046,0 0.17046,0.170456 v 1.634829 q 0,0.16949 -0.17046,0.16949 h -1.52055 q -0.17045,0 -0.17045,-0.16949 v -1.634829 z m 5.47106,-2.440622 q 0,0.41936 0.0223,0.964626 0.0339,0.532676 0.1937,1.010147 0.15787,0.46488 0.47554,0.79417 0.31767,0.329289 0.92007,0.329289 0.58982,0 0.90749,-0.329289 0.31767,-0.32929 0.4765,-0.79417 0.15883,-0.477471 0.18208,-1.010147 0.0339,-0.545266 0.0339,-0.964626 0,-0.42033 -0.0339,-0.953974 -0.0232,-0.544297 -0.18208,-1.010146 -0.15883,-0.476502 -0.4765,-0.79417 -0.31767,-0.329291 -0.90846,-0.329291 -0.60047,0 -0.9191,0.329291 -0.31767,0.317668 -0.47651,0.79417 -0.15883,0.46488 -0.1937,1.010146 -0.0223,0.533644 -0.0223,0.953974 z m -1.64645,0 q 0,-0.862935 0.1259,-1.646452 0.12397,-0.79417 0.47554,-1.384956 0.36318,-0.60047 0.99949,-0.963658 0.64696,-0.363188 1.65613,-0.363188 1.01015,0 1.63483,0.363188 0.63534,0.363188 0.99853,0.964627 0.36319,0.60047 0.48812,1.395609 0.12591,0.783517 0.12591,1.63483 0,0.861965 -0.12591,1.645482 -0.12493,0.782549 -0.48812,1.39561 -0.36319,0.60144 -0.99853,0.96463 -0.62468,0.35253 -1.63386,0.35253 -1.01014,0 -1.6571,-0.35253 -0.63631,-0.36319 -0.99949,-0.96463 -0.35157,-0.60047 -0.47651,-1.384956 -0.12493,-0.794171 -0.12493,-1.656136 z m 9.09131,0 q 0,0.41936 0.0223,0.964626 0.0349,0.532676 0.1937,1.010147 0.15883,0.46488 0.4765,0.79417 0.31767,0.329289 0.91911,0.329289 0.59078,0 0.90748,-0.329289 0.31864,-0.32929 0.47747,-0.79417 0.15884,-0.477471 0.18111,-1.010147 0.0339,-0.545266 0.0339,-0.964626 0,-0.42033 -0.0339,-0.953974 -0.0223,-0.544297 -0.18111,-1.010146 -0.15883,-0.476502 -0.47747,-0.79417 -0.31766,-0.329291 -0.90748,-0.329291 -0.60144,0 -0.92008,0.329291 -0.3167,0.317668 -0.47553,0.79417 -0.15884,0.46488 -0.1937,1.010146 -0.0223,0.533644 -0.0223,0.953974 z m -1.64548,0 q 0,-0.862935 0.12494,-1.646452 0.12493,-0.79417 0.4765,-1.384956 0.36319,-0.60047 0.99852,-0.963658 0.64696,-0.363188 1.65711,-0.363188 1.01014,0 1.63483,0.363188 0.63533,0.363188 0.99755,0.964627 0.36416,0.60047 0.4891,1.395609 0.12493,0.783517 0.12493,1.63483 0,0.861965 -0.1259,1.645482 -0.12397,0.782549 -0.48716,1.39561 -0.36319,0.60144 -0.99852,0.96463 -0.62469,0.35253 -1.63483,0.35253 -1.01015,0 -1.65614,-0.35253 -0.6363,-0.36319 -0.99949,-0.96463 -0.35157,-0.60047 -0.4765,-1.384956 -0.12591,-0.794171 -0.12591,-1.656136 z"
     inkscape:connector-curvature="0" />
  <path
     id="path4571"
     style="fill:#4f3327;fill-opacity:1;stroke:none;stroke-width:2.90550232"
     d="m 26.480766,171.83915 q 0,1.2145 -1.452751,1.88374 v 0.0232 q 1.714246,0.63534 1.714246,2.2353 0,1.12346 -0.85228,1.78204 -0.861966,0.65858 -2.394134,0.65858 -1.555412,0 -2.395103,-0.65858 -0.861965,-0.65858 -0.861965,-1.78204 0,-0.65858 0.430983,-1.19125 0.407738,-0.53365 1.248397,-0.88521 v -0.0232 q -0.680856,-0.32929 -1.044044,-0.87359 -0.363188,-0.54526 -0.363188,-1.16898 0,-0.95397 0.782549,-1.55541 0.794171,-0.57819 2.202371,-0.57819 1.407231,0 2.18978,0.57819 0.794171,0.60144 0.794171,1.55541 z m -2.951022,1.42951 q 1.418854,-0.41936 1.418854,-1.27067 0,-0.49975 -0.386432,-0.8058 -0.397085,-0.29539 -1.066319,-0.29539 -0.681825,0 -1.045013,0.29539 -0.385463,0.30605 -0.385463,0.8058 0,0.87359 1.464373,1.27067 z m -0.170456,1.15833 q -1.566066,0.4765 -1.566066,1.47502 0,0.60144 0.464881,0.96463 0.476502,0.37481 1.237744,0.37481 0.748651,0 1.213531,-0.37481 0.443574,-0.37384 0.443574,-0.96463 0,-0.54429 -0.386432,-0.88521 -0.1937,-0.17045 -0.544298,-0.31766 -0.352534,-0.14722 -0.862934,-0.27215 z m 5.356778,-2.37283 q 0,-0.16949 0.170456,-0.16949 h 1.520546 q 0.170456,0 0.170456,0.16949 v 1.62321 q 0,0.18208 -0.170456,0.18208 h -1.520546 q -0.170456,0 -0.170456,-0.18208 z m 0,4.45026 q 0,-0.17142 0.170456,-0.17142 h 1.520546 q 0.170456,0 0.170456,0.17045 v 1.63483 q 0,0.17046 -0.170456,0.17046 h -1.520546 q -0.170456,0 -0.170456,-0.17046 v -1.6358 z m 5.471061,-2.44062 q 0,0.41936 0.02228,0.96463 0.0339,0.53267 0.1937,1.01014 0.157866,0.46488 0.475534,0.79417 0.318637,0.32929 0.920076,0.32929 0.589817,0 0.907485,-0.32929 0.317668,-0.32929 0.476502,-0.79417 0.158834,-0.4765 0.182078,-1.01014 0.0339,-0.54527 0.0339,-0.96463 0,-0.42033 -0.0339,-0.95397 -0.02324,-0.5443 -0.182078,-1.01015 -0.158834,-0.4765 -0.476502,-0.79417 -0.317668,-0.32929 -0.907485,-0.32929 -0.601439,0 -0.920076,0.32929 -0.317668,0.31767 -0.476502,0.79417 -0.158834,0.46488 -0.192732,1.01015 -0.02228,0.53364 -0.02228,0.95397 z m -1.646452,0 q 0,-0.86197 0.125905,-1.64645 0.123968,-0.79417 0.476503,-1.38496 0.363187,-0.60047 0.997555,-0.96366 0.647927,-0.36318 1.658074,-0.36318 1.010146,0 1.633861,0.36318 0.635336,0.36319 0.998524,0.96463 0.363188,0.60047 0.488124,1.39561 0.125905,0.78352 0.125905,1.63483 0,0.86197 -0.125905,1.64548 -0.124936,0.78352 -0.488124,1.39561 -0.363188,0.60144 -0.997556,0.96463 -0.624683,0.35253 -1.634829,0.35253 -1.010147,0 -1.657105,-0.35253 -0.635337,-0.36319 -0.998524,-0.96463 -0.352535,-0.60047 -0.477471,-1.38495 -0.124937,-0.79417 -0.124937,-1.65614 z m 9.092285,0 q 0,0.41936 0.02228,0.96463 0.0339,0.53267 0.192731,1.01014 0.158835,0.46488 0.476503,0.79417 0.317668,0.32929 0.920076,0.32929 0.589817,0 0.907485,-0.32929 0.317668,-0.32929 0.476502,-0.79417 0.158834,-0.4765 0.18111,-1.01014 0.03487,-0.54527 0.03487,-0.96463 0,-0.42033 -0.03487,-0.95397 -0.02228,-0.5443 -0.18111,-1.01015 -0.158834,-0.4765 -0.476502,-0.79417 -0.317668,-0.32929 -0.908454,-0.32929 -0.60047,0 -0.920076,0.32929 -0.316699,0.31767 -0.475534,0.79417 -0.158834,0.46488 -0.1937,1.01015 -0.02228,0.53364 -0.02228,0.95397 z m -1.646451,0 q 0,-0.86197 0.124937,-1.64645 0.124936,-0.79417 0.476502,-1.38496 0.363188,-0.60047 0.998524,-0.96366 0.646959,-0.36318 1.657105,-0.36318 1.010146,0 1.634829,0.36318 0.635337,0.36319 0.997556,0.96463 0.364156,0.60047 0.489093,1.39561 0.124937,0.78352 0.124937,1.63483 0,0.86197 -0.125906,1.64548 -0.123968,0.78352 -0.487155,1.39561 -0.363188,0.60144 -0.998525,0.96463 -0.624683,0.35253 -1.634829,0.35253 -1.010146,0 -1.656136,-0.35253 -0.636305,-0.36319 -0.999493,-0.96463 -0.351566,-0.60047 -0.476502,-1.38495 -0.125905,-0.79417 -0.125905,-1.65614 z"
     inkscape:connector-curvature="0" />
  <path
     id="path4557"
     style="fill:#4f3327;fill-opacity:1;stroke:none;stroke-width:2.90550232"
     d="m 14.235226,246.02825 q 0.18111,0 0.18111,0.18208 v 1.10118 q 0,0.0223 -0.02228,0.0678 -0.942351,1.55444 -1.725868,3.31421 -0.770926,1.74717 -1.407231,3.71129 -0.0339,0.11332 -0.147213,0.11332 h -1.32781 q -0.113315,0 -0.170456,-0.0794 -0.04552,-0.0794 -0.01162,-0.1937 1.317161,-3.74423 3.258036,-6.8657 v -0.0339 H 8.809687 q -0.170456,0 -0.170456,-0.17046 v -0.96462 q 0,-0.18208 0.170456,-0.18208 z m 2.473551,2.23627 q 0,-0.17046 0.170456,-0.17046 h 1.520547 q 0.170456,0 0.170456,0.17046 v 1.6232 q 0,0.18111 -0.170456,0.18111 h -1.520547 q -0.170456,0 -0.170456,-0.18111 z m 0,4.44929 q 0,-0.17046 0.170456,-0.17046 h 1.520547 q 0.170456,0 0.170456,0.17046 v 1.63386 q 0,0.17046 -0.170456,0.17046 h -1.520547 q -0.170456,0 -0.170456,-0.17046 z m 5.471061,-2.44062 q 0,0.42033 0.02228,0.96462 0.0339,0.53365 0.1937,1.01015 0.157866,0.46488 0.476502,0.79417 0.317669,0.32929 0.919108,0.32929 0.590785,0 0.907484,-0.32929 0.31767,-0.32929 0.476503,-0.79417 0.158834,-0.4765 0.182078,-1.01015 0.0339,-0.54429 0.0339,-0.96462 0,-0.41936 -0.0339,-0.95301 -0.02228,-0.54526 -0.182078,-1.01014 -0.158834,-0.47651 -0.476503,-0.79418 -0.317667,-0.32929 -0.907484,-0.32929 -0.601439,0 -0.920076,0.32929 -0.317668,0.31767 -0.476502,0.79418 -0.158835,0.46488 -0.192732,1.01014 -0.02228,0.53268 -0.02228,0.95301 z m -1.646451,0 q 0,-0.86197 0.125905,-1.64549 0.123968,-0.79417 0.476502,-1.38495 0.363188,-0.60047 0.997556,-0.96463 0.647927,-0.36319 1.658073,-0.36319 1.010147,0 1.633861,0.36319 0.636305,0.36319 0.999493,0.96463 0.363188,0.60144 0.487156,1.39658 0.125905,0.78254 0.125905,1.63386 0,0.86196 -0.125905,1.64645 -0.123968,0.78255 -0.487156,1.39464 -0.363188,0.60241 -0.999493,0.96559 -0.623714,0.35157 -1.633861,0.35157 -1.010146,0 -1.657105,-0.35157 -0.635336,-0.36318 -0.998524,-0.96462 -0.352534,-0.60144 -0.477471,-1.38496 -0.124936,-0.79417 -0.124936,-1.65613 z m 9.092285,0 q 0,0.42033 0.02228,0.96462 0.0339,0.53365 0.192732,1.01015 0.158834,0.46488 0.476502,0.79417 0.317669,0.32929 0.920076,0.32929 0.589817,0 0.907485,-0.32929 0.317668,-0.32929 0.476503,-0.79417 0.158834,-0.4765 0.181109,-1.01015 0.03487,-0.54429 0.03487,-0.96462 0,-0.41936 -0.03487,-0.95301 -0.02227,-0.54526 -0.181109,-1.01014 -0.158835,-0.47651 -0.476503,-0.79418 -0.317668,-0.32929 -0.908453,-0.32929 -0.600471,0 -0.919108,0.32929 -0.317668,0.31767 -0.476502,0.79418 -0.158834,0.46488 -0.1937,1.01014 -0.02228,0.53268 -0.02228,0.95301 z m -1.646451,0 q 0,-0.86197 0.124936,-1.64549 0.124937,-0.79417 0.476502,-1.38495 0.363188,-0.60047 0.998525,-0.96463 0.646958,-0.36319 1.657105,-0.36319 1.010146,0 1.634829,0.36319 0.635336,0.36319 0.998524,0.96463 0.363188,0.60144 0.488124,1.39658 0.124937,0.78254 0.124937,1.63386 0,0.86196 -0.125905,1.64645 -0.123968,0.78255 -0.487156,1.39464 -0.363188,0.60241 -0.998524,0.96559 -0.624683,0.35157 -1.634829,0.35157 -1.010147,0 -1.656137,-0.35157 -0.636305,-0.36318 -0.999493,-0.96462 -0.351565,-0.60144 -0.476502,-1.38496 -0.124936,-0.79417 -0.124936,-1.65613 z"
     inkscape:connector-curvature="0" />
  <path
     id="path4539"
     style="fill:#4f3327;fill-opacity:1;stroke:none;stroke-width:1.39999998;stroke-miterlimit:4;stroke-dasharray:none;stroke-opacity:1"
     d="m 449.46282,212.88422 h 0.0329 l 3.04593,-5.49431 q 0.0988,-0.13268 0.21501,-0.13268 h 1.9525 q 0.215,0 0.29829,0.16561 0.0988,0.14915 -0.0165,0.33123 l -3.47595,5.61052 h 2.30019 q 0.26537,0 0.26537,0.24891 v 0.91039 q 0,0.24793 -0.26537,0.24793 h -3.14472 v 1.25809 h 3.14472 q 0.26537,0 0.26537,0.24793 v 0.91039 q 0,0.24794 -0.26537,0.24794 h -3.14472 v 1.95346 q 0,0.24794 -0.2644,0.24794 h -1.91957 q -0.26537,0 -0.26537,-0.24794 v -1.95346 h -3.14472 q -0.2644,0 -0.2644,-0.24794 v -0.91039 q 0,-0.24793 0.2644,-0.24793 h 3.14472 v -1.25906 h -3.14472 q -0.2644,0 -0.2644,-0.24696 v -0.91039 q 0,-0.24891 0.2644,-0.24891 h 2.30019 l -3.47498,-5.61052 q -0.11622,-0.18208 -0.0339,-0.33123 0.0998,-0.16465 0.31476,-0.16465 h 2.01932 q 0.13269,0 0.21501,0.13172 l 3.04594,5.49527 z m 15.70714,-5.62699 q 0.26537,0 0.26537,0.26536 v 11.86704 q 0,0.24794 -0.26537,0.24794 h -1.9031 q -0.26537,0 -0.26537,-0.24794 v -9.53392 h -0.0329 l -2.7641,2.11908 q -0.18208,0.13172 -0.36416,0.0494 -0.18208,-0.0823 -0.18208,-0.31477 v -1.80334 q 0,-0.0833 0.0998,-0.16562 l 3.19412,-2.43384 q 0.0659,-0.0484 0.11622,-0.0484 h 2.10164 z m 9.40124,4.36987 q 1.82078,0 2.84739,0.99271 1.00918,0.99369 1.00918,2.83093 0,4.35244 -4.9655,4.35244 -1.57188,0 -2.99558,-0.4794 -0.14915,-0.0668 -0.14915,-0.23244 v -1.48956 q 0,-0.16464 0.11622,-0.24793 0.13172,-0.0833 0.29733,-0.0165 0.76124,0.2644 1.4237,0.41355 0.66245,0.14915 1.24162,0.14915 2.68081,0 2.68081,-2.45031 0,-2.01835 -1.937,-2.01835 -0.97625,0 -1.70457,0.64502 -0.0823,0.0494 -0.14818,0.0494 h -1.67163 q -0.26537,0 -0.26537,-0.2644 l 0.31477,-6.3553 q 0,-0.0998 0.0659,-0.16561 0.0833,-0.0833 0.18208,-0.0833 h 6.73689 q 0.24794,0 0.24794,0.26536 v 1.40627 q 0,0.2489 -0.24794,0.2489 h -4.81635 l -0.13269,2.86289 h 0.0329 q 0.82807,-0.41355 1.83725,-0.41355 z m 8.14315,1.82078 q 0,0.6121 0.0329,1.40627 0.0504,0.77867 0.28184,1.47309 0.23244,0.67891 0.69538,1.15929 0.46294,0.47941 1.3404,0.47941 0.861,0 1.32394,-0.47941 0.46392,-0.48038 0.69539,-1.15929 0.23244,-0.69442 0.2644,-1.47213 0.0504,-0.79417 0.0504,-1.40723 0,-0.61306 -0.0504,-1.39076 -0.0329,-0.79418 -0.2644,-1.47213 -0.23244,-0.69635 -0.69539,-1.15929 -0.46294,-0.48038 -1.32394,-0.48038 -0.87746,0 -1.3404,0.48038 -0.46391,0.46294 -0.69538,1.15833 -0.23244,0.67795 -0.28087,1.47309 -0.0339,0.7777 -0.0339,1.39076 z m -2.39994,0 q 0,-1.25905 0.18208,-2.39994 0.18207,-1.1593 0.69538,-2.01933 0.52977,-0.87746 1.45662,-1.40723 0.94332,-0.52977 2.41641,-0.52977 1.47309,0 2.38348,0.52977 0.92686,0.52977 1.45663,1.40723 0.52977,0.87747 0.71185,2.03579 0.18208,1.14186 0.18208,2.38251 0,1.25906 -0.18208,2.40092 -0.18208,1.14186 -0.71185,2.03579 -0.52977,0.87746 -1.45663,1.40626 -0.91039,0.5133 -2.38251,0.5133 -1.47406,0 -2.41738,-0.5133 -0.92685,-0.5288 -1.45662,-1.40626 -0.51331,-0.87747 -0.69538,-2.01933 -0.18208,-1.15832 -0.18208,-2.41641 z m 13.2578,0 q 0,0.6121 0.0329,1.40627 0.0504,0.77867 0.28184,1.47309 0.23244,0.67891 0.69538,1.15929 0.46294,0.47941 1.34041,0.47941 0.86099,0 1.32394,-0.47941 0.46391,-0.48038 0.69538,-1.15929 0.23244,-0.69442 0.2644,-1.47213 0.0504,-0.79417 0.0504,-1.40723 0,-0.61306 -0.0504,-1.39076 -0.0329,-0.79418 -0.2644,-1.47213 -0.23244,-0.69635 -0.69538,-1.15929 -0.46295,-0.48038 -1.32394,-0.48038 -0.87747,0 -1.34041,0.48038 -0.46391,0.46294 -0.69538,1.15833 -0.23244,0.67795 -0.28087,1.47309 -0.0339,0.7777 -0.0339,1.39076 z m -2.39994,0 q 0,-1.25905 0.18208,-2.39994 0.18208,-1.1593 0.69538,-2.01933 0.52977,-0.87746 1.45663,-1.40723 0.94332,-0.52977 2.41641,-0.52977 1.47309,0 2.38251,0.52977 0.92782,0.52977 1.45759,1.40723 0.52977,0.87747 0.71185,2.03579 0.18208,1.14186 0.18208,2.38251 0,1.25906 -0.18208,2.40092 -0.18208,1.14186 -0.71185,2.03579 -0.52977,0.87746 -1.45662,1.40626 -0.91039,0.5133 -2.38348,0.5133 -1.47309,0 -2.41641,-0.5133 -0.92686,-0.5288 -1.45663,-1.40626 -0.5133,-0.87747 -0.69538,-2.01933 -0.18208,-1.15832 -0.18208,-2.41641 z m 12.89462,6.73593 q -0.0833,0.13268 -0.21598,0.13268 H 502.311 q -0.18111,0 -0.28087,-0.13268 -0.0823,-0.11622 0,-0.29733 l 5.62699,-12.48011 q 0.0833,-0.14914 0.21598,-0.14914 h 1.50602 q 0.19854,0 0.28086,0.13268 0.0998,0.13268 0.0174,0.29733 l -5.61149,12.49657 z m 10.06272,-8.3417 h 0.0329 q 1.19126,-1.19126 2.63142,-1.19126 1.55638,0 2.23433,0.89296 0.69538,0.89393 0.69538,3.01204 v 4.83378 q 0,0.24794 -0.24793,0.24794 h -1.70457 q -0.2489,0 -0.2489,-0.24794 v -4.50159 q 0,-1.45662 -0.31379,-1.937 -0.31477,-0.48037 -1.17576,-0.48037 -0.67795,0 -1.29102,0.61306 -0.61209,0.61209 -0.61209,1.30747 v 4.99843 q 0,0.24794 -0.2489,0.24794 h -1.75396 q -0.24793,0 -0.24793,-0.24794 V 207.1749 q 0,-0.2489 0.24793,-0.2489 h 1.75396 q 0.2489,0 0.2489,0.2489 z"
     inkscape:connector-curvature="0" />
  <path
     id="path4519"
     style="fill:#4f3327;fill-opacity:1;stroke:none;stroke-width:1.39999998;stroke-miterlimit:4;stroke-dasharray:none;stroke-opacity:1"
     d="m 402.7927,115.06661 h 0.0329 l 3.04497,-5.49431 q 0.0998,-0.13268 0.21501,-0.13268 h 1.95346 q 0.21501,0 0.2983,0.16561 0.0988,0.14915 -0.0165,0.33123 l -3.47691,5.61052 h 2.30115 q 0.26537,0 0.26537,0.24891 v 0.91039 q 0,0.24794 -0.26537,0.24794 h -3.14472 v 1.25808 h 3.14472 q 0.26537,0 0.26537,0.24793 v 0.9104 q 0,0.24793 -0.26537,0.24793 h -3.14472 v 1.95347 q 0,0.24793 -0.2644,0.24793 h -1.92053 q -0.26441,0 -0.26441,-0.24793 v -1.95347 h -3.14472 q -0.26537,0 -0.26537,-0.24793 v -0.9104 q 0,-0.24793 0.26537,-0.24793 h 3.14472 v -1.25905 h -3.14472 q -0.26537,0 -0.26537,-0.24697 v -0.91039 q 0,-0.24891 0.26537,-0.24891 h 2.30019 l -3.47595,-5.61052 q -0.11622,-0.18208 -0.0329,-0.33123 0.0998,-0.16464 0.31477,-0.16464 h 2.01932 q 0.13269,0 0.21501,0.13171 l 3.04593,5.49528 z m 15.70715,-5.62699 q 0.2644,0 0.2644,0.26537 v 11.86704 q 0,0.24793 -0.2644,0.24793 h -1.90407 q -0.26441,0 -0.26441,-0.24793 v -9.53392 h -0.0329 l -2.76411,2.11908 q -0.18207,0.13171 -0.36415,0.0494 -0.18208,-0.0823 -0.18208,-0.31476 v -1.80335 q 0,-0.0833 0.0988,-0.16562 l 3.19508,-2.43384 q 0.0659,-0.0484 0.11622,-0.0484 h 2.10165 z m 6.68653,6.19066 q 0,0.61209 0.0329,1.40626 0.0504,0.77867 0.28086,1.47309 0.23244,0.67892 0.69635,1.15929 0.46295,0.47941 1.34041,0.47941 0.861,0 1.32394,-0.47941 0.46391,-0.48037 0.69538,-1.15929 0.23244,-0.69442 0.2644,-1.47212 0.0504,-0.79417 0.0504,-1.40723 0,-0.61307 -0.0504,-1.39077 -0.0329,-0.79417 -0.2644,-1.47212 -0.23244,-0.69636 -0.69538,-1.1593 -0.46294,-0.48037 -1.32394,-0.48037 -0.87746,0 -1.34041,0.48037 -0.46391,0.46294 -0.69538,1.15833 -0.23244,0.67795 -0.28087,1.47309 -0.0339,0.7777 -0.0339,1.39077 z m -2.39995,0 q 0,-1.25906 0.18208,-2.39995 0.18208,-1.1593 0.69538,-2.01932 0.52977,-0.87747 1.45663,-1.40724 0.94332,-0.52977 2.41641,-0.52977 1.47212,0 2.38251,0.52977 0.92782,0.52977 1.45759,1.40724 0.52977,0.87746 0.71185,2.03578 0.18208,1.14187 0.18208,2.38252 0,1.25905 -0.18208,2.40091 -0.18208,1.14186 -0.71185,2.03579 -0.52977,0.87746 -1.45662,1.40626 -0.91039,0.51331 -2.38348,0.51331 -1.47309,0 -2.41641,-0.51331 -0.92686,-0.5288 -1.45663,-1.40626 -0.5133,-0.87746 -0.69538,-2.01933 -0.18208,-1.15832 -0.18208,-2.4164 z m 13.25781,0 q 0,0.61209 0.0329,1.40626 0.0504,0.77867 0.28086,1.47309 0.23244,0.67892 0.69636,1.15929 0.46294,0.47941 1.3404,0.47941 0.861,0 1.32394,-0.47941 0.46391,-0.48037 0.69538,-1.15929 0.23244,-0.69442 0.2644,-1.47212 0.0504,-0.79417 0.0504,-1.40723 0,-0.61307 -0.0504,-1.39077 -0.0329,-0.79417 -0.2644,-1.47212 -0.23244,-0.69636 -0.69538,-1.1593 -0.46294,-0.48037 -1.32394,-0.48037 -0.87746,0 -1.3404,0.48037 -0.46392,0.46294 -0.69539,1.15833 -0.23244,0.67795 -0.28086,1.47309 -0.0339,0.7777 -0.0339,1.39077 z m -2.39995,0 q 0,-1.25906 0.18208,-2.39995 0.18208,-1.1593 0.69539,-2.01932 0.52977,-0.87747 1.45662,-1.40724 0.94332,-0.52977 2.41641,-0.52977 1.47212,0 2.38251,0.52977 0.92783,0.52977 1.4576,1.40724 0.52977,0.87746 0.71184,2.03578 0.18208,1.14187 0.18208,2.38252 0,1.25905 -0.18208,2.40091 -0.18207,1.14186 -0.71184,2.03579 -0.52977,0.87746 -1.45663,1.40626 -0.91039,0.51331 -2.38348,0.51331 -1.47309,0 -2.41641,-0.51331 -0.92685,-0.5288 -1.45662,-1.40626 -0.51331,-0.87746 -0.69539,-2.01933 -0.18208,-1.15832 -0.18208,-2.4164 z m 13.25781,0 q 0,0.61209 0.0329,1.40626 0.0504,0.77867 0.28086,1.47309 0.23245,0.67892 0.69636,1.15929 0.46294,0.47941 1.3404,0.47941 0.86003,0 1.32394,-0.47941 0.46295,-0.48037 0.69539,-1.15929 0.23147,-0.69442 0.2644,-1.47212 0.0494,-0.79417 0.0494,-1.40723 0,-0.61307 -0.0484,-1.39077 -0.0339,-0.79417 -0.26537,-1.47212 -0.23244,-0.69636 -0.69539,-1.1593 -0.46391,-0.48037 -1.32394,-0.48037 -0.87746,0 -1.3404,0.48037 -0.46391,0.46294 -0.69539,1.15833 -0.23244,0.67795 -0.28086,1.47309 -0.0339,0.7777 -0.0339,1.39077 z m -2.39994,0 q 0,-1.25906 0.18207,-2.39995 0.18208,-1.1593 0.69539,-2.01932 0.52977,-0.87747 1.45662,-1.40724 0.94332,-0.52977 2.41641,-0.52977 1.47212,0 2.38251,0.52977 0.92783,0.52977 1.4576,1.40724 0.5288,0.87746 0.71088,2.03578 0.18208,1.14187 0.18208,2.38252 0,1.25905 -0.18208,2.40091 -0.18208,1.14186 -0.71088,2.03579 -0.52977,0.87746 -1.45663,1.40626 -0.91039,0.51331 -2.38348,0.51331 -1.47309,0 -2.41641,-0.51331 -0.92685,-0.5288 -1.45662,-1.40626 -0.51331,-0.87746 -0.69539,-2.01933 -0.18207,-1.15832 -0.18207,-2.4164 z m 12.89365,6.73592 q -0.0823,0.13268 -0.21501,0.13268 h -1.53992 q -0.18208,0 -0.28086,-0.13268 -0.0833,-0.11622 0,-0.29733 l 5.62699,-12.4801 q 0.0833,-0.14915 0.21597,-0.14915 h 1.50602 q 0.19854,0 0.28087,0.13268 0.0997,0.13269 0.0165,0.29733 z m 10.06369,-8.3417 h 0.0329 q 1.19125,-1.19126 2.63141,-1.19126 1.55638,0 2.23433,0.89296 0.69539,0.89393 0.69539,3.01204 v 4.83379 q 0,0.24793 -0.24794,0.24793 h -1.70456 q -0.2489,0 -0.2489,-0.24793 v -4.50159 q 0,-1.45663 -0.31477,-1.93701 -0.31379,-0.48037 -1.17479,-0.48037 -0.67795,0 -1.29101,0.61306 -0.61209,0.61209 -0.61209,1.30747 v 4.99844 q 0,0.24793 -0.24891,0.24793 h -1.75395 q -0.24891,0 -0.24891,-0.24793 V 109.3573 q 0,-0.24891 0.24891,-0.24891 h 1.75395 q 0.24891,0 0.24891,0.24891 z"
     inkscape:connector-curvature="0" />
  <path
     id="path2"
     style="fill:#4f3327;fill-opacity:1;stroke:none;stroke-width:1.39999998;stroke-miterlimit:4;stroke-dasharray:none;stroke-opacity:1"
     d="m 74.27923,228.47897 h 0.03293 l 3.045934,-5.49528 q 0.09879,-0.13268 0.215008,-0.13268 h 1.952497 q 0.215976,0 0.298298,0.16561 0.09976,0.14915 -0.01646,0.33123 l -3.475949,5.61149 h 2.301157 q 0.264401,0 0.264401,0.24794 v 0.91039 q 0,0.24794 -0.264401,0.24794 h -3.144726 v 1.25905 h 3.144721 q 0.264401,0 0.264401,0.24697 v 0.91039 q 0,0.2489 -0.264401,0.2489 h -3.144721 v 1.9525 q 0,0.2489 -0.26537,0.2489 h -1.919568 q -0.265369,0 -0.265369,-0.2489 v -1.9525 H 69.89289 q -0.264401,0 -0.264401,-0.2489 v -0.91039 q 0,-0.24794 0.264401,-0.24794 h 3.144722 v -1.25808 H 69.89289 q -0.264401,0 -0.264401,-0.24794 v -0.91039 q 0,-0.24794 0.264401,-0.24794 h 2.301157 l -3.476917,-5.61149 q -0.115252,-0.18208 -0.03196,-0.33123 0.09879,-0.16464 0.313794,-0.16464 h 2.019325 q 0.132684,0 0.215007,0.13171 z m 15.707145,-5.62796 q 0.265369,0 0.265369,0.26537 v 11.86704 q 0,0.2489 -0.265369,0.2489 h -1.903104 q -0.265369,0 -0.265369,-0.2489 v -9.53295 h -0.03293 l -2.764102,2.11811 q -0.182078,0.13268 -0.364156,0.0494 -0.182078,-0.0823 -0.182078,-0.31379 v -1.80432 q 0,-0.0823 0.09976,-0.16561 l 3.194115,-2.43288 q 0.06683,-0.0504 0.11622,-0.0504 z m 6.687497,6.19066 q 0,0.61209 0.03293,1.40723 0.04939,0.7777 0.280866,1.47212 0.23244,0.67892 0.695383,1.1593 0.463908,0.48037 1.340408,0.48037 0.86099,0 1.323941,-0.48037 0.46391,-0.48038 0.69538,-1.15833 0.23244,-0.69539 0.26537,-1.47309 0.0494,-0.79417 0.0494,-1.40723 0,-0.6121 -0.0494,-1.3898 -0.0339,-0.79417 -0.26537,-1.47309 -0.23147,-0.69538 -0.69538,-1.1593 -0.462951,-0.4794 -1.323941,-0.4794 -0.8765,0 -1.340408,0.4794 -0.463912,0.46392 -0.695383,1.1593 -0.231472,0.67795 -0.280866,1.47212 -0.03293,0.77867 -0.03293,1.39077 z m -2.400913,0 q 0,-1.25809 0.182078,-2.39995 0.182078,-1.15832 0.695384,-2.01932 0.52977,-0.87746 1.456625,-1.40723 0.94332,-0.5288 2.416413,-0.5288 1.473091,0 2.383481,0.5288 0.92685,0.52977 1.45662,1.40723 0.52977,0.87746 0.71185,2.03579 0.18208,1.14283 0.18208,2.38348 0,1.25808 -0.18208,2.39994 -0.18208,1.14283 -0.71185,2.03579 -0.52977,0.87746 -1.45662,1.40723 -0.91039,0.51331 -2.382521,0.51331 -1.474053,0 -2.417373,-0.51331 -0.926855,-0.52977 -1.456625,-1.40723 -0.513306,-0.87746 -0.695384,-2.01932 -0.182078,-1.15833 -0.182078,-2.41641 z m 13.257811,0 q 0,0.61209 0.0339,1.40723 0.0484,0.7777 0.28086,1.47212 0.23244,0.67892 0.69538,1.1593 0.46295,0.48037 1.34041,0.48037 0.861,0 1.32394,-0.48037 0.46391,-0.48038 0.69538,-1.15833 0.23244,-0.69539 0.26537,-1.47309 0.0484,-0.79417 0.0484,-1.40723 0,-0.6121 -0.0484,-1.3898 -0.0339,-0.79417 -0.26537,-1.47309 -0.23244,-0.69538 -0.69538,-1.1593 -0.46294,-0.4794 -1.32394,-0.4794 -0.87746,0 -1.34041,0.4794 -0.46391,0.46392 -0.69538,1.1593 -0.23244,0.67795 -0.28086,1.47212 -0.0339,0.77867 -0.0339,1.39077 z m -2.39995,0 q 0,-1.25809 0.18208,-2.39995 0.18208,-1.15832 0.69538,-2.01932 0.52977,-0.87746 1.45663,-1.40723 0.94332,-0.5288 2.41641,-0.5288 1.47309,0 2.38348,0.5288 0.92685,0.52977 1.45662,1.40723 0.52977,0.87746 0.71185,2.03579 0.18208,1.14283 0.18208,2.38348 0,1.25808 -0.18208,2.39994 -0.18208,1.14283 -0.71185,2.03579 -0.52977,0.87746 -1.45662,1.40723 -0.91039,0.51331 -2.38251,0.51331 -1.47406,0 -2.41738,-0.51331 -0.92686,-0.52977 -1.45663,-1.40723 -0.5133,-0.87746 -0.69538,-2.01932 -0.18208,-1.15833 -0.18208,-2.41641 z m 13.25781,0 q 0,0.61209 0.0339,1.40723 0.0484,0.7777 0.28086,1.47212 0.23244,0.67892 0.69539,1.1593 0.46294,0.48037 1.3404,0.48037 0.861,0 1.32394,-0.48037 0.46391,-0.48038 0.69538,-1.15833 0.23244,-0.69539 0.26537,-1.47309 0.0484,-0.79417 0.0484,-1.40723 0,-0.6121 -0.0484,-1.3898 -0.0339,-0.79417 -0.26537,-1.47309 -0.23244,-0.69538 -0.69538,-1.1593 -0.46294,-0.4794 -1.32394,-0.4794 -0.87746,0 -1.3404,0.4794 -0.46392,0.46392 -0.69539,1.1593 -0.23244,0.67795 -0.28086,1.47212 -0.0339,0.77867 -0.0339,1.39077 z m -2.39995,0 q 0,-1.25809 0.18208,-2.39995 0.18208,-1.15832 0.69539,-2.01932 0.52977,-0.87746 1.45662,-1.40723 0.94332,-0.5288 2.41641,-0.5288 1.47309,0 2.38348,0.5288 0.92686,0.52977 1.45663,1.40723 0.52977,0.87746 0.71184,2.03579 0.18208,1.14283 0.18208,2.38348 0,1.25808 -0.18208,2.39994 -0.18207,1.14283 -0.71184,2.03579 -0.52977,0.87746 -1.45663,1.40723 -0.91039,0.51331 -2.38251,0.51331 -1.47406,0 -2.41738,-0.51331 -0.92685,-0.52977 -1.45662,-1.40723 -0.51331,-0.87746 -0.69539,-2.01932 -0.18208,-1.15833 -0.18208,-2.41641 z m 12.89462,6.73689 q -0.0833,0.13171 -0.21597,0.13171 h -1.53992 q -0.18111,0 -0.28086,-0.13171 -0.0823,-0.11622 0,-0.2983 l 5.62699,-12.4801 q 0.0833,-0.14915 0.21597,-0.14915 h 1.50602 q 0.19854,0 0.28086,0.13268 0.0998,0.13269 0.0174,0.2983 l -5.6115,12.49657 z m 10.06273,-8.34267 h 0.0329 q 1.19126,-1.19125 2.63142,-1.19125 1.55638,0 2.2353,0.89392 0.69442,0.89393 0.69442,3.01204 v 4.83282 q 0,0.2489 -0.24794,0.2489 h -1.70456 q -0.24891,0 -0.24891,-0.2489 v -4.50159 q 0,-1.45663 -0.31379,-1.937 -0.31476,-0.47941 -1.17576,-0.47941 -0.67795,0 -1.29101,0.61209 -0.61209,0.61209 -0.61209,1.30748 v 4.99843 q 0,0.2489 -0.24794,0.2489 h -1.75492 q -0.24794,0 -0.24794,-0.2489 v -12.21473 q 0,-0.24794 0.24794,-0.24794 h 1.75492 q 0.24794,0 0.24794,0.24794 v 4.66817 z"
     inkscape:connector-curvature="0" />
  <g
     id="g4748"
     style="fill:#483ca9;fill-opacity:1"
     transform="translate(-1005.2779,-138.25094)" />
  <path
     inkscape:connector-curvature="0"
     id="path4771"
     style="font-style:normal;font-variant:normal;font-weight:normal;font-stretch:normal;font-size:medium;line-height:2;font-family:'07YasashisaGothicBold';-inkscape-font-specification:'07YasashisaGothicBold';font-variant-ligatures:normal;font-variant-caps:normal;font-variant-numeric:normal;font-feature-settings:normal;text-align:center;letter-spacing:0px;word-spacing:0px;writing-mode:lr-tb;text-anchor:middle;fill:#4f3327;fill-opacity:1;stroke:none;stroke-width:0.89999998;stroke-miterlimit:4;stroke-dasharray:none;stroke-opacity:1"
     d="m 260.42541,166.25346 v 2.13488 h 1.93033 v -2.13488 z m -0.61362,-3.23427 q -0.17898,0.43464 -0.3963,0.89486 -0.21732,0.44743 -0.47299,0.89486 h 3.41324 v -1.78972 z m 0.65197,-2.46726 q 0.0895,0.0256 0.14062,0.0895 0.0511,0.0639 0.0128,0.16619 -0.0639,0.21732 -0.12784,0.40908 -0.0639,0.19175 -0.12784,0.35794 h 7.4529 q 0.19176,0 0.19176,0.20454 v 1.04826 q 0,0.19176 -0.19176,0.19176 h -3.66892 v 1.78972 h 3.27263 q 0.19176,0 0.19176,0.20453 v 1.04827 q 0,0.19175 -0.19176,0.19175 h -3.27263 v 2.13489 h 4.2314 q 0.19176,0 0.19176,0.19175 v 1.08661 q 0,0.20454 -0.19176,0.20454 h -4.2314 v 2.28828 q 0,0.19176 -0.19176,0.19176 h -1.40621 q -0.19175,0 -0.19175,-0.19176 v -2.28828 h -5.63762 q -0.19175,0 -0.19175,-0.20454 v -1.08661 q 0,-0.19175 0.19175,-0.19175 h 2.00705 v -3.15758 q -0.10226,0.19176 -0.2429,0.42187 -0.1406,0.23009 -0.33237,0.56247 -0.0511,0.0639 -0.12783,0.0895 -0.0639,0.0256 -0.15341,-0.0255 l -1.12496,-0.69031 q -0.14062,-0.10227 -0.0639,-0.28125 0.74144,-1.16332 1.30393,-2.37776 0.57527,-1.21446 0.97157,-2.50561 0.0766,-0.16619 0.23009,-0.12784 z m -11.65874,8.45003 h -5.13905 q -0.19175,0 -0.19175,-0.19176 v -1.0994 q 0,-0.20454 0.19175,-0.20454 h 5.13905 v -0.72867 q 0,-0.19176 0.19176,-0.19176 h 1.0227 q 0.65196,-0.44742 1.31672,-0.97155 h -5.71432 q -0.19176,0 -0.19176,-0.19176 v -0.30681 h -1.36785 q -0.19176,0 -0.19176,-0.19175 v -2.65902 q 0,-0.20453 0.19176,-0.20453 h 1.4829 q -0.14062,-0.25568 -0.28124,-0.48579 -0.12783,-0.2301 -0.2301,-0.42186 -0.12784,-0.23011 0.11502,-0.31958 l 1.12497,-0.40909 q 0.14062,-0.0384 0.23011,0.0895 0.20454,0.34517 0.40907,0.74146 0.21734,0.38351 0.42187,0.80537 h 1.34229 q -0.1534,-0.28124 -0.29402,-0.53691 -0.12784,-0.25568 -0.26846,-0.51136 -0.14062,-0.21732 0.11502,-0.3068 l 1.12497,-0.40908 q 0.14062,-0.0384 0.21733,0.0768 0.2301,0.38351 0.44743,0.81816 0.21732,0.42186 0.43464,0.86929 h 1.15054 q 0.2301,-0.37073 0.43464,-0.76703 0.21733,-0.39629 0.40908,-0.81816 0.0768,-0.15339 0.21732,-0.10226 l 1.15054,0.26845 q 0.10226,0.0256 0.14062,0.11502 0.0511,0.0768 0,0.17898 -0.14062,0.30681 -0.29402,0.58805 -0.14062,0.28124 -0.28124,0.53692 h 1.47012 q 0.19175,0 0.19175,0.20453 v 2.65902 q 0,0.19175 -0.19175,0.19175 h -1.38065 v 0.43464 q 0,0.0639 -0.0511,0.11502 -0.98435,0.98435 -2.19879,1.84085 h 4.02686 q 0.19176,0 0.19176,0.20454 v 1.0994 q 0,0.19176 -0.19176,0.19176 h -4.65327 v 1.66188 q 0,0.25568 0,0.40908 0,0.15341 -0.0127,0.23011 -0.0128,0.11502 -0.0384,0.21732 -0.0127,0.11502 -0.0639,0.23011 -0.10226,0.25567 -0.17896,0.3068 -0.12785,0.0767 -0.38352,0.14062 -0.26845,0.0639 -0.5497,0.0767 -0.10226,0.0128 -0.3068,0.0128 -0.19176,0 -0.49857,0 -0.21733,0 -0.71589,-0.0256 -0.48578,-0.0128 -1.24002,-0.0384 -0.0766,0 -0.14062,-0.0511 -0.0639,-0.0511 -0.0639,-0.12784 l -0.0511,-1.04826 q -0.0128,-0.10226 0.0511,-0.15341 0.0766,-0.0639 0.17897,-0.0639 0.69032,0.0256 1.11219,0.0384 0.43464,0.0127 0.61361,0.0127 0.37072,0 0.43464,-0.0639 0.0639,-0.0639 0.0639,-0.37073 z m -3.24706,-5.58649 v 0.77982 h 7.79805 v -0.77982 z m -7.683,6.80094 v -0.71589 h -3.01695 v 0.71589 z m 0.84372,-5.21575 v -0.74146 h -4.7044 v 0.74146 z m -6.25123,1.07384 q -0.20454,0 -0.20454,-0.20455 v -2.53117 q 0,-0.20455 0.20454,-0.20455 h 7.79806 q 0.20453,0 0.20453,0.20455 v 2.53117 q 0,0.20455 -0.20453,0.20455 z m 9.29375,0.48577 q 0.19175,0 0.19175,0.19175 v 3.31098 q 0,0.3196 0,0.52413 0,0.20454 -0.0127,0.3196 -0.0128,0.12783 -0.0384,0.26845 -0.0128,0.14062 -0.0639,0.30681 -0.0768,0.23011 -0.17897,0.38352 -0.0895,0.14062 -0.34517,0.21732 -0.12783,0.0511 -0.25567,0.0639 -0.12784,0.0256 -0.24289,0.0384 -0.17898,0.0128 -0.37073,0.0128 -0.19175,0.0128 -0.37072,0.0128 -0.15341,0 -0.51135,-0.0128 -0.35794,-0.0128 -0.92043,-0.0384 -0.0768,-0.0128 -0.14062,-0.0639 -0.0511,-0.0511 -0.0511,-0.12784 l -0.0256,-0.66475 h -3.56665 v 0.29402 q 0,0.19176 -0.19175,0.19176 h -1.08663 q -0.19175,0 -0.19175,-0.19176 v -3.04252 q 0,-0.19175 0.19175,-0.19175 h 5.5737 q 0.19176,0 0.19176,0.19175 v 2.14766 q 0.0895,0.0128 0.16619,0.0128 0.0895,0 0.19175,0 0.40908,0 0.48578,-0.0767 0.0768,-0.0767 0.0768,-0.49857 v -2.24992 h -7.79806 v 4.14191 q 0,0.19176 -0.20454,0.19176 h -1.29116 q -0.19175,0 -0.19175,-0.19176 v -5.27967 q 0,-0.19175 0.19175,-0.19175 z m 0.29403,-5.31802 q 0.20454,0 0.20454,0.19175 v 1.03548 q 0,0.19176 -0.20454,0.19176 h -11.3775 q -0.20454,0 -0.20454,-0.19176 V 161.434 q 0,-0.19175 0.20454,-0.19175 h 4.79389 v -0.81816 q 0,-0.19175 0.20454,-0.19175 h 1.38064 q 0.20454,0 0.20454,0.19175 v 0.81816 z m -19.43124,7.75971 h -5.13904 q -0.19175,0 -0.19175,-0.19176 v -1.0994 q 0,-0.20454 0.19175,-0.20454 h 5.13904 v -0.72867 q 0,-0.19176 0.19177,-0.19176 h 1.02269 q 0.65197,-0.44742 1.31672,-0.97155 h -5.71431 q -0.19176,0 -0.19176,-0.19176 v -0.30681 h -1.36785 q -0.19175,0 -0.19175,-0.19175 v -2.65902 q 0,-0.20453 0.19175,-0.20453 h 1.48291 q -0.14062,-0.25568 -0.28124,-0.48579 -0.12785,-0.2301 -0.23011,-0.42186 -0.12784,-0.23011 0.11502,-0.31958 l 1.12496,-0.40909 q 0.14062,-0.0384 0.23011,0.0895 0.20453,0.34517 0.40908,0.74146 0.21732,0.38351 0.42186,0.80537 h 1.34229 q -0.15341,-0.28124 -0.29403,-0.53691 -0.12784,-0.25568 -0.26846,-0.51136 -0.14062,-0.21732 0.11502,-0.3068 l 1.12497,-0.40908 q 0.14062,-0.0384 0.21732,0.0768 0.23011,0.38351 0.44743,0.81816 0.21732,0.42186 0.43465,0.86929 h 1.15052 q 0.23011,-0.37073 0.43466,-0.76703 0.21732,-0.39629 0.40907,-0.81816 0.0768,-0.15339 0.21733,-0.10226 l 1.15054,0.26845 q 0.10226,0.0256 0.14062,0.11502 0.0511,0.0768 0,0.17898 -0.14062,0.30681 -0.29403,0.58805 -0.14062,0.28124 -0.28125,0.53692 h 1.47014 q 0.19175,0 0.19175,0.20453 v 2.65902 q 0,0.19175 -0.19175,0.19175 h -1.38065 v 0.43464 q 0,0.0639 -0.0511,0.11502 -0.98435,0.98435 -2.1988,1.84085 h 4.02686 q 0.19177,0 0.19177,0.20454 v 1.0994 q 0,0.19176 -0.19177,0.19176 h -4.65326 v 1.66188 q 0,0.25568 0,0.40908 0,0.15341 -0.0127,0.23011 -0.0128,0.11502 -0.0384,0.21732 -0.0127,0.11502 -0.0639,0.23011 -0.10226,0.25567 -0.17897,0.3068 -0.12783,0.0767 -0.38351,0.14062 -0.26846,0.0639 -0.54971,0.0767 -0.10226,0.0128 -0.3068,0.0128 -0.19176,0 -0.49857,0 -0.21732,0 -0.71588,-0.0256 -0.48578,-0.0128 -1.24002,-0.0384 -0.0766,0 -0.14062,-0.0511 -0.0639,-0.0511 -0.0639,-0.12784 l -0.0511,-1.04826 q -0.0128,-0.10226 0.0511,-0.15341 0.0768,-0.0639 0.17898,-0.0639 0.69031,0.0256 1.11218,0.0384 0.43465,0.0127 0.61361,0.0127 0.37073,0 0.43465,-0.0639 0.0639,-0.0639 0.0639,-0.37073 z m -3.24705,-5.58649 v 0.77982 h 7.79806 v -0.77982 z m -8.36054,-2.92746 q 0.19175,0 0.19175,0.20455 v 9.4855 q 0,0.33237 0,0.54969 0,0.20454 -0.0128,0.30681 -0.0128,0.30682 -0.10227,0.57527 -0.10226,0.26846 -0.20454,0.38351 -0.11502,0.11502 -0.37072,0.19175 -0.15341,0.0511 -0.29403,0.0639 -0.12783,0.0256 -0.26845,0.0384 -0.20454,0.0128 -0.40909,0.0128 -0.20453,0.0128 -0.40907,0.0128 -0.16619,0 -0.65197,-0.0255 -0.473,-0.0127 -1.27837,-0.0384 -0.0895,0 -0.15341,-0.0511 -0.0511,-0.0511 -0.0511,-0.12783 l -0.0511,-1.12497 q 0,-0.21733 0.21732,-0.21733 0.71589,0.0256 1.12496,0.0384 0.42187,0.0127 0.5497,0.0127 0.42186,0 0.49857,-0.0768 0.0895,-0.0766 0.0895,-0.52413 v -9.4855 q 0,-0.20454 0.19176,-0.20454 z m -3.89903,3.11923 q 0.20454,0.0384 0.17898,0.24289 -0.53692,3.10643 -1.72581,5.99555 -0.0768,0.17898 -0.24289,0.11502 l -1.27838,-0.43465 q -0.21732,-0.0639 -0.11501,-0.26845 0.58805,-1.38065 0.99712,-2.79963 0.40907,-1.419 0.67754,-2.92748 0.0127,-0.0766 0.0768,-0.12783 0.0639,-0.0511 0.15341,-0.0255 z m 7.23558,-0.34516 q 0.16619,-0.0511 0.2301,0.11502 0.56248,1.47012 1.03547,2.99138 0.47301,1.52126 0.8693,3.08087 0.0384,0.20454 -0.14062,0.24289 l -1.30394,0.34516 q -0.20454,0.0511 -0.25567,-0.14062 -0.35794,-1.4957 -0.81816,-2.97861 -0.44743,-1.49568 -1.00991,-3.00416 -0.0639,-0.21733 0.12784,-0.28124 z" />
  <path
     id="path4540"
     style="font-style:normal;font-variant:normal;font-weight:normal;font-stretch:normal;font-size:medium;line-height:2;font-family:'07YasashisaGothicBold';-inkscape-font-specification:'07YasashisaGothicBold';font-variant-ligatures:normal;font-variant-caps:normal;font-variant-numeric:normal;font-feature-settings:normal;text-align:center;letter-spacing:0px;word-spacing:0px;writing-mode:lr-tb;text-anchor:middle;fill:#4f3327;fill-opacity:1;stroke:none;stroke-width:1.39999998;stroke-miterlimit:4;stroke-dasharray:none;stroke-opacity:1"
     d="m 269.19482,184.73483 h 0.043 q 1.54752,-1.54753 3.41744,-1.54753 2.02037,0 2.9016,1.16064 0.90271,1.16064 0.90271,3.91178 v 6.27605 q 0,0.32241 -0.32239,0.32241 h -2.21382 q -0.3224,0 -0.3224,-0.32241 v -5.84618 q 0,-1.89141 -0.40837,-2.51473 -0.40838,-0.6233 -1.52603,-0.6233 -0.88122,0 -1.67647,0.79525 -0.79526,0.79526 -0.79526,1.69797 v 6.49098 q 0,0.32241 -0.3224,0.32241 h -2.27829 q -0.3224,0 -0.3224,-0.32241 v -15.86207 q 0,-0.32239 0.3224,-0.32239 h 2.27829 q 0.3224,0 0.3224,0.32239 z m -13.06793,10.83262 q -0.10748,0.17195 -0.27941,0.17195 h -1.99889 q -0.23641,0 -0.36538,-0.17195 -0.10748,-0.15045 0,-0.38688 l 7.30773,-16.20597 q 0.10748,-0.19343 0.27942,-0.19343 h 1.95588 q 0.25793,0 0.36539,0.17195 0.12897,0.17195 0.0215,0.38687 z m -16.7433,-8.74778 q 0,-1.63349 0.23643,-3.11653 0.23643,-1.50453 0.90272,-2.62218 0.68779,-1.13916 1.89142,-1.82693 1.22512,-0.6878 3.13802,-0.6878 1.9129,0 3.09504,0.6878 1.20362,0.68778 1.89141,1.82693 0.68779,1.13915 0.92421,2.64367 0.23643,1.48304 0.23643,3.09504 0,1.63349 -0.23643,3.11653 -0.23642,1.48305 -0.92421,2.64369 -0.68779,1.13913 -1.89141,1.82693 -1.18214,0.66627 -3.09504,0.66627 -1.9129,0 -3.13802,-0.66627 -1.20363,-0.6878 -1.89142,-1.82693 -0.66629,-1.13915 -0.90272,-2.62219 -0.23643,-1.50454 -0.23643,-3.13803 z m 3.11654,0 q 0,0.79526 0.0429,1.82693 0.0645,1.0102 0.3654,1.9129 0.3009,0.88124 0.90272,1.50455 0.6018,0.6233 1.74096,0.6233 1.11765,0 1.71946,-0.6233 0.6018,-0.62331 0.90271,-1.50455 0.30092,-0.9027 0.3439,-1.9129 0.0645,-1.03167 0.0645,-1.82693 0,-0.79525 -0.0645,-1.80543 -0.043,-1.03168 -0.3439,-1.91291 -0.30091,-0.90272 -0.90271,-1.50452 -0.60181,-0.62332 -1.71946,-0.62332 -1.13916,0 -1.74096,0.62332 -0.60182,0.6018 -0.90272,1.50452 -0.30091,0.88123 -0.3654,1.91291 -0.0429,1.01018 -0.0429,1.80543 z m -10.57471,-2.36426 q 2.36426,0 3.69684,1.2896 1.3111,1.2896 1.3111,3.67536 0,5.65273 -6.448,5.65273 -2.04186,0 -3.89028,-0.6233 -0.19345,-0.086 -0.19345,-0.3009 v -1.9344 q 0,-0.21493 0.15046,-0.3224 0.17194,-0.10749 0.38687,-0.0215 0.9887,0.34389 1.84842,0.53733 0.85974,0.19344 1.61201,0.19344 3.48191,0 3.48191,-3.18101 0,-2.62218 -2.51471,-2.62218 -1.26811,0 -2.21381,0.83823 -0.10748,0.0646 -0.19345,0.0646 h -2.17082 q -0.3439,0 -0.3439,-0.34389 l 0.40838,-8.25343 q 0,-0.12897 0.086,-0.21493 0.10748,-0.10749 0.23643,-0.10749 h 8.74778 q 0.3224,0 0.3224,0.3439 v 1.82693 q 0,0.3224 -0.3224,0.3224 h -6.25456 l -0.17194,3.71833 h 0.0429 q 1.07467,-0.53731 2.38577,-0.53731 z m -13.69125,0.9672 q 2.04187,0 3.18102,1.13914 1.16064,1.16065 1.16064,3.224 0,2.55771 -1.52603,3.91179 -1.56902,1.37556 -4.40613,1.37556 -2.29979,0 -4.27718,-0.70927 -0.19343,-0.0646 -0.19343,-0.27941 v -1.93441 q 0,-0.23642 0.15045,-0.32239 0.17195,-0.10748 0.40838,-0.0215 0.98869,0.40837 1.93439,0.60181 0.94572,0.19344 1.84843,0.19344 1.41855,0 2.2353,-0.70928 0.79525,-0.68778 0.79525,-2.04186 0,-1.24661 -0.88123,-1.78395 -0.9027,-0.53733 -3.13802,-0.53733 h -0.98868 q -0.3439,0 -0.3439,-0.32239 v -1.74098 q 0,-0.12894 0.086,-0.21493 l 4.32016,-3.93328 v -0.0429 h -6.21156 q -0.32241,0 -0.32241,-0.32239 v -1.82694 q 0,-0.34389 0.32241,-0.34389 h 9.65049 q 0.32241,0 0.32241,0.34389 v 2.02036 q 0,0.12897 -0.086,0.21495 l -4.42763,4.01924 v 0.0429 z m -18.91412,0.6663 h 0.0429 l 3.95478,-7.13578 q 0.12896,-0.17195 0.27941,-0.17195 h 2.53621 q 0.27941,0 0.38688,0.21492 0.12896,0.19346 -0.0214,0.42988 l -4.5136,7.28623 h 2.98758 q 0.34389,0 0.34389,0.3224 v 1.18213 q 0,0.3224 -0.34389,0.3224 h -4.08375 v 1.63349 h 4.08375 q 0.34389,0 0.34389,0.32239 v 1.18215 q 0,0.3224 -0.34389,0.3224 h -4.08375 v 2.5362 q 0,0.32241 -0.34388,0.32241 h -2.49322 q -0.3439,0 -0.3439,-0.32241 v -2.5362 h -4.08374 q -0.34388,0 -0.34388,-0.3224 v -1.18215 q 0,-0.32239 0.34388,-0.32239 h 4.08374 v -1.63349 h -4.08374 q -0.34388,0 -0.34388,-0.3224 v -1.18213 q 0,-0.3224 0.34388,-0.3224 h 2.98757 l -4.51358,-7.28623 q -0.15046,-0.23642 -0.0429,-0.42988 0.12895,-0.21492 0.40836,-0.21492 h 2.6222 q 0.17195,0 0.27941,0.17195 z"
     inkscape:connector-curvature="0" />
  <path
     inkscape:connector-curvature="0"
     id="path4778"
     style="font-style:normal;font-variant:normal;font-weight:normal;font-stretch:normal;font-size:medium;line-height:2;font-family:'07YasashisaGothicBold';-inkscape-font-specification:'07YasashisaGothicBold';font-variant-ligatures:normal;font-variant-caps:normal;font-variant-numeric:normal;font-feature-settings:normal;text-align:center;letter-spacing:0px;word-spacing:0px;writing-mode:lr-tb;text-anchor:middle;fill:#4f3327;fill-opacity:1;stroke:none;stroke-width:1.39999998;stroke-miterlimit:4;stroke-dasharray:none;stroke-opacity:1"
     d="m 269.1949,64.906181 h 0.043 q 1.54752,-1.547514 3.41743,-1.547514 2.02037,0 2.90161,1.160633 0.90271,1.160644 0.90271,3.911785 v 6.276056 q 0,0.322392 -0.32239,0.322392 h -2.21382 q -0.3224,0 -0.3224,-0.322392 V 68.86096 q 0,-1.891415 -0.40837,-2.514724 -0.40838,-0.62331 -1.52603,-0.62331 -0.88121,0 -1.67646,0.79526 -0.79526,0.795248 -0.79526,1.697967 v 6.490988 q 0,0.322392 -0.32241,0.322392 h -2.27828 q -0.3224,0 -0.3224,-0.322392 V 58.845068 q 0,-0.322403 0.3224,-0.322403 h 2.27828 q 0.32241,0 0.32241,0.322403 z m -13.06792,10.832637 q -0.10749,0.171949 -0.27941,0.171949 h -1.99889 q -0.23642,0 -0.36538,-0.171949 -0.10749,-0.150454 0,-0.386882 l 7.30773,-16.205961 q 0.10748,-0.193435 0.27942,-0.193435 h 1.95588 q 0.25793,0 0.36539,0.171938 0.12896,0.17195 0.0214,0.386882 z m -16.7433,-8.747776 q 0,-1.633501 0.23643,-3.116537 0.23643,-1.504533 0.90272,-2.622184 0.68779,-1.139148 1.89141,-1.826936 1.22513,-0.687777 3.13803,-0.687777 1.9129,0 3.09504,0.687777 1.20362,0.687788 1.89141,1.826936 0.68779,1.139148 0.92421,2.64368 0.23642,1.483037 0.23642,3.095041 0,1.633489 -0.23642,3.116526 -0.23642,1.483036 -0.92421,2.64368 -0.68779,1.139148 -1.89141,1.826925 -1.18214,0.666291 -3.09504,0.666291 -1.9129,0 -3.13803,-0.666291 -1.20362,-0.687777 -1.89141,-1.826925 -0.66629,-1.139147 -0.90272,-2.622184 -0.23643,-1.504533 -0.23643,-3.138022 z m 3.11654,0 q 0,0.795248 0.0429,1.826924 0.0645,1.010192 0.3654,1.912911 0.3009,0.881224 0.90272,1.504533 0.6018,0.623298 1.74096,0.623298 1.11765,0 1.71946,-0.623298 0.6018,-0.623309 0.90271,-1.504533 0.30092,-0.902719 0.3439,-1.912911 0.0645,-1.031676 0.0645,-1.826924 0,-0.79526 -0.0645,-1.805439 -0.043,-1.031688 -0.3439,-1.912911 -0.30091,-0.90272 -0.90271,-1.504533 -0.60181,-0.623298 -1.71946,-0.623298 -1.13916,0 -1.74096,0.623298 -0.60182,0.601813 -0.90272,1.504533 -0.30091,0.881223 -0.3654,1.912911 -0.0429,1.010179 -0.0429,1.805439 z m -17.21615,0 q 0,-1.633501 0.23642,-3.116537 0.23643,-1.504533 0.90272,-2.622184 0.68779,-1.139148 1.89141,-1.826936 1.22512,-0.687777 3.13803,-0.687777 1.9129,0 3.09504,0.687777 1.20362,0.687788 1.89142,1.826936 0.68778,1.139148 0.9242,2.64368 0.23643,1.483037 0.23643,3.095041 0,1.633489 -0.23643,3.116526 -0.23642,1.483036 -0.9242,2.64368 -0.6878,1.139148 -1.89142,1.826925 -1.18214,0.666291 -3.09504,0.666291 -1.91291,0 -3.13803,-0.666291 -1.20362,-0.687777 -1.89141,-1.826925 -0.66629,-1.139147 -0.90272,-2.622184 -0.23642,-1.504533 -0.23642,-3.138022 z m 3.11653,0 q 0,0.795248 0.0429,1.826924 0.0645,1.010192 0.3654,1.912911 0.30091,0.881224 0.90272,1.504533 0.6018,0.623298 1.74096,0.623298 1.11765,0 1.71945,-0.623298 0.60182,-0.623309 0.90272,-1.504533 0.30092,-0.902719 0.3439,-1.912911 0.0646,-1.031676 0.0646,-1.826924 0,-0.79526 -0.0646,-1.805439 -0.0429,-1.031688 -0.3439,-1.912911 -0.3009,-0.90272 -0.90272,-1.504533 -0.6018,-0.623298 -1.71945,-0.623298 -1.13916,0 -1.74096,0.623298 -0.60181,0.601813 -0.90272,1.504533 -0.30091,0.881223 -0.3654,1.912911 -0.0429,1.010179 -0.0429,1.805439 z m -10.57471,-2.364271 q 2.36426,0 3.69686,1.289601 1.31109,1.289602 1.31109,3.675358 0,5.652734 -6.448,5.652734 -2.04187,0 -3.89028,-0.623298 -0.19345,-0.08592 -0.19345,-0.300906 v -1.934396 q 0,-0.214944 0.15047,-0.322404 0.17192,-0.107483 0.38686,-0.02145 0.9887,0.343888 1.84842,0.537335 0.85974,0.193435 1.612,0.193435 3.48192,0 3.48192,-3.181004 0,-2.622196 -2.51471,-2.622196 -1.2681,0 -2.21381,0.838242 -0.10748,0.06447 -0.19344,0.06447 H 212.689 q -0.34391,0 -0.34391,-0.343888 l 0.40838,-8.253434 q 0,-0.128957 0.086,-0.214932 0.10749,-0.107483 0.23643,-0.107483 h 8.74778 q 0.3224,0 0.3224,0.343888 v 1.826937 q 0,0.322403 -0.3224,0.322403 h -6.25457 l -0.17194,3.718339 h 0.0429 q 1.07466,-0.537335 2.38576,-0.537335 z m -18.50574,1.63349 h 0.0429 l 3.95478,-7.135783 q 0.12895,-0.171938 0.27941,-0.171938 h 2.53621 q 0.27941,0 0.38688,0.214931 0.12895,0.193435 -0.0215,0.429863 l -4.5136,7.286236 h 2.98758 q 0.34389,0 0.34389,0.322404 v 1.182129 q 0,0.322403 -0.34389,0.322403 h -4.08375 v 1.63349 h 4.08375 q 0.34389,0 0.34389,0.322403 v 1.18213 q 0,0.322391 -0.34389,0.322391 h -4.08375 v 2.536221 q 0,0.322392 -0.34389,0.322392 h -2.49321 q -0.3439,0 -0.3439,-0.322392 V 72.17092 h -4.08374 q -0.34389,0 -0.34389,-0.322391 v -1.18213 q 0,-0.322403 0.34389,-0.322403 h 4.08374 v -1.63349 h -4.08374 q -0.34389,0 -0.34389,-0.322403 v -1.182129 q 0,-0.322404 0.34389,-0.322404 h 2.98757 l -4.51358,-7.286236 q -0.15046,-0.236428 -0.0429,-0.429863 0.12896,-0.214931 0.40837,-0.214931 h 2.6222 q 0.17195,0 0.27941,0.171938 z" />
  <path
     inkscape:connector-curvature="0"
     id="path4757"
     style="font-style:normal;font-variant:normal;font-weight:normal;font-stretch:normal;font-size:medium;line-height:2;font-family:'07YasashisaGothicBold';-inkscape-font-specification:'07YasashisaGothicBold';font-variant-ligatures:normal;font-variant-caps:normal;font-variant-numeric:normal;font-feature-settings:normal;text-align:center;letter-spacing:0px;word-spacing:0px;writing-mode:lr-tb;text-anchor:middle;fill:#4f3327;fill-opacity:1;stroke:none;stroke-width:0.89999998;stroke-miterlimit:4;stroke-dasharray:none;stroke-opacity:1"
     d="m 260.42541,106.30627 v 2.13489 h 1.93033 v -2.13489 z m -0.61362,-3.23427 q -0.17898,0.43465 -0.3963,0.89485 -0.21732,0.44743 -0.47299,0.89487 h 3.41324 V 103.072 Z m 0.65197,-2.46726 q 0.0895,0.0256 0.14062,0.0895 0.0511,0.0639 0.0128,0.16619 -0.0639,0.21733 -0.12784,0.40908 -0.0639,0.19176 -0.12784,0.35794 h 7.4529 q 0.19177,0 0.19177,0.20455 v 1.04825 q 0,0.19176 -0.19177,0.19176 h -3.66892 v 1.78973 h 3.27264 q 0.19175,0 0.19175,0.20453 v 1.04826 q 0,0.19176 -0.19175,0.19176 h -3.27264 v 2.13488 h 4.2314 q 0.19176,0 0.19176,0.19175 v 1.08661 q 0,0.20455 -0.19176,0.20455 h -4.2314 v 2.28828 q 0,0.19175 -0.19176,0.19175 h -1.40621 q -0.19175,0 -0.19175,-0.19175 v -2.28828 h -5.63761 q -0.19176,0 -0.19176,-0.20455 v -1.08663 q 0,-0.19175 0.19176,-0.19175 h 2.00704 v -3.15759 q -0.10226,0.19177 -0.24289,0.42187 -0.14061,0.2301 -0.33238,0.56248 -0.0511,0.0639 -0.12783,0.0895 -0.0639,0.0256 -0.15341,-0.0255 l -1.12496,-0.69031 q -0.14062,-0.10227 -0.0639,-0.28125 0.74145,-1.16332 1.30393,-2.37776 0.57527,-1.21446 0.97157,-2.50561 0.0766,-0.16619 0.2301,-0.12783 z m -11.65874,8.45003 h -5.13905 q -0.19175,0 -0.19175,-0.19175 v -1.0994 q 0,-0.20455 0.19175,-0.20455 h 5.13905 v -0.72867 q 0,-0.19175 0.19176,-0.19175 h 1.0227 q 0.65196,-0.44743 1.31672,-0.97156 h -5.71431 q -0.19177,0 -0.19177,-0.19175 v -0.30681 h -1.36785 q -0.19176,0 -0.19176,-0.19176 v -2.65901 q 0,-0.20453 0.19176,-0.20453 h 1.48291 q -0.14063,-0.25568 -0.28125,-0.48579 -0.12783,-0.23011 -0.23009,-0.42186 -0.12785,-0.23011 0.11502,-0.3196 l 1.12496,-0.40907 q 0.14062,-0.0384 0.23011,0.0895 0.20455,0.34516 0.40908,0.74145 0.21733,0.38352 0.42186,0.80538 h 1.34229 q -0.1534,-0.28124 -0.29402,-0.53692 -0.12783,-0.25567 -0.26846,-0.51135 -0.14062,-0.21732 0.11502,-0.30681 l 1.12497,-0.40907 q 0.14062,-0.0384 0.21733,0.0768 0.2301,0.38351 0.44743,0.81816 0.21732,0.42186 0.43464,0.86929 h 1.15054 q 0.23011,-0.37073 0.43464,-0.76703 0.21733,-0.39629 0.40908,-0.81816 0.0768,-0.15339 0.21732,-0.10226 l 1.15054,0.26845 q 0.10226,0.0256 0.14062,0.11502 0.0511,0.0766 0,0.17898 -0.14062,0.30681 -0.29402,0.58805 -0.14062,0.28124 -0.28124,0.53691 h 1.47012 q 0.19175,0 0.19175,0.20454 v 2.65901 q 0,0.19176 -0.19175,0.19176 h -1.38065 v 0.43464 q 0,0.0639 -0.0511,0.11502 -0.98435,0.98434 -2.19879,1.84085 h 4.02686 q 0.19176,0 0.19176,0.20454 v 1.0994 q 0,0.19175 -0.19176,0.19175 h -4.65327 v 1.66189 q 0,0.25566 0,0.40907 0,0.1534 -0.0127,0.23011 -0.0128,0.11502 -0.0384,0.21732 -0.0127,0.11502 -0.0639,0.23011 -0.10226,0.25568 -0.17896,0.30681 -0.12784,0.0768 -0.38352,0.14062 -0.26845,0.0639 -0.54969,0.0768 -0.10227,0.0128 -0.30681,0.0128 -0.19176,0 -0.49856,0 -0.21734,0 -0.7159,-0.0256 -0.48578,-0.0128 -1.24002,-0.0384 -0.0766,0 -0.14062,-0.0511 -0.0639,-0.0511 -0.0639,-0.12785 l -0.0511,-1.04826 q -0.0128,-0.10226 0.0511,-0.15341 0.0766,-0.0639 0.17897,-0.0639 0.69032,0.0256 1.11219,0.0384 0.43464,0.0127 0.61361,0.0127 0.37072,0 0.43464,-0.0639 0.0639,-0.0639 0.0639,-0.37073 z m -3.24706,-5.58648 v 0.77981 h 7.79806 v -0.77981 z m -12.50246,8.74405 q 0,0.19176 -0.19175,0.19176 h -1.2528 q -0.19177,0 -0.19177,-0.19176 v -5.4075 q -0.14061,0.21732 -0.28123,0.42186 -0.12784,0.20454 -0.26846,0.38351 -0.10227,0.14062 -0.24289,0.11502 -0.12784,-0.0255 -0.19175,-0.17897 l -0.48579,-1.29115 q -0.0384,-0.0766 0.0256,-0.16619 0.95878,-1.22723 1.52126,-2.48004 0.56248,-1.26559 0.90764,-2.92746 0.0384,-0.19176 0.21733,-0.16619 l 1.22723,0.20453 q 0.21732,0.0255 0.17897,0.21733 -0.1534,0.90764 -0.39629,1.73859 -0.2429,0.81814 -0.57527,1.59796 z m 4.7044,-7.7597 q -0.0639,-0.86929 -0.0895,-1.84085 -0.89486,0.0766 -1.80249,0.11502 v 1.72579 z m -3.70728,6.31515 q 0,-0.19175 0.19177,-0.19175 h 5.1774 q -0.16619,-0.15341 -0.33238,-0.42187 -0.15341,-0.2429 -0.30681,-0.53691 -0.14062,-0.29404 -0.26846,-0.65198 -0.12783,-0.37073 -0.24289,-0.79259 -0.11502,-0.43464 -0.20454,-0.94599 -0.1534,-0.90764 -0.19175,-1.34229 h -2.00704 v 2.41612 q 0.46021,-0.10226 0.92042,-0.20454 0.46021,-0.11502 0.89486,-0.24289 0.11502,-0.0255 0.19176,0.0256 0.0766,0.0511 0.0895,0.1534 l 0.10226,1.06104 q 0.0256,0.14062 -0.14062,0.20455 -1.06104,0.28124 -2.1093,0.48578 -1.04827,0.19175 -2.10931,0.33238 -0.0895,0.0128 -0.15341,-0.0384 -0.0639,-0.0511 -0.0639,-0.14062 l -0.10227,-1.03548 q 0,-0.20453 0.17898,-0.2301 0.0384,0 0.0895,0 0.0511,-0.0128 0.11502,-0.0256 0.12783,-0.0255 0.2301,-0.0255 0.10226,-0.0128 0.16619,-0.0256 v -7.0566 q 0,-0.19175 0.19176,-0.19175 1.86642,-0.0127 3.73283,-0.23011 0.89486,-0.11502 1.6491,-0.25568 0.76703,-0.14062 1.39343,-0.31958 0.20453,-0.0511 0.24289,0.1534 l 0.29403,1.04827 q 0.0255,0.0766 -0.0128,0.14062 -0.0384,0.0639 -0.12783,0.0895 -0.48578,0.14062 -1.03548,0.25567 -0.5497,0.11502 -1.18889,0.19176 0.0128,0.58805 0.0384,1.09938 0.0384,0.51136 0.0639,0.93322 h 2.49282 q 0.20454,0 0.20454,0.19175 v 1.04826 q 0,0.19175 -0.20454,0.19175 h -2.33941 q 0.0256,0.26846 0.0639,0.48579 0.0384,0.20453 0.0639,0.34515 0.16619,0.89486 0.3963,1.5724 0.20454,0.69032 0.42186,0.97157 0.20455,0.31958 0.38351,0.31958 0.26846,0 0.473,-1.77693 0.0128,-0.12784 0.10226,-0.17897 0.0895,-0.0639 0.19175,-0.0255 l 0.89486,0.33237 q 0.14062,0.0639 0.12784,0.19176 -0.35795,3.19592 -1.52126,3.19592 h -0.0895 -0.0256 q -0.0639,-0.0127 -0.10227,-0.0127 v 0.51134 q 0,0.20454 -0.19176,0.20454 h -6.5069 q -0.19176,0 -0.19176,-0.20454 z M 222.624,109.05477 h -5.13905 q -0.19175,0 -0.19175,-0.19175 v -1.0994 q 0,-0.20455 0.19175,-0.20455 h 5.13905 v -0.72867 q 0,-0.19175 0.19176,-0.19175 h 1.02269 q 0.65197,-0.44743 1.31672,-0.97156 h -5.71431 q -0.19176,0 -0.19176,-0.19175 v -0.30681 h -1.36785 q -0.19175,0 -0.19175,-0.19176 v -2.65901 q 0,-0.20453 0.19175,-0.20453 h 1.48291 q -0.14062,-0.25568 -0.28124,-0.48579 -0.12785,-0.23011 -0.23011,-0.42186 -0.12783,-0.23011 0.11502,-0.3196 l 1.12497,-0.40907 q 0.14062,-0.0384 0.2301,0.0895 0.20454,0.34516 0.40908,0.74145 0.21732,0.38352 0.42186,0.80538 h 1.34229 q -0.15341,-0.28124 -0.29403,-0.53692 -0.12783,-0.25567 -0.26845,-0.51135 -0.14063,-0.21732 0.11501,-0.30681 l 1.12497,-0.40907 q 0.14062,-0.0384 0.21732,0.0768 0.23011,0.38351 0.44743,0.81816 0.21732,0.42186 0.43465,0.86929 h 1.15053 q 0.23011,-0.37073 0.43465,-0.76703 0.21732,-0.39629 0.40907,-0.81816 0.0768,-0.15339 0.21733,-0.10226 l 1.15054,0.26845 q 0.10226,0.0256 0.14062,0.11502 0.0511,0.0766 0,0.17898 -0.14062,0.30681 -0.29403,0.58805 -0.14062,0.28124 -0.28124,0.53691 h 1.47013 q 0.19175,0 0.19175,0.20454 v 2.65901 q 0,0.19176 -0.19175,0.19176 h -1.38065 v 0.43464 q 0,0.0639 -0.0511,0.11502 -0.98435,0.98434 -2.1988,1.84085 h 4.02686 q 0.19177,0 0.19177,0.20454 v 1.0994 q 0,0.19175 -0.19177,0.19175 h -4.65326 v 1.66189 q 0,0.25566 0,0.40907 0,0.1534 -0.0127,0.23011 -0.0128,0.11502 -0.0384,0.21732 -0.0127,0.11502 -0.0639,0.23011 -0.10226,0.25568 -0.17897,0.30681 -0.12783,0.0768 -0.38351,0.14062 -0.26846,0.0639 -0.54971,0.0768 -0.10226,0.0128 -0.3068,0.0128 -0.19176,0 -0.49857,0 -0.21732,0 -0.71588,-0.0256 -0.48578,-0.0128 -1.24002,-0.0384 -0.0766,0 -0.14062,-0.0511 -0.0639,-0.0511 -0.0639,-0.12785 l -0.0511,-1.04826 q -0.0128,-0.10226 0.0511,-0.15341 0.0768,-0.0639 0.17898,-0.0639 0.69031,0.0256 1.11218,0.0384 0.43465,0.0127 0.61361,0.0127 0.37073,0 0.43466,-0.0639 0.0639,-0.0639 0.0639,-0.37073 z m -3.24706,-5.58648 v 0.77981 h 7.79806 v -0.77981 z m -8.36054,-2.92746 q 0.19176,0 0.19176,0.20453 v 9.48551 q 0,0.33238 0,0.5497 0,0.20454 -0.0128,0.30681 -0.0128,0.3068 -0.10226,0.57527 -0.10227,0.26845 -0.20455,0.38351 -0.11502,0.11502 -0.37072,0.19175 -0.15341,0.0511 -0.29403,0.0639 -0.12783,0.0256 -0.26845,0.0384 -0.20454,0.0128 -0.40908,0.0128 -0.20454,0.0127 -0.40908,0.0127 -0.16619,0 -0.65197,-0.0255 -0.473,-0.0127 -1.27837,-0.0384 -0.0895,0 -0.15341,-0.0511 -0.0511,-0.0511 -0.0511,-0.12784 l -0.0511,-1.12497 q 0,-0.21733 0.21732,-0.21733 0.71589,0.0255 1.12497,0.0384 0.42186,0.0127 0.54969,0.0127 0.42186,0 0.49857,-0.0768 0.0895,-0.0767 0.0895,-0.52413 v -9.48551 q 0,-0.20453 0.19175,-0.20453 z m -3.89903,3.11922 q 0.20454,0.0384 0.17898,0.24289 -0.53692,3.10644 -1.72581,5.99556 -0.0768,0.17896 -0.24289,0.11502 l -1.27837,-0.43465 q -0.21732,-0.0639 -0.11502,-0.26846 0.58805,-1.38064 0.99712,-2.79963 0.40907,-1.41899 0.67754,-2.92747 0.0127,-0.0768 0.0768,-0.12783 0.0639,-0.0511 0.15341,-0.0255 z m 7.23558,-0.34516 q 0.16619,-0.0511 0.2301,0.11502 0.56248,1.47012 1.03548,2.99138 0.473,1.52127 0.86929,3.08088 0.0384,0.20454 -0.14062,0.24288 l -1.30394,0.34517 q -0.20454,0.0511 -0.25567,-0.14062 -0.35794,-1.4957 -0.81816,-2.97861 -0.44743,-1.49569 -1.00991,-3.00417 -0.0639,-0.21732 0.12784,-0.28123 z" />
  <path
     id="path4740"
     style="font-style:normal;font-variant:normal;font-weight:normal;font-stretch:normal;font-size:medium;line-height:2;font-family:'07YasashisaGothicBold';-inkscape-font-specification:'07YasashisaGothicBold';font-variant-ligatures:normal;font-variant-caps:normal;font-variant-numeric:normal;font-feature-settings:normal;text-align:center;letter-spacing:0px;word-spacing:0px;writing-mode:lr-tb;text-anchor:middle;fill:#4f3327;fill-opacity:1;stroke:none;stroke-width:1.39999998;stroke-miterlimit:4;stroke-dasharray:none;stroke-opacity:1"
     d="m 199.29714,126.14678 h 0.043 l 3.95737,-7.14047 q 0.12904,-0.17206 0.27959,-0.17206 h 2.53788 q 0.2796,0 0.38713,0.21507 0.12905,0.19358 -0.0215,0.43016 l -4.51656,7.29102 h 2.98953 q 0.34412,0 0.34412,0.32261 v 1.18291 q 0,0.32261 -0.34412,0.32261 h -4.08642 v 1.63457 h 4.08642 q 0.34412,0 0.34412,0.3226 v 1.18292 q 0,0.32261 -0.34412,0.32261 h -4.08642 v 2.53787 q 0,0.32261 -0.34411,0.32261 h -2.49486 q -0.34412,0 -0.34412,-0.32261 v -2.53787 h -4.08642 q -0.34412,0 -0.34412,-0.32261 v -1.18292 q 0,-0.3226 0.34412,-0.3226 h 4.08642 v -1.63457 h -4.08642 q -0.34412,0 -0.34412,-0.32261 v -1.18291 q 0,-0.32261 0.34412,-0.32261 h 2.98954 l -4.51656,-7.29102 q -0.15056,-0.23658 -0.043,-0.43016 0.12905,-0.21507 0.40864,-0.21507 h 2.62391 q 0.17206,0 0.2796,0.17206 z m 18.53942,-3.26913 h -0.043 l -4.36601,6.28018 v 0.043 h 4.40903 z m 5.11876,6.32319 q 0.32262,0 0.32262,0.32261 v 1.7636 q 0,0.32262 -0.32262,0.32262 h -2.12922 v 2.98953 q 0,0.32261 -0.32262,0.32261 h -2.3228 q -0.34412,0 -0.34412,-0.32261 v -2.98953 h -6.92539 q -0.34412,0 -0.34412,-0.32262 v -2.00019 q 0,-0.0645 0.043,-0.15055 l 7.14046,-10.1515 q 0.0861,-0.15056 0.23658,-0.15056 h 2.51638 q 0.32261,0 0.32261,0.34412 v 10.02247 z m 5.44139,-2.32281 q 0,0.79578 0.043,1.82813 0.0645,1.01085 0.36563,1.91416 0.3011,0.88181 0.90331,1.50552 0.6022,0.62372 1.7421,0.62372 1.11839,0 1.7206,-0.62372 0.6022,-0.62371 0.90331,-1.50552 0.30111,-0.90331 0.34412,-1.91416 0.0645,-1.03235 0.0645,-1.82813 0,-0.79578 -0.0645,-1.80662 -0.043,-1.03236 -0.34412,-1.91416 -0.30111,-0.90332 -0.90331,-1.50552 -0.60221,-0.62372 -1.7206,-0.62372 -1.1399,0 -1.7421,0.62372 -0.60221,0.6022 -0.90331,1.50552 -0.3011,0.8818 -0.36563,1.91416 -0.043,1.01084 -0.043,1.80662 z m -3.11857,0 q 0,-1.63457 0.23657,-3.11858 0.23658,-1.50552 0.90331,-2.6239 0.68825,-1.13989 1.89266,-1.82814 1.22593,-0.68823 3.14009,-0.68823 1.91416,0 3.09707,0.68823 1.20441,0.68825 1.89265,1.82814 0.68824,1.13989 0.92483,2.64542 0.23658,1.484 0.23658,3.09706 0,1.63457 -0.23658,3.11858 -0.23659,1.48402 -0.92483,2.64542 -0.68824,1.13988 -1.89265,1.82813 -1.18291,0.66673 -3.09707,0.66673 -1.91416,0 -3.14009,-0.66673 -1.20441,-0.68825 -1.89266,-1.82813 -0.66673,-1.1399 -0.90331,-2.62391 -0.23657,-1.50552 -0.23657,-3.14009 z m 17.22745,0 q 0,0.79578 0.043,1.82813 0.0645,1.01085 0.36563,1.91416 0.3011,0.88181 0.90331,1.50552 0.60221,0.62372 1.74211,0.62372 1.11838,0 1.72059,-0.62372 0.60221,-0.62371 0.90332,-1.50552 0.30109,-0.90331 0.34411,-1.91416 0.0645,-1.03235 0.0645,-1.82813 0,-0.79578 -0.0645,-1.80662 -0.043,-1.03236 -0.34411,-1.91416 -0.30111,-0.90332 -0.90332,-1.50552 -0.60221,-0.62372 -1.72059,-0.62372 -1.1399,0 -1.74211,0.62372 -0.60221,0.6022 -0.90331,1.50552 -0.30111,0.8818 -0.36563,1.91416 -0.043,1.01084 -0.043,1.80662 z m -3.11858,0 q 0,-1.63457 0.23658,-3.11858 0.23659,-1.50552 0.90332,-2.6239 0.68823,-1.13989 1.89265,-1.82814 1.22593,-0.68823 3.14009,-0.68823 1.91416,0 3.09706,0.68823 1.20443,0.68825 1.89266,1.82814 0.68823,1.13989 0.92482,2.64542 0.23658,1.484 0.23658,3.09706 0,1.63457 -0.23658,3.11858 -0.23659,1.48402 -0.92482,2.64542 -0.68823,1.13988 -1.89266,1.82813 -1.1829,0.66673 -3.09706,0.66673 -1.91416,0 -3.14009,-0.66673 -1.20442,-0.68825 -1.89265,-1.82813 -0.66673,-1.1399 -0.90332,-2.62391 -0.23658,-1.50552 -0.23658,-3.14009 z m 16.7543,8.75353 q -0.10758,0.17206 -0.27961,0.17206 h -2.00019 q -0.23658,0 -0.36562,-0.17206 -0.10758,-0.15055 0,-0.38714 l 7.31253,-16.2166 q 0.10758,-0.19357 0.27959,-0.19357 h 1.95718 q 0.25809,0 0.36562,0.17206 0.12905,0.17206 0.0215,0.38713 z m 13.07652,-10.83975 h 0.043 q 1.54854,-1.54853 3.41969,-1.54853 2.0217,0 2.90351,1.1614 0.90331,1.1614 0.90331,3.91435 v 6.28017 q 0,0.32261 -0.32261,0.32261 h -2.21527 q -0.32261,0 -0.32261,-0.32261 v -5.85002 q 0,-1.89265 -0.40865,-2.51637 -0.40864,-0.62371 -1.52702,-0.62371 -0.88181,0 -1.67759,0.79577 -0.79576,0.79578 -0.79576,1.69909 v 6.49524 q 0,0.32261 -0.32262,0.32261 h -2.27979 q -0.32261,0 -0.32261,-0.32261 v -15.87249 q 0,-0.3226 0.32261,-0.3226 h 2.27979 q 0.32262,0 0.32262,0.3226 z"
     inkscape:connector-curvature="0" />
  <path
     inkscape:connector-curvature="0"
     d="m 263.96477,48.065447 q -0.19141,0 -0.19141,-0.191406 v -6.239844 q 0,-0.191406 0.19141,-0.191406 h 6.99271 q 0.20416,0 0.20416,0.191406 v 6.239844 q 0,0.191406 -0.20416,0.191406 z m 1.46745,-1.327083 h 3.98125 v -1.314323 h -3.98125 z m 3.98125,-2.615886 v -1.276041 h -3.98125 v 1.276041 z m -4.41511,4.415104 q 0.0893,0 0.14037,0.0638 0.0638,0.0638 0.051,0.153125 -0.17865,1.582292 -1.21224,2.590365 -1.03359,1.033594 -3.15182,1.582292 -0.15313,0.03828 -0.21693,-0.08932 l -0.5487,-1.033594 q -0.051,-0.102083 -0.0128,-0.191406 0.051,-0.102084 0.15313,-0.127604 1.62057,-0.421094 2.41171,-1.084636 0.72735,-0.62526 0.94428,-1.773698 0.0128,-0.153125 0.1914,-0.153125 z m 3.17735,-0.03828 q 0.1914,0 0.1914,0.191406 v 2.220313 q 0,0.31901 0.15313,0.382812 0.16588,0.0638 0.82942,0.0638 0.65079,0 0.77839,-0.216927 0.10208,-0.229687 0.16589,-1.352604 0.0128,-0.102083 0.0638,-0.153125 0.0638,-0.0638 0.15312,-0.05104 l 1.27604,0.102083 q 0.17865,0.02552 0.17865,0.191406 -0.0128,0.140365 -0.0255,0.331771 0,0.191406 -0.0255,0.484896 -0.0128,0.165885 -0.0383,0.357291 -0.0128,0.178646 -0.0638,0.382813 -0.0511,0.229687 -0.0766,0.370052 -0.0255,0.140365 -0.051,0.191406 -0.0766,0.191407 -0.22969,0.370052 -0.15312,0.178646 -0.31901,0.229688 -0.21692,0.102083 -0.47213,0.140364 -0.15313,0.02552 -0.31901,0.03828 -0.15313,0.01276 -0.33177,0.01276 -0.0383,0 -0.12761,0 -0.0766,0.01276 -0.21692,0.01276 -0.14037,0.01276 -0.26797,0 -0.11485,0 -0.21693,0 -0.38281,0 -0.63802,0 -0.24245,0 -0.37005,-0.01276 -0.14037,-0.01276 -0.31901,-0.03828 -0.16589,-0.01276 -0.37006,-0.05104 -0.31901,-0.05104 -0.45937,-0.165885 -0.15313,-0.114844 -0.24245,-0.280729 -0.10208,-0.204167 -0.1276,-0.421094 -0.0128,-0.140365 -0.0255,-0.29349 0,-0.153125 0,-0.31901 v -2.526563 q 0,-0.191406 0.20416,-0.191406 z m -7.42657,-6.941666 q 0,-0.191407 0.20417,-0.191407 h 1.30156 q 0.20417,0 0.20417,0.191407 v 6.839583 q 0,0.191406 -0.20417,0.191406 h -1.30156 q -0.20417,0 -0.20417,-0.191406 z m -9.26406,6.571613 q 0.17865,-0.03828 0.24245,0.114844 0.45938,1.250521 0.80391,2.552083 0.34453,-0.6125 0.53593,-1.186719 0.21693,-0.599739 0.37006,-1.403645 0.16588,-0.803907 0.28073,-1.82474 0.0255,-0.344531 0.051,-0.638021 0.0255,-0.30625 0.051,-0.574219 h -1.225 q -0.19141,0 -0.19141,-0.204166 v -0.319011 q -0.42109,0.90599 -0.89323,1.850261 -0.47213,0.93151 -1.03359,1.926823 z m -0.65078,1.990625 q -0.22969,-0.714583 -0.51042,-1.454687 -0.34453,0.62526 -0.62526,1.097395 -0.26796,0.459375 -0.45937,0.765625 0.26797,-0.0638 0.65078,-0.165885 0.39557,-0.102083 0.94427,-0.242448 z m -3.56015,-6.099479 q 0.0638,-0.102083 0.16588,-0.102083 0.11484,-0.01276 0.20417,0.08932 0.29349,0.344531 0.31901,0.382812 0.38281,-0.701823 0.72734,-1.467448 0.34453,-0.765625 0.6763,-1.595052 0.0638,-0.191406 0.24245,-0.114844 l 1.11016,0.382813 q 0.20416,0.0638 0.11484,0.267969 -0.79114,2.041666 -1.86302,3.866406 0.39557,0.510416 0.68906,0.969791 0.33177,-0.599739 0.66354,-1.276041 0.33178,-0.689063 0.68907,-1.467448 0.0893,-0.204167 0.26797,-0.114844 l 1.12291,0.561458 v -0.472135 q 0,-0.204167 0.19141,-0.204167 h 1.2888 q 0.0383,-1.110156 0.0383,-2.411718 0,-0.204167 0.19141,-0.204167 h 1.2888 q 0.19141,0 0.19141,0.204167 0,1.301562 -0.0383,2.411718 h 3.11354 q 0.1914,0 0.1914,0.216927 0,2.922136 -0.0638,4.746875 -0.0638,1.81198 -0.20417,2.577605 -0.1914,1.161197 -0.71458,1.378125 -0.24245,0.102083 -0.84219,0.102083 -0.70182,0 -1.88854,-0.114844 -0.16588,0 -0.16588,-0.191406 l -0.0255,-1.097396 q 0,-0.242448 0.22968,-0.216927 0.43386,0.0638 0.75287,0.08932 0.33177,0.01276 0.57422,0.01276 0.15312,0 0.24244,-0.08932 0.0766,-0.07656 0.16589,-0.395573 0.0638,-0.140364 0.0893,-0.382812 0.0383,-0.255208 0.051,-0.59974 0.0128,-0.0638 0.0255,-0.497656 0.0128,-0.433854 0.0383,-1.276042 0.0383,-1.110156 0.0383,-2.820052 h -1.68438 q -0.0255,0.535938 -0.0638,0.944271 -0.0383,0.395573 -0.0638,0.701823 -0.14037,1.110156 -0.33177,2.003386 -0.17865,0.880468 -0.44662,1.582291 -0.49765,1.352604 -1.2888,2.411719 -0.0638,0.07656 -0.15312,0.08932 -0.0893,0.01276 -0.15313,-0.05104 l -1.11015,-0.982552 -0.28073,0.08932 q -0.21693,0.0638 -0.26797,-0.140365 -0.0255,-0.0638 -0.051,-0.140364 -0.0128,-0.08932 -0.0383,-0.204167 -1.13567,0.331771 -2.18203,0.574219 -1.03359,0.255208 -2.00338,0.433854 -0.0893,0.02552 -0.15313,-0.02552 -0.0638,-0.05104 -0.0766,-0.140364 l -0.15312,-1.071875 q -0.0255,-0.191407 0.16588,-0.229688 0.10208,-0.01276 0.17865,-0.02552 0.0766,-0.02552 0.15312,-0.03828 0.80391,-1.225 1.68438,-2.75625 -1.08464,-1.582291 -2.1948,-2.896614 -0.0893,-0.08932 -0.0128,-0.216927 z m -12.50521,8.192187 q -0.0638,0.102084 -0.16589,0.102084 h -1.18672 q -0.14036,0 -0.21692,-0.102084 -0.0638,-0.08932 0,-0.229687 l 4.33854,-9.621354 q 0.0638,-0.114844 0.16588,-0.114844 h 1.1612 q 0.15313,0 0.21693,0.102083 0.0766,0.102084 0.0128,0.229688 z m -17.15,-4.147135 q -0.19141,0 -0.19141,-0.191406 v -6.239844 q 0,-0.191406 0.19141,-0.191406 h 6.99271 q 0.20416,0 0.20416,0.191406 v 6.239844 q 0,0.191406 -0.20416,0.191406 z m 1.46745,-1.327083 h 3.98125 v -1.314323 h -3.98125 z m 3.98125,-2.615886 v -1.276041 h -3.98125 v 1.276041 z m -4.41511,4.415104 q 0.0893,0 0.14037,0.0638 0.0638,0.0638 0.051,0.153125 -0.17865,1.582292 -1.21224,2.590365 -1.0336,1.033594 -3.15183,1.582292 -0.15312,0.03828 -0.21692,-0.08932 l -0.5487,-1.033594 q -0.051,-0.102083 -0.0128,-0.191406 0.051,-0.102084 0.15312,-0.127604 1.62058,-0.421094 2.41172,-1.084636 0.72735,-0.62526 0.94427,-1.773698 0.0128,-0.153125 0.19141,-0.153125 z m 3.17734,-0.03828 q 0.19141,0 0.19141,0.191406 v 2.220313 q 0,0.31901 0.15313,0.382812 0.16588,0.0638 0.82942,0.0638 0.65078,0 0.77839,-0.216927 0.10208,-0.229687 0.16588,-1.352604 0.0128,-0.102083 0.0638,-0.153125 0.0638,-0.0638 0.15312,-0.05104 l 1.27604,0.102083 q 0.17865,0.02552 0.17865,0.191406 -0.0128,0.140365 -0.0255,0.331771 0,0.191406 -0.0255,0.484896 -0.0128,0.165885 -0.0383,0.357291 -0.0128,0.178646 -0.0638,0.382813 -0.051,0.229687 -0.0766,0.370052 -0.0255,0.140365 -0.051,0.191406 -0.0766,0.191407 -0.22969,0.370052 -0.15312,0.178646 -0.31901,0.229688 -0.21693,0.102083 -0.47213,0.140364 -0.15313,0.02552 -0.31901,0.03828 -0.15313,0.01276 -0.33178,0.01276 -0.0383,0 -0.1276,0 -0.0766,0.01276 -0.21693,0.01276 -0.14036,0.01276 -0.26797,0 -0.11484,0 -0.21692,0 -0.38281,0 -0.63802,0 -0.24245,0 -0.37006,-0.01276 -0.14036,-0.01276 -0.31901,-0.03828 -0.16588,-0.01276 -0.37005,-0.05104 -0.31901,-0.05104 -0.45937,-0.165885 -0.15313,-0.114844 -0.24245,-0.280729 -0.10208,-0.204167 -0.1276,-0.421094 -0.0128,-0.140365 -0.0255,-0.29349 0,-0.153125 0,-0.31901 v -2.526563 q 0,-0.191406 0.20417,-0.191406 z m -7.42656,-6.941666 q 0,-0.191407 0.20417,-0.191407 h 1.30156 q 0.20417,0 0.20417,0.191407 v 6.839583 q 0,0.191406 -0.20417,0.191406 h -1.30156 q -0.20417,0 -0.20417,-0.191406 z m -4.01953,9.799998 q 0.44662,0 0.56146,-0.140364 0.19141,-0.229688 0.26797,-1.760938 0.0128,-0.370052 0.0383,-1.225 0,-0.102083 0.051,-0.153125 0.0638,-0.0638 0.16589,-0.05104 l 1.12291,0.127604 q 0.0766,0 0.12761,0.0638 0.051,0.0638 0.051,0.140365 -0.0255,0.701822 -0.0383,1.084635 -0.0128,0.331771 -0.0255,0.586979 -0.0128,0.242448 -0.0255,0.408333 -0.0128,0.08932 -0.0255,0.204167 0,0.102083 -0.0128,0.229688 -0.0383,0.267968 -0.0383,0.344531 -0.0128,0.280729 -0.11484,0.599739 -0.051,0.140365 -0.0893,0.255209 -0.0383,0.114844 -0.0638,0.191406 -0.051,0.127604 -0.24244,0.280729 -0.11485,0.127604 -0.29349,0.191406 -0.14037,0.03828 -0.24245,0.0638 -0.0893,0.02552 -0.15313,0.03828 -0.28072,0.03828 -0.49765,0.03828 h -0.59974 q -0.33177,0 -0.56146,0 -0.21693,0 -0.31901,-0.01276 -0.39557,-0.01276 -0.59974,-0.07656 -0.22969,-0.05104 -0.40833,-0.191406 -0.12761,-0.114844 -0.21693,-0.280729 -0.10208,-0.191407 -0.11484,-0.446615 -0.0128,-0.07656 -0.0128,-0.229687 0,-0.165886 0,-0.408334 v -9.659635 q 0,-0.191406 0.1914,-0.191406 h 1.31432 q 0.19141,0 0.19141,0.191406 v 9.264062 q 0,0.370052 0.0893,0.446615 0.0893,0.07656 0.52318,0.07656 z m -2.82005,-8.983333 q 0.0255,0.08932 -0.0255,0.165886 -0.051,0.0638 -0.14037,0.07656 -1.46744,0.255208 -3.0625,0.395573 -1.59505,0.127604 -3.34323,0.191406 -0.1914,0 -0.21692,-0.165885 l -0.12761,-1.046354 q -0.0128,-0.08932 0.0383,-0.153125 0.0638,-0.0638 0.17865,-0.0638 1.7099,-0.0638 3.26667,-0.191407 1.55677,-0.140364 3.01146,-0.370052 0.17864,-0.02552 0.22968,0.153125 z m -5.74219,3.560156 q -0.1914,0.0638 -0.25521,-0.127604 -0.15312,-0.484896 -0.33177,-0.93151 -0.16588,-0.459375 -0.34453,-0.867708 -0.10208,-0.216928 0.12761,-0.28073 l 0.94427,-0.30625 q 0.15312,-0.03828 0.22968,0.102084 0.17865,0.395573 0.3573,0.854948 0.1914,0.459375 0.35729,1.008073 0.0638,0.204166 -0.12761,0.267968 z m 2.07995,-0.242447 q -0.17865,0.0638 -0.24245,-0.127605 -0.1914,-0.523177 -0.34453,-0.969791 -0.15312,-0.459375 -0.33177,-0.842188 -0.0893,-0.191406 0.1276,-0.280729 l 0.94427,-0.31901 q 0.16589,-0.03828 0.22969,0.102083 0.37005,0.778385 0.70182,1.875781 0.0638,0.191406 -0.1276,0.255209 z m -0.96979,5.805989 q 0.29349,0 0.35729,-0.07656 0.0638,-0.102084 0.0638,-0.523178 v -0.6125 q -0.81667,0.0638 -1.46745,0.102084 -0.63802,0.02552 -1.11015,0.0638 -0.17865,0 -0.20417,-0.191406 l -0.0638,-0.982552 q -0.0128,-0.08932 0.0383,-0.140365 0.0638,-0.0638 0.15312,-0.07656 0.89323,-0.05104 1.54402,-0.08932 0.66354,-0.03828 1.11015,-0.07656 v -0.59974 q 0,-0.204166 0.20417,-0.204166 h 0.25521 q 0.34453,-0.140365 0.68906,-0.29349 0.35729,-0.165885 0.72734,-0.344531 h -4.14713 q -0.19141,0 -0.19141,-0.191406 V 46.33003 q 0,-0.191406 0.19141,-0.191406 h 5.18073 l -0.90599,-0.30625 q -0.10209,-0.02552 -0.14037,-0.102083 -0.0255,-0.08932 0.0128,-0.178646 0.25521,-0.59974 0.45938,-1.199479 0.21692,-0.59974 0.38281,-1.250521 0.0255,-0.07656 0.0893,-0.114844 0.0638,-0.05104 0.15313,-0.02552 l 0.99531,0.229688 q 0.0893,0.02552 0.1276,0.102083 0.0511,0.07656 0.0255,0.165886 -0.43386,1.54401 -0.9698,2.679687 h 0.66355 q 0.1914,0 0.1914,0.191406 v 1.033594 q 0,0.08932 -0.0766,0.140365 -0.5487,0.357291 -1.0974,0.663541 -0.53593,0.30625 -1.08463,0.561459 0.56146,-0.05104 1.14844,-0.114844 0.58697,-0.0638 1.18671,-0.127604 0.10209,-0.01276 0.16589,0.05104 0.0638,0.05104 0.0638,0.153125 l 0.0128,0.995313 q 0,0.165885 -0.16588,0.191406 -0.58698,0.07656 -1.19948,0.140365 -0.59974,0.05104 -1.21224,0.114843 v 0.91875 q 0,0.267969 0,0.459375 0,0.178646 -0.0128,0.267969 -0.0128,0.102084 -0.0383,0.229688 -0.0128,0.127604 -0.0511,0.280729 -0.0638,0.216927 -0.16588,0.344531 -0.11484,0.114844 -0.29349,0.178646 -0.10208,0.05104 -0.20417,0.0638 -0.10208,0.02552 -0.20416,0.03828 -0.0893,0.01276 -0.22969,0.01276 -0.14037,0 -0.37005,0 -0.25521,0 -0.72735,-0.01276 -0.47213,-0.01276 -1.17396,-0.03828 -0.0766,-0.01276 -0.14036,-0.0638 -0.051,-0.05104 -0.051,-0.127604 l -0.0638,-1.020834 q 0,-0.08932 0.15312,-0.153125 0.15313,-0.0638 0.37005,-0.05104 0.76563,0.03828 1.04636,0.03828 z"
     style="font-style:normal;font-variant:normal;font-weight:normal;font-stretch:normal;font-size:medium;line-height:2;font-family:'07YasashisaGothicBold';-inkscape-font-specification:'07YasashisaGothicBold';font-variant-ligatures:normal;font-variant-caps:normal;font-variant-numeric:normal;font-feature-settings:normal;text-align:center;letter-spacing:0px;word-spacing:0px;writing-mode:lr-tb;text-anchor:middle;fill:#4f3327;fill-opacity:1;stroke:none;stroke-width:0.89999998;stroke-miterlimit:4;stroke-dasharray:none;stroke-opacity:1"
     id="path856" />
  <path
     inkscape:connector-curvature="0"
     style="opacity:1;fill:none;fill-opacity:0.70588235;stroke:#639f6c;stroke-width:2.9059999;stroke-linecap:round;stroke-linejoin:round;stroke-miterlimit:4;stroke-dasharray:none;stroke-opacity:1"
     d="M 56.702351,109.55879 C 59.232034,96.80544 67.716678,85.787952 79.753529,79.626352 l -10.148831,-1.336066 4.300368,4.686782"
     id="path4833-1"
     sodipodi:nodetypes="cc" />
  <path
     inkscape:connector-curvature="0"
     style="opacity:1;fill:none;fill-opacity:0.70588235;stroke:#d94e1f;stroke-width:2.9059999;stroke-linecap:round;stroke-linejoin:round;stroke-miterlimit:4;stroke-dasharray:none;stroke-opacity:1"
     d="m 480.70351,44.512424 c 12.52695,3.481764 22.87505,12.771067 28.11384,25.237271 l 2.09563,-10.019592 -4.99696,3.935667"
     id="path4833-1-5"
     sodipodi:nodetypes="cc" />
</svg>
