<?xml version="1.0" encoding="UTF-8" standalone="no"?>
<!-- Created with Inkscape (http://www.inkscape.org/) -->

<svg
   width="100"
   height="100"
   viewBox="0 0 100 100"
   id="svg2"
   version="1.1"
   inkscape:version="1.4.2 (f4327f4, 2025-05-13)"
   sodipodi:docname="favicons.svg"
   inkscape:export-filename="C:\Users\FMVA77HWZ\Desktop\mini_rogo.png"
   inkscape:export-xdpi="960"
   inkscape:export-ydpi="960"
   xmlns:inkscape="http://www.inkscape.org/namespaces/inkscape"
   xmlns:sodipodi="http://sodipodi.sourceforge.net/DTD/sodipodi-0.dtd"
   xmlns:xlink="http://www.w3.org/1999/xlink"
   xmlns="http://www.w3.org/2000/svg"
   xmlns:svg="http://www.w3.org/2000/svg"
   xmlns:rdf="http://www.w3.org/1999/02/22-rdf-syntax-ns#"
   xmlns:cc="http://creativecommons.org/ns#"
   xmlns:dc="http://purl.org/dc/elements/1.1/">
  <defs
     id="defs4">
    <pattern
       inkscape:collect="always"
       xlink:href="#Bricks-5-9"
       id="pattern23-3-0"
       patternTransform="matrix(0.25000002,0,0,0.20000002,-19.234521,-469.37205)"
       x="0"
       y="0"
       preserveAspectRatio="none" />
    <pattern
       patternUnits="userSpaceOnUse"
       width="100"
       height="100"
       id="Bricks-5-9"
       style="fill:#f1e2c2"
       patternTransform="scale(0.25,0.25)"
       inkscape:collect="always"
       inkscape:label="Bricks"
       inkscape:isstock="true">
      <g
         id="g13367-3-4">
        <rect
           style="fill:none;stroke:none;stroke-width:0"
           id="rect13349-3-8"
           width="100"
           height="100"
           x="0"
           y="0" />
        <rect
           style="fill-opacity:1;stroke-width:0"
           id="rect13351-8-8"
           width="40"
           height="40"
           x="0"
           y="60" />
        <rect
           style="fill-opacity:1;stroke-width:0"
           id="rect13353-8-2"
           width="90"
           height="40"
           x="0"
           y="10" />
        <rect
           style="fill-opacity:1;stroke-width:0"
           id="rect13355-4-4"
           width="50"
           height="40"
           x="50"
           y="60" />
      </g>
    </pattern>
  </defs>
  <sodipodi:namedview
     id="base"
     pagecolor="#ffffff"
     bordercolor="#666666"
     borderopacity="1.0"
     inkscape:pageopacity="0"
     inkscape:pageshadow="2"
     inkscape:zoom="1.68375"
     inkscape:cx="46.622122"
     inkscape:cy="52.858202"
     inkscape:document-units="px"
     inkscape:current-layer="g2"
     showgrid="false"
     units="px"
     inkscape:window-width="2256"
     inkscape:window-height="1470"
     inkscape:window-x="-11"
     inkscape:window-y="-11"
     inkscape:window-maximized="1"
     inkscape:showpageshadow="false"
     inkscape:pagecheckerboard="true"
     showborder="true"
     scale-x="0.8"
     inkscape:deskcolor="#505050" />
  <metadata
     id="metadata7">
    <rdf:RDF>
      <cc:Work
         rdf:about="">
        <dc:format>image/svg+xml</dc:format>
        <dc:type
           rdf:resource="http://purl.org/dc/dcmitype/StillImage" />
      </cc:Work>
    </rdf:RDF>
  </metadata>
  <g
     id="g2"
     transform="matrix(0.75590547,0,0,0.75590547,329.33947,-110.59908)">
    <rect
       style="fill:#fbf8e5;fill-opacity:1;stroke:none;stroke-width:3.27046;stroke-dasharray:none;stroke-dashoffset:0;stroke-opacity:1;paint-order:stroke markers fill"
       id="rect4-0-9-1"
       width="132.29167"
       height="132.29167"
       x="-435.68869"
       y="146.31337"
       inkscape:export-filename="いぶねる.500.png"
       inkscape:export-xdpi="96"
       inkscape:export-ydpi="96" />
    <rect
       style="mix-blend-mode:normal;fill:url(#pattern23-3-0);fill-opacity:1;stroke:none;stroke-width:1.96228;stroke-dasharray:none;stroke-dashoffset:0;stroke-opacity:1;paint-order:stroke markers fill"
       id="rect4-2-4-18-4-5"
       width="132.29167"
       height="47.625004"
       x="-435.68869"
       y="230.98004" />
    <g
       id="g3">
      <path
         id="path24-8-6-1-3-0-9"
         style="font-weight:600;font-size:98.7778px;line-height:1;font-family:'Yu Mincho';-inkscape-font-specification:'Yu Mincho, Semi-Bold';text-align:center;letter-spacing:0.529167px;word-spacing:0px;text-anchor:middle;fill:#3c8b6f;fill-opacity:1;stroke:#3c8b6f;stroke-width:0.681914;stroke-dasharray:none;stroke-dashoffset:0;stroke-opacity:1"
         d="m -373.55378,201.94426 q -3.36534,-5.17229 -4.41687,-7.94601 -1.26786,-3.34599 -0.82983,-6.63178 0.60774,-4.55905 5.27075,-7.23983 3.84158,-2.16325 7.98988,-1.61025 2.34113,0.31209 3.52679,1.76601 2.52466,3.0119 3.8746,3.86069 8.44735,5.30632 9.225,5.7444 2.74358,-1.76618 6.93288,-4.96993 1.70852,-2.78202 3.84429,-2.4973 2.95722,0.39421 5.24368,3.62517 2.87517,4.14549 2.50833,6.89735 -0.20259,1.51968 -0.89804,2.97367 -0.58046,1.21847 -1.52512,1.09256 -0.36966,-0.0492 -0.58051,-0.66262 -0.0904,-0.26286 -1.22402,-2.4205 -1.11996,-1.9468 -2.31107,-2.10559 -1.60182,-0.21353 -5.50638,1.4815 -0.89263,0.42444 -9.56973,4.36763 -4.06063,1.92503 -14.08218,5.60537 2.66983,4.74515 3.79528,7.27792 1.45952,3.16251 0.92843,7.14655 -0.43254,3.24473 -3.75108,6.81537 -1.96046,2.16319 -6.8507,6.23496 6.84549,3.83871 8.735,10.98798 0.38339,1.51418 0.0822,3.77318 -0.14782,1.10895 -1.01035,0.99397 -0.28751,-0.0383 -1.17198,-1.87011 -2.17694,-4.05242 -8.36798,-6.84244 -5.73102,-2.47787 -8.14613,-4.43011 -3.32966,-2.61758 -2.84236,-6.27304 0.18614,-1.39646 1.45115,-2.10568 1.07883,-0.56682 2.39315,-0.39161 l 4.48511,0.8487 q 3.53222,0.47086 7.43404,-1.51714 3.72658,-1.92776 4.10985,-4.80284 0.32303,-2.42327 -1.02147,-5.19425 -1.41023,-2.90514 -5.82979,-9.26302 -6.83988,1.13652 -11.97394,0.45212 -5.9555,-0.7939 -9.7917,-2.43394 -5.47089,-2.2342 -8.68834,-6.63432 -3.09971,-4.34264 -2.54124,-8.53203 0.38325,-2.87508 2.15755,-4.26884 1.3444,-0.99125 2.78194,-0.79963 1.51968,0.20259 2.89153,1.51413 1.56079,1.46214 3.76776,1.83995 2.00158,0.35045 7.13565,1.03485 1.60183,0.21354 1.50874,0.91178 -0.0437,0.32857 -1.81537,0.76125 -5.36128,1.33363 -7.33546,2.03191 -1.61824,0.53672 -1.82082,2.0564 -0.13141,0.98574 0.60245,2.37944 1.74429,2.90788 4.9069,4.58354 3.78145,2.05079 8.09406,2.62567 4.0251,0.53658 8.22541,-0.24118 z m 5.79937,-1.48425 q 5.83767,-2.39877 16.8832,-9.37041 -4.40302,-2.09184 -7.95991,-3.31843 -3.81427,-1.17731 -6.64828,-1.55509 -2.50541,-0.334 -4.1072,0.70655 -1.33347,0.90911 -1.53057,2.38771 -0.58037,4.35368 3.36276,11.14967 z" />
      <g
         id="g6-9-8-4"
         transform="matrix(0.85910513,0,0,0.85910513,-52.065138,29.959665)">
        <path
           style="font-weight:600;font-size:98.7778px;line-height:1;font-family:'Yu Mincho';-inkscape-font-specification:'Yu Mincho, Semi-Bold';text-align:center;letter-spacing:0.529167px;word-spacing:0px;text-anchor:middle;fill:#a6dbdc;fill-opacity:1;stroke-width:3"
           d="m -403.79275,245.05128 q -5.32587,-1.29388 -8.86695,-4.29614 -3.23829,-2.71861 -2.87502,-5.44369 0.22944,-1.7211 1.37362,-2.63905 0.97527,-0.74584 2.12268,-0.59288 2.3426,0.31229 3.34664,2.63574 2.11963,4.90507 5.81052,8.60852 1.0805,1.01988 1.04226,1.30673 -0.0637,0.47808 -0.36969,0.58328 -0.35378,0.0988 -0.78406,0.0416 -0.23903,-0.0319 -0.79999,-0.20399 z"
           id="path19-8-2-1-61-9-3" />
        <path
           style="font-weight:600;font-size:98.7778px;line-height:1;font-family:'Yu Mincho';-inkscape-font-specification:'Yu Mincho, Semi-Bold';text-align:center;letter-spacing:0.529167px;word-spacing:0px;text-anchor:middle;fill:#a6dbdc;fill-opacity:1;stroke-width:3"
           d="m -395.13004,239.92918 q -4.75536,-1.55842 -7.66856,-4.52564 -3.2638,-3.25725 -2.85592,-6.317 0.19121,-1.43424 1.2334,-2.31713 1.04219,-0.88288 2.47644,-0.69168 2.05576,0.27404 2.99926,2.68673 2.17383,5.59351 5.02011,9.42765 0.95301,1.24618 0.92752,1.43742 -0.0573,0.43028 -0.55455,0.50997 -0.34742,0.0511 -0.82551,-0.0131 -0.52589,-0.0701 -0.75218,-0.19764 z"
           id="text1-7-0-1-0-1-82-9-3" />
      </g>
    </g>
  </g>
</svg>
