<svg xmlns="http://www.w3.org/2000/svg" viewBox="0 0 600 600">
  <path
    d="M77.271 60.456H522.73a13.752 13.752 0 0 1 13.782 13.782v445.458a13.752 13.752 0 0 1-13.782 13.782H77.27a13.752 13.752 0 0 1-13.782-13.782V74.238A13.752 13.752 0 0 1 77.27 60.456z"
    style="fill:rgba(93,154,31,.5);stroke-linecap:round;stroke-linejoin:round"
  />
  <path
    d="M445.78 330.966V129.357H154.22v403.219h291.56v-201.61z"
    style="fill:rgba(255,255,255,.9)"
  />
  <path
    d="M329.359 499.393l-94.709-25.75V189.072l21.926-4.951c10.332-2.333 54.202-14.4 97.703-25.95l79.093-20.999v388.587s-51.923-12.202-104.013-26.365z"
    style="fill:#ffdf46;stroke:none"
  />
  <path
    d="M271.13 328.004a10.587 14.558 0 0 1-10.383 14.693 10.587 14.558 0 0 1-10.787-14.134 10.587 14.558 0 0 1 10.174-14.968 10.587 14.558 0 0 1 10.984 13.842"
    style="fill:#000;stroke:none"
  />
</svg>
