<svg xmlns="http://www.w3.org/2000/svg" viewBox="0 0 300 300">
  <path
    d="M55 41.672h190c27.7 0 50 22.3 50 50V230c0 27.7-22.3 50-50 50H55c-27.7 0-50-22.3-50-50V91.672c0-27.7 22.3-50 50-50z"
    style="stroke:none;fill:rgba(30,62,134,.89)"
  />
  <path
    d="M268.125 77.768a14.643 14.643 0 0 1-14.643 14.643 14.643 14.643 0 0 1-14.643-14.643 14.643 14.643 0 0 1 14.643-14.643 14.643 14.643 0 0 1 14.643 14.643z"
    style="fill:#fcff95;stroke:none"
  />
  <path
    d="M225 163a75 75 0 0 1-75 75 75 75 0 0 1-75-75 75 75 0 0 1 75-75 75 75 0 0 1 75 75z"
    style="fill:#fcff95"
  />
  <path
    d="M202.922 10L210 30H90l6.748-20z"
    style="stroke:none;fill:rgba(30,62,134,.89)"
  />
</svg>
