<svg xmlns="http://www.w3.org/2000/svg" viewBox="0 0 100 148">
  <path
    d="M79.59 125.48a435.31 435.31 0 0 0-.962-1.334l-1.433-1.984-1.428-1.979c-.381-.527-.705-.98-.719-1.006-.031-.06.049-.648.149-1.094.444-1.98 1.42-3.634 2.702-4.58.254-.188.46-.314.514-.314.02 0 .458.422.973.938.516.515.956.937.979.937.023 0 .463-.422.978-.937.516-.516.955-.938.977-.938.067 0 .64.4.898.629.876.774 1.61 1.954 2.069 3.327.174.522.353 1.332.41 1.86l.017.152-2.4 3.322a282.592 282.592 0 0 1-2.426 3.33c-.017.005-.027-.31-.027-.854v-.864l.096-.065a.854.854 0 0 0 .353-.707.998.998 0 0 0-.44-.833.79.79 0 0 0-.542-.14.968.968 0 0 0-.819.533c-.057.116-.067.177-.067.399 0 .234.008.278.078.413.043.084.14.215.214.291l.136.14-.008.862-.007.863-.264-.368zm9.25 4.175c-.53-.175-1.59-.522-2.356-.772-3.084-1.009-4.425-1.45-4.45-1.465-.014-.008.344-.136.797-.284l.822-.268.113.071c.636.402 1.424-.05 1.434-.82a.654.654 0 0 0-.07-.358.946.946 0 0 0-.459-.475c-.164-.08-.21-.09-.419-.09-.206 0-.255.01-.397.082a1.015 1.015 0 0 0-.455.496l-.052.138-.244.078c-.135.042-.502.162-.816.266-.315.103-.572.179-.572.167 0-.012.066-.113.147-.225l1.658-2.298c1.241-1.72 2.312-3.204 2.9-4.016a.483.483 0 0 1 .14-.143c.568-.162 2.003-.257 2.781-.184.959.09 1.775.31 2.559.69.55.268 1.303.791 1.307.91.001.023-.265.57-.59 1.217-.327.647-.593 1.194-.593 1.217 0 .027.415.254 1.175.644a54.69 54.69 0 0 0 1.213.611c.02.005.037.041.037.08 0 .04-.008.064-.018.054-.01-.01-.048.094-.083.232-.363 1.402-1.422 2.81-2.885 3.838-.472.332-1.382.847-1.603.908-.032.01-.463-.119-1.02-.301zm-18.33.126a8.619 8.619 0 0 1-2.385-1.73c-.662-.667-1.049-1.2-1.403-1.938-.166-.345-.344-.84-.377-1.042-.01-.062-.028-.112-.041-.112-.014 0-.024-.024-.024-.055 0-.03.012-.055.027-.055.014 0 .56-.274 1.212-.609.83-.425 1.187-.623 1.188-.654 0-.026-.27-.583-.6-1.24l-.6-1.193.123-.112c.812-.734 1.955-1.222 3.39-1.448.449-.07 1.843-.07 2.344 0 .59.082.807.13.871.195.032.032.85 1.156 1.817 2.498 1.518 2.106 2.147 2.977 2.843 3.939.081.112.144.207.14.212a16.95 16.95 0 0 1-.828-.26l-.818-.267-.03-.096a.956.956 0 0 0-.63-.597c-.448-.13-.97.13-1.134.564-.076.202-.065.556.024.756.076.173.26.367.431.458.122.064.17.073.404.073.25 0 .276-.005.455-.097l.19-.098.806.261c.443.144.806.268.806.277 0 .01-6.667 2.2-7.787 2.556-.015.005-.201-.079-.413-.186zm15.6 10.343c.008-.013-.08-.032-.193-.041-.813-.07-1.931-.465-2.844-1.006a8.899 8.899 0 0 1-1.792-1.397l-.42-.413v-4.13c0-2.638.01-4.127.027-4.121.014.005.249.316.521.69l.495.682-.041.131a.927.927 0 0 0 .054.631c.094.187.337.406.53.478.187.07.473.075.657.013.189-.065.411-.28.52-.503a.723.723 0 0 0 .089-.404.68.68 0 0 0-.09-.406.968.968 0 0 0-.773-.537l-.158-.015-.5-.692c-.275-.38-.496-.696-.492-.7.005-.006.751.235 1.659.532l3.125 1.023c2.795.913 2.991.98 3.038 1.025.078.076.423.785.598 1.227.276.699.443 1.32.561 2.085.08.512.086 1.573.012 2.037a6.42 6.42 0 0 1-.293 1.15c-.142.369.039.355-1.48.113-1.02-.162-1.327-.202-1.351-.177-.018.018-.121.604-.23 1.301a31.702 31.702 0 0 1-.222 1.33c-.02.052-.047.062-.157.064-.099.001-.118.008-.076.026.034.014-.106.024-.367.025-.232.001-.415-.008-.407-.021zm-12.333-.004c.032-.02.02-.027-.047-.027-.048 0-.095-.014-.105-.029-.01-.015-.11-.614-.223-1.33-.113-.716-.22-1.317-.24-1.335-.025-.025-.32.013-1.314.172-.705.113-1.303.205-1.328.205-.088.001-.315-.636-.422-1.188-.268-1.374-.06-3.02.576-4.558.14-.337.477-1.01.534-1.066.026-.025.946-.34 2.045-.698 3.216-1.05 4.92-1.607 5.36-1.752a4.86 4.86 0 0 1 .42-.128c.004.005-.216.318-.489.696l-.496.687-.17.02c-.213.025-.483.154-.602.29-.05.056-.121.17-.16.254-.063.133-.073.189-.072.429 0 .32.052.46.239.646.251.252.69.348 1.019.224.338-.128.565-.446.593-.832a.782.782 0 0 0-.026-.32c-.022-.064-.032-.12-.023-.124.01-.005.228-.3.484-.656.255-.356.481-.665.502-.688.03-.033.037.635.037 4.107v4.148l-.49.482c-.836.824-1.605 1.361-2.553 1.785-.614.275-1.404.5-1.92.548-.121.011-.182.027-.16.041.021.013-.196.023-.487.023-.348 0-.51-.009-.482-.026z"
    style="stroke:none;fill:#fd8a7f"
  />
  <path
    d="M80.155 124.163a.946.946 0 0 1-.423-.24.932.932 0 0 1-.244-.611c-.011-.213-.006-.24.075-.405.282-.574 1.01-.69 1.441-.232.347.369.336.946-.023 1.263-.209.183-.587.287-.826.225zm3.752 2.784a.997.997 0 0 1-.46-.458.938.938 0 0 1 .016-.73c.28-.56.938-.695 1.392-.287.2.18.292.382.292.645a.701.701 0 0 1-.086.386c-.168.35-.425.523-.782.523a.683.683 0 0 1-.372-.079zm-7.748.031a.792.792 0 0 1-.453-.398.75.75 0 0 1-.105-.398.927.927 0 0 1 .035-.364.952.952 0 0 1 .45-.492c.136-.066.192-.077.392-.077.201 0 .257.01.391.077.185.09.308.222.404.431.095.206.101.557.014.75a.91.91 0 0 1-.415.427 1.025 1.025 0 0 1-.713.044zm1.501 4.606a.86.86 0 0 1-.485-.419c-.08-.153-.09-.2-.09-.39 0-.27.068-.468.222-.643.401-.456 1.16-.344 1.454.213.064.123.074.173.074.39 0 .215-.01.268-.077.404-.094.192-.303.387-.48.447-.16.055-.45.054-.618-.002zm4.985.045c-.407-.068-.726-.398-.757-.783a.917.917 0 0 1 .197-.643.865.865 0 0 1 1.339-.073.764.764 0 0 1 .233.604c0 .182-.014.248-.076.377-.183.378-.55.581-.936.518z"
    style="stroke:none;fill:#fff827"
  />
</svg>
