<?xml version="1.0" encoding="UTF-8" standalone="no"?>
<svg
   xmlns:dc="http://purl.org/dc/elements/1.1/"
   xmlns:cc="http://creativecommons.org/ns#"
   xmlns:rdf="http://www.w3.org/1999/02/22-rdf-syntax-ns#"
   xmlns:svg="http://www.w3.org/2000/svg"
   xmlns="http://www.w3.org/2000/svg"
   xmlns:sodipodi="http://sodipodi.sourceforge.net/DTD/sodipodi-0.dtd"
   xmlns:inkscape="http://www.inkscape.org/namespaces/inkscape"
   viewBox="0 0 600 90"
   version="1.1"
   id="svg26"
   sodipodi:docname="preview.day.svg"
   height="100%"
   width="100%"
   inkscape:version="0.92.1 r15371">
  <metadata
     id="metadata32">
    <rdf:RDF>
      <cc:Work
         rdf:about="">
        <dc:format>image/svg+xml</dc:format>
        <dc:type
           rdf:resource="http://purl.org/dc/dcmitype/StillImage" />
        <dc:title></dc:title>
      </cc:Work>
    </rdf:RDF>
  </metadata>
  <defs
     id="defs30" />
  <sodipodi:namedview
     pagecolor="#ffffff"
     bordercolor="#666666"
     borderopacity="1"
     objecttolerance="10"
     gridtolerance="10"
     guidetolerance="10"
     inkscape:pageopacity="0"
     inkscape:pageshadow="2"
     inkscape:window-width="1853"
     inkscape:window-height="1057"
     id="namedview28"
     showgrid="false"
     inkscape:zoom="1.4802102"
     inkscape:cx="300"
     inkscape:cy="45"
     inkscape:window-x="-8"
     inkscape:window-y="-8"
     inkscape:window-maximized="1"
     inkscape:current-layer="svg26" />
  <rect
     style="opacity:1;fill:#ffaf1a;fill-opacity:1;stroke:none;stroke-width:7.21161509;stroke-linecap:square;stroke-linejoin:miter;stroke-miterlimit:4;stroke-dasharray:none;stroke-dashoffset:0;stroke-opacity:1;paint-order:normal"
     id="rect4500"
     width="600"
     height="17.565073"
     x="0"
     y="0" />
  <path
     inkscape:connector-curvature="0"
     id="path4834"
     style="fill:#ffffff;fill-opacity:1;stroke:none;stroke-width:3.64189601"
     d="m 558.79018,4.2435237 q 0.19423,0 0.19423,0.1942332 v 8.7016991 q 0,0.182096 -0.19423,0.182096 h -1.39607 q -0.19424,0 -0.19424,-0.182096 V 6.1494553 h -0.0242 l -2.02611,1.553866 q -0.13353,0.09713 -0.26707,0.03645 -0.13354,-0.0607 -0.13354,-0.230665 v -1.323214 q 0,-0.0607 0.0728,-0.121381 l 2.34295,-1.7845294 q 0.0484,-0.036451 0.085,-0.036451 z m 9.81732,2.1608586 q 0,1.298939 -1.55386,2.0151784 v 0.02424 q 1.83186,0.679825 1.83186,2.3890993 0,1.201815 -0.91048,1.905917 -0.9226,0.704101 -2.56024,0.704101 -1.66315,0 -2.56025,-0.704101 -0.92261,-0.704102 -0.92261,-1.905917 0,-0.704102 0.4613,-1.2746783 0.43703,-0.569341 1.33536,-0.945668 v -0.02424 q -0.72838,-0.35205 -1.11684,-0.9347664 -0.38848,-0.5827 -0.38848,-1.249164 0,-1.019737 0.83764,-1.6631303 0.84978,-0.6191316 2.35509,-0.6191316 1.5041,0 2.34053,0.6191316 0.84977,0.6433933 0.84977,1.6631303 z m -3.1563,1.529604 q 1.51745,-0.449177 1.51745,-1.359649 0,-0.534146 -0.41275,-0.861919 -0.42488,-0.3156187 -1.14112,-0.3156187 -0.72838,0 -1.11686,0.3156187 -0.41273,0.327773 -0.41273,0.861919 0,0.93475 1.56601,1.359649 z m -0.18209,1.2382294 q -1.67527,0.508664 -1.67527,1.5757363 0,0.643407 0.49771,1.031873 0.50987,0.400605 1.32323,0.400605 0.8012,0 1.29894,-0.400605 0.47344,-0.400604 0.47344,-1.031873 0,-0.582701 -0.41275,-0.9468913 -0.20637,-0.182094 -0.58268,-0.338706 -0.37633,-0.157832 -0.92262,-0.291343 z m 5.72747,-2.5371864 q 0,-0.182094 0.18209,-0.182094 h 1.62674 q 0.18209,0 0.18209,0.182094 v 1.7359774 q 0,0.194234 -0.18209,0.194234 h -1.62674 q -0.18209,0 -0.18209,-0.194234 z m 0,4.7575337 q 0,-0.182094 0.18209,-0.182094 h 1.62674 q 0.18209,0 0.18209,0.182094 v 1.746893 q 0,0.182096 -0.18209,0.182096 h -1.62674 q -0.18209,0 -0.18209,-0.182096 v -1.748097 z m 5.8489,-2.6100183 q 0,0.44916 0.0242,1.03186 0.0364,0.5705763 0.20638,1.0804283 0.16995,0.49773 0.50986,0.849781 0.33991,0.350846 0.9833,0.350846 0.63128,0 0.97119,-0.352051 0.33869,-0.35205 0.50865,-0.84978 0.16996,-0.509868 0.19424,-1.0804283 0.0365,-0.581496 0.0365,-1.030656 0,-0.449174 -0.0365,-1.0197364 -0.0242,-0.582698 -0.19424,-1.079208 -0.16996,-0.509868 -0.50986,-0.84978 -0.33993,-0.352051 -0.97118,-0.352051 -0.6434,0 -0.98332,0.352051 -0.3399,0.339912 -0.50864,0.84978 -0.16997,0.497712 -0.20638,1.080429 -0.0242,0.5705614 -0.0242,1.0197204 z m -1.75902,0 q 0,-0.9226104 0.13352,-1.7602524 0.13355,-0.84856 0.50987,-1.4798295 0.38847,-0.6433932 1.0683,-1.0318581 0.69074,-0.3884843 1.76995,-0.3884843 1.08044,0 1.74811,0.3884843 0.67983,0.3884649 1.06829,1.0318581 0.38849,0.6434075 0.52201,1.4931885 0.13353,0.837625 0.13353,1.7480984 0,0.921408 -0.13353,1.7590493 -0.13354,0.837626 -0.52201,1.491951 -0.38846,0.64341 -1.06829,1.031877 -0.66766,0.376326 -1.74811,0.376326 -1.08042,0 -1.77116,-0.376326 -0.67981,-0.388467 -1.06828,-1.031877 -0.37635,-0.643391 -0.50987,-1.481032 -0.13354,-0.8497813 -0.13354,-1.7711733 z m 9.7202,0 q 0,0.44916 0.0242,1.03186 0.0365,0.5705763 0.20514,1.0804283 0.16998,0.49773 0.5099,0.849781 0.33992,0.350846 0.9833,0.350846 0.63126,0 0.97117,-0.352051 0.3387,-0.35205 0.50865,-0.84978 0.16995,-0.509868 0.19424,-1.0804283 0.0365,-0.581496 0.0365,-1.030656 0,-0.449174 -0.0365,-1.0197364 -0.0242,-0.582698 -0.19424,-1.079208 -0.16995,-0.509868 -0.50985,-0.84978 -0.33992,-0.352051 -0.97118,-0.352051 -0.64341,0 -0.9833,0.352051 -0.33871,0.339912 -0.50869,0.84978 -0.16993,0.497712 -0.20635,1.080429 -0.0242,0.5705614 -0.0242,1.0197204 z m -1.76026,0 q 0,-0.9226104 0.13355,-1.7602524 0.13352,-0.84856 0.50986,-1.4798295 0.38845,-0.6433932 1.06829,-1.0318581 0.69074,-0.3884843 1.76995,-0.3884843 1.08044,0 1.74812,0.3884843 0.67981,0.3884649 1.06829,1.0318581 0.38845,0.6434075 0.52201,1.4931885 Q 590,7.8732763 590,8.7837497 q 0,0.921408 -0.13353,1.7590493 -0.13354,0.837626 -0.52201,1.491951 -0.38847,0.64341 -1.06829,1.031877 -0.66768,0.376326 -1.74812,0.376326 -1.08043,0 -1.77118,-0.376326 -0.67982,-0.388467 -1.06829,-1.031877 -0.37633,-0.643391 -0.50986,-1.481032 -0.13355,-0.8497813 -0.13355,-1.7711733 z" />
  <path
     inkscape:connector-curvature="0"
     id="path4818"
     style="fill:#ffffff;fill-opacity:1;stroke:none;stroke-width:3.64189601"
     d="m 481.86134,4.2435237 q 0.19423,0 0.19423,0.1942332 v 8.7016991 q 0,0.182096 -0.19423,0.182096 h -1.39607 q -0.19423,0 -0.19423,-0.182096 V 6.1494552 h -0.0242 l -2.02612,1.553866 q -0.13352,0.09713 -0.26706,0.03645 -0.13353,-0.0607 -0.13353,-0.230665 v -1.323214 q 0,-0.0607 0.0728,-0.121381 l 2.34294,-1.7845293 q 0.0486,-0.036451 0.0849,-0.036451 z m 9.56119,0 q 0.19424,0 0.19424,0.1942332 v 1.1775537 q 0,0.024247 -0.0242,0.072902 -1.00757,1.6631296 -1.84523,3.5435651 -0.82428,1.8695163 -1.5041,3.9684603 -0.0365,0.121381 -0.15782,0.121381 h -1.42034 q -0.1214,0 -0.18089,-0.08494 -0.0486,-0.08494 -0.0114,-0.206371 1.4082,-4.0048763 3.48288,-7.3420687 v -0.036453 h -4.33266 q -0.1821,0 -0.1821,-0.1820935 v -1.031876 q 0,-0.1942332 0.1821,-0.1942332 z m 2.64522,2.3915055 q 0,-0.182094 0.1821,-0.182094 h 1.62671 q 0.1821,0 0.1821,0.182094 v 1.7359775 q 0,0.194234 -0.1821,0.194234 h -1.62671 q -0.1821,0 -0.1821,-0.194234 z m 0,4.7563298 q 0,-0.182095 0.1821,-0.182095 h 1.62671 q 0.1821,0 0.1821,0.182095 v 1.748097 q 0,0.182096 -0.1821,0.182096 h -1.62671 q -0.1821,0 -0.1821,-0.182096 z m 5.85011,-2.6076093 q 0,0.447955 0.0242,1.030655 0.0365,0.5705763 0.20516,1.0804283 0.16996,0.49773 0.50987,0.849781 0.33991,0.350846 0.9833,0.350846 0.63127,0 0.97119,-0.352051 0.33869,-0.35205 0.50865,-0.84978 0.16996,-0.509868 0.19422,-1.0804283 0.0365,-0.581496 0.0365,-1.030656 0,-0.449174 -0.0365,-1.0197365 -0.0242,-0.582698 -0.19422,-1.079208 -0.16996,-0.509868 -0.50988,-0.84978 -0.33992,-0.3520509 -0.97116,-0.3520509 -0.64341,0 -0.98331,0.3520509 -0.3399,0.339912 -0.50866,0.84978 -0.16995,0.4977119 -0.20637,1.080429 -0.0242,0.5705615 -0.0242,1.0197205 z m -1.76025,0 q 0,-0.9226115 0.13354,-1.7602365 0.13353,-0.849781 0.50986,-1.4810504 0.38847,-0.6433932 1.06829,-1.0318581 0.69075,-0.3884843 1.76997,-0.3884843 1.08043,0 1.74811,0.3884843 0.67981,0.3884649 1.06829,1.0318581 0.38848,0.6434074 0.52199,1.4931884 0.13354,0.837625 0.13354,1.7480985 0,0.921408 -0.13354,1.7590493 -0.13353,0.837626 -0.52199,1.491951 -0.38848,0.64341 -1.06829,1.031877 -0.66768,0.376326 -1.74811,0.376326 -1.08044,0 -1.77116,-0.376326 -0.67984,-0.388467 -1.0683,-1.031877 -0.37632,-0.643391 -0.50987,-1.481032 -0.13353,-0.8497813 -0.13353,-1.7711733 z m 9.72021,0 q 0,0.447955 0.0242,1.030655 0.0364,0.5705763 0.20637,1.0804283 0.16875,0.49773 0.50865,0.849781 0.33991,0.350846 0.98332,0.350846 0.63124,0 0.97116,-0.352051 0.33871,-0.35205 0.50866,-0.84978 0.16995,-0.509868 0.19424,-1.0804283 0.0364,-0.581496 0.0364,-1.030656 0,-0.449174 -0.0364,-1.0197365 -0.0242,-0.582698 -0.19424,-1.079208 -0.16994,-0.509868 -0.50986,-0.84978 -0.33991,-0.3520509 -0.97118,-0.3520509 -0.6434,0 -0.98331,0.3520509 -0.3387,0.339912 -0.50865,0.84978 -0.16996,0.4977119 -0.20638,1.080429 -0.0242,0.5705615 -0.0242,1.0197205 z m -1.76026,0 q 0,-0.9226115 0.13354,-1.7602365 0.13354,-0.849781 0.50988,-1.4810504 0.38846,-0.6433932 1.06828,-1.0318581 0.69075,-0.3884843 1.77118,-0.3884843 1.08043,0 1.7469,0.3884843 0.67981,0.3884649 1.0683,1.0318581 0.38844,0.6434074 0.52201,1.4931884 0.13352,0.837625 0.13352,1.7480985 0,0.921408 -0.13352,1.7590493 -0.13355,0.837626 -0.52201,1.491951 -0.38849,0.64341 -1.0683,1.031877 -0.66769,0.376326 -1.74811,0.376326 -1.08043,0 -1.77117,-0.376326 -0.67984,-0.388467 -1.06831,-1.031877 -0.37632,-0.643391 -0.50986,-1.481032 -0.13354,-0.8497813 -0.13354,-1.7711733 z" />
  <path
     inkscape:connector-curvature="0"
     id="path4802"
     style="fill:#ffffff;fill-opacity:1;stroke:none;stroke-width:3.64189601"
     d="m 376.1588,4.2435237 q 0.19425,0 0.19425,0.1942332 v 8.7016991 q 0,0.182096 -0.19425,0.182096 h -1.39607 q -0.19422,0 -0.19422,-0.182096 V 6.1494552 h -0.0242 l -2.02611,1.553866 q -0.13353,0.09713 -0.26704,0.03645 -0.13355,-0.0607 -0.13355,-0.230665 v -1.323214 q 0,-0.0607 0.0728,-0.121381 l 2.34294,-1.7845293 q 0.0486,-0.036451 0.0849,-0.036451 z m 6.89171,3.2048705 q 1.33535,0 2.08801,0.7283795 0.74052,0.728377 0.74052,2.0746673 0,3.190292 -3.64191,3.190292 -1.15205,0 -2.19606,-0.35205 -0.10927,-0.0485 -0.10927,-0.16994 v -1.091364 q 0,-0.12138 0.0849,-0.182094 0.0971,-0.0607 0.21851,-0.01149 0.55845,0.194233 1.04402,0.303496 0.48558,0.109177 0.91046,0.109177 1.96542,0 1.96542,-1.796669 0,-1.4798153 -1.42035,-1.4798153 -0.71622,0 -1.25036,0.473437 -0.0607,0.03645 -0.10926,0.03645 h -1.22488 q -0.19423,0 -0.19423,-0.194233 l 0.23064,-4.6591864 q 0,-0.072902 0.0486,-0.1213806 0.0607,-0.060699 0.13354,-0.060699 h 4.93842 q 0.18208,0 0.18208,0.1942333 v 1.0318759 q 0,0.1820936 -0.18208,0.1820936 h -3.53022 l -0.0971,2.0989467 h 0.0242 q 0.60698,-0.303497 1.34749,-0.303497 z m 5.31474,-0.813365 q 0,-0.182094 0.18209,-0.182094 h 1.62668 q 0.18212,0 0.18212,0.182094 v 1.7359775 q 0,0.194234 -0.18212,0.194234 h -1.62668 q -0.18209,0 -0.18209,-0.194234 z m 0,4.7563298 q 0,-0.182095 0.18209,-0.182095 h 1.62668 q 0.18212,0 0.18212,0.182095 v 1.748097 q 0,0.182096 -0.18212,0.182096 h -1.62668 q -0.18209,0 -0.18209,-0.182096 z m 5.85009,-2.6076093 q 0,0.447955 0.0242,1.030655 0.0365,0.5705763 0.20638,1.0804283 0.16995,0.49773 0.50863,0.849781 0.33992,0.350846 0.98333,0.350846 0.63124,0 0.97116,-0.352051 0.33991,-0.35205 0.50865,-0.84978 0.16996,-0.509868 0.19423,-1.0804283 0.0365,-0.581496 0.0365,-1.030656 0,-0.449174 -0.0365,-1.0197365 -0.0242,-0.582698 -0.19423,-1.079208 -0.16996,-0.509868 -0.50984,-0.84978 -0.33992,-0.3520509 -0.9712,-0.3520509 -0.64339,0 -0.9833,0.3520509 -0.33871,0.339912 -0.50867,0.84978 -0.16995,0.4977119 -0.20637,1.080429 -0.0242,0.5705615 -0.0242,1.0197205 z m -1.76026,0 q 0,-0.9226115 0.13353,-1.7602365 0.13355,-0.849781 0.50986,-1.4810504 0.38849,-0.6433932 1.06829,-1.0318581 0.69076,-0.3884843 1.7712,-0.3884843 1.08043,0 1.74689,0.3884843 0.67982,0.3884649 1.06828,1.0318581 0.38848,0.6434074 0.52201,1.4931884 0.13354,0.837625 0.13354,1.7480985 0,0.921408 -0.13354,1.7590493 -0.13353,0.837626 -0.52201,1.491951 -0.38845,0.64341 -1.06828,1.031877 -0.66769,0.376326 -1.74812,0.376326 -1.0792,0 -1.77116,-0.376326 -0.67982,-0.388467 -1.0683,-1.031877 -0.37633,-0.643391 -0.50987,-1.481032 -0.13353,-0.8497813 -0.13353,-1.7711733 z m 9.71901,0 q 0,0.447955 0.0242,1.030655 0.0365,0.5705763 0.20637,1.0804283 0.16994,0.49773 0.50986,0.849781 0.33992,0.350846 0.98329,0.350846 0.63129,0 0.97121,-0.352051 0.33989,-0.35205 0.50984,-0.84978 0.16874,-0.509868 0.19302,-1.0804283 0.0365,-0.581496 0.0365,-1.030656 0,-0.449174 -0.0365,-1.0197365 -0.0242,-0.582698 -0.19424,-1.079208 -0.16994,-0.509868 -0.50986,-0.84978 -0.3399,-0.3520509 -0.97115,-0.3520509 -0.64342,0 -0.98211,0.3520509 -0.33992,0.339912 -0.50986,0.84978 -0.16995,0.4977119 -0.20637,1.080429 -0.0242,0.5705615 -0.0242,1.0197205 z m -1.76025,0 q 0,-0.9226115 0.13354,-1.7602365 0.13353,-0.849781 0.50984,-1.4810504 0.38849,-0.6433932 1.0683,-1.0318581 0.69196,-0.3884843 1.77238,-0.3884843 1.08044,0 1.7469,0.3884843 0.67982,0.3884649 1.0683,1.0318581 0.38847,0.6434074 0.522,1.4931884 0.13354,0.837625 0.13354,1.7480985 0,0.921408 -0.13354,1.7590493 -0.13353,0.837626 -0.522,1.491951 -0.38848,0.64341 -1.0683,1.031877 -0.66767,0.376326 -1.74809,0.376326 -1.07924,0 -1.7712,-0.376326 -0.67981,-0.388467 -1.06829,-1.031877 -0.37632,-0.643391 -0.50985,-1.481032 -0.13353,-0.8497813 -0.13353,-1.7711733 z" />
  <path
     inkscape:connector-curvature="0"
     id="path4786"
     style="fill:#ffffff;fill-opacity:1;stroke:none;stroke-width:3.64189601"
     d="m 270.45626,4.2435237 q 0.19424,0 0.19424,0.1942332 v 8.7016991 q 0,0.182096 -0.19424,0.182096 h -1.39606 q -0.19422,0 -0.19422,-0.182096 V 6.1494553 h -0.0243 l -2.02611,1.553866 q -0.13354,0.09713 -0.26706,0.03645 -0.13353,-0.0607 -0.13353,-0.230665 v -1.323214 q 0,-0.0607 0.0728,-0.121381 l 2.34297,-1.7845294 q 0.0486,-0.036451 0.085,-0.036451 h 1.54174 z m 7.12235,3.751154 q 1.15327,0 1.79667,0.64341 0.65553,0.654325 0.65553,1.8197253 0,1.444618 -0.86191,2.208208 -0.8862,0.776932 -2.48864,0.776932 -1.29773,0 -2.41334,-0.400604 -0.10942,-0.03645 -0.10942,-0.157832 v -1.092568 q 0,-0.133585 0.085,-0.182095 0.0971,-0.0607 0.23064,-0.0115 0.55842,0.230649 1.09257,0.339913 0.53293,0.109176 1.0428,0.109176 0.80122,0 1.26253,-0.400605 0.44916,-0.388466 0.44916,-1.15326 0,-0.7041013 -0.49772,-1.0075983 -0.50987,-0.302276 -1.7724,-0.302276 h -0.55842 q -0.19424,0 -0.19424,-0.182094 v -0.98332 q 0,-0.07291 0.0486,-0.1213814 l 2.44008,-2.2203469 v -0.024247 h -3.50837 q -0.18209,0 -0.18209,-0.1820952 V 4.4383526 q 0,-0.1942333 0.18209,-0.1942333 h 5.4495 q 0.1821,0 0.1821,0.1942333 v 1.1411379 q 0,0.072903 -0.0486,0.1213806 l -2.50077,2.2701212 v 0.02424 z m 5.0853,-1.3596484 q 0,-0.182094 0.1821,-0.182094 h 1.62548 q 0.18211,0 0.18211,0.182094 v 1.7359774 q 0,0.194234 -0.18211,0.194234 h -1.62672 q -0.18209,0 -0.18209,-0.194234 V 6.6350293 Z m 0,4.7563297 q 0,-0.182095 0.1821,-0.182095 h 1.62548 q 0.18211,0 0.18211,0.182095 v 1.748097 q 0,0.182096 -0.18211,0.182096 h -1.62672 q -0.18209,0 -0.18209,-0.182096 v -1.748097 z m 5.84889,-2.6076093 q 0,0.447955 0.0243,1.030655 0.0364,0.5705763 0.20637,1.0804283 0.16994,0.49773 0.50987,0.849781 0.33868,0.350846 0.98211,0.350846 0.63124,0 0.97115,-0.352051 0.33991,-0.35205 0.50987,-0.84978 0.16996,-0.509868 0.19423,-1.0804283 0.0364,-0.581496 0.0364,-1.030656 0,-0.449174 -0.0364,-1.0197364 -0.0243,-0.582698 -0.19423,-1.079208 -0.16996,-0.509868 -0.50987,-0.84978 -0.33991,-0.352051 -0.97115,-0.352051 -0.64343,0 -0.98334,0.352051 -0.33991,0.339912 -0.50986,0.84978 -0.16994,0.4977119 -0.20638,1.080429 -0.0243,0.5705614 -0.0243,1.0197204 z m -1.76025,0 q 0,-0.9226114 0.13352,-1.7602364 0.13355,-0.849781 0.50988,-1.4810505 0.38846,-0.6433932 1.06828,-1.0318581 0.69196,-0.3884843 1.77119,-0.3884843 1.08042,0 1.74809,0.3884843 0.67862,0.3884649 1.06709,1.0318581 0.38846,0.6434075 0.52199,1.4931885 0.13354,0.837625 0.13354,1.7480984 0,0.921408 -0.13354,1.7590493 -0.13353,0.837626 -0.52199,1.491951 -0.38847,0.64341 -1.06831,1.031877 -0.66768,0.376326 -1.74811,0.376326 -1.0792,0 -1.77116,-0.376326 -0.67981,-0.388467 -1.06829,-1.031877 -0.37511,-0.643391 -0.50866,-1.481032 -0.13352,-0.8497813 -0.13352,-1.7711733 z m 9.72019,0 q 0,0.447955 0.0243,1.030655 0.0364,0.5705763 0.2064,1.0804283 0.16992,0.49773 0.50984,0.849781 0.33992,0.350846 0.98211,0.350846 0.63126,0 0.97119,-0.352051 0.33988,-0.35205 0.50985,-0.84978 0.16995,-0.509868 0.19425,-1.0804283 0.0365,-0.581496 0.0365,-1.030656 0,-0.449174 -0.0365,-1.0197364 -0.0242,-0.582698 -0.19425,-1.079208 -0.16997,-0.509868 -0.50985,-0.84978 -0.33993,-0.352051 -0.97119,-0.352051 -0.6434,0 -0.98331,0.352051 -0.3399,0.339912 -0.50987,0.84978 -0.16997,0.4977119 -0.20637,1.080429 -0.0243,0.5705614 -0.0243,1.0197204 z m -1.76024,0 q 0,-0.9226114 0.13353,-1.7602364 0.13353,-0.849781 0.50986,-1.4810505 0.38847,-0.6433932 1.06831,-1.0318581 0.69196,-0.3884843 1.77116,-0.3884843 1.08043,0 1.74811,0.3884843 0.6786,0.3884649 1.06707,1.0318581 0.38845,0.6434075 0.52201,1.4931885 0.13355,0.837625 0.13355,1.7480984 0,0.921408 -0.13355,1.7590493 -0.13354,0.837626 -0.52201,1.491951 -0.38847,0.64341 -1.06828,1.031877 -0.66767,0.376326 -1.74811,0.376326 -1.07922,0 -1.76995,-0.376326 -0.67984,-0.388467 -1.06831,-1.031877 -0.37632,-0.643391 -0.50986,-1.481032 -0.13353,-0.8497813 -0.13353,-1.7711733 z" />
  <path
     inkscape:connector-curvature="0"
     id="path4772"
     style="fill:#ffffff;fill-opacity:1;stroke:none;stroke-width:3.64189601"
     d="m 198.46166,4.2435237 q 0.19424,0 0.19424,0.1942332 v 8.7016991 q 0,0.182096 -0.19424,0.182096 h -1.39606 q -0.19424,0 -0.19424,-0.182096 V 6.1494553 h -0.0243 l -2.02609,1.553866 q -0.13354,0.09713 -0.26708,0.03645 -0.13353,-0.0607 -0.13353,-0.230665 v -1.323214 q 0,-0.0607 0.0728,-0.121381 l 2.34296,-1.7845294 q 0.0486,-0.036451 0.085,-0.036451 z m 7.95999,0 q 0.19422,0 0.19422,0.1942332 v 8.7016991 q 0,0.182096 -0.19422,0.182096 h -1.39606 q -0.19424,0 -0.19424,-0.182096 V 6.1494553 h -0.0243 l -2.02611,1.553866 q -0.13354,0.09713 -0.26709,0.03645 -0.13354,-0.0607 -0.13354,-0.230665 v -1.323214 q 0,-0.0607 0.0728,-0.121381 l 2.34295,-1.7845294 q 0.0486,-0.036451 0.085,-0.036451 z m 4.24644,2.3915056 q 0,-0.182094 0.1821,-0.182094 h 1.6267 q 0.18209,0 0.18209,0.182094 v 1.7359774 q 0,0.194234 -0.18209,0.194234 h -1.6267 q -0.1821,0 -0.1821,-0.194234 z m 0,4.7563297 q 0,-0.182095 0.1821,-0.182095 h 1.6267 q 0.18209,0 0.18209,0.182095 v 1.748097 q 0,0.182096 -0.18209,0.182096 h -1.6267 q -0.1821,0 -0.1821,-0.182096 z m 8.06923,-3.3966813 q 1.15326,0 1.79666,0.64341 0.65556,0.654325 0.65556,1.8197253 0,1.444618 -0.86194,2.208208 -0.88618,0.776932 -2.48861,0.776932 -1.29775,0 -2.41337,-0.400604 -0.10926,-0.03645 -0.10926,-0.157832 v -1.092568 q 0,-0.133585 0.085,-0.182095 0.0971,-0.0607 0.23066,-0.0115 0.55842,0.230649 1.09134,0.339913 0.53414,0.109176 1.04401,0.109176 0.80123,0 1.26253,-0.400605 0.44795,-0.388466 0.44795,-1.15326 0,-0.7041013 -0.49773,-1.0075983 -0.50985,-0.302276 -1.77237,-0.302276 h -0.55721 q -0.19424,0 -0.19424,-0.182094 v -0.98332 q 0,-0.07291 0.0486,-0.1213814 l 2.44008,-2.2203469 v -0.024247 h -3.50837 q -0.18209,0 -0.18209,-0.1820952 V 4.4383526 q 0,-0.1942333 0.18209,-0.1942333 h 5.44948 q 0.1821,0 0.1821,0.1942333 v 1.1411379 q 0,0.072903 -0.0486,0.1213806 l -2.50077,2.2701212 v 0.02424 z m 5.74082,0.789072 q 0,0.447955 0.0243,1.030655 0.0364,0.5705763 0.20639,1.0804283 0.16996,0.49773 0.50866,0.849781 0.33991,0.350846 0.98329,0.350846 0.63128,0 0.9712,-0.352051 0.33991,-0.35205 0.50863,-0.84978 0.16996,-0.509868 0.19424,-1.0804283 0.0364,-0.581496 0.0364,-1.030656 0,-0.449174 -0.0364,-1.0197364 -0.0243,-0.582698 -0.19424,-1.079208 -0.16995,-0.509868 -0.50986,-0.84978 -0.33992,-0.352051 -0.97116,-0.352051 -0.64342,0 -0.98333,0.352051 -0.33868,0.339912 -0.50864,0.84978 -0.16995,0.4977119 -0.20637,1.080429 -0.0243,0.5705614 -0.0243,1.0197204 z m -1.76023,0 q 0,-0.9226114 0.13353,-1.7602364 0.13354,-0.849781 0.50987,-1.4810505 0.38847,-0.6433932 1.06829,-1.0318581 0.69073,-0.3884843 1.77116,-0.3884843 1.08044,0 1.7469,0.3884843 0.67983,0.3884649 1.0683,1.0318581 0.38847,0.6434075 0.522,1.4931885 0.13354,0.837625 0.13354,1.7480984 0,0.921408 -0.13354,1.7590493 -0.13353,0.837626 -0.522,1.491951 -0.38847,0.64341 -1.0683,1.031877 -0.66766,0.376326 -1.74809,0.376326 -1.07924,0 -1.7712,-0.376326 -0.6798,-0.388467 -1.06826,-1.031877 -0.37634,-0.643391 -0.50988,-1.481032 -0.13354,-0.8497813 -0.13354,-1.7711733 z" />
  <path
     inkscape:connector-curvature="0"
     id="path4754"
     style="fill:#ffffff;fill-opacity:1;stroke:none;stroke-width:3.64189601"
     d="m 126.46709,4.2435237 q 0.19423,0 0.19423,0.1942332 v 8.7016991 q 0,0.182096 -0.19423,0.182096 h -1.39606 q -0.19424,0 -0.19424,-0.182096 V 6.1494553 h -0.0242 l -2.02733,1.553866 q -0.13355,0.09713 -0.26587,0.03645 -0.13353,-0.0607 -0.13353,-0.230665 v -1.323214 q 0,-0.0607 0.0728,-0.121381 l 2.34295,-1.7845294 q 0.0486,-0.036451 0.0849,-0.036451 z m 4.90198,4.540226 q 0,0.447955 0.0242,1.030655 0.0365,0.5705763 0.20637,1.0804283 0.16995,0.49773 0.50987,0.849781 0.3399,0.350846 0.98329,0.350846 0.63005,0 0.96996,-0.352051 0.33992,-0.35205 0.50987,-0.84978 0.16995,-0.509868 0.19423,-1.0804283 0.0365,-0.581496 0.0365,-1.030656 0,-0.449174 -0.0365,-1.0197364 -0.0242,-0.582698 -0.19423,-1.079208 -0.16995,-0.509868 -0.50987,-0.84978 -0.33991,-0.352051 -0.97115,-0.352051 -0.64342,0 -0.98333,0.352051 -0.33992,0.339912 -0.50987,0.84978 -0.16995,0.4977119 -0.20637,1.080429 -0.0242,0.5705614 -0.0242,1.0197204 z m -1.76025,0 q 0,-0.9226114 0.13353,-1.7602364 0.13354,-0.849781 0.50986,-1.4810505 0.38848,-0.6433932 1.06829,-1.0318581 0.69196,-0.3884843 1.77239,-0.3884843 1.07923,0 1.74569,0.3884843 0.67982,0.3884649 1.06829,1.0318581 0.38847,0.6434075 0.52198,1.4931885 0.13355,0.837625 0.13355,1.7480984 0,0.921408 -0.13355,1.7590493 -0.13353,0.837626 -0.52198,1.491951 -0.38847,0.64341 -1.06829,1.031877 -0.66769,0.376326 -1.74688,0.376326 -1.08044,0 -1.7724,-0.376326 -0.67861,-0.388467 -1.06709,-1.031877 -0.37633,-0.643391 -0.50986,-1.481032 -0.13353,-0.8497813 -0.13353,-1.7711733 z m 9.06466,-2.1487204 q 0,-0.182094 0.1821,-0.182094 h 1.62672 q 0.18209,0 0.18209,0.182094 v 1.7359774 q 0,0.194234 -0.18209,0.194234 h -1.62672 q -0.1821,0 -0.1821,-0.194234 z m 0,4.7563297 q 0,-0.182095 0.1821,-0.182095 h 1.62672 q 0.18209,0 0.18209,0.182095 v 1.748097 q 0,0.182096 -0.18209,0.182096 h -1.62672 q -0.1821,0 -0.1821,-0.182096 z m 5.8489,-2.6076093 q 0,0.447955 0.0242,1.030655 0.0365,0.5705763 0.20637,1.0804283 0.16995,0.49773 0.50987,0.849781 0.33991,0.350846 0.98329,0.350846 0.63128,0 0.96996,-0.352051 0.33992,-0.35205 0.50987,-0.84978 0.16995,-0.509868 0.19423,-1.0804283 0.0365,-0.581496 0.0365,-1.030656 0,-0.449174 -0.0365,-1.0197364 -0.0242,-0.582698 -0.19423,-1.079208 -0.16995,-0.509868 -0.50987,-0.84978 -0.3399,-0.352051 -0.97115,-0.352051 -0.64341,0 -0.98333,0.352051 -0.33992,0.339912 -0.50987,0.84978 -0.16995,0.4977119 -0.20636,1.080429 -0.0242,0.5705614 -0.0242,1.0197204 z m -1.75904,0 q 0,-0.9226114 0.13354,-1.7602364 0.13353,-0.849781 0.50987,-1.4810505 0.38846,-0.6433932 1.06705,-1.0318581 0.69198,-0.3884843 1.7724,-0.3884843 1.07923,0 1.7469,0.3884843 0.67982,0.3884649 1.0683,1.0318581 0.38846,0.6434075 0.522,1.4931885 0.13224,0.837625 0.13224,1.7480984 0,0.921408 -0.13353,1.7590493 -0.13354,0.837626 -0.52201,1.491951 -0.38846,0.64341 -1.06828,1.031877 -0.66769,0.376326 -1.7469,0.376326 -1.08042,0 -1.77239,-0.376326 -0.67861,-0.388467 -1.0671,-1.031877 -0.37631,-0.643391 -0.50984,-1.481032 -0.13355,-0.8497813 -0.13355,-1.7711733 z m 9.71901,0 q 0,0.447955 0.0242,1.030655 0.0365,0.5705763 0.20638,1.0804283 0.16996,0.49773 0.50986,0.849781 0.33992,0.350846 0.98334,0.350846 0.63125,0 0.96994,-0.352051 0.33991,-0.35205 0.50987,-0.84978 0.16995,-0.509868 0.19423,-1.0804283 0.0365,-0.581496 0.0365,-1.030656 0,-0.449174 -0.0365,-1.0197364 -0.0242,-0.582698 -0.19423,-1.079208 -0.16996,-0.509868 -0.50987,-0.84978 -0.3399,-0.352051 -0.97117,-0.352051 -0.6434,0 -0.9833,0.352051 -0.33991,0.339912 -0.50987,0.84978 -0.16876,0.4977119 -0.20518,1.080429 -0.0242,0.5705614 -0.0242,1.0197204 z m -1.75903,0 q 0,-0.9226114 0.13353,-1.7602364 0.13354,-0.849781 0.50985,-1.4810505 0.38849,-0.6433932 1.0671,-1.0318581 0.69196,-0.3884843 1.77238,-0.3884843 1.07921,0 1.74691,0.3884843 0.67982,0.3884649 1.06827,1.0318581 0.38847,0.6434075 0.52201,1.4931885 0.13353,0.837625 0.13353,1.7480984 0,0.921408 -0.13353,1.7590493 -0.13354,0.837626 -0.52201,1.491951 -0.38845,0.64341 -1.06827,1.031877 -0.6677,0.376326 -1.74814,0.376326 -1.0804,0 -1.77115,-0.376326 -0.67983,-0.388467 -1.0683,-1.031877 -0.37633,-0.643391 -0.50986,-1.481032 -0.13353,-0.8497813 -0.13353,-1.7711733 z" />
  <path
     inkscape:connector-curvature="0"
     id="path4740"
     style="fill:#ffffff;fill-opacity:1;stroke:none;stroke-width:3.64189601"
     d="m 85.797255,12.082974 q 0,-0.121381 0.0728,-0.182095 0.0849,-0.0607 0.19423,-0.02424 0.40061,0.109176 0.81335,0.182093 0.41276,0.0607 0.83765,0.0607 1.00758,0 1.61457,-0.631269 0.59362,-0.606977 0.63005,-1.7845323 l -0.0242,-0.0115 q -0.7041,0.6434073 -1.97876,0.6434073 -1.43126,0 -2.22035,-0.8133653 -0.81335,-0.812144 -0.81335,-2.2919564 0,-1.4324806 0.92262,-2.2701218 0.91047,-0.8376427 2.48862,-0.8376427 1.64978,0 2.5117,0.9833222 0.87406,0.9833043 0.87406,2.9984987 0,2.7654123 -1.0076,4.0522113 -1.00759,1.286801 -2.9378,1.286801 -0.89712,0 -1.844,-0.206371 -0.13354,-0.03645 -0.13354,-0.182096 z m 2.53597,-6.6258129 q -0.80122,0 -1.25039,0.4612961 -0.46008,0.461314 -0.46008,1.2868181 0,0.9104734 0.4613,1.4081864 0.46131,0.49773 1.25038,0.49773 0.75266,0 1.2249,-0.509868 0.44916,-0.497714 0.44916,-1.3960484 0,-0.77695 -0.47344,-1.274678 -0.47345,-0.4734361 -1.20183,-0.4734362 z m 5.61824,1.1775361 q 0,-0.182094 0.18209,-0.182094 h 1.62671 q 0.1821,0 0.1821,0.182094 v 1.7359775 q 0,0.194234 -0.1821,0.194234 h -1.62671 q -0.18209,0 -0.18209,-0.194234 z m 0,4.7563298 q 0,-0.182095 0.18209,-0.182095 h 1.62671 q 0.1821,0 0.1821,0.182095 v 1.748097 q 0,0.182096 -0.1821,0.182096 h -1.62671 q -0.18209,0 -0.18209,-0.182096 z m 8.069225,-3.3966813 q 1.15325,0 1.79667,0.64341 0.65554,0.654325 0.65554,1.8197253 0,1.444618 -0.86191,2.208208 -0.8862,0.776932 -2.48864,0.776932 -1.297735,0 -2.413365,-0.400604 -0.10926,-0.03645 -0.10926,-0.157832 v -1.092568 q 0,-0.133585 0.0849,-0.182095 0.0971,-0.0607 0.23065,-0.0115 0.55842,0.230649 1.092565,0.339913 0.53293,0.109176 1.0428,0.109176 0.80122,0 1.26253,-0.400605 0.44916,-0.388466 0.44916,-1.15326 0,-0.7041013 -0.49773,-1.0075983 -0.50986,-0.302276 -1.77238,-0.302276 h -0.558435 q -0.19423,0 -0.19423,-0.182094 v -0.98332 q 0,-0.07291 0.0486,-0.1213814 l 2.440085,-2.2203469 v -0.024247 h -3.508375 q -0.18209,0 -0.18209,-0.1820952 V 4.4380206 q 0,-0.1942333 0.18209,-0.1942333 h 5.449505 q 0.1821,0 0.1821,0.1942333 v 1.1411379 q 0,0.072903 -0.0486,0.1213806 l -2.50077,2.2701212 v 0.02424 z m 5.74084,0.789072 q 0,0.447955 0.0242,1.030655 0.0365,0.5705763 0.20639,1.0804283 0.16993,0.49773 0.50864,0.849781 0.3399,0.350846 0.98331,0.350846 0.63126,0 0.97117,-0.352051 0.3399,-0.35205 0.50985,-0.84978 0.16996,-0.509868 0.19304,-1.0804283 0.0365,-0.581496 0.0365,-1.030656 0,-0.449174 -0.0365,-1.0197365 -0.0242,-0.582698 -0.19423,-1.079208 -0.16996,-0.509868 -0.50987,-0.84978 -0.33991,-0.352051 -0.97117,-0.352051 -0.64341,0 -0.9821,0.352051 -0.33992,0.339912 -0.50987,0.84978 -0.16995,0.497712 -0.20637,1.080429 -0.0242,0.5705615 -0.0242,1.0197205 z m -1.76026,0 q 0,-0.9226115 0.13354,-1.7602365 0.13354,-0.849781 0.50986,-1.4810505 0.38848,-0.6433932 1.0683,-1.0318581 0.69196,-0.3884843 1.77118,-0.3884843 1.08042,0 1.74688,0.3884843 0.67984,0.388465 1.06829,1.0318582 0.38847,0.6434075 0.52201,1.4931885 0.13354,0.837625 0.13354,1.7480984 0,0.921408 -0.13354,1.7590493 -0.13354,0.837626 -0.52201,1.491951 -0.38845,0.64341 -1.06829,1.031877 -0.66767,0.376326 -1.74809,0.376326 -1.07923,0 -1.77119,-0.376326 -0.67981,-0.388467 -1.06829,-1.031877 -0.37633,-0.643391 -0.50985,-1.481032 -0.13353,-0.8497813 -0.13353,-1.7711733 z" />
  <path
     inkscape:connector-curvature="0"
     id="path4726"
     style="fill:#ffffff;fill-opacity:1;stroke:none;stroke-width:3.64189601"
     d="m 15.98233,4.2435237 q 0.19423,0 0.19423,0.1942332 v 1.1775537 q 0,0.024247 -0.0242,0.072902 -1.00759,1.6631297 -1.84524,3.5435651 -0.82427,1.8695163 -1.50409,3.9684603 -0.0365,0.121381 -0.15783,0.121381 h -1.42032 q -0.1214,0 -0.18212,-0.08494 -0.0486,-0.08494 -0.0121,-0.206371 1.4082,-4.0048763 3.48408,-7.3420686 V 5.6517864 H 10.18209 Q 10,5.6517864 10,5.4696929 v -1.031876 q 0,-0.1942332 0.18209,-0.1942332 z m 2.64523,2.3915056 q 0,-0.182094 0.18209,-0.182094 h 1.62672 q 0.18209,0 0.18209,0.182094 v 1.7359774 q 0,0.194234 -0.18209,0.194234 h -1.62672 q -0.18209,0 -0.18209,-0.194234 z m 0,4.7575337 q 0,-0.182094 0.18209,-0.182094 h 1.62672 q 0.18209,0 0.18209,0.182094 v 1.746893 q 0,0.182096 -0.18209,0.182096 h -1.62672 q -0.18209,0 -0.18209,-0.182096 v -1.748097 z m 5.84888,-2.6100183 q 0,0.44916 0.0242,1.03186 0.0365,0.5705763 0.20638,1.0804283 0.16995,0.49773 0.50986,0.849781 0.33991,0.350846 0.98332,0.350846 0.63126,0 0.96995,-0.352051 0.33991,-0.35205 0.50987,-0.84978 0.16994,-0.509868 0.19423,-1.0804283 0.0365,-0.581496 0.0365,-1.030656 0,-0.449174 -0.0365,-1.0197364 -0.0242,-0.582698 -0.19423,-1.079208 -0.16996,-0.509868 -0.50987,-0.84978 -0.3399,-0.352051 -0.97116,-0.352051 -0.64341,0 -0.98332,0.352051 -0.33991,0.339912 -0.50987,0.84978 -0.16995,0.497712 -0.20637,1.080429 -0.0231,0.5705614 -0.0231,1.0197204 z m -1.75903,0 q 0,-0.9226104 0.13353,-1.7602524 0.13354,-0.84856 0.50987,-1.4798295 0.38847,-0.6433932 1.06708,-1.0318581 0.69195,-0.3884843 1.77238,-0.3884843 1.07921,0 1.74689,0.3884843 0.67982,0.3884649 1.06829,1.0318581 0.38847,0.6434075 0.522,1.4931885 0.13233,0.837625 0.13233,1.7480984 0,0.921408 -0.13353,1.7590493 -0.13353,0.837626 -0.522,1.491951 -0.38847,0.64341 -1.06829,1.031877 -0.66768,0.376326 -1.7469,0.376326 -1.08043,0 -1.77117,-0.376326 Q 23.74806,12.67816 23.35959,12.03475 22.98327,11.391359 22.84973,10.553718 22.7162,9.7039367 22.7162,8.7825447 Z m 9.719,0 q 0,0.44916 0.0242,1.03186 0.0365,0.5705763 0.20637,1.0804283 0.16997,0.49773 0.50987,0.849781 0.33992,0.350846 0.98332,0.350846 0.63126,0 0.96996,-0.352051 0.3399,-0.35205 0.50986,-0.84978 0.16996,-0.509868 0.19424,-1.0804283 0.0365,-0.581496 0.0365,-1.030656 0,-0.449174 -0.0365,-1.0197364 -0.0242,-0.582698 -0.19424,-1.079208 -0.16996,-0.509868 -0.50986,-0.84978 -0.33992,-0.352051 -0.97118,-0.352051 -0.6434,0 -0.98331,0.352051 -0.33991,0.339912 -0.50987,0.84978 -0.16874,0.497712 -0.20516,1.080429 -0.0242,0.5705614 -0.0242,1.0197204 z m -1.75903,0 q 0,-0.9226104 0.13354,-1.7602524 0.13353,-0.84856 0.50984,-1.4798295 0.38849,-0.6433932 1.0671,-1.0318581 0.69195,-0.3884843 1.77238,-0.3884843 1.07922,0 1.74689,0.3884843 0.67982,0.3884649 1.06829,1.0318581 0.38847,0.6434075 0.522,1.4931885 0.13354,0.837625 0.13354,1.7480984 0,0.921408 -0.13354,1.7590493 -0.13353,0.837626 -0.522,1.491951 -0.38847,0.64341 -1.06829,1.031877 -0.66768,0.376326 -1.74811,0.376326 -1.08042,0 -1.77116,-0.376326 Q 31.70803,12.67816 31.31955,12.03475 30.94323,11.391359 30.80969,10.553718 30.67615,9.7039367 30.67615,8.7825447 Z" />
  <path
     inkscape:connector-curvature="0"
     id="path5004"
     style="fill:#43507e;fill-opacity:1;stroke:none;stroke-width:3.53593111"
     d="m 571.01351,29.399543 q 0.13437,-0.179138 0.29936,-0.04479 0.98537,0.702473 1.8823,1.389623 0.9111,0.687151 1.73261,1.329513 0.0294,-0.04479 0.0589,-0.104821 0.0307,-0.05893 0.0896,-0.134365 0.55397,-0.821517 0.98653,-1.851653 0.43256,-1.031316 0.74726,-2.330168 h -5.73647 q -0.11897,0.163832 -0.29818,0.387759 -0.16501,0.223958 -0.38896,0.506818 -1.50866,1.852831 -3.42041,3.332032 -0.19448,0.134366 -0.32886,-0.02939 l -0.91109,-1.10557 q -0.165,-0.179155 0.0295,-0.328843 0.80736,-0.642362 1.50865,-1.343656 0.7178,-0.71778 1.36016,-1.508652 1.31419,-1.568778 2.12156,-3.211811 0.0883,-0.149766 0.25341,-0.10482 l 1.47803,0.358308 q 0.12022,0.03064 0.17913,0.120222 0.06,0.08958 -0.0141,0.20862 -0.12022,0.268732 -0.23925,0.523319 -0.10482,0.238087 -0.23926,0.477352 h 6.48253 q 0.22393,0 0.22393,0.223943 v 1.465041 q 0,0.03064 -0.0294,0.03064 h 0.016 q -0.83685,4.510679 -3.68918,7.049467 -2.82402,2.510532 -7.93225,3.421625 -0.2098,0.02939 -0.25459,-0.16501 l -0.37247,-1.298884 q -0.0754,-0.254587 0.17917,-0.299376 1.58291,-0.328826 2.83818,-0.76139 1.25407,-0.433741 2.22527,-0.941754 1.03014,-0.537462 1.7774,-1.195131 -0.83684,-0.671828 -1.70315,-1.314191 -0.85098,-0.642362 -1.74675,-1.31419 -0.0896,-0.07433 -0.12022,-0.165011 -0.016,-0.10372 0.0589,-0.193298 l 0.89694,-1.076103 z m 2.56944,10.097446 q 0.0295,0 0.0896,0.03064 2.52466,1.508651 5.8402,2.73328 0.2098,0.07433 0.14976,0.268716 l -0.34298,1.284724 q -0.0307,0.104821 -0.12023,0.149767 -0.0743,0.02939 -0.19328,0 -0.41843,-0.16501 -0.80737,-0.299376 -0.38895,-0.134366 -0.74726,-0.298182 v 4.914939 q 0.0306,-0.03064 0.0896,-0.07543 0.0754,-0.05893 0.14976,-0.134366 0.0754,-0.07433 0.12022,-0.104821 0.14867,-0.118965 0.28289,0.03064 l 0.88163,0.850982 q 0.0754,0.07433 0.0754,0.179155 0,0.08958 -0.0896,0.16501 -0.52332,0.477352 -1.12089,0.940544 -0.59758,0.447901 -1.26941,0.881627 0.56693,0.253409 1.16451,0.46203 0.61289,0.194476 1.28472,0.37363 0.14977,0.03064 0.19448,0.149767 0.0589,0.104821 -0.016,0.223943 l -0.64238,1.10557 q -0.0589,0.134366 -0.23807,0.104821 -2.47987,-0.538641 -4.36217,-1.777383 -0.25459,-0.16501 -0.4184,-0.284069 -0.16501,-0.134366 -0.29822,-0.223943 l 0.13437,1.209307 q 0.0294,0.223927 -0.19448,0.254572 -1.91176,0.298197 -3.70447,0.492674 -1.79156,0.194476 -3.55479,0.298197 -0.0897,0.01603 -0.16501,-0.04479 -0.0589,-0.05893 -0.0589,-0.14851 l -0.13546,-1.195147 q -0.0296,-0.239265 0.23926,-0.268716 0.94172,-0.04479 1.40495,-0.08958 v -8.261115 q -0.3147,0.134366 -0.68717,0.268715 -0.35947,0.134366 -0.77789,0.299377 -0.23809,0.07433 -0.31353,-0.165011 l -0.32765,-1.269386 q -0.0896,-0.194477 0.13436,-0.268731 3.31554,-1.225792 5.84018,-2.73446 0.0589,-0.02954 0.0896,-0.02954 z m 1.25409,10.651394 q 1.10556,-0.687151 2.10741,-1.463878 h -3.85418 q 0.65769,0.761405 1.74794,1.463878 z m -1.79156,0.850983 q -1.26938,-0.986527 -2.0909,-2.314861 h -1.71846 v 2.793391 q 1.03131,-0.106078 1.97186,-0.223943 0.95589,-0.120222 1.8375,-0.254587 z m 2.70382,-8.394287 q -0.82152,-0.404275 -1.67366,-0.867499 -0.83684,-0.462029 -1.70197,-1.030121 -0.8663,0.568092 -1.71846,1.030121 -0.83684,0.463224 -1.65836,0.867499 h 2.40444 v -1.015993 q 0,-0.223943 0.24044,-0.223943 h 1.46387 q 0.2381,0 0.2381,0.223943 v 1.015993 h 2.40444 z m -0.34417,2.328989 v -0.865126 h -6.16901 v 0.866305 h 6.16901 z m -6.16901,2.286574 h 6.16901 v -0.941738 h -6.16901 z" />
  <path
     inkscape:connector-curvature="0"
     id="path4962"
     style="fill:#43507e;fill-opacity:1;stroke:none;stroke-width:3.53593111"
     d="m 493.11921,24.460317 q 0,-0.223943 0.23807,-0.223943 h 1.2258 q 0.22392,0 0.22392,0.223943 v 11.78643 q 0.73078,-0.314698 1.32953,-0.671813 0.61288,-0.374809 1.1197,-0.777922 h -1.61355 q -0.22396,0 -0.22396,-0.239249 v -7.572786 q 0,-0.223959 0.22396,-0.223959 h 1.7774 q 0.10607,-0.418403 0.22394,-0.866305 h -2.19464 q -0.22394,0 -0.22394,-0.239249 v -1.178646 q 0,-0.223943 0.22394,-0.223943 h 6.95989 q 0.22394,0 0.22394,0.223943 v 1.179825 q 0,0.239265 -0.22394,0.239265 h -2.7486 q -0.0743,0.268715 -0.11787,0.492674 -0.0459,0.209799 -0.0908,0.373631 h 2.6142 q 0.23929,0 0.23929,0.223927 v 7.572801 q 0,0.239266 -0.23929,0.239266 h -1.8528 q 1.40493,0.687135 2.52465,1.568762 0.16501,0.119122 0.0448,0.282875 l -0.64237,1.046638 q -0.0589,0.104821 -0.16501,0.118965 -0.0883,0.03064 -0.17797,-0.04479 -1.21047,-0.880449 -2.59892,-1.582922 -0.23926,-0.120222 -0.10607,-0.358293 l 0.64352,-1.031315 h -2.09092 l 0.73078,0.986527 q 0.12022,0.148509 -0.0294,0.298182 -1.03014,0.971204 -2.74859,1.703143 -0.17915,0.07433 -0.26873,-0.08958 l -0.52214,-0.881627 v 0.597574 q 0,0.223942 -0.22394,0.223942 h -1.22579 q -0.23807,0 -0.23807,-0.223942 z m -2.13688,0.403081 q 0,-0.223927 0.22394,-0.223927 h 1.15034 q 0.22395,0 0.22395,0.223927 v 11.531858 q 0,0.223943 -0.22395,0.223943 h -1.15034 q -0.22394,0 -0.22394,-0.223943 z m -2.19582,-0.403081 q 0,-0.223943 0.23925,-0.223943 h 1.21047 q 0.22396,0 0.22396,0.223943 v 6.140731 q 0,1.313011 -0.06,2.389115 -0.0448,1.060782 -0.14976,1.941215 -0.0896,0.687151 -0.23927,1.329529 -0.13436,0.628202 -0.34298,1.210453 -0.0448,0.118965 -0.16501,0.149767 -0.11787,0.04479 -0.23809,-0.04479 l -1.11971,-0.852162 q -0.12023,-0.118964 -0.0754,-0.239265 0.22395,-0.582251 0.34299,-1.209291 0.13436,-0.642346 0.2098,-1.343641 0.0743,-0.777922 0.11896,-1.793899 0.0448,-1.014815 0.0448,-2.299523 z m 11.56249,3.809368 h -3.13756 v 0.792066 h 3.13638 v -0.792066 z m 0,5.004532 v -0.852161 h -3.13756 v 0.852161 h 3.13638 z m 0,-2.121563 V 30.34646 h -3.13756 v 0.806194 h 3.13638 z M 488.33862,50.37752 q -0.14976,-0.180333 0.016,-0.359487 1.8823,-1.643033 3.0468,-3.241277 0.13437,-0.179154 0.31352,-0.05893 l 1.09025,0.821516 q 0.0754,0.05893 0.0896,0.14851 0.0306,0.08958 -0.0296,0.16501 -1.30004,1.851638 -3.24127,3.554781 -0.0743,0.07433 -0.16501,0.07433 -0.0883,-0.01414 -0.16382,-0.08958 z m 3.18115,-6.857347 q -0.0743,0.07543 -0.17915,0.07543 -0.0896,-0.01603 -0.16382,-0.08958 -0.53747,-0.568092 -1.15037,-1.119698 -0.59756,-0.568108 -1.25406,-1.136215 -0.0754,-0.07433 -0.0896,-0.179154 0,-0.104821 0.0743,-0.179155 l 0.97121,-0.926416 q 0.13436,-0.148352 0.28287,-0.01414 0.71778,0.582251 1.31537,1.14918 0.61288,0.553963 1.16449,1.119714 0.16501,0.16501 0,0.33002 l -0.97001,0.971205 z m 10.63608,9.291236 q -0.10483,0.194477 -0.29936,0.120222 -1.22462,-0.523335 -2.22529,-1.300063 -1.00065,-0.776727 -1.77738,-1.851653 -0.19448,-0.239249 -0.37363,-0.523303 -0.17917,-0.298213 -0.35833,-0.642362 -0.32882,0.568092 -0.77672,1.179809 -1.58293,2.106256 -4.04744,3.137572 -0.19448,0.07433 -0.29938,-0.120222 l -0.5528,-1.25408 q -0.0743,-0.223927 0.13437,-0.313504 2.21114,-0.926416 3.33085,-2.41976 1.19515,-1.584101 1.19515,-3.704485 v -1.568778 q 0,-0.223943 0.22392,-0.223943 h 1.49454 q 0.22393,0 0.22393,0.223943 v 1.567599 q 0,4.198338 4.526,6.125424 0.20861,0.08958 0.13437,0.313504 l -0.55397,1.25408 z m -6.73594,-10.336711 q -0.016,0.04479 -0.0459,0.120222 -0.0295,0.05893 -0.0589,0.148666 -0.0306,0.105921 -0.06,0.180333 -0.0306,0.05893 -0.0589,0.103721 -0.73312,1.643033 -1.689,2.958386 -0.0589,0.07433 -0.16501,0.103721 -0.0885,0.01603 -0.16383,-0.04479 l -1.13502,-0.790871 q -0.20864,-0.120222 -0.0743,-0.344165 0.85099,-1.164487 1.47802,-2.583577 0.67183,-1.524005 1.03132,-3.032656 0.0448,-0.223927 0.26872,-0.194477 l 1.35899,0.239265 q 0.0894,0.01603 0.14977,0.08958 0.0589,0.07433 0.0294,0.179154 -0.11896,0.568107 -0.26871,1.135036 h 6.04997 q 0.23927,0 0.23927,0.223943 v 1.538133 q -0.64236,2.241785 -1.91294,4.093422 -0.10372,0.149767 -0.31352,0.07543 l -1.19515,-0.642362 q -0.22393,-0.134366 -0.0743,-0.359487 1.04546,-1.493345 1.59824,-3.196489 h -4.98921 z m -3.57129,20.389368 q 0,-0.746098 -0.26873,-1.31419 -0.11897,-0.298198 -0.3583,-0.642362 -0.23926,-0.342986 -0.58226,-0.746083 v 7.946416 q 0,0.223943 -0.22393,0.223943 h -1.37432 q -0.22393,0 -0.22393,-0.223943 V 55.096804 q 0,-0.223943 0.22393,-0.223943 h 4.69101 q 0.23809,0 0.23809,0.223943 v 1.270565 q 0,0.04479 -0.016,0.05893 l -0.0294,0.08958 q 0,0.04479 -0.0448,0.104821 -0.0306,0.07433 -0.0448,0.134366 0,0.05893 -0.016,0.08958 0.74724,-0.537463 1.34364,-1.150343 0.61289,-0.62704 1.12089,-1.314206 0.0754,-0.104821 0.2098,-0.07433 l 1.3743,0.148353 q 0.16383,0.03064 0.22394,0.16501 0.0589,0.119122 -0.0306,0.253425 -0.10372,0.194476 -0.22393,0.358292 h 4.10757 q 0.22394,0 0.22394,0.223959 v 1.270612 q 0,0.05893 -0.0435,0.103721 -1.01599,1.300047 -2.25592,2.255929 0.58226,0.254587 1.25408,0.492674 0.68714,0.223942 1.46387,0.418403 0.25458,0.07543 0.16501,0.313536 l -0.41841,1.165681 q -0.0743,0.223943 -0.28289,0.149767 l -1.06078,-0.314699 q -0.50916,-0.148666 -0.98653,-0.313535 v 0.941738 h 2.09094 q 0.23926,0 0.23926,0.223958 v 1.090248 q 0,0.239249 -0.23926,0.239249 h -2.09094 v 1.478023 h 2.41977 q 0.22394,0 0.22394,0.223943 v 1.181003 q 0,0.223943 -0.22394,0.223943 h -2.41977 v 1.553455 q 0,0.223928 -0.22392,0.223928 h -1.58412 q -0.22393,0 -0.22393,-0.223928 V 66.599 h -4.77939 q -0.22394,0 -0.22394,-0.223943 v -1.239936 q -0.52334,0.447886 -1.55346,0.447886 h -0.0896 q -0.16501,0 -0.20979,-0.165011 l -0.23809,-1.104391 q -0.0307,-0.120222 0.0294,-0.209799 0.0743,-0.103721 0.20862,-0.103721 h -0.13437 q 0.508,0 0.68715,-0.223943 0.17914,-0.223943 0.17914,-0.912256 z m 4.61557,0.628219 v 1.478022 h 1.50866 v -1.478022 z m 1.50866,-2.345506 q 0,-0.223943 0.22394,-0.223943 h 1.62889 q -0.85216,-0.328842 -1.68782,-0.761405 -1.73261,0.911093 -4.00385,1.478022 -0.17915,0.04479 -0.26873,-0.134366 l -0.50682,-1.10557 q -0.06,-0.118964 -0.016,-0.223927 0.0589,-0.103721 0.17916,-0.134365 0.7614,-0.179155 1.47802,-0.41842 0.73194,-0.253393 1.4344,-0.552785 -0.61288,-0.477336 -1.17981,-1.060781 -0.17916,0.135622 -0.4031,0.299376 -0.2098,0.16501 -0.508,0.358308 -0.2098,0.134366 -0.33002,-0.04479 l -0.5516,-0.790856 q -0.43375,1.119698 -1.016,2.180479 1.16568,1.538134 1.16568,3.241277 0,1.195132 -0.47853,1.717288 h 1.44974 v -1.478022 h -0.46321 q -0.23925,0 -0.23925,-0.239266 v -1.090247 q 0,-0.223943 0.23925,-0.223943 h 3.85417 v -0.79205 z m 0.16501,-2.987868 q 0.9712,-0.61288 1.73261,-1.374286 h -3.30021 l -0.0459,0.04479 q 0.70247,0.717795 1.61357,1.329497 z m -7.49971,-1.762076 v 3.539474 q 0.97238,-1.657176 1.53931,-3.539474 h -1.53813 z m 0.38897,23.94415 q -0.0743,-0.118965 -0.0294,-0.223943 0.0589,-0.104821 0.17917,-0.149767 0.68713,-0.208604 1.3295,-0.492674 0.65768,-0.282859 1.30004,-0.582235 0.11787,-0.05893 0.31352,-0.165011 0.1933,-0.103721 0.49268,-0.268747 h -2.45041 q -0.23809,0 -0.23809,-0.223943 v -2.41976 q 0,-0.223927 0.23809,-0.223927 h 6.66289 q 0.23925,0 0.23925,0.223927 v 2.031986 l 0.82151,0.642362 q 0.1933,0.149767 0.0448,0.343002 -0.19447,0.223927 -0.43372,0.478514 -0.23929,0.253425 -0.52216,0.522141 0.17915,0.07543 0.38777,0.209799 0.20862,0.134365 0.49268,0.298197 0.12022,0.07543 0.13436,0.194477 0.016,0.104821 -0.0743,0.20862 l -0.64236,0.671828 q -0.11897,0.120222 -0.28286,0.03065 -0.64356,-0.432563 -1.28474,-0.8215 -0.6282,-0.403113 -1.27058,-0.761406 v 1.090232 q 0,0.223943 -0.22393,0.223943 h -1.41909 q -0.22394,0 -0.22394,-0.223943 v -0.941738 q -0.68715,0.388953 -1.3743,0.717811 -0.67183,0.313504 -1.3743,0.597558 -0.19448,0.05893 -0.26874,-0.120222 z m 5.43707,-6.88562 v 0.537447 h 3.07743 q 0.23927,0 0.23927,0.223943 v 0.731939 q 0,0.223943 -0.23927,0.223943 h -8.0961 q -0.23925,0 -0.23925,-0.223943 v -0.73076 q 0,-0.223943 0.23925,-0.223943 h 3.07627 v -0.538626 h -2.67317 q -0.22395,0 -0.22395,-0.223958 v -0.657685 q 0,-0.239249 0.22395,-0.239249 h 2.67434 v -0.32768 q 0,-0.223927 0.23925,-0.223927 h 1.4639 q 0.23808,0 0.23808,0.223927 v 0.32768 h 2.67434 q 0.22394,0 0.22394,0.239249 v 0.657685 q 0,0.223958 -0.22394,0.223958 z m 3.88363,-1.911764 h -9.70849 v 10.097446 h 9.70849 z m -2.52347,7.647025 q 0.23807,-0.238071 0.40308,-0.417241 0.17916,-0.194476 0.29822,-0.314698 h -1.64304 l -0.0896,0.06003 -0.0896,0.08958 q 0.28405,0.165011 0.55396,0.299392 0.28286,0.134366 0.56575,0.282859 z m -0.38897,-1.806849 V 76.6365 h -3.88362 v 0.747277 z m -6.79605,6.139552 q 0,0.223943 -0.22393,0.223943 h -1.49454 q -0.23807,0 -0.23807,-0.223943 V 70.214072 q 0,-0.223927 0.23807,-0.223927 h 13.14541 q 0.23928,0 0.23928,0.223927 v 13.309257 q 0,0.223943 -0.23928,0.223943 h -1.49333 q -0.22394,0 -0.22394,-0.223943 v -0.388953 h -9.70967 z" />
  <path
     inkscape:connector-curvature="0"
     id="path4952"
     style="fill:#43507e;fill-opacity:1;stroke:none;stroke-width:3.53593111"
     d="m 396.74584,30.256679 q 0.10608,0.179154 -0.0589,0.282891 l -1.32952,0.77789 q -0.17915,0.08848 -0.3135,-0.07543 -0.508,-0.79205 -1.04546,-1.538133 -0.52334,-0.762568 -1.10557,-1.494523 -0.13437,-0.165011 0.0295,-0.313505 l 1.25526,-0.881627 q 0.0743,-0.04479 0.16501,-0.02939 0.0883,0.01603 0.13327,0.08958 0.59756,0.77789 1.15036,1.567599 0.56809,0.793213 1.11969,1.61473 z m -1.71729,2.015469 q 0.32884,0.493869 0.47855,1.046638 0.14835,0.537478 0.11896,1.090263 -0.016,0.537447 -0.22394,1.074926 -0.19449,0.523303 -0.56813,0.986527 -0.44788,0.537446 -1.01479,0.836823 -0.55398,0.313519 -1.18101,0.477351 -0.61289,0.165011 -1.28472,0.208636 -0.65651,0.04479 -1.28473,0.04479 -0.2086,0 -0.2086,-0.208636 v -1.449735 q 0,-0.223927 0.2098,-0.223927 0.7614,0 1.53812,-0.08832 0.77672,-0.106078 1.3743,-0.553948 0.52214,-0.38779 0.6565,-0.985348 0.13437,-0.612912 -0.20863,-1.179841 -0.3583,-0.568091 -0.9111,-0.850966 -0.55277,-0.284054 -1.21045,-0.373631 -0.64236,-0.08958 -1.31419,-0.03064 -0.67183,0.06003 -1.25408,0.194477 v 2.719136 q 0,0.597574 -0.19448,1.119714 -0.19447,0.507981 -0.55394,0.895771 -0.34181,0.404276 -0.83567,0.643525 -0.47735,0.238103 -1.04545,0.282891 -0.53747,0.03064 -1.00185,-0.118965 -0.46203,-0.149766 -0.83566,-0.447869 -0.35831,-0.28407 -0.59758,-0.717812 -0.22394,-0.41724 -0.26873,-0.895755 -0.016,-0.08958 -0.016,-0.179154 v -0.179154 q 0,-0.716617 0.26991,-1.358979 0.28286,-0.657685 0.74607,-1.21047 0.47853,-0.568108 1.10557,-1.001849 0.64236,-0.44787 1.34366,-0.77555 v -2.703798 h -3.18117 q -0.2086,0 -0.2086,-0.20862 v -1.360164 q 0,-0.238087 0.2086,-0.238087 h 3.18234 v -2.106225 q 0,-0.209799 0.22393,-0.209799 h 1.44975 q 0.20861,0 0.20861,0.209799 v 2.106225 h 3.31553 q 0.10482,0 0.14977,0.07433 0.0589,0.05893 0.0589,0.16501 v 1.358979 q 0,0.20862 -0.20862,0.20862 h -3.31553 v 2.121548 q 0.8663,-0.179154 1.77739,-0.179154 0.9111,-0.01603 1.74676,0.193313 0.83684,0.194477 1.55463,0.628203 0.71662,0.432579 1.20929,1.14918 z m -8.17036,2.734459 v -1.911748 q -0.65767,0.417241 -1.13502,1.014799 -0.46322,0.597589 -0.46322,1.300062 0,0.134366 0.0141,0.179154 0.0306,0.268716 0.2098,0.432563 0.19448,0.164995 0.47735,0.135466 0.44789,-0.04479 0.67183,-0.388953 0.22394,-0.34297 0.22394,-0.761406 z m 9.23114,9.231141 q 0.52214,0.522141 0.73076,1.179841 0.22512,0.657669 0.16501,1.329497 -0.0448,0.671828 -0.35831,1.300047 -0.29819,0.62704 -0.85096,1.074925 -0.4479,0.358309 -0.97121,0.568108 -0.50801,0.208604 -1.04546,0.313504 -0.53746,0.103721 -1.09026,0.134365 -0.55395,0.01414 -1.09141,0.01414 -0.22394,0 -0.22394,-0.238086 v -1.360154 q 0,-0.08958 0.06,-0.163832 0.0589,-0.07433 0.16501,-0.07433 h 0.53746 q 0.28288,0 0.59758,-0.03064 l 0.55278,-0.05893 q 0.28288,-0.04479 0.53746,-0.120222 0.52214,-0.164995 0.86631,-0.506802 0.35829,-0.344181 0.4184,-0.986543 0.0589,-0.642362 -0.37361,-1.119714 -0.34417,-0.344164 -0.9111,-0.538641 -0.56812,-0.194461 -1.25525,-0.223927 l 0.0448,2.03197 q 0,0.223943 -0.20862,0.223943 h -1.49334 q -0.23927,0 -0.23927,-0.223943 l 0.0589,-1.956537 q -0.76139,0.04353 -1.55346,0.103721 -0.79086,0.05893 -1.55346,0.149767 0.19448,2.030807 0.41844,4.033327 0.22394,1.986019 0.44787,4.018005 0.0306,0.223927 -0.19328,0.253393 l -1.50867,0.16501 q -0.0896,0.01414 -0.17915,-0.04479 -0.0754,-0.06003 -0.0754,-0.165011 -0.22394,-2.015469 -0.40309,-3.988523 -0.17917,-1.970696 -0.37364,-4.002682 -0.68716,0.104821 -1.38844,0.208636 l -1.3743,0.209799 q -0.2098,0.02939 -0.25459,-0.194476 l -0.22393,-1.374318 q -0.0448,-0.208604 0.17914,-0.268715 0.71662,-0.118965 1.43441,-0.208636 0.71662,-0.105921 1.43324,-0.194477 l -0.2982,-3.196473 q 0,-0.209799 0.20862,-0.239265 l 1.50867,-0.118964 q 0.22394,-0.03064 0.25459,0.223958 0.0589,0.776728 0.0896,1.538133 0.0448,0.747246 0.11897,1.523974 0.82151,-0.08958 1.64303,-0.149767 0.83684,-0.07433 1.64303,-0.118964 l -0.0589,-2.748587 q 0,-0.120222 0.0743,-0.179155 0.0743,-0.06003 0.165,-0.06003 h 1.49334 q 0.10482,0 0.14977,0.07433 0.0589,0.06003 0.0589,0.165011 l -0.0448,2.687297 q 1.09025,0.0165 2.01667,0.37481 0.92641,0.342986 1.52397,0.954703 z m -0.44787,14.847375 q 0.40308,0.731939 0.50682,1.538133 0.10592,0.79205 -0.0295,1.5841 -0.13436,0.792035 -0.49265,1.538118 -0.35833,0.731939 -0.89577,1.329529 -0.65769,0.731939 -1.47921,1.225776 -0.82151,0.477367 -1.74793,0.790871 -0.91109,0.298198 -1.86697,0.478531 -0.95589,0.179154 -1.8823,0.282875 -0.22393,0.03064 -0.25339,-0.193298 l -0.19448,-1.539312 q -0.0307,-0.223927 0.19448,-0.253393 0.6565,-0.07543 1.31417,-0.17917 0.67183,-0.104821 1.29887,-0.268731 0.64236,-0.179139 1.22579,-0.447886 0.59757,-0.284054 1.10557,-0.71778 0.44789,-0.358324 0.80619,-0.850982 0.35831,-0.493853 0.55279,-1.031316 0.20862,-0.537462 0.20862,-1.10557 0,-0.566929 -0.2982,-1.104391 -0.26874,-0.507997 -0.71779,-0.807357 -0.44789,-0.298213 -0.98535,-0.447901 -0.5233,-0.149767 -1.10557,-0.179155 -0.56693,-0.04479 -1.10556,-0.04479 -0.7614,0 -1.50866,0.07433 -0.73076,0.06003 -1.49336,0.179154 -0.74725,0.120222 -1.49333,0.254588 -0.73194,0.134366 -1.4792,0.268747 -0.17916,0.02939 -0.28288,-0.149767 v -0.02939 l -0.29937,-1.5676 q -0.0448,-0.209799 0.19329,-0.254587 l 1.56878,-0.299376 q 1.49452,-0.268716 2.98787,-0.44787 1.49333,-0.17917 3.01732,-0.05893 0.68716,0.05893 1.35898,0.208637 0.68715,0.149766 1.28472,0.432547 0.61288,0.284069 1.11972,0.731939 0.52331,0.433758 0.86748,1.060782 z" />
  <path
     inkscape:connector-curvature="0"
     id="path4926"
     style="fill:#43507e;fill-opacity:1;stroke:none;stroke-width:3.53593111"
     d="m 291.0947,30.256679 q 0.10482,0.179154 -0.0589,0.282891 l -1.33069,0.77789 q -0.17917,0.08848 -0.31353,-0.07543 -0.50682,-0.79205 -1.04545,-1.538133 -0.52331,-0.762568 -1.10557,-1.494523 -0.13436,-0.165011 0.0306,-0.313505 l 1.25406,-0.881627 q 0.0743,-0.04479 0.16501,-0.02939 0.0883,0.01603 0.13437,0.08958 0.59639,0.77789 1.14918,1.567599 0.56811,0.793213 1.11971,1.61473 z m -1.71727,2.015469 q 0.32766,0.493869 0.47735,1.046638 0.14976,0.537478 0.11896,1.090263 -0.0141,0.537447 -0.22393,1.074926 -0.19331,0.523303 -0.56692,0.986527 -0.44791,0.537446 -1.016,0.836823 -0.5528,0.313519 -1.17984,0.477351 -0.61288,0.165011 -1.28471,0.208636 -0.65768,0.04479 -1.28472,0.04479 -0.20862,0 -0.20862,-0.208636 v -1.449735 q 0,-0.223927 0.20862,-0.223927 0.7614,0 1.53813,-0.08832 0.77791,-0.106078 1.3743,-0.553948 0.52331,-0.38779 0.65769,-0.985348 0.13436,-0.612912 -0.2098,-1.179841 -0.35831,-0.568091 -0.91109,-0.850966 -0.55279,-0.284054 -1.20929,-0.373631 -0.64237,-0.08958 -1.3142,-0.03064 -0.67182,0.06003 -1.25525,0.194477 v 2.719136 q 0,0.597574 -0.19448,1.119714 -0.19328,0.507981 -0.55277,0.895771 -0.343,0.404276 -0.83684,0.643525 -0.47737,0.238103 -1.04429,0.282891 -0.53863,0.03064 -1.00184,-0.118965 -0.46203,-0.149766 -0.83684,-0.447869 -0.35713,-0.28407 -0.59639,-0.717812 -0.22396,-0.41724 -0.26873,-0.895755 -0.016,-0.08958 -0.016,-0.179154 v -0.179154 q 0,-0.716617 0.26871,-1.358979 0.28288,-0.657685 0.74726,-1.21047 0.47736,-0.568108 1.10557,-1.001849 0.64235,-0.44787 1.34365,-0.77555 v -2.703798 h -3.18233 q -0.20862,0 -0.20862,-0.20862 v -1.360164 q 0,-0.238087 0.2098,-0.238087 h 3.18234 v -2.106225 q 0,-0.209799 0.22393,-0.209799 h 1.44855 q 0.20862,0 0.20862,0.209799 v 2.106225 h 3.31554 q 0.10607,0 0.14976,0.07433 0.0589,0.05893 0.0589,0.16501 v 1.358979 q 0,0.20862 -0.2086,0.20862 h -3.31553 v 2.121548 q 0.8663,-0.179154 1.7774,-0.179154 0.91109,-0.01603 1.74793,0.193313 0.83684,0.194477 1.55345,0.628203 0.71662,0.432579 1.20928,1.14918 z m -8.17156,2.734459 v -1.911748 q -0.6565,0.417241 -1.13502,1.014799 -0.46321,0.597589 -0.46321,1.300062 0,0.134366 0.016,0.179154 0.0296,0.268716 0.20864,0.432563 0.19448,0.164995 0.47851,0.135466 0.4479,-0.04479 0.67183,-0.388953 0.22394,-0.34297 0.22394,-0.761406 z m -3.9732,16.564662 q 0,-0.223943 0.23927,-0.223943 h 13.29509 q 0.23809,0 0.23809,0.223943 v 1.21047 q 0,0.239265 -0.23925,0.239265 h -13.2951 q -0.2381,0 -0.2381,-0.239265 z m 10.8883,-9.231141 V 41.38544 h -7.60223 v 0.954688 z m -7.66118,1.434428 q -0.016,0.253393 -0.0307,0.432548 -0.016,0.180332 -0.0295,0.299376 h 6.75128 q -0.0294,-0.118965 -0.0589,-0.299376 -0.016,-0.179155 -0.0459,-0.432548 z m 8.63358,0 q 0.47734,3.062107 2.25474,5.168332 0.13436,0.149767 0.016,0.282891 l -0.95589,1.225792 q -0.0743,0.104821 -0.19447,0.104821 -0.11897,0 -0.19448,-0.08958 -1.2246,-1.360158 -1.94121,-3.495865 v 3.406288 q 0,0.223927 -0.22396,0.223927 h -7.49853 q -0.22393,0 -0.22393,-0.223927 v -4.616757 q -0.46321,2.927741 -1.82219,4.691011 -0.0754,0.104821 -0.19447,0.104821 -0.10483,0 -0.17916,-0.106235 l -1.06078,-1.238741 q -0.10482,-0.104821 -0.016,-0.268747 0.31352,-0.463193 0.55396,-0.926416 0.25341,-0.463193 0.43258,-0.911094 0.165,-0.432547 0.29818,-1.000655 0.14977,-0.582235 0.22395,-1.31419 0.0754,-0.731939 0.12022,-1.658355 0.0448,-0.926416 0.0448,-2.076759 v -1.045459 q 0,-0.223959 0.23808,-0.223959 h 11.11461 q 0.22395,0 0.22395,0.223959 v 3.540637 q 0,0.223959 -0.22395,0.223959 z m -2.94308,5.511334 v -1.135036 h -4.09226 v 1.135036 z m 0,-2.35965 v -1.015993 h -4.09226 v 1.015993 z m -8.27526,11.979729 q 0.22395,-0.104821 0.32885,0.10482 l 0.23926,0.552786 q 0.14835,0.342986 0.35831,0.790871 v -1.86696 h -1.30005 q -0.23926,0 -0.23926,-0.223958 v -2.628381 q 0,-0.23925 0.23926,-0.23925 h 5.57145 v -0.881643 q 0,-0.223927 0.23928,-0.223927 h 1.61355 q 0.23926,0 0.23926,0.223927 v 0.881643 h 5.57145 q 0.23928,0 0.23928,0.23925 v 2.628381 q 0,0.223958 -0.23928,0.223958 h -0.46321 v 3.017319 q 0,0.223943 -0.23926,0.223943 h -8.38015 q -0.22394,0 -0.22394,-0.223943 v -0.730761 q 0,-0.223943 0.22394,-0.223943 h 6.54265 v -0.47853 h -6.27274 q -0.23926,0 -0.23926,-0.239265 v -0.597574 q 0,-0.223943 0.23926,-0.223943 h 6.27274 v -0.478514 h -6.54147 q -0.22396,0 -0.22396,-0.223959 v -0.716601 q 0,-0.223958 0.22396,-0.223958 h 7.39363 v -0.478515 h -9.8735 v 0.463192 h 1.29887 q 0.23926,0 0.23926,0.223959 v 4.615562 h 10.02318 q 0.23928,0 0.23928,0.223943 v 2.031971 q 0,0.223942 -0.23928,0.223942 h -0.62703 v 0.432563 q 0,0.07543 -0.06,0.135623 -0.80739,0.776728 -1.94241,1.402589 0.53863,0.07543 1.2258,0.180333 0.70129,0.08958 1.58292,0.179139 0.11896,0.01603 0.17914,0.118964 0.0743,0.08958 0.0295,0.209799 l -0.37245,1.060782 q -0.0754,0.163832 -0.22394,0.148352 -1.34482,-0.148352 -2.53997,-0.388969 -1.17983,-0.223927 -2.22529,-0.536268 -1.74793,0.537463 -4.37747,0.911078 -0.20864,0.02939 -0.25341,-0.134366 l -0.41842,-1.225792 v 1.23992 q 0,0.223959 -0.23927,0.223959 h -1.44973 q -0.22394,0 -0.22394,-0.223959 v -2.643672 q -0.34181,0.164995 -0.68597,0.344165 -0.32883,0.163816 -0.67183,0.327648 -0.25459,0.106078 -0.33002,-0.14851 l -0.43257,-1.270565 q -0.0743,-0.208636 0.14977,-0.28289 l 0.98535,-0.44787 q 0.50799,-0.239281 0.98652,-0.478546 v -1.358964 l -0.47853,0.238071 q -0.22394,0.120222 -0.34298,-0.134365 -0.23925,-0.671829 -0.55395,-1.374302 -0.31234,-0.716617 -0.67183,-1.448556 -0.0743,-0.208605 0.12022,-0.298197 l 1.00184,-0.523319 z m 5.4524,7.782584 q -0.3583,-0.179154 -0.67181,-0.358308 -0.3147,-0.179138 -0.56812,-0.373615 -0.11897,-0.08958 -0.11897,-0.223959 0.0142,-0.149766 0.16382,-0.223942 l 0.61291,-0.330021 h -1.01599 q -0.22396,0 -0.22396,-0.238071 V 64.67189 h -0.79203 v 2.35965 q 0.62704,-0.05893 1.26938,-0.148353 0.6577,-0.08973 1.34366,-0.194492 z m 2.44923,-0.537446 q 0.0307,-0.01603 0.0754,-0.01603 0.0448,-0.01603 0.0896,-0.04479 h 0.0294 q 0.0896,-0.01603 0.13436,-0.04479 1.06079,-0.344165 1.7774,-0.866305 h -4.27141 q 0.77673,0.582251 2.16516,0.971204 z m 3.24128,-2.166352 v -0.492674 h -6.67702 v 0.492674 z" />
  <path
     inkscape:connector-curvature="0"
     id="path4902"
     style="fill:#43507e;fill-opacity:1;stroke:none;stroke-width:3.53593111"
     d="m 205.15886,36.021594 q 0,-0.223958 0.23808,-0.223958 h 13.2951 q 0.2381,0 0.2381,0.223958 v 1.21047 q 0,0.239249 -0.2381,0.239249 h -13.2951 q -0.23808,0 -0.23808,-0.239249 z m 10.88831,-9.231141 V 25.83575 h -7.60225 v 0.954703 z m -7.66236,1.434413 q -0.016,0.253393 -0.0296,0.433726 -0.016,0.179154 -0.0306,0.298213 h 6.75245 q -0.0306,-0.119122 -0.06,-0.298213 -0.016,-0.180333 -0.0448,-0.433726 z m 8.63355,0 q 0.47855,3.062107 2.25595,5.168332 0.13436,0.149766 0.016,0.28289 l -0.95589,1.225777 q -0.0754,0.104821 -0.19447,0.104821 -0.12022,0 -0.1945,-0.08958 -1.22579,-1.360158 -1.9424,-3.495865 v 3.406287 q 0,0.223928 -0.22393,0.223928 h -7.49853 q -0.22395,0 -0.22395,-0.223928 V 30.21195 q -0.46322,2.927757 -1.82218,4.689817 -0.0743,0.104821 -0.19448,0.104821 -0.10372,0 -0.17915,-0.104821 l -1.06078,-1.239917 q -0.10373,-0.104821 -0.0142,-0.268747 0.31351,-0.463192 0.55279,-0.9264 0.25341,-0.463208 0.43254,-0.911078 0.16501,-0.432578 0.29938,-1.000686 0.14867,-0.582235 0.22396,-1.31419 0.0743,-0.73194 0.11896,-1.658356 0.0448,-0.926415 0.0448,-2.076758 v -1.045318 q 0,-0.223943 0.23925,-0.223943 h 11.11344 q 0.22396,0 0.22396,0.223943 v 3.540653 q 0,0.223943 -0.22396,0.223943 z m -2.94188,5.511333 v -1.135036 h -4.09343 v 1.135036 z m 0,-2.358471 v -1.017171 h -4.09343 v 1.015993 h 4.09343 z m -0.82152,7.661185 q 0.0295,0 0.0896,0.03064 2.52348,1.508651 5.84019,2.734443 0.2086,0.07308 0.14977,0.267568 l -0.34417,1.284709 q -0.0295,0.104821 -0.11896,0.149767 -0.0754,0.02954 -0.19448,0 -0.4184,-0.165011 -0.80618,-0.299376 -0.38895,-0.134366 -0.74728,-0.298182 v 4.914939 q 0.0294,-0.03064 0.0896,-0.07543 0.0743,-0.05893 0.14977,-0.134365 0.0743,-0.07433 0.11897,-0.104821 0.14976,-0.118965 0.28287,0.03064 l 0.88279,0.850983 q 0.0743,0.07433 0.0743,0.179154 0,0.08958 -0.0896,0.165011 -0.5233,0.477351 -1.1197,0.940544 -0.59757,0.447901 -1.27058,0.881627 0.56811,0.253409 1.16568,0.463208 0.61288,0.193298 1.28473,0.372452 0.14835,0.03064 0.1933,0.149767 0.06,0.104821 -0.0141,0.223942 l -0.64235,1.105586 q -0.06,0.134371 -0.23928,0.104826 -2.47986,-0.538641 -4.36099,-1.777382 -0.25458,-0.165011 -0.41959,-0.28407 -0.16383,-0.134366 -0.29819,-0.223943 l 0.13436,1.209307 q 0.0294,0.223927 -0.19447,0.254572 -1.91177,0.298197 -3.70447,0.492674 -1.79155,0.194477 -3.5548,0.298197 -0.0896,0.01603 -0.16501,-0.04479 -0.0589,-0.05893 -0.0589,-0.148352 l -0.13437,-1.195146 q -0.0294,-0.239265 0.23927,-0.268715 0.94056,-0.04479 1.40375,-0.08958 v -8.261116 q -0.31351,0.134366 -0.68714,0.268716 -0.35831,0.134366 -0.77672,0.299376 -0.23927,0.07433 -0.31352,-0.16501 l -0.32864,-1.269446 q -0.0896,-0.194477 0.13436,-0.268732 3.31671,-1.225792 5.8402,-2.734459 0.06,-0.02939 0.0896,-0.02939 h 2.41976 z m 1.25408,10.65141 q 1.10557,-0.687167 2.10624,-1.463895 h -3.85417 q 0.65768,0.761406 1.74793,1.463895 z m -1.79272,0.850966 q -1.2694,-0.985332 -2.0909,-2.314861 h -1.71731 v 2.793392 q 1.03016,-0.105921 1.97071,-0.223943 0.95707,-0.120222 1.83868,-0.254588 z m 2.70381,-8.394286 q -0.82151,-0.404276 -1.67367,-0.8675 -0.83566,-0.462029 -1.70197,-1.030121 -0.8663,0.568092 -1.71727,1.030121 -0.83684,0.463224 -1.65836,0.8675 h 2.40443 V 41.13101 q 0,-0.223959 0.23926,-0.223959 h 1.4639 q 0.23924,0 0.23924,0.223959 v 1.015993 z m -0.34298,2.329005 v -0.865142 h -6.16904 v 0.866305 h 6.16904 z m -6.16904,2.286557 h 6.16904 v -0.941738 h -6.16904 z" />
  <path
     inkscape:connector-curvature="0"
     id="path4870"
     style="fill:#43507e;fill-opacity:1;stroke:none;stroke-width:3.53593111"
     d="m 133.64352,31.22573 q 0,-0.223943 0.22395,-0.223943 h 4.49652 q 0.23926,0 0.23926,0.223943 v 1.031315 q 0,0.223927 -0.23926,0.223927 h -4.49652 q -0.22395,0 -0.22395,-0.223927 z m 0,-2.165158 q 0,-0.239265 0.22395,-0.239265 h 4.49652 q 0.23926,0 0.23926,0.239265 v 1.030121 q 0,0.239266 -0.23926,0.239266 h -4.49652 q -0.22395,0 -0.22395,-0.239266 z m -0.53746,-2.331362 q 0,-0.223958 0.22396,-0.223958 h 5.46771 q 0.22396,0 0.22396,0.223958 v 1.19631 q 0,0.223959 -0.22396,0.223959 h -5.46771 q -0.22396,0 -0.22396,-0.223959 v -1.195131 z m 0.41842,-2.180495 q 0,-0.238087 0.22394,-0.238087 h 4.6309 q 0.23809,0 0.23809,0.238087 v 1.076104 q 0,0.239265 -0.23809,0.239265 h -4.63206 q -0.22396,0 -0.22396,-0.239265 v -1.076104 z m 5.70581,5.841355 q 0,-0.239266 0.22394,-0.239266 h 0.41844 L 138.94625,29.1796 q -0.14866,-0.149767 0.016,-0.342986 0.59756,-0.58343 0.86629,-1.300047 0.26873,-0.821516 0.26873,-2.5105 v -0.565751 q 0,-0.223942 0.22395,-0.223942 h 4.48119 q 0.23927,0 0.23927,0.223942 v 3.329676 q 0,0.194476 0.0448,0.209799 0.0896,0.02939 0.25342,0.02939 0.37362,0 0.44787,-0.223942 0.0307,-0.134366 0.0754,-0.463208 0.0448,-0.328843 0.0743,-0.850983 0.0306,-0.268731 0.28405,-0.239265 l 1.04544,0.149767 q 0.0896,0.01603 0.14977,0.08958 0.0754,0.07433 0.0589,0.16501 v 0.163816 q 0,0.07433 -0.0141,0.14851 -0.016,0.149766 -0.016,0.26991 0,0.117864 -0.0295,0.238071 -0.016,0.120221 -0.016,0.209799 v 0.10372 q -0.0296,0.299377 -0.17914,0.852146 -0.13437,0.477352 -0.23927,0.582251 -0.10372,0.104821 -0.52214,0.239265 -0.4479,0.149767 -0.73195,0.149767 h -1.15035 q -0.83683,0 -1.10557,-0.165011 -0.23926,-0.149766 -0.23926,-0.746083 v -2.838164 h -1.37312 v 0.05893 q 0,2.898291 -1.70315,4.227789 h 6.13839 q 0.22393,0 0.22393,0.239265 v 1.374301 q 0,0.04479 -0.0435,0.04479 h 0.0294 q -0.38895,0.821516 -0.88162,1.538117 -0.47737,0.702489 -1.06078,1.314206 1.22579,0.747262 2.61423,1.225777 0.2098,0.07433 0.13437,0.31352 l -0.47735,1.238757 q -0.0896,0.180333 -0.28406,0.135623 -0.94054,-0.314699 -1.82217,-0.717796 -0.8663,-0.388953 -1.68782,-0.926416 -1.38962,0.941739 -3.40627,1.644212 -0.14867,0.05893 -0.25343,-0.09083 l -0.70245,-1.209275 v 0.761405 q 0,0.223928 -0.23928,0.223928 h -3.1069 v 0.330036 q 0,0.223927 -0.23809,0.223927 h -1.344 q -0.22394,0 -0.22394,-0.223927 v -4.21366 q 0,-0.223943 0.22394,-0.223943 h 4.69101 q 0.23809,0 0.23809,0.223943 v 2.614222 q 0.77789,-0.239266 1.46386,-0.537447 0.70249,-0.299376 1.32953,-0.671829 -1.03015,-0.895771 -1.74793,-1.823365 -0.11897,-0.193298 0.0448,-0.327664 l 1.0761,-0.821516 h -1.38964 q -0.22394,0 -0.22394,-0.223943 z m -2.22527,5.406434 v -1.178631 h -1.67368 v 1.178631 z m 6.03465,-2.165157 q 0.82152,-0.747262 1.43324,-1.822187 h -3.25542 q 0.73076,0.954703 1.82218,1.822187 z m 3.91311,18.999729 q 0,0.08958 -0.0743,0.149766 -0.0589,0.05893 -0.16501,0.05893 h -0.8062 q -1.25524,0 -2.31484,-0.05893 -1.04664,-0.04479 -1.94241,-0.149766 -1.67368,-0.223943 -2.95839,-0.746083 -1.23876,-0.507997 -2.08974,-1.374286 -0.14976,-0.134366 -0.26991,-0.26991 -0.11896,-0.134366 -0.23808,-0.298213 -0.26991,0.747261 -0.58343,1.479201 -0.31352,0.716617 -0.7013,1.463878 -0.0754,0.179154 -0.29937,0.103721 l -1.29887,-0.552785 q -0.23927,-0.103721 -0.12022,-0.31352 1.36014,-2.748587 2.06261,-5.884964 0.0435,-0.239266 0.28288,-0.194477 l 1.40376,0.284069 q 0.22395,0.04479 0.17916,0.268716 -0.13437,0.657669 -0.31354,1.389624 0.23928,0.403097 0.49269,0.746067 0.25457,0.344165 0.508,0.597589 0.59756,0.597574 1.59823,0.986527 v -5.497205 h -3.74808 q -0.22395,0 -0.22395,-0.223927 V 44.16134 h -1.53931 q -0.22394,0 -0.22394,-0.223943 v -3.286065 q 0,-0.23925 0.22394,-0.23925 h 5.25675 v -1.209291 q 0,-0.239265 0.24044,-0.239265 h 1.61239 q 0.23927,0 0.23927,0.239265 v 1.209291 h 5.25792 q 0.22394,0 0.22394,0.23925 v 3.286065 q 0,0.223943 -0.22394,0.223943 h -1.53813 v 0.447886 q 0,0.223942 -0.22393,0.223942 h -3.2566 v 1.883477 h 4.09225 q 0.23926,0 0.23926,0.238086 v 1.181004 q 0,0.223943 -0.23926,0.223943 h -4.09225 V 50.869 q 0.0589,0.01414 0.13437,0.01414 0.0743,0 0.20862,0.01603 0.2098,0.01603 0.33002,0.04479 0.79087,0.07543 1.76207,0.120221 0.97001,0.04479 2.1357,0.04479 h 0.82151 q 0.23927,0 0.23927,0.253425 l -0.0589,1.269386 z m -2.24061,-9.425618 v -1.149164 h -9.23114 v 1.149164 z m -7.49853,19.657429 q -0.22394,0 -0.22394,-0.238086 v -1.179825 q 0,-0.223943 0.22394,-0.223943 h 3.74926 v -0.95706 h -3.12222 q -0.22396,0 -0.22396,-0.238087 V 55.02137 q 0,-0.223943 0.22396,-0.223943 h 8.41081 q 0.22394,0 0.22394,0.223943 v 5.004516 q 0,0.238087 -0.22394,0.238087 h -3.24128 v 0.955882 h 3.79287 q 0.22395,0 0.22395,0.223942 v 1.181004 q 0,0.238086 -0.22395,0.238086 h -2.86763 q 1.30003,1.673662 3.34617,3.123397 0.16501,0.103721 0.0743,0.267553 l -0.62704,1.27058 q -0.0589,0.117865 -0.16501,0.134366 -0.10373,0.02939 -0.20861,-0.04479 -1.98602,-1.539312 -3.34618,-3.465219 v 3.942571 q 0,0.223943 -0.23808,0.223943 h -1.56878 q -0.23927,0 -0.23927,-0.223943 v -3.868301 q -0.68715,0.911094 -1.50866,1.747932 -0.8062,0.836823 -1.80687,1.612373 -0.0896,0.07543 -0.19446,0.05893 -0.10482,-0.01414 -0.16501,-0.133266 l -0.73076,-1.300046 q -0.0754,-0.179155 0.0896,-0.31352 2.03081,-1.403768 3.34498,-3.032641 z m 7.27459,-4.181836 v -2.240607 h -4.88431 v 2.239428 h 4.88431 z m -8.40962,9.425617 q 0,0.223943 -0.23927,0.223943 h -1.50867 q -0.22392,0 -0.22392,-0.223943 v -6.124229 q -0.16501,0.253409 -0.29822,0.447885 -0.13436,0.194477 -0.25458,0.388953 -0.11897,0.163817 -0.31351,0.134366 -0.17917,-0.04589 -0.22396,-0.26991 l -0.38895,-1.643017 q -0.0141,-0.08958 0.0307,-0.16501 0.91109,-1.25408 1.56759,-2.837002 0.59759,-1.434396 1.00185,-3.390949 0.0448,-0.239281 0.28288,-0.194492 l 1.41909,0.254587 q 0.23926,0.05893 0.19448,0.268747 -0.34301,2.001326 -1.04546,3.749258 z m 10.94959,3.928412 q 0,0.223959 -0.22394,0.223959 h -2.36082 q 0.58224,0.582235 1.16568,1.225792 0.58225,0.625845 1.14917,1.312996 0.10608,0.120222 0.0754,0.239265 -0.0295,0.104821 -0.16501,0.165011 l -0.91109,0.432563 v 5.586767 q 0,0.223943 -0.0142,0.433742 0,0.20862 -0.016,0.432563 -0.016,0.388953 -0.0896,0.612896 -0.0896,0.282875 -0.25459,0.432563 -0.13437,0.149767 -0.40311,0.254572 -0.28286,0.119122 -0.64235,0.134366 -0.25342,0.01414 -0.47735,0.01414 -0.22394,0.01603 -0.4479,0.01603 -0.19446,0 -0.71778,-0.01603 -0.50682,-0.01414 -1.35898,-0.04479 -0.19448,-0.02955 -0.22394,-0.223927 l -0.0294,-1.105586 q 0,-0.238071 0.25341,-0.238071 0.71661,0 1.16568,0.01414 h 0.65649 q 0.35832,0 0.43376,-0.07433 0.0743,-0.04479 0.0743,-0.313536 V 81.1471 h -7.14022 v 2.165173 q 0,0.223942 -0.22395,0.223942 h -1.64303 q -0.22394,0 -0.22394,-0.223942 v -7.498547 q 0,-0.223943 0.22394,-0.223943 h 10.35202 l -0.35829,-0.418404 q -0.18034,-0.238102 -0.44789,-0.537478 -2.79339,0.254588 -5.37815,0.388953 -2.56945,0.134366 -4.94442,0.193314 -0.19447,0 -0.22394,-0.208636 l -0.0743,-1.076104 q -0.016,-0.103721 0.0448,-0.163816 0.0743,-0.07433 0.17915,-0.07433 0.41842,-0.01603 1.00067,-0.03064 0.58225,-0.01414 1.34366,-0.04479 0.23926,-0.373631 0.44787,-0.716617 0.2098,-0.342986 0.37364,-0.687166 h -3.58424 q -0.22396,0 -0.22396,-0.223927 v -1.135037 q 0,-0.223927 0.22396,-0.223927 h 5.66102 v -0.941754 q 0,-0.223927 0.23925,-0.223927 h 1.61358 q 0.23807,0 0.23807,0.223927 v 0.941754 h 5.66102 q 0.22396,0 0.22396,0.223927 v 1.178647 z m -7.96173,0.223959 q -0.34416,0.671813 -0.73193,1.284709 l 2.27007,-0.118965 q 1.15034,-0.07543 2.34549,-0.149767 -0.31352,-0.34418 -0.56809,-0.582251 -0.23928,-0.254588 -0.40312,-0.433742 z m 4.60024,5.511334 v -0.701295 h -7.14022 v 0.701295 z m -7.14022,2.061452 h 7.14022 V 79.13053 h -7.14022 z" />
  <path
     inkscape:connector-curvature="0"
     id="path4854"
     style="fill:#43507e;fill-opacity:1;stroke:none;stroke-width:3.53593111"
     d="m 97.798885,30.285637 v 0.776728 h 6.198485 v -0.777891 h -6.199665 z m -1.59824,-5.004516 q -0.0154,-0.118965 0.0448,-0.179154 0.0743,-0.07433 0.17915,-0.07433 1.40259,0 2.64369,-0.04479 1.239935,-0.05893 2.345505,-0.179138 1.14918,-0.104821 2.04613,-0.223943 0.91109,-0.134366 1.59824,-0.299376 0.22395,-0.05893 0.26872,0.16501 l 0.2982,1.224614 q 0.0448,0.239249 -0.1933,0.282875 -0.34415,0.07543 -0.7178,0.16501 -0.35829,0.07433 -0.7614,0.118965 l 1.32953,0.29936 q 0.10482,0.02939 0.14976,0.118965 0.0589,0.07543 0.0294,0.194476 -0.11896,0.433758 -0.28286,0.926416 -0.16501,0.477352 -0.37481,1.000671 h 0.89577 q 0.22393,0 0.22393,0.223943 v 2.822857 q 0,0.239265 -0.22393,0.239265 h -0.6565 v 0.506818 q 0,0.04589 -0.0296,0.105921 -1.01599,1.508652 -2.47987,2.613043 0.77789,0.330021 1.61357,0.58343 0.83682,0.239265 1.74791,0.403097 0.11913,0.02939 0.16385,0.118965 0.0589,0.07543 0.0294,0.194476 l -0.35831,1.21047 q -0.0448,0.179138 -0.26873,0.148352 -1.20928,-0.208636 -2.35965,-0.582251 -1.15034,-0.358324 -2.28656,-0.911093 -0.0885,-0.05893 -0.13311,-0.118965 0.0294,0.04479 -0.0602,0.103721 -0.0896,0.06003 -0.22392,0.120222 -1.852825,0.895771 -4.302055,1.374301 -0.20862,0.04479 -0.26873,-0.134366 l -0.38895,-1.195147 q -0.0295,-0.120222 0.0154,-0.209799 0.0448,-0.08958 0.16501,-0.118965 0.92524,-0.16501 1.76208,-0.403112 0.83683,-0.239265 1.56759,-0.538642 -0.9547,-0.671828 -1.7326,-1.478006 -0.0743,-0.104821 -0.0743,-0.194477 0.0154,-0.104821 0.0896,-0.16501 l 1.11971,-0.865126 h -1.2694 q -0.22394,0 -0.22394,-0.239281 v -0.328827 h -0.49267 l 0.0295,0.298198 q 0.0307,0.16501 -0.13436,0.239265 -0.1933,0.07543 -0.46203,0.16501 -0.25459,0.07433 -0.6129,0.193282 v 3.182345 q 0,0.239281 -0.0154,0.358309 -0.0154,0.358308 -0.0896,0.671828 -0.0589,0.299376 -0.16501,0.447885 -0.10372,0.165011 -0.31234,0.254588 -0.12022,0.05893 -0.22394,0.07433 -0.10608,0.03064 -0.2098,0.04479 -0.0743,0.01603 -0.23926,0.01603 h -0.41842 q -0.17915,0 -0.52214,-0.01603 -0.32884,-0.01414 -0.85098,-0.04479 -0.18033,0 -0.2098,-0.20862 l -0.0743,-1.165681 q -0.0154,-0.118965 0.0589,-0.193282 0.0896,-0.07543 0.2098,-0.06003 0.61289,0.05893 0.85098,0.05893 0.2098,0 0.25458,-0.10372 0.0448,-0.08958 0.0448,-0.627056 v -2.167514 q -0.2098,0.04479 -0.50799,0.10482 l -0.64236,0.134366 q -0.12023,0.02939 -0.19448,-0.03064 -0.0743,-0.07433 -0.0896,-0.193282 l -0.0896,-1.315369 q -0.0295,-0.193298 0.17915,-0.223959 0.3583,-0.08958 0.68715,-0.148509 0.34416,-0.07543 0.65768,-0.149767 v -3.167006 h -1.30004 q -0.22394,0 -0.22394,-0.223959 v -1.225792 q 0,-0.223942 0.22394,-0.223942 h 1.30004 v -2.34197 q 0,-0.23925 0.23927,-0.23925 h 1.44855 q 0.22394,0 0.22394,0.23925 v 2.345521 h 0.9712 q 0.22395,0 0.22395,0.223927 v 1.224629 q 0,0.223927 -0.22395,0.223927 h -0.9712 v 2.643704 q 0.0743,-0.02954 0.17915,-0.05893 0.1049,-0.03064 0.22395,-0.07543 0.12022,-0.02939 0.19447,-0.05893 0.0896,-0.03064 0.11905,-0.04479 v -1.89762 q 0,-0.223943 0.23926,-0.223943 h 1.25526 q -0.12023,-0.282875 -0.26991,-0.582251 -0.13437,-0.31352 -0.2982,-0.642346 -0.0589,-0.104821 -0.0295,-0.2098 0.0448,-0.118964 0.16501,-0.148509 l 1.19397,-0.359487 q 0.14969,-0.05893 0.25341,0.120222 0.25458,0.463208 0.44788,0.926416 0.2098,0.447885 0.40428,0.895755 h 1.105565 q -0.17915,-0.418404 -0.34416,-0.761405 -0.149605,-0.359487 -0.282875,-0.628203 -0.0602,-0.103721 -0.0306,-0.208636 0.0448,-0.104821 0.17915,-0.134366 l 1.210465,-0.373615 q 0.16383,-0.05893 0.23809,0.118965 0.22394,0.433742 0.44788,0.941754 0.22394,0.492674 0.44789,1.045443 h 0.65767 q 0.26991,-0.68715 0.47854,-1.300031 0.20862,-0.627039 0.38896,-1.209306 -1.37548,0.17917 -1.95656,0.223958 -1.12089,0.104821 -2.436235,0.165011 -1.29888,0.04353 -2.83701,0.04353 -0.19447,0 -0.22394,-0.20862 l -0.10608,-1.210486 z m 4.570775,9.096776 q 1.32951,-0.821517 2.07558,-1.746754 h -4.226595 q 0.43255,0.477352 0.97001,0.925237 0.538645,0.44787 1.181005,0.821517 z m -6.154875,17.252975 q 0.34417,0 0.41842,-0.08958 0.0743,-0.118965 0.0743,-0.61288 v -0.716617 q -0.9547,0.07543 -1.71729,0.120222 -0.74726,0.02939 -1.30004,0.07433 -0.20862,0 -0.23809,-0.223943 l -0.0754,-1.150374 q -0.0141,-0.104821 0.0448,-0.165011 0.0754,-0.07433 0.17915,-0.08832 1.04546,-0.06003 1.80804,-0.106079 0.77673,-0.04353 1.29887,-0.08848 v -0.702463 q 0,-0.239265 0.23926,-0.239265 h 0.29938 q 0.40309,-0.16501 0.80619,-0.342986 0.41842,-0.194477 0.85098,-0.403097 h -4.85365 q -0.22395,0 -0.22395,-0.223927 v -1.091426 q 0,-0.223943 0.22395,-0.223943 h 6.06412 l -1.06078,-0.358324 q -0.11904,-0.02939 -0.16501,-0.118965 -0.0295,-0.104821 0.0154,-0.209799 0.29938,-0.701295 0.53864,-1.402589 0.25341,-0.703652 0.44789,-1.465057 0.0295,-0.08958 0.1049,-0.134366 0.0742,-0.05893 0.17915,-0.02954 l 1.16449,0.268732 q 0.10482,0.02939 0.14961,0.118964 0.0589,0.08958 0.0294,0.194477 -0.50682,1.806849 -1.13503,3.136378 h 0.7779 q 0.22394,0 0.22394,0.223942 v 1.210454 q 0,0.104821 -0.0907,0.165011 -0.64236,0.41724 -1.28471,0.775549 -0.62704,0.359487 -1.2694,0.657684 0.65768,-0.05893 1.34365,-0.134365 l 1.3908,-0.149767 q 0.11786,-0.01414 0.193285,0.05893 0.0742,0.06129 0.0742,0.180333 l 0.0157,1.165681 q 0,0.193298 -0.194455,0.223943 -0.68716,0.08958 -1.40259,0.163816 -0.70365,0.05893 -1.42027,0.134366 v 1.613551 q 0,0.208636 -0.0154,0.313535 -0.0141,0.118965 -0.0448,0.268732 -0.0141,0.149766 -0.0589,0.328826 -0.0754,0.253425 -0.19447,0.403113 -0.13437,0.134366 -0.34417,0.208605 -0.11786,0.06003 -0.23808,0.07543 -0.12023,0.02939 -0.23927,0.04479 -0.1049,0.01603 -0.26873,0.01603 h -0.43374 q -0.2982,0 -0.85098,-0.01603 -0.55278,-0.01603 -1.3743,-0.04479 -0.0896,-0.01603 -0.16501,-0.07543 -0.0589,-0.05893 -0.0589,-0.14851 l -0.0754,-1.195163 q 0,-0.104821 0.18033,-0.179154 0.17915,-0.07543 0.43256,-0.05893 0.89577,0.04353 1.22579,0.04353 z m 1.13504,-6.796058 q -0.20862,0.07433 -0.28288,-0.149767 -0.22394,-0.612896 -0.40427,-1.135036 -0.17915,-0.537447 -0.38895,-0.986511 -0.10372,-0.223959 0.15086,-0.327664 l 1.10439,-0.373631 q 0.19448,-0.04479 0.26991,0.118965 0.43256,0.911078 0.82152,2.195802 0.0743,0.223943 -0.14969,0.299376 l -1.11971,0.358309 z m -2.4339,0.284054 q -0.22394,0.07433 -0.29938,-0.149767 -0.17915,-0.568107 -0.38895,-1.090232 -0.1933,-0.538657 -0.40309,-1.015993 -0.11787,-0.254587 0.14968,-0.328858 l 1.10557,-0.358293 q 0.17915,-0.04479 0.26873,0.118965 0.2098,0.463224 0.41842,1.001849 0.22394,0.537479 0.41842,1.178646 0.0743,0.239266 -0.14969,0.314699 z m 6.721795,-4.167677 q 0.0295,0.10372 -0.0306,0.193298 -0.0589,0.07543 -0.165005,0.08958 -1.71728,0.299376 -3.58307,0.463223 -1.86815,0.149767 -3.91428,0.223943 -0.22394,0 -0.25458,-0.193314 l -0.1485,-1.225792 q -0.0154,-0.10372 0.0448,-0.179138 0.0743,-0.07433 0.20862,-0.07433 2.00134,-0.07433 3.8247,-0.223943 1.82218,-0.165011 3.52414,-0.433758 0.2098,-0.02939 0.26991,0.17917 z m 3.30021,10.515849 q 0.5233,0 0.65768,-0.16501 0.22394,-0.268716 0.31352,-2.061437 0.016,-0.432563 0.0448,-1.433233 0,-0.120222 0.0589,-0.179155 0.0754,-0.07543 0.19567,-0.06003 l 1.31419,0.149767 q 0.0896,0 0.14977,0.07433 0.0589,0.07433 0.0589,0.16501 l -0.0448,1.269402 q -0.0141,0.388954 -0.0294,0.687135 -0.016,0.282891 -0.0294,0.477368 -0.016,0.104821 -0.0307,0.239249 0,0.118965 -0.0141,0.268732 -0.0448,0.313535 -0.0448,0.403097 -0.016,0.330036 -0.13546,0.702488 -0.0589,0.165011 -0.10372,0.298182 l -0.0754,0.223943 q -0.0589,0.149767 -0.28287,0.330021 -0.13437,0.148666 -0.34415,0.223958 l -0.28289,0.07433 q -0.10624,0.02939 -0.18034,0.04479 -0.32884,0.04479 -0.58225,0.04479 h -1.35896 q -0.25459,0 -0.37363,-0.01603 -0.46321,-0.01414 -0.70247,-0.08958 -0.26873,-0.05893 -0.47736,-0.223943 -0.1496,-0.134365 -0.25458,-0.328858 -0.11897,-0.223927 -0.13437,-0.522124 -0.0157,-0.08958 -0.0157,-0.268732 V 40.00907 q 0,-0.223958 0.22394,-0.223958 h 1.53931 q 0.22393,0 0.22393,0.223958 v 10.844697 q 0,0.433742 0.10482,0.523319 0.10372,0.08958 0.61291,0.08958 z" />
  <path
     inkscape:connector-curvature="0"
     id="path4684"
     style="fill:#43507e;fill-opacity:1;stroke:none;stroke-width:3.53593111"
     d="m 21.488714,24.460317 q 0,-0.223943 0.23926,-0.223943 h 1.22461 q 0.22394,0 0.22394,0.223943 v 11.78643 q 0.73194,-0.314698 1.32951,-0.671813 0.6129,-0.374809 1.11971,-0.777922 h -1.61238 q -0.22394,0 -0.22394,-0.239249 v -7.572786 q 0,-0.223959 0.22394,-0.223959 h 1.7774 q 0.1049,-0.418403 0.22394,-0.866305 h -2.19582 q -0.22394,0 -0.22394,-0.239249 v -1.178646 q 0,-0.223943 0.22394,-0.223943 h 6.96107 q 0.22395,0 0.22395,0.223943 v 1.179825 q 0,0.239265 -0.22395,0.239265 h -2.74859 q -0.0743,0.268715 -0.11905,0.492674 -0.0448,0.209799 -0.0896,0.373631 h 2.61305 q 0.23926,0 0.23926,0.223927 v 7.572801 q 0,0.239266 -0.23926,0.239266 h -1.85165 q 1.40376,0.687135 2.52465,1.568762 0.16384,0.119122 0.0448,0.282875 l -0.64236,1.046638 q -0.0601,0.104821 -0.16501,0.118965 -0.0896,0.03064 -0.17915,-0.04479 -1.20929,-0.880449 -2.59891,-1.582922 -0.23927,-0.120222 -0.1049,-0.358293 l 0.64236,-1.031315 h -2.09091 l 0.73194,0.986527 q 0.11904,0.148509 -0.0295,0.298182 -1.03131,0.971204 -2.74859,1.703143 -0.17916,0.07433 -0.26874,-0.08958 l -0.52331,-0.881627 v 0.597574 q 0,0.223942 -0.22395,0.223942 h -1.22579 q -0.23808,0 -0.23808,-0.223942 z m -2.13571,0.403081 q 0,-0.223927 0.22395,-0.223927 h 1.15035 q 0.22394,0 0.22394,0.223927 v 11.531858 q 0,0.223943 -0.22394,0.223943 h -1.15035 q -0.22395,0 -0.22395,-0.223943 z m -2.19699,-0.403081 q 0,-0.223943 0.24045,-0.223943 h 1.20928 q 0.22395,0 0.22395,0.223943 v 6.140731 q 0,1.313011 -0.0589,2.389115 -0.046,1.060782 -0.14968,1.941215 -0.0896,0.687151 -0.23927,1.329529 -0.13437,0.628202 -0.34416,1.210453 -0.0448,0.118965 -0.16383,0.149767 -0.11905,0.04479 -0.23927,-0.04479 l -1.11971,-0.852162 q -0.12022,-0.118964 -0.0754,-0.239265 0.22395,-0.582251 0.34417,-1.209291 0.13436,-0.642346 0.20862,-1.343641 0.0754,-0.777922 0.12022,-1.793899 0.0448,-1.014815 0.0448,-2.299523 v -5.378163 z m 11.5625,3.809368 h -3.13637 v 0.792066 h 3.13519 v -0.792066 z m 0,5.004532 v -0.852161 h -3.13637 v 0.852161 h 3.13519 z m 0,-2.121563 V 30.34646 h -3.13637 v 0.806194 h 3.13519 z M 16.708134,50.37752 q -0.14851,-0.180333 0.0154,-0.359487 1.88229,-1.643033 3.04797,-3.241277 0.13437,-0.179154 0.31352,-0.05893 l 1.09025,0.821516 q 0.0743,0.05893 0.0896,0.14851 0.0295,0.08958 -0.0295,0.16501 -1.30005,1.851638 -3.24127,3.554781 -0.0754,0.07433 -0.16501,0.07433 -0.0896,-0.01414 -0.16501,-0.08958 l -0.9547,-1.014798 z m 3.18234,-6.857347 q -0.0743,0.07543 -0.17916,0.07543 -0.0896,-0.01603 -0.16501,-0.08958 -0.53746,-0.568092 -1.14918,-1.119698 -0.59757,-0.568108 -1.25525,-1.136215 -0.0743,-0.07433 -0.0896,-0.179154 0,-0.104821 0.0743,-0.179155 l 0.9712,-0.926416 q 0.13437,-0.148352 0.28405,-0.01414 0.71662,0.582251 1.31419,1.14918 0.6129,0.553963 1.16568,1.119714 0.16501,0.16501 0,0.33002 l -0.9712,0.971205 z m 10.6349,9.291236 q -0.10372,0.194477 -0.2982,0.120222 -1.22579,-0.523335 -2.22528,-1.300063 -1.00185,-0.776727 -1.77857,-1.851653 -0.1933,-0.239249 -0.37245,-0.523303 -0.17916,-0.298213 -0.35949,-0.642362 -0.32766,0.568092 -0.77673,1.179809 -1.58291,2.106256 -4.04746,3.137572 -0.19448,0.07433 -0.29819,-0.120222 l -0.55397,-1.25408 q -0.0742,-0.223927 0.13555,-0.313504 2.20995,-0.926416 3.33084,-2.41976 1.19515,-1.584101 1.19515,-3.704485 v -1.568778 q 0,-0.223943 0.22394,-0.223943 h 1.49334 q 0.22394,0 0.22394,0.223943 v 1.567599 q 0,4.198338 4.526,6.125424 0.2098,0.08958 0.13436,0.313504 z m -6.73595,-10.336711 q -0.0154,0.04479 -0.0448,0.120222 -0.0307,0.05893 -0.0601,0.148666 -0.0295,0.105921 -0.0589,0.180333 -0.0306,0.05893 -0.0601,0.103721 -0.73194,1.643033 -1.68782,2.958386 -0.0601,0.07433 -0.16501,0.103721 -0.0896,0.01603 -0.16501,-0.04479 l -1.13386,-0.790871 q -0.2098,-0.120222 -0.0754,-0.344165 0.85216,-1.164487 1.4792,-2.583577 0.67182,-1.524005 1.03013,-3.032656 0.0448,-0.223927 0.26873,-0.194477 l 1.36016,0.239265 q 0.0896,0.01603 0.14849,0.08958 0.0601,0.07433 0.0306,0.179154 -0.12022,0.568107 -0.26873,1.135036 h 6.0488 q 0.23926,0 0.23926,0.223943 v 1.538133 q -0.64236,2.241785 -1.91176,4.093422 -0.1049,0.149767 -0.31352,0.07543 l -1.19514,-0.642362 q -0.22395,-0.134366 -0.0743,-0.359487 1.04546,-1.493345 1.59825,-3.196489 z m -4.78058,12.503063 q 0,-0.223943 0.23926,-0.223943 h 5.45241 q 0.10372,0 0.19448,0.104821 0.20862,0.403097 0.44788,0.761389 0.25341,0.358325 0.50682,0.671829 0.61289,-0.730745 1.13621,-1.449719 0.13437,-0.14851 0.2982,-0.05893 l 1.09024,0.657669 q 0.0896,0.05893 0.12022,0.165011 0.0295,0.08832 -0.0448,0.177991 -0.34417,0.493853 -0.70248,0.941738 -0.34298,0.44787 -0.73076,0.836823 l 0.0743,0.07433 q 0.0589,0.04479 0.13437,0.118964 l 0.64236,0.537479 q 0.80619,-0.880465 1.35897,-1.672499 0.13437,-0.194493 0.31352,-0.07433 l 1.07492,0.656506 q 0.0896,0.06003 0.10608,0.165011 0.0283,0.08958 -0.0306,0.16501 -0.64237,0.94056 -1.38962,1.762076 0.41842,0.253409 0.80737,0.477352 0.40309,0.223943 0.77672,0.418419 0.17916,0.08958 0.10372,0.298198 l -0.53746,1.27058 q -0.0295,0.08958 -0.13436,0.134366 -0.1049,0.02939 -0.19448,-0.03065 -0.37363,-0.193282 -0.68715,-0.372436 -0.31352,-0.180333 -0.56693,-0.344165 v 3.704485 q 0,0.223943 -0.23926,0.223943 h -0.94174 q -0.1933,0.433726 -0.37245,0.79205 -0.16501,0.34297 -0.3147,0.597558 h 3.51118 q 0.23809,0 0.23809,0.239265 v 1.193969 q 0,0.239265 -0.23809,0.239265 h -13.2951 q -0.23809,0 -0.23809,-0.239265 v -1.193969 q 0,-0.239265 0.23809,-0.239265 h 3.34735 q -0.14969,-0.388953 -0.28523,-0.731939 -0.11787,-0.358309 -0.23809,-0.657669 h -0.94173 q -0.23927,0 -0.23927,-0.223943 v -3.704485 q -0.25341,0.164995 -0.56693,0.344165 -0.31352,0.179154 -0.68715,0.372436 -0.0896,0.06003 -0.19447,0.03065 -0.0896,-0.04479 -0.13437,-0.149766 l -0.53746,-1.255259 q -0.0743,-0.20862 0.11904,-0.298213 1.19515,-0.61288 2.06263,-1.179809 -0.43374,-0.433742 -0.85216,-0.79205 -0.4031,-0.373631 -0.74726,-0.702458 -0.0743,-0.07433 -0.0896,-0.163847 0,-0.104821 0.0896,-0.179154 l 0.95588,-0.926416 q 0.14969,-0.118965 0.31352,0 0.50799,0.463223 0.95588,0.881627 0.4632,0.403113 0.88162,0.806194 l 0.22395,-0.179154 q 0.40309,-0.313504 0.73193,-0.656506 0.33002,-0.359471 0.62822,-0.747262 h -2.76392 q -0.23927,0 -0.23927,-0.223942 z m 4.85483,1.55344 q -0.43256,0.582251 -0.91109,1.135051 -0.46321,0.537447 -1.00185,1.060766 h 3.8247 q -0.53746,-0.523319 -1.01599,-1.060766 -0.46203,-0.5528 -0.89577,-1.135051 z m 0.97121,9.933614 q 0.16501,-0.268732 0.34298,-0.612881 0.19448,-0.343001 0.40428,-0.776727 h -3.43575 q 0.0743,0.194461 0.1933,0.537447 0.13436,0.34418 0.29937,0.852161 z m 3.98852,-5.347502 q -1.13621,-0.702473 -2.21113,-1.628889 v 0.628218 q 0,0.238087 -0.22394,0.238087 h -5.04931 q -0.22394,0 -0.22394,-0.238087 v -0.628218 q -1.07493,0.926416 -2.20996,1.628889 z m -2.00251,2.598899 v -1.165665 h -5.91443 v 1.165665 z m -7.4231,16.624773 q -0.0754,-0.118965 -0.0306,-0.223943 0.0601,-0.104821 0.17915,-0.149767 0.68715,-0.208604 1.32951,-0.492674 0.65768,-0.282859 1.30005,-0.582235 0.11904,-0.05893 0.31351,-0.165011 0.19448,-0.103721 0.49268,-0.268747 h -2.44922 q -0.23927,0 -0.23927,-0.223943 v -2.41976 q 0,-0.223927 0.23927,-0.223927 h 6.66169 q 0.23926,0 0.23926,0.223927 v 2.031986 l 0.82152,0.642362 q 0.19448,0.149767 0.0448,0.343002 -0.19448,0.223927 -0.43256,0.478514 -0.23927,0.253425 -0.52332,0.522141 0.17915,0.07543 0.38895,0.209799 0.20862,0.134365 0.49267,0.298197 0.11905,0.07543 0.13437,0.194477 0.0141,0.104821 -0.0754,0.20862 l -0.64236,0.671828 q -0.11904,0.120222 -0.28287,0.03065 -0.64236,-0.432563 -1.28472,-0.8215 -0.62822,-0.403113 -1.27058,-0.761406 v 1.090232 q 0,0.223943 -0.22394,0.223943 h -1.41909 q -0.22394,0 -0.22394,-0.223943 v -0.941738 q -0.68715,0.388953 -1.3743,0.717811 -0.67183,0.313504 -1.3743,0.597558 -0.1933,0.05893 -0.26873,-0.120222 z m 5.43709,-6.88562 v 0.537447 h 3.07626 q 0.23926,0 0.23926,0.223943 v 0.731939 q 0,0.223943 -0.23809,0.223943 h -8.09728 q -0.23808,0 -0.23808,-0.223943 v -0.73076 q 0,-0.223943 0.23926,-0.223943 h 3.07626 v -0.538626 h -2.67316 q -0.22395,0 -0.22395,-0.223958 v -0.657685 q 0,-0.239249 0.22395,-0.239249 h 2.67316 v -0.32768 q 0,-0.223927 0.23927,-0.223927 h 1.46387 q 0.23927,0 0.23927,0.223927 v 0.32768 h 2.67316 q 0.22394,0 0.22394,0.239249 v 0.657685 q 0,0.223958 -0.22394,0.223958 z m 3.88245,-1.911764 h -9.70849 v 10.097446 h 9.70967 V 71.543601 Z m -2.5223,7.647025 q 0.23809,-0.238071 0.40192,-0.417241 0.17915,-0.194476 0.29937,-0.314698 h -1.64303 l -0.0896,0.06003 -0.0896,0.08958 q 0.28287,0.165011 0.55278,0.299392 0.28288,0.134366 0.56693,0.282859 z m -0.38895,-1.806849 V 76.6365 h -3.88363 v 0.747277 z m -6.79724,6.139552 q 0,0.223943 -0.22394,0.223943 h -1.49334 q -0.23927,0 -0.23927,-0.223943 V 70.214072 q 0,-0.223927 0.23927,-0.223927 h 13.14423 q 0.23926,0 0.23926,0.223927 v 13.309257 q 0,0.223943 -0.23926,0.223943 h -1.49334 q -0.22394,0 -0.22394,-0.223943 v -0.388953 h -9.70967 z" />
</svg>
